<svg width="145" height="32" viewBox="0 0 145 32" fill="none" xmlns="http://www.w3.org/2000/svg">
<path d="M37.525 25.3439V8.44428H44.2915C45.5388 8.44428 46.5764 8.63193 47.4043 8.9962C48.2322 9.36046 48.8613 9.87926 49.2808 10.5305C49.7003 11.1818 49.91 11.9324 49.91 12.7823C49.91 13.4446 49.7775 14.0186 49.5126 14.5153C49.2477 15.0121 48.8834 15.4205 48.4309 15.7406C47.9672 16.0607 47.4484 16.2815 46.8634 16.4139V16.5795C47.5036 16.6016 48.1107 16.7892 48.6737 17.1204C49.2366 17.4515 49.7003 17.9262 50.0424 18.5222C50.3957 19.1293 50.5723 19.8358 50.5723 20.6747C50.5723 21.5688 50.3515 22.3746 49.91 23.07C49.4685 23.7765 48.8172 24.3284 47.9452 24.7368C47.0842 25.1452 46.0135 25.3439 44.7551 25.3439H37.525ZM41.1014 15.5198H43.7506C44.2363 15.5198 44.6778 15.4315 45.0531 15.2549C45.4395 15.0783 45.7375 14.8355 45.9583 14.5153C46.179 14.1952 46.2894 13.8089 46.2894 13.3674C46.2894 12.7603 46.0687 12.2635 45.6382 11.8882C45.2077 11.5129 44.5895 11.3253 43.8058 11.3253H41.0904V15.5198H41.1014ZM41.1014 22.4298H44.0155C45.009 22.4298 45.7375 22.2421 46.1901 21.8558C46.6427 21.4695 46.8745 20.9617 46.8745 20.3215C46.8745 19.8579 46.7641 19.4384 46.5323 19.0852C46.3115 18.732 45.9914 18.445 45.5719 18.2463C45.1525 18.0476 44.6668 17.9372 44.0928 17.9372H41.1014V22.4298Z" fill="#27BEC2"/>
<path d="M75.3752 16.8996C75.3752 18.743 75.022 20.3105 74.3265 21.6019C73.6311 22.8934 72.6818 23.8758 71.4897 24.5602C70.2976 25.2446 68.9509 25.5757 67.4607 25.5757C65.9595 25.5757 64.6128 25.2335 63.4207 24.5492C62.2286 23.8648 61.2793 22.8824 60.5949 21.5909C59.8995 20.2994 59.5573 18.732 59.5573 16.8996C59.5573 15.0562 59.8995 13.4888 60.5949 12.1973C61.2903 10.9058 62.2286 9.92344 63.4207 9.23906C64.6128 8.55469 65.9595 8.22354 67.4607 8.22354C68.9509 8.22354 70.2976 8.56573 71.4897 9.23906C72.6818 9.92344 73.6311 10.9058 74.3265 12.1973C75.033 13.4888 75.3752 15.0562 75.3752 16.8996ZM71.7546 16.8996C71.7546 15.7075 71.578 14.703 71.2248 13.8751C70.8716 13.0583 70.3748 12.4291 69.7236 12.0097C69.0834 11.5902 68.3217 11.3695 67.4607 11.3695C66.5997 11.3695 65.8381 11.5792 65.1979 12.0097C64.5577 12.4291 64.0499 13.0583 63.6967 13.8751C63.3434 14.692 63.1668 15.6965 63.1668 16.8996C63.1668 18.0918 63.3434 19.0963 63.6967 19.9241C64.0499 20.741 64.5466 21.3701 65.1979 21.7896C65.8381 22.2091 66.5997 22.4298 67.4607 22.4298C68.3217 22.4298 69.0834 22.2201 69.7236 21.7896C70.3638 21.3701 70.8716 20.741 71.2248 19.9241C71.578 19.0963 71.7546 18.0918 71.7546 16.8996Z" fill="#27BEC2"/>
<path d="M84.9896 25.3439V8.44428H88.566V22.3967H95.8071V25.3439H84.9896Z" fill="#27BEC2"/>
<path d="M111.139 25.3439H105.146V8.44428H111.183C112.883 8.44428 114.351 8.78647 115.577 9.45981C116.802 10.1331 117.751 11.1045 118.414 12.3629C119.076 13.6212 119.407 15.1335 119.407 16.8886C119.407 18.6437 119.076 20.1669 118.414 21.4253C117.751 22.6947 116.802 23.6661 115.566 24.3394C114.329 25.0128 112.85 25.3439 111.139 25.3439ZM108.722 22.2863H110.996C112.055 22.2863 112.939 22.0986 113.667 21.7233C114.396 21.348 114.936 20.763 115.301 19.9683C115.665 19.1735 115.853 18.1469 115.853 16.8886C115.853 15.6412 115.665 14.6147 115.301 13.831C114.936 13.0362 114.396 12.4512 113.667 12.0869C112.95 11.7116 112.055 11.524 111.007 11.524H108.722V22.2863Z" fill="#27BEC2"/>
<path d="M144.541 16.8996C144.541 18.743 144.188 20.3105 143.493 21.6019C142.797 22.8934 141.848 23.8758 140.656 24.5602C139.464 25.2446 138.117 25.5757 136.627 25.5757C135.125 25.5757 133.779 25.2335 132.587 24.5492C131.395 23.8648 130.445 22.8824 129.761 21.5909C129.065 20.2994 128.723 18.732 128.723 16.8996C128.723 15.0562 129.065 13.4888 129.761 12.1973C130.456 10.9058 131.395 9.92344 132.587 9.23906C133.779 8.55469 135.125 8.22354 136.627 8.22354C138.117 8.22354 139.464 8.56573 140.656 9.23906C141.848 9.92344 142.797 10.9058 143.493 12.1973C144.199 13.4888 144.541 15.0562 144.541 16.8996ZM140.921 16.8996C140.921 15.7075 140.744 14.703 140.391 13.8751C140.038 13.0583 139.541 12.4291 138.89 12.0097C138.249 11.5902 137.488 11.3695 136.627 11.3695C135.766 11.3695 135.004 11.5792 134.364 12.0097C133.724 12.4291 133.216 13.0583 132.863 13.8751C132.509 14.692 132.333 15.6965 132.333 16.8996C132.333 18.0918 132.509 19.0963 132.863 19.9241C133.216 20.741 133.713 21.3701 134.364 21.7896C135.004 22.2091 135.766 22.4298 136.627 22.4298C137.488 22.4298 138.249 22.2201 138.89 21.7896C139.53 21.3701 140.038 20.741 140.391 19.9241C140.744 19.0963 140.921 18.0918 140.921 16.8996Z" fill="#27BEC2"/>
<path d="M12.9541 18.8423C14.378 10.7844 18.683 7.35148 18.683 7.35148C13.0314 11.0714 11.8282 19.1514 11.8282 19.1514C8.78161 10.1 15.9786 6.4353 18.7492 2.1414C17.7116 1.92064 16.6409 1.79922 15.5481 1.79922C7.21417 1.79922 0.45874 8.55465 0.45874 16.8886C0.45874 25.1342 7.07067 31.8344 15.2721 31.9779C9.04653 27.0879 12.9541 18.8423 12.9541 18.8423ZM10.7795 23.3018C10.7795 23.3018 9.62052 18.169 5.82335 16.0496C5.82335 16.0496 8.73746 18.0476 10.04 23.1583C8.48358 22.772 4.89613 21.5026 3.83646 17.7275C3.19624 15.4757 3.63777 13.1797 4.84094 11.3694C5.81231 14.7913 12.5677 16.3918 10.7795 23.3018Z" fill="#27BEC2"/>
<path d="M23.2971 3.95171C22.4803 1.53432 19.6876 0 19.6876 0C21.7628 2.66023 22.701 6.18144 21.9615 9.73577C21.2771 13.0693 19.2792 15.288 17.2371 16.723C14.7976 18.445 13.1971 21.1162 12.9653 24.0855C12.6341 28.247 14.6541 31.0949 15.4047 32C15.4489 32 15.493 32 15.5482 32C23.8821 32 30.6376 25.2446 30.6376 16.9107C30.6376 11.4026 27.6903 6.58986 23.2971 3.95171ZM23.9815 21.4364C22.403 26.7347 17.3143 28.4567 15.1067 28.9645C17.0384 21.7896 21.1998 19.03 21.1998 19.03C15.7911 21.9441 14.058 29.1632 14.058 29.1632C11.6959 19.3612 21.255 17.2528 22.701 12.4512C24.3568 15.0231 24.9308 18.2794 23.9815 21.4364Z" fill="#F08F77"/>
</svg>
