<svg width="129" height="128" viewBox="0 0 129 128" fill="none" xmlns="http://www.w3.org/2000/svg">
<mask id="mask0" mask-type="alpha" maskUnits="userSpaceOnUse" x="0" y="0" width="129" height="128">
<circle cx="64.5" cy="64" r="64" fill="#C4C4C4"/>
</mask>
<g mask="url(#mask0)">
<g clip-path="url(#clip0)">
<path d="M139.5 -2H-10.5V148H139.5V-2Z" fill="#EDEDED"/>
<path d="M83.8202 83.0499C83.1002 82.6899 82.6202 81.9999 82.3502 81.2499C81.0302 77.4999 80.7302 65.5599 81.7502 61.6299L43.0202 62.4999C42.9902 65.6799 44.8202 73.8699 44.0102 78.7899C43.6202 81.3099 43.2002 83.6199 40.4702 85.0299C40.6802 86.1399 41.2202 87.1299 41.4602 88.2699C41.7002 89.4399 42.0002 90.6399 42.3902 91.7799C43.2002 94.1199 44.5202 96.1899 46.2902 97.8999C50.4902 101.95 55.9802 103.42 61.2602 103.48C68.3702 103.57 74.9402 100.6 79.7402 95.2299C80.4902 93.1599 81.4802 91.1799 82.0202 89.0499C82.2602 88.1199 82.1702 87.0399 82.5002 86.1399C82.8002 85.3299 83.5202 84.5199 84.0902 83.8599C84.1502 83.7699 84.2402 83.6799 84.2402 83.5899C84.3002 83.2899 84.0302 83.1399 83.8202 83.0499Z" fill="#B4B4B4"/>
<path d="M64.44 95.0799V180.16C63.48 180.19 62.52 180.22 61.56 180.22H60.63C60.06 180.22 59.49 180.19 58.92 180.19C56.58 180.13 54.24 179.98 51.93 179.74C47.13 179.26 42.45 178.39 37.89 177.19C31.62 175.57 25.62 173.29 19.95 170.47C18.99 170.02 18.03 169.51 17.07 168.97C7.37998 163.75 -1.29002 156.85 -8.52002 148.66C-4.86002 127.57 -0.93002 105.19 -0.42002 104.17C0.50998 102.4 1.46998 101.95 2.72998 100.42C5.81998 96.5499 21.45 91.2399 31.62 87.6699C32.07 87.5199 32.52 87.3699 32.91 87.1899C33.9 86.8299 34.83 86.4999 35.67 86.1999C36.24 86.0199 36.75 85.8099 37.23 85.6299C37.95 85.3899 38.58 85.1199 39.06 84.9099C39.48 84.7299 39.96 84.7599 40.47 84.9999H40.5C40.86 85.1499 41.19 85.3599 41.58 85.5999C43.59 87.0099 45.9 89.8599 47.49 90.7899C51.57 93.2199 55.05 95.1999 59.97 95.1999C60.81 95.1999 61.65 95.1999 62.46 95.1699H62.88C62.97 95.1699 63.06 95.1699 63.15 95.1399C63.27 95.1399 63.39 95.1399 63.51 95.1099C63.81 95.1099 64.11 95.0799 64.44 95.0799Z" fill="#E7E7E7"/>
<path d="M138.24 148.72C133.98 154.6 128.19 152.74 122.7 157.48C118.83 160.84 114.66 163.87 110.28 166.57C109.77 166.87 109.23 167.2 108.72 167.47C106.56 168.76 104.31 169.93 102.06 171.01C101.55 171.25 101.01 171.49 100.5 171.73V171.85H100.26C97.86 172.93 95.43 173.92 92.94 174.79C91.8 175.21 90.66 175.6 89.52 175.96H89.49C81.57 178.45 73.17 179.89 64.5 180.13V95.0799C64.71 95.0499 64.92 95.0499 65.13 95.0499C65.28 95.0199 65.37 95.0199 65.52 95.0199C65.85 94.9899 66.21 94.9599 66.54 94.9299C66.87 94.8999 67.2 94.8399 67.53 94.7799C67.86 94.7499 68.19 94.6899 68.52 94.6299C68.88 94.5699 69.18 94.5099 69.51 94.4499C69.81 94.3899 70.08 94.3299 70.35 94.2699C71.04 94.0899 71.73 93.9099 72.42 93.6399C74.85 92.7699 76.98 91.2999 78.69 89.3799C80.31 87.5799 82.47 84.9699 83.1 82.6299C83.1 82.6299 83.16 82.6299 83.28 82.6599H83.31C83.34 82.6899 83.4 82.6899 83.46 82.6899H83.49C83.67 82.7199 83.91 82.7799 84.24 82.8399C84.72 82.9299 85.32 83.0799 86.04 83.2599C86.34 83.3199 86.61 83.4099 86.94 83.4699C87.12 83.4999 87.3 83.5599 87.51 83.6199C87.69 83.6799 87.9 83.7399 88.11 83.7699C88.2 83.7999 88.26 83.7999 88.35 83.8299C88.77 83.9499 89.19 84.0699 89.7 84.1899C89.97 84.2799 90.24 84.3399 90.54 84.3999C91.26 84.5799 92.01 84.8199 92.82 85.0299C101.07 87.4299 114.03 91.9599 119.97 94.5099C121.98 95.3799 123.69 96.8499 124.8 98.7699C130.23 108.34 135.3 132.46 138.24 148.72Z" fill="#D7D7D7"/>
<path d="M89.6102 84.1298C85.7102 83.1398 83.0402 82.5398 83.0102 82.5998C82.3802 84.9398 80.1902 87.5798 78.6002 89.3498C76.8902 91.2698 74.7602 92.7398 72.3302 93.6098C69.8102 94.5398 67.1102 94.8998 64.4402 95.0798C63.7802 95.1098 63.0902 95.1398 62.4302 95.1698V131.92C63.0902 132.64 63.7202 133.33 64.4402 134.05C78.4502 116.71 87.5402 108.22 89.6102 84.1298Z" fill="#CDCDCD"/>
<path d="M59.94 95.1999C55.02 95.1999 51.57 93.2499 47.46 90.7899C45.15 89.3799 41.31 83.9499 39.06 84.9099C38.55 85.1199 37.95 85.3599 37.23 85.6299C37.59 93.9699 41.73 109.9 62.46 131.92V95.1699C61.59 95.1699 60.75 95.1999 59.94 95.1999Z" fill="#D7D7D7"/>
<path d="M59.9701 107.29C60.4501 108.16 60.5701 109.15 60.3601 110.11L55.5601 131.5C57.6301 132.46 59.7601 133.36 61.9801 133.9C67.1701 135.16 70.2301 132.88 71.8501 128.77L67.6801 110.14C67.4701 109.18 67.5901 108.19 68.0701 107.32L70.6501 102.58C70.7701 102.28 70.7101 101.98 70.4701 101.74C69.4801 100.78 68.4901 99.8198 67.5001 98.8298C66.8401 98.1698 66.0301 97.5698 65.6401 96.6998C65.3701 96.0698 64.7701 95.2898 63.6901 95.1398C62.8501 95.0498 62.4301 95.1698 61.7101 95.4698C60.9301 95.7698 59.9701 97.9298 59.3401 98.4998C58.4701 99.3698 57.5401 100.27 56.6701 101.14C56.4601 101.35 57.3001 102.28 57.4201 102.55L59.9701 107.29Z" fill="#7C7C7C"/>
<path d="M41.2804 65.4699C41.4604 66.8799 42.1204 68.1999 43.1104 69.1599L51.9004 77.5899C49.9204 68.2599 45.0604 60.6699 39.6904 52.6599L41.2804 65.4699Z" fill="#CFCFCF"/>
<path d="M83.8199 56.4998L85.3499 43.5698C85.3199 38.4098 85.4999 33.2198 85.2899 28.0598C85.1699 25.0298 84.2699 23.2598 81.5699 21.5798C78.2999 19.5098 75.7799 20.5598 72.8699 21.6398C71.9099 21.9998 70.9199 22.3598 69.8099 22.5998C66.6899 23.2898 63.2699 23.9198 60.2999 22.4798C55.4099 20.1398 50.6999 16.2998 44.8499 16.6298C43.7999 16.6898 42.7799 16.8998 41.8499 17.3798C39.9299 18.3998 38.8799 20.4698 38.3099 22.5098C36.8999 27.5198 39.0299 31.7498 38.4899 36.9398C38.5199 39.2798 38.5799 41.5898 38.6099 43.9298L39.6899 52.6598C45.0599 60.6698 49.9199 68.2898 51.8999 77.5898L53.9999 79.5998C54.9899 80.5598 56.2799 81.0698 57.5999 81.0398L62.0999 81.0098L66.5999 80.9798C67.9199 80.9798 69.2099 80.4398 70.1699 79.4798L73.2899 76.4198C73.4099 67.9898 76.2599 59.5298 83.8199 56.4998Z" fill="#CFCFCF"/>
<path d="M83.82 56.5C76.26 59.53 73.41 67.99 73.29 76.42L81.54 68.32C82.2 67.69 82.5901 66.82 82.7101 65.92L83.82 56.5Z" fill="#CFCFCF"/>
<path d="M41.4602 43.81C41.1302 41.5 40.8602 39.67 40.7102 39.16C40.5602 38.68 40.3202 38.11 39.8102 37.99C39.5402 37.93 39.2102 38.29 38.9702 38.14C37.0802 36.97 35.9102 38.32 35.3402 40.18C34.6502 42.37 34.8602 43.78 35.8202 45.73C36.9302 47.98 37.6502 50.47 38.5802 52.81C38.8202 53.41 39.8402 56.83 40.6802 56.83L44.7902 56.8C43.4102 56.8 42.2102 49.06 41.4602 43.81Z" fill="#CFCFCF"/>
<path d="M82.47 43.4801C82.71 41.8301 83.04 40.2101 83.91 38.4101C84.33 37.5401 85.2 36.5201 86.07 36.9701C87.24 37.5701 88.08 39.0701 88.59 40.2701C89.37 42.1601 88.62 43.1501 87.87 44.9501C87.39 46.1201 84.06 56.4701 83.34 56.4701L79.23 56.5001C80.1 53.6801 81.39 50.7701 81.9 47.8601C82.17 46.3001 82.29 44.8901 82.47 43.4801Z" fill="#CFCFCF"/>
<path d="M40.5601 48.07C40.1701 44.11 39.8701 40.15 39.1801 36.25C38.2501 31.06 40.9501 25.69 43.8301 21.25C44.3101 20.53 44.8501 19.75 45.7201 19.51C46.8601 19.15 48.0601 19.87 49.0501 20.5C52.3801 22.69 59.9401 25.45 59.9401 25.45C59.9401 25.45 67.8001 25.72 71.5501 24.85C74.1301 24.25 77.6401 22.27 80.2801 23.89C82.4101 25.21 83.0101 29.26 83.8801 31.63L84.0301 51.25L86.4601 43.42C88.3801 36.52 88.8901 20.62 88.8901 20.62C88.8901 20.62 78.4501 9.36996 72.3001 10.6C74.4601 10.18 78.4501 10.81 80.6101 10.36C72.3601 7.65996 65.5501 5.13996 58.7401 6.30996C51.9301 7.50996 45.6001 10.66 40.2901 14.92C37.9201 16.81 34.3501 21.58 34.3501 21.58C34.3501 21.58 34.3501 38.62 40.5601 48.07Z" fill="#878787"/>
<path d="M40.8301 87.88C41.4301 86.17 41.8801 84.61 42.2401 83.26C39.1801 84.67 36.1201 85.99 32.9401 87.13C30.5401 90.43 28.2901 94.81 27.0001 100.63C26.3401 113.59 27.4501 114.19 27.4501 114.19L45.0901 111.22C46.0501 111.22 37.6201 123.31 37.6201 123.31C42.2101 125.74 62.4301 137.65 64.5301 140.23V131.56C63.0001 129.13 36.6901 100.93 40.8301 87.88Z" fill="white"/>
<path d="M80.34 112.27C80.25 112.18 80.22 112.12 80.25 112.12C80.28 112.12 80.52 112.3 80.91 112.63C83.4 113.65 92.1 113.05 97.2 112.06C97.11 97.45 95.07 89.2 91.5 84.52C88.95 84.07 82.5 82.24 82.26 82.21C82.89 83.44 83.85 84.58 84.84 86.29C84.84 86.35 84.84 86.44 84.84 86.5C84.78 95.14 82.62 103.63 78.72 111.34C78.48 111.79 78.24 112.24 78 112.69L64.5 131.62V140.17C71.34 130.72 85.92 123.55 89.85 120.73C89.85 120.73 83.07 114.49 80.88 112.66C80.64 112.51 80.46 112.42 80.34 112.27Z" fill="#F1F1F1"/>
<path d="M87.5703 41.5901C87.5402 41.5601 87.3303 41.4701 86.9103 41.3501C86.5503 41.2001 86.0103 41.0501 85.3503 40.9001C84.9303 40.7801 84.4502 40.6601 83.9402 40.5701C83.7002 40.5101 83.4303 40.4801 83.1303 40.4201C79.1103 39.7601 72.7202 39.5501 65.4302 42.2501C64.2602 42.4001 63.1802 42.4601 62.5802 42.4901H62.5202C61.8902 42.4601 60.8402 42.4001 59.7302 42.2501C51.9002 39.5501 44.9702 40.0301 41.0402 40.7201C40.6202 40.8101 40.2302 40.8701 39.8702 40.9601C39.3602 41.0801 38.9702 41.1701 38.6102 41.2601C37.9502 41.4401 37.5902 41.5901 37.5602 41.6201L37.5302 41.6501C36.9002 42.4901 37.5602 43.6601 37.5602 43.6601C37.5902 43.6901 38.0702 43.8101 38.1602 43.8401C38.2502 43.8701 38.3102 43.9301 38.4002 43.9601C38.4902 43.9901 38.5802 44.0501 38.6402 44.1101C39.0602 44.3201 39.4802 44.6201 39.6602 44.9501C39.9002 45.4601 39.8102 46.2701 39.9002 46.8401C39.9302 46.9301 39.9302 47.0201 39.9302 47.1101C40.0802 48.0701 40.2902 49.0001 40.5902 49.9301C41.0402 51.2201 41.8802 52.6601 43.1402 53.4401H43.1702C45.8702 55.0301 51.3602 54.7001 54.1802 54.0101C57.2702 53.0501 60.0002 47.5001 60.3002 45.7301C60.5102 44.6501 61.7702 44.4101 62.5202 44.3501H62.5802C63.3302 44.3801 64.6502 44.6201 64.8602 45.7301C65.1602 47.5001 67.8902 53.0501 70.9803 54.0101C73.2002 54.5801 77.2202 54.8801 80.0702 54.1901C80.7902 54.0101 81.4203 53.7701 81.9603 53.4401C82.8603 52.9001 83.5203 52.0301 84.0303 51.1001C84.0903 50.9801 84.1503 50.8601 84.1803 50.7401C84.1803 50.7101 84.2103 50.7101 84.2103 50.6801C84.3603 50.4401 84.4502 50.1701 84.5402 49.9001C84.6002 49.7201 84.6602 49.5701 84.6902 49.3901C84.8402 48.9701 84.9302 48.5501 84.9902 48.1001C85.0202 48.0701 85.0202 48.0701 85.0202 48.0401C85.1102 47.6201 85.1703 47.2301 85.2303 46.8101C85.3203 46.2401 85.2603 45.4301 85.4702 44.9201C85.6203 44.6801 85.8603 44.4401 86.1603 44.2601C86.4303 44.0801 86.7303 43.9301 86.9702 43.8401C87.0602 43.8101 87.5402 43.6901 87.5703 43.6601C87.5703 43.6001 88.2603 42.4301 87.5703 41.5901ZM49.2002 52.7801C47.4302 52.6001 45.0602 52.2101 43.8902 50.8601C43.3802 50.2901 43.1102 49.5701 42.9002 48.8801C42.5402 47.6801 42.2102 45.8501 42.7202 44.4701C42.8702 44.0501 43.1402 43.6601 43.4702 43.3601C44.8802 42.1301 47.2802 42.0701 49.0802 42.1001C53.1902 42.2201 57.1502 42.7001 57.4802 45.6101C57.3902 47.3501 55.8302 53.5301 49.2002 52.7801ZM82.2002 48.8801C81.9902 49.5701 81.7203 50.2901 81.2103 50.8601C81.1803 50.8901 81.1802 50.9201 81.1202 50.9501C79.9202 52.2401 77.6402 52.6001 75.8702 52.7801C69.2402 53.5301 67.6802 47.3201 67.5902 45.6101C67.9202 42.7001 71.8802 42.2201 75.9902 42.1001C77.7902 42.0701 80.1903 42.1301 81.6003 43.3601C81.9603 43.6601 82.2002 43.9901 82.3503 44.4401V44.4701C82.8903 45.8501 82.5602 47.6801 82.2002 48.8801Z" fill="#878787"/>
<path d="M61.6204 161.8L63.2104 160.39C58.1404 155.05 58.1704 146.98 63.2704 136.42C66.3304 130.06 70.7404 123.91 74.4004 119.35C73.7404 118.99 73.1404 118.6 72.5404 118.18C63.1504 129.94 50.4604 150.01 61.6204 161.8Z" fill="#A7A7A7"/>
<path d="M102.061 119.11C101.191 115.96 98.8205 113.38 95.6705 112.21C95.6705 112.21 91.7105 110.77 91.6805 110.74C91.8005 109.66 91.9205 107.56 91.9505 103.39C92.0105 99.5199 91.9805 95.5299 91.9505 95.0199C91.7105 91.0299 91.5005 88.0599 90.2405 83.6499C89.9705 83.0199 88.5605 82.5999 87.7805 82.9299C89.0705 87.0699 89.4905 90.4299 89.7605 95.0799C89.8205 96.1599 89.8205 107.11 89.5505 110.14C88.0805 109.99 85.4705 109.75 85.4705 109.75C82.1405 109.42 78.8705 110.68 76.7405 113.11C75.5105 114.52 74.0705 116.2 72.5405 118.12C73.1405 118.54 73.7405 118.93 74.4005 119.29C75.9305 117.4 77.3105 115.75 78.4205 114.49C80.1005 112.57 82.6805 111.58 85.2905 111.85C86.9705 112 88.0805 112.12 88.8305 112.21C89.7605 112.3 90.6605 112.51 91.5005 112.84C92.1905 113.11 93.2705 113.5 94.9205 114.13C97.3805 115.06 99.2705 117.1 99.9605 119.59C100.351 120.97 100.801 122.65 101.251 124.6C101.971 124.54 102.691 124.42 103.411 124.27C102.931 122.38 102.481 120.61 102.061 119.11Z" fill="#878787"/>
<path d="M103.38 124.3C102.66 124.42 101.94 124.54 101.22 124.63C102.6 130.48 104.04 138.49 104.04 146.02C104.01 157.81 100.53 165.04 93.6904 167.59L94.5004 169.57C110.07 163.81 106.83 138.97 103.38 124.3Z" fill="#A7A7A7"/>
<path d="M31.8899 87.0701C30.0299 90.7001 28.5899 94.7501 27.5399 99.2501C25.8299 106.63 25.3499 114.31 25.1099 121.54L27.9899 121.63C28.4099 109.15 29.4299 96.2201 35.9999 85.5101C35.9999 85.4201 35.9999 85.3301 35.9999 85.2401C35.5199 85.2101 34.6199 85.2701 33.5999 85.7201C32.7599 86.1401 32.1899 86.7101 31.8899 87.0701Z" fill="#878787"/>
<path d="M34.5002 128.86C35.0402 133.48 31.5602 137.68 26.7602 138.19C21.9602 138.7 17.6102 135.37 17.1002 130.72C16.5602 126.07 20.0402 121.9 24.8402 121.39C29.6402 120.88 33.9902 124.21 34.5002 128.86Z" fill="#878787"/>
<path d="M32.6703 129.04C33.0903 132.7 30.3603 135.97 26.5503 136.39C22.7703 136.81 19.3503 134.17 18.9303 130.51C18.5103 126.85 21.2403 123.58 25.0503 123.16C28.8303 122.77 32.2503 125.41 32.6703 129.04Z" fill="#A7A7A7"/>
<path d="M44.0102 78.7598L62.8502 95.1698L51.8102 108.34L40.4702 84.9998L44.0102 78.7598Z" fill="white"/>
<path d="M81.8402 78.7598L63.4502 95.1698L74.0702 108.34L85.4102 84.9998L81.8402 78.7598Z" fill="#E7E7E7"/>
</g>
</g>
<defs>
<clipPath id="clip0">
<rect width="150" height="150" fill="white" transform="translate(-10.5 -2)"/>
</clipPath>
</defs>
</svg>
