<svg width="250" height="250" viewBox="0 0 250 250" fill="none" xmlns="http://www.w3.org/2000/svg">
<g clip-path="url(#clip0)">
<path d="M250 0H0V250H250V0Z" fill="#EDEDED"/>
<path d="M95.05 143.906C95.05 143.906 108.15 131.506 102.25 102.406C99.75 90.2062 151.5 106.956 151.5 106.956C148.4 114.206 146 123.606 149.4 132.556C152.2 139.956 157.05 142.006 156.1 146.206C154.45 153.356 128.3 159.506 123.3 159.006C118.25 158.506 102.6 154.406 100.5 151.406C98.7 148.706 97.2 146.306 95.05 143.906Z" fill="#BCBCBC"/>
<path d="M33 251.456C44.05 264.356 46.8 255.506 61.6 264.056C63.25 265.006 64.85 265.856 66.5 266.756C70.75 269.006 75.15 267.956 79.65 269.806C93.8 275.656 109.05 269.956 125.05 271.206C125.25 271.206 125.45 271.256 125.65 271.256V221.956C125.5 222.306 125.4 222.606 125.35 222.956C125.3 223.006 125.3 223.106 125.3 223.156C125.25 223.356 125.15 223.606 125.1 223.806C125.05 223.956 125 224.106 124.95 224.256C122.85 217.556 120.8 210.806 118.7 204.056C114.5 190.356 110.25 176.606 106.05 162.856L106 162.706C105.05 159.506 104 156.306 103.05 153.106C103 153.006 103 152.906 102.95 152.806C102.95 152.756 102.95 152.756 102.95 152.756C102.85 152.506 102.8 152.256 102.75 152.006C101.25 147.156 99.75 142.306 98.3 137.506C98.05 136.806 97.85 136.056 97.6 135.306C97.8 135.906 97.7 136.506 97.4 137.106C97.25 137.406 97 137.756 96.7 138.056C95.5 139.456 93.15 140.856 90.25 142.156C89.1 142.656 87.95 143.106 86.7 143.606C85.25 144.156 83.7 144.656 82.15 145.156C80.2 145.806 78.25 146.356 76.35 146.906C70.25 148.606 64.95 149.806 64.1 150.056C48.6 154.806 39.3 158.956 35.05 174.756C33.2 181.706 33 232.456 33 251.456Z" fill="#D7D7D7"/>
<path d="M91.25 143.906C91.25 143.906 106.65 153.206 126.65 154.406C148.5 155.756 162.8 144.956 162.8 144.956C162.8 144.956 166.25 155.106 148.75 176.406L125.95 230.056C125.75 230.456 125.55 230.806 125.25 231.106C124.95 230.806 124.7 230.456 124.55 230.056L101.8 176.406C89.2 153.706 91.25 143.906 91.25 143.906Z" fill="#9A9A9A"/>
<path d="M217.2 251.456C206.15 264.356 203.4 255.506 188.6 264.056C186.95 265.006 185.35 265.856 183.7 266.756C179.45 269.006 175.05 267.956 170.55 269.806C156.4 275.656 141.15 269.956 125.15 271.206C124.95 271.206 124.75 271.256 124.55 271.256V221.956C124.7 222.306 124.8 222.606 124.85 222.956C124.9 223.006 124.9 223.106 124.9 223.156C124.95 223.356 125.05 223.606 125.1 223.806C125.15 223.956 125.2 224.106 125.25 224.256C127.35 217.556 129.4 210.806 131.5 204.056C135.7 190.356 139.95 176.606 144.15 162.856L144.2 162.706C145.15 159.506 146.2 156.306 147.15 153.106C147.2 153.006 147.2 152.906 147.25 152.806C147.25 152.756 147.25 152.756 147.25 152.756C147.35 152.506 147.4 152.256 147.45 152.006C148.95 147.156 150.45 142.306 151.9 137.506C152.15 136.806 152.35 136.056 152.6 135.306C152.4 135.906 152.5 136.506 152.8 137.106C152.95 137.406 153.2 137.756 153.5 138.056C154.7 139.456 157.05 140.856 159.95 142.156C161.1 142.656 162.25 143.106 163.5 143.606C164.95 144.156 166.5 144.656 168.05 145.156C170 145.806 171.95 146.356 173.85 146.906C179.95 148.606 185.25 149.806 186.1 150.056C201.6 154.806 210.9 158.956 215.15 174.756C217 181.706 217.2 232.456 217.2 251.456Z" fill="#D7D7D7"/>
<path d="M125.3 221.956V224.256L125.25 231.106L125.2 251.606L125.15 271.256C124.95 271.256 124.75 271.306 124.55 271.306C120.75 271.556 116.95 271.706 113.05 271.706H111.65C111.25 271.706 110.8 271.706 110.4 271.656C109 271.656 107.65 271.606 106.3 271.556C103.3 271.406 100.35 271.206 97.45 270.956C96.05 270.806 94.7 270.656 93.3 270.456C92.85 270.406 92.35 270.306 91.9 270.256C90.25 270.056 88.6 269.756 86.95 269.456C81.85 268.556 76.8 267.406 71.85 266.006C71.2 265.856 70.65 265.706 70.05 265.456C70.25 249.856 69.4 233.156 65.95 227.556C65.6 228.006 65.25 228.456 64.85 228.956C65.15 204.656 68 180.056 65.2 156.406C64.9 154.106 64.7 152.306 64.3 150.006C69.95 148.856 74.75 147.156 81.75 145.256C81.95 145.156 82.35 145.456 82.9 145.156H82.95C84.6 144.206 87.65 142.356 90.45 140.506C93.7 138.356 96.7 136.256 97.15 135.506C97.2 135.456 97.2 135.356 97.2 135.356C97.35 135.906 97.5 136.406 97.65 136.906C97.85 137.606 98.1 138.306 98.3 139.006L98.35 139.206V139.256C99.3 142.406 100.25 145.506 101.25 148.656C101.7 150.106 102.15 151.556 102.6 153.056C107.85 170.106 113.05 187.106 118.3 204.106C120.35 210.856 122.45 217.606 124.5 224.356C124.55 224.206 124.65 224.056 124.7 223.906C124.75 223.756 124.8 223.606 124.85 223.456C124.9 223.406 124.9 223.306 124.9 223.256C124.95 223.006 125.05 222.806 125.1 222.556V222.506C125.2 222.256 125.25 222.106 125.3 221.956Z" fill="#CFCFCF"/>
<path d="M125.3 222.956L137 184.356L153.5 135.206L161.25 141.456C165.3 143.606 173.5 161.406 174.9 165.756L154.95 173.556L166.2 185.906C167.05 187.406 128.85 239.706 125.3 251.756C125.2 251.456 125.05 251.156 124.9 250.806V221.606L125.3 222.956Z" fill="#DFDFDF"/>
<path d="M96.35 175.456L77.4 165.706C78.8 161.356 85.3 143.556 89.35 141.406L97.1 135.156L113.6 184.306L124.9 221.556V250.756C118.35 236.006 83.6 187.356 84.4 185.856L96.35 175.456Z" fill="#EEEEEE"/>
<path d="M167.8 65.1563C167.85 65.0063 167.8 64.7563 167.75 64.5063C167.7 65.1063 167.65 65.5563 167.8 65.1563Z" fill="#5B5B5B"/>
<path d="M157.85 69.406C156.65 64.556 154.15 60.156 150.85 56.406C146.05 50.956 139.85 47.056 132.8 45.156C130 44.406 127.05 44.006 124.35 42.856C124.2 42.806 124 42.706 123.85 42.606V128.306C123.95 128.306 124.05 128.306 124.15 128.306C126.15 128.456 128.2 128.256 130.5 127.456C136.05 125.556 140.3 121.706 144.6 118.156C145 117.806 145.45 117.456 145.85 117.106C152.05 112.106 154.55 104.806 156.9 97.906C159.8 89.406 160 78.056 157.85 69.406Z" fill="#CFCFCF"/>
<path d="M119.8 38.4562C118.75 37.4062 117.5 36.2562 116.1 34.6562C115.3 33.7562 114.5 32.8562 113.45 32.2562C111.4 31.1062 108.85 31.2062 106.65 31.9062C101.05 33.6062 96.7999 38.4562 94.6999 43.9562C92.8499 48.9062 93.0499 53.7062 92.8999 58.8562C92.7999 63.2562 91.0999 66.7062 90.1999 71.1062C88.5499 79.3062 88.7999 89.9062 91.5499 97.9062C93.8999 104.756 96.3999 112.106 102.6 117.106C103.3 117.656 103.95 118.206 104.65 118.806C108.65 122.156 112.75 125.656 117.95 127.456C120.1 128.206 122.05 128.406 124 128.306C124.1 128.306 124 115.406 124 114.656C124 98.5562 124 82.4062 124 66.3062C124 60.0562 124 53.8062 124 47.5062C123.9 42.6562 122.45 41.0062 119.8 38.4562Z" fill="#CFCFCF"/>
<path d="M91.2499 96.7061C89.7999 96.4061 88.3999 95.9061 87.3499 94.9561C85.8999 93.6561 85.3499 91.6061 85.0499 89.6561C84.7499 87.7061 84.6499 85.7061 83.8999 83.9061C83.3999 82.7061 82.5999 81.6561 82.1499 80.4561C81.6999 79.2561 81.5499 77.7561 82.3499 76.7061C83.1499 75.6561 84.5999 75.3561 85.8999 75.4061C87.3999 75.4061 88.5999 75.9061 89.4999 76.7561C89.4499 77.6561 89.3999 78.5561 89.3999 79.5061C89.3499 83.2061 89.6499 86.9061 90.1999 90.5561C90.4499 92.6061 90.8499 94.6561 91.2499 96.7061Z" fill="#CFCFCF"/>
<path d="M165.6 80.4563C165.15 81.6563 164.35 82.7063 163.85 83.9062C163.1 85.7063 163 87.7063 162.7 89.6562C162.4 91.6063 161.85 93.6063 160.4 94.9563C159.55 95.7563 158.5 96.2063 157.4 96.5063C158 94.5063 158.45 92.3563 158.75 90.1063C159.25 86.5063 159.4 82.7063 159.25 79.0063C159.2 78.0563 159.1 77.1063 159.05 76.1562C159.85 75.7063 160.75 75.4062 161.9 75.4062C163.2 75.4062 164.65 75.6563 165.45 76.7063C166.2 77.7563 166.05 79.2563 165.6 80.4563Z" fill="#CFCFCF"/>
<path d="M171.15 60.8061C170.5 54.1061 168.95 47.4061 167.15 41.4061C162.05 24.4561 141.25 13.7061 123.6 14.0061C121 14.0561 118.45 14.3561 116.05 14.9061C112.75 15.6561 109.55 16.8061 106.35 17.9561C101.9 19.6061 97.45 21.3061 93.65 24.1061C84.3 31.1061 79.45 41.8561 77.85 53.1561C77.3 57.1061 77.35 61.1061 77.45 65.1061C77.55 71.4061 78.35 76.6061 80.4 82.6061C81.4 85.4561 82.35 88.3561 83.9 90.9561C84.65 92.2061 85.55 93.4061 86.45 94.6061C86.55 94.5061 86.7 94.4561 86.8 94.4061C85.75 93.1061 85.25 91.3561 85 89.6561C84.7 87.7061 84.6 85.7061 83.85 83.9061C83.35 82.7061 82.55 81.6561 82.1 80.4561C81.65 79.2561 81.5 77.7561 82.3 76.7061C83.1 75.6561 84.55 75.3561 85.85 75.4061C88.3 75.4561 89.85 76.9561 90.55 79.2561C90.2 78.1061 90.8 76.3061 90.8 75.0561C90.8 73.4061 90.95 71.7561 91.25 70.1561C92.15 65.1561 95.55 59.8561 97.95 55.4061C101.2 49.3061 103.75 42.9561 105.35 36.2561C109.95 42.2561 116.4 46.8061 123.6 49.2061C125.15 49.7061 126.7 50.1561 128.3 50.4561C131.35 51.0561 134.5 51.3061 137.55 52.0061C145.15 53.7561 149.9 57.3561 153.75 63.8061C153.75 62.9061 152.7 58.6061 153.75 60.2561C155.4 64.6561 158.1 72.8061 157.45 77.5061C158.05 76.6561 158.5 75.7561 158.85 74.8061C158.9 75.3061 158.95 75.8061 159 76.3061V76.2561C159.8 75.8061 160.7 75.5061 161.85 75.5061C163.15 75.5061 164.6 75.7561 165.4 76.8061C166.2 77.8561 166.1 79.3061 165.6 80.5561C165.15 81.7561 164.35 82.8061 163.85 84.0061C163.1 85.8061 163 87.8061 162.7 89.7561C162.4 91.7061 161.85 93.7061 160.4 95.0561C159.75 95.6561 158 96.0061 157.4 96.6061C156.35 97.6561 156.65 99.0561 156.5 100.706C164.65 94.2561 169.7 84.3061 171.1 74.0061C171.6 69.7061 171.6 65.2561 171.15 60.8061Z" fill="#878787"/>
<path d="M160.8 105.156C161.6 107.506 162.4 109.906 162.75 112.356C163.7 119.206 160.9 126.056 157.3 131.956C154.2 137.056 150.35 142.106 149.75 148.056C149.1 154.806 152.75 161.256 152.85 168.006C152.95 176.106 147.25 184.006 139.5 186.406C141.65 183.606 143.85 180.806 145.3 177.556C146.75 174.356 147.35 170.606 146.35 167.256C145.55 164.756 143.9 162.606 143 160.106C142.1 157.756 141.95 155.156 141.95 152.606C141.9 142.256 142.15 130.556 146.75 121.306C150.1 114.506 154.55 109.006 156.1 101.806C156.35 100.606 157.05 99.4063 157.4 98.2563C157.7 97.1063 158.1 96.4563 159.15 95.9062C158.9 99.1063 159.8 102.206 160.8 105.156Z" fill="#878787"/>
<path d="M150.05 174.056C149.85 175.056 149.55 176.056 149.2 177.006C148.5 178.856 146.2 182.956 144.1 183.406C148.3 182.506 151.9 179.506 153.95 175.756C156 171.956 156.55 167.506 155.85 163.256C155.15 158.656 153.1 154.006 154.5 149.606C155.7 145.906 159 143.406 161.55 140.506C165.8 135.556 168 129.006 168.05 122.456C168.1 115.906 166.15 109.456 162.9 103.806C161.5 101.356 159.75 98.8061 159.85 95.9561C158.1 96.4561 157 98.2061 156.7 100.006C156.4 101.806 156.75 103.606 157.1 105.406C158.7 114.506 158.95 124.356 154.5 132.456C153.3 134.656 151.75 136.656 150.55 138.806C147.9 143.506 146.8 149.056 147.45 154.456C147.95 159.006 149.7 163.356 150.35 167.906C150.6 169.856 150.5 172.006 150.05 174.056Z" fill="#878787"/>
</g>
<defs>
<clipPath id="clip0">
<rect width="250" height="250" fill="white"/>
</clipPath>
</defs>
</svg>
