<svg width="295" height="306" viewBox="0 0 295 306" fill="none" xmlns="http://www.w3.org/2000/svg">
<g clip-path="url(#clip0)">
<path d="M299.527 -0.500977H-2.84106V306.767H299.527V-0.500977Z" fill="#F08F77"/>
<path opacity="0.5" d="M240.795 224.448C237.387 191.87 226.843 168.77 216.158 147.303C206.097 127.08 219.167 106.34 213.531 101.151C206.058 94.272 195.195 99.415 188.669 110.194L188.639 61.987C188.632 50.837 179.775 41.805 168.854 41.813L94.9951 41.858C84.0741 41.864 75.2261 50.909 75.2341 62.057L75.2551 95.051C71.7491 93.379 65.2911 90.6 61.8401 89.358C54.5451 86.733 46.0491 85.774 42.8981 93.768C37.8891 106.463 47.9801 110.541 60.4011 116.028C63.2131 117.268 65.8861 118.405 68.3411 119.419C68.3401 119.454 68.3411 119.489 68.3411 119.526C70.9271 120.592 73.2671 121.524 75.2731 122.303L75.2781 130.664C72.4641 129.086 70.135 127.861 68.1411 127.06C63.771 125.306 55.4781 126.421 52.302 135.347C47.786 148.036 54.642 148.995 62.4401 154.064C66.6831 156.822 71.1561 158.767 75.2951 158.654L75.3001 166.492C67.0591 161.865 59.9421 161.769 53.8951 168.949C49.0181 174.74 50.3521 184.48 61.6601 190.328C66.5721 192.869 71.2641 194.598 75.3181 194.912L75.3241 204.65C74.6771 204.484 74.0561 204.345 73.4821 204.232C68.1531 203.183 58.5411 201.636 55.8121 210.605C53.7991 217.212 57.8141 224.925 68.3421 226.875C70.8231 227.334 73.173 227.719 75.3391 227.891L75.3431 235.03C75.3481 246.178 84.2071 255.21 95.1271 255.202L162.083 255.161C163.601 255.917 165.218 256.768 166.879 257.727C166.879 257.727 178.179 266.465 178.916 265.985C186.194 270.678 191.849 271.952 197.859 275.116L209.878 314.909H294.21V295.501C274.893 269.712 248.683 234.091 240.795 224.448Z" fill="#F08F77"/>
<path d="M85.4199 117.437C85.4199 117.437 79.5769 115.392 71.1789 111.927C68.7239 110.913 66.0499 109.777 63.2389 108.536C50.8179 103.05 40.7269 98.972 45.7359 86.276C48.8869 78.282 57.3829 79.241 64.6779 81.866C68.9689 83.411 77.9179 87.335 80.0479 88.548L85.4199 117.437Z" fill="#FFF4E9"/>
<path opacity="0.3" d="M71.179 112.034C71.407 96.9091 66.77 86.0731 64.678 81.9751C68.969 83.5181 78.909 87.8851 81.039 89.0961L85.42 117.543C85.42 117.544 79.577 115.501 71.179 112.034Z" fill="#E88861"/>
<path d="M297.048 288.009V307.417H212.716L200.697 267.624C193.476 263.823 186.78 262.769 177.152 255.214C167.279 247.468 155.742 244.085 155.264 242.818C143.953 212.88 176.401 185.629 182.388 172.986C182.596 172.548 182.789 172.107 182.976 171.666C188.12 159.264 187.708 139.654 186.674 130.111C186.31 126.73 185.885 120.787 186.251 117.92C188.802 97.949 205.909 84.031 216.369 93.66C222.005 98.849 208.935 119.59 218.996 139.812C229.681 161.279 240.225 184.378 243.633 216.957C251.521 226.599 277.731 262.22 297.048 288.009Z" fill="#FFF4E9"/>
<path opacity="0.3" d="M215.035 121.923C203.407 124.087 206.316 106.329 207.311 99.4641C207.426 102.864 207.457 106.239 207.616 109.626C207.763 118.86 208.5 121.536 215.035 121.923Z" fill="#E88861"/>
<path opacity="0.3" d="M212.716 307.417H256.876C239.382 289.392 223.972 264.337 212.701 247.71C208.12 240.952 212.661 228.874 206.25 224.028C191.81 210.253 197.532 185.889 197.921 174.235C198.311 162.581 187.898 122.104 187.898 122.104L186.432 127.524C186.51 128.471 186.594 129.356 186.675 130.11C187.709 139.653 188.12 159.262 182.977 171.665C182.79 172.106 182.597 172.548 182.389 172.985C180.264 177.471 174.806 183.799 169.156 191.434L162.371 216.53C160.227 215.614 157.995 215.014 155.754 214.723C152.549 223.524 151.566 233.026 155.266 242.817C155.744 244.085 167.281 247.467 177.154 255.213C186.782 262.768 193.478 263.822 200.699 267.623L212.716 307.417Z" fill="#E88861"/>
<path d="M171.825 247.665L97.965 247.71C87.045 247.718 78.186 238.687 78.181 227.538L78.072 54.5651C78.064 43.4171 86.912 34.3721 97.833 34.3661L171.692 34.3211C182.613 34.3131 191.47 43.3441 191.477 54.4951L191.585 227.468C191.593 238.616 182.746 247.659 171.825 247.665Z" fill="#374151"/>
<path d="M173.623 244.862L96.1669 244.909C88.2779 244.913 81.8799 238.522 81.8749 230.636L81.7629 52.7801C81.7579 44.8911 88.1489 38.4931 96.0359 38.4871L173.493 38.4421C181.381 38.4361 187.779 44.8271 187.785 52.7171L187.897 230.571C187.902 238.46 181.512 244.858 173.623 244.862Z" fill="#E5E7EB"/>
<path d="M183.015 228.089C183.017 232.89 179.129 236.786 174.327 236.788L95.419 236.835C90.616 236.839 86.723 232.948 86.718 228.146L86.708 208.214L86.627 54.181C86.625 49.382 90.515 45.488 95.315 45.486L106.577 45.476L106.578 47.236C106.582 50.466 109.204 53.084 112.435 53.08L159.218 53.035C162.449 53.031 165.068 50.408 165.063 47.178L165.062 45.446L174.224 45.438C179.026 45.436 182.92 49.325 182.923 54.126L183.003 208.216L183.015 228.089Z" fill="#27BEC2"/>
<mask id="mask0" mask-type="alpha" maskUnits="userSpaceOnUse" x="91" y="61" width="89" height="148">
<rect x="91" y="61.9995" width="89" height="147" fill="#C4C4C4"/>
</mask>
<g mask="url(#mask0)">
<path d="M147.367 104.898C150.29 104.898 152.659 102.529 152.659 99.606C152.659 96.6833 150.29 94.314 147.367 94.314C144.445 94.314 142.075 96.6833 142.075 99.606C142.075 102.529 144.445 104.898 147.367 104.898Z" fill="#C15644"/>
<path d="M130.676 146.87C140.626 148.606 150.214 141.296 152.09 130.543C153.967 119.79 147.422 109.665 137.471 107.929C127.521 106.192 117.934 113.502 116.057 124.255C114.181 135.008 120.726 145.133 130.676 146.87Z" fill="#C15644"/>
<path d="M139.913 136.739H125.827V158.509H139.913V136.739Z" fill="#FBBD90"/>
<path d="M155.502 181.511C156.047 178.445 152.639 165.56 152.57 165.22C152.503 164.878 154.342 155.13 154.342 155.13L146.565 153.124L141.865 151.13L139.887 150.952C138.626 153.544 135.975 155.335 132.899 155.335C129.824 155.335 127.172 153.544 125.91 150.952L123.934 151.13L117.784 153.882L111.27 154.427L112.692 164.97C112.692 164.97 110.239 178.331 110.239 180.693C110.239 183.056 115.374 193.054 116.715 196.963C117.166 198.277 116.015 204.223 114.394 212.416C115.924 216.174 119.127 225.574 133.254 223.613C147.38 221.652 145.07 220.154 151.209 214.006C149.84 206.649 148.945 200.92 149.161 198.963C149.98 191.601 154.957 184.579 155.502 181.511Z" fill="#17AAAA"/>
<path d="M155.502 181.511C156.047 178.445 152.639 165.56 152.57 165.22C152.503 164.878 154.342 155.13 154.342 155.13L146.565 153.124L141.865 151.13L139.887 150.952C138.626 153.544 135.975 155.335 132.899 155.335C129.824 155.335 127.172 153.544 125.91 150.952L123.934 151.13L117.784 153.882L111.27 154.427L112.692 164.97C112.692 164.97 110.239 178.331 110.239 180.693C110.239 183.056 115.374 193.054 116.715 196.963C117.166 198.277 116.015 204.223 114.394 212.416C115.924 216.174 119.127 225.574 133.254 223.613C147.38 221.652 145.07 220.154 151.209 214.006C149.84 206.649 148.945 200.92 149.161 198.963C149.98 191.601 154.957 184.579 155.502 181.511Z" fill="#17AAAA"/>
<path opacity="0.5" d="M110.38 181.567C111.418 185.236 112.988 188.279 116.715 196.962C116.715 196.962 115.849 206.316 114.394 212.415C116.143 215.979 117.907 222.524 128.371 223.842L128.081 191.879L125.911 150.952L123.935 151.13L117.785 153.882C117.785 153.882 112.228 162.698 112.693 164.97C112.693 164.97 110.551 176.633 110.271 180.09C110.255 180.311 110.244 180.516 110.24 180.693C110.236 180.867 110.267 181.056 110.304 181.248C110.321 181.343 110.354 181.46 110.38 181.567Z" fill="#17AAAA"/>
<path opacity="0.5" d="M155.42 181.567C154.382 185.236 152.812 188.279 149.085 196.962C149.085 196.962 149.951 206.316 151.406 212.415C149.657 215.979 147.893 222.524 137.429 223.842L137.719 191.879L139.889 150.952L141.865 151.13L148.015 153.882C148.015 153.882 153.572 162.698 153.107 164.97C153.107 164.97 155.249 176.633 155.529 180.09C155.545 180.311 155.556 180.516 155.56 180.693C155.564 180.867 155.533 181.056 155.496 181.248C155.479 181.343 155.445 181.46 155.42 181.567Z" fill="#17AAAA"/>
<path d="M120.125 127.567C122.229 126.799 122.942 123.454 121.717 120.094C120.492 116.734 117.793 114.633 115.688 115.4C113.584 116.168 112.871 119.513 114.096 122.873C115.321 126.233 118.02 128.334 120.125 127.567Z" fill="#FBBD90"/>
<path d="M125.827 141.042C125.827 141.042 130.41 144.972 132.102 145.06C133.793 145.152 139.913 141.757 139.913 141.757L139.911 138.585H125.827V141.042Z" fill="#F9A77A"/>
<path d="M155.209 122.29C153.49 120.855 150.238 121.919 147.947 124.665C145.656 127.412 145.193 130.801 146.912 132.236C148.632 133.671 151.883 132.607 154.175 129.861C156.466 127.114 156.929 123.725 155.209 122.29Z" fill="#FBBD90"/>
<path d="M150.955 124.558C148.719 137.371 136.194 144.48 131.24 143.617C126.755 142.832 116.912 131.818 119.147 119.006C121.384 106.193 129.959 99.1059 138.742 100.641C147.525 102.173 153.192 111.743 150.955 124.558Z" fill="#FED5B0"/>
<path d="M150.955 124.558C153.192 111.744 147.525 102.173 138.742 100.64C129.959 99.1049 121.385 106.193 119.147 119.005C118.493 122.753 118.877 126.347 119.855 129.577C121.112 123.745 125.151 119.333 128.734 115.411C132.55 111.239 137.079 108.595 142.127 106.229C143.126 107.68 144.544 109.116 145.352 110.362C149.182 116.27 150.213 122.479 149.911 128.44C150.358 127.212 150.719 125.919 150.955 124.558Z" fill="#F9A77A"/>
<path d="M126.794 193.026L124.068 151.036L119.47 152.944L114.112 153.725C114.112 153.725 111.842 163.215 112.388 165.487C112.388 165.487 109.117 177.483 109.026 180.938C108.934 184.391 115.479 192.208 115.934 200.479L114.65 203.206C114.65 203.206 114.962 204.569 115.334 205.796C115.334 205.796 108.041 229.595 106.56 240.474C110.097 242.74 119.021 248.12 127.408 250.548L126.794 193.026Z" fill="#EDEEE9"/>
<path d="M124.068 151.036L126.794 193.026C126.794 193.026 116.434 180.846 116.978 167.305L120.523 165.305L116.434 164.395L119.471 152.944L124.068 151.036Z" fill="white"/>
<path d="M141.953 151.036L139.225 193.026C139.225 193.026 149.586 180.846 149.041 167.305L145.496 165.305L149.586 164.395L146.55 152.944L141.953 151.036Z" fill="white"/>
<path d="M118.085 179.022C118.085 179.022 118.085 179.024 118.084 179.026C118.084 179.026 118.08 179.016 118.075 178.999C118.003 178.841 117.933 178.685 117.86 178.52C117.541 177.85 116.839 176.547 115.53 174.797C115.53 174.797 115.634 173.744 116.937 173.631C116.937 173.631 118.529 175.942 119.613 178.213C119.613 178.213 122.815 185.414 125.372 187.695C125.372 187.695 125.562 187.482 125.936 187.566C126.31 187.648 127.165 189.002 126.684 189.291C126.204 189.582 125.591 189.652 125.106 189.373C124.63 189.097 122.059 187.915 118.085 179.022Z" fill="#B2BDBB"/>
<path d="M125.379 148.265L125.888 146.579C116.64 147.774 117.025 159.319 117.544 163.874C116.484 164.349 115.386 165.354 114.796 167.431C113.423 172.253 115.619 174.863 115.619 174.863C115.619 174.863 115.869 173.92 117.002 173.742C117.002 173.742 115.509 171.402 116.388 167.955C117.266 164.504 120.534 165.267 121.435 165.939C122.337 166.611 123.228 170.142 122.77 172.13C122.77 172.13 123.693 171.446 124.398 172.148C124.398 172.148 125.11 164.322 120.283 163.546C120.283 163.546 119.754 163.429 119.019 163.495C117.954 148.603 125.379 148.265 125.379 148.265Z" fill="#374151"/>
<path d="M121.656 188.302C121.656 188.302 121.531 187.673 120.765 187.579C120 187.481 118.82 187.304 118.504 188.126C118.19 188.944 118.254 190.23 119.299 190.431C120.342 190.632 121.268 190.874 121.436 190.353C121.437 190.353 121.878 188.86 121.656 188.302Z" fill="#595352"/>
<path d="M124.069 177.075L124.07 177.077C124.07 177.077 124.069 177.065 124.067 177.05C124.056 176.874 124.047 176.704 124.037 176.525C124.014 175.785 124.038 174.306 124.397 172.148C124.397 172.148 123.783 171.179 122.769 172.13C122.769 172.13 122.257 174.542 122.338 177.058C122.338 177.058 122.803 184.923 121.578 188.126C121.578 188.126 121.31 188.024 121.017 188.271C120.724 188.519 120.586 190.111 121.146 190.148C121.707 190.183 122.282 189.966 122.584 189.494C122.883 189.03 124.624 186.8 124.069 177.075Z" fill="#BFCAC8"/>
<path d="M125.385 187.888C125.385 187.888 125.208 187.271 125.844 186.835C126.478 186.399 127.448 185.698 128.103 186.282C128.76 186.866 129.291 188.036 128.457 188.696C127.621 189.354 126.913 189.995 126.522 189.606C126.522 189.606 125.444 188.485 125.385 187.888Z" fill="#595352"/>
<path d="M124.331 146.901C124.331 146.901 124.291 148.161 123.681 148.801C123.681 148.801 124.642 148.289 125.379 148.264L125.888 146.578C125.888 146.579 124.795 146.751 124.331 146.901Z" fill="#2D405A"/>
<path d="M141.352 179.792C143.582 179.792 145.39 178.016 145.39 175.825C145.39 173.634 143.582 171.858 141.352 171.858C139.122 171.858 137.314 173.634 137.314 175.825C137.314 178.016 139.122 179.792 141.352 179.792Z" fill="#6F7878"/>
<path d="M141.436 179.484C143.627 179.484 145.403 177.708 145.403 175.517C145.403 173.326 143.627 171.55 141.436 171.55C139.245 171.55 137.469 173.326 137.469 175.517C137.469 177.708 139.245 179.484 141.436 179.484Z" fill="#9AA4A3"/>
<path d="M139.597 146.579L140.139 148.372C140.139 148.372 143.707 148.903 143.863 158.11C144.016 167.315 141.23 172.745 141.23 172.745C141.23 172.745 142.462 172.788 143.361 173.979C143.361 173.979 146.371 163.768 145.673 155.913C145.284 151.55 143.5 147.479 139.597 146.579Z" fill="#374151"/>
<path d="M141.435 178.116C143.019 178.116 144.304 176.831 144.304 175.247C144.304 173.662 143.019 172.378 141.435 172.378C139.85 172.378 138.566 173.662 138.566 175.247C138.566 176.831 139.85 178.116 141.435 178.116Z" fill="#848D8D"/>
<path d="M140.915 172.86C140.915 172.86 141.763 171.26 141.839 170.837C141.839 170.837 143.571 170.452 144.228 171.724C144.228 171.724 143.765 173.689 143.515 174.247C143.515 174.247 142.995 172.937 140.915 172.86Z" fill="#BFCAC8"/>
<path d="M141.435 177.557C142.827 177.557 143.956 176.428 143.956 175.036C143.956 173.644 142.827 172.515 141.435 172.515C140.043 172.515 138.914 173.644 138.914 175.036C138.914 176.428 140.043 177.557 141.435 177.557Z" fill="#BFCAC8"/>
<path d="M141.628 176.442C142.593 176.442 143.376 175.659 143.376 174.694C143.376 173.728 142.593 172.946 141.628 172.946C140.662 172.946 139.88 173.728 139.88 174.694C139.88 175.659 140.662 176.442 141.628 176.442Z" fill="#E3F3F3"/>
<path d="M140.744 146.958C140.744 146.958 140.382 147.694 140.587 148.538C140.587 148.538 140.257 148.374 140.139 148.372L139.597 146.579C139.597 146.579 140.525 146.776 140.744 146.958Z" fill="#2D405A"/>
<path d="M121.032 203.462C121.032 203.462 109.801 208.991 113.756 220.853C113.756 220.853 122.983 215.938 121.032 203.462Z" fill="#D7D8D5"/>
<path d="M108.467 199.675L99.844 177.558L122.435 180.253L129.441 208.214L112.493 208.291L108.467 199.675Z" fill="#B54330"/>
<path d="M147.028 179.214L154.021 179.483V181.118L146.366 180.933L147.028 179.214Z" fill="#D7D8D5"/>
<path d="M155.561 173.28C155.561 173.28 153.672 166.872 152.825 164.792C152.825 164.792 155.14 167.118 155.561 169.036C155.561 169.036 158.987 159.554 160.989 156.856C160.989 156.856 157.449 164.87 156.562 170.106C156.562 170.106 160.681 167.102 160.989 166.563C160.989 166.563 156.087 173.147 155.958 174.862L155.561 173.28Z" fill="#D7D8D5"/>
<path d="M109.972 175.247C109.972 175.247 112.054 167.862 112.298 165.86C112.544 163.858 112.389 165.487 112.389 165.487C112.389 165.487 111.817 166.178 110.789 169.337C110.789 169.337 107.835 159.862 105.756 156.857C105.756 156.857 109.125 164.871 109.097 169.261C109.097 169.261 107.826 167.005 106.56 165.861C106.56 165.86 109.565 172.454 109.972 175.247Z" fill="#D7D8D5"/>
<path d="M105.271 193.796C105.271 193.796 101.739 192.55 98.207 194.655C98.206 194.655 101.738 190.444 105.271 193.796Z" fill="#D7D8D5"/>
<path d="M173.368 189.769C173.368 189.769 169.836 188.521 166.305 190.628C166.306 190.628 169.836 186.417 173.368 189.769Z" fill="#D7D8D5"/>
<path d="M105.271 193.802C105.271 193.802 103.873 191.661 102.21 190.65C102.21 190.649 105.276 190.812 105.271 193.802Z" fill="#D7D8D5"/>
<path d="M169.776 187.384C169.776 187.384 167.494 188.536 166.305 190.077C166.306 190.077 166.805 187.046 169.776 187.384Z" fill="#D7D8D5"/>
<path opacity="0.7" d="M118.546 204.905C118.546 204.905 114.915 210.35 115.868 214.675C115.868 214.675 113.888 214.308 113.134 213.482C113.134 213.481 113.183 208.198 118.546 204.905Z" fill="#FBBD90"/>
<path d="M118.848 202.71C118.848 202.71 108.981 206.671 111.888 220.179L113.756 220.853C113.756 220.853 109.966 209.499 119.827 204.158L119.925 203.066L118.848 202.71Z" fill="white"/>
<path d="M121.817 181.118L100.241 178.575L99.844 177.558L122.435 180.253L121.817 181.118Z" fill="#B54330"/>
<path d="M140.736 122.88C140.736 122.88 145.827 120.499 146.188 125.411C146.188 125.411 144.619 123.497 143.375 123.714C142.043 123.944 140.461 124.568 140.17 123.845C139.986 123.39 140.736 122.88 140.736 122.88Z" fill="#962C1E"/>
<path d="M129.385 120.856C129.385 120.856 125.517 117.29 123.278 121.422C123.278 121.422 125.447 120.291 126.577 120.858C128.286 121.71 129.07 122.538 129.591 121.956C129.918 121.591 129.385 120.856 129.385 120.856Z" fill="#962C1E"/>
<path d="M147.971 102.126C146.308 102.841 144.505 103.296 142.829 104.058C137.255 106.583 132.274 109.312 128.135 113.841C123.953 118.415 119.142 123.652 118.864 131.04C118.792 132.978 119.005 137.013 119.371 139.292C118.65 138.896 117.368 135.831 116.96 135.075C115.689 132.735 114.553 130.407 113.712 127.841C110.767 118.839 112.345 108.021 119.404 101.349C126.008 95.109 135.941 92.283 144.037 96.995C145.444 97.815 149.052 100.021 147.971 102.126Z" fill="#F08F77"/>
<path d="M149.797 100.343C151.688 101.347 153.583 104.548 154.824 107.036C158.356 114.118 158.172 121.325 155.995 127.774C155.12 130.368 154.132 133.1 152.678 135.467C151.25 137.789 150.702 137.949 149.593 139.135C148.98 139.789 146.778 141.672 146.016 142.026C146.322 141.514 147.341 139.717 147.538 139.149C148.179 137.295 148.978 135.733 149.311 133.778C150.588 126.272 150.342 118.061 145.351 110.362C143.967 108.227 140.78 105.532 141.005 103.167C141.181 101.327 144.935 98.1669 149.758 100.343" fill="#F08F77"/>
<path d="M123.764 117.015C123.952 116.552 125.665 116.839 127.697 116.669C129.733 116.54 131.385 116.007 131.639 116.439C131.751 116.644 131.451 117.074 130.775 117.503C130.104 117.933 129.045 118.325 127.826 118.415C126.606 118.503 125.502 118.27 124.775 117.944C124.044 117.616 123.682 117.235 123.764 117.015Z" fill="#B54330"/>
<path d="M141.922 118.479C142.339 118.211 143.322 118.995 144.662 119.493C145.984 120.038 147.237 120.13 147.362 120.612C147.41 120.839 147.098 121.145 146.475 121.317C145.861 121.489 144.938 121.483 144.022 121.124C143.108 120.767 142.425 120.145 142.091 119.601C141.752 119.052 141.73 118.614 141.922 118.479Z" fill="#B54330"/>
<path d="M142.927 133.177C142.292 135.091 138.055 139.714 132.371 138.722C126.686 137.73 124.679 130.697 124.997 130.158C125.893 130.754 129.515 131.498 133.258 132.232C136.575 132.88 142.568 133.65 142.832 133.16" fill="#EA7B59"/>
<path d="M133.258 132.231C129.515 131.497 125.893 130.752 124.997 130.157C124.925 130.28 124.976 130.745 125.16 131.393C127.131 132.793 129.688 134.028 132.869 134.582C136.559 135.227 139.771 134.934 142.369 134.236C142.635 133.84 142.829 133.472 142.927 133.175L142.832 133.157C142.567 133.649 136.575 132.88 133.258 132.231Z" fill="white"/>
<path d="M136.353 129.794C136.353 129.794 134.613 131.655 133.126 129.231C133.126 129.231 134.792 130.64 136.353 129.794Z" fill="#F8A486"/>
<path d="M146.636 118.466C145.15 118.177 141.226 117.884 140.13 118.259C138.676 118.759 138.129 118.587 138.129 118.587L136.703 118.312H136.702L135.276 118.037C135.276 118.037 134.705 117.99 133.541 116.986C132.663 116.228 128.915 115.039 127.429 114.75C126.221 114.518 122 113.898 120.116 113.729C119.632 113.686 119.202 114.028 119.135 114.51L119.04 115.188C118.999 115.471 119.105 115.747 119.299 115.958C119.544 116.226 119.827 116.718 119.778 117.542C119.691 118.954 119.654 123.142 121.184 124.661C122.564 126.03 125.411 127.376 129.309 126.53C129.733 126.438 130.83 125.969 131.276 125.645C132.196 124.973 133.748 123.608 134.621 121.522C134.621 121.522 135.081 119.956 136.338 120.2C137.594 120.442 137.437 122.067 137.437 122.067C137.469 124.329 138.399 126.174 139.003 127.139C139.297 127.606 140.139 128.45 140.498 128.694C143.8 130.932 146.941 130.747 148.733 129.989C150.72 129.151 152.246 125.251 152.694 123.909C152.928 123.206 153.311 122.85 153.623 122.673C153.963 122.48 154.216 122.167 154.31 121.786C154.491 121.056 154.058 120.315 153.334 120.11C151.354 119.546 147.748 118.681 146.636 118.466ZM133.199 121.333C132.464 123.704 131.427 124.491 130.436 125.118C128.362 126.431 124.61 126.673 121.811 123.977C120.244 122.469 120.336 117.555 122.007 116.073C123.341 114.893 125.863 115.411 127.687 115.815C130.444 116.43 131.961 116.934 132.727 117.696C133.288 118.253 133.466 118.815 133.507 119.235C133.547 119.647 133.335 120.894 133.199 121.333ZM148.406 129.122C144.803 130.579 141.412 128.954 139.977 126.964C139.291 126.015 138.624 124.894 138.827 122.421C138.864 121.964 139.133 120.728 139.323 120.36C139.515 119.985 139.891 119.53 140.619 119.221C141.613 118.801 143.21 118.897 145.998 119.358C147.841 119.661 150.374 120.12 151.171 121.715C152.169 123.712 150.424 128.306 148.406 129.122Z" fill="#374151"/>
<path opacity="0.5" d="M132.728 117.696C131.962 116.934 130.445 116.43 127.688 115.815C125.865 115.411 123.342 114.893 122.008 116.073C120.337 117.555 120.244 122.469 121.812 123.977C124.611 126.672 128.363 126.43 130.437 125.118C131.427 124.491 132.464 123.704 133.2 121.333C133.336 120.894 133.548 119.647 133.509 119.235C133.467 118.815 133.288 118.253 132.728 117.696Z" fill="white"/>
<path opacity="0.5" d="M140.619 119.222C141.613 118.802 143.21 118.898 145.998 119.359C147.841 119.662 150.374 120.121 151.171 121.716C152.169 123.712 150.424 128.306 148.406 129.122C144.803 130.579 141.412 128.954 139.977 126.964C139.291 126.015 138.624 124.894 138.827 122.421C138.864 121.964 139.133 120.728 139.323 120.36C139.516 119.985 139.892 119.53 140.619 119.222Z" fill="white"/>
<g opacity="0.6">
<path opacity="0.6" d="M124.374 115.349L120.701 120.617C120.746 121.707 120.981 122.746 121.411 123.465L126.864 115.641C126.063 115.478 125.191 115.341 124.374 115.349Z" fill="white"/>
<path opacity="0.6" d="M127.688 115.815C127.589 115.794 127.489 115.772 127.385 115.749L121.717 123.88C121.749 123.913 121.78 123.946 121.812 123.978C122.094 124.249 122.385 124.492 122.683 124.705L128.714 116.055C128.392 115.976 128.05 115.897 127.688 115.815Z" fill="white"/>
</g>
<g opacity="0.6">
<path opacity="0.6" d="M142.241 118.954L138.811 123.876C138.899 125.085 139.254 125.868 139.667 126.513L144.784 119.171C143.755 119.024 142.923 118.95 142.241 118.954Z" fill="white"/>
<path opacity="0.6" d="M145.998 119.358C145.765 119.319 145.543 119.284 145.327 119.251L139.964 126.944C139.968 126.95 139.974 126.958 139.978 126.964C140.214 127.29 140.502 127.609 140.836 127.902L146.706 119.48C146.463 119.435 146.226 119.396 145.998 119.358Z" fill="white"/>
</g>
<path d="M153.139 165.022L155.845 174.247C160.963 180.429 166.306 190.698 166.306 190.698C162.524 197.615 158.697 204.768 156.861 208.214H172.714C175.898 200.166 177.416 193.296 177.399 189.724C177.379 185.753 165.512 164.921 165.512 164.921C165.512 164.921 163.955 157.255 160.566 155.919L151.987 153.726C153.175 158.917 153.139 165.022 153.139 165.022Z" fill="#EDEEE9"/>
<path d="M92.3521 198.815C92.6611 200.75 94.0552 204.37 96.7742 208.213H115.16C116.358 206.32 118.209 204.617 121.033 203.461C121.033 203.461 111.516 203.291 106.56 197.377C106.56 197.377 104.385 196.689 105.086 194.424C105.786 192.16 107.989 182.971 110.253 174.246L112.389 165.486C112.389 165.486 112.922 158.916 114.113 153.724L105.533 155.917C102.144 157.253 102.623 165.433 102.623 165.433C102.623 165.433 91.7261 194.892 92.3521 198.815Z" fill="#EDEEE9"/>
<path d="M115.245 208.214C117.759 204.603 121.412 203.462 121.412 203.462C111.88 201.304 103.609 192.116 103.609 192.116C102.379 196.93 105.695 205.167 107.044 208.214H115.245Z" fill="#EDEEE9"/>
<path d="M130.365 208.214C130.147 207.769 129.891 207.327 129.826 206.569C129.683 204.895 128.953 204.465 129.226 204.157C129.497 203.848 130.302 202.257 129.43 201.046C128.557 199.833 124.243 202.411 124.09 202.257C123.934 202.103 124.5 201.179 125.63 200.048C126.759 198.919 125.578 197.634 125.065 197.993C124.551 198.354 122.856 199.022 121.412 199.638C119.967 200.253 119.827 204.158 119.827 204.158C117.551 205.349 116.061 206.807 115.07 208.215H130.365V208.214Z" fill="#FED5B0"/>
<path d="M127.544 200.743L122.435 180.253L121.817 181.118L127.357 200.93L127.544 200.743Z" fill="#B54330"/>
<path d="M151.407 208.214C150.955 206.696 150.679 205.796 150.679 205.796C151.051 204.569 151.364 203.206 151.364 203.206L150.08 200.479C150.535 192.208 157.619 187.493 156.987 180.938C156.656 177.499 153.625 165.487 153.625 165.487C154.169 163.216 151.985 153.725 151.985 153.725L146.544 152.944L141.944 151.036L139.218 193.026L139.057 208.214H151.407Z" fill="#EDEEE9"/>
</g>
<path d="M154.932 49.646H114.711C113.571 49.646 112.648 48.722 112.648 47.583C112.648 46.444 113.572 45.52 114.711 45.52H154.932C156.072 45.52 156.995 46.444 156.995 47.583C156.994 48.722 156.071 49.646 154.932 49.646Z" fill="#19AFAF"/>
<path d="M183.015 228.089C183.017 232.89 179.129 236.786 174.327 236.788L95.419 236.835C90.616 236.839 86.723 232.948 86.718 228.146L86.708 208.214H183.004L183.015 228.089Z" fill="white"/>
<path d="M140.403 222.519C140.403 226.148 137.461 229.091 133.832 229.091C130.203 229.091 127.262 226.148 127.262 222.519C127.262 218.892 130.203 215.949 133.832 215.949C137.461 215.949 140.403 218.892 140.403 222.519Z" fill="#27BEC2"/>
<path d="M123.074 222.519C123.074 226.148 120.133 229.091 116.504 229.091C112.876 229.091 109.934 226.148 109.934 222.519C109.934 218.892 112.876 215.949 116.504 215.949C120.133 215.948 123.074 218.892 123.074 222.519Z" fill="#27BEC2"/>
<path d="M157.73 222.519C157.73 226.148 154.789 229.091 151.161 229.091C147.53 229.091 144.589 226.148 144.589 222.519C144.589 218.892 147.53 215.949 151.161 215.949C154.789 215.948 157.73 218.892 157.73 222.519Z" fill="#27BEC2"/>
<path d="M133.791 224.659C133.55 224.436 133.274 224.278 132.99 224.184H132.991C132.988 224.184 132.985 224.182 132.983 224.182C132.98 224.182 132.976 224.18 132.973 224.18C132.645 224.088 132.055 223.553 132.582 222.985L134.518 220.893C135.046 220.323 135.623 220.87 135.741 221.192C135.742 221.194 135.743 221.198 135.744 221.2C135.745 221.204 135.746 221.206 135.747 221.208C135.861 221.483 136.041 221.745 136.282 221.97L138.645 219.417C137.304 218.177 134.657 218.015 132.916 219.896L131.196 221.753C129.456 223.632 130.087 225.972 131.426 227.212L133.791 224.659Z" fill="white"/>
<path d="M120.786 219.796L112.873 219.769C112.699 219.769 112.558 219.91 112.558 220.083L112.542 224.925C112.541 225.099 112.682 225.239 112.855 225.241L120.766 225.268C120.94 225.268 121.082 225.125 121.082 224.952L121.099 220.112C121.101 219.938 120.96 219.796 120.786 219.796ZM116.812 224.981C115.452 224.977 114.352 223.87 114.357 222.508C114.362 221.149 115.467 220.047 116.83 220.053C118.191 220.057 119.29 221.164 119.285 222.526C119.28 223.888 118.173 224.985 116.812 224.981Z" fill="white"/>
<path d="M118.627 219.974L115.044 219.962L115.141 219.398C115.22 219.039 115.538 218.785 115.906 218.785L117.766 218.793C118.133 218.793 118.45 219.051 118.527 219.41L118.627 219.974Z" fill="white"/>
<path d="M114.415 220.405L113.4 220.403L113.404 219.423C113.404 219.278 113.523 219.159 113.67 219.159L114.154 219.161C114.301 219.161 114.42 219.28 114.419 219.427L114.415 220.405Z" fill="white"/>
<path d="M116.821 224.222C117.762 224.222 118.525 223.459 118.525 222.518C118.525 221.577 117.762 220.814 116.821 220.814C115.88 220.814 115.117 221.577 115.117 222.518C115.117 223.459 115.88 224.222 116.821 224.222Z" fill="white"/>
<path d="M152.957 220.706C152.957 221.167 152.959 221.626 152.956 222.087C152.952 222.864 152.521 223.509 151.824 223.786C150.974 224.128 149.994 223.761 149.574 222.948C149.449 222.704 149.375 222.448 149.375 222.175C149.373 221.183 149.363 220.189 149.378 219.195C149.392 218.318 150.119 217.568 150.994 217.5C151.927 217.426 152.71 217.998 152.914 218.912C152.946 219.053 152.952 219.201 152.954 219.348C152.96 219.8 152.957 220.253 152.957 220.706Z" fill="white"/>
<path d="M151.442 225.935C151.49 225.935 151.526 225.935 151.565 225.935C151.934 225.935 152.304 225.935 152.673 225.935C152.859 225.935 152.996 226.06 152.992 226.222C152.989 226.384 152.862 226.495 152.674 226.495C151.665 226.495 150.658 226.495 149.652 226.495C149.463 226.495 149.337 226.382 149.334 226.22C149.331 226.056 149.468 225.935 149.656 225.935C150.059 225.935 150.463 225.935 150.877 225.935C150.877 225.611 150.877 225.292 150.877 224.962C150.806 224.95 150.732 224.939 150.657 224.927C149.55 224.747 148.582 223.79 148.399 222.679C148.353 222.404 148.355 222.118 148.347 221.835C148.339 221.548 148.343 221.257 148.347 220.968C148.349 220.755 148.521 220.624 148.71 220.681C148.823 220.716 148.898 220.814 148.902 220.952C148.906 221.098 148.9 221.243 148.904 221.39C148.912 221.749 148.894 222.113 148.937 222.466C149.028 223.23 149.443 223.796 150.116 224.152C151.274 224.767 152.692 224.265 153.229 223.068C153.368 222.757 153.42 222.429 153.421 222.091C153.422 221.718 153.419 221.345 153.423 220.972C153.425 220.751 153.599 220.617 153.79 220.685C153.909 220.726 153.978 220.82 153.976 220.939C153.968 221.496 153.983 222.056 153.931 222.609C153.876 223.179 153.603 223.67 153.21 224.086C152.757 224.568 152.197 224.852 151.543 224.945C151.457 224.957 151.439 224.988 151.439 225.068C151.446 225.353 151.442 225.638 151.442 225.935Z" fill="white"/>
<path d="M70.9789 119.569C66.6089 117.815 58.3159 118.93 55.1399 127.856C50.6239 140.545 57.4799 141.504 65.2779 146.573C73.0759 151.642 81.6549 153.983 87.5039 145.794C93.3529 137.605 89.0639 129.417 83.6049 126.298C78.1449 123.177 74.1429 120.839 70.9789 119.569Z" fill="#FFF4E9"/>
<path opacity="0.3" d="M81.3898 129.218C75.2148 126.655 71.1388 126.183 67.5898 132.648C64.0648 138.562 68.7588 142.586 73.2008 145.986C67.3608 143.332 62.4658 138.531 66.2578 131.929C70.0658 125.058 75.3468 125.009 81.3898 129.218Z" fill="#E88861"/>
<path d="M56.7319 161.458C51.8549 167.249 53.1889 176.989 64.4969 182.837C75.8059 188.687 85.9429 190.245 89.8429 180.107C93.7419 169.97 87.5029 164.511 78.9239 159.443C70.3469 154.372 62.9719 154.05 56.7319 161.458Z" fill="#FFF4E9"/>
<path opacity="0.3" d="M84.7718 169.97C81.1568 168.032 76.7388 164.896 72.5288 166.265C64.3268 172.632 68.2488 182.441 77.8458 184.378C66.9658 184.112 62.5458 172.175 71.2898 165.358C75.8908 162.874 81.3408 167.103 84.7718 169.97Z" fill="#E88861"/>
<path d="M58.6489 203.114C56.6359 209.721 60.6509 217.434 71.1789 219.384C81.7059 221.333 89.9009 221.972 91.4019 210.521C92.5709 201.605 82.1369 197.886 76.3189 196.742C70.9899 195.692 61.3779 194.146 58.6489 203.114Z" fill="#FFF4E9"/>
<path opacity="0.3" d="M84.9318 204.659C82.2828 204.415 74.8568 203.171 72.8838 204.696C71.2658 206.671 70.9878 209.594 71.9808 211.915C73.6398 215.618 78.4148 217.362 82.2928 217.022C78.1268 218.301 72.6768 216.575 70.6818 212.508C69.3278 209.682 69.7238 205.983 71.8978 203.668C74.5498 201.503 81.9028 203.632 84.9318 204.659Z" fill="#E88861"/>
<path d="M100.955 66.1809H132.989C135.542 66.1809 137.631 68.2689 137.631 70.8239V84.8789C137.631 87.2249 135.713 89.1429 133.367 89.1429H132.544L134.327 97.7719L124.397 89.1429H100.677C98.1248 89.1429 96.0378 87.0569 96.0378 84.5039V71.0969C96.0388 68.3939 98.2508 66.1809 100.955 66.1809Z" fill="white"/>
<path d="M105.619 81.9751V74.4451C105.619 74.3721 105.634 74.3201 105.663 74.2911C105.692 74.2611 105.794 74.2421 105.968 74.2351C106.141 74.2271 106.439 74.2241 106.86 74.2241V81.7531C106.86 81.8271 106.844 81.8791 106.815 81.9081C106.786 81.9371 106.684 81.9561 106.51 81.9641C106.337 81.9711 106.039 81.9751 105.619 81.9751ZM106.205 78.4311V77.2691H108.476L108.487 78.4311H106.205ZM107.922 81.9751V74.4451C107.922 74.3721 107.939 74.3201 107.972 74.2911C108.005 74.2611 108.107 74.2421 108.277 74.2351C108.447 74.2271 108.742 74.2241 109.163 74.2241V81.7531C109.163 81.8271 109.148 81.8791 109.119 81.9081C109.089 81.9371 108.987 81.9561 108.814 81.9641C108.64 81.9711 108.343 81.9751 107.922 81.9751Z" fill="#19AFAF"/>
<path d="M111.72 82.0851C111.358 82.0851 111.05 82.0281 110.795 81.9141C110.54 81.8001 110.335 81.5951 110.181 81.2991C110.026 81.0041 109.911 80.5941 109.837 80.0701C109.764 79.5461 109.727 78.8741 109.727 78.0541C109.727 77.0501 109.804 76.2621 109.959 75.6901C110.114 75.1181 110.349 74.7111 110.662 74.4721C110.975 74.2321 111.369 74.1121 111.842 74.1121C112.203 74.1121 112.51 74.1741 112.761 74.2951C113.012 74.4171 113.215 74.6241 113.369 74.9151C113.524 75.2071 113.637 75.6031 113.707 76.1051C113.777 76.6071 113.812 77.2421 113.812 78.0101C113.812 79.0501 113.738 79.8661 113.59 80.4571C113.443 81.0471 113.215 81.4661 112.909 81.7141C112.604 81.9621 112.207 82.0851 111.72 82.0851ZM111.786 80.8011C111.971 80.8011 112.108 80.7091 112.201 80.5251C112.294 80.3411 112.358 80.0451 112.395 79.6381C112.431 79.2331 112.45 78.7041 112.45 78.0551C112.45 77.4121 112.437 76.8961 112.412 76.5041C112.386 76.1131 112.329 75.8311 112.24 75.6571C112.151 75.4831 112.011 75.3961 111.819 75.3961C111.641 75.3961 111.506 75.4911 111.409 75.6791C111.313 75.8671 111.245 76.1751 111.205 76.6031C111.164 77.0321 111.143 77.6081 111.143 78.3311C111.143 78.9071 111.158 79.3761 111.188 79.7371C111.217 80.0991 111.278 80.3671 111.371 80.5411C111.463 80.7141 111.602 80.8011 111.786 80.8011Z" fill="#19AFAF"/>
<path d="M114.366 81.9751V74.5341C114.366 74.4301 114.385 74.3571 114.422 74.3121C114.459 74.2681 114.564 74.2421 114.737 74.2351C114.911 74.2271 115.2 74.2241 115.606 74.2241V80.8121H117.168V81.7531C117.168 81.8421 117.147 81.9011 117.107 81.9311C117.066 81.9601 117.012 81.9751 116.946 81.9751H114.366Z" fill="#19AFAF"/>
<path d="M118.143 81.9972C118.061 81.9972 117.947 81.9932 117.799 81.9852C117.652 81.9782 117.504 81.9672 117.357 81.9522L119.206 74.4332C119.235 74.2782 119.402 74.2012 119.705 74.2012C119.808 74.2012 119.913 74.2052 120.02 74.2122C120.126 74.2202 120.217 74.2312 120.291 74.2452L122.14 81.7752C122.155 81.8492 122.129 81.9042 122.063 81.9412C121.997 81.9782 121.837 81.9972 121.586 81.9972C121.505 81.9972 121.405 81.9952 121.287 81.9912C121.169 81.9872 121.028 81.9812 120.866 81.9742L120.057 78.0652C120.021 77.8662 119.984 77.6502 119.947 77.4182C119.91 77.1862 119.877 76.9432 119.847 76.6922C119.817 76.4412 119.791 76.2022 119.77 75.9722C119.748 76.2012 119.72 76.4412 119.687 76.6922C119.654 76.9432 119.621 77.1852 119.587 77.4182C119.553 77.6512 119.515 77.8662 119.47 78.0652L118.706 81.7642C118.691 81.8372 118.656 81.8952 118.601 81.9352C118.547 81.9772 118.394 81.9972 118.143 81.9972ZM118.618 80.2142V79.0962H121.121V80.2142H118.618Z" fill="#19AFAF"/>
<path d="M122.693 79.306L122.461 74.523C122.461 74.405 122.5 74.322 122.577 74.274C122.654 74.225 122.818 74.194 123.069 74.179C123.32 74.164 123.701 74.158 124.21 74.158L123.934 78.731C123.926 78.916 123.886 79.048 123.812 79.129C123.739 79.21 123.615 79.26 123.441 79.278C123.268 79.297 123.019 79.306 122.693 79.306ZM123.291 82.063C122.988 82.063 122.782 81.995 122.671 81.858C122.561 81.721 122.505 81.528 122.505 81.277C122.505 81.062 122.573 80.875 122.71 80.712C122.847 80.55 123.04 80.469 123.291 80.469C123.594 80.469 123.801 80.543 123.911 80.691C124.022 80.838 124.077 81.034 124.077 81.278C124.077 81.492 124.009 81.676 123.873 81.832C123.736 81.985 123.542 82.063 123.291 82.063Z" fill="#19AFAF"/>
<path d="M124.931 79.306L124.699 74.523C124.699 74.405 124.738 74.322 124.815 74.274C124.892 74.225 125.056 74.194 125.307 74.179C125.558 74.164 125.939 74.158 126.448 74.158L126.172 78.731C126.164 78.916 126.124 79.048 126.05 79.129C125.977 79.21 125.853 79.26 125.679 79.278C125.505 79.297 125.256 79.306 124.931 79.306ZM125.528 82.063C125.225 82.063 125.019 81.995 124.908 81.858C124.798 81.721 124.742 81.528 124.742 81.277C124.742 81.062 124.81 80.875 124.947 80.712C125.084 80.55 125.277 80.469 125.528 80.469C125.831 80.469 126.038 80.543 126.148 80.691C126.259 80.838 126.314 81.034 126.314 81.278C126.314 81.492 126.246 81.676 126.11 81.832C125.974 81.985 125.779 82.063 125.528 82.063Z" fill="#19AFAF"/>
<path d="M54.056 77.2511C51.708 77.2511 49.801 75.3411 49.801 72.9951V66.2971H43.101C40.755 66.2971 38.845 64.3881 38.845 62.0411C38.845 59.6941 40.755 57.7851 43.101 57.7851H49.801V51.0871C49.801 48.7401 51.708 46.8311 54.056 46.8311C56.402 46.8311 58.311 48.7401 58.311 51.0871V57.7851H65.011C67.356 57.7851 69.266 59.6941 69.266 62.0411C69.266 64.3881 67.356 66.2971 65.011 66.2971H58.311V72.9951C58.311 75.3411 56.401 77.2511 54.056 77.2511ZM43.101 59.6091C41.759 59.6091 40.669 60.7001 40.669 62.0411C40.669 63.3821 41.759 64.4731 43.101 64.4731H50.712C51.215 64.4731 51.623 64.8811 51.623 65.3851V72.9951C51.623 74.3371 52.714 75.4281 54.056 75.4281C55.396 75.4281 56.488 74.3371 56.488 72.9951V65.3851C56.488 64.8811 56.896 64.4731 57.399 64.4731H65.011C66.351 64.4731 67.442 63.3821 67.442 62.0411C67.442 60.7001 66.351 59.6091 65.011 59.6091H57.399C56.896 59.6091 56.488 59.2011 56.488 58.6971V51.0871C56.488 49.7451 55.396 48.6541 54.056 48.6541C52.714 48.6541 51.623 49.7451 51.623 51.0871V58.6971C51.623 59.2011 51.215 59.6091 50.712 59.6091H43.101Z" fill="white"/>
<path d="M36.626 225.294C34.278 225.294 32.371 223.384 32.371 221.038V214.34H25.671C23.325 214.34 21.415 212.431 21.415 210.084C21.415 207.737 23.325 205.828 25.671 205.828H32.371V199.13C32.371 196.783 34.278 194.874 36.626 194.874C38.972 194.874 40.881 196.783 40.881 199.13V205.828H47.581C49.926 205.828 51.836 207.737 51.836 210.084C51.836 212.431 49.926 214.34 47.581 214.34H40.881V221.038C40.881 223.384 38.972 225.294 36.626 225.294ZM25.671 207.652C24.329 207.652 23.239 208.743 23.239 210.084C23.239 211.425 24.329 212.516 25.671 212.516H33.282C33.785 212.516 34.193 212.924 34.193 213.428V221.038C34.193 222.38 35.284 223.471 36.626 223.471C37.966 223.471 39.058 222.38 39.058 221.038V213.428C39.058 212.924 39.466 212.516 39.969 212.516H47.581C48.921 212.516 50.012 211.425 50.012 210.084C50.012 208.743 48.921 207.652 47.581 207.652H39.969C39.466 207.652 39.058 207.244 39.058 206.74V199.13C39.058 197.788 37.966 196.697 36.626 196.697C35.284 196.697 34.193 197.788 34.193 199.13V206.74C34.193 207.244 33.785 207.652 33.282 207.652H25.671Z" fill="white"/>
<path d="M56.796 267.255C54.448 267.255 52.541 265.345 52.541 262.999V256.301H45.841C43.495 256.301 41.585 254.392 41.585 252.045C41.585 249.698 43.495 247.789 45.841 247.789H52.541V241.091C52.541 238.744 54.448 236.835 56.796 236.835C59.142 236.835 61.051 238.744 61.051 241.091V247.789H67.751C70.096 247.789 72.006 249.698 72.006 252.045C72.006 254.392 70.096 256.301 67.751 256.301H61.051V262.999C61.051 265.345 59.142 267.255 56.796 267.255ZM45.841 249.613C44.499 249.613 43.409 250.704 43.409 252.045C43.409 253.386 44.499 254.477 45.841 254.477H53.452C53.955 254.477 54.363 254.885 54.363 255.389V262.999C54.363 264.341 55.454 265.432 56.796 265.432C58.136 265.432 59.228 264.341 59.228 262.999V255.389C59.228 254.885 59.636 254.477 60.139 254.477H67.751C69.091 254.477 70.182 253.386 70.182 252.045C70.182 250.704 69.091 249.613 67.751 249.613H60.139C59.636 249.613 59.228 249.205 59.228 248.701V241.091C59.228 239.749 58.136 238.658 56.796 238.658C55.454 238.658 54.363 239.749 54.363 241.091V248.701C54.363 249.205 53.955 249.613 53.452 249.613H45.841Z" fill="white"/>
<path d="M58.147 231.578C57.172 231.578 56.381 230.785 56.381 229.812V227.033H53.601C52.628 227.033 51.835 226.241 51.835 225.267C51.835 224.293 52.628 223.501 53.601 223.501H56.381V220.722C56.381 219.748 57.172 218.956 58.147 218.956C59.12 218.956 59.912 219.748 59.912 220.722V223.501H62.692C63.665 223.501 64.458 224.293 64.458 225.267C64.458 226.241 63.665 227.033 62.692 227.033H59.912V229.812C59.912 230.785 59.12 231.578 58.147 231.578ZM53.602 224.259C53.045 224.259 52.593 224.711 52.593 225.268C52.593 225.825 53.045 226.277 53.602 226.277H56.76C56.969 226.277 57.138 226.446 57.138 226.656V229.813C57.138 230.37 57.591 230.822 58.148 230.822C58.704 230.822 59.157 230.37 59.157 229.813V226.656C59.157 226.446 59.326 226.277 59.535 226.277H62.693C63.249 226.277 63.702 225.825 63.702 225.268C63.702 224.711 63.249 224.259 62.693 224.259H59.535C59.326 224.259 59.157 224.09 59.157 223.88V220.723C59.157 220.166 58.704 219.714 58.148 219.714C57.591 219.714 57.138 220.166 57.138 220.723V223.88C57.138 224.09 56.969 224.259 56.76 224.259H53.602Z" fill="white"/>
<path d="M64.9229 46.0589C63.7469 46.0589 62.7919 45.1029 62.7919 43.9279V40.5739H59.4369C58.2629 40.5739 57.3059 39.6179 57.3059 38.4429C57.3059 37.2679 58.2629 36.3119 59.4369 36.3119H62.7919V32.9579C62.7919 31.7829 63.7469 30.8269 64.9229 30.8269C66.0969 30.8269 67.0539 31.7829 67.0539 32.9579V36.3119H70.4079C71.5829 36.3119 72.5389 37.2679 72.5389 38.4429C72.5389 39.6179 71.5829 40.5739 70.4079 40.5739H67.0539V43.9279C67.0539 45.1029 66.0969 46.0589 64.9229 46.0589ZM59.4369 37.2249C58.7649 37.2249 58.2199 37.7709 58.2199 38.4429C58.2199 39.1149 58.7649 39.6609 59.4369 39.6609H63.2489C63.5009 39.6609 63.7049 39.8649 63.7049 40.1179V43.9289C63.7049 44.6009 64.2519 45.1469 64.9239 45.1469C65.5949 45.1469 66.1419 44.6009 66.1419 43.9289V40.1179C66.1419 39.8649 66.3459 39.6609 66.5979 39.6609H70.4099C71.0809 39.6609 71.6279 39.1149 71.6279 38.4429C71.6279 37.7709 71.0809 37.2249 70.4099 37.2249H66.5979C66.3459 37.2249 66.1419 37.0209 66.1419 36.7679V32.9569C66.1419 32.2849 65.5949 31.7389 64.9239 31.7389C64.2519 31.7389 63.7049 32.2849 63.7049 32.9569V36.7679C63.7049 37.0209 63.5009 37.2249 63.2489 37.2249H59.4369Z" fill="white"/>
<path d="M80.1561 64.878C78.9801 64.878 78.0251 63.922 78.0251 62.747V59.393H74.6701C73.4961 59.393 72.5391 58.437 72.5391 57.262C72.5391 56.087 73.4961 55.131 74.6701 55.131H78.0251V51.777C78.0251 50.602 78.9801 49.646 80.1561 49.646C81.3301 49.646 82.2871 50.602 82.2871 51.777V55.131H85.6411C86.8161 55.131 87.7721 56.087 87.7721 57.262C87.7721 58.437 86.8161 59.393 85.6411 59.393H82.2871V62.747C82.2871 63.922 81.3301 64.878 80.1561 64.878ZM74.6701 56.044C73.9981 56.044 73.4531 56.59 73.4531 57.262C73.4531 57.934 73.9981 58.48 74.6701 58.48H78.4821C78.7341 58.48 78.9381 58.684 78.9381 58.937V62.748C78.9381 63.42 79.4851 63.966 80.1571 63.966C80.8281 63.966 81.3751 63.42 81.3751 62.748V58.937C81.3751 58.684 81.5791 58.48 81.8311 58.48H85.6431C86.3141 58.48 86.8611 57.934 86.8611 57.262C86.8611 56.59 86.3141 56.044 85.6431 56.044H81.8301C81.5781 56.044 81.3741 55.84 81.3741 55.587V51.776C81.3741 51.104 80.8271 50.558 80.1561 50.558C79.4841 50.558 78.9371 51.104 78.9371 51.776V55.587C78.9371 55.84 78.7331 56.044 78.4811 56.044H74.6701Z" fill="white"/>
<path d="M220.033 80.7451V74.0471H213.333C210.988 74.0471 209.078 72.1381 209.078 69.7911C209.078 67.4441 210.988 65.5351 213.333 65.5351H220.033V58.8371C220.033 56.4901 221.942 54.5811 224.288 54.5811C226.636 54.5811 228.543 56.4901 228.543 58.8371V65.5351H235.243C237.589 65.5351 239.499 67.4441 239.499 69.7911C239.499 72.1381 237.589 74.0471 235.243 74.0471H228.543V80.7451C228.543 83.0911 226.636 85.0011 224.288 85.0011C221.942 85.0011 220.033 83.0911 220.033 80.7451ZM227.632 67.3591C227.129 67.3591 226.721 66.9511 226.721 66.4471V58.8371C226.721 57.4951 225.63 56.4041 224.288 56.4041C222.948 56.4041 221.856 57.4951 221.856 58.8371V66.4471C221.856 66.9511 221.448 67.3591 220.945 67.3591H213.333C211.993 67.3591 210.902 68.4501 210.902 69.7911C210.902 71.1321 211.993 72.2231 213.333 72.2231H220.945C221.448 72.2231 221.856 72.6311 221.856 73.1351V80.7451C221.856 82.0871 222.948 83.1781 224.288 83.1781C225.63 83.1781 226.721 82.0871 226.721 80.7451V73.1351C226.721 72.6311 227.129 72.2231 227.632 72.2231H235.243C236.585 72.2231 237.675 71.1321 237.675 69.7911C237.675 68.4501 236.585 67.3591 235.243 67.3591H227.632Z" fill="white"/>
<path d="M211.29 51.6779V48.3239H207.936C206.761 48.3239 205.805 47.3679 205.805 46.1929C205.805 45.0179 206.761 44.0619 207.936 44.0619H211.29V40.7079C211.29 39.5329 212.247 38.5769 213.421 38.5769C214.597 38.5769 215.552 39.5329 215.552 40.7079V44.0619H218.907C220.081 44.0619 221.038 45.0179 221.038 46.1929C221.038 47.3679 220.081 48.3239 218.907 48.3239H215.552V51.6779C215.552 52.8529 214.597 53.8089 213.421 53.8089C212.247 53.8089 211.29 52.8529 211.29 51.6779ZM215.096 44.9749C214.844 44.9749 214.64 44.7709 214.64 44.5179V40.7069C214.64 40.0349 214.093 39.4889 213.421 39.4889C212.75 39.4889 212.203 40.0349 212.203 40.7069V44.5179C212.203 44.7709 211.999 44.9749 211.747 44.9749H207.935C207.264 44.9749 206.717 45.5209 206.717 46.1929C206.717 46.8649 207.264 47.4109 207.935 47.4109H211.747C211.999 47.4109 212.203 47.6149 212.203 47.8679V51.6789C212.203 52.3509 212.75 52.8969 213.421 52.8969C214.093 52.8969 214.64 52.3509 214.64 51.6789V47.8679C214.64 47.6149 214.844 47.4109 215.096 47.4109H218.908C219.58 47.4109 220.125 46.8649 220.125 46.1929C220.125 45.5209 219.58 44.9749 218.908 44.9749H215.096Z" fill="white"/>
<path d="M196.057 70.497V67.143H192.703C191.528 67.143 190.572 66.187 190.572 65.012C190.572 63.837 191.528 62.881 192.703 62.881H196.057V59.527C196.057 58.352 197.014 57.396 198.188 57.396C199.364 57.396 200.319 58.352 200.319 59.527V62.881H203.674C204.848 62.881 205.805 63.837 205.805 65.012C205.805 66.187 204.848 67.143 203.674 67.143H200.319V70.497C200.319 71.672 199.364 72.628 198.188 72.628C197.014 72.628 196.057 71.672 196.057 70.497ZM199.862 63.794C199.61 63.794 199.406 63.59 199.406 63.337V59.526C199.406 58.854 198.859 58.308 198.187 58.308C197.516 58.308 196.969 58.854 196.969 59.526V63.337C196.969 63.59 196.765 63.794 196.513 63.794H192.701C192.03 63.794 191.483 64.34 191.483 65.012C191.483 65.684 192.03 66.23 192.701 66.23H196.513C196.765 66.23 196.969 66.434 196.969 66.687V70.498C196.969 71.17 197.516 71.716 198.187 71.716C198.859 71.716 199.406 71.17 199.406 70.498V66.687C199.406 66.434 199.61 66.23 199.862 66.23H203.674C204.346 66.23 204.891 65.684 204.891 65.012C204.891 64.34 204.346 63.794 203.674 63.794H199.862Z" fill="white"/>
</g>
<defs>
<clipPath id="clip0">
<rect width="294.209" height="305.253" fill="white"/>
</clipPath>
</defs>
</svg>
