<svg width="53" height="56" viewBox="0 0 53 56" fill="none" xmlns="http://www.w3.org/2000/svg">
<path d="M21.8806 32.9818C24.3743 18.8813 31.9015 12.871 31.9015 12.871C22.0185 19.3869 19.904 33.5335 19.904 33.5335C14.5717 17.6861 27.1668 11.2852 32.0164 3.76945C30.2122 3.37873 28.339 3.17188 26.4084 3.17188C11.8252 3.17188 0 14.997 0 29.5802C0 44.0026 11.5608 55.7243 25.9257 55.9886C15.0544 47.3927 21.8806 32.9818 21.8806 32.9818ZM18.0997 40.7848C18.0997 40.7848 16.0772 31.8097 9.43485 28.0978C9.43485 28.0978 14.5487 31.5913 16.8011 40.532C14.0661 39.854 7.803 37.6246 5.94131 31.0397C4.8266 27.098 5.59655 23.0758 7.69957 19.9271C9.40037 25.8913 21.214 28.6839 18.0997 40.7848Z" fill="#27BEC2"/>
<path d="M39.9918 6.91812C38.5669 2.7006 33.6713 0 33.6713 0C37.2913 4.65422 38.9346 10.8139 37.659 17.0425C36.4523 22.8804 32.9588 26.7531 29.3848 29.2813C25.1213 32.2807 22.3173 36.9694 21.9036 42.1638C21.329 49.4496 24.8685 54.4256 26.1786 56C26.259 56 26.3395 56 26.4199 56C41.0031 56 52.8283 44.1748 52.8283 29.5916C52.8283 19.9499 47.6799 11.5264 39.9918 6.91812ZM41.187 37.521C38.4175 46.7835 29.5227 49.8059 25.65 50.6907C29.0286 38.1301 36.3259 33.3035 36.3259 33.3035C26.8681 38.4059 23.8228 51.0355 23.8228 51.0355C19.6857 33.8896 36.4294 30.2007 38.9461 21.7886C41.8535 26.2935 42.8418 31.9819 41.187 37.521Z" fill="#F08F77"/>
</svg>
