<svg width="250" height="250" viewBox="0 0 250 250" fill="none" xmlns="http://www.w3.org/2000/svg">
<g clip-path="url(#clip0)">
<path d="M250 0H0V250H250V0Z" fill="#EDEDED"/>
<path d="M157.2 141.75C156 141.15 155.2 140 154.75 138.75C152.55 132.5 152.05 112.6 153.75 106.05L89.2 107.5C89.15 112.8 92.2 126.45 90.85 134.65C90.2 138.85 89.5 142.7 84.95 145.05C85.3 146.9 86.2 148.55 86.6 150.45C87 152.4 87.5 154.4 88.15 156.3C89.5 160.2 91.7 163.65 94.65 166.5C101.65 173.25 110.8 175.7 119.6 175.8C131.45 175.95 142.4 171 150.4 162.05C151.65 158.6 153.3 155.3 154.2 151.75C154.6 150.2 154.45 148.4 155 146.9C155.5 145.55 156.7 144.2 157.65 143.1C157.75 142.95 157.9 142.8 157.9 142.65C158 142.15 157.55 141.9 157.2 141.75Z" fill="#B4B4B4"/>
<path d="M124.9 161.8V303.6C123.3 303.65 121.7 303.7 120.1 303.7H118.55C117.6 303.7 116.65 303.65 115.7 303.65C111.8 303.55 107.9 303.3 104.05 302.9C96.05 302.1 88.2499 300.65 80.65 298.65C70.2 295.95 60.2 292.15 50.75 287.45C49.15 286.7 47.55 285.85 45.95 284.95C29.8 276.25 15.35 264.75 3.29995 251.1C9.39995 215.95 15.95 178.65 16.8 176.95C18.35 174 19.95 173.25 22.05 170.7C27.2 164.25 53.2499 155.4 70.1999 149.45C70.9499 149.2 71.6999 148.95 72.3499 148.65C73.9999 148.05 75.5499 147.5 76.9499 147C77.8999 146.7 78.7499 146.35 79.55 146.05C80.7499 145.65 81.7999 145.2 82.5999 144.85C83.2999 144.55 84.0999 144.6 84.9499 145H84.9999C85.5999 145.25 86.15 145.6 86.8 146C90.15 148.35 93.9999 153.1 96.65 154.65C103.45 158.7 109.25 162 117.45 162C118.85 162 120.25 162 121.6 161.95H122.3C122.45 161.95 122.6 161.95 122.75 161.9C122.95 161.9 123.15 161.9 123.35 161.85C123.85 161.85 124.35 161.8 124.9 161.8Z" fill="#E7E7E7"/>
<path d="M247.9 251.2C240.8 261 231.15 257.9 222 265.8C215.55 271.4 208.6 276.45 201.3 280.95C200.45 281.45 199.55 282 198.7 282.45C195.1 284.6 191.35 286.55 187.6 288.35C186.75 288.75 185.85 289.15 185 289.55V289.75H184.6C180.6 291.55 176.55 293.2 172.4 294.65C170.5 295.35 168.6 296 166.7 296.6H166.65C153.45 300.75 139.45 303.15 125 303.55V161.8C125.35 161.75 125.7 161.75 126.05 161.75C126.3 161.7 126.45 161.7 126.7 161.7C127.25 161.65 127.85 161.6 128.4 161.55C128.95 161.5 129.5 161.4 130.05 161.3C130.6 161.25 131.15 161.15 131.7 161.05C132.3 160.95 132.8 160.85 133.35 160.75C133.85 160.65 134.3 160.55 134.75 160.45C135.9 160.15 137.05 159.85 138.2 159.4C142.25 157.95 145.8 155.5 148.65 152.3C151.35 149.3 154.95 144.95 156 141.05C156 141.05 156.1 141.05 156.3 141.1H156.35C156.4 141.15 156.5 141.15 156.6 141.15H156.65C156.95 141.2 157.35 141.3 157.9 141.4C158.7 141.55 159.7 141.8 160.9 142.1C161.4 142.2 161.85 142.35 162.4 142.45C162.7 142.5 163 142.6 163.35 142.7C163.65 142.8 164 142.9 164.35 142.95C164.5 143 164.6 143 164.75 143.05C165.45 143.25 166.15 143.45 167 143.65C167.45 143.8 167.9 143.9 168.4 144C169.6 144.3 170.85 144.7 172.2 145.05C185.95 149.05 207.55 156.6 217.45 160.85C220.8 162.3 223.65 164.75 225.5 167.95C234.55 183.9 243 224.1 247.9 251.2Z" fill="#D7D7D7"/>
<path d="M166.85 143.55C160.35 141.9 155.9 140.9 155.85 141C154.8 144.9 151.15 149.3 148.5 152.25C145.65 155.45 142.1 157.9 138.05 159.35C133.85 160.9 129.35 161.5 124.9 161.8C123.8 161.85 122.65 161.9 121.55 161.95V223.2C122.65 224.4 123.7 225.55 124.9 226.75C148.25 197.85 163.4 183.7 166.85 143.55Z" fill="#CDCDCD"/>
<path d="M117.4 162C109.2 162 103.45 158.75 96.5999 154.65C92.7499 152.3 86.3499 143.25 82.5999 144.85C81.7499 145.2 80.7499 145.6 79.5499 146.05C80.1499 159.95 87.0499 186.5 121.6 223.2V161.95C120.15 161.95 118.75 162 117.4 162Z" fill="#D7D7D7"/>
<path d="M117.45 182.15C118.25 183.6 118.45 185.25 118.1 186.85L110.1 222.5C113.55 224.1 117.1 225.6 120.8 226.5C129.45 228.6 134.55 224.8 137.25 217.95L130.3 186.9C129.95 185.3 130.15 183.65 130.95 182.2L135.25 174.3C135.45 173.8 135.35 173.3 134.95 172.9C133.3 171.3 131.65 169.7 130 168.05C128.9 166.95 127.55 165.95 126.9 164.5C126.45 163.45 125.45 162.15 123.65 161.9C122.25 161.75 121.55 161.95 120.35 162.45C119.05 162.95 117.45 166.55 116.4 167.5C114.95 168.95 113.4 170.45 111.95 171.9C111.6 172.25 113 173.8 113.2 174.25L117.45 182.15Z" fill="#7C7C7C"/>
<path d="M86.3001 112.45C86.6001 114.8 87.7001 117 89.3501 118.6L104 132.65C100.7 117.1 92.6001 104.45 83.6501 91.1001L86.3001 112.45Z" fill="#CFCFCF"/>
<path d="M157.2 97.4999L159.75 75.9499C159.7 67.3499 160 58.6999 159.65 50.0999C159.45 45.0499 157.95 42.0999 153.45 39.2999C148 35.8499 143.8 37.5999 138.95 39.3999C137.35 39.9999 135.7 40.5999 133.85 40.9999C128.65 42.1499 122.95 43.1999 118 40.7999C109.85 36.8999 102 30.4999 92.25 31.0499C90.5 31.1499 88.8 31.4999 87.25 32.2999C84.05 33.9999 82.3 37.4499 81.35 40.8499C79 49.1999 82.55 56.2499 81.65 64.8999C81.7 68.7999 81.8 72.6499 81.85 76.5499L83.65 91.0999C92.6 104.45 100.7 117.15 104 132.65L107.5 136C109.15 137.6 111.3 138.45 113.5 138.4L121 138.35L128.5 138.3C130.7 138.3 132.85 137.4 134.45 135.8L139.65 130.7C139.85 116.65 144.6 102.55 157.2 97.4999Z" fill="#CFCFCF"/>
<path d="M157.2 97.5C144.6 102.55 139.85 116.65 139.65 130.7L153.4 117.2C154.5 116.15 155.15 114.7 155.35 113.2L157.2 97.5Z" fill="#CFCFCF"/>
<path d="M86.6001 76.35C86.0501 72.5 85.6001 69.45 85.3501 68.6C85.1001 67.8 84.7001 66.85 83.8501 66.65C83.4001 66.55 82.8501 67.15 82.4501 66.9C79.3001 64.95 77.3501 67.2 76.4001 70.3C75.2501 73.95 75.6001 76.3 77.2001 79.55C79.0501 83.3 80.2501 87.45 81.8001 91.35C82.2001 92.35 83.9001 98.05 85.3001 98.05L92.1501 98C89.8501 98 87.8501 85.1 86.6001 76.35Z" fill="#CFCFCF"/>
<path d="M154.95 75.8C155.35 73.05 155.9 70.35 157.35 67.35C158.05 65.9 159.5 64.2 160.95 64.95C162.9 65.95 164.3 68.45 165.15 70.45C166.45 73.6 165.2 75.25 163.95 78.25C163.15 80.2 157.6 97.45 156.4 97.45L149.55 97.5C151 92.8 153.15 87.95 154 83.1C154.45 80.5 154.65 78.15 154.95 75.8Z" fill="#CFCFCF"/>
<path d="M85.1 83.45C84.45 76.85 83.95 70.25 82.8 63.75C81.25 55.1 85.75 46.15 90.55 38.75C91.35 37.55 92.25 36.25 93.7 35.85C95.6 35.25 97.6 36.45 99.25 37.5C104.8 41.15 117.4 45.75 117.4 45.75C117.4 45.75 130.5 46.2 136.75 44.75C141.05 43.75 146.9 40.45 151.3 43.15C154.85 45.35 155.85 52.1 157.3 56.05L157.55 88.75L161.6 75.7C164.8 64.2 165.65 37.7 165.65 37.7C165.65 37.7 148.25 18.95 138 21C141.6 20.3 148.25 21.35 151.85 20.6C138.1 16.1 126.75 11.9 115.4 13.85C104.05 15.85 93.5 21.1 84.65 28.2C80.7 31.35 74.75 39.3 74.75 39.3C74.75 39.3 74.75 67.7 85.1 83.45Z" fill="#878787"/>
<path d="M184.9 240.55H145.35V256.65H184.9V240.55Z" fill="#E7E7E7"/>
<path d="M170.6 247.15C170.6 250.15 168.15 252.6 165.15 252.6C162.15 252.6 159.7 250.15 159.7 247.15C159.7 244.15 162.15 241.7 165.15 241.7C168.15 241.7 170.6 244.15 170.6 247.15Z" fill="white"/>
<path d="M85.5499 149.8C86.5499 146.95 87.2999 144.35 87.8999 142.1C82.7999 144.45 77.6999 146.65 72.3999 148.55C68.3999 154.05 64.6499 161.35 62.4999 171.05C61.3999 192.65 63.2499 193.65 63.2499 193.65L92.6499 188.7C94.2499 188.7 80.1999 208.85 80.1999 208.85C87.8499 212.9 121.55 232.75 125.05 237.05V222.6C122.5 218.55 78.6499 171.55 85.5499 149.8Z" fill="white"/>
<path d="M151.4 190.45C151.25 190.3 151.2 190.2 151.25 190.2C151.3 190.2 151.7 190.5 152.35 191.05C156.5 192.75 171 191.75 179.5 190.1C179.35 165.75 175.95 152 170 144.2C165.75 143.45 155 140.4 154.6 140.35C155.65 142.4 157.25 144.3 158.9 147.15C158.9 147.25 158.9 147.4 158.9 147.5C158.8 161.9 155.2 176.05 148.7 188.9C148.3 189.65 147.9 190.4 147.5 191.15L125 222.7V236.95C136.4 221.2 160.7 209.25 167.25 204.55C167.25 204.55 155.95 194.15 152.3 191.1C151.9 190.85 151.6 190.7 151.4 190.45Z" fill="#F1F1F1"/>
<path d="M163.45 72.65C163.4 72.6 163.05 72.45 162.35 72.25C161.75 72 160.85 71.75 159.75 71.5C159.05 71.3 158.25 71.1 157.4 70.95C157 70.85 156.55 70.8 156.05 70.7C149.35 69.6 138.7 69.25 126.55 73.75C124.6 74 122.8 74.1 121.8 74.15H121.7C120.65 74.1 118.9 74 117.05 73.75C104 69.25 92.45 70.05 85.9 71.2C85.2 71.35 84.55 71.45 83.95 71.6C83.1 71.8 82.45 71.95 81.85 72.1C80.75 72.4 80.15 72.65 80.1 72.7L80.05 72.75C79 74.15 80.1 76.1 80.1 76.1C80.15 76.15 80.95 76.35 81.1 76.4C81.25 76.45 81.35 76.55 81.5 76.6C81.65 76.65 81.8 76.75 81.9 76.85C82.6 77.2 83.3 77.7 83.6 78.25C84 79.1 83.85 80.45 84 81.4C84.05 81.55 84.05 81.7 84.05 81.85C84.3 83.45 84.65 85 85.15 86.55C85.9 88.7 87.3 91.1 89.4 92.4H89.45C93.95 95.05 103.1 94.5 107.8 93.35C112.95 91.75 117.5 82.5 118 79.55C118.35 77.75 120.45 77.35 121.7 77.25H121.8C123.05 77.3 125.25 77.7 125.6 79.55C126.1 82.5 130.65 91.75 135.8 93.35C139.5 94.3 146.2 94.8 150.95 93.65C152.15 93.35 153.2 92.95 154.1 92.4C155.6 91.5 156.7 90.05 157.55 88.5C157.65 88.3 157.75 88.1 157.8 87.9C157.8 87.85 157.85 87.85 157.85 87.8C158.1 87.4 158.25 86.95 158.4 86.5C158.5 86.2 158.6 85.95 158.65 85.65C158.9 84.95 159.05 84.25 159.15 83.5C159.2 83.45 159.2 83.45 159.2 83.4C159.35 82.7 159.45 82.05 159.55 81.35C159.7 80.4 159.6 79.05 159.95 78.2C160.2 77.8 160.6 77.4 161.1 77.1C161.55 76.8 162.05 76.55 162.45 76.4C162.6 76.35 163.4 76.15 163.45 76.1C163.45 76 164.6 74.05 163.45 72.65ZM99.5 91.3C96.55 91 92.6 90.35 90.65 88.1C89.8 87.15 89.35 85.95 89 84.8C88.4 82.8 87.85 79.75 88.7 77.45C88.95 76.75 89.4 76.1 89.95 75.6C92.3 73.55 96.3 73.45 99.3 73.5C106.15 73.7 112.75 74.5 113.3 79.35C113.15 82.25 110.55 92.55 99.5 91.3ZM154.5 84.8C154.15 85.95 153.7 87.15 152.85 88.1C152.8 88.15 152.8 88.2 152.7 88.25C150.7 90.4 146.9 91 143.95 91.3C132.9 92.55 130.3 82.2 130.15 79.35C130.7 74.5 137.3 73.7 144.15 73.5C147.15 73.45 151.15 73.55 153.5 75.6C154.1 76.1 154.5 76.65 154.75 77.4V77.45C155.65 79.75 155.1 82.8 154.5 84.8Z" fill="#878787"/>
<path d="M90.85 134.6L122.25 161.95L103.85 183.9L84.95 145L90.85 134.6Z" fill="white"/>
<path d="M153.9 134.6L123.25 161.95L140.95 183.9L159.85 145L153.9 134.6Z" fill="#E7E7E7"/>
</g>
<defs>
<clipPath id="clip0">
<rect width="250" height="250" fill="white"/>
</clipPath>
</defs>
</svg>
