<svg width="72" height="72" viewBox="0 0 72 72" fill="none" xmlns="http://www.w3.org/2000/svg">
<g clip-path="url(#clip0_8804_58028)">
<rect width="72" height="72" rx="6" fill="#EDEDED"/>
<rect width="73" height="73" fill="#EDEDED"/>
<path d="M0 71.9995H72C72 71.9995 61.875 52.8752 36 52.875C10.125 52.8748 0 71.9995 0 71.9995Z" fill="#CFCFCF"/>
<path d="M35.9208 50.625C35.9208 50.625 51.1158 45.0448 51.1158 33.4213C51.1158 21.7977 49.3415 10.125 35.9208 10.125C22.5 10.125 20.7257 21.7977 20.7257 33.4213C20.7257 45.0448 35.9208 50.625 35.9208 50.625Z" fill="#CFCFCF"/>
<path d="M23.1266 34.6158C23.5791 37.9878 22.8311 40.9134 21.4557 41.1486C20.0744 41.3839 18.5904 38.8383 18.132 35.4603C17.6796 32.0883 18.4276 29.1627 19.8029 28.9274C21.1843 28.6982 22.6682 31.2438 23.1266 34.6158Z" fill="#CFCFCF"/>
<path d="M48.7212 34.616C48.2688 37.988 49.0168 40.9136 50.3921 41.1488C51.7735 41.3841 53.2574 38.8385 53.7159 35.4605C54.1683 32.0885 53.4203 29.1629 52.045 28.9276C50.6696 28.6924 49.1736 31.244 48.7212 34.616Z" fill="#CFCFCF"/>
<rect x="29.6562" y="42.2031" width="13.6875" height="15.9688" fill="#CFCFCF"/>
</g>
<defs>
<clipPath id="clip0_8804_58028">
<rect width="72" height="72" rx="6" fill="white"/>
</clipPath>
</defs>
</svg>
