<svg width="64" height="64" viewBox="0 0 64 64" fill="none" xmlns="http://www.w3.org/2000/svg">
<mask id="mask0" mask-type="alpha" maskUnits="userSpaceOnUse" x="0" y="0" width="66" height="64">
<rect width="65.0159" height="64" rx="6" fill="#C4C4C4"/>
</mask>
<g mask="url(#mask0)">
<g clip-path="url(#clip0)">
<path d="M72 0H-8V80H72V0Z" fill="#EDEDED"/>
<path d="M22.856 46.05C22.856 46.05 27.048 42.082 25.16 32.77C24.36 28.866 40.92 34.226 40.92 34.226C39.928 36.546 39.16 39.554 40.248 42.418C41.144 44.786 42.696 45.442 42.392 46.786C41.864 49.074 33.496 51.042 31.896 50.882C30.28 50.722 25.272 49.41 24.6 48.45C24.024 47.586 23.544 46.818 22.856 46.05Z" fill="#BCBCBC"/>
<path d="M3 80.466C6.536 84.594 7.416 81.762 12.152 84.498C12.68 84.802 13.192 85.074 13.72 85.362C15.08 86.082 16.488 85.746 17.928 86.338C22.456 88.21 27.336 86.386 32.456 86.786C32.52 86.786 32.584 86.802 32.648 86.802V71.026C32.6 71.138 32.568 71.234 32.552 71.346C32.536 71.362 32.536 71.394 32.536 71.41C32.52 71.474 32.488 71.554 32.472 71.618C32.456 71.666 32.44 71.714 32.424 71.762C31.752 69.618 31.096 67.458 30.424 65.298C29.08 60.914 27.72 56.514 26.376 52.114L26.36 52.066C26.056 51.042 25.72 50.018 25.416 48.994C25.4 48.962 25.4 48.93 25.384 48.898C25.384 48.882 25.384 48.882 25.384 48.882C25.352 48.802 25.336 48.722 25.32 48.642C24.84 47.09 24.36 45.538 23.896 44.002C23.816 43.778 23.752 43.538 23.672 43.298C23.736 43.49 23.704 43.682 23.608 43.874C23.56 43.97 23.48 44.082 23.384 44.178C23 44.626 22.248 45.074 21.32 45.49C20.952 45.65 20.584 45.794 20.184 45.954C19.72 46.13 19.224 46.29 18.728 46.45C18.104 46.658 17.48 46.834 16.872 47.01C14.92 47.554 13.224 47.938 12.952 48.018C7.992 49.538 5.016 50.866 3.656 55.922C3.064 58.146 3 74.386 3 80.466Z" fill="#D7D7D7"/>
<path d="M21.6401 46.05C21.6401 46.05 26.5681 49.026 32.9681 49.41C39.9601 49.842 44.5361 46.386 44.5361 46.386C44.5361 46.386 45.6401 49.634 40.0401 56.4501L32.7441 73.6181C32.6801 73.7461 32.6161 73.8581 32.5201 73.9541C32.4241 73.8581 32.3441 73.7461 32.2961 73.6181L25.0161 56.4501C20.9841 49.186 21.6401 46.05 21.6401 46.05Z" fill="#9A9A9A"/>
<path d="M61.9439 80.466C58.4079 84.594 57.5279 81.762 52.7919 84.498C52.2639 84.802 51.7519 85.074 51.2239 85.362C49.8639 86.082 48.4559 85.746 47.0159 86.338C42.4879 88.21 37.6079 86.386 32.4879 86.786C32.4239 86.786 32.3599 86.802 32.2959 86.802V71.026C32.3439 71.138 32.3759 71.234 32.3919 71.346C32.4079 71.362 32.4079 71.394 32.4079 71.41C32.4239 71.474 32.4559 71.554 32.4719 71.618C32.4879 71.666 32.5039 71.714 32.5199 71.762C33.1919 69.618 33.8479 67.458 34.5199 65.298C35.8639 60.914 37.2239 56.514 38.5679 52.114L38.5839 52.066C38.8879 51.042 39.2239 50.018 39.5279 48.994C39.5439 48.962 39.5439 48.93 39.5599 48.898C39.5599 48.882 39.5599 48.882 39.5599 48.882C39.5919 48.802 39.6079 48.722 39.6239 48.642C40.1039 47.09 40.5839 45.538 41.0479 44.002C41.1279 43.778 41.1919 43.538 41.2719 43.298C41.2079 43.49 41.2399 43.682 41.3359 43.874C41.3839 43.97 41.4639 44.082 41.5599 44.178C41.9439 44.626 42.6959 45.074 43.6239 45.49C43.9919 45.65 44.3599 45.794 44.7599 45.954C45.2239 46.13 45.7199 46.29 46.2159 46.45C46.8399 46.658 47.4639 46.834 48.0719 47.01C50.0239 47.554 51.7199 47.938 51.9919 48.018C56.9519 49.538 59.9279 50.866 61.2879 55.922C61.8799 58.146 61.9439 74.386 61.9439 80.466Z" fill="#D7D7D7"/>
<path d="M32.5361 71.026V71.762L32.5201 73.954L32.5041 80.514L32.4881 86.802C32.4241 86.802 32.3601 86.818 32.2961 86.818C31.0801 86.898 29.8641 86.946 28.6161 86.946H28.1681C28.0401 86.946 27.8961 86.946 27.7681 86.93C27.3201 86.93 26.8881 86.914 26.4561 86.898C25.4961 86.85 24.5521 86.786 23.6241 86.706C23.1761 86.658 22.7441 86.61 22.2961 86.546C22.1521 86.53 21.9921 86.498 21.8481 86.482C21.3201 86.418 20.7921 86.322 20.2641 86.226C18.6321 85.938 17.0161 85.57 15.4321 85.122C15.2241 85.074 15.0481 85.026 14.8561 84.946C14.9201 79.954 14.6481 74.61 13.5441 72.818C13.4321 72.962 13.3201 73.106 13.1921 73.266C13.2881 65.49 14.2001 57.618 13.3041 50.05C13.2081 49.314 13.1441 48.738 13.0161 48.002C14.8241 47.634 16.3601 47.09 18.6001 46.482C18.6641 46.45 18.7921 46.546 18.9681 46.45H18.9841C19.5121 46.146 20.4881 45.554 21.3841 44.962C22.4241 44.274 23.3841 43.602 23.5281 43.362C23.5441 43.346 23.5441 43.314 23.5441 43.314C23.5921 43.49 23.6401 43.65 23.6881 43.81C23.7521 44.034 23.8321 44.258 23.8961 44.482L23.9121 44.546V44.562C24.2161 45.57 24.5201 46.562 24.8401 47.57C24.9841 48.034 25.1281 48.498 25.2721 48.978C26.9521 54.434 28.6161 59.874 30.2961 65.314C30.9521 67.474 31.6241 69.634 32.2801 71.794C32.2961 71.746 32.3281 71.698 32.3441 71.65C32.3601 71.602 32.3761 71.554 32.3921 71.506C32.4081 71.49 32.4081 71.458 32.4081 71.442C32.4241 71.362 32.4561 71.298 32.4721 71.218V71.202C32.5041 71.122 32.5201 71.074 32.5361 71.026Z" fill="#CFCFCF"/>
<path d="M32.5362 71.346L36.2802 58.994L41.5602 43.266L44.0402 45.266C45.3362 45.954 47.9602 51.65 48.4082 53.042L42.0242 55.538L45.6242 59.49C45.8962 59.97 33.6722 76.706 32.5362 80.562C32.5042 80.466 32.4562 80.37 32.4082 80.258V70.914L32.5362 71.346Z" fill="#DFDFDF"/>
<path d="M23.272 56.146L17.208 53.026C17.656 51.634 19.736 45.938 21.032 45.25L23.512 43.25L28.792 58.978L32.408 70.898V80.242C30.312 75.522 19.192 59.954 19.448 59.474L23.272 56.146Z" fill="#EEEEEE"/>
<path d="M46.136 20.85C46.152 20.802 46.136 20.722 46.12 20.642C46.104 20.834 46.088 20.9779 46.136 20.85Z" fill="#5B5B5B"/>
<path d="M46.0558 74.0659L44.8238 73.6019C44.8878 73.4259 51.5758 55.7299 46.5998 47.0419C45.1758 44.5459 42.8718 43.0259 39.7678 42.5139L39.7198 42.4979C39.7038 42.4979 39.6078 42.4659 39.4158 42.4339C39.3678 41.9859 39.3358 41.5219 39.3198 41.0579C39.6878 41.1379 39.9278 41.1859 40.0078 41.2179C43.5118 41.8099 46.1038 43.5379 47.7358 46.3859C53.0318 55.6179 46.3438 73.3299 46.0558 74.0659Z" fill="#878787"/>
<path d="M18.9517 69.586L17.2717 65.906C17.1277 65.538 15.4957 61.058 17.6717 53.266C18.0397 51.938 18.5197 50.53 19.1437 49.026C20.1357 46.578 21.7837 44.914 23.7037 43.81C23.7037 43.81 23.7037 43.794 23.7197 43.794C23.8797 43.698 24.0557 43.602 24.2157 43.506C24.7117 42.802 24.8557 42.258 24.9517 41.778C22.5517 42.29 20.4397 44.082 18.9837 46.418H18.9677C18.5517 47.074 18.1997 47.778 17.9117 48.498C13.3197 59.778 15.9277 66.13 16.0717 66.434C16.5837 67.634 16.7277 69.026 16.8877 70.354C16.8717 70.61 16.8717 70.93 16.8717 71.346C16.8717 74.514 17.1917 81.986 20.2637 86.194C20.7917 86.29 21.3197 86.37 21.8477 86.45C21.9917 86.466 22.1357 86.498 22.2957 86.514C17.9757 82.626 18.2477 74.418 18.2797 72.802L18.4077 70.85C18.8077 70.898 23.0157 74.354 24.0397 75.49C26.0877 77.746 28.1517 80.914 27.1917 84.098C26.9197 85.01 26.7277 85.97 26.4557 86.882C26.8877 86.898 27.3197 86.914 27.7677 86.914C28.0397 86.034 28.2477 85.186 28.4557 84.482C30.5837 77.4739 20.3117 70.498 18.9517 69.586Z" fill="#878787"/>
<path d="M42.9518 22.2099C42.5678 20.6579 41.7678 19.2499 40.7118 18.0499C39.1758 16.3059 37.1918 15.0579 34.9358 14.4499C34.0398 14.2099 33.0958 14.0819 32.2318 13.7139C32.1838 13.6979 32.1198 13.6659 32.0718 13.6339V41.0579C32.1038 41.0579 32.1358 41.0579 32.1678 41.0579C32.8078 41.1059 33.4638 41.0419 34.1998 40.7859C35.9758 40.1779 37.3358 38.9459 38.7118 37.8099C38.8398 37.6979 38.9838 37.5859 39.1118 37.4739C41.0958 35.8739 41.8958 33.5379 42.6478 31.3299C43.5758 28.6099 43.6398 24.9779 42.9518 22.2099Z" fill="#CFCFCF"/>
<path d="M30.7762 12.306C30.4402 11.97 30.0402 11.602 29.5922 11.09C29.3362 10.802 29.0802 10.514 28.7442 10.322C28.0882 9.95399 27.2722 9.98599 26.5682 10.21C24.7762 10.754 23.4162 12.306 22.7442 14.066C22.1522 15.65 22.2162 17.186 22.1682 18.834C22.1362 20.242 21.5922 21.346 21.3042 22.754C20.7762 25.378 20.8562 28.77 21.7362 31.33C22.4882 33.522 23.2882 35.874 25.2722 37.474C25.4962 37.65 25.7042 37.826 25.9282 38.018C27.2082 39.09 28.5202 40.21 30.1842 40.786C30.8722 41.026 31.4962 41.09 32.1202 41.058C32.1522 41.058 32.1202 36.93 32.1202 36.69C32.1202 31.538 32.1202 26.37 32.1202 21.218C32.1202 19.218 32.1202 17.218 32.1202 15.202C32.0882 13.65 31.6242 13.122 30.7762 12.306Z" fill="#CFCFCF"/>
<path d="M21.6399 30.946C21.1759 30.85 20.7279 30.69 20.3919 30.386C19.9279 29.97 19.7519 29.314 19.6559 28.69C19.5599 28.066 19.5279 27.426 19.2879 26.85C19.1279 26.466 18.8719 26.13 18.7279 25.746C18.5839 25.362 18.5359 24.882 18.7919 24.546C19.0479 24.21 19.5119 24.114 19.9279 24.13C20.4079 24.13 20.7919 24.29 21.0799 24.562C21.0639 24.85 21.0479 25.138 21.0479 25.442C21.0319 26.626 21.1279 27.81 21.3039 28.978C21.3839 29.634 21.5119 30.29 21.6399 30.946Z" fill="#CFCFCF"/>
<path d="M45.4316 25.7459C45.2876 26.1299 45.0316 26.4659 44.8716 26.8499C44.6316 27.4259 44.5996 28.0659 44.5036 28.6899C44.4076 29.3139 44.2316 29.9539 43.7676 30.3859C43.4956 30.6419 43.1596 30.7859 42.8076 30.8819C42.9996 30.2419 43.1436 29.5539 43.2396 28.8339C43.3996 27.6819 43.4476 26.4659 43.3996 25.2819C43.3836 24.9779 43.3516 24.6739 43.3356 24.3699C43.5916 24.2259 43.8796 24.1299 44.2476 24.1299C44.6636 24.1299 45.1276 24.2099 45.3836 24.5459C45.6236 24.8819 45.5756 25.3619 45.4316 25.7459Z" fill="#CFCFCF"/>
<path d="M47.2078 19.4579C46.9998 17.3139 46.5038 15.1699 45.9278 13.2499C44.2958 7.82594 37.6398 4.38594 31.9918 4.48194C31.1598 4.49794 30.3438 4.59394 29.5758 4.76994C28.5198 5.00994 27.4958 5.37794 26.4718 5.74594C25.0478 6.27394 23.6238 6.81794 22.4078 7.71394C19.4158 9.95394 17.8638 13.3939 17.3518 17.0099C17.1758 18.2739 17.1918 19.5539 17.2238 20.8339C17.2558 22.8499 17.5118 24.5139 18.1678 26.4339C18.4878 27.3459 18.7918 28.2739 19.2878 29.1059C19.5278 29.5059 19.8158 29.8899 20.1038 30.2739C20.1358 30.2419 20.1838 30.2259 20.2158 30.2099C19.8798 29.7939 19.7198 29.2339 19.6398 28.6899C19.5438 28.0659 19.5118 27.4259 19.2718 26.8499C19.1118 26.4659 18.8558 26.1299 18.7118 25.7459C18.5678 25.3619 18.5198 24.8819 18.7758 24.5459C19.0318 24.2099 19.4958 24.1139 19.9118 24.1299C20.6958 24.1459 21.1918 24.6259 21.4158 25.3619C21.3038 24.9939 21.4958 24.4179 21.4958 24.0179C21.4958 23.4899 21.5438 22.9619 21.6398 22.4499C21.9278 20.8499 23.0158 19.1539 23.7838 17.7299C24.8238 15.7779 25.6398 13.7459 26.1518 11.6019C27.6238 13.5219 29.6878 14.9779 31.9918 15.7459C32.4878 15.9059 32.9838 16.0499 33.4958 16.1459C34.4718 16.3379 35.4798 16.4179 36.4558 16.6419C38.8878 17.2019 40.4078 18.3539 41.6398 20.4179C41.6398 20.1299 41.3038 18.7539 41.6398 19.2819C42.1678 20.6899 43.0318 23.2979 42.8238 24.8019C43.0158 24.5299 43.1598 24.2419 43.2718 23.9379C43.2878 24.0979 43.3038 24.2579 43.3198 24.4179V24.4019C43.5758 24.2579 43.8638 24.1619 44.2318 24.1619C44.6478 24.1619 45.1118 24.2419 45.3678 24.5779C45.6238 24.9139 45.5918 25.3779 45.4318 25.7779C45.2878 26.1619 45.0318 26.4979 44.8718 26.8819C44.6318 27.4579 44.5998 28.0979 44.5038 28.7219C44.4078 29.3459 44.2318 29.9859 43.7678 30.4179C43.5598 30.6099 42.9998 30.7219 42.8078 30.9139C42.4718 31.2499 42.5678 31.6979 42.5198 32.2259C45.1278 30.1619 46.7438 26.9779 47.1918 23.6819C47.3518 22.3059 47.3518 20.8819 47.2078 19.4579Z" fill="#878787"/>
<path d="M43.8956 33.6498C44.1516 34.4018 44.4076 35.1698 44.5196 35.9538C44.8236 38.1458 43.9276 40.3378 42.7756 42.2258C41.7836 43.8578 40.5516 45.4738 40.3596 47.3778C40.1516 49.5378 41.3196 51.6018 41.3516 53.7618C41.3836 56.3538 39.5596 58.8818 37.0796 59.6498C37.7676 58.7538 38.4716 57.8578 38.9356 56.8178C39.3996 55.7938 39.5916 54.5938 39.2716 53.5218C39.0156 52.7218 38.4876 52.0338 38.1996 51.2338C37.9116 50.4818 37.8636 49.6498 37.8636 48.8338C37.8476 45.5218 37.9276 41.7778 39.3996 38.8178C40.4716 36.6418 41.8956 34.8818 42.3916 32.5778C42.4716 32.1938 42.6956 31.8098 42.8076 31.4418C42.9036 31.0738 43.0316 30.8658 43.3676 30.6898C43.2876 31.7138 43.5756 32.7058 43.8956 33.6498Z" fill="#878787"/>
<path d="M40.4553 55.6978C40.3913 56.0178 40.2953 56.3378 40.1833 56.6418C39.9593 57.2338 39.2233 58.5458 38.5513 58.6898C39.8953 58.4018 41.0473 57.4418 41.7033 56.2418C42.3593 55.0258 42.5353 53.6018 42.3113 52.2418C42.0873 50.7698 41.4313 49.2818 41.8793 47.8738C42.2633 46.6898 43.3193 45.8898 44.1353 44.9618C45.4953 43.3778 46.1993 41.2818 46.2153 39.1858C46.2313 37.0898 45.6073 35.0258 44.5673 33.2178C44.1193 32.4338 43.5593 31.6178 43.5913 30.7058C43.0313 30.8658 42.6793 31.4258 42.5833 32.0018C42.4873 32.5778 42.5993 33.1538 42.7113 33.7298C43.2233 36.6418 43.3033 39.7938 41.8793 42.3858C41.4953 43.0898 40.9993 43.7298 40.6153 44.4178C39.7673 45.9218 39.4153 47.6978 39.6233 49.4258C39.7833 50.8818 40.3433 52.2738 40.5513 53.7298C40.6313 54.3538 40.5993 55.0418 40.4553 55.6978Z" fill="#878787"/>
</g>
</g>
<defs>
<clipPath id="clip0">
<rect width="64" height="64" rx="6" fill="white"/>
</clipPath>
</defs>
</svg>
