<svg width="71" height="60" viewBox="0 0 71 60" fill="none" xmlns="http://www.w3.org/2000/svg">
<path d="M0.648346 58.9618V47.9512H5.05567C5.86956 47.9512 6.54525 48.074 7.08273 48.3044C7.6202 48.5501 8.03483 48.8726 8.29589 49.3026C8.57231 49.7325 8.71052 50.2086 8.71052 50.7614C8.71052 51.1914 8.61838 51.5753 8.44946 51.8978C8.28053 52.2203 8.03483 52.4813 7.74306 52.6963C7.45128 52.896 7.09808 53.0495 6.71417 53.1417V53.2492C7.1288 53.2645 7.52807 53.3874 7.89662 53.6024C8.26518 53.8174 8.55695 54.1245 8.7873 54.5238C9.01765 54.923 9.12514 55.3837 9.12514 55.9212C9.12514 56.5048 8.98693 57.0269 8.69516 57.4876C8.40339 57.9483 7.98876 58.3015 7.42057 58.5779C6.85238 58.8389 6.16133 58.9772 5.34744 58.9772H0.648346V58.9618ZM2.98254 52.5581H4.70247C5.02495 52.5581 5.30137 52.4967 5.54707 52.3892C5.79278 52.2817 5.99241 52.1128 6.13062 51.9132C6.26883 51.6982 6.34561 51.4525 6.34561 51.1607C6.34561 50.7614 6.2074 50.4389 5.93099 50.1932C5.65457 49.9475 5.2553 49.8247 4.73318 49.8247H2.96718V52.5581H2.98254ZM2.98254 57.0576H4.88674C5.53172 57.0576 6.00777 56.9347 6.29954 56.689C6.59132 56.4433 6.74488 56.1055 6.74488 55.6909C6.74488 55.3837 6.6681 55.1227 6.52989 54.8923C6.37633 54.662 6.17669 54.4777 5.90027 54.3395C5.62386 54.2013 5.30137 54.1399 4.93281 54.1399H2.98254V57.0576Z" fill="#28B3BB"/>
<path d="M25.311 53.4647C25.311 54.6625 25.0806 55.6914 24.6353 56.5206C24.1746 57.3652 23.5603 58.0102 22.7925 58.4402C22.0093 58.8855 21.134 59.1005 20.1665 59.1005C19.1837 59.1005 18.3084 58.8855 17.5406 58.4402C16.7574 57.9949 16.1431 57.3499 15.6978 56.5053C15.2524 55.6607 15.0221 54.6471 15.0221 53.4493C15.0221 52.2515 15.2524 51.2226 15.6978 50.3934C16.1431 49.5488 16.7574 48.9038 17.5406 48.4738C18.3237 48.0285 19.1991 47.8135 20.1665 47.8135C21.134 47.8135 22.0093 48.0285 22.7925 48.4738C23.5757 48.9192 24.1899 49.5641 24.6353 50.3934C25.0806 51.238 25.311 52.2669 25.311 53.4647ZM22.9461 53.4647C22.9461 52.6815 22.8232 52.0365 22.5929 51.499C22.3625 50.9616 22.04 50.5623 21.61 50.2859C21.1954 50.0095 20.704 49.8713 20.1358 49.8713C19.5676 49.8713 19.0762 50.0095 18.6616 50.2859C18.247 50.5623 17.9245 50.9616 17.6788 51.499C17.4484 52.0365 17.3256 52.6815 17.3256 53.4647C17.3256 54.2479 17.4484 54.8928 17.6788 55.4303C17.9091 55.9678 18.2316 56.3671 18.6616 56.6435C19.0762 56.9199 19.5676 57.0581 20.1358 57.0581C20.704 57.0581 21.1954 56.9199 21.61 56.6435C22.0247 56.3671 22.3472 55.9678 22.5929 55.4303C22.8386 54.8928 22.9461 54.2325 22.9461 53.4647Z" fill="#28B3BB"/>
<path d="M31.561 58.9618V47.9512H33.8952V57.0422H38.6096V58.9618H31.561Z" fill="#28B3BB"/>
<path d="M48.5915 58.9618H44.6909V47.9512H48.6222C49.7279 47.9512 50.68 48.1662 51.4785 48.6115C52.277 49.0568 52.8913 49.6865 53.3213 50.5003C53.7513 51.3142 53.9663 52.2971 53.9663 53.4488C53.9663 54.6006 53.7513 55.5834 53.3213 56.3973C52.8913 57.2265 52.277 57.8561 51.4631 58.3015C50.68 58.7468 49.7125 58.9618 48.5915 58.9618ZM47.0251 56.9654H48.4993C49.1904 56.9654 49.7739 56.8426 50.2346 56.5969C50.7107 56.3512 51.0639 55.9673 51.2942 55.4452C51.5399 54.923 51.6474 54.2627 51.6474 53.4334C51.6474 52.6195 51.5246 51.9592 51.2942 51.4371C51.0485 50.915 50.6953 50.5464 50.2346 50.3007C49.7586 50.055 49.1904 49.9322 48.4993 49.9322H47.0098V56.9654H47.0251Z" fill="#28B3BB"/>
<path d="M70.3516 53.4647C70.3516 54.6625 70.1213 55.6914 69.676 56.5206C69.2153 57.3652 68.601 58.0102 67.8332 58.4402C67.05 58.8855 66.1747 59.1005 65.2072 59.1005C64.2244 59.1005 63.3491 58.8855 62.5812 58.4402C61.7981 57.9949 61.1838 57.3499 60.7385 56.5053C60.2931 55.6607 60.0628 54.6471 60.0628 53.4493C60.0628 52.2515 60.2931 51.2226 60.7385 50.3934C61.1838 49.5488 61.7981 48.9038 62.5812 48.4738C63.3644 48.0285 64.2397 47.8135 65.2072 47.8135C66.1747 47.8135 67.05 48.0285 67.8332 48.4738C68.6164 48.9192 69.2306 49.5641 69.676 50.3934C70.1213 51.238 70.3516 52.2669 70.3516 53.4647ZM67.9867 53.4647C67.9867 52.6815 67.8639 52.0365 67.6335 51.499C67.4032 50.9616 67.0807 50.5623 66.6507 50.2859C66.2361 50.0095 65.7447 49.8713 65.1765 49.8713C64.6083 49.8713 64.1169 50.0095 63.7023 50.2859C63.2876 50.5623 62.9652 50.9616 62.7195 51.499C62.4891 52.0365 62.3663 52.6815 62.3663 53.4647C62.3663 54.2479 62.4891 54.8928 62.7195 55.4303C62.9498 55.9678 63.2723 56.3671 63.7023 56.6435C64.1169 56.9199 64.6083 57.0581 65.1765 57.0581C65.7447 57.0581 66.2361 56.9199 66.6507 56.6435C67.0654 56.3671 67.3878 55.9678 67.6335 55.4303C67.8792 54.8928 67.9867 54.2325 67.9867 53.4647Z" fill="#28B3BB"/>
<path d="M32.3288 23.5651C34.0794 13.6908 39.3467 9.49851 39.3467 9.49851C32.4363 14.0594 30.9467 23.949 30.9467 23.949C27.2151 12.8616 36.0297 8.37748 39.4235 3.12556C38.1643 2.84914 36.8436 2.71094 35.5076 2.71094C25.3109 2.71094 17.0337 10.9881 17.0337 21.1848C17.0337 31.274 25.1266 39.4744 35.1697 39.6587C27.5529 33.6543 32.3288 23.5651 32.3288 23.5651ZM29.6875 29.032C29.6875 29.032 28.2747 22.7512 23.6216 20.1559C23.6216 20.1559 27.1997 22.5976 28.7814 28.8477C26.8772 28.3717 22.4853 26.8207 21.1799 22.2137C20.3968 19.4649 20.9342 16.6393 22.4085 14.4433C23.5909 18.6203 31.8527 20.5706 29.6875 29.032Z" fill="#28B3BB"/>
<path d="M44.998 5.3373C43.9998 2.38885 40.5753 0.5 40.5753 0.5C43.1091 3.75558 44.2608 8.0554 43.3702 12.4167C42.5256 16.5015 40.0839 19.2196 37.5808 20.9702C34.6016 23.0741 32.636 26.345 32.3442 29.9845C31.9449 35.0829 34.4173 38.5688 35.3387 39.6591C35.4001 39.6591 35.4462 39.6591 35.5076 39.6591C45.7044 39.6591 53.9815 31.3819 53.9815 21.1852C53.9815 14.4591 50.3727 8.56217 44.998 5.3373ZM45.8272 26.7443C43.8923 33.2247 37.6729 35.3286 34.9548 35.9582C37.3197 27.1743 42.4181 23.7958 42.4181 23.7958C35.7994 27.3585 33.6649 36.2039 33.6649 36.2039C30.7625 24.2105 42.4795 21.6306 44.2455 15.749C46.3033 18.8971 46.9943 22.8744 45.8272 26.7443Z" fill="#EB8B76"/>
</svg>
