<svg width="1306" height="291" viewBox="0 0 1306 291" fill="none" xmlns="http://www.w3.org/2000/svg">
<path d="M336 230.2V77.1H397.3C408.6 77.1 418 78.8 425.5 82.1C433 85.4 438.7 90.1 442.5 96C446.3 101.9 448.2 108.7 448.2 116.4C448.2 122.4 447 127.6 444.6 132.1C442.2 136.6 438.9 140.3 434.8 143.2C430.6 146.1 425.9 148.1 420.6 149.3V150.8C426.4 151 431.9 152.7 437 155.7C442.1 158.7 446.3 163 449.4 168.4C452.6 173.9 454.2 180.3 454.2 187.9C454.2 196 452.2 203.3 448.2 209.6C444.2 216 438.3 221 430.4 224.7C422.6 228.4 412.9 230.2 401.5 230.2H336ZM368.4 141.2H392.4C396.8 141.2 400.8 140.4 404.2 138.8C407.7 137.2 410.4 135 412.4 132.1C414.4 129.2 415.4 125.7 415.4 121.7C415.4 116.2 413.4 111.7 409.5 108.3C405.6 104.9 400 103.2 392.9 103.2H368.3V141.2H368.4ZM368.4 203.8H394.8C403.8 203.8 410.4 202.1 414.5 198.6C418.6 195.1 420.7 190.5 420.7 184.7C420.7 180.5 419.7 176.7 417.6 173.5C415.6 170.3 412.7 167.7 408.9 165.9C405.1 164.1 400.7 163.1 395.5 163.1H368.4V203.8Z" fill="#28B3BB"/>
<path d="M678.9 153.7C678.9 170.4 675.7 184.6 669.4 196.3C663.1 208 654.5 216.9 643.7 223.1C632.9 229.3 620.7 232.3 607.2 232.3C593.6 232.3 581.4 229.2 570.6 223C559.8 216.8 551.2 207.9 545 196.2C538.7 184.5 535.6 170.3 535.6 153.7C535.6 137 538.7 122.8 545 111.1C551.3 99.4 559.8 90.5 570.6 84.3C581.4 78.1 593.6 75.1 607.2 75.1C620.7 75.1 632.9 78.2 643.7 84.3C654.5 90.5 663.1 99.4 669.4 111.1C675.8 122.8 678.9 137 678.9 153.7ZM646.1 153.7C646.1 142.9 644.5 133.8 641.3 126.3C638.1 118.9 633.6 113.2 627.7 109.4C621.9 105.6 615 103.6 607.2 103.6C599.4 103.6 592.5 105.5 586.7 109.4C580.9 113.2 576.3 118.9 573.1 126.3C569.9 133.7 568.3 142.8 568.3 153.7C568.3 164.5 569.9 173.6 573.1 181.1C576.3 188.5 580.8 194.2 586.7 198C592.5 201.8 599.4 203.8 607.2 203.8C615 203.8 621.9 201.9 627.7 198C633.5 194.2 638.1 188.5 641.3 181.1C644.5 173.6 646.1 164.5 646.1 153.7Z" fill="#28B3BB"/>
<path d="M766 230.2V77.1H798.4V203.5H864V230.2H766Z" fill="#28B3BB"/>
<path d="M1002.9 230.2H948.6V77.1H1003.3C1018.7 77.1 1032 80.2 1043.1 86.3C1054.2 92.4 1062.8 101.2 1068.8 112.6C1074.8 124 1077.8 137.7 1077.8 153.6C1077.8 169.5 1074.8 183.3 1068.8 194.7C1062.8 206.2 1054.2 215 1043 221.1C1031.8 227.2 1018.4 230.2 1002.9 230.2ZM981 202.5H1001.6C1011.2 202.5 1019.2 200.8 1025.8 197.4C1032.4 194 1037.3 188.7 1040.6 181.5C1043.9 174.3 1045.6 165 1045.6 153.6C1045.6 142.3 1043.9 133 1040.6 125.9C1037.3 118.7 1032.4 113.4 1025.8 110.1C1019.3 106.7 1011.2 105 1001.7 105H981V202.5Z" fill="#28B3BB"/>
<path d="M1305.5 153.7C1305.5 170.4 1302.3 184.6 1296 196.3C1289.7 208 1281.1 216.9 1270.3 223.1C1259.5 229.3 1247.3 232.3 1233.8 232.3C1220.2 232.3 1208 229.2 1197.2 223C1186.4 216.8 1177.8 207.9 1171.6 196.2C1165.3 184.5 1162.2 170.3 1162.2 153.7C1162.2 137 1165.3 122.8 1171.6 111.1C1177.9 99.4 1186.4 90.5 1197.2 84.3C1208 78.1 1220.2 75.1 1233.8 75.1C1247.3 75.1 1259.5 78.2 1270.3 84.3C1281.1 90.5 1289.7 99.4 1296 111.1C1302.4 122.8 1305.5 137 1305.5 153.7ZM1272.7 153.7C1272.7 142.9 1271.1 133.8 1267.9 126.3C1264.7 118.9 1260.2 113.2 1254.3 109.4C1248.5 105.6 1241.6 103.6 1233.8 103.6C1226 103.6 1219.1 105.5 1213.3 109.4C1207.5 113.2 1202.9 118.9 1199.7 126.3C1196.5 133.7 1194.9 142.8 1194.9 153.7C1194.9 164.5 1196.5 173.6 1199.7 181.1C1202.9 188.5 1207.4 194.2 1213.3 198C1219.1 201.8 1226 203.8 1233.8 203.8C1241.6 203.8 1248.5 201.9 1254.3 198C1260.1 194.2 1264.7 188.5 1267.9 181.1C1271.1 173.6 1272.7 164.5 1272.7 153.7Z" fill="#28B3BB"/>
<path d="M113.4 171.3C126.3 98.3 165.3 67.2 165.3 67.2C114.1 100.9 103.2 174.1 103.2 174.1C75.6 92.1 140.8 58.9 165.9 20C156.5 18 146.8 16.9 136.9 16.9C61.4 16.9 0.200012 78.1 0.200012 153.6C0.200012 228.3 60.1 289 134.4 290.3C78 246 113.4 171.3 113.4 171.3ZM93.7 211.7C93.7 211.7 83.2 165.2 48.8 146C48.8 146 75.2 164.1 87 210.4C72.9 206.9 40.4 195.4 30.8 161.2C25 140.8 29 120 39.9 103.6C48.7 134.6 109.9 149.1 93.7 211.7Z" fill="#28B3BB"/>
<path d="M207.1 36.4C199.7 14.5 174.4 0.599976 174.4 0.599976C193.2 24.7 201.7 56.6 195 88.8C188.8 119 170.7 139.1 152.2 152.1C130.1 167.7 115.6 191.9 113.5 218.8C110.5 256.5 128.8 282.3 135.6 290.5C136 290.5 136.4 290.5 136.9 290.5C212.4 290.5 273.6 229.3 273.6 153.8C273.6 103.9 246.9 60.3 207.1 36.4ZM213.3 194.8C199 242.8 152.9 258.4 132.9 263C150.4 198 188.1 173 188.1 173C139.1 199.4 123.4 264.8 123.4 264.8C102 176 188.6 156.9 201.7 113.4C216.7 136.7 221.9 166.2 213.3 194.8Z" fill="#EB8B76"/>
</svg>
