<svg width="220" height="35" viewBox="0 0 220 35" fill="none" xmlns="http://www.w3.org/2000/svg">
<path d="M0.448775 11.1006H6.67321V10.0068H1.68173V6.54661H6.27548V5.45286H1.68173V2.01252H6.59366V0.918767H0.448775V11.1006ZM11.7591 11.2597C13.4495 11.2597 14.5631 10.2256 14.762 8.87331H13.5887C13.3699 9.70854 12.6739 10.2057 11.7591 10.2057C10.3671 10.2057 9.47221 9.05229 9.47221 7.2824C9.47221 5.55229 10.387 4.41877 11.7591 4.41877C12.7932 4.41877 13.4097 5.05513 13.5887 5.75115H14.762C14.5631 4.31934 13.3501 3.36479 11.7393 3.36479C9.67108 3.36479 8.29892 4.99547 8.29892 7.32218C8.29892 9.60911 9.61142 11.2597 11.7591 11.2597ZM19.5795 11.2597C21.6476 11.2597 23.0397 9.68865 23.0397 7.32218C23.0397 4.93581 21.6476 3.36479 19.5795 3.36479C17.5113 3.36479 16.1192 4.93581 16.1192 7.32218C16.1192 9.68865 17.5113 11.2597 19.5795 11.2597ZM19.5795 10.2057C18.0084 10.2057 17.2925 8.85343 17.2925 7.32218C17.2925 5.79093 18.0084 4.41877 19.5795 4.41877C21.1505 4.41877 21.8664 5.79093 21.8664 7.32218C21.8664 8.85343 21.1505 10.2057 19.5795 10.2057ZM30.2398 5.17445C29.8719 4.09064 29.0466 3.36479 27.5352 3.36479C25.9244 3.36479 24.7313 4.27956 24.7313 5.57218C24.7313 6.62615 25.3577 7.33212 26.7597 7.66024L28.0324 7.95854C28.803 8.13752 29.1659 8.50542 29.1659 9.0324C29.1659 9.68865 28.4699 10.2256 27.3762 10.2256C26.4166 10.2256 25.8151 9.81294 25.6063 8.99263L24.4926 9.27104C24.7661 10.5686 25.835 11.2597 27.396 11.2597C29.1709 11.2597 30.379 10.2902 30.379 8.97274C30.379 7.90882 29.7128 7.23766 28.3506 6.90456L27.2171 6.62615C26.3122 6.40243 25.9046 6.09917 25.9046 5.51252C25.9046 4.85627 26.6006 4.37899 27.5352 4.37899C28.5594 4.37899 28.982 4.94576 29.1858 5.47274L30.2398 5.17445ZM32.1452 11.1006H33.3184V3.46422H32.1452V11.1006ZM32.7417 2.1915C33.1991 2.1915 33.577 1.83354 33.577 1.39604C33.577 0.958541 33.1991 0.600586 32.7417 0.600586C32.2844 0.600586 31.9065 0.958541 31.9065 1.39604C31.9065 1.83354 32.2844 2.1915 32.7417 2.1915ZM40.8765 5.17445C40.5086 4.09064 39.6833 3.36479 38.172 3.36479C36.5612 3.36479 35.368 4.27956 35.368 5.57218C35.368 6.62615 35.9944 7.33212 37.3964 7.66024L38.6691 7.95854C39.4397 8.13752 39.8026 8.50542 39.8026 9.0324C39.8026 9.68865 39.1066 10.2256 38.0129 10.2256C37.0534 10.2256 36.4518 9.81294 36.243 8.99263L35.1294 9.27104C35.4028 10.5686 36.4717 11.2597 38.0328 11.2597C39.8076 11.2597 41.0157 10.2902 41.0157 8.97274C41.0157 7.90882 40.3495 7.23766 38.9873 6.90456L37.8538 6.62615C36.949 6.40243 36.5413 6.09917 36.5413 5.51252C36.5413 4.85627 37.2373 4.37899 38.172 4.37899C39.1961 4.37899 39.6187 4.94576 39.8225 5.47274L40.8765 5.17445ZM46.1029 3.46422H44.4722V1.63468H43.2989V3.46422H42.1455V4.45854H43.2989V9.23127C43.2989 10.5637 44.3728 11.2 45.3671 11.2C45.8046 11.2 46.083 11.1205 46.2421 11.0608L46.0035 10.0068C45.904 10.0267 45.7449 10.0665 45.4864 10.0665C44.9694 10.0665 44.4722 9.9074 44.4722 8.91309V4.45854H46.1029V3.46422ZM50.9875 11.2597C52.5386 11.2597 53.6721 10.4841 54.0301 9.3307L52.8966 9.01252C52.5983 9.80797 51.9072 10.2057 50.9875 10.2057C49.6104 10.2057 48.6608 9.31578 48.6061 7.68013H54.1494V7.18297C54.1494 4.33922 52.4591 3.36479 50.8682 3.36479C48.8 3.36479 47.4278 4.99547 47.4278 7.34206C47.4278 9.68865 48.7801 11.2597 50.9875 11.2597ZM48.6061 6.66593C48.6856 5.47772 49.5258 4.41877 50.8682 4.41877C52.1409 4.41877 52.9562 5.37331 52.9562 6.66593H48.6061ZM55.9342 11.1006H57.1075V6.32786C57.1075 5.20925 57.9229 4.41877 58.8376 4.41877C59.7275 4.41877 60.349 5.00044 60.349 5.87047V11.1006H61.5422V6.12899C61.5422 5.14462 62.1586 4.41877 63.2325 4.41877C64.0677 4.41877 64.7836 4.86124 64.7836 5.98979V11.1006H65.9569V5.98979C65.9569 4.19505 64.9925 3.36479 63.6302 3.36479C62.5365 3.36479 61.7361 3.86692 61.3433 4.6574H61.2638C60.8859 3.84206 60.2197 3.36479 59.2155 3.36479C58.2211 3.36479 57.4854 3.84206 57.1672 4.6574H57.0677V3.46422H55.9342V11.1006ZM70.3493 11.2796C71.6817 11.2796 72.3778 10.5637 72.6164 10.0665H72.676V11.1006H73.8493V6.06934C73.8493 3.6432 71.9999 3.36479 71.0255 3.36479C69.8721 3.36479 68.5596 3.76252 67.963 5.15456L69.0766 5.55229C69.3351 4.99547 69.9466 4.39888 71.0653 4.39888C72.1441 4.39888 72.676 4.97061 72.676 5.95002V5.98979C72.676 6.55655 72.0993 6.50684 70.7073 6.68581C69.2904 6.86976 67.7442 7.18297 67.7442 8.93297C67.7442 10.4244 68.8976 11.2796 70.3493 11.2796ZM70.5283 10.2256C69.5937 10.2256 68.9175 9.80797 68.9175 8.99263C68.9175 8.09774 69.7329 7.81934 70.6476 7.70002C71.1448 7.64036 72.4772 7.50115 72.676 7.26252V8.33638C72.676 9.29093 71.9204 10.2256 70.5283 10.2256ZM80.5051 11.1006L81.5292 8.21706H85.6457L86.6698 11.1006H87.9624L84.2238 0.918767H82.9511L79.2124 11.1006H80.5051ZM81.917 7.12331L83.5477 2.52956H83.6272L85.2579 7.12331H81.917ZM89.5484 11.1006H90.6819V9.92729H90.8211C91.0796 10.3449 91.5768 11.2597 93.0484 11.2597C94.9575 11.2597 96.2899 9.72843 96.2899 7.30229C96.2899 4.89604 94.9575 3.36479 93.0285 3.36479C91.537 3.36479 91.0796 4.27956 90.8211 4.67729H90.7217V0.918767H89.5484V11.1006ZM90.7018 7.2824C90.7018 5.57218 91.4575 4.41877 92.8893 4.41877C94.3808 4.41877 95.1166 5.67161 95.1166 7.2824C95.1166 8.91309 94.3609 10.2057 92.8893 10.2057C91.4774 10.2057 90.7018 9.01252 90.7018 7.2824ZM98.0846 11.1006H99.2579V3.46422H98.0846V11.1006ZM98.6812 2.1915C99.1386 2.1915 99.5164 1.83354 99.5164 1.39604C99.5164 0.958541 99.1386 0.600586 98.6812 0.600586C98.2238 0.600586 97.846 0.958541 97.846 1.39604C97.846 1.83354 98.2238 2.1915 98.6812 2.1915ZM104.609 11.2597C106.16 11.2597 107.293 10.4841 107.651 9.3307L106.518 9.01252C106.219 9.80797 105.528 10.2057 104.609 10.2057C103.231 10.2057 102.282 9.31578 102.227 7.68013H107.771V7.18297C107.771 4.33922 106.08 3.36479 104.489 3.36479C102.421 3.36479 101.049 4.99547 101.049 7.34206C101.049 9.68865 102.401 11.2597 104.609 11.2597ZM102.227 6.66593C102.307 5.47772 103.147 4.41877 104.489 4.41877C105.762 4.41877 106.577 5.37331 106.577 6.66593H102.227ZM109.555 11.1006H110.729V6.2682C110.729 5.23411 111.544 4.47843 112.658 4.47843C112.971 4.47843 113.294 4.53809 113.373 4.55797V3.36479C113.239 3.35485 112.931 3.3449 112.757 3.3449C111.842 3.3449 111.047 3.86195 110.768 4.61763H110.689V3.46422H109.555V11.1006ZM118.564 3.46422H116.933V1.63468H115.76V3.46422H114.606V4.45854H115.76V9.23127C115.76 10.5637 116.834 11.2 117.828 11.2C118.266 11.2 118.544 11.1205 118.703 11.0608L118.464 10.0068C118.365 10.0267 118.206 10.0665 117.947 10.0665C117.43 10.0665 116.933 9.9074 116.933 8.91309V4.45854H118.564V3.46422ZM123.349 11.2597C125.417 11.2597 126.809 9.68865 126.809 7.32218C126.809 4.93581 125.417 3.36479 123.349 3.36479C121.281 3.36479 119.889 4.93581 119.889 7.32218C119.889 9.68865 121.281 11.2597 123.349 11.2597ZM123.349 10.2057C121.778 10.2057 121.062 8.85343 121.062 7.32218C121.062 5.79093 121.778 4.41877 123.349 4.41877C124.92 4.41877 125.636 5.79093 125.636 7.32218C125.636 8.85343 124.92 10.2057 123.349 10.2057ZM135.421 11.2597C136.893 11.2597 137.39 10.3449 137.649 9.92729H137.788V11.1006H138.921V0.918767H137.748V4.67729H137.649C137.39 4.27956 136.933 3.36479 135.441 3.36479C133.512 3.36479 132.18 4.89604 132.18 7.30229C132.18 9.72843 133.512 11.2597 135.421 11.2597ZM135.58 10.2057C134.109 10.2057 133.353 8.91309 133.353 7.2824C133.353 5.67161 134.089 4.41877 135.58 4.41877C137.012 4.41877 137.768 5.57218 137.768 7.2824C137.768 9.01252 136.992 10.2057 135.58 10.2057ZM144.435 11.2597C145.986 11.2597 147.119 10.4841 147.477 9.3307L146.344 9.01252C146.046 9.80797 145.354 10.2057 144.435 10.2057C143.058 10.2057 142.108 9.31578 142.053 7.68013H147.597V7.18297C147.597 4.33922 145.906 3.36479 144.315 3.36479C142.247 3.36479 140.875 4.99547 140.875 7.34206C140.875 9.68865 142.227 11.2597 144.435 11.2597ZM142.053 6.66593C142.133 5.47772 142.973 4.41877 144.315 4.41877C145.588 4.41877 146.403 5.37331 146.403 6.66593H142.053ZM153.478 11.1006H154.711V7.38184H156.938C159.31 7.38184 160.379 5.94007 160.379 4.14036C160.379 2.34064 159.31 0.918767 156.918 0.918767H153.478V11.1006ZM154.711 6.28809V2.01252H156.879C158.534 2.01252 159.166 2.91735 159.166 4.14036C159.166 5.36337 158.534 6.28809 156.899 6.28809H154.711ZM162.206 11.1006H163.379V6.2682C163.379 5.23411 164.194 4.47843 165.308 4.47843C165.621 4.47843 165.944 4.53809 166.024 4.55797V3.36479C165.89 3.35485 165.581 3.3449 165.407 3.3449C164.493 3.3449 163.697 3.86195 163.419 4.61763H163.339V3.46422H162.206V11.1006ZM170.285 11.2597C172.353 11.2597 173.745 9.68865 173.745 7.32218C173.745 4.93581 172.353 3.36479 170.285 3.36479C168.216 3.36479 166.824 4.93581 166.824 7.32218C166.824 9.68865 168.216 11.2597 170.285 11.2597ZM170.285 10.2057C168.714 10.2057 167.998 8.85343 167.998 7.32218C167.998 5.79093 168.714 4.41877 170.285 4.41877C171.856 4.41877 172.571 5.79093 172.571 7.32218C172.571 8.85343 171.856 10.2057 170.285 10.2057ZM178.419 11.2597C179.891 11.2597 180.388 10.3449 180.647 9.92729H180.786V11.1006H181.919V0.918767H180.746V4.67729H180.647C180.388 4.27956 179.931 3.36479 178.439 3.36479C176.51 3.36479 175.178 4.89604 175.178 7.30229C175.178 9.72843 176.51 11.2597 178.419 11.2597ZM178.578 10.2057C177.107 10.2057 176.351 8.91309 176.351 7.2824C176.351 5.67161 177.087 4.41877 178.578 4.41877C180.01 4.41877 180.766 5.57218 180.766 7.2824C180.766 9.01252 179.99 10.2057 178.578 10.2057ZM189.044 7.97843C189.044 9.41024 187.95 10.0665 187.075 10.0665C186.1 10.0665 185.404 9.35059 185.404 8.23695V3.46422H184.231V8.31649C184.231 10.2654 185.265 11.2 186.697 11.2C187.85 11.2 188.606 10.5835 188.964 9.80797H189.044V11.1006H190.217V3.46422H189.044V7.97843ZM195.468 11.2597C197.158 11.2597 198.272 10.2256 198.471 8.87331H197.298C197.079 9.70854 196.383 10.2057 195.468 10.2057C194.076 10.2057 193.181 9.05229 193.181 7.2824C193.181 5.55229 194.096 4.41877 195.468 4.41877C196.502 4.41877 197.119 5.05513 197.298 5.75115H198.471C198.272 4.31934 197.059 3.36479 195.448 3.36479C193.38 3.36479 192.008 4.99547 192.008 7.32218C192.008 9.60911 193.32 11.2597 195.468 11.2597ZM203.507 3.46422H201.877V1.63468H200.703V3.46422H199.55V4.45854H200.703V9.23127C200.703 10.5637 201.777 11.2 202.771 11.2C203.209 11.2 203.487 11.1205 203.646 11.0608L203.408 10.0068C203.308 10.0267 203.149 10.0665 202.891 10.0665C202.374 10.0665 201.877 9.9074 201.877 8.91309V4.45854H203.507V3.46422ZM208.292 11.2597C210.361 11.2597 211.753 9.68865 211.753 7.32218C211.753 4.93581 210.361 3.36479 208.292 3.36479C206.224 3.36479 204.832 4.93581 204.832 7.32218C204.832 9.68865 206.224 11.2597 208.292 11.2597ZM208.292 10.2057C206.721 10.2057 206.005 8.85343 206.005 7.32218C206.005 5.79093 206.721 4.41877 208.292 4.41877C209.863 4.41877 210.579 5.79093 210.579 7.32218C210.579 8.85343 209.863 10.2057 208.292 10.2057ZM218.953 5.17445C218.585 4.09064 217.759 3.36479 216.248 3.36479C214.637 3.36479 213.444 4.27956 213.444 5.57218C213.444 6.62615 214.071 7.33212 215.473 7.66024L216.745 7.95854C217.516 8.13752 217.879 8.50542 217.879 9.0324C217.879 9.68865 217.183 10.2256 216.089 10.2256C215.13 10.2256 214.528 9.81294 214.319 8.99263L213.206 9.27104C213.479 10.5686 214.548 11.2597 216.109 11.2597C217.884 11.2597 219.092 10.2902 219.092 8.97274C219.092 7.90882 218.426 7.23766 217.063 6.90456L215.93 6.62615C215.025 6.40243 214.617 6.09917 214.617 5.51252C214.617 4.85627 215.313 4.37899 216.248 4.37899C217.272 4.37899 217.695 4.94576 217.899 5.47274L218.953 5.17445ZM40.6211 31.1006C43.7234 31.1006 45.4734 29.1716 45.4734 25.9898C45.4734 22.8279 43.7234 20.9188 40.7603 20.9188H37.479V31.1006H40.6211ZM38.712 30.0068V22.0125H40.6808C43.0671 22.0125 44.2802 23.5239 44.2802 25.9898C44.2802 28.4756 43.0671 30.0068 40.5415 30.0068H38.712ZM47.3825 31.1006H48.5558V23.4642H47.3825V31.1006ZM47.979 22.1915C48.4364 22.1915 48.8143 21.8335 48.8143 21.396C48.8143 20.9585 48.4364 20.6006 47.979 20.6006C47.5217 20.6006 47.1438 20.9585 47.1438 21.396C47.1438 21.8335 47.5217 22.1915 47.979 22.1915ZM53.7871 34.1233C55.6167 34.1233 57.0882 33.2881 57.0882 31.3193V23.4642H55.9547V24.6773H55.8354C55.5769 24.2796 55.0996 23.3648 53.6081 23.3648C51.6792 23.3648 50.3468 24.896 50.3468 27.2426C50.3468 29.629 51.7388 30.9813 53.5882 30.9813C55.0797 30.9813 55.557 30.1063 55.8155 29.6887H55.915V31.2398C55.915 32.5125 55.0201 33.0892 53.7871 33.0892C52.4 33.0892 51.9128 32.3584 51.5996 31.9358L50.665 32.5921C51.1422 33.3925 52.0819 34.1233 53.7871 34.1233ZM53.7473 29.9273C52.2757 29.9273 51.5201 28.8137 51.5201 27.2227C51.5201 25.6716 52.2559 24.4188 53.7473 24.4188C55.1792 24.4188 55.9348 25.5722 55.9348 27.2227C55.9348 28.9131 55.1593 29.9273 53.7473 29.9273ZM59.236 31.1006H60.4093V23.4642H59.236V31.1006ZM59.8326 22.1915C60.29 22.1915 60.6678 21.8335 60.6678 21.396C60.6678 20.9585 60.29 20.6006 59.8326 20.6006C59.3752 20.6006 58.9973 20.9585 58.9973 21.396C58.9973 21.8335 59.3752 22.1915 59.8326 22.1915ZM65.8793 23.4642H64.2486V21.6347H63.0753V23.4642H61.9219V24.4585H63.0753V29.2313C63.0753 30.5637 64.1491 31.2 65.1435 31.2C65.581 31.2 65.8594 31.1205 66.0185 31.0608L65.7798 30.0068C65.6804 30.0267 65.5213 30.0665 65.2628 30.0665C64.7457 30.0665 64.2486 29.9074 64.2486 28.9131V24.4585H65.8793V23.4642ZM69.8913 31.2796C71.2237 31.2796 71.9197 30.5637 72.1584 30.0665H72.218V31.1006H73.3913V26.0693C73.3913 23.6432 71.5419 23.3648 70.5675 23.3648C69.4141 23.3648 68.1016 23.7625 67.505 25.1546L68.6186 25.5523C68.8771 24.9955 69.4886 24.3989 70.6072 24.3989C71.6861 24.3989 72.218 24.9706 72.218 25.95V25.9898C72.218 26.5566 71.6413 26.5068 70.2493 26.6858C68.8324 26.8698 67.2862 27.183 67.2862 28.933C67.2862 30.4244 68.4396 31.2796 69.8913 31.2796ZM70.0703 30.2256C69.1357 30.2256 68.4595 29.808 68.4595 28.9926C68.4595 28.0977 69.2749 27.8193 70.1896 27.7C70.6868 27.6404 72.0192 27.5012 72.218 27.2625V28.3364C72.218 29.2909 71.4624 30.2256 70.0703 30.2256ZM76.7061 20.9188H75.5328V31.1006H76.7061V20.9188ZM82.0568 31.2597C83.608 31.2597 84.7415 30.4841 85.0994 29.3307L83.9659 29.0125C83.6676 29.808 82.9766 30.2057 82.0568 30.2057C80.6797 30.2057 79.7301 29.3158 79.6754 27.6801H85.2188V27.183C85.2188 24.3392 83.5284 23.3648 81.9375 23.3648C79.8693 23.3648 78.4972 24.9955 78.4972 27.3421C78.4972 29.6887 79.8494 31.2597 82.0568 31.2597ZM79.6754 26.6659C79.755 25.4777 80.5952 24.4188 81.9375 24.4188C83.2102 24.4188 84.0256 25.3733 84.0256 26.6659H79.6754ZM92.4126 25.1744C92.0447 24.0906 91.2195 23.3648 89.7081 23.3648C88.0973 23.3648 86.9041 24.2796 86.9041 25.5722C86.9041 26.6262 87.5305 27.3321 88.9325 27.6602L90.2053 27.9585C90.9759 28.1375 91.3388 28.5054 91.3388 29.0324C91.3388 29.6887 90.6428 30.2256 89.549 30.2256C88.5895 30.2256 87.9879 29.8129 87.7791 28.9926L86.6655 29.271C86.9389 30.5686 88.0078 31.2597 89.5689 31.2597C91.3438 31.2597 92.5518 30.2902 92.5518 28.9727C92.5518 27.9088 91.8857 27.2377 90.5234 26.9046L89.3899 26.6262C88.4851 26.4024 88.0774 26.0992 88.0774 25.5125C88.0774 24.8563 88.7734 24.379 89.7081 24.379C90.7322 24.379 91.1548 24.9458 91.3587 25.4727L92.4126 25.1744ZM98.2555 33.9642H99.4288V29.9273H99.5282C99.7868 30.3449 100.284 31.2597 101.756 31.2597C103.665 31.2597 104.997 29.7284 104.997 27.3023C104.997 24.896 103.665 23.3648 101.736 23.3648C100.244 23.3648 99.7868 24.2796 99.5282 24.6773H99.389V23.4642H98.2555V33.9642ZM99.4089 27.2824C99.4089 25.5722 100.165 24.4188 101.596 24.4188C103.088 24.4188 103.824 25.6716 103.824 27.2824C103.824 28.9131 103.068 30.2057 101.596 30.2057C100.184 30.2057 99.4089 29.0125 99.4089 27.2824ZM109.034 31.2796C110.366 31.2796 111.062 30.5637 111.301 30.0665H111.361V31.1006H112.534V26.0693C112.534 23.6432 110.684 23.3648 109.71 23.3648C108.557 23.3648 107.244 23.7625 106.648 25.1546L107.761 25.5523C108.02 24.9955 108.631 24.3989 109.75 24.3989C110.829 24.3989 111.361 24.9706 111.361 25.95V25.9898C111.361 26.5566 110.784 26.5068 109.392 26.6858C107.975 26.8698 106.429 27.183 106.429 28.933C106.429 30.4244 107.582 31.2796 109.034 31.2796ZM109.213 30.2256C108.278 30.2256 107.602 29.808 107.602 28.9926C107.602 28.0977 108.417 27.8193 109.332 27.7C109.829 27.6404 111.162 27.5012 111.361 27.2625V28.3364C111.361 29.2909 110.605 30.2256 109.213 30.2256ZM114.675 31.1006H115.849V26.2682C115.849 25.2341 116.664 24.4784 117.778 24.4784C118.091 24.4784 118.414 24.5381 118.494 24.558V23.3648C118.359 23.3548 118.051 23.3449 117.877 23.3449C116.962 23.3449 116.167 23.8619 115.888 24.6176H115.809V23.4642H114.675V31.1006ZM122.132 31.2796C123.464 31.2796 124.16 30.5637 124.399 30.0665H124.458V31.1006H125.632V26.0693C125.632 23.6432 123.782 23.3648 122.808 23.3648C121.654 23.3648 120.342 23.7625 119.745 25.1546L120.859 25.5523C121.117 24.9955 121.729 24.3989 122.847 24.3989C123.926 24.3989 124.458 24.9706 124.458 25.95V25.9898C124.458 26.5566 123.882 26.5068 122.49 26.6858C121.073 26.8698 119.526 27.183 119.526 28.933C119.526 30.4244 120.68 31.2796 122.132 31.2796ZM122.311 30.2256C121.376 30.2256 120.7 29.808 120.7 28.9926C120.7 28.0977 121.515 27.8193 122.43 27.7C122.927 27.6404 124.259 27.5012 124.458 27.2625V28.3364C124.458 29.2909 123.703 30.2256 122.311 30.2256ZM132.884 20.9188H131.711V31.1006H132.884V20.9188ZM137.28 31.2796C138.612 31.2796 139.308 30.5637 139.547 30.0665H139.607V31.1006H140.78V26.0693C140.78 23.6432 138.931 23.3648 137.956 23.3648C136.803 23.3648 135.49 23.7625 134.894 25.1546L136.007 25.5523C136.266 24.9955 136.877 24.3989 137.996 24.3989C139.075 24.3989 139.607 24.9706 139.607 25.95V25.9898C139.607 26.5566 139.03 26.5068 137.638 26.6858C136.221 26.8698 134.675 27.183 134.675 28.933C134.675 30.4244 135.828 31.2796 137.28 31.2796ZM137.459 30.2256C136.524 30.2256 135.848 29.808 135.848 28.9926C135.848 28.0977 136.664 27.8193 137.578 27.7C138.075 27.6404 139.408 27.5012 139.607 27.2625V28.3364C139.607 29.2909 138.851 30.2256 137.459 30.2256ZM152.586 23.4642H153.779C153.725 21.928 152.308 20.7796 150.339 20.7796C148.39 20.7796 146.859 21.9131 146.859 23.6233C146.859 24.9955 147.853 25.8108 149.444 26.2682L150.697 26.6262C151.771 26.9244 152.725 27.3023 152.725 28.3165C152.725 29.4301 151.652 30.1659 150.24 30.1659C149.027 30.1659 147.953 29.629 147.853 28.4756H146.581C146.7 30.146 148.052 31.2796 150.24 31.2796C152.586 31.2796 153.919 29.9869 153.919 28.3364C153.919 26.4273 152.109 25.8108 151.055 25.5324L150.021 25.254C149.265 25.0551 148.052 24.6574 148.052 23.5637C148.052 22.5892 148.947 21.8733 150.299 21.8733C151.532 21.8733 152.467 22.46 152.586 23.4642ZM158.034 31.2796C159.366 31.2796 160.062 30.5637 160.301 30.0665H160.361V31.1006H161.534V26.0693C161.534 23.6432 159.684 23.3648 158.71 23.3648C157.557 23.3648 156.244 23.7625 155.648 25.1546L156.761 25.5523C157.02 24.9955 157.631 24.3989 158.75 24.3989C159.829 24.3989 160.361 24.9706 160.361 25.95V25.9898C160.361 26.5566 159.784 26.5068 158.392 26.6858C156.975 26.8698 155.429 27.183 155.429 28.933C155.429 30.4244 156.582 31.2796 158.034 31.2796ZM158.213 30.2256C157.278 30.2256 156.602 29.808 156.602 28.9926C156.602 28.0977 157.417 27.8193 158.332 27.7C158.829 27.6404 160.162 27.5012 160.361 27.2625V28.3364C160.361 29.2909 159.605 30.2256 158.213 30.2256ZM164.849 20.9188H163.675V31.1006H164.849V20.9188ZM171.81 27.9784C171.81 29.4102 170.716 30.0665 169.841 30.0665C168.867 30.0665 168.171 29.3506 168.171 28.2369V23.4642H166.998V28.3165C166.998 30.2654 168.032 31.2 169.464 31.2C170.617 31.2 171.373 30.5835 171.731 29.808H171.81V31.1006H172.983V23.4642H171.81V27.9784ZM178.016 31.2597C179.488 31.2597 179.985 30.3449 180.243 29.9273H180.382V31.1006H181.516V20.9188H180.343V24.6773H180.243C179.985 24.2796 179.527 23.3648 178.036 23.3648C176.107 23.3648 174.775 24.896 174.775 27.3023C174.775 29.7284 176.107 31.2597 178.016 31.2597ZM178.175 30.2057C176.703 30.2057 175.948 28.9131 175.948 27.2824C175.948 25.6716 176.684 24.4188 178.175 24.4188C179.607 24.4188 180.363 25.5722 180.363 27.2824C180.363 29.0125 179.587 30.2057 178.175 30.2057Z" fill="#6B7280"/>
</svg>
