<svg width="351" height="196" viewBox="0 0 351 196" fill="none" xmlns="http://www.w3.org/2000/svg">
<path d="M468.333 113.912C447.854 100.853 447.236 73.9303 451.877 50.9868C453.433 43.3037 455.321 35.1145 451.969 28.2228C447.85 19.8019 436.874 15.7756 426.255 14.9306C406.899 13.3869 386.147 20.5512 372.23 33.5837C360.206 44.8448 353.422 59.7343 341.066 70.7162C320.385 89.096 288.768 92.7197 260.618 91.4172C240.701 90.4985 218.602 88.2822 202.003 99.2677C190.324 107 184.254 119.824 182.387 132.197C181.486 138.166 181.344 144.411 178.024 149.846C176.032 153.08 173.072 155.792 169.935 158.249C141.287 180.686 98.4711 184.254 71.1539 207.943C52.7048 223.933 44.3406 247.04 43.7653 268.943C43.19 290.846 49.5712 311.941 56.7166 332.422C61.7807 346.985 67.9748 362.316 82.0938 370.819C97.0298 379.811 118.294 378.949 135.803 371.786C153.312 364.623 167.544 352.005 179.408 338.459C194.233 321.526 206.957 301.981 227.819 291.121C242.034 283.736 258.406 281.289 274.16 277.763C300.489 271.841 325.914 262.509 351.129 252.999C375.266 243.892 399.514 234.49 421.282 221.232C436.686 211.868 447.695 199.377 461.817 188.944C471.019 182.134 481.94 178.009 490.302 170.233C500.596 160.659 508.635 146.648 502.092 134.528C495.867 122.993 479.201 120.843 468.333 113.912Z" fill="#FFF4E9"/>
</svg>
