<svg width="301" height="266" viewBox="0 0 301 266" fill="none" xmlns="http://www.w3.org/2000/svg">
<path d="M453.918 122.261C452.869 97.9952 474.569 82.0472 496.025 72.6885C503.211 69.5566 511.002 66.4057 514.725 59.7072C519.261 51.5033 516.263 40.2027 510.864 31.0193C501.027 14.2784 483.255 1.38863 464.597 -2.53603C448.476 -5.92638 432.388 -2.94344 416.305 -6.76593C389.387 -13.1644 368.284 -36.9853 353.205 -60.7918C342.533 -77.634 331.673 -97.0073 313.154 -104.303C300.121 -109.435 286.134 -107.052 274.928 -101.484C269.522 -98.7986 264.325 -95.3329 257.968 -94.9357C254.177 -94.712 250.258 -95.5811 246.446 -96.7423C211.634 -107.34 184.153 -140.366 149.08 -149.155C125.4 -155.096 101.675 -148.694 83.4026 -136.602C65.1304 -124.51 51.5105 -107.184 38.8318 -89.5831C29.8078 -77.0823 20.8019 -63.2147 21.9351 -46.7719C23.1363 -29.3796 36.039 -12.4553 51.949 -2.22115C67.8589 8.01298 86.3584 12.4341 104.26 14.3829C126.634 16.8136 149.942 16.0257 170.804 26.8861C185.007 34.2949 196.402 46.302 208.327 57.1848C228.279 75.3558 250.507 90.8293 272.76 106.03C294.064 120.579 315.674 135.049 339.02 145.275C355.526 152.522 372.072 154.376 388.718 159.961C399.575 163.592 409.218 170.172 420.384 172.561C434.131 175.502 450.219 174.051 456.394 161.739C462.272 150.024 454.475 135.139 453.918 122.261Z" fill="#FFF4E9"/>
</svg>
