<svg width="12" height="12" viewBox="0 0 12 12" fill="none" xmlns="http://www.w3.org/2000/svg">
<path d="M5.995 1.00003C3.235 1.00003 1 3.24003 1 6.00003C1 8.76003 3.235 11 5.995 11C8.76 11 11 8.76003 11 6.00003C11 3.24003 8.76 1.00003 5.995 1.00003ZM6 10C3.79 10 2 8.21003 2 6.00003C2 3.79003 3.79 2.00003 6 2.00003C8.21 2.00003 10 3.79003 10 6.00003C10 8.21003 8.21 10 6 10ZM5.89 3.50003H5.86C5.66 3.50003 5.5 3.66003 5.5 3.86003V6.22003C5.5 6.39503 5.59 6.56003 5.745 6.65003L7.82 7.89503C7.99 7.99503 8.21 7.94503 8.31 7.77503C8.415 7.60503 8.36 7.38003 8.185 7.28003L6.25 6.13003V3.86003C6.25 3.66003 6.09 3.50003 5.89 3.50003Z" fill="#707882"/>
</svg>
