<svg width="24" height="25" viewBox="0 0 24 25" fill="none" xmlns="http://www.w3.org/2000/svg">
<path d="M13 12.9443H12.5V13.4443V18.4443C12.5 18.7182 12.2739 18.9443 12 18.9443C11.7261 18.9443 11.5 18.7182 11.5 18.4443V13.4443V12.9443H11H6C5.72614 12.9443 5.5 12.7182 5.5 12.4443C5.5 12.1705 5.72614 11.9443 6 11.9443H11H11.5V11.4443V6.44434C11.5 6.17048 11.7261 5.94434 12 5.94434C12.2739 5.94434 12.5 6.17048 12.5 6.44434V11.4443V11.9443H13H18C18.2739 11.9443 18.5 12.1705 18.5 12.4443C18.5 12.7182 18.2739 12.9443 18 12.9443H13Z" fill="black" fill-opacity="0.54" stroke="white"/>
</svg>
