<svg width="8" height="8" viewBox="0 0 8 8" fill="none" xmlns="http://www.w3.org/2000/svg">
    <path d="M4.00033 2.33317C3.81699 2.33317 3.66699 2.48317 3.66699 2.6665V3.6665H2.66699C2.48366 3.6665 2.33366 3.8165 2.33366 3.99984C2.33366 4.18317 2.48366 4.33317 2.66699 4.33317H3.66699V5.33317C3.66699 5.5165 3.81699 5.6665 4.00033 5.6665C4.18366 5.6665 4.33366 5.5165 4.33366 5.33317V4.33317H5.33366C5.51699 4.33317 5.66699 4.18317 5.66699 3.99984C5.66699 3.8165 5.51699 3.6665 5.33366 3.6665H4.33366V2.6665C4.33366 2.48317 4.18366 2.33317 4.00033 2.33317ZM4.00033 0.666504C2.16033 0.666504 0.666992 2.15984 0.666992 3.99984C0.666992 5.83984 2.16033 7.33317 4.00033 7.33317C5.84033 7.33317 7.33366 5.83984 7.33366 3.99984C7.33366 2.15984 5.84033 0.666504 4.00033 0.666504ZM4.00033 6.6665C2.53033 6.6665 1.33366 5.46984 1.33366 3.99984C1.33366 2.52984 2.53033 1.33317 4.00033 1.33317C5.47033 1.33317 6.66699 2.52984 6.66699 3.99984C6.66699 5.46984 5.47033 6.6665 4.00033 6.6665Z" fill="#364F6B" />
</svg>
    