<svg width="12" height="13" viewBox="0 0 12 13" fill="none" xmlns="http://www.w3.org/2000/svg">
<g clip-path="url(#clip0_2793_9124)">
<path d="M8.25 3.81941V9.10941C8.25 10.1544 7.485 11.0844 6.445 11.1844C5.25 11.2994 4.25 10.3644 4.25 9.19441V3.01441C4.25 2.35941 4.72 1.76441 5.37 1.69941C6.12 1.62441 6.75 2.20941 6.75 2.94441V8.19441C6.75 8.46941 6.525 8.69441 6.25 8.69441C5.975 8.69441 5.75 8.46941 5.75 8.19441V3.81941C5.75 3.61441 5.58 3.44441 5.375 3.44441C5.17 3.44441 5 3.61441 5 3.81941V8.12441C5 8.77941 5.47 9.37441 6.12 9.43941C6.87 9.51441 7.5 8.92941 7.5 8.19441V3.02941C7.5 1.98441 6.735 1.05441 5.695 0.954409C4.505 0.839409 3.5 1.77441 3.5 2.94441V9.07941C3.5 10.5144 4.55 11.7994 5.98 11.9344C7.625 12.0844 9 10.8044 9 9.19441V3.81941C9 3.61441 8.83 3.44441 8.625 3.44441C8.42 3.44441 8.25 3.61441 8.25 3.81941Z" fill="#364F6B"/>
</g>
<defs>
<clipPath id="clip0_2793_9124">
<rect width="12" height="12" fill="white" transform="translate(0 0.444336)"/>
</clipPath>
</defs>
</svg>
