<svg width="20" height="21" viewBox="0 0 20 21" fill="none" xmlns="http://www.w3.org/2000/svg">
<path d="M14.7916 14.278H5.97498C4.23331 14.278 2.68331 13.003 2.51664 11.2697C2.32498 9.28633 3.88331 7.61133 5.83331 7.61133H16.1333C17.225 7.61133 18.2166 8.39466 18.325 9.47799C18.45 10.728 17.475 11.778 16.25 11.778H7.49998C7.04164 11.778 6.66664 11.403 6.66664 10.9447C6.66664 10.4863 7.04164 10.1113 7.49998 10.1113H14.7916C15.1333 10.1113 15.4166 9.82799 15.4166 9.48633C15.4166 9.14466 15.1333 8.86133 14.7916 8.86133H7.61664C6.52498 8.86133 5.53331 9.64466 5.42498 10.728C5.29998 11.978 6.27498 13.028 7.49998 13.028H16.1083C17.85 13.028 19.4 11.753 19.5666 10.0197C19.7583 8.02799 18.2 6.36133 16.25 6.36133H6.02498C3.63331 6.36133 1.49164 8.11133 1.26664 10.4947C1.01664 13.2363 3.14998 15.528 5.83331 15.528H14.7916C15.1333 15.528 15.4166 15.2447 15.4166 14.903C15.4166 14.5613 15.1333 14.278 14.7916 14.278Z" fill="#364F6B"/>
</svg>
