<svg width="21" height="21" viewBox="0 0 21 21" fill="none" xmlns="http://www.w3.org/2000/svg">
<path d="M13.125 14.875H17.5L16.2706 13.6456C16.1055 13.4805 15.9746 13.2845 15.8853 13.0687C15.7959 12.853 15.75 12.6218 15.75 12.3882V9.625C15.7501 8.53907 15.4136 7.4798 14.7868 6.59303C14.16 5.70626 13.2737 5.03559 12.25 4.67338V4.375C12.25 3.91087 12.0656 3.46575 11.7374 3.13756C11.4092 2.80937 10.9641 2.625 10.5 2.625C10.0359 2.625 9.59075 2.80937 9.26256 3.13756C8.93437 3.46575 8.75 3.91087 8.75 4.375V4.67338C6.71125 5.39438 5.25 7.3395 5.25 9.625V12.3891C5.25 12.8599 5.06275 13.3123 4.72938 13.6456L3.5 14.875H7.875M13.125 14.875H7.875M13.125 14.875V15.75C13.125 16.4462 12.8484 17.1139 12.3562 17.6062C11.8639 18.0984 11.1962 18.375 10.5 18.375C9.80381 18.375 9.13613 18.0984 8.64384 17.6062C8.15156 17.1139 7.875 16.4462 7.875 15.75V14.875" stroke="white" stroke-width="1.75" stroke-linecap="round" stroke-linejoin="round"/>
</svg>
