<svg width="198" height="42" viewBox="0 0 198 42" fill="none" xmlns="http://www.w3.org/2000/svg">
<path d="M38.0662 27.9485V11.0488H44.8327C46.08 11.0488 47.1176 11.2365 47.9455 11.6007C48.7734 11.965 49.4025 12.4838 49.822 13.1351C50.2415 13.7863 50.4512 14.5369 50.4512 15.3869C50.4512 16.0492 50.3187 16.6232 50.0538 17.1199C49.7889 17.6166 49.4246 18.025 48.9721 18.3451C48.5084 18.6652 47.9896 18.886 47.4046 19.0185V19.184C48.0448 19.2061 48.6519 19.3938 49.2149 19.7249C49.7778 20.0561 50.2415 20.5307 50.5836 21.1268C50.9369 21.7339 51.1135 22.4403 51.1135 23.2793C51.1135 24.1734 50.8927 24.9791 50.4512 25.6746C50.0097 26.381 49.3584 26.9329 48.4864 27.3413C47.6254 27.7498 46.5547 27.9485 45.2963 27.9485H38.0662ZM41.6426 18.1244H44.2918C44.7775 18.1244 45.219 18.0361 45.5943 17.8595C45.9807 17.6828 46.2787 17.44 46.4995 17.1199C46.7202 16.7998 46.8306 16.4134 46.8306 15.9719C46.8306 15.3648 46.6099 14.8681 46.1794 14.4928C45.7489 14.1175 45.1307 13.9298 44.347 13.9298H41.6316V18.1244H41.6426ZM41.6426 25.0343H44.5567C45.5502 25.0343 46.2787 24.8467 46.7313 24.4604C47.1838 24.074 47.4157 23.5662 47.4157 22.926C47.4157 22.4624 47.3053 22.043 47.0735 21.6897C46.8527 21.3365 46.5326 21.0495 46.1131 20.8508C45.6937 20.6521 45.208 20.5418 44.634 20.5418H41.6426V25.0343Z" fill="#27BEC2"/>
<path d="M75.9164 19.5042C75.9164 21.3476 75.5632 22.9151 74.8678 24.2065C74.1723 25.498 73.223 26.4804 72.0309 27.1648C70.8388 27.8492 69.4921 28.1803 68.0019 28.1803C66.5007 28.1803 65.1541 27.8381 63.9619 27.1538C62.7698 26.4694 61.8205 25.487 61.1361 24.1955C60.4407 22.904 60.0985 21.3366 60.0985 19.5042C60.0985 17.6608 60.4407 16.0934 61.1361 14.8019C61.8315 13.5104 62.7698 12.528 63.9619 11.8436C65.1541 11.1593 66.5007 10.8281 68.0019 10.8281C69.4921 10.8281 70.8388 11.1703 72.0309 11.8436C73.223 12.528 74.1723 13.5104 74.8678 14.8019C75.5742 16.0934 75.9164 17.6608 75.9164 19.5042ZM72.2958 19.5042C72.2958 18.3121 72.1192 17.3076 71.766 16.4797C71.4128 15.6629 70.916 15.0337 70.2648 14.6143C69.6246 14.1948 68.8629 13.974 68.0019 13.974C67.141 13.974 66.3793 14.1838 65.7391 14.6143C65.0989 15.0337 64.5911 15.6629 64.2379 16.4797C63.8847 17.2966 63.708 18.301 63.708 19.5042C63.708 20.6964 63.8847 21.7008 64.2379 22.5287C64.5911 23.3455 65.0878 23.9747 65.7391 24.3942C66.3793 24.8136 67.141 25.0344 68.0019 25.0344C68.8629 25.0344 69.6246 24.8247 70.2648 24.3942C70.905 23.9747 71.4128 23.3455 71.766 22.5287C72.1192 21.7008 72.2958 20.6964 72.2958 19.5042Z" fill="#27BEC2"/>
<path d="M85.5308 27.9485V11.0488H89.1072V25.0012H96.3483V27.9485H85.5308Z" fill="#27BEC2"/>
<path d="M111.681 27.9485H105.687V11.0488H111.725C113.425 11.0488 114.893 11.391 116.118 12.0644C117.343 12.7377 118.292 13.7091 118.955 14.9674C119.617 16.2258 119.948 17.738 119.948 19.4931C119.948 21.2482 119.617 22.7715 118.955 24.0299C118.292 25.2993 117.343 26.2706 116.107 26.944C114.871 27.6173 113.391 27.9485 111.681 27.9485ZM109.263 24.8908H111.537C112.597 24.8908 113.48 24.7032 114.208 24.3279C114.937 23.9526 115.478 23.3676 115.842 22.5728C116.206 21.778 116.394 20.7515 116.394 19.4931C116.394 18.2458 116.206 17.2192 115.842 16.4355C115.478 15.6408 114.937 15.0557 114.208 14.6915C113.491 14.3162 112.597 14.1285 111.548 14.1285H109.263V24.8908Z" fill="#27BEC2"/>
<path d="M145.082 19.5042C145.082 21.3476 144.729 22.9151 144.034 24.2065C143.338 25.498 142.389 26.4804 141.197 27.1648C140.005 27.8492 138.658 28.1803 137.168 28.1803C135.667 28.1803 134.32 27.8381 133.128 27.1538C131.936 26.4694 130.986 25.487 130.302 24.1955C129.607 22.904 129.264 21.3366 129.264 19.5042C129.264 17.6608 129.607 16.0934 130.302 14.8019C130.998 13.5104 131.936 12.528 133.128 11.8436C134.32 11.1593 135.667 10.8281 137.168 10.8281C138.658 10.8281 140.005 11.1703 141.197 11.8436C142.389 12.528 143.338 13.5104 144.034 14.8019C144.74 16.0934 145.082 17.6608 145.082 19.5042ZM141.462 19.5042C141.462 18.3121 141.285 17.3076 140.932 16.4797C140.579 15.6629 140.082 15.0337 139.431 14.6143C138.791 14.1948 138.029 13.974 137.168 13.974C136.307 13.974 135.545 14.1838 134.905 14.6143C134.265 15.0337 133.757 15.6629 133.404 16.4797C133.051 17.2966 132.874 18.301 132.874 19.5042C132.874 20.6964 133.051 21.7008 133.404 22.5287C133.757 23.3455 134.254 23.9747 134.905 24.3942C135.545 24.8136 136.307 25.0344 137.168 25.0344C138.029 25.0344 138.791 24.8247 139.431 24.3942C140.071 23.9747 140.579 23.3455 140.932 22.5287C141.285 21.7008 141.462 20.6964 141.462 19.5042Z" fill="#27BEC2"/>
<path d="M13.4953 21.4474C14.9193 13.3895 19.2242 9.95656 19.2242 9.95656C13.5726 13.6765 12.3694 21.7565 12.3694 21.7565C9.32287 12.7051 16.5198 9.04038 19.2904 4.74648C18.2528 4.52572 17.1821 4.4043 16.0893 4.4043C7.75543 4.4043 1 11.1597 1 19.4936C1 27.7392 7.61193 34.4395 15.8134 34.583C9.58779 29.693 13.4953 21.4474 13.4953 21.4474ZM11.3208 25.9069C11.3208 25.9069 10.1618 20.7741 6.36461 18.6547C6.36461 18.6547 9.27872 20.6527 10.5812 25.7634C9.02484 25.377 5.43739 24.1076 4.37772 20.3325C3.7375 18.0807 4.17903 15.7848 5.3822 13.9745C6.35357 17.3964 13.109 18.9969 11.3208 25.9069Z" fill="#27BEC2"/>
<path d="M23.8383 6.55718C23.0215 4.13979 20.2288 2.60547 20.2288 2.60547C22.304 5.2657 23.2423 8.78691 22.5027 12.3412C21.8183 15.6748 19.8204 17.8935 17.7783 19.3285C15.3389 21.0504 13.7383 23.7217 13.5065 26.691C13.1754 30.8524 15.1954 33.7003 15.946 34.6055C15.9901 34.6055 16.0343 34.6055 16.0895 34.6055C24.4234 34.6055 31.1788 27.85 31.1788 19.5161C31.1788 14.008 28.2316 9.19533 23.8383 6.55718ZM24.5227 24.0418C22.9442 29.3402 17.8556 31.0622 15.6479 31.5699C17.5796 24.3951 21.7411 21.6355 21.7411 21.6355C16.3323 24.5496 14.5993 31.7686 14.5993 31.7686C12.2371 21.9666 21.7963 19.8583 23.2423 15.0567C24.898 17.6286 25.472 20.8849 24.5227 24.0418Z" fill="#F08F77"/>
<path d="M38.4091 32.426V38.2441H37.7045V32.426H38.4091ZM40.4013 35.6191V38.2441H39.7308V33.8805H40.3786V34.5623H40.4354C40.5376 34.3407 40.6929 34.1627 40.9013 34.0282C41.1096 33.8919 41.3786 33.8237 41.7081 33.8237C42.0036 33.8237 42.2621 33.8843 42.4837 34.0055C42.7053 34.1248 42.8776 34.3066 43.0007 34.551C43.1238 34.7934 43.1854 35.1002 43.1854 35.4714V38.2441H42.5149V35.5169C42.5149 35.1741 42.4259 34.907 42.2479 34.7157C42.0698 34.5225 41.8255 34.426 41.5149 34.426C41.3009 34.426 41.1096 34.4724 40.9411 34.5652C40.7744 34.658 40.6428 34.7934 40.5462 34.9714C40.4496 35.1494 40.4013 35.3654 40.4013 35.6191ZM46.3082 33.8805V34.4487H44.0469V33.8805H46.3082ZM44.706 32.835H45.3764V36.9941C45.3764 37.1835 45.4039 37.3256 45.4588 37.4203C45.5156 37.5131 45.5876 37.5756 45.6747 37.6078C45.7637 37.6381 45.8575 37.6532 45.956 37.6532C46.0298 37.6532 46.0904 37.6494 46.1378 37.6419C46.1851 37.6324 46.223 37.6248 46.2514 37.6191L46.3878 38.2214C46.3423 38.2385 46.2789 38.2555 46.1974 38.2725C46.116 38.2915 46.0128 38.301 45.8878 38.301C45.6984 38.301 45.5128 38.2602 45.331 38.1788C45.151 38.0974 45.0014 37.9733 44.8821 37.8066C44.7647 37.64 44.706 37.4297 44.706 37.176V32.835ZM49.0994 38.335C48.679 38.335 48.3163 38.2422 48.0114 38.0566C47.7083 37.8691 47.4744 37.6078 47.3097 37.2725C47.1468 36.9354 47.0653 36.5434 47.0653 36.0964C47.0653 35.6494 47.1468 35.2555 47.3097 34.9146C47.4744 34.5718 47.7036 34.3047 47.9972 34.1135C48.2926 33.9203 48.6373 33.8237 49.0312 33.8237C49.2585 33.8237 49.483 33.8616 49.7045 33.9373C49.9261 34.0131 50.1278 34.1362 50.3097 34.3066C50.4915 34.4752 50.6364 34.6987 50.7443 34.9771C50.8523 35.2555 50.9062 35.5983 50.9062 36.0055V36.2896H47.5426V35.71H50.2244C50.2244 35.4638 50.1752 35.2441 50.0767 35.051C49.9801 34.8578 49.8419 34.7053 49.6619 34.5936C49.4839 34.4818 49.2737 34.426 49.0312 34.426C48.7642 34.426 48.5331 34.4922 48.3381 34.6248C48.1449 34.7555 47.9962 34.926 47.892 35.1362C47.7879 35.3464 47.7358 35.5718 47.7358 35.8123V36.1987C47.7358 36.5282 47.7926 36.8076 47.9062 37.0368C48.0218 37.264 48.1818 37.4373 48.3864 37.5566C48.5909 37.6741 48.8286 37.7328 49.0994 37.7328C49.2756 37.7328 49.4347 37.7082 49.5767 37.6589C49.7206 37.6078 49.8447 37.532 49.9489 37.4316C50.053 37.3294 50.1335 37.2025 50.1903 37.051L50.8381 37.2328C50.7699 37.4525 50.6553 37.6457 50.4943 37.8123C50.3333 37.9771 50.1345 38.1059 49.8977 38.1987C49.661 38.2896 49.3949 38.335 49.0994 38.335ZM51.9261 38.2441V33.8805H52.5739V34.5396H52.6193C52.6989 34.3237 52.8428 34.1485 53.0511 34.014C53.2595 33.8796 53.4943 33.8123 53.7557 33.8123C53.8049 33.8123 53.8665 33.8133 53.9403 33.8152C54.0142 33.8171 54.0701 33.8199 54.108 33.8237V34.5055C54.0852 34.4998 54.0331 34.4913 53.9517 34.4799C53.8722 34.4667 53.7879 34.46 53.6989 34.46C53.4867 34.46 53.2973 34.5046 53.1307 34.5936C52.9659 34.6807 52.8352 34.8019 52.7386 34.9572C52.6439 35.1106 52.5966 35.2858 52.5966 35.4828V38.2441H51.9261ZM55.5732 35.6191V38.2441H54.9027V33.8805H55.5504V34.5623H55.6072C55.7095 34.3407 55.8648 34.1627 56.0732 34.0282C56.2815 33.8919 56.5504 33.8237 56.88 33.8237C57.1754 33.8237 57.4339 33.8843 57.6555 34.0055C57.8771 34.1248 58.0495 34.3066 58.1726 34.551C58.2957 34.7934 58.3572 35.1002 58.3572 35.4714V38.2441H57.6868V35.5169C57.6868 35.1741 57.5978 34.907 57.4197 34.7157C57.2417 34.5225 56.9974 34.426 56.6868 34.426C56.4728 34.426 56.2815 34.4724 56.1129 34.5652C55.9463 34.658 55.8146 34.7934 55.718 34.9714C55.6214 35.1494 55.5732 35.3654 55.5732 35.6191ZM61.4119 38.335C60.9915 38.335 60.6288 38.2422 60.3239 38.0566C60.0208 37.8691 59.7869 37.6078 59.6222 37.2725C59.4593 36.9354 59.3778 36.5434 59.3778 36.0964C59.3778 35.6494 59.4593 35.2555 59.6222 34.9146C59.7869 34.5718 60.0161 34.3047 60.3097 34.1135C60.6051 33.9203 60.9498 33.8237 61.3438 33.8237C61.571 33.8237 61.7955 33.8616 62.017 33.9373C62.2386 34.0131 62.4403 34.1362 62.6222 34.3066C62.804 34.4752 62.9489 34.6987 63.0568 34.9771C63.1648 35.2555 63.2188 35.5983 63.2188 36.0055V36.2896H59.8551V35.71H62.5369C62.5369 35.4638 62.4877 35.2441 62.3892 35.051C62.2926 34.8578 62.1544 34.7053 61.9744 34.5936C61.7964 34.4818 61.5862 34.426 61.3438 34.426C61.0767 34.426 60.8456 34.4922 60.6506 34.6248C60.4574 34.7555 60.3087 34.926 60.2045 35.1362C60.1004 35.3464 60.0483 35.5718 60.0483 35.8123V36.1987C60.0483 36.5282 60.1051 36.8076 60.2188 37.0368C60.3343 37.264 60.4943 37.4373 60.6989 37.5566C60.9034 37.6741 61.1411 37.7328 61.4119 37.7328C61.5881 37.7328 61.7472 37.7082 61.8892 37.6589C62.0331 37.6078 62.1572 37.532 62.2614 37.4316C62.3655 37.3294 62.446 37.2025 62.5028 37.051L63.1506 37.2328C63.0824 37.4525 62.9678 37.6457 62.8068 37.8123C62.6458 37.9771 62.447 38.1059 62.2102 38.1987C61.9735 38.2896 61.7074 38.335 61.4119 38.335ZM66.1364 33.8805V34.4487H63.875V33.8805H66.1364ZM64.5341 32.835H65.2045V36.9941C65.2045 37.1835 65.232 37.3256 65.2869 37.4203C65.3438 37.5131 65.4157 37.5756 65.5028 37.6078C65.5919 37.6381 65.6856 37.6532 65.7841 37.6532C65.858 37.6532 65.9186 37.6494 65.9659 37.6419C66.0133 37.6324 66.0511 37.6248 66.0795 37.6191L66.2159 38.2214C66.1705 38.2385 66.107 38.2555 66.0256 38.2725C65.9441 38.2915 65.8409 38.301 65.7159 38.301C65.5265 38.301 65.3409 38.2602 65.1591 38.1788C64.9792 38.0974 64.8295 37.9733 64.7102 37.8066C64.5928 37.64 64.5341 37.4297 64.5341 37.176V32.835ZM71.0426 38.335C70.679 38.335 70.358 38.2432 70.0795 38.0595C69.8011 37.8739 69.5833 37.6125 69.4261 37.2754C69.2689 36.9364 69.1903 36.5358 69.1903 36.0737C69.1903 35.6154 69.2689 35.2176 69.4261 34.8805C69.5833 34.5434 69.8021 34.283 70.0824 34.0993C70.3627 33.9155 70.6866 33.8237 71.054 33.8237C71.3381 33.8237 71.5625 33.871 71.7273 33.9657C71.8939 34.0585 72.0208 34.1646 72.108 34.2839C72.197 34.4013 72.2661 34.4979 72.3153 34.5737H72.3722V32.426H73.0426V38.2441H72.3949V37.5737H72.3153C72.2661 37.6532 72.196 37.7536 72.1051 37.8748C72.0142 37.9941 71.8845 38.1011 71.7159 38.1958C71.5473 38.2886 71.3229 38.335 71.0426 38.335ZM71.1335 37.7328C71.4025 37.7328 71.6297 37.6627 71.8153 37.5225C72.0009 37.3805 72.142 37.1845 72.2386 36.9345C72.3352 36.6826 72.3835 36.3919 72.3835 36.0623C72.3835 35.7366 72.3362 35.4515 72.2415 35.2072C72.1468 34.961 72.0066 34.7697 71.821 34.6333C71.6354 34.4951 71.4063 34.426 71.1335 34.426C70.8494 34.426 70.6127 34.4989 70.4233 34.6447C70.2358 34.7886 70.0947 34.9847 70 35.2328C69.9072 35.479 69.8608 35.7555 69.8608 36.0623C69.8608 36.3729 69.9081 36.6551 70.0028 36.9089C70.0994 37.1608 70.2415 37.3616 70.429 37.5112C70.6184 37.6589 70.8532 37.7328 71.1335 37.7328ZM76.1932 38.335C75.7727 38.335 75.41 38.2422 75.1051 38.0566C74.8021 37.8691 74.5682 37.6078 74.4034 37.2725C74.2405 36.9354 74.1591 36.5434 74.1591 36.0964C74.1591 35.6494 74.2405 35.2555 74.4034 34.9146C74.5682 34.5718 74.7973 34.3047 75.0909 34.1135C75.3864 33.9203 75.7311 33.8237 76.125 33.8237C76.3523 33.8237 76.5767 33.8616 76.7983 33.9373C77.0199 34.0131 77.2216 34.1362 77.4034 34.3066C77.5852 34.4752 77.7301 34.6987 77.8381 34.9771C77.946 35.2555 78 35.5983 78 36.0055V36.2896H74.6364V35.71H77.3182C77.3182 35.4638 77.2689 35.2441 77.1705 35.051C77.0739 34.8578 76.9356 34.7053 76.7557 34.5936C76.5777 34.4818 76.3674 34.426 76.125 34.426C75.858 34.426 75.6269 34.4922 75.4318 34.6248C75.2386 34.7555 75.09 34.926 74.9858 35.1362C74.8816 35.3464 74.8295 35.5718 74.8295 35.8123V36.1987C74.8295 36.5282 74.8864 36.8076 75 37.0368C75.1155 37.264 75.2756 37.4373 75.4801 37.5566C75.6847 37.6741 75.9223 37.7328 76.1932 37.7328C76.3693 37.7328 76.5284 37.7082 76.6705 37.6589C76.8144 37.6078 76.9384 37.532 77.0426 37.4316C77.1468 37.3294 77.2273 37.2025 77.2841 37.051L77.9318 37.2328C77.8636 37.4525 77.7491 37.6457 77.5881 37.8123C77.4271 37.9771 77.2282 38.1059 76.9915 38.1987C76.7547 38.2896 76.4886 38.335 76.1932 38.335ZM81.9403 32.426V38.2441H81.2699V32.426H81.9403ZM84.4524 38.3464C84.1759 38.3464 83.925 38.2943 83.6996 38.1902C83.4742 38.0841 83.2952 37.9316 83.1626 37.7328C83.0301 37.532 82.9638 37.2896 82.9638 37.0055C82.9638 36.7555 83.013 36.5529 83.1115 36.3975C83.21 36.2404 83.3416 36.1172 83.5064 36.0282C83.6712 35.9392 83.853 35.8729 84.0518 35.8294C84.2526 35.7839 84.4543 35.7479 84.657 35.7214C84.9221 35.6873 85.1371 35.6618 85.3018 35.6447C85.4685 35.6258 85.5897 35.5945 85.6655 35.551C85.7431 35.5074 85.782 35.4316 85.782 35.3237V35.301C85.782 35.0207 85.7053 34.8029 85.5518 34.6475C85.4003 34.4922 85.1702 34.4146 84.8615 34.4146C84.5414 34.4146 84.2905 34.4847 84.1087 34.6248C83.9268 34.765 83.799 34.9146 83.7251 35.0737L83.0888 34.8464C83.2024 34.5813 83.3539 34.3748 83.5433 34.2271C83.7346 34.0775 83.9429 33.9733 84.1683 33.9146C84.3956 33.854 84.6191 33.8237 84.8388 33.8237C84.9789 33.8237 85.1399 33.8407 85.3217 33.8748C85.5054 33.907 85.6825 33.9743 85.853 34.0765C86.0253 34.1788 86.1683 34.3332 86.282 34.5396C86.3956 34.746 86.4524 35.0225 86.4524 35.3691V38.2441H85.782V37.6532H85.7479C85.7024 37.7479 85.6267 37.8493 85.5206 37.9572C85.4145 38.0652 85.2734 38.157 85.0973 38.2328C84.9212 38.3085 84.7062 38.3464 84.4524 38.3464ZM84.5547 37.7441C84.8198 37.7441 85.0433 37.6921 85.2251 37.5879C85.4089 37.4837 85.5471 37.3493 85.6399 37.1845C85.7346 37.0197 85.782 36.8464 85.782 36.6646V36.051C85.7536 36.085 85.6911 36.1163 85.5945 36.1447C85.4998 36.1712 85.3899 36.1949 85.2649 36.2157C85.1418 36.2347 85.0215 36.2517 84.9041 36.2669C84.7886 36.2801 84.6948 36.2915 84.6229 36.301C84.4486 36.3237 84.2857 36.3606 84.1342 36.4118C83.9846 36.461 83.8634 36.5358 83.7706 36.6362C83.6797 36.7347 83.6342 36.8691 83.6342 37.0396C83.6342 37.2725 83.7204 37.4487 83.8928 37.568C84.067 37.6854 84.2876 37.7441 84.5547 37.7441ZM90.767 34.8578L90.1648 35.0282C90.1269 34.9279 90.071 34.8303 89.9972 34.7356C89.9252 34.639 89.8267 34.5595 89.7017 34.497C89.5767 34.4345 89.4167 34.4032 89.2216 34.4032C88.9545 34.4032 88.732 34.4648 88.554 34.5879C88.3778 34.7091 88.2898 34.8635 88.2898 35.051C88.2898 35.2176 88.3504 35.3493 88.4716 35.4458C88.5928 35.5424 88.7822 35.6229 89.0398 35.6873L89.6875 35.8464C90.0777 35.9411 90.3684 36.086 90.5597 36.2811C90.7509 36.4743 90.8466 36.7233 90.8466 37.0282C90.8466 37.2782 90.7746 37.5017 90.6307 37.6987C90.4886 37.8957 90.2898 38.051 90.0341 38.1646C89.7784 38.2782 89.4811 38.335 89.142 38.335C88.697 38.335 88.3286 38.2385 88.0369 38.0453C87.7453 37.8521 87.5606 37.5699 87.483 37.1987L88.1193 37.0396C88.1799 37.2744 88.2945 37.4506 88.4631 37.568C88.6335 37.6854 88.8561 37.7441 89.1307 37.7441C89.4432 37.7441 89.6913 37.6779 89.875 37.5453C90.0606 37.4108 90.1534 37.2498 90.1534 37.0623C90.1534 36.9108 90.1004 36.7839 89.9943 36.6816C89.8883 36.5775 89.7254 36.4998 89.5057 36.4487L88.7784 36.2782C88.3788 36.1835 88.0852 36.0368 87.8977 35.8379C87.7121 35.6371 87.6193 35.3862 87.6193 35.085C87.6193 34.8388 87.6884 34.621 87.8267 34.4316C87.9669 34.2422 88.1572 34.0936 88.3977 33.9856C88.6402 33.8777 88.9148 33.8237 89.2216 33.8237C89.6534 33.8237 89.9924 33.9184 90.2386 34.1078C90.4867 34.2972 90.6629 34.5472 90.767 34.8578ZM98.8786 34.2441H98.174C98.1323 34.0415 98.0594 33.8635 97.9553 33.71C97.853 33.5566 97.728 33.4279 97.5803 33.3237C97.4344 33.2176 97.2725 33.1381 97.0945 33.085C96.9164 33.032 96.7308 33.0055 96.5376 33.0055C96.1854 33.0055 95.8662 33.0945 95.5803 33.2725C95.2962 33.4506 95.0698 33.7129 94.9013 34.0595C94.7346 34.4061 94.6513 34.8313 94.6513 35.335C94.6513 35.8388 94.7346 36.264 94.9013 36.6106C95.0698 36.9572 95.2962 37.2195 95.5803 37.3975C95.8662 37.5756 96.1854 37.6646 96.5376 37.6646C96.7308 37.6646 96.9164 37.6381 97.0945 37.585C97.2725 37.532 97.4344 37.4534 97.5803 37.3493C97.728 37.2432 97.853 37.1135 97.9553 36.96C98.0594 36.8047 98.1323 36.6267 98.174 36.426H98.8786C98.8255 36.7233 98.7289 36.9894 98.5888 37.2243C98.4486 37.4591 98.2744 37.6589 98.0661 37.8237C97.8577 37.9866 97.6238 38.1106 97.3643 38.1958C97.1068 38.2811 96.8312 38.3237 96.5376 38.3237C96.0414 38.3237 95.6001 38.2025 95.2138 37.96C94.8274 37.7176 94.5234 37.3729 94.3018 36.926C94.0803 36.479 93.9695 35.9487 93.9695 35.335C93.9695 34.7214 94.0803 34.1911 94.3018 33.7441C94.5234 33.2972 94.8274 32.9525 95.2138 32.71C95.6001 32.4676 96.0414 32.3464 96.5376 32.3464C96.8312 32.3464 97.1068 32.389 97.3643 32.4743C97.6238 32.5595 97.8577 32.6845 98.0661 32.8493C98.2744 33.0121 98.4486 33.211 98.5888 33.4458C98.7289 33.6788 98.8255 33.9449 98.8786 34.2441ZM101.699 38.335C101.305 38.335 100.959 38.2413 100.662 38.0538C100.366 37.8663 100.135 37.604 99.9688 37.2669C99.804 36.9297 99.7216 36.5358 99.7216 36.085C99.7216 35.6305 99.804 35.2337 99.9688 34.8947C100.135 34.5557 100.366 34.2924 100.662 34.1049C100.959 33.9174 101.305 33.8237 101.699 33.8237C102.093 33.8237 102.438 33.9174 102.733 34.1049C103.03 34.2924 103.261 34.5557 103.426 34.8947C103.593 35.2337 103.676 35.6305 103.676 36.085C103.676 36.5358 103.593 36.9297 103.426 37.2669C103.261 37.604 103.03 37.8663 102.733 38.0538C102.438 38.2413 102.093 38.335 101.699 38.335ZM101.699 37.7328C101.998 37.7328 102.244 37.6561 102.438 37.5027C102.631 37.3493 102.774 37.1475 102.866 36.8975C102.959 36.6475 103.006 36.3767 103.006 36.085C103.006 35.7934 102.959 35.5216 102.866 35.2697C102.774 35.0178 102.631 34.8142 102.438 34.6589C102.244 34.5036 101.998 34.426 101.699 34.426C101.4 34.426 101.153 34.5036 100.96 34.6589C100.767 34.8142 100.624 35.0178 100.531 35.2697C100.438 35.5216 100.392 35.7934 100.392 36.085C100.392 36.3767 100.438 36.6475 100.531 36.8975C100.624 37.1475 100.767 37.3493 100.96 37.5027C101.153 37.6561 101.4 37.7328 101.699 37.7328ZM107.79 34.8578L107.188 35.0282C107.15 34.9279 107.094 34.8303 107.021 34.7356C106.949 34.639 106.85 34.5595 106.725 34.497C106.6 34.4345 106.44 34.4032 106.245 34.4032C105.978 34.4032 105.755 34.4648 105.577 34.5879C105.401 34.7091 105.313 34.8635 105.313 35.051C105.313 35.2176 105.374 35.3493 105.495 35.4458C105.616 35.5424 105.806 35.6229 106.063 35.6873L106.711 35.8464C107.101 35.9411 107.392 36.086 107.583 36.2811C107.774 36.4743 107.87 36.7233 107.87 37.0282C107.87 37.2782 107.798 37.5017 107.654 37.6987C107.512 37.8957 107.313 38.051 107.058 38.1646C106.802 38.2782 106.504 38.335 106.165 38.335C105.72 38.335 105.352 38.2385 105.06 38.0453C104.769 37.8521 104.584 37.5699 104.506 37.1987L105.143 37.0396C105.203 37.2744 105.318 37.4506 105.487 37.568C105.657 37.6854 105.879 37.7441 106.154 37.7441C106.467 37.7441 106.715 37.6779 106.898 37.5453C107.084 37.4108 107.177 37.2498 107.177 37.0623C107.177 36.9108 107.124 36.7839 107.018 36.6816C106.912 36.5775 106.749 36.4998 106.529 36.4487L105.802 36.2782C105.402 36.1835 105.109 36.0368 104.921 35.8379C104.736 35.6371 104.643 35.3862 104.643 35.085C104.643 34.8388 104.712 34.621 104.85 34.4316C104.99 34.2422 105.181 34.0936 105.421 33.9856C105.664 33.8777 105.938 33.8237 106.245 33.8237C106.677 33.8237 107.016 33.9184 107.262 34.1078C107.51 34.2972 107.686 34.5472 107.79 34.8578ZM110.163 38.3464C109.887 38.3464 109.636 38.2943 109.411 38.1902C109.185 38.0841 109.006 37.9316 108.874 37.7328C108.741 37.532 108.675 37.2896 108.675 37.0055C108.675 36.7555 108.724 36.5529 108.822 36.3975C108.921 36.2404 109.053 36.1172 109.217 36.0282C109.382 35.9392 109.564 35.8729 109.763 35.8294C109.964 35.7839 110.165 35.7479 110.368 35.7214C110.633 35.6873 110.848 35.6618 111.013 35.6447C111.179 35.6258 111.301 35.5945 111.376 35.551C111.454 35.5074 111.493 35.4316 111.493 35.3237V35.301C111.493 35.0207 111.416 34.8029 111.263 34.6475C111.111 34.4922 110.881 34.4146 110.572 34.4146C110.252 34.4146 110.001 34.4847 109.82 34.6248C109.638 34.765 109.51 34.9146 109.436 35.0737L108.8 34.8464C108.913 34.5813 109.065 34.3748 109.254 34.2271C109.446 34.0775 109.654 33.9733 109.879 33.9146C110.107 33.854 110.33 33.8237 110.55 33.8237C110.69 33.8237 110.851 33.8407 111.033 33.8748C111.216 33.907 111.393 33.9743 111.564 34.0765C111.736 34.1788 111.879 34.3332 111.993 34.5396C112.107 34.746 112.163 35.0225 112.163 35.3691V38.2441H111.493V37.6532H111.459C111.413 37.7479 111.338 37.8493 111.232 37.9572C111.125 38.0652 110.984 38.157 110.808 38.2328C110.632 38.3085 110.417 38.3464 110.163 38.3464ZM110.266 37.7441C110.531 37.7441 110.754 37.6921 110.936 37.5879C111.12 37.4837 111.258 37.3493 111.351 37.1845C111.446 37.0197 111.493 36.8464 111.493 36.6646V36.051C111.464 36.085 111.402 36.1163 111.305 36.1447C111.211 36.1712 111.101 36.1949 110.976 36.2157C110.853 36.2347 110.732 36.2517 110.615 36.2669C110.5 36.2801 110.406 36.2915 110.334 36.301C110.16 36.3237 109.997 36.3606 109.845 36.4118C109.696 36.461 109.574 36.5358 109.482 36.6362C109.391 36.7347 109.345 36.8691 109.345 37.0396C109.345 37.2725 109.431 37.4487 109.604 37.568C109.778 37.6854 109.999 37.7441 110.266 37.7441ZM116.478 34.8578L115.876 35.0282C115.838 34.9279 115.782 34.8303 115.708 34.7356C115.636 34.639 115.538 34.5595 115.413 34.497C115.288 34.4345 115.128 34.4032 114.933 34.4032C114.665 34.4032 114.443 34.4648 114.265 34.5879C114.089 34.7091 114.001 34.8635 114.001 35.051C114.001 35.2176 114.061 35.3493 114.183 35.4458C114.304 35.5424 114.493 35.6229 114.751 35.6873L115.398 35.8464C115.789 35.9411 116.079 36.086 116.271 36.2811C116.462 36.4743 116.558 36.7233 116.558 37.0282C116.558 37.2782 116.486 37.5017 116.342 37.6987C116.2 37.8957 116.001 38.051 115.745 38.1646C115.489 38.2782 115.192 38.335 114.853 38.335C114.408 38.335 114.04 38.2385 113.748 38.0453C113.456 37.8521 113.272 37.5699 113.194 37.1987L113.83 37.0396C113.891 37.2744 114.005 37.4506 114.174 37.568C114.344 37.6854 114.567 37.7441 114.842 37.7441C115.154 37.7441 115.402 37.6779 115.586 37.5453C115.772 37.4108 115.864 37.2498 115.864 37.0623C115.864 36.9108 115.811 36.7839 115.705 36.6816C115.599 36.5775 115.436 36.4998 115.217 36.4487L114.489 36.2782C114.09 36.1835 113.796 36.0368 113.609 35.8379C113.423 35.6371 113.33 35.3862 113.33 35.085C113.33 34.8388 113.399 34.621 113.538 34.4316C113.678 34.2422 113.868 34.0936 114.109 33.9856C114.351 33.8777 114.626 33.8237 114.933 33.8237C115.364 33.8237 115.703 33.9184 115.95 34.1078C116.198 34.2972 116.374 34.5472 116.478 34.8578ZM119.908 32.426H120.749L122.726 37.2555H122.794L124.771 32.426H125.612V38.2441H124.953V33.8237H124.896L123.078 38.2441H122.442L120.624 33.8237H120.567V38.2441H119.908V32.426ZM128.763 38.335C128.343 38.335 127.98 38.2422 127.675 38.0566C127.372 37.8691 127.138 37.6078 126.974 37.2725C126.811 36.9354 126.729 36.5434 126.729 36.0964C126.729 35.6494 126.811 35.2555 126.974 34.9146C127.138 34.5718 127.368 34.3047 127.661 34.1135C127.957 33.9203 128.301 33.8237 128.695 33.8237C128.923 33.8237 129.147 33.8616 129.369 33.9373C129.59 34.0131 129.792 34.1362 129.974 34.3066C130.156 34.4752 130.3 34.6987 130.408 34.9771C130.516 35.2555 130.57 35.5983 130.57 36.0055V36.2896H127.207V35.71H129.888C129.888 35.4638 129.839 35.2441 129.741 35.051C129.644 34.8578 129.506 34.7053 129.326 34.5936C129.148 34.4818 128.938 34.426 128.695 34.426C128.428 34.426 128.197 34.4922 128.002 34.6248C127.809 34.7555 127.66 34.926 127.556 35.1362C127.452 35.3464 127.4 35.5718 127.4 35.8123V36.1987C127.4 36.5282 127.457 36.8076 127.57 37.0368C127.686 37.264 127.846 37.4373 128.05 37.5566C128.255 37.6741 128.493 37.7328 128.763 37.7328C128.94 37.7328 129.099 37.7082 129.241 37.6589C129.385 37.6078 129.509 37.532 129.613 37.4316C129.717 37.3294 129.798 37.2025 129.854 37.051L130.502 37.2328C130.434 37.4525 130.319 37.6457 130.158 37.8123C129.997 37.9771 129.799 38.1059 129.562 38.1987C129.325 38.2896 129.059 38.335 128.763 38.335ZM128.354 33.2896L129.048 31.9714H129.832L128.945 33.2896H128.354ZM133.238 38.335C132.874 38.335 132.553 38.2432 132.275 38.0595C131.996 37.8739 131.779 37.6125 131.621 37.2754C131.464 36.9364 131.386 36.5358 131.386 36.0737C131.386 35.6154 131.464 35.2176 131.621 34.8805C131.779 34.5434 131.997 34.283 132.278 34.0993C132.558 33.9155 132.882 33.8237 133.249 33.8237C133.533 33.8237 133.758 33.871 133.923 33.9657C134.089 34.0585 134.216 34.1646 134.303 34.2839C134.392 34.4013 134.461 34.4979 134.511 34.5737H134.567V32.426H135.238V38.2441H134.59V37.5737H134.511C134.461 37.6532 134.391 37.7536 134.3 37.8748C134.21 37.9941 134.08 38.1011 133.911 38.1958C133.743 38.2886 133.518 38.335 133.238 38.335ZM133.329 37.7328C133.598 37.7328 133.825 37.6627 134.011 37.5225C134.196 37.3805 134.337 37.1845 134.434 36.9345C134.531 36.6826 134.579 36.3919 134.579 36.0623C134.579 35.7366 134.531 35.4515 134.437 35.2072C134.342 34.961 134.202 34.7697 134.016 34.6333C133.831 34.4951 133.602 34.426 133.329 34.426C133.045 34.426 132.808 34.4989 132.619 34.6447C132.431 34.7886 132.29 34.9847 132.195 35.2328C132.103 35.479 132.056 35.7555 132.056 36.0623C132.056 36.3729 132.103 36.6551 132.198 36.9089C132.295 37.1608 132.437 37.3616 132.624 37.5112C132.814 37.6589 133.049 37.7328 133.329 37.7328ZM136.559 38.2441V33.8805H137.229V38.2441H136.559ZM136.9 33.1532C136.769 33.1532 136.656 33.1087 136.562 33.0197C136.469 32.9307 136.423 32.8237 136.423 32.6987C136.423 32.5737 136.469 32.4667 136.562 32.3777C136.656 32.2886 136.769 32.2441 136.9 32.2441C137.031 32.2441 137.142 32.2886 137.235 32.3777C137.33 32.4667 137.377 32.5737 137.377 32.6987C137.377 32.8237 137.33 32.9307 137.235 33.0197C137.142 33.1087 137.031 33.1532 136.9 33.1532ZM140.23 38.335C139.821 38.335 139.469 38.2385 139.173 38.0453C138.878 37.8521 138.651 37.586 138.491 37.247C138.332 36.908 138.253 36.5207 138.253 36.085C138.253 35.6419 138.334 35.2508 138.497 34.9118C138.662 34.5708 138.891 34.3047 139.185 34.1135C139.48 33.9203 139.825 33.8237 140.219 33.8237C140.526 33.8237 140.802 33.8805 141.048 33.9941C141.295 34.1078 141.496 34.2669 141.653 34.4714C141.811 34.676 141.908 34.9146 141.946 35.1873H141.276C141.224 34.9885 141.111 34.8123 140.935 34.6589C140.76 34.5036 140.526 34.426 140.23 34.426C139.969 34.426 139.74 34.4941 139.543 34.6305C139.348 34.765 139.195 34.9553 139.085 35.2015C138.977 35.4458 138.923 35.7328 138.923 36.0623C138.923 36.3994 138.976 36.693 139.082 36.943C139.19 37.193 139.342 37.3871 139.537 37.5254C139.734 37.6636 139.965 37.7328 140.23 37.7328C140.404 37.7328 140.562 37.7025 140.705 37.6419C140.847 37.5813 140.967 37.4941 141.065 37.3805C141.164 37.2669 141.234 37.1305 141.276 36.9714H141.946C141.908 37.229 141.814 37.461 141.665 37.6674C141.517 37.872 141.321 38.0349 141.077 38.1561C140.834 38.2754 140.552 38.335 140.23 38.335ZM144.21 38.3464C143.934 38.3464 143.683 38.2943 143.457 38.1902C143.232 38.0841 143.053 37.9316 142.92 37.7328C142.788 37.532 142.722 37.2896 142.722 37.0055C142.722 36.7555 142.771 36.5529 142.869 36.3975C142.968 36.2404 143.099 36.1172 143.264 36.0282C143.429 35.9392 143.611 35.8729 143.81 35.8294C144.01 35.7839 144.212 35.7479 144.415 35.7214C144.68 35.6873 144.895 35.6618 145.06 35.6447C145.226 35.6258 145.348 35.5945 145.423 35.551C145.501 35.5074 145.54 35.4316 145.54 35.3237V35.301C145.54 35.0207 145.463 34.8029 145.31 34.6475C145.158 34.4922 144.928 34.4146 144.619 34.4146C144.299 34.4146 144.048 34.4847 143.866 34.6248C143.685 34.765 143.557 34.9146 143.483 35.0737L142.847 34.8464C142.96 34.5813 143.112 34.3748 143.301 34.2271C143.492 34.0775 143.701 33.9733 143.926 33.9146C144.153 33.854 144.377 33.8237 144.597 33.8237C144.737 33.8237 144.898 33.8407 145.08 33.8748C145.263 33.907 145.44 33.9743 145.611 34.0765C145.783 34.1788 145.926 34.3332 146.04 34.5396C146.153 34.746 146.21 35.0225 146.21 35.3691V38.2441H145.54V37.6532H145.506C145.46 37.7479 145.384 37.8493 145.278 37.9572C145.172 38.0652 145.031 38.157 144.855 38.2328C144.679 38.3085 144.464 38.3464 144.21 38.3464ZM144.312 37.7441C144.578 37.7441 144.801 37.6921 144.983 37.5879C145.167 37.4837 145.305 37.3493 145.398 37.1845C145.492 37.0197 145.54 36.8464 145.54 36.6646V36.051C145.511 36.085 145.449 36.1163 145.352 36.1447C145.258 36.1712 145.148 36.1949 145.023 36.2157C144.9 36.2347 144.779 36.2517 144.662 36.2669C144.546 36.2801 144.453 36.2915 144.381 36.301C144.206 36.3237 144.044 36.3606 143.892 36.4118C143.742 36.461 143.621 36.5358 143.528 36.6362C143.438 36.7347 143.392 36.8691 143.392 37.0396C143.392 37.2725 143.478 37.4487 143.651 37.568C143.825 37.6854 144.045 37.7441 144.312 37.7441ZM150.525 34.8578L149.923 35.0282C149.885 34.9279 149.829 34.8303 149.755 34.7356C149.683 34.639 149.585 34.5595 149.46 34.497C149.335 34.4345 149.174 34.4032 148.979 34.4032C148.712 34.4032 148.49 34.4648 148.312 34.5879C148.136 34.7091 148.048 34.8635 148.048 35.051C148.048 35.2176 148.108 35.3493 148.229 35.4458C148.351 35.5424 148.54 35.6229 148.798 35.6873L149.445 35.8464C149.835 35.9411 150.126 36.086 150.317 36.2811C150.509 36.4743 150.604 36.7233 150.604 37.0282C150.604 37.2782 150.532 37.5017 150.388 37.6987C150.246 37.8957 150.048 38.051 149.792 38.1646C149.536 38.2782 149.239 38.335 148.9 38.335C148.455 38.335 148.086 38.2385 147.795 38.0453C147.503 37.8521 147.318 37.5699 147.241 37.1987L147.877 37.0396C147.938 37.2744 148.052 37.4506 148.221 37.568C148.391 37.6854 148.614 37.7441 148.888 37.7441C149.201 37.7441 149.449 37.6779 149.633 37.5453C149.818 37.4108 149.911 37.2498 149.911 37.0623C149.911 36.9108 149.858 36.7839 149.752 36.6816C149.646 36.5775 149.483 36.4998 149.263 36.4487L148.536 36.2782C148.137 36.1835 147.843 36.0368 147.656 35.8379C147.47 35.6371 147.377 35.3862 147.377 35.085C147.377 34.8388 147.446 34.621 147.585 34.4316C147.725 34.2422 147.915 34.0936 148.156 33.9856C148.398 33.8777 148.673 33.8237 148.979 33.8237C149.411 33.8237 149.75 33.9184 149.996 34.1078C150.245 34.2972 150.421 34.5472 150.525 34.8578Z" fill="#DF6D51"/>
<rect x="151" y="8.60547" width="47" height="20" rx="10" fill="#FFFAF0"/>
<path d="M161.114 13.8782V22.6055H160.057V13.8782H161.114ZM165.568 22.7418C165.022 22.7418 164.541 22.604 164.123 22.3285C163.706 22.0501 163.379 21.658 163.143 21.1523C162.907 20.6438 162.789 20.043 162.789 19.3498C162.789 18.6623 162.907 18.0657 163.143 17.56C163.379 17.0543 163.707 16.6637 164.127 16.3881C164.548 16.1126 165.034 15.9748 165.585 15.9748C166.011 15.9748 166.348 16.0458 166.595 16.1879C166.845 16.3271 167.035 16.4862 167.166 16.6651C167.299 16.8413 167.403 16.9862 167.477 17.0998H167.562V13.8782H168.568V22.6055H167.596V21.5998H167.477C167.403 21.7191 167.298 21.8697 167.162 22.0515C167.025 22.2305 166.831 22.391 166.578 22.533C166.325 22.6722 165.988 22.7418 165.568 22.7418ZM165.704 21.8384C166.108 21.8384 166.449 21.7333 166.727 21.5231C167.005 21.31 167.217 21.016 167.362 20.641C167.507 20.2631 167.579 19.8271 167.579 19.3327C167.579 18.8441 167.508 18.4165 167.366 18.0501C167.224 17.6808 167.014 17.3938 166.735 17.1893C166.457 16.9819 166.113 16.8782 165.704 16.8782C165.278 16.8782 164.923 16.9876 164.639 17.2063C164.358 17.4222 164.146 17.7163 164.004 18.0884C163.865 18.4577 163.795 18.8725 163.795 19.3327C163.795 19.7987 163.866 20.2219 164.008 20.6026C164.153 20.9805 164.366 21.2816 164.647 21.506C164.931 21.7276 165.284 21.8384 165.704 21.8384ZM177.708 16.6055H176.652C176.589 16.3015 176.48 16.0344 176.324 15.8043C176.17 15.5742 175.983 15.381 175.761 15.2248C175.542 15.0657 175.299 14.9464 175.032 14.8668C174.765 14.7873 174.487 14.7475 174.197 14.7475C173.669 14.7475 173.19 14.881 172.761 15.1481C172.335 15.4151 171.995 15.8086 171.743 16.3285C171.493 16.8484 171.368 17.4862 171.368 18.2418C171.368 18.9975 171.493 19.6353 171.743 20.1552C171.995 20.6751 172.335 21.0685 172.761 21.3356C173.19 21.6026 173.669 21.7362 174.197 21.7362C174.487 21.7362 174.765 21.6964 175.032 21.6168C175.299 21.5373 175.542 21.4194 175.761 21.2631C175.983 21.104 176.17 20.9094 176.324 20.6793C176.48 20.4464 176.589 20.1793 176.652 19.8782H177.708C177.629 20.3242 177.484 20.7234 177.274 21.0756C177.064 21.4279 176.802 21.7276 176.49 21.9748C176.177 22.2191 175.826 22.4052 175.437 22.533C175.051 22.6609 174.637 22.7248 174.197 22.7248C173.453 22.7248 172.791 22.543 172.211 22.1793C171.632 21.8157 171.176 21.2987 170.843 20.6282C170.511 19.9577 170.345 19.1623 170.345 18.2418C170.345 17.3214 170.511 16.5259 170.843 15.8555C171.176 15.185 171.632 14.668 172.211 14.3043C172.791 13.9407 173.453 13.7589 174.197 13.7589C174.637 13.7589 175.051 13.8228 175.437 13.9506C175.826 14.0785 176.177 14.266 176.49 14.5131C176.802 14.7575 177.064 15.0558 177.274 15.408C177.484 15.7575 177.629 16.1566 177.708 16.6055ZM179.416 13.8782H180.678L183.643 21.1225H183.746L186.712 13.8782H187.973V22.6055H186.984V15.9748H186.899L184.172 22.6055H183.217L180.49 15.9748H180.405V22.6055H179.416V13.8782Z" fill="#DF6D51"/>
</svg>
