<svg width="454" height="382" viewBox="0 0 454 382" fill="none" xmlns="http://www.w3.org/2000/svg">
<path d="M0 380.766V309.095H28.6978C33.2118 308.959 37.7049 309.759 41.895 311.444C45.1253 312.776 47.8891 315.034 49.8382 317.934C51.6337 320.789 52.5566 324.106 52.4936 327.478C52.5524 330.034 51.9753 332.564 50.8141 334.842C49.7239 336.917 48.1422 338.694 46.207 340.017C44.1929 341.392 41.9307 342.364 39.546 342.876V343.569C42.3141 343.693 45.0052 344.518 47.3671 345.967C49.729 347.416 51.6842 349.441 53.0496 351.852C54.6066 354.62 55.3905 357.755 55.3191 360.93C55.3875 364.536 54.4058 368.085 52.4936 371.143C50.4648 374.249 47.5797 376.7 44.1872 378.201C39.9191 380.046 35.2973 380.929 30.6496 380.788L0 380.766ZM15.1489 339.086H26.3829C28.2922 339.106 30.1838 338.719 31.9319 337.951C33.476 337.278 34.8064 336.195 35.7787 334.82C36.7501 333.386 37.2463 331.683 37.1971 329.951C37.2406 328.768 37.0162 327.59 36.5407 326.505C36.0652 325.421 35.3509 324.458 34.451 323.688C32.6203 322.099 30.0255 321.305 26.6666 321.305H15.1489V339.086ZM15.1489 368.374H27.5063C31.7276 368.374 34.8141 367.568 36.7432 365.946C37.6931 365.159 38.4492 364.165 38.9529 363.039C39.4567 361.914 39.6946 360.687 39.6482 359.455C39.6848 357.603 39.1885 355.779 38.2184 354.201C37.2188 352.65 35.8032 351.411 34.1333 350.627C32.1685 349.72 30.0214 349.277 27.8581 349.333H15.1489V368.374Z" fill="#27BEC2"/>
<path d="M160.556 344.93C160.556 352.745 159.08 359.394 156.13 364.879C153.401 370.126 149.222 374.478 144.09 377.418C138.83 380.26 132.946 381.747 126.967 381.747C120.988 381.747 115.104 380.26 109.844 377.418C104.723 374.465 100.556 370.105 97.8379 364.856C94.8951 359.364 93.4275 352.726 93.4351 344.941C93.4427 337.157 94.9103 330.507 97.8379 324.993C100.553 319.744 104.721 315.388 109.844 312.442C115.105 309.605 120.989 308.119 126.967 308.119C132.945 308.119 138.829 309.605 144.09 312.442C149.223 315.386 153.402 319.742 156.13 324.993C159.08 330.462 160.556 337.108 160.556 344.93ZM145.191 344.93C145.315 340.55 144.543 336.19 142.922 332.119C141.64 328.898 139.427 326.133 136.567 324.176C133.678 322.417 130.361 321.486 126.978 321.486C123.596 321.486 120.279 322.417 117.39 324.176C114.533 326.137 112.321 328.901 111.035 332.119C108.025 340.391 108.025 349.458 111.035 357.73C112.318 360.95 114.53 363.715 117.39 365.673C120.276 367.44 123.594 368.374 126.978 368.374C130.362 368.374 133.68 367.44 136.567 365.673C139.43 363.718 141.643 360.952 142.922 357.73C144.543 353.663 145.315 349.307 145.191 344.93Z" fill="#27BEC2"/>
<path d="M201.316 380.766V309.095H216.465V368.272H247.194V380.754L201.316 380.766Z" fill="#27BEC2"/>
<path d="M312.204 380.766H286.808V309.095H312.419C318.89 308.921 325.298 310.397 331.041 313.384C336.189 316.186 340.377 320.472 343.058 325.685C345.839 331.707 347.28 338.262 347.28 344.896C347.28 351.53 345.839 358.085 343.058 364.107C340.373 369.348 336.163 373.653 330.984 376.454C325.189 379.456 318.728 380.94 312.204 380.766ZM301.991 367.784H311.614C315.535 367.91 319.428 367.085 322.961 365.378C326.036 363.767 328.466 361.152 329.849 357.968C332.962 349.547 332.962 340.291 329.849 331.869C328.465 328.679 326.025 326.062 322.939 324.459C319.404 322.76 315.51 321.943 311.591 322.076H301.934L301.991 367.784Z" fill="#27BEC2"/>
<path d="M453.9 344.93C453.9 352.745 452.425 359.394 449.474 364.879C446.745 370.126 442.566 374.478 437.435 377.418C432.174 380.26 426.29 381.747 420.311 381.747C414.333 381.747 408.448 380.26 403.188 377.418C398.067 374.465 393.901 370.105 391.182 364.856C388.239 359.364 386.772 352.726 386.779 344.941C386.787 337.157 388.254 330.507 391.182 324.993C393.898 319.744 398.065 315.388 403.188 312.442C408.449 309.605 414.333 308.119 420.311 308.119C426.289 308.119 432.173 309.605 437.435 312.442C442.567 315.386 446.746 319.742 449.474 324.993C452.425 330.462 453.9 337.108 453.9 344.93ZM438.535 344.93C438.659 340.55 437.887 336.19 436.266 332.119C434.988 328.896 432.774 326.13 429.911 324.176C427.022 322.417 423.705 321.486 420.323 321.486C416.94 321.486 413.623 322.417 410.734 324.176C407.877 326.134 405.669 328.9 404.391 332.119C401.38 340.391 401.38 349.458 404.391 357.73C405.665 360.951 407.874 363.718 410.734 365.673C413.62 367.44 416.939 368.374 420.323 368.374C423.706 368.374 427.025 367.44 429.911 365.673C432.777 363.722 434.991 360.954 436.266 357.73C437.887 353.663 438.659 349.307 438.535 344.93Z" fill="#27BEC2"/>
<path d="M206.298 150.309C217.645 86.0597 251.96 58.7123 251.96 58.7123C206.933 88.3633 197.288 152.817 197.288 152.817C172.993 80.6243 230.377 51.4499 252.482 17.2371C236.098 13.7317 219.162 13.6879 202.76 17.1086C186.358 20.5293 170.851 27.3389 157.234 37.1012C143.617 46.8634 132.189 59.3628 123.684 73.7984C115.178 88.234 109.783 104.287 107.842 120.93C105.902 137.572 107.46 154.436 112.417 170.441C117.373 186.446 125.619 201.239 136.625 213.872C147.631 226.505 161.155 236.699 176.331 243.802C191.506 250.904 207.998 254.757 224.749 255.115C175.183 215.966 206.298 150.309 206.298 150.309ZM189.038 185.872C189.038 185.872 179.835 145.021 149.56 128.057C149.56 128.057 172.834 143.943 183.137 184.681C170.655 181.617 142.162 171.45 133.674 141.436C131.255 132.916 130.72 123.972 132.105 115.224C133.491 106.477 136.764 98.1358 141.696 90.7803C149.424 118.003 203.222 130.724 189.038 185.85V185.872Z" fill="#27BEC2"/>
<path d="M288.76 31.5461C282.258 12.2553 259.949 0 259.949 0C268.427 10.8487 274.443 23.4128 277.578 36.82C280.714 50.2271 280.893 64.1561 278.105 77.6396C272.635 104.238 256.715 121.895 240.442 133.367C221.027 147.052 208.227 168.386 206.4 192.057C204.559 214.789 211.522 237.359 225.849 255.103H226.984C253.32 255.131 278.937 246.514 299.903 230.576C320.869 214.637 336.024 192.259 343.043 166.875C350.061 141.491 348.555 114.506 338.755 90.0611C328.955 65.6162 311.403 45.0633 288.794 31.5574L288.76 31.5461ZM294.229 170.984C281.6 213.186 241.112 226.939 223.466 230.99C238.888 173.764 272.079 151.762 272.079 151.762C228.959 175.001 215.126 232.544 215.126 232.544C196.266 154.417 272.533 137.611 283.994 99.3133C290.798 109.802 295.238 121.645 297.006 134.021C298.773 146.398 297.826 159.011 294.229 170.984Z" fill="#27BEC2"/>
</svg>
