<svg width="17" height="18" viewBox="0 0 17 18" fill="none" xmlns="http://www.w3.org/2000/svg">
<path d="M5.16667 4.83333V1.5M11.8333 4.83333V1.5M4.33333 8.16667H12.6667M2.66667 16.5H14.3333C14.7754 16.5 15.1993 16.3244 15.5118 16.0118C15.8244 15.6993 16 15.2754 16 14.8333V4.83333C16 4.39131 15.8244 3.96738 15.5118 3.65482C15.1993 3.34226 14.7754 3.16667 14.3333 3.16667H2.66667C2.22464 3.16667 1.80072 3.34226 1.48816 3.65482C1.17559 3.96738 1 4.39131 1 4.83333V14.8333C1 15.2754 1.17559 15.6993 1.48816 16.0118C1.80072 16.3244 2.22464 16.5 2.66667 16.5Z" stroke="#D2D6DC" stroke-width="2" stroke-linecap="round" stroke-linejoin="round"/>
</svg>
