<svg width="20" height="21" viewBox="0 0 20 21" fill="none" xmlns="http://www.w3.org/2000/svg">
<path d="M2.98816 7.26599C2.67559 7.57855 2.5 8.00247 2.5 8.4445V15.9445C2.5 16.3865 2.67559 16.8104 2.98816 17.123C3.30072 17.4356 3.72464 17.6112 4.16667 17.6112H15.8333C16.2754 17.6112 16.6993 17.4356 17.0118 17.123C17.3244 16.8104 17.5 16.3865 17.5 15.9445V8.4445C17.5 8.00247 17.3244 7.57855 17.0118 7.26599C16.6993 6.95343 16.2754 6.77783 15.8333 6.77783H15.0583C14.784 6.77787 14.5139 6.7102 14.272 6.58082C14.0301 6.45144 13.8239 6.26436 13.6717 6.03617L12.995 5.0195C12.8428 4.7913 12.6365 4.60422 12.3946 4.47484C12.1527 4.34546 11.8827 4.27779 11.6083 4.27783H8.39167C8.11735 4.27779 7.84726 4.34546 7.60536 4.47484C7.36347 4.60422 7.15725 4.7913 7.005 5.0195L6.32833 6.03617C6.17609 6.26436 5.96987 6.45144 5.72797 6.58082C5.48608 6.7102 5.21599 6.77787 4.94167 6.77783H4.16667C3.72464 6.77783 3.30072 6.95343 2.98816 7.26599Z" stroke="#364F6B" stroke-width="2" stroke-linecap="round" stroke-linejoin="round"/>
<path d="M11.7678 13.5456C12.2366 13.0768 12.5 12.4409 12.5 11.7778C12.5 11.1148 12.2366 10.4789 11.7678 10.0101C11.2989 9.54122 10.663 9.27783 10 9.27783C9.33696 9.27783 8.70107 9.54122 8.23223 10.0101C7.76339 10.4789 7.5 11.1148 7.5 11.7778C7.5 12.4409 7.76339 13.0768 8.23223 13.5456C8.70107 14.0144 9.33696 14.2778 10 14.2778C10.663 14.2778 11.2989 14.0144 11.7678 13.5456Z" stroke="#364F6B" stroke-width="2" stroke-linecap="round" stroke-linejoin="round"/>
</svg>
