<svg width="17" height="14" viewBox="0 0 17 14" fill="none" xmlns="http://www.w3.org/2000/svg">
<path fill-rule="evenodd" clip-rule="evenodd" d="M2.5 2C1.96957 2 1.46086 2.21071 1.08579 2.58579C0.710714 2.96086 0.5 3.46957 0.5 4V12C0.5 12.5304 0.710714 13.0391 1.08579 13.4142C1.46086 13.7893 1.96957 14 2.5 14H14.5C15.0304 14 15.5391 13.7893 15.9142 13.4142C16.2893 13.0391 16.5 12.5304 16.5 12V4C16.5 3.46957 16.2893 2.96086 15.9142 2.58579C15.5391 2.21071 15.0304 2 14.5 2H12.914C12.6488 1.99994 12.3945 1.89455 12.207 1.707L11.086 0.586C10.711 0.210901 10.2024 0.000113275 9.672 0H7.328C6.79761 0.000113275 6.28899 0.210901 5.914 0.586L4.793 1.707C4.60551 1.89455 4.35119 1.99994 4.086 2H2.5ZM8.5 11C8.89397 11 9.28407 10.9224 9.64805 10.7716C10.012 10.6209 10.3427 10.3999 10.6213 10.1213C10.8999 9.84274 11.1209 9.51203 11.2716 9.14805C11.4224 8.78407 11.5 8.39397 11.5 8C11.5 7.60603 11.4224 7.21593 11.2716 6.85195C11.1209 6.48797 10.8999 6.15726 10.6213 5.87868C10.3427 5.6001 10.012 5.37913 9.64805 5.22836C9.28407 5.0776 8.89397 5 8.5 5C7.70435 5 6.94129 5.31607 6.37868 5.87868C5.81607 6.44129 5.5 7.20435 5.5 8C5.5 8.79565 5.81607 9.55871 6.37868 10.1213C6.94129 10.6839 7.70435 11 8.5 11Z" fill="white"/>
</svg>
