<svg width="52" height="52" viewBox="0 0 52 52" fill="none" xmlns="http://www.w3.org/2000/svg">
<g filter="url(#filter0_d_2769_24076)">
<rect x="4" y="2" width="44" height="44" rx="22" fill="#EB8B76"/>
<path d="M25.1666 18.9997C26.3166 18.9997 27.3583 19.4663 28.1166 20.2163L26.7083 21.6247C26.4499 21.883 26.6333 22.333 27.0083 22.333H30.5833C30.8166 22.333 30.9999 22.1497 30.9999 21.9163V18.3413C30.9999 17.9663 30.5499 17.783 30.2916 18.0497L29.2916 19.0497C28.2333 17.983 26.7749 17.333 25.1666 17.333C22.6333 17.333 20.4833 18.9497 19.6833 21.1997C19.4833 21.7497 19.8749 22.333 20.4583 22.333C20.8083 22.333 21.1166 22.1163 21.2333 21.783C21.7999 20.1663 23.3499 18.9997 25.1666 18.9997ZM29.8666 26.6163C30.1999 26.1663 30.4666 25.658 30.6583 25.1163C30.8499 24.5747 30.4499 23.9997 29.8749 23.9997C29.5249 23.9997 29.2166 24.2163 29.0999 24.5497C28.5333 26.1663 26.9833 27.333 25.1666 27.333C24.0166 27.333 22.9749 26.8663 22.2166 26.1163L23.6249 24.708C23.8833 24.4497 23.6999 23.9997 23.3249 23.9997H19.7499C19.5166 23.9997 19.3333 24.183 19.3333 24.4163V27.9913C19.3333 28.3663 19.7833 28.5497 20.0416 28.283L21.0416 27.283C22.0999 28.3497 23.5583 28.9997 25.1666 28.9997C26.4583 28.9997 27.6499 28.5747 28.6166 27.8663L32.0416 31.2913C32.3833 31.633 32.9416 31.633 33.2833 31.2913C33.6249 30.9497 33.6249 30.3913 33.2833 30.0497L29.8666 26.6163Z" fill="#F8F8F8"/>
</g>
<defs>
<filter id="filter0_d_2769_24076" x="0" y="0" width="52" height="52" filterUnits="userSpaceOnUse" color-interpolation-filters="sRGB">
<feFlood flood-opacity="0" result="BackgroundImageFix"/>
<feColorMatrix in="SourceAlpha" type="matrix" values="0 0 0 0 0 0 0 0 0 0 0 0 0 0 0 0 0 0 127 0" result="hardAlpha"/>
<feOffset dy="2"/>
<feGaussianBlur stdDeviation="2"/>
<feComposite in2="hardAlpha" operator="out"/>
<feColorMatrix type="matrix" values="0 0 0 0 0 0 0 0 0 0 0 0 0 0 0 0 0 0 0.05 0"/>
<feBlend mode="normal" in2="BackgroundImageFix" result="effect1_dropShadow_2769_24076"/>
<feBlend mode="normal" in="SourceGraphic" in2="effect1_dropShadow_2769_24076" result="shape"/>
</filter>
</defs>
</svg>
