<svg width="20" height="21" viewBox="0 0 20 21" fill="none" xmlns="http://www.w3.org/2000/svg">
<path d="M7 10.7805L9 12.7805L13 8.78052M19 10.7805C19 11.9624 18.7672 13.1327 18.3149 14.2247C17.8626 15.3166 17.1997 16.3088 16.364 17.1445C15.5282 17.9802 14.5361 18.6431 13.4442 19.0954C12.3522 19.5477 11.1819 19.7805 10 19.7805C8.8181 19.7805 7.64778 19.5477 6.55585 19.0954C5.46392 18.6431 4.47177 17.9802 3.63604 17.1445C2.80031 16.3088 2.13738 15.3166 1.68508 14.2247C1.23279 13.1327 1 11.9624 1 10.7805C1 8.39357 1.94821 6.10438 3.63604 4.41656C5.32387 2.72873 7.61305 1.78052 10 1.78052C12.3869 1.78052 14.6761 2.72873 16.364 4.41656C18.0518 6.10438 19 8.39357 19 10.7805Z" stroke="#707882" stroke-width="2" stroke-linecap="round" stroke-linejoin="round"/>
</svg>
