<svg width="20" height="21" viewBox="0 0 20 21" fill="none" xmlns="http://www.w3.org/2000/svg">
<path fill-rule="evenodd" clip-rule="evenodd" d="M10 18.25C12.1217 18.25 14.1566 17.4071 15.6569 15.9069C17.1571 14.4066 18 12.3717 18 10.25C18 8.12827 17.1571 6.09344 15.6569 4.59315C14.1566 3.09285 12.1217 2.25 10 2.25C7.87827 2.25 5.84344 3.09285 4.34315 4.59315C2.84285 6.09344 2 8.12827 2 10.25C2 12.3717 2.84285 14.4066 4.34315 15.9069C5.84344 17.4071 7.87827 18.25 10 18.25V18.25ZM13.707 8.957C13.8892 8.7684 13.99 8.5158 13.9877 8.2536C13.9854 7.9914 13.8802 7.74059 13.6948 7.55518C13.5094 7.36977 13.2586 7.2646 12.9964 7.26233C12.7342 7.26005 12.4816 7.36084 12.293 7.543L9 10.836L7.707 9.543C7.5184 9.36084 7.2658 9.26005 7.0036 9.26233C6.7414 9.2646 6.49059 9.36977 6.30518 9.55518C6.11977 9.74059 6.0146 9.9914 6.01233 10.2536C6.01005 10.5158 6.11084 10.7684 6.293 10.957L8.293 12.957C8.48053 13.1445 8.73484 13.2498 9 13.2498C9.26516 13.2498 9.51947 13.1445 9.707 12.957L13.707 8.957V8.957Z" fill="#28B3BB"/>
</svg>
