<svg width="12" height="12" viewBox="0 0 12 12" fill="none" xmlns="http://www.w3.org/2000/svg">
<path d="M4.7998 1.8002C4.7998 1.64107 4.86302 1.48845 4.97554 1.37593C5.08806 1.26341 5.24067 1.2002 5.3998 1.2002H6.5998C6.75893 1.2002 6.91155 1.26341 7.02407 1.37593C7.13659 1.48845 7.1998 1.64107 7.1998 1.8002C7.1998 1.95933 7.13659 2.11194 7.02407 2.22446C6.91155 2.33698 6.75893 2.4002 6.5998 2.4002H5.3998C5.24067 2.4002 5.08806 2.33698 4.97554 2.22446C4.86302 2.11194 4.7998 1.95933 4.7998 1.8002Z" fill="#364F6B"/>
<path d="M3.5999 1.7998C3.28164 1.7998 2.97642 1.92623 2.75137 2.15128C2.52633 2.37632 2.3999 2.68154 2.3999 2.9998V9.5998C2.3999 9.91807 2.52633 10.2233 2.75137 10.4483C2.97642 10.6734 3.28164 10.7998 3.5999 10.7998H8.3999C8.71816 10.7998 9.02339 10.6734 9.24843 10.4483C9.47347 10.2233 9.5999 9.91807 9.5999 9.5998V2.9998C9.5999 2.68154 9.47347 2.37632 9.24843 2.15128C9.02339 1.92623 8.71816 1.7998 8.3999 1.7998C8.3999 2.27719 8.21026 2.73503 7.87269 3.0726C7.53513 3.41016 7.07729 3.5998 6.5999 3.5998H5.3999C4.92251 3.5998 4.46468 3.41016 4.12711 3.0726C3.78954 2.73503 3.5999 2.27719 3.5999 1.7998Z" fill="#364F6B"/>
</svg>
