<svg width="40" height="40" viewBox="0 0 40 40" fill="none" xmlns="http://www.w3.org/2000/svg">
<path d="M30.5 9.51686C29.85 8.86686 28.8 8.86686 28.15 9.51686L20 17.6502L11.85 9.5002C11.2 8.8502 10.15 8.8502 9.49995 9.5002C8.84995 10.1502 8.84995 11.2002 9.49995 11.8502L17.65 20.0002L9.49995 28.1502C8.84995 28.8002 8.84995 29.8502 9.49995 30.5002C10.15 31.1502 11.2 31.1502 11.85 30.5002L20 22.3502L28.15 30.5002C28.8 31.1502 29.85 31.1502 30.5 30.5002C31.15 29.8502 31.15 28.8002 30.5 28.1502L22.35 20.0002L30.5 11.8502C31.1333 11.2169 31.1333 10.1502 30.5 9.51686Z" fill="white"/>
</svg>
