<svg width="14" height="11" viewBox="0 0 14 11" fill="none" xmlns="http://www.w3.org/2000/svg">
    <path d="M12.0362 4.45191C11.6087 4.30555 11.2379 3.98759 11.0744 3.56633C10.4399 1.93178 8.85588 0.777588 7 0.777588C5.50577 0.777588 4.18568 1.52915 3.39718 2.67484C3.20724 2.95083 2.9175 3.14557 2.59374 3.23174C1.09925 3.6295 0 4.99337 0 6.61092C0 8.54176 1.56917 10.1109 3.5 10.1109H11.0833C12.6933 10.1109 14 8.80425 14 7.19425C14 5.91878 13.1797 4.84338 12.0362 4.45191ZM8.67978 6.02759C8.3964 6.02759 8.16667 6.25732 8.16667 6.5407V7.36092C8.16667 7.91321 7.71895 8.36092 7.16667 8.36092H6.83333C6.28105 8.36092 5.83333 7.91321 5.83333 7.36092V6.54015C5.83333 6.25707 5.60385 6.02759 5.32077 6.02759C4.86413 6.02759 4.63544 5.47548 4.95833 5.15259L6.79583 3.31509C6.9125 3.19842 7.09333 3.19842 7.21 3.31509L9.043 5.15204C9.36571 5.47544 9.13665 6.02759 8.67978 6.02759Z" fill="#364F6B" />
</svg>
    