<svg width="14" height="15" viewBox="0 0 14 15" fill="none" xmlns="http://www.w3.org/2000/svg">
    <g clip-path="url(#clip0_5931_12981)">
        <path d="M12.0362 6.45216C11.6087 6.30579 11.2379 5.98784 11.0744 5.56657C10.4399 3.93202 8.85588 2.77783 7 2.77783C5.50577 2.77783 4.18568 3.5294 3.39718 4.67508C3.20724 4.95107 2.9175 5.14581 2.59374 5.23198C1.09925 5.62974 0 6.99362 0 8.61117C0 10.542 1.56917 12.1112 3.5 12.1112H11.0833C12.6933 12.1112 14 10.8045 14 9.1945C14 7.91902 13.1797 6.84362 12.0362 6.45216ZM8.67978 8.02783C8.3964 8.02783 8.16667 8.25756 8.16667 8.54095V9.36117C8.16667 9.91345 7.71895 10.3612 7.16667 10.3612H6.83333C6.28105 10.3612 5.83333 9.91345 5.83333 9.36117V8.5404C5.83333 8.25731 5.60385 8.02783 5.32077 8.02783C4.86413 8.02783 4.63544 7.47573 4.95833 7.15283L6.79583 5.31533C6.9125 5.19867 7.09333 5.19867 7.21 5.31533L9.043 7.15228C9.36571 7.47569 9.13665 8.02783 8.67978 8.02783Z" fill="#364F6B"/>
    </g>
    <defs>
        <clipPath id="clip0_5931_12981">
            <rect width="14" height="14" fill="white" transform="translate(0 0.444336)"/>
        </clipPath>
    </defs>
</svg>