<svg width="24" height="25" viewBox="0 0 24 25" fill="none" xmlns="http://www.w3.org/2000/svg">
<path d="M19 3.44458H5C3.9 3.44458 3 4.34458 3 5.44458V19.4446C3 20.5446 3.9 21.4446 5 21.4446H19C20.1 21.4446 21 20.5446 21 19.4446V5.44458C21 4.34458 20.1 3.44458 19 3.44458ZM18 19.4446H6C5.45 19.4446 5 18.9946 5 18.4446V6.44458C5 5.89458 5.45 5.44458 6 5.44458H18C18.55 5.44458 19 5.89458 19 6.44458V18.4446C19 18.9946 18.55 19.4446 18 19.4446ZM13.56 13.2546L11.21 16.2746L9.65 14.3946C9.45 14.1446 9.07 14.1546 8.87 14.4046L7.13 16.6346C6.87 16.9646 7.11 17.4446 7.52 17.4446H16.5C16.91 17.4446 17.15 16.9746 16.9 16.6446L14.35 13.2546C14.16 12.9946 13.76 12.9946 13.56 13.2546Z" fill="#364F6B"/>
</svg>
