<svg width="24" height="24" viewBox="0 0 24 24" fill="none" xmlns="http://www.w3.org/2000/svg">
<g clip-path="url(#clip0)">
<path d="M11.9999 0C9.41389 0 7.31055 2.10392 7.31055 4.68995V7.11969C7.31055 9.70591 9.41389 11.8098 11.9999 11.8098C14.5861 11.8098 16.6893 9.70591 16.6893 7.11969V4.68995C16.6893 2.10392 14.5861 0 11.9999 0Z" fill="#E5E7EB"/>
<path d="M22.3417 17.9212C20.8401 15.3623 18.4399 13.4651 15.5834 12.5793C15.5171 12.5587 15.4455 12.5762 15.3962 12.625C14.0673 13.9352 12.4162 14.9574 12.0034 15.2043C11.5627 14.9226 9.70668 13.7128 8.60326 12.625C8.55411 12.5762 8.48192 12.5587 8.41606 12.5793C5.55912 13.4653 3.15914 15.3625 1.6581 17.9214C1.62373 17.98 1.62373 18.0528 1.6581 18.1113C3.78967 21.7435 7.75232 23.9999 11.9997 23.9999C16.2473 23.9999 20.2101 21.7435 22.3417 18.1113C22.3763 18.0526 22.3763 17.9798 22.3417 17.9212ZM18.3777 19.3201C18.3777 19.4236 18.2792 19.5027 18.1759 19.5027H16.9059C16.8024 19.5027 16.6895 19.5916 16.6895 19.6953V21.0088C16.6895 21.1121 16.6342 21.191 16.5307 21.191H15.39C15.2865 21.191 15.189 21.1121 15.189 21.0088V19.6953C15.1886 19.5918 15.118 19.5027 15.0145 19.5027H13.6897C13.5862 19.5027 13.5006 19.4234 13.5006 19.3201V18.1893C13.5006 18.0858 13.5862 18.0023 13.6897 18.0023H15.0145C15.118 18.0023 15.1886 17.9178 15.1886 17.8141V16.4991C15.1886 16.3956 15.2862 16.314 15.3896 16.314H16.518C16.6213 16.314 16.6893 16.3956 16.6893 16.4991V17.8179C16.6893 17.9216 16.7895 18.0021 16.8932 18.0021H18.1759C18.2792 18.0021 18.3777 18.0896 18.3777 18.1931V19.3201Z" fill="#E5E7EB"/>
</g>
<defs>
<clipPath id="clip0">
<rect width="24" height="24" fill="white"/>
</clipPath>
</defs>
</svg>
