<svg width="4" height="18" viewBox="0 0 4 18" fill="none" xmlns="http://www.w3.org/2000/svg">
<path d="M2 2V2.01M2 9V9.01M2 16V16.01M2 3C1.73478 3 1.48043 2.89464 1.29289 2.70711C1.10536 2.51957 1 2.26522 1 2C1 1.73478 1.10536 1.48043 1.29289 1.29289C1.48043 1.10536 1.73478 1 2 1C2.26522 1 2.51957 1.10536 2.70711 1.29289C2.89464 1.48043 3 1.73478 3 2C3 2.26522 2.89464 2.51957 2.70711 2.70711C2.51957 2.89464 2.26522 3 2 3ZM2 10C1.73478 10 1.48043 9.89464 1.29289 9.70711C1.10536 9.51957 1 9.26522 1 9C1 8.73478 1.10536 8.48043 1.29289 8.29289C1.48043 8.10536 1.73478 8 2 8C2.26522 8 2.51957 8.10536 2.70711 8.29289C2.89464 8.48043 3 8.73478 3 9C3 9.26522 2.89464 9.51957 2.70711 9.70711C2.51957 9.89464 2.26522 10 2 10ZM2 17C1.73478 17 1.48043 16.8946 1.29289 16.7071C1.10536 16.5196 1 16.2652 1 16C1 15.7348 1.10536 15.4804 1.29289 15.2929C1.48043 15.1054 1.73478 15 2 15C2.26522 15 2.51957 15.1054 2.70711 15.2929C2.89464 15.4804 3 15.7348 3 16C3 16.2652 2.89464 16.5196 2.70711 16.7071C2.51957 16.8946 2.26522 17 2 17Z" stroke="white" stroke-width="2" stroke-linecap="round" stroke-linejoin="round"/>
</svg>
