<svg width="98" height="98" viewBox="0 0 98 98" fill="none" xmlns="http://www.w3.org/2000/svg">
<path d="M24.5 15.3125V10.1185C24.5 7.90737 26.2089 6.125 28.3281 6.125C30.4474 6.125 32.1562 7.90737 32.1562 10.1185V15.3125H24.5ZM62.7812 58.8C62.7812 58.2314 63.0071 57.6862 63.4091 57.2841C63.8112 56.8821 64.3564 56.6562 64.925 56.6562H72.8875C73.4561 56.6562 74.0013 56.8821 74.4034 57.2841C74.8054 57.6862 75.0312 58.2314 75.0312 58.8V66.7625C75.0312 67.3311 74.8054 67.8763 74.4034 68.2784C74.0013 68.6804 73.4561 68.9062 72.8875 68.9062H64.925C64.3564 68.9062 63.8112 68.6804 63.4091 68.2784C63.0071 67.8763 62.7812 67.3311 62.7812 66.7625V58.8ZM22.9688 43.4875C22.9688 42.9189 23.1946 42.3737 23.5966 41.9716C23.9987 41.5696 24.5439 41.3438 25.1125 41.3438H33.075C33.6436 41.3438 34.1888 41.5696 34.5909 41.9716C34.9929 42.3737 35.2188 42.9189 35.2188 43.4875V51.45C35.2188 52.0186 34.9929 52.5638 34.5909 52.9659C34.1888 53.3679 33.6436 53.5938 33.075 53.5938H25.1125C24.5439 53.5938 23.9987 53.3679 23.5966 52.9659C23.1946 52.5638 22.9688 52.0186 22.9688 51.45V43.4875ZM26.0312 44.4062V50.5312H32.1562V44.4062H26.0312ZM42.875 43.4875C42.875 42.9189 43.1009 42.3737 43.5029 41.9716C43.9049 41.5696 44.4502 41.3438 45.0187 41.3438H52.9812C53.5498 41.3438 54.0951 41.5696 54.4971 41.9716C54.8991 42.3737 55.125 42.9189 55.125 43.4875V51.45C55.125 52.0186 54.8991 52.5638 54.4971 52.9659C54.0951 53.3679 53.5498 53.5938 52.9812 53.5938H45.0187C44.4502 53.5938 43.9049 53.3679 43.5029 52.9659C43.1009 52.5638 42.875 52.0186 42.875 51.45V43.4875ZM45.9375 44.4062V50.5312H52.0625V44.4062H45.9375ZM62.7812 43.4875C62.7812 42.9189 63.0071 42.3737 63.4091 41.9716C63.8112 41.5696 64.3564 41.3438 64.925 41.3438H72.8875C73.4561 41.3438 74.0013 41.5696 74.4034 41.9716C74.8054 42.3737 75.0312 42.9189 75.0312 43.4875V51.45C75.0312 52.0186 74.8054 52.5638 74.4034 52.9659C74.0013 53.3679 73.4561 53.5938 72.8875 53.5938H64.925C64.3564 53.5938 63.8112 53.3679 63.4091 52.9659C63.0071 52.5638 62.7812 52.0186 62.7812 51.45V43.4875ZM65.8438 44.4062V50.5312H71.9688V44.4062H65.8438ZM22.9688 58.8C22.9688 58.2314 23.1946 57.6862 23.5966 57.2841C23.9987 56.8821 24.5439 56.6562 25.1125 56.6562H33.075C33.6436 56.6562 34.1888 56.8821 34.5909 57.2841C34.9929 57.6862 35.2188 58.2314 35.2188 58.8V66.7625C35.2188 67.3311 34.9929 67.8763 34.5909 68.2784C34.1888 68.6804 33.6436 68.9062 33.075 68.9062H25.1125C24.5439 68.9062 23.9987 68.6804 23.5966 68.2784C23.1946 67.8763 22.9688 67.3311 22.9688 66.7625V58.8ZM26.0312 59.7188V65.8438H32.1562V59.7188H26.0312ZM42.875 58.8C42.875 58.2314 43.1009 57.6862 43.5029 57.2841C43.9049 56.8821 44.4502 56.6562 45.0187 56.6562H52.9812C53.5498 56.6562 54.0951 56.8821 54.4971 57.2841C54.8991 57.6862 55.125 58.2314 55.125 58.8V66.7625C55.125 67.3311 54.8991 67.8763 54.4971 68.2784C54.0951 68.6804 53.5498 68.9062 52.9812 68.9062H45.0187C44.4502 68.9062 43.9049 68.6804 43.5029 68.2784C43.1009 67.8763 42.875 67.3311 42.875 66.7625V58.8ZM45.9375 59.7188V65.8438H52.0625V59.7188H45.9375ZM22.9688 74.1125C22.9688 73.5439 23.1946 72.9987 23.5966 72.5966C23.9987 72.1946 24.5439 71.9688 25.1125 71.9688H33.075C33.6436 71.9688 34.1888 72.1946 34.5909 72.5966C34.9929 72.9987 35.2188 73.5439 35.2188 74.1125V82.075C35.2188 82.6436 34.9929 83.1888 34.5909 83.5909C34.1888 83.9929 33.6436 84.2188 33.075 84.2188H25.1125C24.5439 84.2188 23.9987 83.9929 23.5966 83.5909C23.1946 83.1888 22.9688 82.6436 22.9688 82.075V74.1125ZM26.0312 75.0312V81.1562H32.1562V75.0312H26.0312ZM42.875 74.1125C42.875 73.5439 43.1009 72.9987 43.5029 72.5966C43.9049 72.1946 44.4502 71.9688 45.0187 71.9688H52.9812C53.5498 71.9688 54.0951 72.1946 54.4971 72.5966C54.8991 72.9987 55.125 73.5439 55.125 74.1125V82.075C55.125 82.6436 54.8991 83.1888 54.4971 83.5909C54.0951 83.9929 53.5498 84.2188 52.9812 84.2188H45.0187C44.4502 84.2188 43.9049 83.9929 43.5029 83.5909C43.1009 83.1888 42.875 82.6436 42.875 82.075V74.1125ZM45.9375 75.0312V81.1562H52.0625V75.0312H45.9375Z" fill="#EB8B76"/>
<path d="M24.5 20.5065C24.5 22.7176 26.2089 24.5 28.3281 24.5C30.4474 24.5 32.1562 22.7176 32.1562 20.5065V15.3125H65.8438V20.5065C65.8438 22.7176 67.5526 24.5 69.6719 24.5C71.7911 24.5 73.5 22.7176 73.5 20.5065V15.3125H83.4256C89.7649 15.3125 94.9375 20.4912 94.9375 26.9041V80.36C94.9375 88.3837 88.4297 94.9375 80.3631 94.9375H17.64C13.7758 94.931 10.0717 93.3931 7.33931 90.6607C4.6069 87.9283 3.06898 84.2242 3.0625 80.36V26.9041C3.0625 20.4912 8.23812 15.2819 14.5744 15.3125H24.5V20.5065ZM9.1875 33.6875V80.36C9.19396 82.5992 10.0861 84.7449 11.6692 86.3286C13.2523 87.9123 15.3977 88.8052 17.6369 88.8125H68.9369V84.2188H64.925C64.3564 84.2188 63.8112 83.9929 63.4091 83.5909C63.0071 83.1888 62.7812 82.6436 62.7812 82.075V74.1125C62.7812 73.5439 63.0071 72.9987 63.4091 72.5966C63.8112 72.1946 64.3564 71.9687 64.925 71.9687H72.8875C73.0949 71.9686 73.3012 71.9985 73.5 72.0576C75.8583 70.0239 78.869 68.9055 81.9831 68.9062H88.8125V33.6875H9.1875ZM68.9706 80.9939C69.1252 78.8758 69.7983 76.8281 70.9306 75.0312H65.8438V81.1562H68.9614L68.9706 80.9939ZM71.9994 88.1786L88.2092 71.9687H81.9831C79.3378 71.9768 76.803 73.0313 74.9325 74.9018C73.0619 76.7724 72.0075 79.3071 71.9994 81.9525V88.1786Z" fill="#A0AEC0"/>
<path d="M65.8438 10.1185V15.3125H73.5V10.1185C73.5 7.90737 71.7911 6.125 69.6719 6.125C67.5526 6.125 65.8438 7.90737 65.8438 10.1185Z" fill="#EB8B76"/>
</svg>
