<svg width="250" height="200" viewBox="0 0 250 200" fill="none" xmlns="http://www.w3.org/2000/svg">
<rect width="250" height="200" fill="#F8F8F8"/>
<path d="M125 165C160.899 165 190 135.899 190 100C190 64.1015 160.899 35 125 35C89.1015 35 60 64.1015 60 100C60 135.899 89.1015 165 125 165Z" fill="#E2E8F0"/>
<path d="M143.375 109.188H149.5V124.5H143.375V109.188Z" fill="#EB8B76"/>
<path d="M146.438 145.938C141.592 145.938 136.855 144.501 132.826 141.809C128.797 139.116 125.657 135.29 123.802 130.813C121.948 126.336 121.463 121.41 122.408 116.658C123.354 111.905 125.687 107.54 129.113 104.113C132.54 100.687 136.905 98.3536 141.658 97.4083C146.41 96.4629 151.336 96.9481 155.813 98.8025C160.29 100.657 164.116 103.797 166.809 107.826C169.501 111.855 170.938 116.592 170.938 121.438C170.938 127.935 168.356 134.167 163.762 138.762C159.167 143.356 152.935 145.938 146.438 145.938ZM146.438 103.063C142.803 103.063 139.251 104.14 136.229 106.159C133.207 108.178 130.852 111.048 129.461 114.406C128.07 117.763 127.707 121.458 128.416 125.022C129.125 128.587 130.875 131.861 133.444 134.431C136.014 137 139.288 138.75 142.853 139.459C146.417 140.168 150.112 139.805 153.469 138.414C156.827 137.023 159.697 134.668 161.716 131.646C163.735 128.624 164.813 125.072 164.813 121.438C164.813 116.564 162.877 111.89 159.431 108.444C155.985 104.998 151.311 103.063 146.438 103.063Z" fill="#EB8B76"/>
<path d="M146.438 133.688C148.129 133.688 149.5 132.316 149.5 130.625C149.5 128.934 148.129 127.562 146.438 127.562C144.746 127.562 143.375 128.934 143.375 130.625C143.375 132.316 144.746 133.688 146.438 133.688Z" fill="#EB8B76"/>
<path d="M137.25 57.125H88.25C86.6255 57.125 85.0676 57.7703 83.919 58.919C82.7703 60.0676 82.125 61.6255 82.125 63.25V75.5C82.125 77.1245 82.7703 78.6824 83.919 79.831C85.0676 80.9797 86.6255 81.625 88.25 81.625V136.75C88.25 138.374 88.8953 139.932 90.044 141.081C91.1926 142.23 92.7505 142.875 94.375 142.875H118.875V136.75H94.375V130.625H109.688V87.75H94.375V81.625H131.125V90.8125H137.25V81.625C138.874 81.625 140.432 80.9797 141.581 79.831C142.73 78.6824 143.375 77.1245 143.375 75.5V63.25C143.375 61.6255 142.73 60.0676 141.581 58.919C140.432 57.7703 138.874 57.125 137.25 57.125ZM103.562 93.875V124.5H94.375V93.875H103.562ZM88.25 75.5V63.25H137.25V75.5H88.25Z" fill="#A0AEC0"/>
</svg>
