<svg width="98" height="98" viewBox="0 0 98 98" fill="none" xmlns="http://www.w3.org/2000/svg">
<path d="M67.375 58.1875H73.5V73.5H67.375V58.1875Z" fill="#EB8B76"/>
<path d="M70.4375 94.9375C65.5919 94.9375 60.855 93.5006 56.826 90.8085C52.797 88.1164 49.6568 84.29 47.8025 79.8132C45.9481 75.3365 45.4629 70.4103 46.4083 65.6578C47.3536 60.9052 49.687 56.5398 53.1134 53.1134C56.5398 49.687 60.9053 47.3536 65.6578 46.4083C70.4103 45.4629 75.3365 45.9481 79.8133 47.8024C84.29 49.6568 88.1164 52.797 90.8085 56.826C93.5006 60.855 94.9375 65.5919 94.9375 70.4375C94.9375 76.9353 92.3563 83.167 87.7616 87.7616C83.167 92.3563 76.9353 94.9375 70.4375 94.9375ZM70.4375 52.0625C66.8033 52.0625 63.2507 53.1402 60.2289 55.1592C57.2072 57.1783 54.852 60.0481 53.4612 63.4057C52.0705 66.7633 51.7066 70.4579 52.4156 74.0223C53.1246 77.5867 54.8746 80.8608 57.4444 83.4306C60.0142 86.0004 63.2883 87.7504 66.8527 88.4594C70.4171 89.1684 74.1117 88.8045 77.4693 87.4138C80.8269 86.023 83.6967 83.6679 85.7158 80.6461C87.7348 77.6243 88.8125 74.0717 88.8125 70.4375C88.8125 65.5641 86.8766 60.8904 83.4306 57.4444C79.9846 53.9984 75.3109 52.0625 70.4375 52.0625Z" fill="#EB8B76"/>
<path d="M70.4375 82.6875C72.1289 82.6875 73.5 81.3164 73.5 79.625C73.5 77.9336 72.1289 76.5625 70.4375 76.5625C68.7461 76.5625 67.375 77.9336 67.375 79.625C67.375 81.3164 68.7461 82.6875 70.4375 82.6875Z" fill="#EB8B76"/>
<path d="M61.25 6.125H12.25C10.6255 6.125 9.06763 6.77031 7.91897 7.91897C6.77031 9.06763 6.125 10.6255 6.125 12.25V24.5C6.125 26.1245 6.77031 27.6824 7.91897 28.831C9.06763 29.9797 10.6255 30.625 12.25 30.625V85.75C12.25 87.3745 12.8953 88.9324 14.044 90.081C15.1926 91.2297 16.7505 91.875 18.375 91.875H42.875V85.75H18.375V79.625H33.6875V36.75H18.375V30.625H55.125V39.8125H61.25V30.625C62.8745 30.625 64.4324 29.9797 65.581 28.831C66.7297 27.6824 67.375 26.1245 67.375 24.5V12.25C67.375 10.6255 66.7297 9.06763 65.581 7.91897C64.4324 6.77031 62.8745 6.125 61.25 6.125ZM27.5625 42.875V73.5H18.375V42.875H27.5625ZM12.25 24.5V12.25H61.25V24.5H12.25Z" fill="#A0AEC0"/>
</svg>
