<svg width="84" height="79" viewBox="0 0 84 79" fill="none" xmlns="http://www.w3.org/2000/svg">
<path d="M42.0005 37.3977C35.2557 37.3977 29.7372 42.9162 29.7372 49.661C29.7372 56.4059 35.2557 61.9244 42.0005 61.9244C48.7453 61.9244 54.2638 56.4059 54.2638 49.661C54.2638 42.9162 48.7453 37.3977 42.0005 37.3977ZM42.0005 59.4717C36.5924 59.4717 32.1898 55.0692 32.1898 49.661C32.1898 44.2529 36.5924 39.8504 42.0005 39.8504C47.4086 39.8504 51.8112 44.2529 51.8112 49.661C51.8112 55.0692 47.4086 59.4717 42.0005 59.4717ZM42.6137 43.5294H40.7742V50.8874L47.1511 54.8116L48.1322 53.2174L42.6137 49.9063V43.5294Z" fill="#EB8B76"/>
<path d="M7.3125 24.7839C7.3125 21.3007 10.1362 18.4771 13.6194 18.4771H70.3811C73.8642 18.4771 76.6879 21.3007 76.6879 24.7839V28.2877H7.3125V24.7839Z" fill="#A0AEC0"/>
<path fill-rule="evenodd" clip-rule="evenodd" d="M62.6732 14.9734V17.9166C62.6732 18.1089 62.6437 18.2965 62.5876 18.4772H70.3813C73.8644 18.4772 76.6881 21.3009 76.6881 24.784V65.4282C76.6881 68.9114 73.8644 71.7351 70.3812 71.7351H13.6196C10.1364 71.7351 7.31271 68.9114 7.31271 65.4282V24.784C7.31271 21.3009 10.1364 18.4772 13.6196 18.4772H24.2166C24.1606 18.2965 24.1311 18.1089 24.1311 17.9166V14.9734H13.6196C8.20129 14.9734 3.8089 19.3658 3.8089 24.784V65.4282C3.8089 70.8465 8.20127 75.2389 13.6196 75.2389H70.3812C75.7995 75.2389 80.1919 70.8465 80.1919 65.4282V24.784C80.1919 19.3658 75.7995 14.9734 70.3813 14.9734H62.6732ZM54.9648 14.9734V17.9166C54.9648 18.1089 54.9943 18.2965 55.0504 18.4772H31.7539C31.81 18.2965 31.8395 18.1089 31.8395 17.9166V14.9734H54.9648Z" fill="#A0AEC0"/>
</svg>
