<svg width="64" height="141" viewBox="0 0 64 141" fill="none" xmlns="http://www.w3.org/2000/svg">
<path d="M24.4759 135.965L28.0139 136.363L29.3186 128.34L25.7806 127.941L24.4759 135.965Z" fill="#FFC3BD"/>
<path d="M8.63566 136.738H12.1685L13.0483 128.557H9.51548L8.63566 136.738Z" fill="#FFC3BD"/>
<path d="M12.4592 136.327H8.15252C8.08243 136.327 8.01444 136.351 7.95974 136.395C7.90504 136.439 7.8669 136.5 7.85156 136.568L7.15387 139.708C7.13752 139.785 7.13863 139.864 7.15716 139.94C7.17569 140.016 7.21115 140.087 7.26088 140.148C7.3106 140.208 7.37332 140.256 7.44436 140.289C7.5154 140.322 7.59293 140.338 7.67116 140.337C9.05712 140.313 10.0652 140.232 11.8128 140.232C12.8867 140.232 16.1254 140.343 17.608 140.343C19.0615 140.343 19.2847 138.877 18.6776 138.744C15.9553 138.146 13.9041 137.327 13.0346 136.544C12.8763 136.403 12.6713 136.325 12.4592 136.327Z" fill="#263238"/>
<path d="M28.0715 135.757L24.2377 135.323C24.168 135.315 24.0976 135.331 24.0382 135.368C23.9788 135.405 23.9339 135.462 23.911 135.528L22.8637 138.569C22.8372 138.643 22.828 138.722 22.8366 138.799C22.8453 138.877 22.8715 138.952 22.9134 139.018C22.9553 139.084 23.0118 139.139 23.0784 139.18C23.1451 139.221 23.2202 139.246 23.298 139.253C24.6831 139.387 26.6907 139.532 28.428 139.73C30.4604 139.96 30.7989 140.504 33.1964 140.449C34.6499 140.414 35.0141 138.94 34.4045 138.824C31.6274 138.285 31.0905 137.865 28.8837 136.133C28.6532 135.934 28.3719 135.804 28.0715 135.757Z" fill="#263238"/>
<path d="M21.4978 29.9074C22.0057 33.247 29.0373 38.3557 29.0373 38.3557L34.0818 32.0945C31.872 29.7361 29.5288 27.5064 27.0639 25.4161C24.7939 23.5607 20.9455 26.2736 21.4978 29.9074Z" fill="#98A2B3"/>
<path opacity="0.2" d="M29.3169 128.342L28.6449 132.478L25.106 132.08L25.778 127.944L29.3169 128.342Z" fill="black"/>
<path opacity="0.2" d="M9.51375 128.557H13.0483L12.5935 132.774H9.05888L9.51375 128.557Z" fill="black"/>
<path d="M9.46327 25.5226C9.20013 25.5816 8.95145 25.6927 8.73187 25.8492C8.51229 26.0058 8.32623 26.2047 8.18465 26.4342C8.04308 26.6637 7.94884 26.9192 7.9075 27.1857C7.86616 27.4522 7.87855 27.7243 7.94392 27.9859C8.71053 31.1678 9.28836 34.3922 9.67444 37.6423C10.0087 40.3783 10.2088 42.9921 10.3336 45.3613C10.6269 50.9145 10.5047 55.1476 10.6705 56.5823C13.433 56.3908 23.8436 55.6666 29.5199 55.2699C31.436 40.2697 29.1908 30.6971 27.9296 26.8077C27.7365 26.2016 27.3752 25.6629 26.8878 25.2542C26.4004 24.8455 25.807 24.5837 25.1765 24.4992C24.4532 24.4043 23.5879 24.3128 22.6748 24.2589C22.355 24.2384 22.031 24.2273 21.7009 24.2205C19.0211 24.2522 16.3454 24.4383 13.687 24.7779C13.1825 24.8378 12.6729 24.9122 12.177 24.9917C11.1861 25.1575 10.2439 25.3482 9.46327 25.5226Z" fill="#D0D5DD"/>
<path d="M13.8505 15.7039C14.5345 18.2466 15.3707 22.9355 13.6863 24.7823C18.0554 27.7209 20.8444 31.8583 21.649 30.9597C22.0705 30.4894 22.2535 25.0473 21.6994 24.2231C18.7762 23.7375 18.7018 21.5991 19.0626 19.5608L13.8505 15.7039Z" fill="#FFC3BD"/>
<path opacity="0.2" d="M15.9752 17.2778L19.0601 19.559C18.9687 20.0337 18.9192 20.5155 18.9121 20.9988C17.8006 20.9133 16.2103 19.8163 16.0128 18.6749C15.9159 18.2153 15.9032 17.742 15.9752 17.2778Z" fill="black"/>
<path d="M21.0377 19.9066C20.2329 19.9158 19.4318 19.7965 18.6646 19.5532C18.4169 19.4628 19.5126 19.1548 19.5126 19.1548C19.5126 19.1548 21.5962 18.3793 22.5133 17.3705C23.8826 15.8643 23.9353 14.4054 23.9858 12.3705C24.0409 10.1476 23.5133 8.87042 22.5133 6.87041C21.5133 4.8704 24.3378 7.73501 24.4786 8.03714C25.6838 10.7147 27.367 13.1502 29.4457 15.224C29.4915 15.2741 29.5159 15.3402 29.5133 15.408C29.5108 15.4758 29.4816 15.5399 29.4322 15.5864C27.7386 16.8649 25.8 18.7809 23.7369 19.2774C22.9072 19.4763 21.9978 19.8359 21.0377 19.9066Z" fill="#263238"/>
<path d="M14.4006 10.9541C14.1963 14.4545 13.8987 16.4919 15.4395 18.4867C17.7565 21.4869 22.2368 20.4113 23.4825 17.0426C24.6034 14.0107 24.7496 8.79604 21.516 7.00481C20.8047 6.60603 20.0032 6.39579 19.1877 6.39405C18.3722 6.39232 17.5698 6.59915 16.8568 6.9949C16.1438 7.39065 15.5439 7.96216 15.114 8.65512C14.6841 9.34808 14.4385 10.1395 14.4006 10.9541Z" fill="#FFC3BD"/>
<path d="M12.2807 13.8658C12.4299 14.7351 12.9175 15.5098 13.6367 16.0204C14.5952 16.689 15.4587 15.9247 15.5177 14.8183C15.5673 13.8231 15.1295 12.2755 14.012 12.0472C13.7668 12.0014 13.514 12.0176 13.2766 12.0943C13.0392 12.171 12.8248 12.3058 12.6527 12.4865C12.4807 12.6672 12.3566 12.8881 12.2916 13.1289C12.2266 13.3698 12.2229 13.6231 12.2807 13.8658Z" fill="#FFC3BD"/>
<path d="M24.2077 95.0734C23.3586 84.7398 17.1308 56.1339 17.1308 56.1339L29.5232 55.2695C29.5232 55.2695 34.3018 83.6651 34.6678 94.4415C35.0491 105.646 30.5424 130.549 30.5424 130.549L24.5993 129.873C24.5993 129.873 25.0601 105.45 24.2077 95.0734Z" fill="#EB8B76"/>
<path opacity="0.5" d="M24.2077 95.0734C23.3586 84.7398 17.1308 56.1339 17.1308 56.1339L29.5232 55.2695C29.5232 55.2695 34.3018 83.6651 34.6678 94.4415C35.0491 105.646 30.5424 130.549 30.5424 130.549L24.5993 129.873C24.5993 129.873 25.0601 105.45 24.2077 95.0734Z" fill="#EB8B76"/>
<path opacity="0.2" d="M21.7984 65.8218C24.2967 69.0161 24.3412 80.2346 23.375 88.523C22.4542 82.5439 21.0032 74.9507 19.7318 68.6211L21.7984 65.8218Z" fill="black"/>
<path d="M22.8357 55.7361C22.8357 55.7361 21.4985 85.9818 20.0065 96.2248C18.3734 107.442 14.2258 131.957 14.2258 131.957H7.75515C7.75515 131.957 8.81964 108.867 9.67379 97.8467C10.6459 85.2944 10.6724 56.5843 10.6724 56.5843L22.8357 55.7361Z" fill="#EB8B76"/>
<path opacity="0.5" d="M22.8357 55.7361C22.8357 55.7361 21.4985 85.9818 20.0065 96.2248C18.3734 107.442 14.2258 131.957 14.2258 131.957H7.75515C7.75515 131.957 8.81964 108.867 9.67379 97.8467C10.6459 85.2944 10.6724 56.5843 10.6724 56.5843L22.8357 55.7361Z" fill="#EB8B76"/>
<path d="M19.5547 12.5588C19.5205 12.8418 19.6402 13.0889 19.8283 13.1111C20.0164 13.1333 20.1908 12.9221 20.2241 12.6391C20.2575 12.3561 20.1386 12.109 19.9505 12.0868C19.7624 12.0646 19.588 12.2758 19.5547 12.5588Z" fill="#263238"/>
<path d="M22.7518 12.9428C22.7176 13.2258 22.8373 13.4729 23.0254 13.4951C23.2135 13.5173 23.388 13.3062 23.4222 13.0232C23.4564 12.7402 23.3366 12.4931 23.1485 12.4708C22.9604 12.4486 22.786 12.6632 22.7518 12.9428Z" fill="#263238"/>
<path d="M21.7189 12.9619C21.9523 13.8671 22.309 14.736 22.7791 15.544C22.5693 15.659 22.337 15.7267 22.0983 15.7425C21.8597 15.7583 21.6204 15.7218 21.3974 15.6355L21.7189 12.9619Z" fill="#ED847E"/>
<path d="M18.6859 11.4053C18.7157 11.4143 18.7473 11.415 18.7775 11.4073C18.8076 11.3996 18.8351 11.3839 18.8569 11.3617C18.9983 11.2063 19.1745 11.0864 19.3711 11.0121C19.5678 10.9378 19.7792 10.9111 19.9881 10.9342C20.0316 10.9416 20.0763 10.9318 20.1128 10.907C20.1493 10.8821 20.1748 10.8441 20.1839 10.8009C20.1883 10.7792 20.1884 10.7569 20.184 10.7352C20.1797 10.7136 20.1711 10.693 20.1586 10.6747C20.1462 10.6565 20.1302 10.6409 20.1116 10.6289C20.0931 10.617 20.0723 10.6088 20.0505 10.6051C19.7868 10.5709 19.5187 10.6006 19.2689 10.6917C19.0191 10.7827 18.7948 10.9325 18.615 11.1283C18.5844 11.1602 18.5673 11.2026 18.5673 11.2467C18.5673 11.2909 18.5844 11.3333 18.615 11.3652C18.6349 11.3843 18.6593 11.3981 18.6859 11.4053Z" fill="#263238"/>
<path d="M19.9144 16.764C19.5109 16.6791 19.1338 16.4984 18.8149 16.2371C18.496 15.9757 18.2447 15.6415 18.0821 15.2626C18.0742 15.2399 18.0756 15.215 18.086 15.1934C18.0964 15.1717 18.115 15.1551 18.1377 15.1472C18.1604 15.1392 18.1853 15.1406 18.2069 15.1511C18.2286 15.1615 18.2452 15.1801 18.2531 15.2027C18.4088 15.5513 18.6442 15.8584 18.9403 16.0993C19.2365 16.3402 19.5851 16.5081 19.958 16.5896C19.9695 16.5922 19.9804 16.5971 19.99 16.6039C19.9996 16.6108 20.0078 16.6194 20.0141 16.6294C20.0203 16.6394 20.0246 16.6506 20.0266 16.6622C20.0285 16.6739 20.0282 16.6858 20.0256 16.6973C20.0229 16.7088 20.018 16.7197 20.0112 16.7293C20.0043 16.7389 19.9957 16.7471 19.9857 16.7534C19.9757 16.7597 19.9645 16.7639 19.9529 16.7659C19.9412 16.7678 19.9293 16.7675 19.9178 16.7648L19.9144 16.764Z" fill="#263238"/>
<path d="M24.2565 12.0078C24.2901 12.019 24.3264 12.019 24.36 12.0078C24.4013 11.9925 24.4352 11.9618 24.4545 11.9221C24.4738 11.8825 24.477 11.8369 24.4634 11.7949C24.3833 11.5413 24.2431 11.3108 24.0548 11.1229C23.8665 10.9351 23.6356 10.7954 23.3818 10.7159C23.3389 10.7062 23.2939 10.7134 23.2562 10.736C23.2185 10.7586 23.1909 10.7949 23.1792 10.8373C23.1695 10.8801 23.1765 10.925 23.199 10.9627C23.2214 11.0004 23.2575 11.0281 23.2998 11.0399C23.4993 11.1065 23.6802 11.2195 23.8275 11.3696C23.9748 11.5197 24.0843 11.7027 24.1471 11.9035C24.1561 11.9281 24.1707 11.9503 24.1896 11.9684C24.2086 11.9865 24.2315 12 24.2565 12.0078Z" fill="#263238"/>
<path d="M13.6233 136.944C13.8651 136.963 14.1063 136.899 14.3072 136.763C14.3698 136.709 14.4182 136.641 14.448 136.564C14.4778 136.487 14.4882 136.403 14.4783 136.321C14.4784 136.272 14.4651 136.224 14.4397 136.183C14.4144 136.141 14.378 136.107 14.3346 136.084C13.9422 135.883 12.8042 136.584 12.6759 136.664C12.6619 136.673 12.6508 136.686 12.6439 136.701C12.6371 136.716 12.6348 136.733 12.6374 136.75C12.6402 136.766 12.6477 136.781 12.6589 136.793C12.6702 136.805 12.6847 136.814 12.7007 136.818C13.0026 136.894 13.312 136.936 13.6233 136.944ZM14.1482 136.213C14.1855 136.211 14.2227 136.218 14.2568 136.233C14.2741 136.243 14.2883 136.257 14.2977 136.275C14.3071 136.292 14.3113 136.312 14.3098 136.332C14.3175 136.388 14.311 136.445 14.2912 136.498C14.2714 136.551 14.2387 136.598 14.1961 136.635C13.8014 136.815 13.3527 136.838 12.9418 136.698C13.3101 136.459 13.7213 136.294 14.1525 136.213H14.1482Z" fill="#98A2B3"/>
<path d="M12.7229 136.82C12.737 136.82 12.7508 136.817 12.7631 136.81C13.1282 136.612 13.8353 135.837 13.7609 135.442C13.7487 135.38 13.7156 135.325 13.6671 135.285C13.6187 135.245 13.5579 135.223 13.495 135.222C13.4314 135.215 13.3668 135.22 13.3054 135.239C13.244 135.257 13.1872 135.288 13.1385 135.33C12.7281 135.666 12.6434 136.685 12.6408 136.728C12.6398 136.743 12.6427 136.758 12.6493 136.772C12.6559 136.785 12.666 136.797 12.6785 136.805C12.6916 136.814 12.707 136.819 12.7229 136.82ZM13.436 135.388H13.4745C13.5831 135.402 13.5925 135.451 13.5967 135.474C13.6412 135.706 13.1906 136.291 12.8272 136.567C12.8512 136.163 12.9967 135.776 13.2445 135.456C13.2984 135.411 13.3662 135.387 13.436 135.388Z" fill="#98A2B3"/>
<path d="M28.3591 136.279L28.3727 136.285C28.9259 136.462 29.916 136.713 30.3393 136.417C30.4017 136.374 30.4528 136.316 30.4879 136.249C30.5231 136.181 30.5413 136.106 30.541 136.03C30.5444 135.985 30.5359 135.939 30.5162 135.897C30.4966 135.856 30.4666 135.82 30.429 135.794C30.0315 135.514 28.5378 136.064 28.3685 136.128C28.354 136.134 28.3415 136.144 28.3324 136.157C28.3234 136.17 28.318 136.185 28.3171 136.201C28.3161 136.217 28.3195 136.233 28.3269 136.247C28.3343 136.26 28.3455 136.272 28.3591 136.28V136.279ZM30.311 135.917L30.3307 135.929C30.346 135.939 30.3581 135.953 30.3657 135.97C30.3732 135.987 30.3759 136.005 30.3735 136.024C30.3745 136.074 30.3632 136.123 30.3406 136.168C30.3179 136.213 30.2846 136.251 30.2435 136.28C29.7236 136.442 29.1628 136.412 28.6634 136.195C29.1809 135.965 29.7478 135.869 30.3119 135.917H30.311Z" fill="#98A2B3"/>
<path d="M28.359 136.28C28.3792 136.29 28.4025 136.292 28.424 136.285C28.8686 136.143 29.792 135.478 29.7749 135.075C29.7706 134.98 29.7168 134.856 29.4911 134.807C29.4095 134.789 29.3252 134.788 29.2431 134.803C29.1611 134.819 29.0831 134.851 29.014 134.898C28.6515 135.244 28.4074 135.696 28.3163 136.189C28.3134 136.203 28.3142 136.218 28.3187 136.232C28.3232 136.246 28.3312 136.258 28.3419 136.268C28.3472 136.273 28.3529 136.276 28.359 136.28ZM29.5483 135.006C29.6056 135.036 29.6073 135.072 29.6082 135.086C29.6202 135.329 28.9823 135.861 28.5198 136.071C28.6052 135.677 28.8097 135.319 29.1054 135.045C29.156 135.01 29.2133 134.986 29.2736 134.974C29.334 134.963 29.3961 134.964 29.456 134.977C29.4879 134.982 29.519 134.992 29.5483 135.006Z" fill="#98A2B3"/>
<path d="M6.17509 28.057C4.44542 30.958 5.91858 40.0758 5.91858 40.0758L14.9816 38.4008C14.9816 38.4008 15.4724 33.1853 13.747 29.1719C11.8737 24.8037 8.27071 24.5421 6.17509 28.057Z" fill="#98A2B3"/>
<path d="M55.2549 38.676C56.1141 39.5734 61.9094 35.7893 62.5032 34.4895C62.5032 34.4895 63.7497 33.1567 63.2497 31.6567C62.7497 30.1567 61.018 30.6893 61.018 30.6893C59.3316 31.6093 57.8577 33.3646 56.0995 34.4877C56.2268 33.275 57.0071 31.8176 56.7134 30.7039C55.8002 32.1389 53.7586 37.1137 55.2549 38.676Z" fill="#FFC3BD"/>
<path d="M25.6011 23.6238C25.6011 23.6238 30.3078 24.0589 32.3592 28.189L40.968 43.7394C40.968 43.7394 43.0712 46.8246 38.5165 49.5767C38.5165 49.5767 29.0435 42.5876 24.3115 33.2278C24.3115 33.2278 20.0727 27.1861 25.3091 23.646" fill="white"/>
<path d="M17.7322 87.304L18.0346 50.0334L20.1411 32.9118C16.4344 25.1047 13.681 22.741 13.681 22.741C0.168403 26.5692 3.46639 33.2626 3.46639 33.2626L7.60467 51.41L2.03369 84.6218C2.03369 84.6218 9.23835 87.9741 17.7322 87.304Z" fill="white"/>
<path d="M31.4404 36.3537L30.0249 49.389L38.7781 84.4717C35.436 85.8709 28.1175 86.5233 28.1175 86.5233L22.9178 50.7253V32.944L19.3672 22.5474C19.3672 22.5474 21.8278 22.7957 23.8979 23.5304C23.8969 23.5304 31.2451 30.9916 31.4404 36.3537Z" fill="white"/>
<path d="M40.0676 51.2666C40.0676 51.2666 43.9136 50.6662 50.089 44.6364L56.2531 39.3838C56.2531 39.3838 56.4112 36.1964 54.1994 35.2299L36.7593 46.1069C36.7593 46.1069 34.7415 48.0942 40.0676 51.2666Z" fill="white"/>
<path d="M4.35532 31.2128L1.37603 50.2771C1.37603 50.2771 0.924299 52.2424 2.52831 52.3755C2.52831 52.3755 6.79005 52.3819 8.30506 45.4554L12.8204 32.7595C12.8204 32.7595 14.7374 23.7685 7.39395 26.4209C7.39395 26.4209 4.84054 27.5225 4.35532 31.2128Z" fill="#F7B6A0"/>
<path d="M9.96069 24.9216C9.96069 24.9216 5.10846 25.8031 4.03465 30.0659L0.33374 51.9318C0.33374 51.9318 6.54116 53.6423 9.40561 46.098L13.9439 31.0377C13.9439 31.0385 15.1699 25.7732 9.96069 24.9216Z" fill="white"/>
<path d="M0.33374 51.9317C0.33374 51.9317 5.75829 56.2567 13.0453 51.9317L25.3663 46.7286L24.326 43.3979L5.94396 46.7286C5.94396 46.7286 1.16924 47.6068 0.33374 51.9317Z" fill="white"/>
<path fill-rule="evenodd" clip-rule="evenodd" d="M6.4978 16.2322C10.4104 12.3554 8.07806 6.92018 10.5803 4.28999C11.0535 3.77988 11.6925 3.45438 12.3834 3.3715C13.0743 3.28862 13.7721 3.45374 14.3526 3.83743C16.2801 0.702849 20.2116 -0.0558041 23.5588 0.987137C27.2069 2.12388 28.5139 6.57747 25.5855 8.01084C24.0509 8.76209 18.6634 8.82586 16.9791 8.49961C16.8442 9.89429 16.3226 11.2236 15.4729 12.3377C15.3856 12.4426 15.2639 12.5879 15.119 12.4611C14.9624 12.32 14.7782 12.213 14.5781 12.1467C14.378 12.0805 14.1663 12.0566 13.9564 12.0765C13.7466 12.0964 13.5431 12.1596 13.359 12.2622C13.1748 12.3648 13.014 12.5046 12.8867 12.6726C12.7696 12.8456 12.6879 13.04 12.6462 13.2447C12.6045 13.4494 12.6036 13.6603 12.6436 13.8653C12.6836 14.0703 12.7638 14.2654 12.8794 14.4394C12.995 14.6134 13.1439 14.7628 13.3174 14.879C13.8206 15.2119 14.1794 15.1633 14.743 15.1349C14.9195 15.1263 14.9524 15.274 14.9643 15.4089C15.1384 17.3689 15.3313 19.6054 15.0322 21.5547C15.0245 21.6088 14.996 21.6578 14.9528 21.6912C14.9095 21.7246 14.8549 21.7398 14.8006 21.7336C14.7463 21.7274 14.6966 21.7002 14.662 21.6579C14.6274 21.6156 14.6107 21.5614 14.6155 21.507C14.6114 20.9787 14.6311 20.4504 14.6484 19.9218C11.8939 20.2299 8.40636 18.6188 6.48957 16.7769C6.18595 16.4885 6.40318 16.326 6.4978 16.2322ZM21.317 2.82165C21.9886 2.80958 22.6531 2.96049 23.2536 3.26145C23.9205 3.58153 25.0527 4.37721 24.9766 5.21157C24.954 5.46171 25.3135 5.61475 25.4069 5.35679C25.8574 4.11349 24.6034 3.14214 23.7674 2.68588C23.0227 2.27952 22.1884 2.06529 21.3401 2.06258C20.2548 2.06382 20.7028 2.84756 21.317 2.82165Z" fill="#263238"/>
<path d="M24.728 45.8053C25.3328 46.8666 32.0475 46.515 34.0267 44.7206C34.0267 44.7206 34.8338 43.5474 34.8338 42.5474C34.8338 41.5474 33.4706 41.3521 33.4706 41.3521C31.322 41.3457 29.5113 43.1069 27.2096 43.2295C27.6604 40.9497 27.3723 40.9497 26.7665 40.9497C25.7779 42.2013 24.3088 45.0698 24.728 45.8053Z" fill="#FFC3BD"/>
</svg>
