<svg width="250" height="200" viewBox="0 0 250 200" fill="none" xmlns="http://www.w3.org/2000/svg">
<rect width="250" height="200" fill="#F8F8F8"/>
<path d="M125 165C160.899 165 190 135.899 190 100C190 64.1015 160.899 35 125 35C89.1015 35 60 64.1015 60 100C60 135.899 89.1015 165 125 165Z" fill="#E2E8F0"/>
<path d="M147.902 129.4C146.631 129.4 145.412 129.916 144.513 130.835C143.614 131.754 143.109 133 143.109 134.3C143.109 135.6 142.604 136.846 141.705 137.765C140.806 138.684 139.587 139.2 138.315 139.2H90.3804C89.1091 139.2 87.8899 138.684 86.9909 137.765C86.092 136.846 85.587 135.6 85.587 134.3V65.7C85.587 64.4004 86.092 63.1541 86.9909 62.2352C87.8899 61.3162 89.1091 60.8 90.3804 60.8H114.348V75.5C114.348 79.3987 115.863 83.1377 118.56 85.8945C121.257 88.6513 124.914 90.2 128.728 90.2H143.109V95.1C143.109 96.3996 143.614 97.6459 144.513 98.5648C145.412 99.4837 146.631 100 147.902 100C149.173 100 150.393 99.4837 151.292 98.5648C152.191 97.6459 152.696 96.3996 152.696 95.1V85.006C152.646 84.5559 152.549 84.1124 152.408 83.683C152.428 83.5367 152.428 83.3883 152.408 83.242C152.178 82.7382 151.87 82.2751 151.497 81.87L122.736 52.47C122.34 52.0889 121.887 51.7746 121.394 51.539H120.915C120.463 51.2912 119.979 51.1098 119.477 51H90.3804C86.5665 51 82.9088 52.5487 80.2119 55.3055C77.5151 58.0623 76 61.8013 76 65.7V134.3C76 138.199 77.5151 141.938 80.2119 144.694C82.9088 147.451 86.5665 149 90.3804 149H138.315C142.129 149 145.787 147.451 148.484 144.694C151.181 141.938 152.696 138.199 152.696 134.3C152.696 133 152.191 131.754 151.292 130.835C150.393 129.916 149.173 129.4 147.902 129.4ZM123.935 67.709L136.35 80.4H128.728C127.457 80.4 126.238 79.8838 125.339 78.9648C124.44 78.0459 123.935 76.7996 123.935 75.5V67.709Z" fill="#A0AEC0"/>
<path d="M169.207 105.456H157.223C156.592 105.452 155.967 105.576 155.383 105.82C154.799 106.064 154.267 106.423 153.82 106.877L147.876 113.002L134.454 97.3222C134.022 96.8166 133.493 96.407 132.9 96.1189C132.307 95.8308 131.663 95.6703 131.007 95.6473C130.35 95.6243 129.697 95.7394 129.086 95.9854C128.475 96.2313 127.92 96.603 127.455 97.0772L119.306 105.456H111.685C110.414 105.456 109.194 105.972 108.295 106.891C107.396 107.81 106.891 109.057 106.891 110.356C106.891 111.656 107.396 112.902 108.295 113.821C109.194 114.74 110.414 115.256 111.685 115.256H121.272C121.903 115.26 122.528 115.136 123.112 114.892C123.696 114.649 124.227 114.289 124.675 113.835L130.859 107.71L144.28 123.39C144.713 123.895 145.243 124.303 145.837 124.589C146.431 124.876 147.076 125.035 147.732 125.056C148.363 125.06 148.988 124.936 149.572 124.692C150.156 124.449 150.687 124.089 151.135 123.635L159.188 115.256H169.207C170.478 115.256 171.697 114.74 172.596 113.821C173.495 112.902 174 111.656 174 110.356C174 109.057 173.495 107.81 172.596 106.891C171.697 105.972 170.478 105.456 169.207 105.456Z" fill="#EB8B76"/>
</svg>
