<svg width="198" height="205" viewBox="0 0 198 205" fill="none" xmlns="http://www.w3.org/2000/svg">
<g clip-path="url(#clip0_313_8917)">
<path d="M175.522 156.011L175.518 156.103L180.143 205H146.393L142.019 174.969L140.093 204.23L105.435 203.845L109.116 165.428L112.247 147.621V147.617L112.717 144.938H174.602L174.683 145.908L175.522 156.011Z" fill="#2F2E41"/>
<path d="M86.331 184.356C89.9054 185.007 93.6325 180.983 94.6558 175.367C95.1038 172.909 94.9592 170.553 94.3554 168.627L94.9034 165.39L104.101 121.841C104.101 121.841 121.037 87.9695 121.037 82.0892C121.036 76.2089 116.138 73.3252 116.138 73.3252L109.508 73.3872L88.7201 124.15L84.9761 161.662L84.3704 166.808C83.1259 168.398 82.1598 170.551 81.712 173.009C80.6886 178.625 82.7566 183.705 86.331 184.356Z" fill="#FFB6B6"/>
<path d="M153.764 52.3419L147.603 38.0964L127.578 41.5616L126.23 58.3218L153.764 52.3419Z" fill="#FFB6B6"/>
<path opacity="0.1" d="M153.764 52.3419L147.603 38.0964L127.578 41.5616L126.23 58.3218L153.764 52.3419Z" fill="black"/>
<path d="M197.28 81.988C197.28 81.988 183.032 55.422 180.336 52.727C179.136 51.5272 177.249 51.5105 175.525 51.8602L155.69 45.0267L148.967 41.25L148.524 48.4351L126.452 52.3959C126.575 48.0142 127.193 46.3475 127.193 46.3475L119.106 55.8071L103.317 63.5073L103.326 63.5767C102.167 63.981 101.068 64.673 100.236 65.8174C97.1554 70.0526 88.6833 121.644 88.6833 121.644L106.783 125.495L109.246 110.04L111.019 123.955L112.367 149.943C112.367 149.943 137.013 171.119 148.951 163.418C160.889 155.718 175.522 156.103 175.522 156.103L175.887 144.057C176.147 143.642 176.292 143.398 176.292 143.398L175.907 100.667V89.297C178.841 93.3833 182.381 96.8976 186.497 98.5436C199.976 103.934 197.28 81.988 197.28 81.988V81.988Z" fill="#E6E6E6"/>
<path d="M135.497 44.0681C145.671 44.0681 153.919 35.8219 153.919 25.6497C153.919 15.4774 145.671 7.2312 135.497 7.2312C125.323 7.2312 117.075 15.4774 117.075 25.6497C117.075 35.8219 125.323 44.0681 135.497 44.0681Z" fill="#FFB6B6"/>
<path d="M148.713 30.8548C148.713 30.8548 150.315 25.2492 153.92 25.6496C157.524 26.05 158.325 22.8468 157.524 21.2452C156.723 19.6436 155.121 11.6355 155.121 11.6355C155.121 11.6355 155.922 6.02991 151.116 5.2291C146.31 4.4283 144.708 3.6275 143.907 2.02589C143.106 0.424283 131.092 -1.17732 127.087 1.22509C123.082 3.6275 119.878 8.23685 117.075 9.53579C114.271 10.8347 111.869 13.2371 113.471 17.2412C115.072 21.2452 117.396 29.0762 117.396 29.0762C117.396 29.0762 121.48 27.6516 122.281 30.054C123.082 32.4564 119.878 29.2532 123.883 22.8468C127.888 16.4403 127.888 10.0339 134.296 12.4363C140.704 14.8387 147.912 14.0379 147.111 18.8428C146.31 23.6476 148.713 30.8548 148.713 30.8548V30.8548Z" fill="#2F2E41"/>
<path d="M147.587 176.869H7.67555C3.71887 176.869 0.5 173.651 0.5 169.695V95.3904C0.5 91.4348 3.71887 88.2163 7.67555 88.2163H147.587C151.543 88.2163 154.762 91.4348 154.762 95.3904V169.695C154.762 173.651 151.543 176.869 147.587 176.869Z" fill="white"/>
<path d="M147.587 176.869H7.67555C3.71887 176.869 0.5 173.651 0.5 169.695V95.3904C0.5 91.4348 3.71887 88.2163 7.67555 88.2163H147.587C151.543 88.2163 154.762 91.4348 154.762 95.3904V169.695C154.762 173.651 151.543 176.869 147.587 176.869ZM7.67555 89.4143C4.37974 89.4143 1.69826 92.0952 1.69826 95.3904V169.695C1.69826 172.99 4.37974 175.671 7.67555 175.671H147.587C150.882 175.671 153.564 172.99 153.564 169.695V95.3904C153.564 92.0952 150.882 89.4143 147.587 89.4143H7.67555Z" fill="#3F3D56"/>
<path d="M136.788 97.2015C137.781 97.2015 138.586 96.3969 138.586 95.4044C138.586 94.412 137.781 93.6074 136.788 93.6074C135.795 93.6074 134.991 94.412 134.991 95.4044C134.991 96.3969 135.795 97.2015 136.788 97.2015Z" fill="#3F3D56"/>
<path d="M141.581 97.2015C142.574 97.2015 143.379 96.3969 143.379 95.4044C143.379 94.412 142.574 93.6074 141.581 93.6074C140.589 93.6074 139.784 94.412 139.784 95.4044C139.784 96.3969 140.589 97.2015 141.581 97.2015Z" fill="#3F3D56"/>
<path d="M146.374 97.2015C147.367 97.2015 148.172 96.3969 148.172 95.4044C148.172 94.412 147.367 93.6074 146.374 93.6074C145.382 93.6074 144.577 94.412 144.577 95.4044C144.577 96.3969 145.382 97.2015 146.374 97.2015Z" fill="#3F3D56"/>
<path d="M10.6853 124.456C10.1898 124.456 9.78662 124.859 9.78662 125.355C9.78662 125.596 9.87995 125.82 10.0493 125.985C10.2202 126.16 10.444 126.253 10.6853 126.253H145.176C145.672 126.253 146.075 125.85 146.075 125.355C146.075 125.113 145.982 124.89 145.812 124.725C145.641 124.55 145.417 124.456 145.176 124.456H10.6853Z" fill="#E6E6E6"/>
<path d="M128.4 124.157V126.553H10.6853C10.3558 126.553 10.0562 126.421 9.84057 126.199C9.61885 125.984 9.48706 125.684 9.48706 125.355C9.48706 124.696 10.0263 124.157 10.6853 124.157H128.4Z" fill="#EB8B76"/>
<path d="M143.678 119.664H131.696C130.374 119.664 129.299 118.59 129.299 117.268C129.299 115.947 130.374 114.872 131.696 114.872H143.678C145 114.872 146.075 115.947 146.075 117.268C146.075 118.59 145 119.664 143.678 119.664Z" fill="#E6E6E6"/>
<path d="M65.1919 107.085H11.584C10.2626 107.085 9.1875 106.01 9.1875 104.689C9.1875 103.368 10.2626 102.293 11.584 102.293H65.1919C66.5134 102.293 67.5885 103.368 67.5885 104.689C67.5885 106.01 66.5134 107.085 65.1919 107.085Z" fill="#E6E6E6"/>
<path d="M10.6853 151.412C10.1898 151.412 9.78662 151.815 9.78662 152.31C9.78662 152.552 9.87995 152.775 10.0493 152.94C10.2202 153.115 10.444 153.209 10.6853 153.209H145.176C145.672 153.209 146.075 152.806 146.075 152.31C146.075 152.069 145.982 151.845 145.812 151.68C145.641 151.505 145.417 151.412 145.176 151.412H10.6853Z" fill="#E6E6E6"/>
<path d="M82.2672 151.112V153.508H10.6853C10.3558 153.508 10.0562 153.376 9.84057 153.155C9.61885 152.939 9.48706 152.64 9.48706 152.31C9.48706 151.651 10.0263 151.112 10.6853 151.112H82.2672Z" fill="#EB8B76"/>
<path d="M143.678 146.619H131.696C130.374 146.619 129.299 145.545 129.299 144.223C129.299 142.902 130.374 141.827 131.696 141.827H143.678C145 141.827 146.075 142.902 146.075 144.223C146.075 145.545 145 146.619 143.678 146.619Z" fill="#E6E6E6"/>
<path d="M190.559 75.529L171.864 66.5876C171.864 66.5876 171.113 60.6031 167.607 58.4685C167.011 57.0468 166.325 55.485 165.702 54.2475C164.162 51.1871 166.472 45.4119 164.547 45.4119C162.621 45.4119 159.775 51.4856 159.926 53.1121C160.041 54.3607 161.074 56.5406 161.287 58.4488C158.939 59.3341 157.045 60.8516 155.799 62.0598C154.722 63.1054 154.321 64.6654 154.742 66.1066C155.963 70.2829 159.014 78.9081 163.392 78.9081C169.168 78.9081 170.708 77.753 170.708 77.753C170.708 77.753 182.646 92.7686 191.503 93.9236C200.361 95.0786 190.559 75.5289 190.559 75.5289V75.529Z" fill="#FFB6B6"/>
</g>
<defs>
<clipPath id="clip0_313_8917">
<rect width="197" height="205" fill="white" transform="translate(0.5)"/>
</clipPath>
</defs>
</svg>
