<svg width="100" height="156" viewBox="0 0 100 156" fill="none" xmlns="http://www.w3.org/2000/svg">
<path d="M70.6696 139.223H20.8479L20.8965 138.692L38.5211 137.485L48.4842 136.798L70.0708 135.319L70.6696 139.223Z" fill="#DEE8F5"/>
<path opacity="0.07" d="M70.6696 139.223H20.8479L20.8965 138.692L38.5211 137.485L48.4842 136.798L70.0708 135.319L70.6696 139.223Z" fill="#0F1011"/>
<path d="M77.0489 139.223H19.1383C19.2095 138.831 19.284 138.443 19.3584 138.054L19.5591 138.112L20.1385 134.141L38.6177 133.001L48.4319 132.396L76.7997 130.645L77.0489 139.223Z" fill="#262626"/>
<path d="M53.828 40.9822C53.8205 40.8482 53.8205 40.7142 53.8205 40.5799C53.8205 39.2246 53.873 37.7499 54.0066 36.1412L52.3241 35.8291L42.1134 33.9375C42.3146 36.5821 42.2723 39.2397 41.9869 41.8765C41.9571 42.1743 41.9199 42.4799 41.8749 42.7851C41.873 42.8129 41.8681 42.8403 41.8603 42.867C41.8008 43.2693 41.7338 43.6715 41.6593 44.0737C41.6146 44.3344 41.5624 44.595 41.5026 44.8554C41.4431 45.1908 41.3615 45.5183 41.2719 45.8459C41.1822 46.1735 41.0932 46.4933 40.989 46.8144C40.8919 47.1345 40.7876 47.4475 40.6685 47.7531C40.4511 48.356 40.1871 48.9412 39.879 49.5032V49.5107C39.3151 50.6131 38.523 51.5829 37.5553 52.3555H56.2643C55.0939 50.3364 53.8878 46.8435 53.828 40.9822Z" fill="#FAA896"/>
<path opacity="0.15" d="M39.8666 49.521L49.7513 41.959L41.9877 41.8784C41.6915 44.4912 41.0804 47.2956 39.8666 49.521Z" fill="black"/>
<path d="M60.7607 30.0613C59.9369 34.8195 57.3406 39.3246 53.1437 40.8614C48.1615 42.6857 44.4715 42.8094 38.7271 42.8094C30.8884 42.8094 31.1476 34.6343 30.9262 26.3962C30.7052 18.1251 31.3629 9.25317 34.4609 6.37107C40.6449 0.618203 58.7943 4.26129 61.0031 13.8835C62.1451 18.8602 61.5447 25.5326 60.7607 30.0613Z" fill="#FAA896"/>
<path d="M26.7261 11.1525C26.7261 11.1525 23.5158 10.4356 24.3956 7.23595C24.9782 5.11289 27.6972 5.58515 27.6972 5.58515C27.6972 5.58515 25.1216 5.11386 25.1216 2.86619C25.1216 1.44909 26.2102 -0.950068 29.4943 0.421389C33.3461 2.03108 37.7418 1.82424 41.0822 1.26297C43.0311 0.935401 44.9318 0.478681 46.8222 0.453757L46.8322 0.451491V0.453757C49.0519 0.415104 51.2647 0.711148 53.3962 1.33192C59.3692 3.11866 68.4088 8.47437 66.4874 20.6158C64.3423 34.1663 57.9838 39.3482 55.1862 41.0106C55.0207 41.1103 54.8347 41.171 54.6423 41.1883C54.4499 41.2056 54.2561 41.1789 54.0756 41.1103C53.895 41.0417 53.7323 40.933 53.5999 40.7924C53.4675 40.6518 53.3687 40.4829 53.3111 40.2985C52.5177 37.7589 51.1492 31.369 51.5331 18.1927C33.1733 17.2922 27.8911 17.019 27.8911 17.019C27.8911 17.019 23.5682 17.1809 23.5682 14.0236C23.5682 10.8664 26.7261 11.1525 26.7261 11.1525Z" fill="#0F1011"/>
<path d="M42.1276 26.3962C42.7234 26.3962 43.2064 25.9132 43.2064 25.3174C43.2064 24.7215 42.7234 24.2385 42.1276 24.2385C41.5317 24.2385 41.0487 24.7215 41.0487 25.3174C41.0487 25.9132 41.5317 26.3962 42.1276 26.3962Z" fill="#0F1011"/>
<path d="M33.614 25.698C34.2098 25.698 34.6928 25.215 34.6928 24.6191C34.6928 24.0233 34.2098 23.5403 33.614 23.5403C33.0182 23.5403 32.5352 24.0233 32.5352 24.6191C32.5352 25.215 33.0182 25.698 33.614 25.698Z" fill="#0F1011"/>
<path d="M31.7435 22.3194H31.7503L34.6091 22.2838C34.7436 22.283 34.8722 22.2287 34.9666 22.1331C35.0611 22.0374 35.1136 21.9081 35.1128 21.7737C35.1119 21.6392 35.0577 21.5107 34.962 21.4162C34.8664 21.3218 34.7371 21.2692 34.6027 21.27H34.5962L31.7371 21.3056C31.6705 21.3061 31.6047 21.3196 31.5433 21.3455C31.482 21.3713 31.4264 21.409 31.3796 21.4564C31.2851 21.5521 31.2326 21.6813 31.2334 21.8158C31.2343 21.9502 31.2885 22.0788 31.3842 22.1732C31.4798 22.2677 31.6091 22.3203 31.7435 22.3194Z" fill="#0F1011"/>
<path d="M44.4574 23.3616C44.5815 23.3615 44.7013 23.316 44.7941 23.2335C44.8869 23.151 44.9461 23.0373 44.9607 22.914C44.9752 22.7907 44.944 22.6664 44.8729 22.5646C44.8019 22.4628 44.6959 22.3906 44.5752 22.3617L41.7569 21.682C41.6265 21.6515 41.4893 21.6739 41.3753 21.7442C41.2613 21.8145 41.1798 21.9271 41.1485 22.0573C41.1171 22.1875 41.1386 22.3248 41.2081 22.4393C41.2777 22.5537 41.3896 22.636 41.5196 22.6682L44.338 23.348C44.3771 23.3571 44.4172 23.3617 44.4574 23.3616Z" fill="#0F1011"/>
<path d="M47.7421 27.958C47.643 29.1672 48.0282 30.3663 48.8132 31.2915C49.5981 32.2167 50.7185 32.7922 51.9277 32.8913C53.1369 32.9905 54.336 32.6052 55.2612 31.8202C56.1864 31.0353 56.7618 29.915 56.861 28.7057C57.0675 26.1874 55.2008 23.8546 52.6754 23.7721C49.4149 23.6659 47.9486 25.4388 47.7421 27.958Z" fill="#FAA896"/>
<g opacity="0.15">
<path d="M37.3373 31.3026C37.4266 31.3028 37.513 31.2709 37.5807 31.2127C37.6484 31.1545 37.693 31.074 37.7062 30.9857C37.7195 30.8974 37.7006 30.8073 37.6529 30.7317C37.6053 30.6562 37.5321 30.6004 37.4467 30.5743L35.2518 29.9004L36.787 26.482C36.8275 26.3918 36.8306 26.2893 36.7955 26.1969C36.7604 26.1045 36.6901 26.0298 36.5999 25.9893C36.5098 25.9488 36.4072 25.9457 36.3148 25.9808C36.2225 26.0159 36.1478 26.0863 36.1073 26.1764L34.3992 29.9797C34.3775 30.0279 34.3663 30.0801 34.3663 30.133C34.3664 30.1858 34.3777 30.238 34.3995 30.2862C34.4213 30.3343 34.4531 30.3772 34.4928 30.4121C34.5325 30.447 34.5791 30.4731 34.6296 30.4885L37.2275 31.2864C37.2631 31.2973 37.3001 31.3028 37.3373 31.3026Z" fill="black"/>
</g>
<path d="M41.6281 33.8162C41.6281 33.8162 37.6448 34.237 34.8527 33.2607C34.8527 33.2607 34.8747 35.8826 38.0271 36.1415C41.1794 36.4005 41.6281 33.8162 41.6281 33.8162Z" fill="#F8FCFF"/>
<path d="M75.8847 118.157C77.2215 125.609 79.1183 133.141 80.3548 139.223H14.5398C15.4429 132.704 17.0451 124.492 17.9612 115.205C18.4594 110.324 18.6874 105.42 18.6441 100.513C18.5826 94.9783 17.7572 88.9092 17.0581 82.9695C15.1419 66.7302 14.1676 51.449 32.2584 50.6689C32.3069 50.6657 32.3587 50.6657 32.4137 50.6624H32.4176L32.6539 50.6527C33.0779 50.6398 33.6347 50.6301 34.3047 50.6204C34.3187 50.6187 34.3328 50.6187 34.3468 50.6204C34.3824 50.6171 34.4147 50.6171 34.4504 50.6171C34.4957 51.5785 35.9264 52.3132 38.1015 52.8214C38.1145 52.8247 38.1307 52.8279 38.1469 52.8311C42.7658 53.8993 50.6767 53.9511 55.7586 52.9768C55.8071 52.9703 55.8525 52.9606 55.901 52.9509C57.5033 52.6337 58.8142 52.2129 59.6299 51.6885C59.7714 51.599 59.9056 51.4983 60.0312 51.3875C60.3015 51.1696 60.4842 50.8617 60.5459 50.52C60.7628 50.52 60.9764 50.5233 61.19 50.5265C61.7953 50.5394 62.3909 50.5653 62.9735 50.6107C69.0329 51.0509 73.9789 53.116 76.9891 56.1263C85.0522 64.1893 80.7698 76.1592 77.3064 87.9349C76.1378 91.8903 75.0665 95.8231 74.5874 99.5811V99.5843C74.4968 100.283 74.4288 100.976 74.3835 101.662C74.3446 102.274 74.322 102.883 74.322 103.485C74.3213 108.011 74.9719 113.066 75.8847 118.157Z" fill="#EB8B76"/>
<path d="M34.3112 50.0885C34.5054 54.1847 36.7317 60.2098 43.6058 60.6639C52.7661 61.2673 59.871 54.1698 60.4073 49.9917H57.7942C54.4897 49.9917 39.6406 50.0312 36.7433 50.0587C35.8302 50.0678 35.0126 50.0775 34.3112 50.0885Z" fill="#FAA896"/>
<path d="M79.6165 118.559C80.2639 124.951 80.9566 131.943 81.6752 139.223H48.5233C48.5071 138.41 48.4974 137.601 48.4844 136.798C48.465 135.316 48.4478 133.848 48.4327 132.396C48.3712 126.398 48.3679 120.643 48.4521 115.215C48.4747 113.64 48.5049 112.092 48.5427 110.573C48.5621 109.874 48.5815 109.181 48.601 108.495C48.601 108.463 48.601 108.427 48.6042 108.395C48.7045 105.09 48.8459 101.94 49.0282 98.9433C49.1361 97.2472 49.257 95.6072 49.3908 94.0233C49.4555 93.2464 49.5256 92.4847 49.6012 91.738C50.6046 81.5678 53.3689 66.2186 55.0747 57.2428C55.3919 55.5629 55.6735 54.1063 55.9001 52.9507C55.9422 52.7436 55.981 52.5429 56.0166 52.3552C56.0393 52.2419 56.0619 52.1351 56.0814 52.0315V52.0282C56.3274 50.7821 56.473 50.0538 56.486 49.9955V49.9923C56.486 49.9923 57.7451 49.9049 59.6775 49.9178C60.1468 49.9178 60.6583 49.9275 61.2021 49.9469C61.7361 49.9631 62.2994 49.989 62.8885 50.0246C66.1965 50.235 70.2232 50.795 73.5377 52.1707C81.2156 55.359 84.0446 73.2523 86.9513 85.1996C86.9577 85.2222 86.961 85.2449 86.9675 85.2675L79.0533 112.985C79.2346 114.781 79.4223 116.639 79.6165 118.559Z" fill="white"/>
<path d="M56.4924 49.9441C56.4924 49.9441 48.5688 80.4395 48.5688 111.816L62.274 67.9569L57.8654 62.4196L64.0459 58.0499L62.8842 50.0127C60.8767 49.6043 56.4924 49.9441 56.4924 49.9441Z" fill="#F3F5FD"/>
<path d="M39.3206 92.1911C39.3206 93.1039 39.3141 94.2303 39.3044 95.5477C39.2817 97.6582 39.2461 100.261 39.1976 103.268C39.1652 105.456 39.1231 107.854 39.0746 110.441V110.444C39.0649 110.958 39.0552 111.48 39.0454 112.01C39.0357 112.509 39.026 113.017 39.0163 113.528C38.9063 119.352 38.7703 125.952 38.6182 133.001C38.5858 134.477 38.5534 135.972 38.5211 137.484C38.5081 138.061 38.4952 138.64 38.4822 139.223H10.9243C11.9503 130.082 12.9182 122.31 13.7759 115.836C15.4462 103.203 16.6923 95.5089 17.097 92.1911L7.52232 87.0024L7.25366 86.8568C7.25366 86.8568 15.6922 56.016 22.755 52.1706C25.8365 50.4939 30.0573 50.2544 32.5756 50.1411H32.5853C32.6112 50.1411 32.6403 50.1378 32.6662 50.1378C35.738 49.9987 37.9358 49.9922 37.9358 49.9922C37.9358 49.9922 37.9358 50.0116 37.9391 50.0505C37.952 50.2414 37.9909 50.892 38.0524 51.9278V51.9311C38.0588 52.0638 38.0686 52.2062 38.0783 52.3551C38.088 52.504 38.0945 52.6594 38.1009 52.8212C38.1883 54.3199 38.2951 56.3623 38.4181 58.8126V58.8159C38.4991 60.5023 38.5832 62.3829 38.6706 64.4124C38.7159 65.5194 38.7645 66.675 38.8066 67.8661C38.8098 67.8694 38.8098 67.8694 38.8066 67.8726C38.9296 71.0609 39.0429 74.5146 39.1335 78.1011V78.1043C39.1529 78.9167 39.1723 79.7357 39.1917 80.5611C39.272 84.3819 39.3206 88.3101 39.3206 92.1911Z" fill="white"/>
<path d="M37.9407 49.9441C37.9407 49.9441 40.5625 83.9852 39.1134 110.637L30.7853 67.9569L34.7802 63.0026L29.7705 59.2154L32.5908 50.0943L37.9407 49.9441Z" fill="#F3F5FD"/>
<path d="M42.7682 113.465C42.7682 113.465 26.6402 114.936 20.4827 105.694C20.3261 105.458 20.2441 105.181 20.2475 104.898C20.251 104.615 20.3397 104.34 20.5021 104.108C20.6645 103.877 20.893 103.699 21.1577 103.6C21.4224 103.5 21.7111 103.482 21.9859 103.549C27.6317 104.932 39.3663 107.323 39.1623 103.258L48.1042 106.013L42.7682 113.465Z" fill="#FAA896"/>
<path d="M86.2902 119.225C87.5453 119.225 88.7833 118.934 89.9069 118.375C91.0305 117.815 92.0092 117.003 92.766 116.002C93.5229 115.001 94.0373 113.838 94.269 112.604C94.5006 111.371 94.4431 110.1 94.1011 108.893L86.3792 82.7803L71.7331 89.5129L75.1997 101.751L42.3133 98.2224L40.5815 114.368L85.423 119.178C85.711 119.209 86.0005 119.225 86.2902 119.225Z" fill="white"/>
<path d="M8.29142 116.575C8.6984 116.575 9.10481 116.544 9.50719 116.483L60.0038 108.84L57.5739 92.785L20.6449 98.3731L25.2037 85.963L9.26119 80.1072L0.670243 105.656C0.219648 106.883 0.0719809 108.201 0.239794 109.497C0.407607 110.793 0.885939 112.03 1.63413 113.102C2.38233 114.174 3.37827 115.049 4.5373 115.654C5.69633 116.259 6.98419 116.574 8.29142 116.575Z" fill="white"/>
<path d="M57.9296 94.8183C57.9296 94.8183 66.4626 94.2146 69.7651 101.122L58.5177 100.102L57.9296 94.8183Z" fill="#FAA896"/>
<path d="M60.7484 68.8346L61.2058 49.8359L59.6802 49.8123L59.152 68.7569L60.7484 68.8346Z" fill="#0CBC8B"/>
<path d="M32.3281 62.1868L32.6674 50.1369L34.311 50.0884L34.1346 62.2056C36.0245 62.4423 37.7631 63.3603 39.0246 64.7873C40.286 66.2144 40.9837 68.0525 40.9867 69.9572V79.3098H39.1822V69.9572C39.188 69.1638 39.0368 68.3772 38.7372 67.6426C38.4376 66.9079 37.9956 66.2398 37.4367 65.6768C36.8778 65.1137 36.2129 64.6669 35.4805 64.3619C34.7481 64.057 33.9626 63.9 33.1692 63.9C32.3759 63.9 31.5903 64.057 30.8579 64.3619C30.1255 64.6669 29.4607 65.1137 28.9017 65.6768C28.3428 66.2398 27.9008 66.9079 27.6013 67.6426C27.3017 68.3772 27.1505 69.1638 27.1563 69.9572V79.3098H25.3521V69.9572C25.3546 68.0304 26.0677 66.1723 27.3549 64.7386C28.642 63.3048 30.4128 62.3963 32.3281 62.1868Z" fill="#0CBC8B"/>
<path d="M60.0042 73.6793C61.9356 73.6793 63.5013 72.1136 63.5013 70.1822C63.5013 68.2508 61.9356 66.6851 60.0042 66.6851C58.0728 66.6851 56.5071 68.2508 56.5071 70.1822C56.5071 72.1136 58.0728 73.6793 60.0042 73.6793Z" fill="#0CBC8B"/>
<path d="M40.102 80.8583C40.9572 80.8583 41.6505 80.165 41.6505 79.3097C41.6505 78.4545 40.9572 77.7612 40.102 77.7612C39.2468 77.7612 38.5535 78.4545 38.5535 79.3097C38.5535 80.165 39.2468 80.8583 40.102 80.8583Z" fill="#0CBC8B"/>
<path d="M26.3051 80.8583C27.1603 80.8583 27.8536 80.165 27.8536 79.3097C27.8536 78.4545 27.1603 77.7612 26.3051 77.7612C25.4499 77.7612 24.7566 78.4545 24.7566 79.3097C24.7566 80.165 25.4499 80.8583 26.3051 80.8583Z" fill="#0CBC8B"/>
<path d="M80.1029 155.988C90.9964 155.988 99.8273 147.157 99.8273 136.264C99.8273 125.37 90.9964 116.539 80.1029 116.539C69.2094 116.539 60.3784 125.37 60.3784 136.264C60.3784 147.157 69.2094 155.988 80.1029 155.988Z" fill="#F3F5FD"/>
<path d="M79.8972 128.851L82.3294 133.664L87.6663 134.486L83.8484 138.174L84.8127 143.446L80.0205 140.913L75.2795 143.349L76.136 138.095L72.2417 134.329L77.5628 133.616L79.8972 128.851Z" fill="#F7C516"/>
</svg>
