<svg width="122" height="137" viewBox="0 0 122 137" fill="none" xmlns="http://www.w3.org/2000/svg">
<path d="M104.411 0.482422H12.5017C9.38551 0.485922 6.39795 1.72234 4.19447 3.9204C1.991 6.11847 0.751548 9.09868 0.748047 12.2072V119.862C0.751549 122.971 1.99099 125.951 4.19447 128.149C6.39795 130.347 9.38551 131.583 12.5017 131.587H104.411C107.527 131.583 110.514 130.347 112.718 128.149C114.921 125.951 116.161 122.971 116.164 119.862V12.2072C116.161 9.09868 114.921 6.11847 112.718 3.9204C110.514 1.72234 107.527 0.485922 104.411 0.482422Z" fill="#E6E6E6"/>
<path d="M104.41 3.85742H12.5009C10.2818 3.8599 8.1543 4.74038 6.58515 6.30567C5.01599 7.87096 4.13335 9.99324 4.13086 12.2069V119.862C4.13335 122.075 5.01599 124.198 6.58515 125.763C8.1543 127.328 10.2818 128.209 12.5009 128.211H104.41C106.629 128.209 108.756 127.328 110.326 125.763C111.895 124.198 112.777 122.075 112.78 119.862V12.2069C112.777 9.99326 111.895 7.87099 110.326 6.3057C108.756 4.74041 106.629 3.85993 104.41 3.85742Z" fill="white"/>
<path d="M78.0215 51.8926H72.1548L74.6882 44.8276L69.4659 42.8926L66.2215 51.8926H38.0215V56.3926L42.4659 69.8926L38.0215 83.3926V87.8926H78.0215V83.3926L73.577 69.8926L78.0215 56.3926V51.8926ZM69.3548 71.3101L73.3326 83.3926H42.7104L46.6882 71.3101L47.1548 69.8926L46.6882 68.4751L42.7104 56.3926H73.3326L69.3548 68.4751L68.8882 69.8926L69.3548 71.3101ZM60.2437 60.8926H55.7993V67.6426H49.1326V72.1426H55.7993V78.8926H60.2437V72.1426H66.9104V67.6426H60.2437V60.8926Z" fill="#CCCCCC"/>
<path d="M99.7957 136.103C111.645 136.103 121.252 126.521 121.252 114.7C121.252 102.879 111.645 93.2969 99.7957 93.2969C87.946 93.2969 78.3398 102.879 78.3398 114.7C78.3398 126.521 87.946 136.103 99.7957 136.103Z" fill="#EB8B76"/>
<path d="M100.341 105.285L109.126 120.464H91.5556L100.341 105.285ZM89.5373 119.297C88.639 120.849 89.759 122.797 91.5556 122.797H109.126C110.922 122.797 112.042 120.849 111.144 119.297L102.359 104.119C101.461 102.567 99.2206 102.567 98.3223 104.119L89.5373 119.297ZM99.174 111.13V113.464C99.174 114.105 99.699 114.63 100.341 114.63C100.982 114.63 101.507 114.105 101.507 113.464V111.13C101.507 110.489 100.982 109.964 100.341 109.964C99.699 109.964 99.174 110.489 99.174 111.13ZM99.174 116.964H101.507V119.297H99.174V116.964Z" fill="white"/>
</svg>
