<svg width="66" height="138" viewBox="0 0 66 138" fill="none" xmlns="http://www.w3.org/2000/svg">
<path d="M46.8581 133.417L43.3201 133.816L42.0154 125.792L45.5534 125.394L46.8581 133.417Z" fill="#FFC3BD"/>
<path d="M62.6983 134.191H59.1654L58.2856 126.009H61.8185L62.6983 134.191Z" fill="#FFC3BD"/>
<path d="M58.8748 133.78H63.1815C63.2516 133.78 63.3195 133.804 63.3742 133.847C63.4289 133.891 63.4671 133.952 63.4824 134.021L64.1801 137.161C64.1965 137.238 64.1954 137.317 64.1768 137.393C64.1583 137.469 64.1228 137.54 64.0731 137.6C64.0234 137.661 63.9607 137.709 63.8896 137.742C63.8186 137.775 63.7411 137.791 63.6628 137.79C62.2769 137.766 61.2688 137.684 59.5212 137.684C58.4473 137.684 55.2086 137.796 53.726 137.796C52.2725 137.796 52.0493 136.329 52.6564 136.197C55.3787 135.598 57.4299 134.78 58.2994 133.997C58.4576 133.856 58.6627 133.778 58.8748 133.78Z" fill="#263238"/>
<path d="M43.2623 133.21L47.0961 132.776C47.1658 132.767 47.2361 132.783 47.2955 132.821C47.3549 132.858 47.3998 132.914 47.4227 132.981L48.4701 136.022C48.4965 136.096 48.5057 136.174 48.4971 136.252C48.4885 136.33 48.4622 136.404 48.4203 136.47C48.3784 136.536 48.322 136.592 48.2553 136.633C48.1887 136.674 48.1136 136.699 48.0357 136.706C46.6506 136.839 44.6431 136.985 42.9057 137.182C40.8734 137.413 40.5348 137.957 38.1374 137.901C36.6839 137.867 36.3196 136.392 36.9293 136.277C39.7063 135.737 40.2432 135.317 42.45 133.585C42.6806 133.387 42.9619 133.257 43.2623 133.21Z" fill="#263238"/>
<path d="M46.3831 30.38C45.1963 31.3598 44.0284 32.2114 42.8203 33.0835C41.6122 33.9556 40.3784 34.7653 39.1087 35.551C37.839 36.3368 36.536 37.09 35.1697 37.774C33.773 38.4977 32.3188 39.1045 30.822 39.5884C30.4262 39.7149 30.0406 39.8192 29.596 39.9303C29.1612 40.0246 28.7217 40.0951 28.2792 40.1415C27.4832 40.227 26.7343 40.2655 25.9878 40.2997C24.5001 40.3681 23.0406 40.3664 21.5829 40.3561C18.6673 40.3211 15.7765 40.1809 12.8729 39.9244L12.8293 37.2739C15.6808 36.9071 18.545 36.5899 21.3794 36.2709C22.7961 36.117 24.2094 35.9443 25.5903 35.7639C26.2743 35.6707 26.9583 35.5613 27.5893 35.4442C27.8605 35.3963 28.1288 35.3332 28.393 35.2552C28.6418 35.1697 28.947 35.0722 29.2292 34.9585C30.4409 34.4666 31.6171 33.8912 32.7492 33.2365C33.9214 32.5636 35.0945 31.8412 36.247 31.0734C37.3996 30.3056 38.547 29.5104 39.6841 28.699C40.8213 27.8876 41.9576 27.0284 43.0246 26.2195L46.3831 30.38Z" fill="#FFC3BD"/>
<path d="M49.8359 27.36C49.328 30.6997 42.2965 35.8083 42.2965 35.8083L37.252 29.5471C39.4618 27.1888 41.8049 24.959 44.2698 22.8687C46.5399 21.0133 50.3882 23.7263 49.8359 27.36Z" fill="#98A2B3"/>
<path d="M13.8025 37.5534L11.7966 36.1256L11.5769 40.6366C11.8801 40.6374 12.1789 40.5639 12.4472 40.4226C12.7154 40.2813 12.945 40.0765 13.1159 39.826L13.8025 37.5534Z" fill="#FFC3BD"/>
<path d="M9.98388 34.8122L9.57349 39.2334L11.5776 40.6365L11.7973 36.1255L9.98388 34.8122Z" fill="#FFC3BD"/>
<path opacity="0.2" d="M42.0171 125.795L42.6891 129.931L46.228 129.532L45.556 125.397L42.0171 125.795Z" fill="black"/>
<path opacity="0.2" d="M61.8202 126.009H58.2856L58.7405 130.226H62.2751L61.8202 126.009Z" fill="black"/>
<path d="M61.8707 22.9753C62.1339 23.0343 62.3825 23.1453 62.6021 23.3019C62.8217 23.4584 63.0078 23.6573 63.1493 23.8869C63.2909 24.1164 63.3851 24.3719 63.4265 24.6384C63.4678 24.9049 63.4554 25.1769 63.3901 25.4386C62.6235 28.6205 62.0456 31.8449 61.6595 35.095C61.3252 37.831 61.1252 40.4447 61.0003 42.8139C60.7071 48.3672 60.8293 52.6003 60.6635 54.035C57.9009 53.8435 47.4904 53.1193 41.8141 52.7226C39.898 37.7224 42.1432 28.1498 43.4044 24.2604C43.5975 23.6543 43.9588 23.1156 44.4462 22.7069C44.9336 22.2982 45.527 22.0364 46.1575 21.9519C46.8808 21.857 47.7461 21.7655 48.6592 21.7116C48.979 21.6911 49.303 21.68 49.6331 21.6731C52.3129 21.7049 54.9886 21.891 57.647 22.2306C58.1515 22.2904 58.661 22.3648 59.1569 22.4443C60.1479 22.6102 61.0901 22.8009 61.8707 22.9753Z" fill="#D0D5DD"/>
<path d="M57.4835 13.1564C56.7995 15.6992 55.9633 20.388 57.6477 22.2348C53.2786 25.1735 50.4896 29.3108 49.685 28.4122C49.2635 27.942 49.0805 22.4999 49.6346 21.6756C52.5578 21.19 52.6322 19.0516 52.2714 17.0133L57.4835 13.1564Z" fill="#FFC3BD"/>
<path d="M57.3089 21.1806C57.3089 21.1806 50.1893 24.3312 49.2454 31.3765C51.2067 29.1056 55.5391 26.6346 55.5391 26.6346L53.6281 26.0857C54.8433 25.6245 56.1016 25.2859 57.3841 25.0751C57.1721 24.1021 58.3024 22.1612 58.3024 22.1612L57.3089 21.1806Z" fill="#98A2B3"/>
<path d="M50.8852 21.0669C50.8852 21.0669 51.8342 25.0906 49.2461 31.3766C48.7359 29.1826 48.0361 27.037 47.1548 24.964L48.8981 25.4386C48.8981 25.4386 48.8126 24.6272 47.401 23.5482C47.9893 22.6937 48.7229 21.9492 49.5685 21.3482L50.8852 21.0669Z" fill="#98A2B3"/>
<path opacity="0.2" d="M55.3585 14.7304L52.2737 17.0115C52.3651 17.4862 52.4146 17.968 52.4216 18.4514C53.5331 18.3659 55.1234 17.2689 55.3209 16.1275C55.4179 15.6679 55.4306 15.1945 55.3585 14.7304Z" fill="black"/>
<path d="M48.4361 5.79305C46.7133 5.86744 45.7625 8.83772 47.511 11.2839C49.2595 13.7301 50.7574 5.69302 48.4361 5.79305Z" fill="#263238"/>
<path d="M56.9331 8.40663C57.1374 11.907 57.435 13.9445 55.8943 15.9392C53.5772 18.9394 49.097 17.8638 47.8512 14.4951C46.7303 11.4633 46.5841 6.2486 49.8177 4.45737C50.5291 4.05859 51.3306 3.84835 52.146 3.84661C52.9615 3.84488 53.7639 4.05171 54.4769 4.44746C55.1899 4.84321 55.7899 5.41472 56.2198 6.10768C56.6497 6.80065 56.8952 7.59203 56.9331 8.40663Z" fill="#FFC3BD"/>
<path d="M57.4464 11.0967C56.5104 10.548 55.693 9.81859 55.0417 8.95092C54.3904 8.08326 53.9182 7.09469 53.6527 6.04277C52.6267 6.28559 47.5129 8.63856 45.9406 6.04277C44.3682 3.44698 46.3467 1.92423 49.2888 3.52223C47.9875 1.22569 49.1708 0.102209 53.2594 0.00302817C57.348 -0.0961522 56.7983 2.27392 56.7983 2.27392C56.7983 2.27392 59.8934 0.926434 60.9878 3.29992C62.2558 6.02738 59.9165 10.6846 57.4464 11.0967Z" fill="#263238"/>
<path d="M56.0989 1.64743C56.1365 1.64743 57.6473 2.01081 59.3881 0.258907C59.076 1.75345 56.3725 2.74868 56.3725 2.74868L56.0989 1.64743Z" fill="#263238"/>
<path d="M58.1306 6.76768C56.5001 6.20423 54.5259 8.61962 55.2552 11.536C55.9845 14.4524 60.3271 7.52692 58.1306 6.76768Z" fill="#263238"/>
<path d="M59.0531 11.3183C58.9038 12.1876 58.4162 12.9623 57.697 13.4729C56.7386 14.1416 55.875 13.3772 55.816 12.2708C55.7664 11.2756 56.2042 9.72802 57.3217 9.49974C57.5669 9.4539 57.8197 9.47009 58.0571 9.54681C58.2945 9.62354 58.509 9.75838 58.681 9.93907C58.853 10.1198 58.9772 10.3406 59.0422 10.5815C59.1071 10.8223 59.1109 11.0756 59.0531 11.3183Z" fill="#FFC3BD"/>
<path d="M47.1263 92.526C47.9753 82.1925 54.2032 53.5866 54.2032 53.5866L41.8108 52.7222C41.8108 52.7222 37.0322 81.1177 36.6662 91.8942C36.2849 103.099 40.7916 128.002 40.7916 128.002L46.7347 127.326C46.7347 127.326 46.2739 102.902 47.1263 92.526Z" fill="#EB8B76"/>
<path opacity="0.5" d="M47.1263 92.526C47.9753 82.1925 54.2032 53.5866 54.2032 53.5866L41.8108 52.7222C41.8108 52.7222 37.0322 81.1177 36.6662 91.8942C36.2849 103.099 40.7916 128.002 40.7916 128.002L46.7347 127.326C46.7347 127.326 46.2739 102.902 47.1263 92.526Z" fill="#EB8B76"/>
<path opacity="0.2" d="M49.5354 63.2743C47.0371 66.4686 46.9926 77.6871 47.9587 85.9755C48.8796 79.9965 50.3305 72.4032 51.6019 66.0736L49.5354 63.2743Z" fill="black"/>
<path d="M48.4983 53.1888C48.4983 53.1888 49.8355 83.4346 51.3275 93.6775C52.9605 104.894 57.1082 129.41 57.1082 129.41H63.5788C63.5788 129.41 62.5143 106.32 61.6602 95.2995C60.6881 82.7472 60.6616 54.037 60.6616 54.037L48.4983 53.1888Z" fill="#EB8B76"/>
<path opacity="0.5" d="M48.4983 53.1888C48.4983 53.1888 49.8355 83.4346 51.3275 93.6775C52.9605 104.894 57.1082 129.41 57.1082 129.41H63.5788C63.5788 129.41 62.5143 106.32 61.6602 95.2995C60.6881 82.7472 60.6616 54.037 60.6616 54.037L48.4983 53.1888Z" fill="#EB8B76"/>
<path d="M56.3304 129.547H63.9493V127.271L55.4326 127.123L56.3304 129.547Z" fill="#DF6D51"/>
<path d="M40.5325 128.672L47.6154 127.869L47.3589 125.58L39.427 126.357L40.5325 128.672Z" fill="#DF6D51"/>
<path d="M51.7791 10.0113C51.8133 10.2943 51.6936 10.5414 51.5055 10.5636C51.3174 10.5859 51.1429 10.3747 51.1096 10.0917C51.0763 9.80865 51.1951 9.56156 51.3832 9.53933C51.5713 9.5171 51.7457 9.72829 51.7791 10.0113Z" fill="#263238"/>
<path d="M48.5821 10.3954C48.6163 10.6784 48.4967 10.9255 48.3086 10.9478C48.1205 10.97 47.946 10.7588 47.9118 10.4758C47.8776 10.1928 47.9973 9.94569 48.1854 9.92346C48.3735 9.90123 48.5479 10.1158 48.5821 10.3954Z" fill="#263238"/>
<path d="M49.6149 10.4144C49.3815 11.3197 49.0247 12.1885 48.5547 12.9966C48.7644 13.1115 48.9968 13.1792 49.2354 13.195C49.4741 13.2108 49.7133 13.1743 49.9364 13.088L49.6149 10.4144Z" fill="#ED847E"/>
<path d="M52.6478 8.85807C52.6181 8.86703 52.5864 8.86771 52.5563 8.86003C52.5261 8.85235 52.4987 8.83659 52.4768 8.81447C52.3354 8.65897 52.1592 8.53917 51.9626 8.46486C51.766 8.39056 51.5546 8.36387 51.3457 8.38696C51.3021 8.39432 51.2574 8.38453 51.2209 8.35967C51.1844 8.33481 51.159 8.2968 51.1499 8.25359C51.1454 8.23194 51.1454 8.20962 51.1497 8.18796C51.154 8.16629 51.1627 8.14572 51.1751 8.12746C51.1876 8.1092 51.2035 8.09362 51.2221 8.08165C51.2407 8.06969 51.2615 8.06157 51.2832 8.05779C51.5469 8.02362 51.815 8.05332 52.0648 8.14438C52.3146 8.23544 52.5389 8.3852 52.7188 8.58105C52.7494 8.61289 52.7664 8.65533 52.7664 8.69947C52.7664 8.74361 52.7494 8.78604 52.7188 8.81788C52.6989 8.83701 52.6745 8.85082 52.6478 8.85807Z" fill="#263238"/>
<path d="M51.4196 14.2165C51.823 14.1317 52.2002 13.9509 52.5191 13.6896C52.838 13.4283 53.0893 13.0941 53.2519 12.7151C53.2598 12.6925 53.2584 12.6676 53.248 12.6459C53.2375 12.6243 53.219 12.6077 53.1963 12.5997C53.1736 12.5918 53.1487 12.5932 53.1271 12.6036C53.1054 12.614 53.0888 12.6326 53.0809 12.6553C52.9252 13.0038 52.6898 13.3109 52.3936 13.5518C52.0975 13.7927 51.7489 13.9606 51.376 14.0421C51.3645 14.0447 51.3536 14.0496 51.344 14.0565C51.3343 14.0633 51.3262 14.072 51.3199 14.082C51.3136 14.092 51.3094 14.1031 51.3074 14.1148C51.3054 14.1264 51.3058 14.1383 51.3084 14.1498C51.3111 14.1613 51.316 14.1722 51.3228 14.1818C51.3296 14.1915 51.3383 14.1997 51.3483 14.2059C51.3583 14.2122 51.3695 14.2164 51.3811 14.2184C51.3927 14.2204 51.4047 14.22 51.4162 14.2174L51.4196 14.2165Z" fill="#263238"/>
<path d="M47.0775 9.46036C47.0439 9.47157 47.0076 9.47157 46.974 9.46036C46.9326 9.44507 46.8988 9.41438 46.8795 9.3747C46.8602 9.33503 46.857 9.28944 46.8706 9.24746C46.9507 8.99385 47.0909 8.76333 47.2792 8.57548C47.4675 8.38763 47.6983 8.248 47.9521 8.16845C47.9951 8.15873 48.0401 8.16593 48.0778 8.18855C48.1155 8.21116 48.1431 8.24744 48.1548 8.28986C48.1645 8.33266 48.1574 8.37756 48.135 8.41528C48.1126 8.453 48.0765 8.48065 48.0342 8.4925C47.8347 8.55904 47.6538 8.67203 47.5065 8.82217C47.3592 8.9723 47.2497 9.15529 47.1869 9.35605C47.1779 9.38066 47.1633 9.40287 47.1443 9.42096C47.1254 9.43905 47.1025 9.45252 47.0775 9.46036Z" fill="#263238"/>
<path d="M57.7107 134.396C57.4689 134.415 57.2277 134.352 57.0267 134.216C56.9641 134.162 56.9158 134.093 56.886 134.016C56.8561 133.939 56.8458 133.856 56.8557 133.774C56.8556 133.725 56.8689 133.677 56.8943 133.635C56.9196 133.593 56.956 133.559 56.9994 133.537C57.3918 133.335 58.5298 134.036 58.6581 134.117C58.6721 134.126 58.6832 134.139 58.6901 134.154C58.6969 134.169 58.6992 134.186 58.6966 134.202C58.6938 134.218 58.6863 134.234 58.6751 134.246C58.6638 134.258 58.6493 134.267 58.6333 134.271C58.3314 134.347 58.022 134.389 57.7107 134.396ZM57.1857 133.665C57.1484 133.664 57.1113 133.671 57.0772 133.686C57.0599 133.695 57.0457 133.71 57.0363 133.727C57.0269 133.745 57.0227 133.764 57.0242 133.784C57.0165 133.84 57.0229 133.897 57.0428 133.95C57.0626 134.003 57.0953 134.05 57.1379 134.088C57.5326 134.268 57.9813 134.29 58.3922 134.151C58.0239 133.912 57.6127 133.747 57.1815 133.665H57.1857Z" fill="#98A2B3"/>
<path d="M58.6108 134.273C58.5968 134.273 58.583 134.269 58.5706 134.263C58.2055 134.064 57.4984 133.29 57.5728 132.895C57.585 132.833 57.6182 132.778 57.6666 132.737C57.7151 132.697 57.7759 132.675 57.8387 132.675C57.9024 132.667 57.9669 132.673 58.0283 132.691C58.0897 132.71 58.1466 132.741 58.1953 132.783C58.6057 133.119 58.6903 134.138 58.6929 134.181C58.6939 134.196 58.691 134.211 58.6844 134.224C58.6778 134.238 58.6678 134.249 58.6553 134.258C58.6422 134.267 58.6268 134.272 58.6108 134.273ZM57.8977 132.841H57.8593C57.7507 132.855 57.7413 132.904 57.737 132.926C57.6925 133.159 58.1431 133.744 58.5065 134.02C58.4825 133.616 58.3371 133.228 58.0892 132.908C58.0354 132.864 57.9675 132.84 57.8977 132.841Z" fill="#98A2B3"/>
<path d="M42.9749 133.732L42.9612 133.738C42.408 133.915 41.418 134.165 40.9947 133.87C40.9322 133.826 40.8812 133.769 40.8461 133.701C40.8109 133.634 40.7927 133.559 40.793 133.483C40.7896 133.437 40.7981 133.391 40.8178 133.35C40.8374 133.308 40.8674 133.273 40.905 133.246C41.3025 132.967 42.7962 133.516 42.9655 133.581C42.98 133.587 42.9925 133.597 43.0015 133.61C43.0106 133.623 43.0159 133.638 43.0169 133.654C43.0179 133.67 43.0145 133.685 43.0071 133.699C42.9997 133.713 42.9885 133.725 42.9749 133.733V133.732ZM41.0229 133.369L41.0033 133.381C40.988 133.392 40.9759 133.406 40.9683 133.423C40.9608 133.439 40.9581 133.458 40.9605 133.476C40.9595 133.526 40.9707 133.576 40.9934 133.621C41.0161 133.666 41.0494 133.704 41.0905 133.733C41.6103 133.895 42.1712 133.865 42.6705 133.647C42.1531 133.418 41.5862 133.322 41.0221 133.369H41.0229Z" fill="#98A2B3"/>
<path d="M42.975 133.732C42.9548 133.742 42.9315 133.744 42.91 133.737C42.4654 133.595 41.542 132.931 41.5591 132.527C41.5633 132.432 41.6172 132.308 41.8429 132.26C41.9244 132.242 42.0088 132.24 42.0908 132.256C42.1729 132.271 42.2509 132.304 42.32 132.35C42.6825 132.697 42.9266 133.148 43.0177 133.641C43.0206 133.656 43.0198 133.671 43.0153 133.685C43.0108 133.698 43.0028 133.711 42.9921 133.721C42.9868 133.725 42.981 133.729 42.975 133.732ZM41.7856 132.458C41.7284 132.489 41.7267 132.525 41.7258 132.538C41.7138 132.781 42.3517 133.313 42.8142 133.523C42.7288 133.129 42.5243 132.771 42.2285 132.497C42.178 132.462 42.1207 132.438 42.0604 132.427C42 132.415 41.9379 132.416 41.878 132.43C41.846 132.435 41.815 132.444 41.7856 132.458Z" fill="#98A2B3"/>
<path d="M64.8511 28.0716C64.7614 29.4515 64.5989 30.7366 64.4305 32.0636C64.262 33.3905 64.0354 34.691 63.7866 36.0034C63.2944 38.684 62.5674 41.3162 61.6141 43.8695L61.1943 44.8587L61.0883 45.1058L61.0617 45.1674L61.0181 45.2614L60.895 45.5051C60.7322 45.8012 60.5369 46.0782 60.3128 46.331C59.9442 46.7458 59.5132 47.1006 59.0354 47.3827C58.6484 47.613 58.2425 47.8101 57.8221 47.9718C56.4218 48.4769 54.9574 48.7826 53.4719 48.8798C50.7747 49.0813 48.0634 48.98 45.3887 48.578L45.4853 45.9275L47.3543 45.7163C47.981 45.6419 48.6043 45.5453 49.2242 45.4598C50.4614 45.2776 51.6858 45.0742 52.8528 44.8031C53.9323 44.5834 54.9817 44.2355 55.9787 43.7669C56.2476 43.6539 56.483 43.4741 56.6627 43.2445C56.6739 43.1838 56.5388 43.4497 56.6978 43.0247L56.9774 42.2073C57.6622 39.8641 58.1861 37.4768 58.5455 35.0621C58.7464 33.8326 58.9182 32.592 59.0841 31.3479C59.25 30.1039 59.3868 28.8342 59.5176 27.6415L64.8511 28.0716Z" fill="#FFC3BD"/>
<path d="M65.1586 25.5096C66.8883 28.4107 65.4152 37.5284 65.4152 37.5284L56.3521 35.8535C56.3521 35.8535 55.8614 30.6379 57.5867 26.6246C59.4601 22.2563 63.063 21.9947 65.1586 25.5096Z" fill="#98A2B3"/>
<path d="M42.9471 54.1275L38.1377 31.7572C37.9068 30.8019 37.3717 29.9476 36.6129 29.323C35.8542 28.6984 34.9129 28.3374 33.9311 28.2944H15.5032C16.4852 28.3372 17.4266 28.6981 18.1855 29.3228C18.9445 29.9474 19.4798 30.8018 19.7106 31.7572L24.52 54.1275C24.7509 55.0828 25.286 55.9371 26.0448 56.5617C26.8036 57.1863 27.7448 57.5473 28.7267 57.5903H47.1537C46.1719 57.5473 45.2306 57.1863 44.4718 56.5617C43.7131 55.9371 43.1779 55.0828 42.9471 54.1275Z" fill="#263238"/>
<path opacity="0.7" d="M42.9471 54.1275L38.1377 31.7572C37.9068 30.8019 37.3717 29.9476 36.6129 29.323C35.8542 28.6984 34.9129 28.3374 33.9311 28.2944H15.5032C16.4852 28.3372 17.4266 28.6981 18.1855 29.3228C18.9445 29.9474 19.4798 30.8018 19.7106 31.7572L24.52 54.1275C24.7509 55.0828 25.286 55.9371 26.0448 56.5617C26.8036 57.1863 27.7448 57.5473 28.7267 57.5903H47.1537C46.1719 57.5473 45.2306 57.1863 44.4718 56.5617C43.7131 55.9371 43.1779 55.0828 42.9471 54.1275Z" fill="#98A2B3"/>
<path d="M15.5038 28.2944H33.9309C32.9874 28.3121 32.0829 28.6738 31.3873 29.3114C30.6917 29.9491 30.2529 30.8188 30.1535 31.7572L25.3731 83.7414C25.2735 84.6797 24.8347 85.5494 24.1391 86.187C23.4436 86.8246 22.5391 87.1863 21.5957 87.2042H10.0942C9.65119 87.2124 9.21151 87.1259 8.80464 86.9504C8.39776 86.7749 8.03307 86.5145 7.73499 86.1866C7.43692 85.8587 7.21234 85.471 7.07629 85.0493C6.94023 84.6276 6.89584 84.1817 6.9461 83.7414L11.7273 31.7572C11.8267 30.819 12.2653 29.9493 12.9608 29.3117C13.6562 28.6741 14.5605 28.3123 15.5038 28.2944Z" fill="#98A2B3"/>
<path d="M18.4472 83.7402C18.397 84.1805 18.4413 84.6264 18.5774 85.0481C18.7135 85.4698 18.938 85.8576 19.2361 86.1854C19.5342 86.5133 19.8989 86.7737 20.3057 86.9492C20.7126 87.1247 21.1523 87.2112 21.5953 87.203H3.1683C2.72523 87.2113 2.28549 87.1249 1.87855 86.9495C1.4716 86.774 1.10685 86.5136 0.808748 86.1857C0.510644 85.8578 0.286068 85.47 0.150066 85.0482C0.0140644 84.6265 -0.0302241 84.1805 0.0201769 83.7402H18.4472Z" fill="#263238"/>
<path opacity="0.7" d="M18.4472 83.7402C18.397 84.1805 18.4413 84.6264 18.5774 85.0481C18.7135 85.4698 18.938 85.8576 19.2361 86.1854C19.5342 86.5133 19.8989 86.7737 20.3057 86.9492C20.7126 87.1247 21.1523 87.2112 21.5953 87.203H3.1683C2.72523 87.2113 2.28549 87.1249 1.87855 86.9495C1.4716 86.774 1.10685 86.5136 0.808748 86.1857C0.510644 85.8578 0.286068 85.47 0.150066 85.0482C0.0140644 84.6265 -0.0302241 84.1805 0.0201769 83.7402H18.4472Z" fill="#98A2B3"/>
<g opacity="0.5">
<path opacity="0.5" d="M26.9603 34.1186H14.4909C14.3946 34.12 14.2992 34.1008 14.2109 34.0624C14.1226 34.024 14.0434 33.9672 13.9788 33.8959C13.9141 33.8246 13.8653 33.7403 13.8357 33.6487C13.806 33.5571 13.7962 33.4602 13.8069 33.3645C13.8291 33.1604 13.9248 32.9713 14.0761 32.8325C14.2275 32.6938 14.4241 32.6148 14.6294 32.6104H27.0971C27.1934 32.6091 27.2888 32.6283 27.3771 32.6667C27.4654 32.7051 27.5446 32.7618 27.6092 32.8331C27.6739 32.9045 27.7227 32.9887 27.7524 33.0803C27.782 33.172 27.7918 33.2688 27.7811 33.3645C27.759 33.5684 27.6635 33.7572 27.5125 33.896C27.3615 34.0347 27.1653 34.1138 26.9603 34.1186Z" fill="white"/>
<path opacity="0.5" d="M26.589 38.1982H14.1196C14.0233 38.1995 13.9279 38.1804 13.8396 38.142C13.7513 38.1036 13.6721 38.0468 13.6074 37.9755C13.5427 37.9042 13.494 37.8199 13.4643 37.7283C13.4347 37.6367 13.4249 37.5398 13.4356 37.4441C13.4578 37.24 13.5534 37.0509 13.7048 36.9121C13.8561 36.7733 14.0528 36.6944 14.2581 36.69H26.7275C26.8238 36.6887 26.9192 36.7078 27.0075 36.7462C27.0958 36.7846 27.1749 36.8414 27.2396 36.9127C27.3043 36.984 27.3531 37.0683 27.3827 37.1599C27.4124 37.2515 27.4222 37.3484 27.4115 37.4441C27.3895 37.6483 27.2939 37.8375 27.1425 37.9763C26.9911 38.1151 26.7943 38.194 26.589 38.1982Z" fill="white"/>
<path opacity="0.5" d="M23.1615 42.277H13.7487C13.6525 42.2783 13.557 42.2591 13.4687 42.2207C13.3804 42.1823 13.3013 42.1256 13.2366 42.0543C13.1719 41.9829 13.1231 41.8987 13.0935 41.807C13.0639 41.7154 13.0541 41.6185 13.0647 41.5229C13.0869 41.3187 13.1826 41.1296 13.3339 40.9909C13.4853 40.8521 13.682 40.7732 13.8873 40.7687H23.3C23.3963 40.7674 23.4917 40.7866 23.58 40.825C23.6683 40.8634 23.7475 40.9201 23.8121 40.9915C23.8768 41.0628 23.9256 41.1471 23.9552 41.2387C23.9849 41.3303 23.9947 41.4272 23.984 41.5229C23.9618 41.727 23.8661 41.9161 23.7148 42.0549C23.5634 42.1936 23.3668 42.2726 23.1615 42.277Z" fill="white"/>
<path opacity="0.5" d="M16.5699 46.3551H13.3781C13.2819 46.3564 13.1864 46.3372 13.0981 46.2988C13.0098 46.2604 12.9307 46.2036 12.866 46.1323C12.8013 46.061 12.7525 45.9767 12.7229 45.8851C12.6932 45.7935 12.6835 45.6966 12.6941 45.6009C12.7161 45.3969 12.8116 45.2078 12.9628 45.069C13.114 44.9302 13.3106 44.8512 13.5158 44.8468H16.7084C16.8047 44.8455 16.9001 44.8647 16.9884 44.9031C17.0767 44.9415 17.1558 44.9982 17.2205 45.0695C17.2852 45.1409 17.334 45.2251 17.3636 45.3167C17.3933 45.4084 17.4031 45.5052 17.3924 45.6009C17.3702 45.8051 17.2745 45.9942 17.1232 46.1329C16.9718 46.2717 16.7752 46.3506 16.5699 46.3551Z" fill="white"/>
<path opacity="0.5" d="M25.4754 50.4346H13.0026C12.9064 50.436 12.8109 50.4168 12.7226 50.3784C12.6343 50.34 12.5552 50.2832 12.4905 50.2119C12.4258 50.1406 12.377 50.0563 12.3474 49.9647C12.3178 49.8731 12.308 49.7762 12.3186 49.6805C12.3408 49.4764 12.4365 49.2873 12.5879 49.1485C12.7392 49.0098 12.9359 48.9308 13.1412 48.9264H25.6105C25.7068 48.9251 25.8023 48.9443 25.8906 48.9827C25.9789 49.0211 26.058 49.0778 26.1227 49.1491C26.1874 49.2204 26.2362 49.3047 26.2658 49.3963C26.2954 49.488 26.3052 49.5848 26.2945 49.6805C26.2724 49.8841 26.1773 50.0727 26.0266 50.2114C25.876 50.3501 25.6801 50.4294 25.4754 50.4346Z" fill="white"/>
<path opacity="0.5" d="M20.1947 54.5134H12.6364C12.5401 54.5147 12.4447 54.4955 12.3564 54.4571C12.2681 54.4187 12.189 54.362 12.1243 54.2907C12.0596 54.2193 12.0108 54.1351 11.9812 54.0435C11.9515 53.9518 11.9418 53.855 11.9524 53.7593C11.9744 53.5552 12.0699 53.3661 12.2211 53.2273C12.3723 53.0886 12.5689 53.0096 12.7741 53.0052H20.3323C20.4286 53.0038 20.5241 53.023 20.6124 53.0614C20.7007 53.0998 20.7798 53.1566 20.8445 53.2279C20.9092 53.2992 20.9579 53.3835 20.9876 53.4751C21.0172 53.5667 21.027 53.6636 21.0163 53.7593C20.9942 53.9633 20.8986 54.1522 20.7474 54.291C20.5963 54.4297 20.3998 54.5088 20.1947 54.5134Z" fill="white"/>
<path opacity="0.5" d="M24.7345 58.5921H12.2651C12.1688 58.5934 12.0733 58.5743 11.985 58.5359C11.8967 58.4975 11.8176 58.4407 11.7529 58.3694C11.6882 58.2981 11.6395 58.2138 11.6098 58.1222C11.5802 58.0306 11.5704 57.9337 11.5811 57.838C11.6033 57.6339 11.699 57.4448 11.8503 57.306C12.0017 57.1672 12.1983 57.0883 12.4036 57.0839H24.8738C24.9701 57.0826 25.0656 57.1018 25.1539 57.1402C25.2422 57.1786 25.3213 57.2353 25.386 57.3066C25.4507 57.3779 25.4995 57.4622 25.5291 57.5538C25.5587 57.6454 25.5685 57.7423 25.5578 57.838C25.5356 58.0423 25.4398 58.2315 25.2883 58.3703C25.1368 58.5091 24.9399 58.5879 24.7345 58.5921Z" fill="white"/>
<path opacity="0.5" d="M21.307 62.671H11.8943C11.798 62.6724 11.7025 62.6532 11.6142 62.6148C11.5259 62.5764 11.4468 62.5197 11.3821 62.4483C11.3174 62.377 11.2686 62.2927 11.239 62.2011C11.2094 62.1095 11.1996 62.0126 11.2102 61.9169C11.2324 61.7128 11.3281 61.5237 11.4795 61.3849C11.6308 61.2462 11.8275 61.1672 12.0328 61.1628H21.4455C21.5418 61.1615 21.6372 61.1807 21.7255 61.2191C21.8138 61.2575 21.893 61.3142 21.9577 61.3855C22.0223 61.4569 22.0711 61.5411 22.1007 61.6327C22.1304 61.7244 22.1402 61.8212 22.1295 61.9169C22.1073 62.1211 22.0116 62.3102 21.8603 62.4489C21.7089 62.5877 21.5123 62.6666 21.307 62.671Z" fill="white"/>
<path opacity="0.5" d="M14.7155 66.7498H11.5212C11.4249 66.7511 11.3295 66.7319 11.2412 66.6935C11.1529 66.6551 11.0737 66.5984 11.009 66.5271C10.9444 66.4557 10.8956 66.3715 10.8659 66.2799C10.8363 66.1882 10.8265 66.0914 10.8372 65.9957C10.8594 65.7915 10.9551 65.6024 11.1064 65.4637C11.2578 65.3249 11.4544 65.246 11.6597 65.2416H14.8557C14.952 65.2402 15.0475 65.2594 15.1358 65.2978C15.2241 65.3362 15.3032 65.3929 15.3679 65.4643C15.4326 65.5356 15.4813 65.6199 15.511 65.7115C15.5406 65.8031 15.5504 65.9 15.5397 65.9957C15.5175 66.2001 15.4216 66.3894 15.2699 66.5282C15.1182 66.667 14.9211 66.7458 14.7155 66.7498Z" fill="white"/>
<path opacity="0.5" d="M23.6214 70.8294H11.1521C11.0558 70.8307 10.9603 70.8115 10.872 70.7731C10.7837 70.7347 10.7046 70.678 10.6399 70.6066C10.5752 70.5353 10.5264 70.4511 10.4968 70.3594C10.4672 70.2678 10.4574 70.171 10.4681 70.0753C10.4902 69.8711 10.5859 69.682 10.7373 69.5433C10.8886 69.4045 11.0853 69.3255 11.2906 69.3211H23.7599C23.8562 69.3198 23.9517 69.339 24.04 69.3774C24.1283 69.4158 24.2074 69.4725 24.2721 69.5439C24.3368 69.6152 24.3856 69.6994 24.4152 69.7911C24.4448 69.8827 24.4546 69.9796 24.4439 70.0753C24.4218 70.2794 24.3261 70.4685 24.1747 70.6072C24.0234 70.746 23.8267 70.825 23.6214 70.8294Z" fill="white"/>
<path opacity="0.5" d="M18.3394 74.9083H10.7812C10.6849 74.9096 10.5895 74.8904 10.5012 74.852C10.4129 74.8136 10.3337 74.7569 10.2691 74.6856C10.2044 74.6142 10.1556 74.53 10.126 74.4384C10.0963 74.3467 10.0865 74.2499 10.0972 74.1542C10.1192 73.95 10.2148 73.7608 10.3662 73.622C10.5176 73.4832 10.7144 73.4043 10.9197 73.4001H18.4771C18.5734 73.3987 18.6688 73.4179 18.7571 73.4563C18.8454 73.4947 18.9246 73.5515 18.9893 73.6228C19.054 73.6941 19.1027 73.7784 19.1324 73.87C19.162 73.9616 19.1718 74.0585 19.1611 74.1542C19.139 74.3582 19.0434 74.5472 18.8922 74.6859C18.7411 74.8246 18.5446 74.9037 18.3394 74.9083Z" fill="white"/>
<path opacity="0.5" d="M22.879 78.987H10.4096C10.3134 78.9884 10.2179 78.9692 10.1296 78.9308C10.0413 78.8924 9.96216 78.8356 9.89747 78.7643C9.83278 78.693 9.78399 78.6087 9.75437 78.5171C9.72474 78.4255 9.71494 78.3286 9.72563 78.2329C9.74779 78.0288 9.84349 77.8397 9.99484 77.7009C10.1462 77.5622 10.3429 77.4832 10.5481 77.4788H23.0158C23.1121 77.4775 23.2075 77.4967 23.2958 77.5351C23.3841 77.5735 23.4633 77.6302 23.528 77.7015C23.5927 77.7729 23.6414 77.8571 23.6711 77.9487C23.7007 78.0404 23.7105 78.1372 23.6998 78.2329C23.6777 78.4368 23.5822 78.6256 23.4312 78.7644C23.2802 78.9031 23.084 78.9822 22.879 78.987Z" fill="white"/>
</g>
<path d="M46.5715 46.2162L43.8645 43.8641L42.5957 48.1938C42.5957 48.1938 45.3454 49.6849 46.2979 48.3161L46.5715 46.2162Z" fill="#FFC3BD"/>
<path d="M40.9156 43.6945L40.0349 47.3232L42.5931 48.1953L43.8619 43.8647L40.9156 43.6945Z" fill="#FFC3BD"/>
</svg>
