<svg width="210" height="143" viewBox="0 0 210 143" fill="none" xmlns="http://www.w3.org/2000/svg">
<path d="M199.5 115.116C199.505 116.018 199.152 116.886 198.518 117.527C197.885 118.168 197.023 118.531 196.123 118.536H47.5201C47.0743 118.533 46.6333 118.443 46.2222 118.27C45.8112 118.097 45.4382 117.844 45.1246 117.527C44.8109 117.209 44.5628 116.833 44.3943 116.42C44.2258 116.006 44.1403 115.563 44.1426 115.116V13.4194C44.1379 12.5172 44.4911 11.6501 45.1245 11.0089C45.7579 10.3676 46.6196 10.0047 47.5201 10H196.122C197.023 10.0047 197.885 10.3676 198.518 11.0088C199.151 11.6501 199.505 12.5171 199.5 13.4193V115.116Z" fill="#E6E6E6"/>
<path d="M197.747 113.451C197.747 114.328 197.4 115.169 196.781 115.789C196.162 116.409 195.322 116.757 194.447 116.757H49.2976C48.4224 116.757 47.583 116.409 46.9641 115.789C46.3452 115.169 45.9976 114.328 45.9976 113.451V15.1315C45.9976 14.2546 46.3452 13.4136 46.9641 12.7936C47.583 12.1735 48.4224 11.8252 49.2976 11.8252H194.454C195.328 11.827 196.166 12.1761 196.783 12.7959C197.4 13.4158 197.747 14.2558 197.747 15.1315V113.451Z" fill="white"/>
<path d="M53.7547 16.0938H190.144C190.663 16.0938 191.162 16.3005 191.529 16.6685C191.896 17.0366 192.103 17.5358 192.103 18.0562V110.145C192.103 110.665 191.896 111.164 191.529 111.532C191.162 111.9 190.663 112.107 190.144 112.107H53.7547C53.2352 112.107 52.737 111.9 52.3696 111.532C52.0023 111.164 51.7959 110.665 51.7959 110.145V18.0562C51.7959 17.5358 52.0023 17.0366 52.3696 16.6685C52.737 16.3005 53.2352 16.0938 53.7547 16.0938Z" fill="#E6E6E6"/>
<path d="M55.4812 18.3022H188.269C188.789 18.3022 189.287 18.509 189.654 18.877C190.022 19.2451 190.228 19.7443 190.228 20.2647V107.439C190.228 107.96 190.022 108.459 189.654 108.827C189.287 109.195 188.789 109.402 188.269 109.402H55.4812C54.9617 109.402 54.4635 109.195 54.0962 108.827C53.7288 108.459 53.5225 107.96 53.5225 107.439V20.2647C53.5225 19.7443 53.7288 19.2451 54.0962 18.877C54.4635 18.509 54.9617 18.3022 55.4812 18.3022Z" fill="white"/>
<path d="M165.857 129.087C165.862 129.989 165.509 130.856 164.876 131.497C164.242 132.138 163.38 132.501 162.48 132.506H13.8776C12.9771 132.501 12.1154 132.138 11.482 131.497C10.8486 130.856 10.4954 129.989 10.5 129.087V27.3896C10.4953 26.4874 10.8485 25.6204 11.4819 24.9791C12.1153 24.3378 12.977 23.9749 13.8775 23.9702H162.48C162.926 23.9725 163.367 24.0628 163.778 24.2359C164.189 24.409 164.562 24.6615 164.875 24.979C165.189 25.2965 165.437 25.6728 165.606 26.0864C165.774 26.5 165.86 26.9428 165.857 27.3895V129.087Z" fill="#E6E6E6"/>
<path d="M164.105 127.421C164.105 128.298 163.757 129.139 163.138 129.759C162.519 130.379 161.68 130.728 160.805 130.728H15.655C14.7798 130.728 13.9404 130.379 13.3215 129.759C12.7027 129.139 12.355 128.298 12.355 127.421V29.1017C12.355 28.2248 12.7027 27.3839 13.3215 26.7638C13.9404 26.1438 14.7798 25.7954 15.655 25.7954H160.811C161.685 25.7972 162.523 26.1463 163.14 26.7662C163.758 27.386 164.105 28.226 164.105 29.1017V127.421Z" fill="white"/>
<path d="M20.1126 30.064H156.502C157.021 30.064 157.52 30.2707 157.887 30.6388C158.254 31.0068 158.461 31.506 158.461 32.0265V124.115C158.461 124.635 158.254 125.135 157.887 125.503C157.52 125.871 157.021 126.077 156.502 126.077H20.1126C19.5931 126.077 19.0949 125.871 18.7275 125.503C18.3602 125.135 18.1538 124.635 18.1538 124.115V32.0265C18.1538 31.506 18.3602 31.0068 18.7275 30.6388C19.0949 30.2707 19.5931 30.064 20.1126 30.064Z" fill="#E6E6E6"/>
<path d="M21.8387 32.2725H154.627C155.146 32.2725 155.645 32.4792 156.012 32.8473C156.379 33.2153 156.586 33.7145 156.586 34.235V121.409C156.586 121.93 156.379 122.429 156.012 122.797C155.645 123.165 155.146 123.372 154.627 123.372H21.8387C21.3192 123.372 20.8209 123.165 20.4536 122.797C20.0863 122.429 19.8799 121.93 19.8799 121.409V34.235C19.8799 33.7145 20.0863 33.2153 20.4536 32.8473C20.8209 32.4792 21.3192 32.2725 21.8387 32.2725Z" fill="white"/>
<path d="M119.971 51.1565V111.473C119.971 111.825 119.831 112.164 119.582 112.413C119.333 112.663 118.995 112.803 118.643 112.803H55.5633C55.2112 112.803 54.8736 112.663 54.6246 112.413C54.3756 112.164 54.2356 111.825 54.2354 111.473V44.0605C54.2356 43.7077 54.3756 43.3694 54.6246 43.12C54.8736 42.8705 55.2112 42.7303 55.5633 42.73H110.675L119.971 51.1565Z" fill="#EB8B76"/>
<path d="M64.817 71.1666C64.5991 71.1703 64.3913 71.2597 64.2385 71.4154C64.0856 71.5711 64 71.7808 64 71.9992C64 72.2176 64.0856 72.4272 64.2385 72.5829C64.3913 72.7387 64.5991 72.828 64.817 72.8317H86.7299C86.8393 72.834 86.9481 72.8146 87.05 72.7746C87.1519 72.7347 87.2449 72.6749 87.3237 72.5988C87.4025 72.5228 87.4656 72.4318 87.5092 72.3313C87.5529 72.2307 87.5763 72.1225 87.578 72.0129C87.5798 71.9033 87.56 71.7944 87.5197 71.6924C87.4794 71.5905 87.4193 71.4975 87.3431 71.4189C87.2668 71.3403 87.1758 71.2775 87.0752 71.2342C86.9747 71.1909 86.8666 71.1679 86.7572 71.1666C86.7481 71.1665 86.739 71.1665 86.7299 71.1666H64.817Z" fill="white"/>
<path d="M64.8171 78.9762C64.5991 78.9799 64.3913 79.0692 64.2385 79.2249C64.0857 79.3807 64 79.5903 64 79.8087C64 80.0271 64.0857 80.2368 64.2385 80.3925C64.3913 80.5483 64.5991 80.6376 64.8171 80.6413H108.199C108.419 80.644 108.631 80.5594 108.789 80.4059C108.946 80.2524 109.037 80.0426 109.041 79.8224C109.044 79.6021 108.96 79.3894 108.808 79.2308C108.655 79.0722 108.446 78.9807 108.226 78.9762C108.217 78.976 108.208 78.976 108.199 78.9762H64.8171Z" fill="white"/>
<path d="M64.8171 86.7862C64.5991 86.7899 64.3913 86.8793 64.2385 87.035C64.0857 87.1907 64 87.4004 64 87.6188C64 87.8372 64.0857 88.0469 64.2385 88.2026C64.3913 88.3583 64.5991 88.4477 64.8171 88.4514H108.199C108.309 88.4536 108.417 88.4342 108.519 88.3942C108.621 88.3542 108.714 88.2944 108.793 88.2184C108.872 88.1423 108.935 88.0514 108.978 87.9508C109.022 87.8503 109.045 87.7421 109.047 87.6325C109.049 87.5229 109.029 87.414 108.989 87.3121C108.948 87.2102 108.888 87.1173 108.812 87.0386C108.736 86.96 108.645 86.8972 108.544 86.8539C108.444 86.8106 108.336 86.7876 108.226 86.7862C108.217 86.7861 108.208 86.7861 108.199 86.7862H64.8171Z" fill="white"/>
<path d="M64.817 94.5958C64.5991 94.5995 64.3913 94.6889 64.2385 94.8446C64.0856 95.0003 64 95.21 64 95.4284C64 95.6468 64.0856 95.8564 64.2385 96.0121C64.3913 96.1679 64.5991 96.2572 64.817 96.2609H108.199C108.308 96.2632 108.417 96.2438 108.519 96.2038C108.621 96.1638 108.714 96.1041 108.793 96.028C108.872 95.9519 108.935 95.861 108.978 95.7605C109.022 95.6599 109.045 95.5517 109.047 95.4421C109.049 95.3325 109.029 95.2236 108.989 95.1216C108.949 95.0197 108.889 94.9267 108.812 94.8481C108.736 94.7695 108.645 94.7067 108.544 94.6634C108.444 94.6201 108.336 94.5971 108.226 94.5958C108.217 94.5957 108.208 94.5957 108.199 94.5958H64.817Z" fill="white"/>
<path d="M119.971 51.1565H111.561C111.326 51.1565 111.101 51.063 110.935 50.8967C110.769 50.7304 110.675 50.5047 110.675 50.2695V42.73L119.971 51.1565Z" fill="#F8F8F8"/>
<path opacity="0.2" d="M119.971 51.1565H111.561C111.326 51.1565 111.101 51.063 110.935 50.8967C110.769 50.7304 110.675 50.5047 110.675 50.2695V42.73L119.971 51.1565Z" fill="#EB8B76"/>
<path d="M72.2207 60.0818L70.9191 58.7893L72.2207 57.4877L73.5132 58.7893L74.8057 57.4877L73.5132 56.1952L74.8057 54.9027L76.1074 56.1952L77.3999 54.9027L74.8057 52.3085L68.3249 58.7893L70.9191 61.3835L72.2207 60.0818ZM64.8232 63.5835L67.6832 60.7327L65.7399 58.7893L74.8057 49.7143L76.7582 51.6668L78.0416 50.3652L76.7582 49.0635L78.0416 47.771L81.9374 51.6668L80.6449 52.9502L79.3432 51.6668L78.0416 52.9502L79.9941 54.9027L70.9191 63.9685L68.9757 62.0252L64.8232 66.1868V63.5835Z" fill="#F8F8F8"/>
</svg>
