<svg width="250" height="201" viewBox="0 0 250 201" fill="none" xmlns="http://www.w3.org/2000/svg">
<rect width="250" height="200" transform="translate(0 0.444458)" fill="#F8F8F8"/>
<path d="M125 165.444C160.899 165.444 190 136.343 190 100.444C190 64.546 160.899 35.4445 125 35.4445C89.1015 35.4445 60 64.546 60 100.444C60 136.343 89.1015 165.444 125 165.444Z" fill="#E2E8F0"/>
<path d="M100.5 66.757V61.563C100.5 59.3518 102.209 57.5695 104.328 57.5695C106.447 57.5695 108.156 59.3518 108.156 61.563V66.757H100.5ZM138.781 110.244C138.781 109.676 139.007 109.131 139.409 108.729C139.811 108.327 140.356 108.101 140.925 108.101H148.887C149.456 108.101 150.001 108.327 150.403 108.729C150.805 109.131 151.031 109.676 151.031 110.244V118.207C151.031 118.776 150.805 119.321 150.403 119.723C150.001 120.125 149.456 120.351 148.887 120.351H140.925C140.356 120.351 139.811 120.125 139.409 119.723C139.007 119.321 138.781 118.776 138.781 118.207V110.244ZM98.9688 94.932C98.9688 94.3634 99.1946 93.8181 99.5966 93.4161C99.9987 93.0141 100.544 92.7882 101.112 92.7882H109.075C109.644 92.7882 110.189 93.0141 110.591 93.4161C110.993 93.8181 111.219 94.3634 111.219 94.932V102.894C111.219 103.463 110.993 104.008 110.591 104.41C110.189 104.812 109.644 105.038 109.075 105.038H101.112C100.544 105.038 99.9987 104.812 99.5966 104.41C99.1946 104.008 98.9688 103.463 98.9688 102.894V94.932ZM102.031 95.8507V101.976H108.156V95.8507H102.031ZM118.875 94.932C118.875 94.3634 119.101 93.8181 119.503 93.4161C119.905 93.0141 120.45 92.7882 121.019 92.7882H128.981C129.55 92.7882 130.095 93.0141 130.497 93.4161C130.899 93.8181 131.125 94.3634 131.125 94.932V102.894C131.125 103.463 130.899 104.008 130.497 104.41C130.095 104.812 129.55 105.038 128.981 105.038H121.019C120.45 105.038 119.905 104.812 119.503 104.41C119.101 104.008 118.875 103.463 118.875 102.894V94.932ZM121.938 95.8507V101.976H128.062V95.8507H121.938ZM138.781 94.932C138.781 94.3634 139.007 93.8181 139.409 93.4161C139.811 93.0141 140.356 92.7882 140.925 92.7882H148.887C149.456 92.7882 150.001 93.0141 150.403 93.4161C150.805 93.8181 151.031 94.3634 151.031 94.932V102.894C151.031 103.463 150.805 104.008 150.403 104.41C150.001 104.812 149.456 105.038 148.887 105.038H140.925C140.356 105.038 139.811 104.812 139.409 104.41C139.007 104.008 138.781 103.463 138.781 102.894V94.932ZM141.844 95.8507V101.976H147.969V95.8507H141.844ZM98.9688 110.244C98.9688 109.676 99.1946 109.131 99.5966 108.729C99.9987 108.327 100.544 108.101 101.112 108.101H109.075C109.644 108.101 110.189 108.327 110.591 108.729C110.993 109.131 111.219 109.676 111.219 110.244V118.207C111.219 118.776 110.993 119.321 110.591 119.723C110.189 120.125 109.644 120.351 109.075 120.351H101.112C100.544 120.351 99.9987 120.125 99.5966 119.723C99.1946 119.321 98.9688 118.776 98.9688 118.207V110.244ZM102.031 111.163V117.288H108.156V111.163H102.031ZM118.875 110.244C118.875 109.676 119.101 109.131 119.503 108.729C119.905 108.327 120.45 108.101 121.019 108.101H128.981C129.55 108.101 130.095 108.327 130.497 108.729C130.899 109.131 131.125 109.676 131.125 110.244V118.207C131.125 118.776 130.899 119.321 130.497 119.723C130.095 120.125 129.55 120.351 128.981 120.351H121.019C120.45 120.351 119.905 120.125 119.503 119.723C119.101 119.321 118.875 118.776 118.875 118.207V110.244ZM121.938 111.163V117.288H128.062V111.163H121.938ZM98.9688 125.557C98.9688 124.988 99.1946 124.443 99.5966 124.041C99.9987 123.639 100.544 123.413 101.112 123.413H109.075C109.644 123.413 110.189 123.639 110.591 124.041C110.993 124.443 111.219 124.988 111.219 125.557V133.519C111.219 134.088 110.993 134.633 110.591 135.035C110.189 135.437 109.644 135.663 109.075 135.663H101.112C100.544 135.663 99.9987 135.437 99.5966 135.035C99.1946 134.633 98.9688 134.088 98.9688 133.519V125.557ZM102.031 126.476V132.601H108.156V126.476H102.031ZM118.875 125.557C118.875 124.988 119.101 124.443 119.503 124.041C119.905 123.639 120.45 123.413 121.019 123.413H128.981C129.55 123.413 130.095 123.639 130.497 124.041C130.899 124.443 131.125 124.988 131.125 125.557V133.519C131.125 134.088 130.899 134.633 130.497 135.035C130.095 135.437 129.55 135.663 128.981 135.663H121.019C120.45 135.663 119.905 135.437 119.503 135.035C119.101 134.633 118.875 134.088 118.875 133.519V125.557ZM121.938 126.476V132.601H128.062V126.476H121.938Z" fill="#EB8B76"/>
<path d="M100.5 71.951C100.5 74.1621 102.209 75.9445 104.328 75.9445C106.447 75.9445 108.156 74.1621 108.156 71.951V66.757H141.844V71.951C141.844 74.1621 143.553 75.9445 145.672 75.9445C147.791 75.9445 149.5 74.1621 149.5 71.951V66.757H159.426C165.765 66.757 170.938 71.9357 170.938 78.3485V131.804C170.938 139.828 164.43 146.382 156.363 146.382H93.64C89.7758 146.375 86.0717 144.838 83.3393 142.105C80.6069 139.373 79.069 135.669 79.0625 131.804V78.3485C79.0625 71.9357 84.2381 66.7263 90.5744 66.757H100.5V71.951ZM85.1875 85.132V131.804C85.194 134.044 86.0861 136.189 87.6692 137.773C89.2523 139.357 91.3977 140.25 93.6369 140.257H144.937V135.663H140.925C140.356 135.663 139.811 135.437 139.409 135.035C139.007 134.633 138.781 134.088 138.781 133.519V125.557C138.781 124.988 139.007 124.443 139.409 124.041C139.811 123.639 140.356 123.413 140.925 123.413H148.887C149.095 123.413 149.301 123.443 149.5 123.502C151.858 121.468 154.869 120.35 157.983 120.351H164.812V85.132H85.1875ZM144.971 132.438C145.125 130.32 145.798 128.273 146.931 126.476H141.844V132.601H144.961L144.971 132.438ZM147.999 139.623L164.209 123.413H157.983C155.338 123.421 152.803 124.476 150.932 126.346C149.062 128.217 148.007 130.752 147.999 133.397V139.623Z" fill="#A0AEC0"/>
<path d="M141.844 61.563V66.757H149.5V61.563C149.5 59.3518 147.791 57.5695 145.672 57.5695C143.553 57.5695 141.844 59.3518 141.844 61.563Z" fill="#EB8B76"/>
</svg>
