<svg width="250" height="200" viewBox="0 0 250 200" fill="none" xmlns="http://www.w3.org/2000/svg">
<rect width="250" height="200" fill="#F8F8F8"/>
<path d="M125 165C160.899 165 190 135.899 190 100C190 64.1015 160.899 35 125 35C89.1015 35 60 64.1015 60 100C60 135.899 89.1015 165 125 165Z" fill="#E2E8F0"/>
<path d="M117.475 165.465L121.014 165.863L122.318 157.84L118.78 157.441L117.475 165.465Z" fill="#FFC3BD"/>
<path d="M101.635 166.238H105.168L106.048 158.057H102.515L101.635 166.238Z" fill="#FFC3BD"/>
<path d="M105.459 165.827H101.152C101.082 165.827 101.014 165.851 100.959 165.895C100.905 165.939 100.867 166 100.851 166.068L100.154 169.208C100.137 169.285 100.138 169.364 100.157 169.44C100.175 169.516 100.211 169.587 100.261 169.648C100.31 169.708 100.373 169.756 100.444 169.789C100.515 169.822 100.593 169.838 100.671 169.837C102.057 169.813 103.065 169.732 104.812 169.732C105.886 169.732 109.125 169.843 110.608 169.843C112.061 169.843 112.284 168.377 111.677 168.244C108.955 167.646 106.904 166.827 106.034 166.044C105.876 165.903 105.671 165.825 105.459 165.827Z" fill="#263238"/>
<path d="M121.071 165.257L117.237 164.823C117.168 164.815 117.097 164.831 117.038 164.868C116.979 164.905 116.934 164.962 116.911 165.028L115.863 168.069C115.837 168.143 115.828 168.222 115.836 168.299C115.845 168.377 115.871 168.452 115.913 168.518C115.955 168.584 116.012 168.639 116.078 168.68C116.145 168.721 116.22 168.746 116.298 168.753C117.683 168.887 119.69 169.032 121.428 169.23C123.46 169.46 123.799 170.004 126.196 169.949C127.65 169.914 128.014 168.44 127.404 168.324C124.627 167.785 124.09 167.365 121.883 165.633C121.653 165.434 121.372 165.304 121.071 165.257Z" fill="#263238"/>
<path d="M114.498 59.4074C115.006 62.747 122.037 67.8557 122.037 67.8557L127.082 61.5945C124.872 59.2361 122.529 57.0064 120.064 54.9161C117.794 53.0607 113.945 55.7736 114.498 59.4074Z" fill="#98A2B3"/>
<path opacity="0.2" d="M122.317 157.842L121.644 161.978L118.106 161.58L118.778 157.444L122.317 157.842Z" fill="black"/>
<path opacity="0.2" d="M102.514 158.057H106.048L105.593 162.274H102.059L102.514 158.057Z" fill="black"/>
<path d="M102.463 55.0226C102.2 55.0816 101.951 55.1927 101.732 55.3492C101.512 55.5058 101.326 55.7047 101.184 55.9342C101.043 56.1637 100.948 56.4192 100.907 56.6857C100.866 56.9522 100.878 57.2243 100.944 57.4859C101.71 60.6678 102.288 63.8922 102.674 67.1423C103.008 69.8783 103.208 72.4921 103.333 74.8613C103.627 80.4145 103.504 84.6476 103.67 86.0823C106.433 85.8908 116.843 85.1666 122.52 84.7699C124.436 69.7697 122.19 60.1971 120.929 56.3077C120.736 55.7016 120.375 55.1629 119.887 54.7542C119.4 54.3455 118.807 54.0837 118.176 53.9992C117.453 53.9043 116.588 53.8128 115.674 53.7589C115.355 53.7384 115.031 53.7273 114.701 53.7205C112.021 53.7522 109.345 53.9383 106.687 54.2779C106.182 54.3378 105.673 54.4122 105.177 54.4917C104.186 54.6575 103.244 54.8482 102.463 55.0226Z" fill="#D0D5DD"/>
<path d="M106.85 45.2039C107.534 47.7466 108.37 52.4355 106.686 54.2823C111.055 57.2209 113.844 61.3583 114.649 60.4597C115.07 59.9894 115.253 54.5473 114.699 53.7231C111.776 53.2375 111.702 51.0991 112.062 49.0608L106.85 45.2039Z" fill="#FFC3BD"/>
<path opacity="0.2" d="M108.975 46.7778L112.06 49.059C111.968 49.5337 111.919 50.0155 111.912 50.4988C110.8 50.4133 109.21 49.3163 109.013 48.1749C108.916 47.7153 108.903 47.242 108.975 46.7778Z" fill="black"/>
<path d="M114.037 49.4066C113.233 49.4158 112.432 49.2965 111.664 49.0532C111.417 48.9628 112.512 48.6548 112.512 48.6548C112.512 48.6548 114.596 47.8793 115.513 46.8705C116.882 45.3643 116.935 43.9054 116.986 41.8705C117.041 39.6476 116.513 38.3704 115.513 36.3704C114.513 34.3704 117.338 37.235 117.478 37.5371C118.684 40.2147 120.367 42.6502 122.445 44.724C122.491 44.7741 122.516 44.8402 122.513 44.908C122.511 44.9758 122.481 45.0399 122.432 45.0864C120.738 46.3649 118.8 48.2809 116.737 48.7774C115.907 48.9763 114.998 49.3359 114.037 49.4066Z" fill="#263238"/>
<path d="M107.401 40.4541C107.196 43.9545 106.899 45.9919 108.439 47.9867C110.756 50.9869 115.237 49.9113 116.482 46.5426C117.603 43.5107 117.749 38.296 114.516 36.5048C113.805 36.106 113.003 35.8958 112.188 35.8941C111.372 35.8923 110.57 36.0992 109.857 36.4949C109.144 36.8907 108.544 37.4622 108.114 38.1551C107.684 38.8481 107.438 39.6395 107.401 40.4541Z" fill="#FFC3BD"/>
<path d="M105.281 43.3658C105.43 44.2351 105.917 45.0098 106.637 45.5204C107.595 46.189 108.459 45.4247 108.518 44.3183C108.567 43.3231 108.129 41.7755 107.012 41.5472C106.767 41.5014 106.514 41.5176 106.276 41.5943C106.039 41.671 105.825 41.8058 105.653 41.9865C105.481 42.1672 105.356 42.3881 105.291 42.6289C105.226 42.8698 105.223 43.1231 105.281 43.3658Z" fill="#FFC3BD"/>
<path d="M117.207 124.573C116.358 114.24 110.13 85.6339 110.13 85.6339L122.523 84.7695C122.523 84.7695 127.301 113.165 127.667 123.942C128.049 135.146 123.542 160.049 123.542 160.049L117.599 159.373C117.599 159.373 118.06 134.95 117.207 124.573Z" fill="#EB8B76"/>
<path opacity="0.5" d="M117.207 124.573C116.358 114.24 110.13 85.6339 110.13 85.6339L122.523 84.7695C122.523 84.7695 127.301 113.165 127.667 123.942C128.049 135.146 123.542 160.049 123.542 160.049L117.599 159.373C117.599 159.373 118.06 134.95 117.207 124.573Z" fill="#EB8B76"/>
<path opacity="0.2" d="M114.798 95.3218C117.296 98.5161 117.341 109.735 116.375 118.023C115.454 112.044 114.003 104.451 112.732 98.1211L114.798 95.3218Z" fill="black"/>
<path d="M115.835 85.2361C115.835 85.2361 114.498 115.482 113.006 125.725C111.373 136.942 107.226 161.457 107.226 161.457H100.755C100.755 161.457 101.819 138.367 102.674 127.347C103.646 114.794 103.672 86.0843 103.672 86.0843L115.835 85.2361Z" fill="#EB8B76"/>
<path opacity="0.5" d="M115.835 85.2361C115.835 85.2361 114.498 115.482 113.006 125.725C111.373 136.942 107.226 161.457 107.226 161.457H100.755C100.755 161.457 101.819 138.367 102.674 127.347C103.646 114.794 103.672 86.0843 103.672 86.0843L115.835 85.2361Z" fill="#EB8B76"/>
<path d="M112.554 42.0588C112.52 42.3418 112.64 42.5889 112.828 42.6111C113.016 42.6333 113.191 42.4221 113.224 42.1391C113.257 41.8561 113.138 41.609 112.95 41.5868C112.762 41.5646 112.588 41.7758 112.554 42.0588Z" fill="#263238"/>
<path d="M115.751 42.4428C115.717 42.7258 115.837 42.9729 116.025 42.9951C116.213 43.0173 116.388 42.8062 116.422 42.5232C116.456 42.2402 116.336 41.9931 116.148 41.9708C115.96 41.9486 115.786 42.1632 115.751 42.4428Z" fill="#263238"/>
<path d="M114.719 42.4619C114.952 43.3671 115.309 44.236 115.779 45.044C115.569 45.159 115.337 45.2267 115.098 45.2425C114.859 45.2583 114.62 45.2218 114.397 45.1355L114.719 42.4619Z" fill="#ED847E"/>
<path d="M111.686 40.9053C111.715 40.9143 111.747 40.915 111.777 40.9073C111.807 40.8996 111.835 40.8839 111.857 40.8617C111.998 40.7063 112.174 40.5864 112.371 40.5121C112.568 40.4378 112.779 40.4111 112.988 40.4342C113.031 40.4416 113.076 40.4318 113.113 40.407C113.149 40.3821 113.175 40.3441 113.184 40.3009C113.188 40.2792 113.188 40.2569 113.184 40.2352C113.179 40.2136 113.171 40.193 113.158 40.1747C113.146 40.1565 113.13 40.1409 113.111 40.1289C113.093 40.117 113.072 40.1088 113.05 40.1051C112.787 40.0709 112.518 40.1006 112.269 40.1917C112.019 40.2827 111.795 40.4325 111.615 40.6283C111.584 40.6602 111.567 40.7026 111.567 40.7467C111.567 40.7909 111.584 40.8333 111.615 40.8652C111.635 40.8843 111.659 40.8981 111.686 40.9053Z" fill="#263238"/>
<path d="M112.914 46.264C112.511 46.1791 112.133 45.9984 111.815 45.7371C111.496 45.4757 111.244 45.1415 111.082 44.7626C111.074 44.7399 111.075 44.715 111.086 44.6934C111.096 44.6717 111.115 44.6551 111.137 44.6472C111.16 44.6392 111.185 44.6406 111.207 44.6511C111.228 44.6615 111.245 44.6801 111.253 44.7027C111.408 45.0513 111.644 45.3584 111.94 45.5993C112.236 45.8402 112.585 46.0081 112.958 46.0896C112.969 46.0922 112.98 46.0971 112.99 46.1039C112.999 46.1108 113.007 46.1194 113.014 46.1294C113.02 46.1394 113.024 46.1506 113.026 46.1622C113.028 46.1739 113.028 46.1858 113.025 46.1973C113.023 46.2088 113.018 46.2197 113.011 46.2293C113.004 46.2389 112.995 46.2471 112.985 46.2534C112.975 46.2597 112.964 46.2639 112.953 46.2659C112.941 46.2678 112.929 46.2675 112.917 46.2648L112.914 46.264Z" fill="#263238"/>
<path d="M117.256 41.5078C117.29 41.519 117.326 41.519 117.36 41.5078C117.401 41.4925 117.435 41.4618 117.454 41.4221C117.473 41.3825 117.477 41.3369 117.463 41.2949C117.383 41.0413 117.243 40.8108 117.054 40.6229C116.866 40.4351 116.635 40.2954 116.381 40.2159C116.339 40.2062 116.294 40.2134 116.256 40.236C116.218 40.2586 116.191 40.2949 116.179 40.3373C116.169 40.3801 116.176 40.425 116.199 40.4627C116.221 40.5004 116.257 40.5281 116.299 40.5399C116.499 40.6065 116.68 40.7195 116.827 40.8696C116.974 41.0197 117.084 41.2027 117.147 41.4035C117.156 41.4281 117.17 41.4503 117.189 41.4684C117.208 41.4865 117.231 41.5 117.256 41.5078Z" fill="#263238"/>
<path d="M106.623 166.444C106.865 166.463 107.106 166.399 107.307 166.263C107.37 166.209 107.418 166.141 107.448 166.064C107.478 165.987 107.488 165.903 107.478 165.821C107.478 165.772 107.465 165.724 107.439 165.683C107.414 165.641 107.378 165.607 107.334 165.584C106.942 165.383 105.804 166.084 105.676 166.164C105.662 166.173 105.651 166.186 105.644 166.201C105.637 166.216 105.635 166.233 105.637 166.25C105.64 166.266 105.647 166.281 105.659 166.293C105.67 166.305 105.684 166.314 105.7 166.318C106.002 166.394 106.312 166.436 106.623 166.444ZM107.148 165.713C107.185 165.711 107.222 165.718 107.257 165.733C107.274 165.743 107.288 165.757 107.297 165.775C107.307 165.792 107.311 165.812 107.31 165.832C107.317 165.888 107.311 165.945 107.291 165.998C107.271 166.051 107.238 166.098 107.196 166.135C106.801 166.315 106.352 166.338 105.942 166.198C106.31 165.959 106.721 165.794 107.152 165.713H107.148Z" fill="#98A2B3"/>
<path d="M105.723 166.32C105.737 166.32 105.751 166.317 105.763 166.31C106.128 166.112 106.835 165.337 106.761 164.942C106.749 164.88 106.715 164.825 106.667 164.785C106.619 164.745 106.558 164.723 106.495 164.722C106.431 164.715 106.367 164.72 106.305 164.739C106.244 164.757 106.187 164.788 106.138 164.83C105.728 165.166 105.643 166.185 105.641 166.228C105.64 166.243 105.643 166.258 105.649 166.272C105.656 166.285 105.666 166.297 105.678 166.305C105.691 166.314 105.707 166.319 105.723 166.32ZM106.436 164.888H106.474C106.583 164.902 106.592 164.951 106.597 164.974C106.641 165.206 106.191 165.791 105.827 166.067C105.851 165.663 105.997 165.276 106.244 164.956C106.298 164.911 106.366 164.887 106.436 164.888Z" fill="#98A2B3"/>
<path d="M121.359 165.779L121.372 165.785C121.926 165.962 122.916 166.213 123.339 165.917C123.401 165.874 123.452 165.816 123.488 165.749C123.523 165.681 123.541 165.606 123.541 165.53C123.544 165.485 123.535 165.439 123.516 165.397C123.496 165.356 123.466 165.32 123.429 165.294C123.031 165.014 121.537 165.564 121.368 165.628C121.354 165.634 121.341 165.644 121.332 165.657C121.323 165.67 121.318 165.685 121.317 165.701C121.316 165.717 121.319 165.733 121.327 165.747C121.334 165.76 121.345 165.772 121.359 165.78V165.779ZM123.311 165.417L123.33 165.429C123.346 165.439 123.358 165.453 123.365 165.47C123.373 165.487 123.376 165.505 123.373 165.524C123.374 165.574 123.363 165.623 123.34 165.668C123.318 165.713 123.284 165.751 123.243 165.78C122.723 165.942 122.162 165.912 121.663 165.695C122.181 165.465 122.747 165.369 123.312 165.417H123.311Z" fill="#98A2B3"/>
<path d="M121.359 165.78C121.379 165.79 121.402 165.792 121.424 165.785C121.868 165.643 122.792 164.978 122.775 164.575C122.77 164.48 122.716 164.356 122.491 164.307C122.409 164.289 122.325 164.288 122.243 164.303C122.161 164.319 122.083 164.351 122.014 164.398C121.651 164.744 121.407 165.196 121.316 165.689C121.313 165.703 121.314 165.718 121.318 165.732C121.323 165.746 121.331 165.758 121.342 165.768C121.347 165.773 121.353 165.776 121.359 165.78ZM122.548 164.506C122.605 164.536 122.607 164.572 122.608 164.586C122.62 164.829 121.982 165.361 121.519 165.571C121.605 165.177 121.809 164.819 122.105 164.545C122.156 164.51 122.213 164.486 122.273 164.474C122.334 164.463 122.396 164.464 122.456 164.477C122.488 164.482 122.519 164.492 122.548 164.506Z" fill="#98A2B3"/>
<path d="M99.1748 57.557C97.4452 60.458 98.9183 69.5758 98.9183 69.5758L107.981 67.9008C107.981 67.9008 108.472 62.6853 106.747 58.6719C104.873 54.3037 101.27 54.0421 99.1748 57.557Z" fill="#98A2B3"/>
<path d="M148.255 68.176C149.114 69.0734 154.909 65.2893 155.503 63.9895C155.503 63.9895 156.75 62.6567 156.25 61.1567C155.75 59.6567 154.018 60.1893 154.018 60.1893C152.331 61.1093 150.858 62.8646 149.099 63.9877C149.227 62.775 150.007 61.3176 149.713 60.2039C148.8 61.6389 146.758 66.6137 148.255 68.176Z" fill="#FFC3BD"/>
<path d="M118.601 53.1239C118.601 53.1239 123.308 53.559 125.359 57.6891L133.968 73.2396C133.968 73.2396 136.071 76.3248 131.516 79.0768C131.516 79.0768 122.043 72.0877 117.311 62.7279C117.311 62.7279 113.073 56.6862 118.309 53.1462" fill="white"/>
<path d="M110.732 116.804L111.034 79.5333L113.141 62.4117C109.434 54.6045 106.681 52.2408 106.681 52.2408C93.1683 56.069 96.4663 62.7625 96.4663 62.7625L100.605 80.9099L95.0336 114.122C95.0336 114.122 102.238 117.474 110.732 116.804Z" fill="white"/>
<path d="M124.44 65.8537L123.025 78.889L131.778 113.972C128.436 115.371 121.117 116.023 121.117 116.023L115.918 80.2253V62.444L112.367 52.0474C112.367 52.0474 114.828 52.2957 116.898 53.0304C116.897 53.0304 124.245 60.4916 124.44 65.8537Z" fill="white"/>
<path d="M133.067 80.7666C133.067 80.7666 136.913 80.1662 143.089 74.1364L149.253 68.8838C149.253 68.8838 149.411 65.6964 147.199 64.7299L129.759 75.6069C129.759 75.6069 127.741 77.5942 133.067 80.7666Z" fill="white"/>
<path d="M97.3552 60.7125L94.3759 79.7769C94.3759 79.7769 93.9242 81.7422 95.5282 81.8752C95.5282 81.8752 99.7899 81.8817 101.305 74.9551L105.82 62.2593C105.82 62.2593 107.737 53.2683 100.394 55.9207C100.394 55.9207 97.8404 57.0223 97.3552 60.7125Z" fill="#F7B6A0"/>
<path d="M102.961 54.4215C102.961 54.4215 98.1083 55.303 97.0345 59.5658L93.3336 81.4317C93.3336 81.4317 99.541 83.1422 102.405 75.5979L106.944 60.5376C106.944 60.5384 108.17 55.2731 102.961 54.4215Z" fill="white"/>
<path d="M93.3336 81.4317C93.3336 81.4317 98.7582 85.7567 106.045 81.4317L118.366 76.2286L117.326 72.8979L98.9438 76.2286C98.9438 76.2286 94.1691 77.1068 93.3336 81.4317Z" fill="white"/>
<path fill-rule="evenodd" clip-rule="evenodd" d="M99.4977 45.7322C103.41 41.8554 101.078 36.4202 103.58 33.79C104.053 33.2799 104.692 32.9544 105.383 32.8715C106.074 32.7886 106.772 32.9537 107.352 33.3374C109.28 30.2028 113.211 29.4442 116.559 30.4871C120.207 31.6239 121.514 36.0775 118.585 37.5108C117.051 38.2621 111.663 38.3259 109.979 37.9996C109.844 39.3943 109.322 40.7236 108.473 41.8377C108.386 41.9426 108.264 42.0879 108.119 41.9611C107.962 41.82 107.778 41.713 107.578 41.6467C107.378 41.5805 107.166 41.5566 106.956 41.5765C106.746 41.5964 106.543 41.6596 106.359 41.7622C106.175 41.8648 106.014 42.0046 105.887 42.1726C105.77 42.3456 105.688 42.54 105.646 42.7447C105.604 42.9494 105.603 43.1603 105.644 43.3653C105.684 43.5703 105.764 43.7654 105.879 43.9394C105.995 44.1134 106.144 44.2628 106.317 44.379C106.82 44.7119 107.179 44.6633 107.743 44.6349C107.919 44.6263 107.952 44.774 107.964 44.9089C108.138 46.8689 108.331 49.1054 108.032 51.0547C108.024 51.1088 107.996 51.1578 107.953 51.1912C107.909 51.2246 107.855 51.2398 107.801 51.2336C107.746 51.2274 107.696 51.2002 107.662 51.1579C107.627 51.1156 107.611 51.0614 107.615 51.007C107.611 50.4787 107.631 49.9504 107.648 49.4218C104.894 49.7299 101.406 48.1188 99.4895 46.2769C99.1858 45.9885 99.4031 45.826 99.4977 45.7322ZM114.317 32.3216C114.988 32.3096 115.653 32.4605 116.253 32.7614C116.92 33.0815 118.053 33.8772 117.976 34.7116C117.954 34.9617 118.313 35.1148 118.407 34.8568C118.857 33.6135 117.603 32.6421 116.767 32.1859C116.023 31.7795 115.188 31.5653 114.34 31.5626C113.255 31.5638 113.703 32.3476 114.317 32.3216Z" fill="#263238"/>
<path d="M117.728 75.3053C118.333 76.3666 125.047 76.015 127.026 74.2206C127.026 74.2206 127.834 73.0474 127.834 72.0474C127.834 71.0474 126.47 70.8521 126.47 70.8521C124.322 70.8457 122.511 72.6069 120.209 72.7295C120.66 70.4497 120.372 70.4497 119.766 70.4497C118.778 71.7013 117.309 74.5698 117.728 75.3053Z" fill="#FFC3BD"/>
</svg>
