<svg width="98" height="98" viewBox="0 0 98 98" fill="none" xmlns="http://www.w3.org/2000/svg">
<path d="M71.9022 78.4C70.6309 78.4 69.4116 78.9162 68.5127 79.8352C67.6137 80.7541 67.1087 82.0004 67.1087 83.3C67.1087 84.5996 66.6037 85.8459 65.7047 86.7648C64.8058 87.6838 63.5865 88.2 62.3152 88.2H14.3804C13.1091 88.2 11.8899 87.6838 10.9909 86.7648C10.092 85.8459 9.58696 84.5996 9.58696 83.3V14.7C9.58696 13.4004 10.092 12.1541 10.9909 11.2352C11.8899 10.3162 13.1091 9.8 14.3804 9.8H38.3478V24.5C38.3478 28.3987 39.8629 32.1377 42.5598 34.8945C45.2566 37.6513 48.9143 39.2 52.7283 39.2H67.1087V44.1C67.1087 45.3996 67.6137 46.6459 68.5127 47.5648C69.4116 48.4838 70.6309 49 71.9022 49C73.1735 49 74.3927 48.4838 75.2917 47.5648C76.1906 46.6459 76.6957 45.3996 76.6957 44.1V34.006C76.6457 33.5559 76.5493 33.1124 76.4081 32.683C76.4284 32.5367 76.4284 32.3883 76.4081 32.242C76.1776 31.7382 75.8701 31.2751 75.4973 30.87L46.7364 1.47C46.3402 1.08886 45.8871 0.774597 45.3942 0.538999H44.9149C44.4627 0.291212 43.9786 0.109764 43.4769 0H14.3804C10.5665 0 6.90879 1.54875 4.21193 4.30553C1.51508 7.06232 0 10.8013 0 14.7V83.3C0 87.1987 1.51508 90.9377 4.21193 93.6945C6.90879 96.4513 10.5665 98 14.3804 98H62.3152C66.1292 98 69.7869 96.4513 72.4837 93.6945C75.1806 90.9377 76.6957 87.1987 76.6957 83.3C76.6957 82.0004 76.1906 80.7541 75.2917 79.8352C74.3927 78.9162 73.1735 78.4 71.9022 78.4ZM47.9348 16.709L60.3499 29.4H52.7283C51.457 29.4 50.2377 28.8838 49.3388 27.9648C48.4398 27.0459 47.9348 25.7996 47.9348 24.5V16.709Z" fill="#A0AEC0"/>
<path d="M93.2066 54.4562H81.2229C80.592 54.4525 79.9667 54.5761 79.3826 54.82C78.7986 55.0638 78.2674 55.4231 77.8195 55.8773L71.8756 62.0023L58.4539 46.3222C58.0221 45.8166 57.4933 45.407 56.9004 45.1189C56.3074 44.8308 55.6628 44.6703 55.0066 44.6473C54.3505 44.6243 53.6966 44.7394 53.0858 44.9854C52.4749 45.2314 51.92 45.603 51.4554 46.0773L43.3065 54.4562H35.6848C34.4135 54.4562 33.1943 54.9725 32.2953 55.8914C31.3964 56.8104 30.8914 58.0567 30.8914 59.3562C30.8914 60.6558 31.3964 61.9021 32.2953 62.8211C33.1943 63.74 34.4135 64.2562 35.6848 64.2562H45.2718C45.9026 64.26 46.528 64.1364 47.112 63.8925C47.6961 63.6487 48.2273 63.2894 48.6752 62.8352L54.8587 56.7102L68.2805 72.3903C68.7135 72.8948 69.2432 73.3029 69.8369 73.5895C70.4306 73.8761 71.0756 74.035 71.7318 74.0562C72.3626 74.06 72.988 73.9364 73.572 73.6925C74.1561 73.4487 74.6873 73.0894 75.1352 72.6352L83.1882 64.2562H93.2066C94.4779 64.2562 95.6971 63.74 96.5961 62.8211C97.495 61.9021 98.0001 60.6558 98.0001 59.3562C98.0001 58.0567 97.495 56.8104 96.5961 55.8914C95.6971 54.9725 94.4779 54.4562 93.2066 54.4562Z" fill="#EB8B76"/>
</svg>
