<svg width="18" height="18" viewBox="0 0 18 18" fill="none" xmlns="http://www.w3.org/2000/svg">
<path d="M10.5624 14.6875C10.0472 14.7849 9.52411 14.8337 8.99986 14.8333C5.2682 14.8333 2.10986 12.3808 1.04736 9C1.33342 8.09008 1.77402 7.23622 2.34986 6.47583M7.23153 7.2325C7.70041 6.76362 8.33635 6.5002 8.99945 6.5002C9.66254 6.5002 10.2985 6.76362 10.7674 7.2325C11.2362 7.70138 11.4997 8.33732 11.4997 9.00042C11.4997 9.66351 11.2362 10.2995 10.7674 10.7683M7.23153 7.2325L10.7674 10.7683M7.23153 7.2325L10.7665 10.7667M10.7674 10.7683L13.5099 13.51M7.2332 7.23333L4.49153 4.49167M4.49153 4.49167L1.49986 1.5M4.49153 4.49167C5.83516 3.62464 7.40078 3.1645 8.99986 3.16667C12.7315 3.16667 15.8899 5.61917 16.9524 9C16.3657 10.8587 15.1477 12.4538 13.509 13.5092M4.49153 4.49167L13.509 13.5092M13.509 13.5092L16.4999 16.5" stroke="#000" stroke-width="2" />
</svg>
