<svg width="24" height="24" viewBox="0 0 24 24" fill="none" xmlns="http://www.w3.org/2000/svg">
<path d="M14.75 21.625H12.6875C12.3229 21.6246 11.9734 21.4796 11.7156 21.2219C11.4579 20.9641 11.3129 20.6146 11.3125 20.25V16.8125H12.6875V20.25H14.75V16.8125H16.125V14.0625C16.1248 13.8802 16.0523 13.7055 15.9234 13.5766C15.7945 13.4477 15.6198 13.3752 15.4375 13.375H9.44202L8.06702 9.25H3.75C3.56773 9.2502 3.39297 9.3227 3.26409 9.45159C3.1352 9.58047 3.0627 9.75523 3.0625 9.9375V14.0625H4.4375V20.25H7.1875V15.4375H8.5625V20.25C8.56212 20.6146 8.41713 20.9641 8.15935 21.2219C7.90157 21.4796 7.55206 21.6246 7.1875 21.625H4.4375C4.07294 21.6246 3.72343 21.4796 3.46565 21.2219C3.20787 20.9641 3.06288 20.6146 3.0625 20.25V15.4375C2.69794 15.4371 2.34843 15.2921 2.09065 15.0344C1.83287 14.7766 1.68788 14.4271 1.6875 14.0625V9.9375C1.6881 9.39068 1.90559 8.86642 2.29226 8.47976C2.67892 8.09309 3.20318 7.8756 3.75 7.875H8.06702C8.35566 7.87477 8.63704 7.96546 8.87121 8.13422C9.10539 8.30297 9.28045 8.5412 9.37155 8.81509L10.433 12H15.4375C15.9843 12.0006 16.5086 12.2181 16.8952 12.6048C17.2819 12.9914 17.4994 13.5157 17.5 14.0625V16.8125C17.4996 17.1771 17.3546 17.5266 17.0968 17.7844C16.8391 18.0421 16.4896 18.1871 16.125 18.1875V20.25C16.1246 20.6146 15.9796 20.9641 15.7218 21.2219C15.4641 21.4796 15.1146 21.6246 14.75 21.625Z" fill="white"/>
<path d="M20.25 21.625H18.875V14.0625H20.9375V9.9375C20.9373 9.75523 20.8648 9.58047 20.7359 9.45159C20.607 9.3227 20.4323 9.2502 20.25 9.25H17.5V7.875H20.25C20.7968 7.8756 21.3211 8.09309 21.7077 8.47976C22.0944 8.86642 22.3119 9.39068 22.3125 9.9375V14.0625C22.3121 14.4271 22.1671 14.7766 21.9093 15.0343C21.6516 15.2921 21.3021 15.4371 20.9375 15.4375H20.25V21.625Z" fill="white"/>
<path d="M5.8125 7.1875C5.2686 7.1875 4.73692 7.02622 4.28468 6.72404C3.83245 6.42187 3.47997 5.99238 3.27183 5.48988C3.06369 4.98738 3.00923 4.43445 3.11534 3.901C3.22145 3.36756 3.48336 2.87755 3.86796 2.49296C4.25255 2.10836 4.74256 1.84645 5.276 1.74034C5.80945 1.63423 6.36238 1.68869 6.86488 1.89683C7.36738 2.10497 7.79687 2.45745 8.09904 2.90968C8.40122 3.36192 8.5625 3.8936 8.5625 4.4375C8.56168 5.1666 8.27169 5.86559 7.75614 6.38114C7.24059 6.89669 6.5416 7.18668 5.8125 7.1875ZM5.8125 3.0625C5.54055 3.0625 5.27471 3.14314 5.04859 3.29423C4.82247 3.44532 4.64624 3.66006 4.54217 3.91131C4.4381 4.16256 4.41087 4.43903 4.46392 4.70575C4.51698 4.97247 4.64793 5.21748 4.84023 5.40977C5.03253 5.60207 5.27753 5.73303 5.54425 5.78608C5.81098 5.83914 6.08744 5.81191 6.33869 5.70784C6.58994 5.60377 6.80469 5.42753 6.95577 5.20141C7.10686 4.97529 7.1875 4.70945 7.1875 4.4375C7.18712 4.07295 7.04213 3.72343 6.78435 3.46565C6.52657 3.20787 6.17706 3.06288 5.8125 3.0625Z" fill="white"/>
<path d="M18.1875 7.1875C17.6436 7.1875 17.1119 7.02622 16.6597 6.72404C16.2074 6.42187 15.855 5.99238 15.6468 5.48988C15.4387 4.98738 15.3842 4.43445 15.4903 3.901C15.5965 3.36756 15.8584 2.87755 16.243 2.49296C16.6276 2.10836 17.1176 1.84645 17.651 1.74034C18.1845 1.63423 18.7374 1.68869 19.2399 1.89683C19.7424 2.10497 20.1719 2.45745 20.474 2.90968C20.7762 3.36192 20.9375 3.8936 20.9375 4.4375C20.9367 5.1666 20.6467 5.86559 20.1311 6.38114C19.6156 6.89669 18.9166 7.18668 18.1875 7.1875ZM18.1875 3.0625C17.9156 3.0625 17.6497 3.14314 17.4236 3.29423C17.1975 3.44532 17.0212 3.66006 16.9172 3.91131C16.8131 4.16256 16.7859 4.43903 16.8389 4.70575C16.892 4.97247 17.0229 5.21748 17.2152 5.40977C17.4075 5.60207 17.6525 5.73303 17.9193 5.78608C18.186 5.83914 18.4624 5.81191 18.7137 5.70784C18.9649 5.60377 19.1797 5.42753 19.3308 5.20141C19.4819 4.97529 19.5625 4.70945 19.5625 4.4375C19.5621 4.07295 19.4171 3.72343 19.1594 3.46565C18.9016 3.20787 18.5521 3.06288 18.1875 3.0625Z" fill="white"/>
<path d="M13.7188 11.3125C13.2428 11.3125 12.7776 11.1714 12.3819 10.907C11.9862 10.6426 11.6778 10.2668 11.4957 9.82708C11.3135 9.3874 11.2659 8.90358 11.3587 8.43681C11.4516 7.97005 11.6808 7.5413 12.0173 7.20478C12.3538 6.86826 12.7825 6.63908 13.2493 6.54624C13.7161 6.45339 14.1999 6.50104 14.6396 6.68317C15.0793 6.86529 15.4551 7.1737 15.7195 7.56941C15.9839 7.96512 16.125 8.43034 16.125 8.90625C16.1243 9.5442 15.8705 10.1558 15.4194 10.6069C14.9683 11.058 14.3567 11.3118 13.7188 11.3125ZM13.7188 7.875C13.5148 7.875 13.3154 7.93548 13.1458 8.0488C12.9762 8.16211 12.8441 8.32317 12.766 8.51161C12.6879 8.70005 12.6675 8.9074 12.7073 9.10744C12.7471 9.30748 12.8453 9.49123 12.9895 9.63546C13.1338 9.77968 13.3175 9.87789 13.5176 9.91769C13.7176 9.95748 13.925 9.93705 14.1134 9.859C14.3018 9.78095 14.4629 9.64877 14.5762 9.47918C14.6895 9.30959 14.75 9.11021 14.75 8.90625C14.7497 8.63284 14.6409 8.37072 14.4476 8.17739C14.2543 7.98406 13.9922 7.87531 13.7188 7.875Z" fill="white"/>
</svg>
