<svg width="53" height="52" viewBox="0 0 53 52" fill="none" xmlns="http://www.w3.org/2000/svg">
<path d="M26.5 0.248047C12.01 0.248047 0.25 11.8214 0.25 26.0814C0.25 40.3414 12.01 51.9147 26.5 51.9147C40.99 51.9147 52.75 40.3414 52.75 26.0814C52.75 11.8214 40.99 0.248047 26.5 0.248047ZM37 28.6647H29.125V36.4147C29.125 37.8355 27.9438 38.9981 26.5 38.9981C25.0562 38.9981 23.875 37.8355 23.875 36.4147V28.6647H16C14.5562 28.6647 13.375 27.5022 13.375 26.0814C13.375 24.6605 14.5562 23.498 16 23.498H23.875V15.748C23.875 14.3272 25.0562 13.1647 26.5 13.1647C27.9438 13.1647 29.125 14.3272 29.125 15.748V23.498H37C38.4437 23.498 39.625 24.6605 39.625 26.0814C39.625 27.5022 38.4437 28.6647 37 28.6647Z" fill="#364F6B"/>
</svg>
