<svg width="24" height="24" viewBox="0 0 24 24" fill="none" xmlns="http://www.w3.org/2000/svg">
<path d="M18.1268 18.836L18.1268 18.8363C18.4265 20.125 17.0314 21.1474 15.8911 20.4574C15.891 20.4573 15.891 20.4573 15.8909 20.4573L11.9993 18.1035L8.10873 20.4473L18.1268 18.836ZM18.1268 18.836L17.0953 14.4098L20.5371 11.4276C20.5371 11.4275 20.5372 11.4275 20.5373 11.4274C21.5399 10.5592 21.0049 8.90767 19.6809 8.80121C19.6804 8.80117 19.6799 8.80113 19.6795 8.8011L15.1526 8.41682L13.3809 4.236C13.3808 4.23579 13.3807 4.23557 13.3806 4.23535C12.8689 3.01771 11.1312 3.01758 10.6192 4.23494C10.6191 4.2353 10.6189 4.23565 10.6188 4.236L8.84738 8.40679L4.32018 8.7911C4.31971 8.79113 4.31924 8.79117 4.31876 8.79121C2.99479 8.89767 2.45973 10.5492 3.4624 11.4174C3.46246 11.4175 3.46252 11.4175 3.46258 11.4176L6.90441 14.3998L5.87288 18.826L5.87282 18.8263M18.1268 18.836L5.87282 18.8263M5.87282 18.8263C5.57319 20.1147 6.96762 21.137 8.10783 20.4478L5.87282 18.8263Z" fill="#F5F5F5" fill-opacity="0.8" stroke="#FBFBFB"/>
</svg>
