<?xml version="1.0" standalone="no"?>
<!DOCTYPE svg PUBLIC "-//W3C//DTD SVG 20010904//EN"
 "http://www.w3.org/TR/2001/REC-SVG-20010904/DTD/svg10.dtd">
<svg version="1.0" xmlns="http://www.w3.org/2000/svg"
 width="675.000000pt" height="450.000000pt" viewBox="0 0 675.000000 450.000000"
 preserveAspectRatio="xMidYMid meet">

<g transform="translate(0.000000,450.000000) scale(0.100000,-0.100000)"
fill="#000000" stroke="none">
<path d="M3242 3794 c-12 -8 -22 -22 -22 -30 0 -10 -13 -14 -53 -14 -72 0
-118 -26 -136 -77 -8 -21 -11 -51 -8 -64 9 -37 49 -92 77 -106 14 -7 20 -13
13 -13 -22 0 -53 -43 -53 -72 0 -18 10 -38 25 -52 14 -13 32 -46 40 -73 8 -27
28 -68 45 -91 22 -31 30 -53 30 -85 0 -52 -13 -71 -60 -91 -31 -12 -40 -12
-75 1 -64 25 -128 27 -170 7 -40 -19 -88 -77 -112 -136 l-15 -38 -92 0 c-50 0
-194 -1 -321 -3 l-230 -2 -3 37 c-3 34 -7 38 -37 44 -52 9 -60 3 -56 -44 l3
-42 -141 0 -141 0 -2 -117 c-1 -131 0 -154 8 -162 3 -3 66 -5 140 -4 l134 3 0
-25 0 -25 -146 0 -147 0 7 -137 c4 -75 10 -141 12 -145 3 -4 66 -8 140 -8
l134 0 0 -24 c0 -24 0 -24 -134 -28 -74 -1 -136 -5 -138 -8 -2 -3 -1 -72 2
-154 l5 -148 136 1 136 2 2 -111 2 -110 -143 -1 c-79 -1 -153 -1 -166 -1 -21
1 -22 -2 -17 -36 11 -65 9 -64 87 -61 l73 2 7 -39 c7 -35 82 -647 90 -736 l4
-38 -120 0 c-81 0 -117 -3 -110 -10 7 -7 296 -10 846 -11 551 0 838 -3 840
-10 2 -6 66 -13 151 -16 132 -5 147 -4 147 10 0 15 13 17 88 17 48 0 242 1
431 3 l345 2 7 27 c9 33 49 101 56 94 3 -2 -5 -26 -16 -51 -40 -91 -22 -96
109 -30 101 51 121 68 33 29 -96 -43 -134 -57 -139 -52 -2 3 3 25 11 48 9 24
14 49 11 55 -5 14 30 62 39 53 4 -3 -5 -35 -19 -69 -27 -67 -27 -82 2 -56 50
45 259 118 297 103 19 -7 19 -8 -5 -26 -50 -38 -186 -109 -232 -122 -27 -6
-48 -15 -48 -18 0 -4 105 -5 298 -1 69 2 48 17 -43 31 -47 7 -85 16 -85 19 0
3 20 16 44 29 65 35 111 76 101 91 -6 10 -27 12 -80 9 -58 -4 -88 -13 -154
-44 -56 -28 -80 -35 -75 -25 14 36 16 89 3 96 -16 11 -70 -52 -105 -123 -24
-47 -29 -52 -60 -52 -32 0 -34 2 -34 33 0 51 20 612 26 714 l6 92 71 3 72 3 3
48 3 47 -140 0 c-78 0 -141 3 -141 8 -1 4 -7 58 -13 120 -7 62 -11 115 -8 117
2 3 60 5 128 5 l123 0 0 73 c0 39 -3 110 -7 155 l-6 84 -136 -4 c-133 -3 -136
-2 -139 18 -3 21 1 22 132 29 l136 7 -1 87 c0 47 -4 108 -7 136 l-7 50 -141
-3 c-139 -4 -141 -3 -147 19 -3 12 -4 26 -1 31 3 4 61 8 130 8 l124 0 -6 118
c-4 64 -9 119 -11 122 -3 3 -64 5 -136 5 l-132 0 -5 47 c-3 26 -8 49 -10 51
-3 2 -29 1 -57 -1 l-53 -4 0 -49 0 -49 -189 0 -188 0 -27 40 c-39 58 -60 68
-159 74 -102 5 -143 24 -169 76 -21 41 -23 146 -5 200 11 32 15 35 46 32 60
-6 100 55 71 109 -9 15 -5 28 20 64 36 53 60 106 60 135 0 11 -12 33 -27 50
-21 23 -38 32 -68 33 -34 2 -41 7 -43 27 -7 44 -52 80 -52 41 0 -15 -5 -13
-34 13 -28 27 -91 56 -122 56 -5 0 -20 -7 -32 -16z m78 -246 c32 -16 48 -32
55 -54 6 -17 16 -38 24 -47 12 -15 10 -17 -13 -17 -14 0 -26 4 -26 10 0 19
-44 50 -71 50 -18 0 -36 -10 -52 -30 -28 -32 -47 -39 -47 -15 0 8 -11 22 -25
31 -43 28 -29 71 26 84 57 13 83 11 129 -12z m-204 -84 c-3 -9 -6 -18 -6 -20
0 -2 -7 -4 -15 -4 -18 0 -19 12 -3 28 17 17 31 15 24 -4z m56 -15 c16 -21 17
-29 7 -52 -24 -53 -59 -45 -59 13 0 73 17 86 52 39z m158 11 c24 -24 26 -72 4
-94 -23 -24 -70 -20 -88 6 -47 67 28 144 84 88z m-220 -72 c0 -30 0 -31 -20
-13 -11 10 -20 24 -20 32 0 7 9 13 20 13 16 0 20 -7 20 -32z m325 3 l6 -29 25
24 c19 20 28 23 43 15 25 -14 32 -36 21 -65 -12 -33 -39 -47 -64 -34 -16 9
-23 7 -35 -13 -72 -108 -146 -143 -217 -100 -57 35 -107 150 -71 164 9 3 17
-1 20 -14 3 -10 10 -19 17 -19 6 0 8 5 5 11 -11 18 5 79 20 79 8 0 15 -7 15
-15 0 -8 11 -26 25 -40 43 -43 95 -29 115 30 10 29 16 35 40 35 23 0 30 -5 35
-29z m-112 -291 c15 0 37 5 48 10 14 8 20 8 23 -2 1 -7 8 -28 14 -47 14 -43
-4 -72 -64 -102 -59 -28 -109 -21 -147 21 l-28 31 21 26 c11 14 23 43 26 63
l6 37 36 -19 c20 -10 49 -18 65 -18z m-283 -80 c28 -11 59 -20 69 -20 11 0 28
-15 40 -35 27 -46 76 -75 128 -75 57 0 85 12 137 60 41 38 47 40 68 29 13 -7
65 -16 116 -20 51 -4 99 -12 107 -19 42 -35 86 -133 124 -275 22 -82 38 -152
36 -155 -5 -8 -195 -84 -198 -79 -4 5 8 156 17 219 4 29 4 40 -2 30 -6 -8 -16
-63 -23 -122 -10 -85 -10 -118 0 -165 6 -32 14 -70 18 -85 3 -17 1 -28 -6 -28
-6 0 -11 10 -11 23 0 12 -5 29 -10 37 -8 12 -10 9 -10 -13 0 -37 -22 -88 -50
-112 -41 -37 -53 -75 -54 -171 -1 -51 -4 -87 -8 -80 -4 6 -8 27 -8 46 l0 35
-222 -2 c-123 -1 -250 2 -283 6 -40 6 -62 5 -67 -2 -3 -6 -4 16 -1 49 4 49 1
68 -16 102 -11 22 -22 61 -22 84 -2 30 -3 35 -6 16 -3 -21 -10 -28 -27 -28
-42 0 -50 22 -30 85 17 54 37 68 40 29 1 -10 2 -23 3 -29 1 -13 31 44 31 60 0
7 -6 18 -14 24 -11 9 -12 19 -4 45 12 37 -13 234 -33 265 -8 13 -9 13 -5 -4
13 -57 28 -210 24 -249 -4 -30 -1 -52 9 -66 8 -11 12 -20 8 -20 -3 0 -59 27
-125 60 l-120 60 31 82 c17 46 44 119 59 163 37 108 72 174 112 211 64 60 96
66 178 34z m1223 -107 c4 -20 4 -40 1 -45 -9 -14 -84 -10 -84 6 0 7 -3 28 -6
45 l-6 31 44 0 c44 0 46 -1 51 -37z m-2158 -28 c0 -27 -3 -30 -30 -30 -27 0
-30 4 -33 33 -3 32 -2 33 30 30 29 -3 33 -6 33 -33z m2437 -137 c2 -57 3 -104
3 -105 -2 -6 -182 -12 -419 -15 l-269 -3 -23 88 c-13 48 -28 96 -33 106 -6 10
-7 21 -4 25 3 3 172 6 374 6 l367 0 4 -102z m-1813 10 c-17 -46 -35 -96 -41
-113 -6 -16 -14 -33 -17 -37 -4 -4 -132 -10 -286 -13 -154 -3 -358 -7 -453
-10 l-174 -6 3 123 c2 68 4 126 6 130 2 4 226 8 498 8 l495 0 -31 -82z m1454
-170 c4 -12 5 -23 4 -24 -1 -2 -72 -4 -157 -5 -143 -2 -154 -1 -161 17 -3 10
-5 22 -2 27 2 4 73 7 157 7 150 0 154 -1 159 -22z m117 -3 c0 -23 -4 -25 -45
-25 -25 0 -45 2 -45 5 0 5 71 44 83 45 4 0 7 -11 7 -25z m-1645 -27 c-4 -13
-8 -24 -9 -25 0 -1 -116 -3 -256 -4 -254 -3 -255 -3 -258 19 -4 24 0 25 336
30 l194 3 -7 -23z m-545 -18 c0 -15 -7 -20 -27 -20 l-28 1 24 19 c29 25 31 25
31 0z m2484 -51 c3 -34 6 -91 6 -125 l0 -64 -82 0 c-46 0 -205 -3 -355 -7
l-271 -6 -10 39 c-29 112 -33 148 -17 160 8 6 15 18 15 27 0 20 40 23 335 26
131 1 240 3 242 4 1 2 31 4 66 5 l64 3 7 -62z m-1924 10 c0 -6 -9 -45 -19 -87
-10 -43 -22 -94 -25 -114 l-7 -38 -89 0 c-57 0 -90 -4 -90 -11 0 -7 29 -9 85
-6 88 5 99 0 73 -36 -11 -14 -41 -16 -223 -17 -115 -1 -216 -1 -223 -1 -8 1
-12 10 -10 24 3 21 6 22 146 25 81 1 142 7 142 12 0 9 -331 6 -572 -4 l-86 -4
-6 76 c-4 43 -8 98 -11 123 -5 58 -24 54 291 58 131 1 240 4 242 6 2 2 89 4
193 5 132 0 189 -3 189 -11z m111 -77 c49 -46 52 -50 45 -85 -7 -36 -8 -37
-52 -37 -50 0 -102 -18 -123 -43 -7 -10 -16 -17 -20 -17 -6 0 39 200 53 237 8
19 31 5 97 -55z m1079 -72 c13 -66 27 -120 31 -120 4 0 5 9 2 20 -3 11 -4 20
-2 20 2 1 75 3 162 7 l157 6 0 -27 0 -26 -90 -1 c-49 -1 -94 -3 -100 -4 -5 -1
-37 -3 -70 -4 -33 0 -60 -6 -60 -11 0 -6 10 -8 23 -6 12 3 173 8 358 11 l336
6 7 -127 c3 -70 4 -129 1 -133 -7 -6 -372 -17 -555 -16 l-115 0 -12 80 c-16
102 -21 125 -31 122 -5 -1 -23 12 -40 30 -26 26 -79 52 -138 68 -7 2 -17 26
-24 54 -10 42 -10 54 1 68 16 19 121 103 129 103 3 0 17 -54 30 -120z m-170
-90 c0 -5 -12 -10 -26 -10 -14 0 -23 4 -19 10 3 6 15 10 26 10 10 0 19 -4 19
-10z m640 -10 c0 -17 -7 -20 -45 -20 -25 0 -45 2 -45 5 0 8 54 34 73 35 10 0
17 -7 17 -20z m-2213 -67 c-3 -2 -20 -3 -39 -1 l-33 3 35 23 35 22 3 -21 c2
-11 1 -23 -1 -26z m457 -50 c-5 -42 -30 -139 -48 -193 l-12 -35 -229 -6 c-127
-4 -291 -8 -365 -10 l-135 -3 -3 137 -3 137 213 3 c117 1 297 3 400 5 l187 2
-5 -37z m5 -170 c1 -43 4 -91 7 -108 3 -16 -4 -64 -14 -105 l-18 -75 -88 -5
c-87 -5 -130 2 -91 15 56 19 75 28 92 48 21 23 76 191 88 265 11 66 22 49 24
-35z m1370 -97 c12 -55 29 -108 39 -119 25 -28 87 -57 122 -57 16 0 30 -4 30
-8 0 -11 -191 -12 -212 -1 -9 5 -24 34 -33 65 -14 50 -15 63 0 145 8 49 16
104 16 122 1 31 2 31 9 -8 4 -22 17 -85 29 -139z m-1009 9 l-7 -90 -1 77 c-2
64 5 117 13 106 1 -2 -1 -43 -5 -93z m1290 45 c4 0 11 -52 15 -116 8 -129 6
-134 -51 -134 -18 0 -34 6 -37 14 -3 7 -27 19 -54 25 -26 7 -64 23 -84 36 -33
21 -38 30 -48 88 -6 35 -11 69 -11 75 0 8 38 12 118 14 64 2 123 2 130 1 8 -2
17 -3 22 -3z m148 -124 c7 -60 11 -111 9 -112 -1 -1 -27 -4 -57 -5 l-55 -3 -7
44 c-3 25 -7 68 -7 95 -1 49 0 50 47 76 26 15 50 24 53 20 3 -3 11 -55 17
-115z m-851 82 c-3 -7 -5 -2 -5 12 0 14 2 19 5 13 2 -7 2 -19 0 -25z m-1036
-57 c-20 -72 -40 -95 -101 -118 -26 -10 -48 -22 -48 -28 -1 -15 -39 -23 -113
-24 l-66 -1 -7 105 c-4 58 -5 109 -1 115 4 6 73 10 179 10 l173 0 -16 -59z
m-357 -12 c3 -34 6 -84 6 -111 l0 -49 -42 3 -42 3 0 84 c-1 80 0 84 27 107 16
13 32 24 36 24 5 0 11 -28 15 -61z m1383 9 c-3 -8 -6 -5 -6 6 -1 11 2 17 5 13
3 -3 4 -12 1 -19z m-908 -140 c1 -12 -7 -18 -23 -18 -22 0 -23 3 -15 28 4 15
12 41 15 57 l7 30 8 -40 c4 -22 8 -48 8 -57z m898 45 c-3 -10 -5 -4 -5 12 0
17 2 24 5 18 2 -7 2 -21 0 -30z m381 -51 c-26 -5 -26 -4 -20 43 l5 40 17 -40
c16 -39 16 -40 -2 -43z m-920 1 c14 -12 13 -13 -6 -13 -18 0 -22 5 -21 33 1
20 3 25 6 12 3 -11 12 -26 21 -32z m1702 -38 c0 -14 -6 -27 -12 -30 -23 -7
-808 -13 -808 -7 0 4 3 17 6 29 7 25 -19 24 612 31 l202 2 0 -25z m-1180 -15
l0 -30 -202 -1 c-112 -1 -234 -2 -273 -2 -69 -2 -70 -2 -73 25 l-3 28 223 3
c123 1 247 3 276 5 52 2 52 2 52 -28z m-870 -9 l0 -31 -192 0 c-106 0 -304 -3
-439 -7 l-246 -6 -5 31 -4 32 210 2 c116 2 316 4 444 6 l232 3 0 -30z m1774
-223 c-3 -106 -9 -294 -12 -418 l-7 -225 -327 -3 -328 -2 -6 27 c-4 16 -13 40
-21 55 -9 19 -11 44 -7 83 6 49 9 55 30 55 31 0 44 27 40 86 -4 55 83 515 99
526 5 4 130 8 277 8 l267 0 -5 -192z m-905 35 c-4 -82 -8 -215 -10 -298 -3
-139 -2 -150 15 -153 31 -6 18 -104 -23 -175 l-32 -57 -223 0 -222 0 -28 58
c-23 44 -30 75 -34 138 -4 77 -3 81 18 87 18 5 21 11 17 29 -4 13 -9 66 -12
118 -4 52 -9 102 -12 110 -6 19 -4 270 3 281 2 4 127 8 277 9 l272 1 -6 -148z
m1028 70 c-4 -43 -12 -228 -19 -410 l-12 -333 -27 0 c-15 0 -34 -3 -43 -6 -14
-5 -16 10 -16 132 0 77 3 250 7 386 l6 247 46 30 c25 16 50 30 55 30 5 1 6
-33 3 -76z m-1878 -5 c7 -40 12 -80 12 -88 1 -8 8 -55 16 -104 10 -57 13 -111
9 -152 -6 -54 -4 -64 9 -64 13 0 14 -4 4 -21 -13 -25 -4 -36 31 -41 21 -3 26
-10 33 -53 9 -62 1 -135 -21 -186 l-17 -39 -312 0 -313 0 -5 23 c-3 12 -16
135 -30 272 -14 138 -28 273 -31 300 -15 136 -21 211 -17 218 2 4 143 7 312 7
l309 0 11 -72z m-640 -85 c7 -71 14 -144 17 -163 2 -19 13 -127 24 -240 11
-113 23 -215 26 -226 5 -19 1 -22 -30 -26 -42 -5 -33 -46 -86 397 l-40 330 32
28 c18 15 35 27 38 27 4 0 12 -57 19 -127z m909 -466 l3 -78 -26 17 c-22 14
-32 15 -63 6 -20 -6 -37 -10 -38 -9 -6 6 -20 138 -15 142 3 3 35 5 71 3 l65
-3 3 -78z m760 -14 c-2 -35 -7 -47 -17 -45 -29 6 -67 5 -93 -2 -28 -8 -28 -8
-28 43 l0 51 71 0 70 0 -3 -47z"/>
<path d="M3140 3420 c0 -5 5 -10 11 -10 5 0 7 5 4 10 -3 6 -8 10 -11 10 -2 0
-4 -4 -4 -10z"/>
<path d="M3285 3450 c3 -5 11 -10 16 -10 6 0 7 5 4 10 -3 6 -11 10 -16 10 -6
0 -7 -4 -4 -10z"/>
<path d="M3467 3363 c-11 -11 -8 -25 4 -17 6 3 16 0 21 -7 8 -11 9 -10 5 3 -3
9 -1 19 6 22 7 2 3 5 -9 5 -11 1 -24 -2 -27 -6z"/>
<path d="M3200 3272 c0 -4 9 -8 20 -8 11 0 20 4 20 8 0 4 -9 8 -20 8 -11 0
-20 -4 -20 -8z"/>
<path d="M3100 2704 c0 -5 7 -19 15 -30 8 -10 15 -14 15 -8 0 5 -7 19 -15 30
-8 10 -15 14 -15 8z"/>
<path d="M3406 2324 c-22 -19 -35 -34 -30 -34 13 0 80 57 74 63 -3 3 -23 -10
-44 -29z"/>
<path d="M4220 2815 c0 -8 5 -15 10 -15 6 0 10 7 10 15 0 8 -4 15 -10 15 -5 0
-10 -7 -10 -15z"/>
<path d="M4230 2665 c0 -8 5 -15 10 -15 6 0 10 7 10 15 0 8 -4 15 -10 15 -5 0
-10 -7 -10 -15z"/>
<path d="M2075 2800 c-4 -6 -3 -16 3 -22 6 -6 12 -6 17 2 4 6 3 16 -3 22 -6 6
-12 6 -17 -2z"/>
<path d="M2077 2644 c-8 -8 1 -24 14 -24 5 0 9 7 9 15 0 15 -12 20 -23 9z"/>
<path d="M4250 2495 c0 -8 5 -15 10 -15 6 0 10 7 10 15 0 8 -4 15 -10 15 -5 0
-10 -7 -10 -15z"/>
<path d="M4260 2335 c0 -8 5 -15 10 -15 6 0 10 7 10 15 0 8 -4 15 -10 15 -5 0
-10 -7 -10 -15z"/>
<path d="M2070 2460 c0 -19 3 -21 12 -12 9 9 9 15 0 24 -9 9 -12 7 -12 -12z"/>
<path d="M2090 2296 c0 -8 5 -18 10 -21 6 -3 10 3 10 14 0 12 -4 21 -10 21 -5
0 -10 -6 -10 -14z"/>
<path d="M4274 2176 c-8 -22 3 -33 18 -18 9 9 9 15 0 24 -9 9 -13 7 -18 -6z"/>
<path d="M4296 2003 c-11 -11 -6 -23 9 -23 8 0 15 4 15 9 0 13 -16 22 -24 14z"/>
<path d="M2074 2129 c-8 -14 11 -33 25 -25 11 7 4 36 -9 36 -5 0 -12 -5 -16
-11z"/>
<path d="M2085 1950 c-4 -6 -3 -16 3 -22 6 -6 12 -6 17 2 4 6 3 16 -3 22 -6 6
-12 6 -17 -2z"/>
</g>
</svg>
