<svg width="17" height="20" viewBox="0 0 17 20" fill="none" xmlns="http://www.w3.org/2000/svg">
<path d="M5.5 10H11.5M5.5 14H11.5M13.5 19H3.5C2.96957 19 2.46086 18.7893 2.08579 18.4142C1.71071 18.0391 1.5 17.5304 1.5 17V3C1.5 2.46957 1.71071 1.96086 2.08579 1.58579C2.46086 1.21071 2.96957 1 3.5 1H9.086C9.3512 1.00006 9.60551 1.10545 9.793 1.293L15.207 6.707C15.3946 6.89449 15.4999 7.1488 15.5 7.414V17C15.5 17.5304 15.2893 18.0391 14.9142 18.4142C14.5391 18.7893 14.0304 19 13.5 19Z" stroke="#DF6D51" stroke-width="2" stroke-linecap="round" stroke-linejoin="round"/>
</svg>
