<svg width="20" height="18" viewBox="0 0 20 18" fill="none" xmlns="http://www.w3.org/2000/svg">
<path d="M3.9998 1.79998C3.9998 1.48172 3.87337 1.17649 3.64832 0.951447C3.42328 0.726404 3.11806 0.599976 2.7998 0.599976C2.48154 0.599976 2.17631 0.726404 1.95127 0.951447C1.72622 1.17649 1.5998 1.48172 1.5998 1.79998V10.5216C1.23498 10.7322 0.932035 11.0352 0.721411 11.4C0.510787 11.7649 0.399902 12.1787 0.399902 12.6C0.399902 13.0212 0.510787 13.4351 0.721411 13.7999C0.932035 14.1648 1.23498 14.4677 1.5998 14.6784V16.2C1.5998 16.5182 1.72622 16.8235 1.95127 17.0485C2.17631 17.2735 2.48154 17.4 2.7998 17.4C3.11806 17.4 3.42328 17.2735 3.64832 17.0485C3.87337 16.8235 3.9998 16.5182 3.9998 16.2V14.6784C4.36461 14.4677 4.66756 14.1648 4.87818 13.7999C5.08881 13.4351 5.19969 13.0212 5.19969 12.6C5.19969 12.1787 5.08881 11.7649 4.87818 11.4C4.66756 11.0352 4.36461 10.7322 3.9998 10.5216V1.79998ZM11.1998 1.79998C11.1998 1.48172 11.0734 1.17649 10.8483 0.951447C10.6233 0.726404 10.3181 0.599976 9.9998 0.599976C9.68154 0.599976 9.37631 0.726404 9.15127 0.951447C8.92622 1.17649 8.7998 1.48172 8.7998 1.79998V3.32158C8.43498 3.53223 8.13204 3.83519 7.92141 4.20003C7.71079 4.56486 7.5999 4.97871 7.5999 5.39998C7.5999 5.82124 7.71079 6.23509 7.92141 6.59992C8.13204 6.96476 8.43498 7.26772 8.7998 7.47838V16.2C8.7998 16.5182 8.92622 16.8235 9.15127 17.0485C9.37631 17.2735 9.68154 17.4 9.9998 17.4C10.3181 17.4 10.6233 17.2735 10.8483 17.0485C11.0734 16.8235 11.1998 16.5182 11.1998 16.2V7.47838C11.5646 7.26772 11.8676 6.96476 12.0782 6.59992C12.2888 6.23509 12.3997 5.82124 12.3997 5.39998C12.3997 4.97871 12.2888 4.56486 12.0782 4.20003C11.8676 3.83519 11.5646 3.53223 11.1998 3.32158V1.79998ZM17.1998 0.599976C17.5181 0.599976 17.8233 0.726404 18.0483 0.951447C18.2734 1.17649 18.3998 1.48172 18.3998 1.79998V10.5216C18.7646 10.7322 19.0676 11.0352 19.2782 11.4C19.4888 11.7649 19.5997 12.1787 19.5997 12.6C19.5997 13.0212 19.4888 13.4351 19.2782 13.7999C19.0676 14.1648 18.7646 14.4677 18.3998 14.6784V16.2C18.3998 16.5182 18.2734 16.8235 18.0483 17.0485C17.8233 17.2735 17.5181 17.4 17.1998 17.4C16.8815 17.4 16.5763 17.2735 16.3513 17.0485C16.1262 16.8235 15.9998 16.5182 15.9998 16.2V14.6784C15.635 14.4677 15.332 14.1648 15.1214 13.7999C14.9108 13.4351 14.7999 13.0212 14.7999 12.6C14.7999 12.1787 14.9108 11.7649 15.1214 11.4C15.332 11.0352 15.635 10.7322 15.9998 10.5216V1.79998C15.9998 1.48172 16.1262 1.17649 16.3513 0.951447C16.5763 0.726404 16.8815 0.599976 17.1998 0.599976Z" fill="#27BEC2"/>
</svg>
