<svg width="20" height="20" viewBox="0 0 20 20" fill="none" xmlns="http://www.w3.org/2000/svg">
    <path fill-rule="evenodd" clip-rule="evenodd" d="M6.81405 4.46733C7.35938 3.96833 8.08879 3.69586 8.83968 3.69586C9.21251 3.69586 9.58272 3.763 9.92958 3.89447C10.2765 4.02595 10.5948 4.21984 10.8653 4.46733C11.1359 4.71491 11.3536 5.01167 11.5032 5.34215C11.6528 5.67281 11.7307 6.02928 11.7307 6.39072C11.7307 6.75216 11.6528 7.10864 11.5032 7.43929C11.3536 7.76977 11.1359 8.06653 10.8653 8.31411C10.5948 8.5616 10.2765 8.75549 9.92958 8.88697C9.58272 9.01844 9.21251 9.08558 8.83968 9.08558C8.08879 9.08558 7.35938 8.81311 6.81405 8.31411C6.41496 7.94893 6.13759 7.48264 6.01674 6.97281H3.56207C3.24059 6.97281 2.97998 6.7122 2.97998 6.39072C2.97998 6.06924 3.24059 5.80863 3.56207 5.80863H6.01674C6.13759 5.29881 6.41496 4.83251 6.81405 4.46733ZM8.83968 4.86004C8.36583 4.86004 7.92065 5.03276 7.59995 5.32621C7.28099 5.61807 7.11282 6.00228 7.11282 6.39072C7.11282 6.77916 7.28099 7.16337 7.59995 7.45524C7.92065 7.74868 8.36583 7.9214 8.83968 7.9214C9.07328 7.9214 9.30357 7.87925 9.51698 7.79836C9.73035 7.71749 9.92107 7.60012 10.0794 7.45524C10.2376 7.31044 10.3601 7.14138 10.4426 6.95919C10.525 6.77718 10.5665 6.58419 10.5665 6.39072C10.5665 6.19726 10.525 6.00426 10.4426 5.82225C10.3601 5.64006 10.2376 5.471 10.0794 5.32621C9.92107 5.18132 9.73035 5.06395 9.51698 4.98308C9.30357 4.90219 9.07328 4.86004 8.83968 4.86004ZM12.2158 6.39072C12.2158 6.06924 12.4764 5.80863 12.7979 5.80863H16.7561C17.0776 5.80863 17.3382 6.06924 17.3382 6.39072C17.3382 6.7122 17.0776 6.97281 16.7561 6.97281H12.7979C12.4764 6.97281 12.2158 6.7122 12.2158 6.39072ZM9.45286 11.1075C9.99819 10.6085 10.7276 10.336 11.4785 10.336C12.2294 10.336 12.9588 10.6085 13.5041 11.1075C13.9032 11.4726 14.1806 11.9389 14.3014 12.4488H16.7561C17.0776 12.4488 17.3382 12.7094 17.3382 13.0309C17.3382 13.3523 17.0776 13.6129 16.7561 13.6129H14.3014C14.1806 14.1228 13.9032 14.5891 13.5041 14.9542C12.9588 15.4532 12.2294 15.7257 11.4785 15.7257C10.7276 15.7257 9.99819 15.4532 9.45286 14.9542C8.9058 14.4537 8.58744 13.7631 8.58744 13.0309C8.58744 12.2986 8.9058 11.608 9.45286 11.1075ZM11.4785 11.5002C11.0046 11.5002 10.5595 11.6729 10.2388 11.9663C9.91979 12.2582 9.75162 12.6424 9.75162 13.0309C9.75162 13.4193 9.91979 13.8035 10.2388 14.0954C10.5595 14.3888 11.0046 14.5615 11.4785 14.5615C11.9523 14.5615 12.3975 14.3888 12.7182 14.0954C13.0372 13.8035 13.2054 13.4193 13.2054 13.0309C13.2054 12.6424 13.0372 12.2582 12.7182 11.9663C12.3975 11.6729 11.9523 11.5002 11.4785 11.5002ZM2.97998 13.0309C2.97998 12.7094 3.24059 12.4488 3.56207 12.4488H7.52028C7.84176 12.4488 8.10237 12.7094 8.10237 13.0309C8.10237 13.3523 7.84176 13.6129 7.52028 13.6129H3.56207C3.24059 13.6129 2.97998 13.3523 2.97998 13.0309Z" fill="#364F6B"/>
</svg>
