<svg width="25" height="24" viewBox="0 0 25 24" fill="none" xmlns="http://www.w3.org/2000/svg">
<path d="M12.5 3.75V1M12.5 3.75C11.7707 3.75 11.0712 4.03973 10.5555 4.55546C10.0397 5.07118 9.75 5.77065 9.75 6.5C9.75 7.22935 10.0397 7.92882 10.5555 8.44454C11.0712 8.96027 11.7707 9.25 12.5 9.25M12.5 3.75C13.2293 3.75 13.9288 4.03973 14.4445 4.55546C14.9603 5.07118 15.25 5.77065 15.25 6.5C15.25 7.22935 14.9603 7.92882 14.4445 8.44454C13.9288 8.96027 13.2293 9.25 12.5 9.25M12.5 9.25V23M4.25 20.25C4.97935 20.25 5.67882 19.9603 6.19454 19.4445C6.71027 18.9288 7 18.2293 7 17.5C7 16.7707 6.71027 16.0712 6.19454 15.5555C5.67882 15.0397 4.97935 14.75 4.25 14.75M4.25 20.25C3.52065 20.25 2.82118 19.9603 2.30546 19.4445C1.78973 18.9288 1.5 18.2293 1.5 17.5C1.5 16.7707 1.78973 16.0712 2.30546 15.5555C2.82118 15.0397 3.52065 14.75 4.25 14.75M4.25 20.25V23M4.25 14.75V1M20.75 20.25C21.4793 20.25 22.1788 19.9603 22.6945 19.4445C23.2103 18.9288 23.5 18.2293 23.5 17.5C23.5 16.7707 23.2103 16.0712 22.6945 15.5555C22.1788 15.0397 21.4793 14.75 20.75 14.75M20.75 20.25C20.0207 20.25 19.3212 19.9603 18.8055 19.4445C18.2897 18.9288 18 18.2293 18 17.5C18 16.7707 18.2897 16.0712 18.8055 15.5555C19.3212 15.0397 20.0207 14.75 20.75 14.75M20.75 20.25V23M20.75 14.75V1" stroke="#DF6D51" stroke-width="1.57143" stroke-linecap="round" stroke-linejoin="round"/>
</svg>
