<svg width="24" height="25" viewBox="0 0 24 25" fill="none" xmlns="http://www.w3.org/2000/svg">
<path d="M11 18.4443H13C13.55 18.4443 14 17.9943 14 17.4443C14 16.8943 13.55 16.4443 13 16.4443H11C10.45 16.4443 10 16.8943 10 17.4443C10 17.9943 10.45 18.4443 11 18.4443ZM3 7.44434C3 7.99434 3.45 8.44434 4 8.44434H20C20.55 8.44434 21 7.99434 21 7.44434C21 6.89434 20.55 6.44434 20 6.44434H4C3.45 6.44434 3 6.89434 3 7.44434ZM7 13.4443H17C17.55 13.4443 18 12.9943 18 12.4443C18 11.8943 17.55 11.4443 17 11.4443H7C6.45 11.4443 6 11.8943 6 12.4443C6 12.9943 6.45 13.4443 7 13.4443Z" fill="#EB8B76"/>
</svg>
