<svg width="115" height="29" viewBox="0 0 115 29" fill="none" xmlns="http://www.w3.org/2000/svg">
<path d="M7 4V6H8V20C8 21.0609 8.42143 22.0783 9.17157 22.8284C9.92172 23.5786 10.9391 24 12 24C13.0609 24 14.0783 23.5786 14.8284 22.8284C15.5786 22.0783 16 21.0609 16 20V6H17V4H7ZM11 18C10.4 18 10 17.6 10 17C10 16.4 10.4 16 11 16C11.6 16 12 16.4 12 17C12 17.6 11.6 18 11 18ZM13 14C12.4 14 12 13.6 12 13C12 12.4 12.4 12 13 12C13.6 12 14 12.4 14 13C14 13.6 13.6 14 13 14ZM14 9H10V6H14V9Z" fill="#DF6D51"/>
<path d="M37.5753 6.12926H36.0241C35.9645 5.79782 35.8535 5.50615 35.6911 5.25426C35.5286 5.00237 35.3298 4.78859 35.0945 4.61293C34.8591 4.43726 34.5956 4.30469 34.304 4.2152C34.0156 4.12571 33.709 4.08097 33.3842 4.08097C32.7976 4.08097 32.2723 4.22846 31.8082 4.52344C31.3475 4.81842 30.983 5.25095 30.7145 5.82102C30.4493 6.3911 30.3168 7.08712 30.3168 7.90909C30.3168 8.73769 30.4493 9.43703 30.7145 10.0071C30.983 10.5772 31.3492 11.008 31.8132 11.2997C32.2772 11.5914 32.7992 11.7372 33.3793 11.7372C33.7008 11.7372 34.0057 11.6941 34.294 11.608C34.5857 11.5185 34.8492 11.3875 35.0845 11.2152C35.3198 11.0429 35.5187 10.8324 35.6811 10.5838C35.8468 10.3319 35.9612 10.0436 36.0241 9.71875L37.5753 9.72372C37.4924 10.2242 37.3317 10.6849 37.093 11.1058C36.8577 11.5234 36.5545 11.8847 36.1832 12.1896C35.8153 12.4912 35.3944 12.7249 34.9205 12.8906C34.4465 13.0563 33.9295 13.1392 33.3693 13.1392C32.4877 13.1392 31.7022 12.9304 31.0128 12.5128C30.3234 12.0919 29.7798 11.4903 29.3821 10.7081C28.9877 9.9259 28.7905 8.9929 28.7905 7.90909C28.7905 6.82197 28.9893 5.88897 29.3871 5.11008C29.7848 4.32789 30.3284 3.72798 31.0178 3.31037C31.7071 2.88944 32.491 2.67898 33.3693 2.67898C33.9096 2.67898 34.4134 2.75687 34.8807 2.91264C35.3513 3.0651 35.7739 3.29048 36.1484 3.58878C36.523 3.88376 36.8329 4.24503 37.0781 4.67258C37.3234 5.09683 37.4891 5.58239 37.5753 6.12926ZM42.5854 13.1541C41.833 13.1541 41.1851 12.9934 40.6415 12.6719C40.1013 12.3471 39.6837 11.8913 39.3887 11.3047C39.097 10.7147 38.9512 10.0237 38.9512 9.23153C38.9512 8.44934 39.097 7.75994 39.3887 7.16335C39.6837 6.56676 40.0946 6.10109 40.6216 5.76633C41.1519 5.43158 41.7717 5.2642 42.481 5.2642C42.9119 5.2642 43.3295 5.33546 43.7338 5.47798C44.1382 5.6205 44.5011 5.84422 44.8226 6.14915C45.1441 6.45407 45.3977 6.85014 45.5833 7.33736C45.7689 7.82126 45.8617 8.40956 45.8617 9.10227V9.62926H39.7914V8.51562H44.405C44.405 8.12453 44.3255 7.77817 44.1664 7.47656C44.0073 7.17164 43.7836 6.93134 43.4952 6.75568C43.2102 6.58002 42.8754 6.49219 42.4909 6.49219C42.0733 6.49219 41.7087 6.59493 41.3972 6.80043C41.089 7.0026 40.8503 7.26776 40.6813 7.59588C40.5156 7.92069 40.4327 8.27367 40.4327 8.65483V9.52486C40.4327 10.0353 40.5222 10.4695 40.7012 10.8274C40.8835 11.1854 41.137 11.4588 41.4618 11.6477C41.7866 11.8333 42.1661 11.9261 42.6003 11.9261C42.882 11.9261 43.1389 11.8864 43.3709 11.8068C43.6029 11.724 43.8034 11.6013 43.9725 11.4389C44.1415 11.2765 44.2708 11.076 44.3603 10.8374L45.7672 11.0909C45.6545 11.5052 45.4524 11.8681 45.1607 12.1797C44.8723 12.4879 44.5094 12.7282 44.0719 12.9006C43.6377 13.0696 43.1422 13.1541 42.5854 13.1541ZM48.9975 8.46591V13H47.511V5.36364H48.9379V6.60653H49.0323C49.208 6.20218 49.4831 5.87737 49.8576 5.6321C50.2354 5.38684 50.7111 5.2642 51.2844 5.2642C51.8048 5.2642 52.2605 5.37358 52.6516 5.59233C53.0427 5.80777 53.346 6.12926 53.5614 6.55682C53.7769 6.98437 53.8846 7.51302 53.8846 8.14276V13H52.3981V8.32173C52.3981 7.76823 52.2539 7.3357 51.9656 7.02415C51.6772 6.70928 51.2811 6.55185 50.7773 6.55185C50.4326 6.55185 50.1261 6.62642 49.8576 6.77557C49.5924 6.92472 49.382 7.14347 49.2262 7.43182C49.0737 7.71686 48.9975 8.06155 48.9975 8.46591ZM59.4428 5.36364V6.55682H55.2717V5.36364H59.4428ZM56.3903 3.53409H57.8768V10.7578C57.8768 11.0462 57.9199 11.2633 58.006 11.4091C58.0922 11.5516 58.2032 11.6494 58.3391 11.7024C58.4783 11.7521 58.6291 11.777 58.7915 11.777C58.9109 11.777 59.0153 11.7687 59.1048 11.7521C59.1942 11.7356 59.2638 11.7223 59.3136 11.7124L59.582 12.9403C59.4959 12.9735 59.3732 13.0066 59.2141 13.0398C59.055 13.0762 58.8562 13.0961 58.6175 13.0994C58.2264 13.1061 57.8619 13.0365 57.5238 12.8906C57.1857 12.7448 56.9123 12.5194 56.7035 12.2145C56.4947 11.9096 56.3903 11.5268 56.3903 11.0661V3.53409ZM61.0872 13V5.36364H62.524V6.5767H62.6035C62.7427 6.16572 62.988 5.84257 63.3393 5.60724C63.694 5.36861 64.095 5.24929 64.5424 5.24929C64.6352 5.24929 64.7446 5.2526 64.8706 5.25923C64.9998 5.26586 65.1009 5.27415 65.1738 5.28409V6.70597C65.1142 6.68939 65.0081 6.67116 64.8556 6.65128C64.7032 6.62808 64.5507 6.61648 64.3983 6.61648C64.0469 6.61648 63.7337 6.69105 63.4586 6.8402C63.1868 6.98603 62.9714 7.18987 62.8123 7.4517C62.6532 7.71023 62.5737 8.00521 62.5737 8.33665V13H61.0872ZM69.478 13.1541C68.7256 13.1541 68.0777 12.9934 67.5341 12.6719C66.9938 12.3471 66.5762 11.8913 66.2812 11.3047C65.9896 10.7147 65.8438 10.0237 65.8438 9.23153C65.8438 8.44934 65.9896 7.75994 66.2812 7.16335C66.5762 6.56676 66.9872 6.10109 67.5142 5.76633C68.0445 5.43158 68.6643 5.2642 69.3736 5.2642C69.8045 5.2642 70.2221 5.33546 70.6264 5.47798C71.0308 5.6205 71.3937 5.84422 71.7152 6.14915C72.0367 6.45407 72.2902 6.85014 72.4759 7.33736C72.6615 7.82126 72.7543 8.40956 72.7543 9.10227V9.62926H66.6839V8.51562H71.2976C71.2976 8.12453 71.218 7.77817 71.0589 7.47656C70.8999 7.17164 70.6761 6.93134 70.3878 6.75568C70.1027 6.58002 69.768 6.49219 69.3835 6.49219C68.9659 6.49219 68.6013 6.59493 68.2898 6.80043C67.9815 7.0026 67.7429 7.26776 67.5739 7.59588C67.4081 7.92069 67.3253 8.27367 67.3253 8.65483V9.52486C67.3253 10.0353 67.4148 10.4695 67.5938 10.8274C67.776 11.1854 68.0296 11.4588 68.3544 11.6477C68.6792 11.8333 69.0587 11.9261 69.4929 11.9261C69.7746 11.9261 70.0315 11.8864 70.2635 11.8068C70.4955 11.724 70.696 11.6013 70.8651 11.4389C71.0341 11.2765 71.1634 11.076 71.2528 10.8374L72.6598 11.0909C72.5471 11.5052 72.3449 11.8681 72.0533 12.1797C71.7649 12.4879 71.402 12.7282 70.9645 12.9006C70.5303 13.0696 70.0348 13.1541 69.478 13.1541ZM79.5952 8.46591V13H78.1087V5.36364H79.5355V6.60653H79.63C79.8056 6.20218 80.0807 5.87737 80.4553 5.6321C80.8331 5.38684 81.3087 5.2642 81.8821 5.2642C82.4025 5.2642 82.8582 5.37358 83.2493 5.59233C83.6404 5.80777 83.9437 6.12926 84.1591 6.55682C84.3745 6.98437 84.4822 7.51302 84.4822 8.14276V13H82.9957V8.32173C82.9957 7.76823 82.8516 7.3357 82.5632 7.02415C82.2749 6.70928 81.8788 6.55185 81.375 6.55185C81.0303 6.55185 80.7237 6.62642 80.4553 6.77557C80.1901 6.92472 79.9796 7.14347 79.8239 7.43182C79.6714 7.71686 79.5952 8.06155 79.5952 8.46591ZM88.6982 13.169C88.2143 13.169 87.7768 13.0795 87.3857 12.9006C86.9946 12.7183 86.6847 12.4548 86.456 12.1101C86.2306 11.7654 86.1179 11.3428 86.1179 10.8423C86.1179 10.4115 86.2008 10.0568 86.3665 9.77841C86.5322 9.5 86.7559 9.27959 87.0376 9.11719C87.3194 8.95478 87.6342 8.83215 87.9822 8.74929C88.3303 8.66643 88.6849 8.60346 89.0462 8.56037C89.5036 8.50734 89.8748 8.46425 90.1598 8.43111C90.4448 8.39465 90.652 8.33665 90.7812 8.2571C90.9105 8.17756 90.9751 8.0483 90.9751 7.86932V7.83452C90.9751 7.40033 90.8525 7.06392 90.6072 6.82528C90.3653 6.58665 90.004 6.46733 89.5234 6.46733C89.023 6.46733 88.6286 6.57836 88.3402 6.80043C88.0552 7.01918 87.858 7.26278 87.7486 7.53125L86.3516 7.21307C86.5173 6.74905 86.7592 6.37453 87.0774 6.08949C87.3989 5.80114 87.7685 5.59233 88.1861 5.46307C88.6037 5.33049 89.0429 5.2642 89.5036 5.2642C89.8085 5.2642 90.1316 5.30066 90.473 5.37358C90.8177 5.44318 91.1392 5.57244 91.4375 5.76136C91.7391 5.95028 91.986 6.22041 92.1783 6.57173C92.3705 6.91974 92.4666 7.37216 92.4666 7.92898V13H91.0149V11.956H90.9553C90.8591 12.1482 90.715 12.3371 90.5227 12.5227C90.3305 12.7083 90.0836 12.8625 89.782 12.9851C89.4804 13.1077 89.1191 13.169 88.6982 13.169ZM89.0213 11.9759C89.4323 11.9759 89.7836 11.8946 90.0753 11.7322C90.3703 11.5698 90.594 11.3577 90.7464 11.0959C90.9022 10.8307 90.9801 10.5473 90.9801 10.2457V9.26136C90.9271 9.31439 90.8243 9.36411 90.6719 9.41051C90.5227 9.4536 90.352 9.49171 90.1598 9.52486C89.9676 9.55469 89.7803 9.58286 89.598 9.60938C89.4157 9.63258 89.2633 9.65246 89.1406 9.66903C88.8523 9.70549 88.5888 9.76681 88.3501 9.85298C88.1148 9.93916 87.9259 10.0634 87.7834 10.2259C87.6442 10.3849 87.5746 10.5971 87.5746 10.8622C87.5746 11.2301 87.7105 11.5085 87.9822 11.6974C88.254 11.883 88.6004 11.9759 89.0213 11.9759ZM94.4466 13V5.36364H95.8734V6.60653H95.9679C96.127 6.18561 96.3871 5.85748 96.7484 5.62216C97.1097 5.38352 97.5422 5.2642 98.046 5.2642C98.5564 5.2642 98.984 5.38352 99.3287 5.62216C99.6767 5.8608 99.9335 6.18892 100.099 6.60653H100.179C100.361 6.19886 100.651 5.87405 101.049 5.6321C101.447 5.38684 101.921 5.2642 102.471 5.2642C103.163 5.2642 103.729 5.4813 104.166 5.91548C104.607 6.34967 104.827 7.00426 104.827 7.87926V13H103.341V8.01847C103.341 7.50142 103.2 7.12689 102.918 6.89489C102.636 6.66288 102.3 6.54688 101.909 6.54688C101.425 6.54688 101.049 6.69602 100.78 6.99432C100.512 7.2893 100.378 7.6688 100.378 8.13281V13H98.8961V7.92401C98.8961 7.50971 98.7669 7.17661 98.5083 6.92472C98.2498 6.67282 97.9134 6.54688 97.4991 6.54688C97.2174 6.54688 96.9572 6.62145 96.7186 6.7706C96.4833 6.91643 96.2927 7.12026 96.1468 7.3821C96.0043 7.64394 95.9331 7.94721 95.9331 8.2919V13H94.4466ZM110.111 13.1541C109.358 13.1541 108.71 12.9934 108.167 12.6719C107.627 12.3471 107.209 11.8913 106.914 11.3047C106.622 10.7147 106.477 10.0237 106.477 9.23153C106.477 8.44934 106.622 7.75994 106.914 7.16335C107.209 6.56676 107.62 6.10109 108.147 5.76633C108.677 5.43158 109.297 5.2642 110.006 5.2642C110.437 5.2642 110.855 5.33546 111.259 5.47798C111.664 5.6205 112.027 5.84422 112.348 6.14915C112.67 6.45407 112.923 6.85014 113.109 7.33736C113.294 7.82126 113.387 8.40956 113.387 9.10227V9.62926H107.317V8.51562H111.93C111.93 8.12453 111.851 7.77817 111.692 7.47656C111.533 7.17164 111.309 6.93134 111.021 6.75568C110.736 6.58002 110.401 6.49219 110.016 6.49219C109.599 6.49219 109.234 6.59493 108.923 6.80043C108.614 7.0026 108.376 7.26776 108.207 7.59588C108.041 7.92069 107.958 8.27367 107.958 8.65483V9.52486C107.958 10.0353 108.048 10.4695 108.227 10.8274C108.409 11.1854 108.662 11.4588 108.987 11.6477C109.312 11.8333 109.692 11.9261 110.126 11.9261C110.407 11.9261 110.664 11.8864 110.896 11.8068C111.128 11.724 111.329 11.6013 111.498 11.4389C111.667 11.2765 111.796 11.076 111.886 10.8374L113.293 11.0909C113.18 11.5052 112.978 11.8681 112.686 12.1797C112.398 12.4879 112.035 12.7282 111.597 12.9006C111.163 13.0696 110.668 13.1541 110.111 13.1541Z" fill="#364152"/>
<path d="M31.392 26.1364C30.8466 26.1364 30.3651 25.9986 29.9474 25.723C29.5298 25.4446 29.2031 25.0526 28.9673 24.5469C28.7315 24.0384 28.6136 23.4375 28.6136 22.7443C28.6136 22.0568 28.7315 21.4602 28.9673 20.9545C29.2031 20.4489 29.5313 20.0582 29.9517 19.7827C30.3722 19.5071 30.858 19.3693 31.4091 19.3693C31.8352 19.3693 32.1719 19.4403 32.419 19.5824C32.669 19.7216 32.8594 19.8807 32.9901 20.0597C33.1236 20.2358 33.2273 20.3807 33.3011 20.4943H33.3864V17.2727H34.392V26H33.4205V24.9943H33.3011C33.2273 25.1136 33.1222 25.2642 32.9858 25.446C32.8494 25.625 32.6548 25.7855 32.402 25.9276C32.1491 26.0668 31.8125 26.1364 31.392 26.1364ZM31.5284 25.233C31.9318 25.233 32.2727 25.1278 32.5511 24.9176C32.8295 24.7045 33.0412 24.4105 33.1861 24.0355C33.331 23.6577 33.4034 23.2216 33.4034 22.7273C33.4034 22.2386 33.3324 21.8111 33.1903 21.4446C33.0483 21.0753 32.8381 20.7884 32.5597 20.5838C32.2813 20.3764 31.9375 20.2727 31.5284 20.2727C31.1023 20.2727 30.7472 20.3821 30.4631 20.6009C30.1818 20.8168 29.9702 21.1108 29.8281 21.483C29.6889 21.8523 29.6193 22.267 29.6193 22.7273C29.6193 23.1932 29.6903 23.6165 29.8324 23.9972C29.9773 24.375 30.1903 24.6761 30.4716 24.9006C30.7557 25.1222 31.108 25.233 31.5284 25.233ZM39.1179 26.1364C38.4872 26.1364 37.9432 25.9972 37.4858 25.7188C37.0312 25.4375 36.6804 25.0455 36.4332 24.5426C36.1889 24.0369 36.0668 23.4489 36.0668 22.7784C36.0668 22.108 36.1889 21.517 36.4332 21.0057C36.6804 20.4915 37.0241 20.0909 37.4645 19.804C37.9077 19.5142 38.4247 19.3693 39.0156 19.3693C39.3565 19.3693 39.6932 19.4261 40.0256 19.5398C40.358 19.6534 40.6605 19.8381 40.9332 20.0938C41.206 20.3466 41.4233 20.6818 41.5852 21.0994C41.7472 21.517 41.8281 22.0312 41.8281 22.642V23.0682H36.7827V22.1989H40.8054C40.8054 21.8295 40.7315 21.5 40.5838 21.2102C40.4389 20.9205 40.2315 20.6918 39.9616 20.5241C39.6946 20.3565 39.3793 20.2727 39.0156 20.2727C38.6151 20.2727 38.2685 20.3722 37.9759 20.571C37.6861 20.767 37.4631 21.0227 37.3068 21.3381C37.1506 21.6534 37.0724 21.9915 37.0724 22.3523V22.9318C37.0724 23.4261 37.1577 23.8452 37.3281 24.1889C37.5014 24.5298 37.7415 24.7898 38.0483 24.9688C38.3551 25.1449 38.7116 25.233 39.1179 25.233C39.3821 25.233 39.6207 25.196 39.8338 25.1222C40.0497 25.0455 40.2358 24.9318 40.392 24.7812C40.5483 24.6278 40.669 24.4375 40.7543 24.2102L41.7259 24.483C41.6236 24.8125 41.4517 25.1023 41.2102 25.3523C40.9688 25.5994 40.6705 25.7926 40.3153 25.9318C39.9602 26.0682 39.5611 26.1364 39.1179 26.1364ZM43.358 28.4545V19.4545H44.3295V20.4943H44.4489C44.5227 20.3807 44.625 20.2358 44.7557 20.0597C44.8892 19.8807 45.0795 19.7216 45.3267 19.5824C45.5767 19.4403 45.9148 19.3693 46.3409 19.3693C46.892 19.3693 47.3778 19.5071 47.7983 19.7827C48.2188 20.0582 48.5469 20.4489 48.7827 20.9545C49.0185 21.4602 49.1364 22.0568 49.1364 22.7443C49.1364 23.4375 49.0185 24.0384 48.7827 24.5469C48.5469 25.0526 48.2202 25.4446 47.8026 25.723C47.3849 25.9986 46.9034 26.1364 46.358 26.1364C45.9375 26.1364 45.6009 26.0668 45.348 25.9276C45.0952 25.7855 44.9006 25.625 44.7642 25.446C44.6278 25.2642 44.5227 25.1136 44.4489 24.9943H44.3636V28.4545H43.358ZM44.3466 22.7273C44.3466 23.2216 44.419 23.6577 44.5639 24.0355C44.7088 24.4105 44.9205 24.7045 45.1989 24.9176C45.4773 25.1278 45.8182 25.233 46.2216 25.233C46.642 25.233 46.9929 25.1222 47.2741 24.9006C47.5582 24.6761 47.7713 24.375 47.9134 23.9972C48.0582 23.6165 48.1307 23.1932 48.1307 22.7273C48.1307 22.267 48.0597 21.8523 47.9176 21.483C47.7784 21.1108 47.5668 20.8168 47.2827 20.6009C47.0014 20.3821 46.6477 20.2727 46.2216 20.2727C45.8125 20.2727 45.4688 20.3764 45.1903 20.5838C44.9119 20.7884 44.7017 21.0753 44.5597 21.4446C44.4176 21.8111 44.3466 22.2386 44.3466 22.7273ZM52.5966 26.1534C52.1818 26.1534 51.8054 26.0753 51.4673 25.919C51.1293 25.7599 50.8608 25.5312 50.6619 25.233C50.4631 24.9318 50.3636 24.5682 50.3636 24.142C50.3636 23.767 50.4375 23.4631 50.5852 23.2301C50.733 22.9943 50.9304 22.8097 51.1776 22.6761C51.4247 22.5426 51.6974 22.4432 51.9957 22.3778C52.2969 22.3097 52.5994 22.2557 52.9034 22.2159C53.3011 22.1648 53.6236 22.1264 53.8707 22.1009C54.1207 22.0724 54.3026 22.0256 54.4162 21.9602C54.5327 21.8949 54.5909 21.7812 54.5909 21.6193V21.5852C54.5909 21.1648 54.4759 20.8381 54.2457 20.6051C54.0185 20.3722 53.6733 20.2557 53.2102 20.2557C52.7301 20.2557 52.3537 20.3608 52.081 20.571C51.8082 20.7812 51.6165 21.0057 51.5057 21.2443L50.5511 20.9034C50.7216 20.5057 50.9489 20.196 51.233 19.9744C51.5199 19.75 51.8324 19.5937 52.1705 19.5057C52.5114 19.4148 52.8466 19.3693 53.1761 19.3693C53.3864 19.3693 53.6278 19.3949 53.9006 19.446C54.1761 19.4943 54.4418 19.5952 54.6974 19.7486C54.956 19.902 55.1705 20.1335 55.3409 20.4432C55.5114 20.7528 55.5966 21.1676 55.5966 21.6875V26H54.5909V25.1136H54.5398C54.4716 25.2557 54.358 25.4077 54.1989 25.5696C54.0398 25.7315 53.8281 25.8693 53.5639 25.983C53.2997 26.0966 52.9773 26.1534 52.5966 26.1534ZM52.75 25.25C53.1477 25.25 53.483 25.1719 53.7557 25.0156C54.0313 24.8594 54.2386 24.6577 54.3778 24.4105C54.5199 24.1634 54.5909 23.9034 54.5909 23.6307V22.7102C54.5483 22.7614 54.4545 22.8082 54.3097 22.8509C54.1676 22.8906 54.0028 22.9261 53.8153 22.9574C53.6307 22.9858 53.4503 23.0114 53.2741 23.0341C53.1009 23.054 52.9602 23.071 52.8523 23.0852C52.5909 23.1193 52.3466 23.1747 52.1193 23.2514C51.8949 23.3253 51.7131 23.4375 51.5739 23.5881C51.4375 23.7358 51.3693 23.9375 51.3693 24.1932C51.3693 24.5426 51.4986 24.8068 51.7571 24.9858C52.0185 25.1619 52.3494 25.25 52.75 25.25ZM57.4322 26V19.4545H58.4038V20.4432H58.4719C58.5913 20.1193 58.8072 19.8565 59.1197 19.6548C59.4322 19.4531 59.7844 19.3523 60.1765 19.3523C60.2504 19.3523 60.3427 19.3537 60.4535 19.3565C60.5643 19.3594 60.6481 19.3636 60.7049 19.3693V20.392C60.6708 20.3835 60.5927 20.3707 60.4705 20.3537C60.3512 20.3338 60.2248 20.3239 60.0913 20.3239C59.7731 20.3239 59.489 20.3906 59.239 20.5241C58.9918 20.6548 58.7958 20.8366 58.6509 21.0696C58.5089 21.2997 58.4379 21.5625 58.4379 21.858V26H57.4322ZM65.1538 19.4545V20.3068H61.7617V19.4545H65.1538ZM62.7504 17.8864H63.756V24.125C63.756 24.4091 63.7972 24.6222 63.8796 24.7642C63.9648 24.9034 64.0728 24.9972 64.2035 25.0455C64.337 25.0909 64.4776 25.1136 64.6254 25.1136C64.7362 25.1136 64.8271 25.108 64.8981 25.0966C64.9691 25.0824 65.0259 25.071 65.0685 25.0625L65.2731 25.9659C65.2049 25.9915 65.1097 26.017 64.9876 26.0426C64.8654 26.071 64.7106 26.0852 64.5231 26.0852C64.239 26.0852 63.9606 26.0241 63.6879 25.902C63.418 25.7798 63.1935 25.5938 63.0146 25.3438C62.8384 25.0938 62.7504 24.7784 62.7504 24.3977V17.8864ZM66.6665 26V19.4545H67.6381V20.4773H67.7234C67.8597 20.1278 68.0799 19.8565 68.3839 19.6634C68.6879 19.4673 69.0529 19.3693 69.479 19.3693C69.9109 19.3693 70.2702 19.4673 70.5572 19.6634C70.8469 19.8565 71.0728 20.1278 71.2347 20.4773H71.3029C71.4705 20.1392 71.7219 19.8707 72.0572 19.6719C72.3924 19.4702 72.7944 19.3693 73.2631 19.3693C73.8484 19.3693 74.3271 19.5526 74.6992 19.919C75.0714 20.2827 75.2575 20.8494 75.2575 21.6193V26H74.2518V21.6193C74.2518 21.1364 74.1197 20.7912 73.8555 20.5838C73.5913 20.3764 73.2802 20.2727 72.9222 20.2727C72.462 20.2727 72.1055 20.4119 71.8526 20.6903C71.5998 20.9659 71.4734 21.3153 71.4734 21.7386V26H70.4506V21.517C70.4506 21.1449 70.3299 20.8452 70.0884 20.6179C69.8469 20.3878 69.5359 20.2727 69.1552 20.2727C68.8938 20.2727 68.6495 20.3423 68.4222 20.4815C68.1978 20.6207 68.016 20.8139 67.8768 21.0611C67.7404 21.3054 67.6722 21.5881 67.6722 21.9091V26H66.6665ZM79.8406 26.1364C79.2099 26.1364 78.6658 25.9972 78.2085 25.7188C77.7539 25.4375 77.4031 25.0455 77.1559 24.5426C76.9116 24.0369 76.7894 23.4489 76.7894 22.7784C76.7894 22.108 76.9116 21.517 77.1559 21.0057C77.4031 20.4915 77.7468 20.0909 78.1871 19.804C78.6303 19.5142 79.1474 19.3693 79.7383 19.3693C80.0792 19.3693 80.4158 19.4261 80.7482 19.5398C81.0806 19.6534 81.3832 19.8381 81.6559 20.0938C81.9286 20.3466 82.146 20.6818 82.3079 21.0994C82.4698 21.517 82.5508 22.0312 82.5508 22.642V23.0682H77.5053V22.1989H81.5281C81.5281 21.8295 81.4542 21.5 81.3065 21.2102C81.1616 20.9205 80.9542 20.6918 80.6843 20.5241C80.4173 20.3565 80.1019 20.2727 79.7383 20.2727C79.3377 20.2727 78.9911 20.3722 78.6985 20.571C78.4087 20.767 78.1857 21.0227 78.0295 21.3381C77.8732 21.6534 77.7951 21.9915 77.7951 22.3523V22.9318C77.7951 23.4261 77.8803 23.8452 78.0508 24.1889C78.2241 24.5298 78.4641 24.7898 78.771 24.9688C79.0778 25.1449 79.4343 25.233 79.8406 25.233C80.1048 25.233 80.3434 25.196 80.5565 25.1222C80.7724 25.0455 80.9585 24.9318 81.1147 24.7812C81.271 24.6278 81.3917 24.4375 81.4769 24.2102L82.4485 24.483C82.3462 24.8125 82.1744 25.1023 81.9329 25.3523C81.6914 25.5994 81.3931 25.7926 81.038 25.9318C80.6829 26.0682 80.2837 26.1364 79.8406 26.1364ZM85.0863 22.0625V26H84.0806V19.4545H85.0522V20.4773H85.1374C85.2908 20.1449 85.5238 19.8778 85.8363 19.6761C86.1488 19.4716 86.5522 19.3693 87.0465 19.3693C87.4897 19.3693 87.8775 19.4602 88.2099 19.642C88.5423 19.821 88.8008 20.0938 88.9854 20.4602C89.1701 20.8239 89.2624 21.2841 89.2624 21.8409V26H88.2567V21.9091C88.2567 21.3949 88.1232 20.9943 87.8562 20.7074C87.5891 20.4176 87.2227 20.2727 86.7567 20.2727C86.4357 20.2727 86.1488 20.3423 85.896 20.4815C85.646 20.6207 85.4485 20.8239 85.3036 21.0909C85.1587 21.358 85.0863 21.6818 85.0863 22.0625ZM93.9467 19.4545V20.3068H90.5547V19.4545H93.9467ZM91.5433 17.8864H92.549V24.125C92.549 24.4091 92.5902 24.6222 92.6726 24.7642C92.7578 24.9034 92.8658 24.9972 92.9964 25.0455C93.13 25.0909 93.2706 25.1136 93.4183 25.1136C93.5291 25.1136 93.62 25.108 93.6911 25.0966C93.7621 25.0824 93.8189 25.071 93.8615 25.0625L94.0661 25.9659C93.9979 25.9915 93.9027 26.017 93.7805 26.0426C93.6584 26.071 93.5036 26.0852 93.3161 26.0852C93.032 26.0852 92.7536 26.0241 92.4808 25.902C92.2109 25.7798 91.9865 25.5938 91.8075 25.3438C91.6314 25.0938 91.5433 24.7784 91.5433 24.3977V17.8864Z" fill="#6B7280"/>
</svg>
