<svg width="25" height="24" viewBox="0 0 25 24" fill="none" xmlns="http://www.w3.org/2000/svg">
<path d="M25.2276 11.1515C25.4527 11.3765 25.5791 11.6817 25.5791 12C25.5791 12.3183 25.4527 12.6235 25.2276 12.8485L23.4008 14.6754C23.1998 14.8762 22.9342 14.9991 22.6511 15.0224C22.368 15.0458 22.0858 14.9679 21.8547 14.8027L17.4636 11.6674C17.2544 11.5182 17.0986 11.3057 17.0192 11.0613C16.9397 10.8169 16.9409 10.5534 17.0224 10.3097L17.68 8.3403C16.0417 7.64405 14.2798 7.2852 12.4997 7.2852C10.7196 7.2852 8.95776 7.64405 7.31946 8.3403L7.97622 10.3106C8.05763 10.5541 8.05878 10.8173 7.97951 11.0615C7.90025 11.3057 7.74473 11.5181 7.53583 11.6674L3.1447 14.8027C2.91363 14.9679 2.63145 15.0458 2.34836 15.0224C2.06527 14.9991 1.79963 14.8762 1.59868 14.6754L-0.2282 12.8485C-0.453244 12.6235 -0.579674 12.3183 -0.579674 12C-0.579674 11.6817 -0.453244 11.3765 -0.2282 11.1515L1.46886 9.45442C7.56129 3.36198 17.4382 3.36198 23.5306 9.45442L25.2276 11.1515Z" fill="white"/>
</svg>
