<svg width="16" height="20" viewBox="0 0 16 20" fill="none" xmlns="http://www.w3.org/2000/svg">
<path d="M7.5 0.849748C3.51667 1.10808 0.5 4.59975 0.5 8.59141V14.1664C0.5 15.5497 1.61667 16.6664 3 16.6664H3.83333C4.75 16.6664 5.5 15.9164 5.5 14.9997V11.6664C5.5 10.7497 4.75 9.99975 3.83333 9.99975H2.16667V8.57475C2.16667 5.37475 4.63333 2.59141 7.825 2.49975C11.1333 2.40808 13.8333 5.04975 13.8333 8.33308V9.99975H12.1667C11.25 9.99975 10.5 10.7497 10.5 11.6664V14.9997C10.5 15.9164 11.25 16.6664 12.1667 16.6664H13.8333V17.4997H8.83333C8.375 17.4997 8 17.8747 8 18.3331C8 18.7914 8.375 19.1664 8.83333 19.1664H13C14.3833 19.1664 15.5 18.0497 15.5 16.6664V8.33308C15.5 4.02475 11.8667 0.566415 7.5 0.849748Z" fill="#6B7280"/>
</svg>
