<svg width="314" height="236" viewBox="0 0 314 236" fill="none" xmlns="http://www.w3.org/2000/svg">
<path d="M43.5672 210.94L34.5024 99.8726C34.2714 97.0442 35.0578 94.2262 36.7201 91.9264L81.9302 29.356C83.1375 27.6841 84.7583 26.3544 86.6339 25.4971C88.5095 24.6399 90.5754 24.2843 92.6297 24.4655L247.4 38.1107C249.849 38.3266 252.173 39.2951 254.051 40.8837C255.927 42.4722 257.268 44.6029 257.886 46.9832L279.149 128.819C279.673 130.831 279.66 132.945 279.112 134.95L258.31 211.209L43.5672 210.94Z" fill="#FBFBFB"/>
<path d="M205.16 111.285C205.16 111.285 197.626 118.477 193.21 117.761L191.169 120.332C191.169 120.332 199.586 121.056 205.16 111.285Z" fill="#61656D"/>
<path opacity="0.3" d="M205.16 111.285C205.16 111.285 199.724 118.982 192.584 119.256L193.838 117.645C193.838 117.645 196.923 118.785 205.16 111.285Z" fill="black"/>
<path d="M172.714 109.549C172.714 109.549 172.003 119.941 168.265 122.394L168.49 125.669C168.49 125.669 175.192 120.52 172.714 109.549Z" fill="#61656D"/>
<path opacity="0.3" d="M172.714 109.549C172.714 109.549 173.891 118.899 168.81 123.919L168.646 121.88C168.646 121.88 171.689 120.639 172.714 109.549Z" fill="black"/>
<path d="M197.141 106.362C197.141 106.362 189.867 123.993 181.951 126.082L180.439 131.894C180.439 131.894 195.072 126.851 197.141 106.362Z" fill="#61656D"/>
<path opacity="0.3" d="M197.141 106.362C197.141 106.362 193.753 123.279 182.008 129.041L182.911 125.406C182.911 125.406 188.916 125.024 197.141 106.362Z" fill="black"/>
<path d="M162.888 111.312C162.888 111.312 170.159 128.942 178.075 131.03L179.594 136.841C179.594 136.841 164.964 131.801 162.888 111.312Z" fill="#61656D"/>
<path opacity="0.3" d="M162.888 111.312C162.888 111.312 166.277 128.227 178.021 133.991L177.122 130.364C177.122 130.364 171.116 129.972 162.888 111.312Z" fill="black"/>
<path d="M178.923 98.8012L176.907 194.514L184.837 194.271L181.429 98.7188L178.923 98.8012Z" fill="#61656D"/>
<path opacity="0.3" d="M180.038 98.7796L180.666 194.334L184.838 194.271L181.43 98.7188L180.038 98.7796Z" fill="black"/>
<path d="M201.992 72.6661C200.903 72.668 199.819 72.7805 198.754 73.0017C195.866 66.9748 188.892 62.7358 180.732 62.7358C174.073 62.7358 168.183 65.5775 164.686 69.9049C163.576 69.6888 162.448 69.5791 161.317 69.5771C152.817 69.5771 145.927 75.3959 145.927 82.563C145.927 88.6271 150.833 93.7002 157.486 95.1387V95.5567H202.002C209.496 95.5567 215.57 90.4326 215.57 84.1075C215.57 77.7823 209.487 72.6661 201.992 72.6661Z" fill="#FDA57D"/>
<path opacity="0.2" d="M204.023 72.8032C201.864 83.2378 187.551 91.2998 170.208 91.2998C160.863 91.2998 152.399 88.9566 146.236 85.1611C147.414 90.0379 151.806 93.9099 157.476 95.1384V95.5564H201.992C209.487 95.5564 215.56 90.4324 215.56 84.1072C215.56 78.3571 210.552 73.6294 204.023 72.8032Z" fill="black"/>
<g opacity="0.2">
<path opacity="0.2" d="M201.993 72.6656C200.904 72.6676 199.82 72.78 198.755 73.0012C195.867 66.9744 188.893 62.7354 180.733 62.7354C174.074 62.7354 168.184 65.5771 164.687 69.9044C163.577 69.6883 162.449 69.5786 161.318 69.5766C152.818 69.5766 145.928 75.3954 145.928 82.5625C145.928 88.6266 150.834 93.6997 157.487 95.1382V95.5562H202.003C209.497 95.5562 215.571 90.4321 215.571 84.107C215.571 77.7818 209.488 72.6656 201.993 72.6656Z" fill="white"/>
</g>
<path d="M214.001 95.1433C213.21 95.1439 212.421 95.2261 211.646 95.3886C209.552 91.026 204.494 87.9448 198.571 87.9448C193.746 87.9448 189.474 90.0074 186.936 93.1435C186.129 92.9865 185.309 92.9076 184.487 92.908C178.319 92.908 173.322 97.1293 173.322 102.328C173.322 106.726 176.886 110.406 181.708 111.45V111.754H213.993C219.431 111.754 223.835 108.037 223.835 103.449C223.835 98.8602 219.439 95.1433 214.001 95.1433Z" fill="#FDA57D"/>
<path opacity="0.2" d="M215.527 95.4429C213.957 103.014 203.58 108.86 190.996 108.86C184.218 108.86 178.079 107.159 173.61 104.408C174.462 107.94 177.649 110.754 181.761 111.645V111.947H214.047C219.484 111.947 223.891 108.231 223.891 103.642C223.895 99.4758 220.263 96.0454 215.527 95.4429Z" fill="black"/>
<g opacity="0.2">
<path opacity="0.2" d="M214.002 95.1433C213.211 95.1439 212.422 95.2261 211.647 95.3886C209.553 91.026 204.495 87.9448 198.572 87.9448C193.747 87.9448 189.475 90.0074 186.937 93.1435C186.13 92.9865 185.31 92.9076 184.488 92.908C178.32 92.908 173.323 97.1293 173.323 102.328C173.323 106.726 176.887 110.406 181.709 111.45V111.754H213.994C219.432 111.754 223.836 108.037 223.836 103.449C223.836 98.8602 219.44 95.1433 214.002 95.1433Z" fill="white"/>
</g>
<path d="M154.851 109.646C154.851 109.646 160.542 118.369 165.007 118.685L166.408 121.65C166.408 121.65 158.046 120.431 154.851 109.646Z" fill="#61656D"/>
<path d="M178.054 95.7883C177.262 95.791 176.473 95.8733 175.699 96.0336C173.609 91.6729 168.547 88.5918 162.628 88.5918C157.799 88.5918 153.528 90.6524 150.991 93.7905C150.183 93.6333 149.362 93.5532 148.54 93.551C142.375 93.551 137.377 97.7724 137.377 102.971C137.377 107.369 140.939 111.047 145.761 112.091V112.393H178.054C183.49 112.393 187.896 108.68 187.896 104.092C187.896 99.5033 183.494 95.7883 178.054 95.7883Z" fill="#FDA57D"/>
<path opacity="0.2" d="M179.526 95.8926C177.956 103.462 167.579 109.312 154.995 109.312C148.215 109.312 142.076 107.611 137.607 104.859C138.457 108.392 141.646 111.204 145.757 112.093V112.395H178.053C183.489 112.395 187.894 108.682 187.894 104.094C187.894 99.9275 184.264 96.4931 179.526 95.8926Z" fill="black"/>
<g opacity="0.2">
<path opacity="0.2" d="M178.053 95.7878C177.261 95.7905 176.473 95.8728 175.698 96.0331C173.608 91.6724 168.546 88.5913 162.627 88.5913C157.798 88.5913 153.527 90.6519 150.99 93.79C150.182 93.6328 149.361 93.5527 148.539 93.5505C142.374 93.5505 137.376 97.7719 137.376 102.971C137.376 107.369 140.938 111.046 145.76 112.09V112.393H178.053C183.489 112.393 187.895 108.679 187.895 104.091C187.895 99.5028 183.493 95.7878 178.053 95.7878Z" fill="white"/>
</g>
<path opacity="0.3" d="M154.851 109.646C154.851 109.646 158.383 118.383 165.275 120.28L164.422 118.422C164.422 118.422 161.162 118.824 154.851 109.646Z" fill="black"/>
<path d="M87.135 31.4808V40.2336H87.0918V45.8817H87.135V54.6344H87.0918V60.2825H87.135V69.0352H87.0918V76.8185H87.135V85.5713H87.0918V92.124H87.135V100.877H87.0918V107.43H87.135V116.182H87.0918V124.297H87.135V133.05H87.0918V141.157H87.135V149.91H87.0918V158.035H87.135V166.787H87.0918V174.902H87.135V183.655H87.0918V191.483H92.7281L92.7792 191.585V24.4767L92.6339 24.4649C90.7444 24.2975 88.8422 24.5842 87.0859 25.3009V31.4808H87.135Z" fill="#B2B6BB"/>
<path d="M87.1291 31.4814H87.0859V40.2342H87.1291V31.4814Z" fill="#B2B6BB"/>
<path opacity="0.3" d="M87.1291 31.4814H87.0859V40.2342H87.1291V31.4814Z" fill="white"/>
<path d="M87.1291 45.8818H87.0859V54.6346H87.1291V45.8818Z" fill="#B2B6BB"/>
<path opacity="0.3" d="M87.1291 45.8818H87.0859V54.6346H87.1291V45.8818Z" fill="white"/>
<path d="M87.1291 60.2827H87.0859V62.5965V64.2038V69.0355H87.1291V60.2827Z" fill="#B2B6BB"/>
<path opacity="0.3" d="M87.1291 60.2827H87.0859V62.5965V64.2038V69.0355H87.1291V60.2827Z" fill="white"/>
<path d="M87.1291 76.8188H87.0859V85.5716H87.1291V76.8188Z" fill="#B2B6BB"/>
<path opacity="0.3" d="M87.1291 76.8188H87.0859V85.5716H87.1291V76.8188Z" fill="white"/>
<path d="M87.1291 92.124H87.0859V97.3364V98.9437V100.877H87.1291V92.124Z" fill="#B2B6BB"/>
<path opacity="0.3" d="M87.1291 92.124H87.0859V97.3364V98.9437V100.877H87.1291V92.124Z" fill="white"/>
<path d="M87.1291 107.43H87.0859V116.183H87.1291V107.43Z" fill="#B2B6BB"/>
<path opacity="0.3" d="M87.1291 107.43H87.0859V116.183H87.1291V107.43Z" fill="white"/>
<path d="M87.1291 124.297H87.0859V132.383V133.05H87.1291V124.297Z" fill="#B2B6BB"/>
<path opacity="0.3" d="M87.1291 124.297H87.0859V132.383V133.05H87.1291V124.297Z" fill="white"/>
<path d="M87.1291 141.165H87.0859V149.918H87.1291V141.165Z" fill="#B2B6BB"/>
<path opacity="0.3" d="M87.1291 141.165H87.0859V149.918H87.1291V141.165Z" fill="white"/>
<path d="M87.1291 158.032H87.0859V166.785H87.1291V158.032Z" fill="#B2B6BB"/>
<path opacity="0.3" d="M87.1291 158.032H87.0859V166.785H87.1291V158.032Z" fill="white"/>
<path d="M87.1291 174.901H87.0859V183.654H87.1291V174.901Z" fill="#B2B6BB"/>
<path opacity="0.3" d="M87.1291 174.901H87.0859V183.654H87.1291V174.901Z" fill="white"/>
<path d="M92.7793 191.594H154.545V29.923L92.7793 24.4771V191.594ZM98.1703 31.495H149.15V40.2438H98.1703V31.495ZM98.1703 46.2137H149.15V54.9625H98.1703V46.2137ZM98.1703 61.5212H149.15V70.27H98.1703V61.5212ZM98.1703 76.8287H149.15V85.5775H98.1703V76.8287ZM98.1703 92.1362H149.15V100.885H98.1703V92.1362ZM98.1703 107.444H149.15V116.193H98.1703V107.444ZM98.1703 124.321H149.15V133.07H98.1703V124.321ZM98.1703 141.189H149.15V149.938H98.1703V141.189ZM98.1703 158.066H149.15V166.815H98.1703V158.066ZM98.1703 174.944H149.15V183.693H98.1703V174.944Z" fill="#DADDDF"/>
<path d="M149.157 31.4854H147.179V40.2342H149.157V31.4854Z" fill="#868A91"/>
<path d="M147.177 31.4854H98.1699V40.2342H147.177V31.4854Z" fill="#868A91"/>
<path opacity="0.2" d="M147.177 31.4854H98.1699V40.2342H147.177V31.4854Z" fill="white"/>
<path d="M149.157 46.21H147.179V54.9588H149.157V46.21Z" fill="#868A91"/>
<path d="M147.177 46.21H98.1699V54.9588H147.177V46.21Z" fill="#868A91"/>
<path opacity="0.2" d="M147.177 46.21H98.1699V54.9588H147.177V46.21Z" fill="white"/>
<path d="M149.157 61.5151H147.179V70.264H149.157V61.5151Z" fill="#868A91"/>
<path d="M147.177 61.5151H98.1699V70.264H147.177V61.5151Z" fill="#868A91"/>
<path opacity="0.2" d="M147.177 61.5151H98.1699V70.264H147.177V61.5151Z" fill="white"/>
<path d="M149.157 76.8213H147.179V85.5701H149.157V76.8213Z" fill="#868A91"/>
<path d="M147.177 76.8213H98.1699V85.5701H147.177V76.8213Z" fill="#868A91"/>
<path opacity="0.2" d="M147.177 76.8213H98.1699V85.5701H147.177V76.8213Z" fill="white"/>
<path d="M149.157 92.1265H147.179V100.875H149.157V92.1265Z" fill="#868A91"/>
<path d="M147.177 92.1265H98.1699V100.875H147.177V92.1265Z" fill="#868A91"/>
<path opacity="0.2" d="M147.177 92.1265H98.1699V100.875H147.177V92.1265Z" fill="white"/>
<path d="M149.157 107.432H147.179V116.18H149.157V107.432Z" fill="#868A91"/>
<path d="M147.177 107.432H98.1699V116.18H147.177V107.432Z" fill="#868A91"/>
<path opacity="0.2" d="M147.177 107.432H98.1699V116.18H147.177V107.432Z" fill="white"/>
<path d="M149.157 124.3H147.179V133.049H149.157V124.3Z" fill="#868A91"/>
<path d="M147.177 124.3H98.1699V133.049H147.177V124.3Z" fill="#868A91"/>
<path opacity="0.2" d="M147.177 124.3H98.1699V133.049H147.177V124.3Z" fill="white"/>
<path d="M149.157 141.167H147.179V149.916H149.157V141.167Z" fill="#868A91"/>
<path d="M147.177 141.167H98.1699V149.916H147.177V141.167Z" fill="#868A91"/>
<path opacity="0.2" d="M147.177 141.167H98.1699V149.916H147.177V141.167Z" fill="white"/>
<path d="M149.157 158.035H147.179V166.783H149.157V158.035Z" fill="#868A91"/>
<path d="M147.177 158.035H98.1699V166.783H147.177V158.035Z" fill="#868A91"/>
<path opacity="0.2" d="M147.177 158.035H98.1699V166.783H147.177V158.035Z" fill="white"/>
<path d="M149.157 174.902H147.179V183.651H149.157V174.902Z" fill="#868A91"/>
<path d="M147.177 174.902H98.1699V183.651H147.177V174.902Z" fill="#868A91"/>
<path opacity="0.2" d="M147.177 174.902H98.1699V183.651H147.177V174.902Z" fill="white"/>
<path d="M87.0865 191.482V133.98H37.2881L41.9863 191.574H87.0865V191.482ZM63.4796 140.315H81.9664V149.653H63.4796V140.315ZM60.5849 166.697H42.0982V157.36H60.5849V166.697ZM60.5849 149.653H42.0982V140.315H60.5849V149.653ZM63.4796 157.36H81.9664V166.697H63.4796V157.36Z" fill="#DADDDF"/>
<path d="M87.0859 97.3365V64.2036H56.7496L52.3987 70.2226H60.5823V79.5602H45.6536L43.0749 83.13H60.5843V92.4675H42.0975V84.4821L36.7183 91.9259C35.562 93.523 34.8202 95.3821 34.5596 97.3365H87.0859ZM63.479 70.2226H81.9657V79.5602H63.479V70.2226ZM63.479 92.4675V83.13H81.9657V92.4675H63.479Z" fill="#DADDDF"/>
<path d="M87.0857 62.5971V25.3096C85.0211 26.1523 83.2343 27.5568 81.9282 29.3641L81.3277 30.1942H81.9655V39.5318H74.5747L68.6205 47.7743H81.9655V57.1119H63.4788V54.8884L57.9092 62.5971H87.0857Z" fill="#DADDDF"/>
<path d="M87.0854 132.383V98.9438H34.4629C34.4629 99.252 34.4747 99.562 34.5002 99.8721L37.1515 132.383H87.0854ZM63.4785 104.333H81.9652V113.67H63.4785V104.333ZM60.5838 126.578H42.097V117.24H60.5838V126.578ZM60.5838 113.67H42.097V104.333H60.5838V113.67ZM63.4785 117.24H81.9652V126.578H63.4785V117.24Z" fill="#DADDDF"/>
<path d="M81.9659 39.5231V30.1855H81.3281L80.7354 31.0059V39.5231H74.583H80.7354H81.9659Z" fill="#868A91"/>
<path d="M80.7354 31.0063L74.583 39.5236H80.7354V31.0063Z" fill="#B2B6BB"/>
<path d="M80.7356 47.7627V57.1003H81.9661V47.7627H80.7356H68.6289H80.7356Z" fill="#868A91"/>
<path d="M80.7358 57.1003V47.7627H68.6291L63.4795 54.8885V57.1003H80.7358Z" fill="#B2B6BB"/>
<path d="M80.7354 79.5607H81.9658V70.2231H80.7354V79.5607Z" fill="#868A91"/>
<path d="M80.7358 70.2231H63.4795V79.5607H80.7358V70.2231Z" fill="#B2B6BB"/>
<path d="M60.5821 70.2231H59.3516V79.5607H60.5821V70.2231Z" fill="#868A91"/>
<path d="M59.3525 70.2231H52.4014L45.6543 79.5607H59.3525V70.2231Z" fill="#B2B6BB"/>
<path d="M80.7354 92.4679H81.9658V83.1304H80.7354V92.4679Z" fill="#868A91"/>
<path d="M80.7358 83.1304H63.4795V92.4679H80.7358V83.1304Z" fill="#B2B6BB"/>
<path d="M60.5821 83.1304H59.3516V92.4679H60.5821V83.1304Z" fill="#868A91"/>
<path d="M59.352 92.4679V83.1304H43.075L42.0977 84.4825V92.4679H59.352Z" fill="#B2B6BB"/>
<path d="M80.7354 113.671H81.9658V104.333H80.7354V113.671Z" fill="#868A91"/>
<path d="M80.7358 104.333H63.4795V113.671H80.7358V104.333Z" fill="#B2B6BB"/>
<path d="M60.5821 104.333H59.3516V113.671H60.5821V104.333Z" fill="#868A91"/>
<path d="M59.3539 104.333H42.0977V113.671H59.3539V104.333Z" fill="#B2B6BB"/>
<path d="M80.7358 126.578H81.9662V117.24H80.7358V126.578H63.4795V117.24V126.578H80.7358Z" fill="#868A91"/>
<path d="M80.7358 117.24H63.4795V126.578H80.7358V117.24Z" fill="#B2B6BB"/>
<path d="M59.352 126.578H42.0977H59.352H60.5844V117.24H59.352V126.578Z" fill="#868A91"/>
<path d="M59.3539 117.24H42.0977V126.578H59.3539V117.24Z" fill="#B2B6BB"/>
<path d="M80.7354 149.653H81.9658V140.316H80.7354V149.653Z" fill="#868A91"/>
<path d="M80.7358 140.316H63.4795V149.653H80.7358V140.316Z" fill="#B2B6BB"/>
<path d="M60.5821 140.316H59.3516V149.653H60.5821V140.316Z" fill="#868A91"/>
<path d="M59.3539 140.316H42.0977V149.653H59.3539V140.316Z" fill="#B2B6BB"/>
<path d="M80.7354 166.697H81.9658V157.359H80.7354V166.697Z" fill="#868A91"/>
<path d="M80.7358 157.359H63.4795V166.697H80.7358V157.359Z" fill="#B2B6BB"/>
<path d="M60.5821 157.359H59.3516V166.697H60.5821V157.359Z" fill="#868A91"/>
<path d="M59.3539 157.359H42.0977V166.697H59.3539V157.359Z" fill="#B2B6BB"/>
<path d="M87.0863 64.2045V62.5972H57.9098L56.75 64.2045H87.0863Z" fill="#FBFBFB"/>
<path d="M87.0854 98.9442V97.3369H34.567C34.4959 97.8697 34.4612 98.4067 34.463 98.9442H87.0854Z" fill="#FBFBFB"/>
<path d="M87.0864 133.988V133.05V132.383H37.1523L37.2838 133.988H87.0864Z" fill="#FBFBFB"/>
<path d="M252.342 180.8C252.342 180.8 252.189 173.911 239.439 176.286C239.439 176.286 236.057 172.349 229.145 174.563C229.145 174.563 227.756 168.795 218.558 167.369C214.07 166.672 209.411 167.659 205.988 170.224C204.958 170.995 204.045 171.898 203.49 172.924C201.064 171.454 198.281 170.682 195.444 170.695C190.289 169.953 186.393 172.803 186.393 172.803C185.839 171.764 185.078 170.85 184.158 170.116C181.687 168.094 178.555 167.058 175.366 167.208C162.158 167.728 162.67 174.443 162.67 174.443C156.278 172.228 153.154 176.164 153.154 176.164C141.365 173.786 137.466 179.518 137.466 179.518C122.694 179.846 129.292 188.055 129.292 188.055H189.382L189.435 188.177L264.476 188.373L265.995 182.7C263.956 179.077 257.215 177.803 252.342 180.8Z" fill="#FDA57D"/>
<path opacity="0.4" d="M252.342 180.8C252.342 180.8 252.189 173.911 239.439 176.286C239.439 176.286 236.057 172.349 229.145 174.563C229.145 174.563 227.756 168.795 218.558 167.369C214.07 166.672 209.411 167.659 205.988 170.224C204.958 170.995 204.045 171.898 203.49 172.924C201.064 171.454 198.281 170.682 195.444 170.695C190.289 169.953 186.393 172.803 186.393 172.803C185.839 171.764 185.078 170.85 184.158 170.116C181.687 168.094 178.555 167.058 175.366 167.208C162.158 167.728 162.67 174.443 162.67 174.443C156.278 172.228 153.154 176.164 153.154 176.164C141.365 173.786 137.466 179.518 137.466 179.518C122.694 179.846 129.292 188.055 129.292 188.055H189.382L189.435 188.177L264.476 188.373L265.995 182.7C263.956 179.077 257.215 177.803 252.342 180.8Z" fill="white"/>
<path d="M105.113 172.571C102.601 171.447 98.4401 170.831 91.8167 172.866C91.8167 172.866 89.1633 169.571 82.8421 171.631C82.8421 171.631 67.0283 159.794 53.7599 172.987C53.7599 172.987 46.8656 169.535 40.4541 172.618L41.6709 188.156H108.486V176.642C108.486 175.06 107.277 173.539 105.113 172.571Z" fill="#FDA57D"/>
<path opacity="0.4" d="M105.113 172.571C102.601 171.447 98.4401 170.831 91.8167 172.866C91.8167 172.866 89.1633 169.571 82.8421 171.631C82.8421 171.631 67.0283 159.794 53.7599 172.987C53.7599 172.987 46.8656 169.535 40.4541 172.618L41.6709 188.156H108.486V176.642C108.486 175.06 107.277 173.539 105.113 172.571Z" fill="white"/>
<path d="M74.1104 187.966C74.1104 187.966 75.3055 179.939 83.3596 182.275C83.3596 182.275 81.4874 176.868 87.1001 174.589C87.1001 174.589 92.4401 172.327 95.1994 177.751C95.1994 177.751 96.63 172.539 101.544 175.229C101.544 175.229 108.456 162.834 121.381 171.909C121.381 171.909 135.823 163.815 138.602 179.429C138.602 179.429 143.237 176.787 143.65 181.784C143.65 181.784 150.811 178.418 153.107 187.777L74.1104 187.966Z" fill="#FDA57D"/>
<path d="M256.577 188.487C256.577 188.487 255.39 180.186 247.136 182.415C247.136 182.415 249.077 177.336 243.344 175.234C243.344 175.234 237.888 173.144 235.039 178.245C235.039 178.245 233.598 173.368 228.563 175.919C228.563 175.919 222.051 164.69 208.274 172.924C208.274 172.924 193.53 165.424 190.612 180.076C190.612 180.076 185.881 177.628 185.433 182.319C185.433 182.319 178.119 179.206 175.727 187.994L256.577 188.487Z" fill="#FDA57D"/>
<path opacity="0.5" d="M74.1104 187.966C74.1104 187.966 75.3055 179.939 83.3596 182.275C83.3596 182.275 81.4874 176.868 87.1001 174.589C87.1001 174.589 92.4401 172.327 95.1994 177.751C95.1994 177.751 96.63 172.539 101.544 175.229C101.544 175.229 108.456 162.834 121.381 171.909C121.381 171.909 135.823 163.815 138.602 179.429C138.602 179.429 143.237 176.787 143.65 181.784C143.65 181.784 150.811 178.418 153.107 187.777L74.1104 187.966Z" fill="white"/>
<path opacity="0.5" d="M256.577 188.487C256.577 188.487 255.39 180.186 247.136 182.415C247.136 182.415 249.077 177.336 243.344 175.234C243.344 175.234 237.888 173.144 235.039 178.245C235.039 178.245 233.598 173.368 228.563 175.919C228.563 175.919 222.051 164.69 208.274 172.924C208.274 172.924 193.53 165.424 190.612 180.076C190.612 180.076 185.881 177.628 185.433 182.319C185.433 182.319 178.119 179.206 175.727 187.994L256.577 188.487Z" fill="white"/>
<path d="M263.642 191.67H41.9893L43.5612 210.94L79.1041 210.985H258.37L263.642 191.67Z" fill="#61656D"/>
<path d="M76.1634 194.559H67.4107L43.1816 206.253L43.3308 208.1H50.9826L76.1634 194.559Z" fill="white"/>
<path d="M49.3551 194.614L42.4805 197.676L42.8435 202.121L58.1079 194.614H49.3551Z" fill="white"/>
<path d="M83.6223 194.559L60.8906 208.1H72.5184L92.375 194.559H83.6223Z" fill="white"/>
<path d="M99.8341 194.559L82.4268 208.1H94.0526L108.587 194.559H99.8341Z" fill="white"/>
<path d="M103.963 208.1H115.589L124.799 194.559H116.046L103.963 208.1Z" fill="white"/>
<path d="M125.5 208.1H137.126L141.012 194.559H132.261L125.5 208.1Z" fill="white"/>
<path d="M148.473 194.559L147.036 208.1H158.662L157.223 194.559H148.473Z" fill="white"/>
<path d="M164.685 194.559L168.57 208.1H180.198L173.437 194.559H164.685Z" fill="white"/>
<path d="M180.897 194.559L190.107 208.1H201.733L189.65 194.559H180.897Z" fill="white"/>
<path d="M197.11 194.559L211.645 208.1H223.27L205.863 194.559H197.11Z" fill="white"/>
<path d="M213.322 194.559L233.181 208.1H244.807L222.075 194.559H213.322Z" fill="white"/>
<path d="M229.536 194.559L254.715 208.1H259.16L259.996 205.035L238.287 194.559H229.536Z" fill="white"/>
<path d="M248.376 194.614L261.148 200.808L262.227 196.857L257.127 194.614H248.376Z" fill="white"/>
<path opacity="0.3" d="M198.605 196.186C183.822 196.186 171.839 197.503 171.839 199.13C171.839 199.442 172.28 199.742 173.099 200.025C167.052 199.24 156.871 198.737 145.329 198.737C126.78 198.737 111.743 200.054 111.743 201.681C111.743 203.308 126.78 204.625 145.329 204.625C163.879 204.625 178.918 203.306 178.918 201.681C178.918 201.451 178.621 201.23 178.058 201.016C182.964 201.661 190.349 202.073 198.605 202.073C213.387 202.073 225.372 200.755 225.372 199.13C225.372 197.505 213.383 196.186 198.605 196.186Z" fill="black"/>
<path d="M265.142 186.176H41.543L41.6705 187.746L264.732 187.681L265.142 186.176Z" fill="#DADDDF"/>
<path d="M264.74 187.647H41.6621L41.9977 191.769H263.615L264.74 187.647Z" fill="#B2B6BB"/>
<path d="M248.229 100.762H231.86C231.773 100.762 231.687 100.779 231.605 100.812C231.524 100.846 231.451 100.895 231.391 100.957C231.328 101.019 231.279 101.092 231.245 101.173C231.214 101.253 231.196 101.34 231.196 101.427V117.804C231.196 117.891 231.214 117.978 231.245 118.059C231.279 118.139 231.328 118.213 231.391 118.274C231.451 118.336 231.524 118.385 231.605 118.419C231.687 118.452 231.773 118.469 231.86 118.469H248.229C248.405 118.469 248.574 118.399 248.7 118.274C248.823 118.15 248.894 117.981 248.894 117.804V101.427C248.894 101.251 248.823 101.081 248.7 100.957C248.574 100.832 248.405 100.762 248.229 100.762ZM247.707 116.405H232.384C231.975 116.405 231.809 116.118 232.013 115.765L235.845 109.128L239.676 102.497C239.873 102.143 240.21 102.143 240.414 102.497L244.245 109.132L248.076 115.769C248.28 116.118 248.115 116.405 247.707 116.405Z" fill="#FDA57D"/>
<path d="M240.538 107.298C240.628 107.422 240.677 107.57 240.681 107.722V110.313L241.743 111.363C241.849 111.478 241.935 111.611 241.996 111.755L243.097 114.566C243.118 114.622 243.13 114.682 243.128 114.743C243.126 114.803 243.111 114.863 243.085 114.917C243.058 114.972 243.02 115.02 242.975 115.059C242.928 115.099 242.873 115.128 242.816 115.144L242.704 115.18C242.583 115.216 242.451 115.205 242.337 115.148C242.226 115.091 242.137 114.993 242.094 114.874L241.178 112.309C241.142 112.223 241.093 112.144 241.028 112.077L239.36 110.45C239.26 110.343 239.205 110.203 239.201 110.058V108.083C239.201 107.952 239.123 107.905 239.005 107.975L238.328 108.368C238.255 108.421 238.208 108.5 238.195 108.588L238.024 110.158C238.012 110.28 237.955 110.393 237.861 110.473C237.769 110.553 237.647 110.592 237.525 110.584C237.464 110.576 237.408 110.557 237.355 110.527C237.304 110.497 237.256 110.457 237.221 110.409C237.184 110.361 237.158 110.306 237.143 110.248C237.127 110.19 237.123 110.129 237.133 110.069L237.357 108.225C237.382 108.079 237.465 107.95 237.584 107.864L239.278 106.782C239.341 106.745 239.411 106.721 239.484 106.713C239.557 106.704 239.629 106.711 239.7 106.733C240.02 106.851 240.308 107.045 240.538 107.298ZM239.044 110.597L236.874 114.222C236.84 114.274 236.817 114.333 236.805 114.394C236.795 114.455 236.797 114.518 236.809 114.578C236.823 114.639 236.848 114.697 236.884 114.748C236.919 114.799 236.964 114.842 237.017 114.876L237.037 114.887C237.143 114.955 237.27 114.979 237.394 114.953C237.517 114.927 237.625 114.853 237.696 114.748L239.818 111.365C239.837 111.331 239.847 111.291 239.843 111.251C239.839 111.211 239.823 111.174 239.796 111.145L239.229 110.578C239.217 110.563 239.201 110.552 239.186 110.545C239.168 110.538 239.148 110.535 239.131 110.537C239.113 110.539 239.095 110.545 239.08 110.556C239.064 110.567 239.052 110.581 239.044 110.597ZM240.954 109.718L241.739 110.397C241.78 110.438 241.829 110.469 241.884 110.49C241.939 110.512 241.996 110.522 242.055 110.52C242.112 110.519 242.171 110.506 242.224 110.483C242.277 110.459 242.324 110.426 242.365 110.383C242.434 110.287 242.463 110.168 242.445 110.051C242.428 109.933 242.367 109.827 242.273 109.755L240.954 108.607C240.895 108.556 240.846 108.578 240.846 108.656V109.485C240.85 109.573 240.889 109.657 240.954 109.718ZM240.243 106.494C240.418 106.494 240.591 106.442 240.736 106.344C240.881 106.247 240.995 106.108 241.062 105.946C241.13 105.784 241.148 105.606 241.113 105.434C241.079 105.262 240.995 105.104 240.869 104.98C240.746 104.855 240.589 104.771 240.416 104.737C240.243 104.703 240.065 104.72 239.904 104.787C239.741 104.854 239.604 104.968 239.506 105.114C239.407 105.26 239.356 105.431 239.356 105.607C239.356 105.842 239.449 106.068 239.615 106.234C239.782 106.4 240.008 106.494 240.243 106.494Z" fill="#21252B"/>
<path d="M239.502 113.899H240.526L240.764 115.522H239.266L239.502 113.899ZM244.294 115.522H245.792L244.373 113.899H243.35L244.294 115.522ZM236.678 113.899H235.651L234.234 115.522H235.732L236.678 113.899Z" fill="#21252B"/>
<path d="M241.558 119.158H239.203V186.079H241.558V119.158Z" fill="#21252B"/>
<path d="M248.229 119.2H231.86C231.487 119.2 231.13 119.052 230.867 118.788C230.604 118.525 230.457 118.168 230.457 117.795V101.426C230.457 101.054 230.604 100.697 230.867 100.434C231.13 100.171 231.487 100.023 231.86 100.023H248.229C248.6 100.023 248.958 100.171 249.222 100.434C249.485 100.697 249.633 101.054 249.635 101.426V117.803C249.631 118.174 249.482 118.53 249.219 118.791C248.956 119.053 248.6 119.2 248.229 119.2ZM231.86 100.164C231.527 100.165 231.207 100.297 230.971 100.533C230.736 100.768 230.604 101.087 230.604 101.42V117.803C230.604 118.136 230.736 118.455 230.971 118.691C231.207 118.926 231.527 119.059 231.86 119.059H248.229C248.563 119.059 248.881 118.927 249.118 118.692C249.354 118.456 249.485 118.137 249.487 117.803V101.426C249.485 101.093 249.354 100.773 249.118 100.538C248.881 100.302 248.563 100.17 248.229 100.17L231.86 100.164Z" fill="#FDA57D"/>
<path d="M221.262 152.946C221.066 152.642 220.12 151.979 220.12 151.979C219.29 151.586 218.832 151.362 218.512 150.95C218.193 150.538 217.443 150.513 217.443 150.513C217.443 150.513 217.149 149.166 218.165 148.368C218.165 148.368 218.838 148.658 219.064 148.607C219.515 148.507 219.902 147.905 220.763 147.893C221.625 147.881 222.7 147.443 222.7 147.443C222.7 147.443 223.067 147.746 222.72 148.032C222.373 148.319 221.668 148.374 221.543 148.548C221.521 148.584 221.501 148.621 221.486 148.66C221.456 148.725 221.441 148.796 221.441 148.867C221.441 148.939 221.456 149.009 221.486 149.074C221.486 149.085 221.492 149.095 221.497 149.104C221.788 149.526 222.871 149.889 223.364 150.008C224.055 150.169 224.991 150.446 224.722 150.821C224.453 151.196 224.17 150.713 222.577 150.636L222.516 150.787C222.402 150.787 223.348 151.347 224.292 151.669C224.94 151.892 224.581 152.257 224.347 152.301C224.113 152.344 223.493 152.022 223.022 151.867C222.712 151.761 222.39 151.647 222.198 151.578L222.049 151.735C223.03 152.697 223.558 152.597 223.478 152.987C223.397 153.378 222.469 152.987 222.155 152.679C221.923 152.498 221.67 152.345 221.401 152.222C222.002 153.103 222.428 153.135 222.298 153.431C222.169 153.727 221.466 153.252 221.262 152.946Z" fill="#FC9D9D"/>
<path opacity="0.15" d="M220.237 149.559C220.926 149.499 221.429 148.759 221.487 148.667C221.456 148.731 221.44 148.802 221.44 148.874C221.44 148.945 221.456 149.016 221.487 149.081C220.916 149.793 220.237 149.559 220.237 149.559Z" fill="black"/>
<path d="M206.39 133.475L206.805 133.553C207.228 133.634 207.621 133.833 207.937 134.126C208.251 134.42 208.479 134.797 208.588 135.213L211.191 144.298L218.949 148.435L218.044 151.019L210.039 148.272C208.8 147.923 207.542 146.941 207.488 145.656L206.012 138.098L206.39 133.475Z" fill="#FDA57D"/>
<path opacity="0.2" d="M209.769 147.267C208.606 147.008 208.476 145.844 208.476 145.844L207.691 139.252L206.93 142.712L207.487 145.516C207.532 146.802 208.402 147.783 209.646 148.132L218.039 151.015L218.222 150.489L209.769 147.267Z" fill="black"/>
<path d="M217.719 147.724L216.816 150.66L218.043 151.015L218.948 148.431L217.719 147.724Z" fill="white"/>
<path d="M203.072 132.811L206.926 133.563L207.185 134.991C207.872 138.767 207.97 142.355 207.907 146.311L207.572 152.566H194.645L194.635 151.751C194.594 148.111 194.421 143.962 193.86 140.369H193.732L194.645 133.565L197.877 132.919L203.176 132.79" fill="#FDA57D"/>
<path d="M209.654 170.573L211.813 177.246C211.968 177.728 212.066 178.226 212.105 178.731L213.326 194.628L217.822 197.222L216.056 198.89L209.493 195.813L207.597 188.748C207.597 188.748 205.474 183.777 206.063 178.274L200.935 171.641L209.654 170.573Z" fill="#FC9D9D"/>
<path d="M206.502 185.096C206.763 186.35 207.132 187.579 207.601 188.77L209.497 195.835L216.059 198.912L217.826 197.244L213.324 194.644L212.564 184.739L206.502 185.096Z" fill="white"/>
<path opacity="0.15" d="M216.611 196.538L213.324 194.644L212.104 178.748C212.064 178.243 211.966 177.744 211.811 177.262L209.949 171.512L207.79 172.798L210.538 178.041L212.736 194.976L216.484 196.785L216.611 196.538Z" fill="black"/>
<path d="M209.35 195.803C209.35 195.803 208.842 198.072 209.35 199.491L219.06 199.516C219.06 199.516 219.596 197.161 216.364 196.261L215.924 196.673C215.699 196.885 215.416 197.024 215.112 197.075C214.808 197.126 214.494 197.087 214.211 196.961L213.395 196.596L214.376 195.254L213.573 194.751L212.38 196.321L209.35 195.803Z" fill="#FDA57D"/>
<path opacity="0.2" d="M209.346 199.491L209.217 198.843L219.063 198.861L219.059 199.516L209.346 199.491Z" fill="black"/>
<path d="M200.98 171.698L198.525 179.24L190.559 194.003L192.443 197.552L191.022 197.811L186.685 192.954L188.859 185.977C188.859 185.977 189.736 180.621 193.177 176.284L192.392 167.936L200.98 171.698Z" fill="#FC9D9D"/>
<path d="M189.9 182.286C189.451 183.485 189.105 184.72 188.864 185.977L186.689 192.954L190.508 197.811L192.447 197.552L190.559 194.004L195.215 185.229L189.9 182.286Z" fill="white"/>
<path opacity="0.15" d="M191.736 197.03L191.54 197.165C191.709 197.236 191.762 197.175 191.736 197.03Z" fill="black"/>
<path opacity="0.15" d="M190.559 194.003L198.52 179.24L200.758 172.33L198.13 172.722L197.225 178.668L189.988 194.053C189.988 194.053 191.619 196.372 191.733 197.02L192.047 196.798L190.559 194.003Z" fill="black"/>
<path d="M186.634 192.618C186.634 192.618 184.899 194.176 184.519 195.64L189.134 199.33C189.274 199.434 189.441 199.497 189.615 199.509L194.003 199.491C194.003 199.491 194.396 197.811 192.192 196.906L191.521 196.963C191.242 196.985 190.963 196.952 190.698 196.865C190.433 196.777 190.188 196.638 189.978 196.453L189.246 195.813L191.158 195.097L190.718 194.282L188.534 194.993L186.634 192.618Z" fill="#FDA57D"/>
<path opacity="0.2" d="M193.999 199.491C194.051 199.316 194.047 199.128 193.988 198.955L189.825 199.004C189.697 198.996 189.574 198.951 189.472 198.873L184.776 195.032L184.515 195.641L189.13 199.33C189.27 199.434 189.437 199.497 189.611 199.509L193.999 199.491Z" fill="black"/>
<path d="M204.746 121.053C205.189 121.595 205.348 122.696 205.904 123.604C206.459 124.513 207.641 124.544 207.641 125.959C207.641 127.374 206.993 127.583 206.993 127.583C207.16 127.93 207.242 128.312 207.232 128.698C207.221 129.083 207.119 129.461 206.932 129.798C206.285 130.921 204.669 131.888 203.319 131.733C203.319 131.733 201.29 132.858 199.255 132.322C197.22 131.786 197.928 131.79 197.096 131.79C196.264 131.79 194.013 130.636 194.382 128.95C194.382 128.95 193.008 127.302 194.341 125.956C195.673 124.609 195.292 123.285 196.174 121.524C197.216 119.432 202.081 117.803 204.746 121.053Z" fill="#21252B"/>
<path d="M197.877 132.915L197.77 132.94C198.011 133.209 200.234 135.464 202.951 134.858C202.951 134.858 204.269 134.679 204.059 133.539L203.963 132.983L203.072 132.809L203.176 132.785L197.877 132.915Z" fill="white"/>
<path d="M203.616 133.151L202.998 129.03L198.503 128.982L198.394 132.907C198.394 132.907 200.333 134.846 202.66 134.46C202.66 134.47 203.796 134.289 203.616 133.151Z" fill="#FC9D9D"/>
<path opacity="0.15" d="M203.376 131.747L203.3 130.732L201.755 131.107L201.781 131.137C200.617 131.311 199.893 130.874 199.885 130.868C199.856 130.85 199.82 130.844 199.787 130.851C199.753 130.859 199.724 130.88 199.706 130.909C199.689 130.938 199.683 130.973 199.689 131.007C199.697 131.04 199.718 131.069 199.748 131.088C200.203 131.333 200.713 131.454 201.231 131.439C201.488 131.439 201.743 131.413 201.997 131.362C201.997 131.362 202.012 131.362 202.022 131.353C202.209 131.506 202.426 131.62 202.658 131.688C202.892 131.755 203.135 131.776 203.376 131.747Z" fill="black"/>
<path d="M203.976 130.192C203.371 130.814 202.551 131.182 201.684 131.219L201.43 131.233C200.999 131.252 200.565 131.188 200.155 131.046C199.749 130.906 199.374 130.689 199.05 130.406C198.732 130.128 198.473 129.79 198.287 129.411C198.106 129.037 198.002 128.63 197.982 128.214L197.786 123.787C197.78 123.648 197.802 123.51 197.851 123.381C197.904 123.25 197.98 123.131 198.077 123.029C198.177 122.926 198.294 122.843 198.426 122.786C198.559 122.729 198.701 122.696 198.844 122.69L203.189 122.507C203.566 122.491 203.935 122.619 204.219 122.866C204.357 122.986 204.468 123.131 204.549 123.294C204.627 123.458 204.674 123.635 204.682 123.816L204.863 127.926C204.877 128.344 204.804 128.76 204.651 129.15C204.498 129.539 204.268 129.894 203.976 130.192Z" fill="#FC9D9D"/>
<path d="M207.572 152.565L214.164 170.664C214.164 170.664 202.531 176.999 187.278 170.664C187.278 170.664 188.96 166.27 189.865 163.037C189.865 163.037 191.415 157.091 194.648 152.565H207.572Z" fill="#3F4249"/>
<g opacity="0.15">
<path opacity="0.15" d="M202.798 128.237C202.787 128.29 202.763 128.341 202.73 128.384C202.696 128.428 202.655 128.463 202.608 128.488C202.561 128.513 202.508 128.528 202.455 128.529L201.998 128.574C201.982 128.577 201.968 128.577 201.955 128.574C201.939 128.573 201.925 128.568 201.915 128.559C201.903 128.551 201.894 128.541 201.886 128.529C201.878 128.517 201.872 128.503 201.87 128.488C201.866 128.474 201.866 128.459 201.87 128.445C201.872 128.43 201.88 128.417 201.89 128.406C201.9 128.394 201.911 128.386 201.925 128.38C201.939 128.377 201.953 128.377 201.966 128.38L202.424 128.335C202.449 128.333 202.477 128.325 202.5 128.311C202.524 128.298 202.545 128.28 202.563 128.258C202.579 128.237 202.592 128.212 202.6 128.186C202.604 128.158 202.604 128.129 202.6 128.101C202.592 128.046 202.563 127.995 202.522 127.958C202.48 127.921 202.427 127.901 202.373 127.901C202.349 127.9 202.327 127.889 202.312 127.872C202.294 127.856 202.282 127.834 202.28 127.811C202.276 127.788 202.28 127.764 202.292 127.744C202.302 127.724 202.322 127.708 202.343 127.699C202.396 127.695 202.449 127.701 202.5 127.718C202.551 127.736 202.598 127.763 202.639 127.799C202.722 127.871 202.775 127.972 202.787 128.082C202.8 128.132 202.804 128.185 202.798 128.237Z" fill="black"/>
</g>
<path d="M198.067 128.558C198.067 128.558 196.574 128.819 196.127 127.31C195.679 125.801 197.5 125.362 197.892 126.884L198.234 128.558H198.067Z" fill="#FC9D9D"/>
<path opacity="0.15" d="M196.48 126.592C196.472 126.569 196.472 126.545 196.48 126.522C196.485 126.498 196.497 126.476 196.515 126.459C196.572 126.404 196.638 126.36 196.711 126.331C196.788 126.303 196.868 126.292 196.949 126.298C197.029 126.31 197.106 126.34 197.172 126.386C197.241 126.432 197.298 126.492 197.341 126.563C197.467 126.735 197.539 126.939 197.555 127.152L197.571 127.312C197.588 127.428 197.388 127.489 197.374 127.342L197.345 127.167C197.327 126.994 197.268 126.828 197.174 126.682C197.145 126.636 197.108 126.595 197.064 126.561C197.021 126.528 196.97 126.504 196.917 126.492C196.805 126.49 196.697 126.531 196.617 126.608C196.597 126.624 196.57 126.632 196.544 126.629C196.517 126.627 196.493 126.614 196.476 126.594L196.48 126.592Z" fill="black"/>
<path d="M202.709 129.1H202.739C202.749 129.106 202.755 129.113 202.76 129.122C202.764 129.131 202.764 129.14 202.76 129.149C202.764 129.159 202.764 129.17 202.76 129.181C202.682 129.351 202.556 129.494 202.397 129.595C202.242 129.696 202.062 129.75 201.877 129.75C201.693 129.75 201.512 129.696 201.357 129.595C201.2 129.493 201.077 129.35 200.996 129.181C200.982 129.135 200.996 129.094 201.053 129.094L202.709 129.1Z" fill="white"/>
<path d="M199.068 122.341C199.068 122.341 199.557 125.161 205.115 124.794L205.093 123.267L202.197 121.646L199.068 122.341Z" fill="#21252B"/>
<path d="M172.19 139.391C172.557 139.374 173.574 140.166 173.574 140.166C174.384 140.598 174.91 140.914 175.432 140.926C175.954 140.938 176.413 141.524 176.413 141.524C176.413 141.524 177.671 140.957 177.707 139.666C177.707 139.666 177.073 139.299 176.979 139.077C176.636 138.325 176.23 137.602 175.766 136.918C175.259 136.218 174.861 136.143 174.861 136.143C174.861 136.143 173.992 135.602 173.97 136.049C173.948 136.497 175.099 136.834 175.028 137.03C175.013 137.069 174.995 137.107 174.973 137.142C174.973 137.142 174.991 137.162 174.991 137.17C174.91 137.301 175.285 137.384 175.153 137.399C175.144 137.403 175.134 137.403 175.124 137.399C174.614 137.419 173.674 136.769 173.285 136.442C172.744 135.984 171.962 135.396 171.823 135.835C171.684 136.275 172.237 136.214 173.25 137.448L173.163 137.588C173.232 137.68 172.22 137.252 171.397 136.687C170.83 136.294 170.748 136.809 170.856 137.019C170.964 137.229 171.588 137.539 171.994 137.823C172.265 138.01 172.547 138.2 172.716 138.314L172.681 138.526C171.329 138.318 171.089 137.829 170.822 138.133C170.555 138.437 171.429 138.424 171.858 138.496C172.143 138.574 172.417 138.685 172.675 138.828C171.611 138.871 171.331 138.547 171.17 138.828C171.009 139.109 171.823 139.391 172.19 139.391Z" fill="#FC9D9D"/>
<path d="M199.556 122.188C199.556 122.188 199.443 125.189 197.937 125.652L197.757 126.647L197.364 125.189L197.48 122.292L199.556 122.188Z" fill="#21252B"/>
<path d="M194.68 133.582C194.068 133.739 193.509 134.058 193.061 134.504L186.116 142.095L177.196 138.863L175.775 141.32L185.26 146.487C185.662 146.717 186.124 146.818 186.585 146.778C187.046 146.737 187.483 146.556 187.839 146.26L194.386 139.891L194.68 133.582Z" fill="#FDA57D"/>
<path d="M207.572 151.661H194.645V152.565H207.572V151.661Z" fill="#3F4249"/>
<path d="M176.991 142.017L178.467 139.356L177.191 138.863L175.771 141.32L176.991 142.017Z" fill="white"/>
<path opacity="0.2" d="M184.82 145.198C184.82 145.198 186.37 146.362 188.052 144.806L193.773 138.859L193.869 140.928L193.841 140.339L187.838 146.26C187.483 146.556 187.045 146.737 186.584 146.778C186.123 146.818 185.661 146.717 185.259 146.488L175.765 141.32L176.014 140.867L184.82 145.198Z" fill="black"/>
<path opacity="0.3" d="M189.993 171.674C203.89 176.257 214.164 170.664 214.164 170.664L207.572 152.565H206.787L209.287 166.107C209.401 166.71 209.33 167.333 209.087 167.895C208.842 168.458 208.431 168.934 207.913 169.26C205.352 170.848 199.057 173.168 189.993 171.674Z" fill="black"/>
<path opacity="0.2" d="M207.572 151.661L207.908 146.311C207.937 144.035 207.921 141.882 207.77 139.743L207.641 139.154C207.837 142.423 206.62 151.657 206.62 151.657L207.572 151.661Z" fill="black"/>
<path opacity="0.3" d="M207.572 152.63H195.809" stroke="black" stroke-width="0.25905" stroke-miterlimit="10" stroke-linecap="round"/>
<g opacity="0.7">
<path opacity="0.7" d="M196.445 136.435C196.51 136.429 196.569 136.4 196.612 136.352C196.655 136.305 196.681 136.243 196.681 136.178C196.681 136.114 196.655 136.052 196.612 136.005C196.569 135.957 196.51 135.928 196.445 135.922C196.381 135.928 196.322 135.957 196.279 136.005C196.235 136.052 196.211 136.114 196.211 136.178C196.211 136.243 196.235 136.305 196.279 136.352C196.322 136.4 196.381 136.429 196.445 136.435Z" fill="white"/>
<path opacity="0.7" d="M199.427 139.322C199.496 139.322 199.56 139.295 199.61 139.247C199.657 139.198 199.684 139.133 199.684 139.065C199.684 138.997 199.657 138.931 199.61 138.883C199.56 138.835 199.496 138.808 199.427 138.808C199.36 138.808 199.294 138.835 199.246 138.883C199.197 138.931 199.17 138.997 199.17 139.065C199.17 139.133 199.197 139.198 199.246 139.247C199.294 139.295 199.36 139.322 199.427 139.322Z" fill="white"/>
<path opacity="0.7" d="M201.475 136.251C201.544 136.251 201.608 136.223 201.657 136.175C201.704 136.127 201.732 136.062 201.732 135.993C201.732 135.925 201.704 135.86 201.657 135.812C201.608 135.763 201.544 135.736 201.475 135.736C201.406 135.736 201.341 135.763 201.292 135.812C201.245 135.86 201.218 135.925 201.218 135.993C201.218 136.062 201.245 136.127 201.292 136.175C201.341 136.223 201.406 136.251 201.475 136.251Z" fill="white"/>
<path opacity="0.7" d="M194.961 141.09C195.029 141.09 195.095 141.063 195.143 141.015C195.191 140.966 195.218 140.901 195.218 140.833C195.218 140.765 195.191 140.699 195.143 140.651C195.095 140.603 195.029 140.576 194.961 140.576C194.893 140.576 194.828 140.603 194.779 140.651C194.731 140.699 194.704 140.765 194.704 140.833C194.704 140.901 194.731 140.966 194.779 141.015C194.828 141.063 194.893 141.09 194.961 141.09Z" fill="white"/>
<path opacity="0.7" d="M198.776 143.696C198.844 143.696 198.909 143.669 198.958 143.621C199.005 143.573 199.033 143.508 199.033 143.439C199.033 143.371 199.005 143.306 198.958 143.257C198.909 143.209 198.844 143.182 198.776 143.182C198.709 143.182 198.642 143.209 198.595 143.257C198.546 143.306 198.519 143.371 198.519 143.439C198.519 143.508 198.546 143.573 198.595 143.621C198.642 143.669 198.709 143.696 198.776 143.696Z" fill="white"/>
<path opacity="0.7" d="M204.174 138.39C204.239 138.384 204.298 138.355 204.341 138.307C204.386 138.26 204.409 138.198 204.409 138.134C204.409 138.069 204.386 138.007 204.341 137.96C204.298 137.913 204.239 137.883 204.174 137.877C204.111 137.883 204.05 137.913 204.007 137.96C203.964 138.007 203.94 138.069 203.94 138.134C203.94 138.198 203.964 138.26 204.007 138.307C204.05 138.355 204.111 138.384 204.174 138.39Z" fill="white"/>
<path opacity="0.7" d="M206.128 135.505C206.193 135.499 206.252 135.47 206.297 135.422C206.34 135.375 206.364 135.313 206.364 135.249C206.364 135.184 206.34 135.122 206.297 135.075C206.252 135.028 206.193 134.998 206.128 134.993C206.065 134.998 206.004 135.028 205.961 135.075C205.918 135.122 205.895 135.184 205.895 135.249C205.895 135.313 205.918 135.375 205.961 135.422C206.004 135.47 206.065 135.499 206.128 135.505Z" fill="white"/>
<path opacity="0.7" d="M208.827 138.855C208.892 138.85 208.951 138.82 208.996 138.773C209.039 138.725 209.063 138.663 209.063 138.599C209.063 138.535 209.039 138.473 208.996 138.425C208.951 138.378 208.892 138.348 208.827 138.343C208.764 138.348 208.704 138.378 208.66 138.425C208.617 138.473 208.594 138.535 208.594 138.599C208.594 138.663 208.617 138.725 208.66 138.773C208.704 138.82 208.764 138.85 208.827 138.855Z" fill="white"/>
<path opacity="0.7" d="M202.498 141.834C202.563 141.828 202.622 141.799 202.667 141.752C202.71 141.704 202.734 141.642 202.734 141.578C202.734 141.514 202.71 141.451 202.667 141.404C202.622 141.357 202.563 141.327 202.498 141.322C202.435 141.327 202.375 141.357 202.331 141.404C202.288 141.451 202.265 141.514 202.265 141.578C202.265 141.642 202.288 141.704 202.331 141.752C202.375 141.799 202.435 141.828 202.498 141.834Z" fill="white"/>
<path opacity="0.7" d="M206.596 143.231C206.663 143.231 206.729 143.204 206.777 143.156C206.826 143.108 206.853 143.042 206.853 142.974C206.853 142.906 206.826 142.84 206.777 142.792C206.729 142.744 206.663 142.717 206.596 142.717C206.527 142.717 206.463 142.744 206.413 142.792C206.364 142.84 206.339 142.906 206.339 142.974C206.339 143.042 206.364 143.108 206.413 143.156C206.463 143.204 206.527 143.231 206.596 143.231Z" fill="white"/>
<path opacity="0.7" d="M202.871 147.139C202.936 147.133 202.995 147.104 203.038 147.056C203.083 147.009 203.107 146.947 203.107 146.883C203.107 146.818 203.083 146.756 203.038 146.709C202.995 146.662 202.936 146.632 202.871 146.626C202.808 146.632 202.748 146.662 202.704 146.709C202.661 146.756 202.638 146.818 202.638 146.883C202.638 146.947 202.661 147.009 202.704 147.056C202.748 147.104 202.808 147.133 202.871 147.139Z" fill="white"/>
<path opacity="0.7" d="M195.331 146.022C195.395 146.016 195.455 145.987 195.498 145.94C195.542 145.892 195.566 145.83 195.566 145.766C195.566 145.702 195.542 145.639 195.498 145.592C195.455 145.545 195.395 145.515 195.331 145.51C195.267 145.515 195.208 145.545 195.164 145.592C195.121 145.639 195.097 145.702 195.097 145.766C195.097 145.83 195.121 145.892 195.164 145.94C195.208 145.987 195.267 146.016 195.331 146.022Z" fill="white"/>
<path opacity="0.7" d="M199.148 148.257C199.216 148.257 199.281 148.23 199.33 148.181C199.377 148.133 199.405 148.068 199.405 148C199.405 147.931 199.377 147.866 199.33 147.818C199.281 147.77 199.216 147.743 199.148 147.743C199.079 147.743 199.014 147.77 198.965 147.818C198.918 147.866 198.891 147.931 198.891 148C198.891 148.068 198.918 148.133 198.965 148.181C199.014 148.23 199.079 148.257 199.148 148.257Z" fill="white"/>
<path opacity="0.7" d="M206.688 148.536C206.754 148.536 206.821 148.509 206.868 148.46C206.917 148.412 206.943 148.347 206.943 148.279C206.943 148.21 206.917 148.145 206.868 148.097C206.821 148.049 206.754 148.021 206.688 148.021C206.619 148.021 206.552 148.049 206.505 148.097C206.456 148.145 206.431 148.21 206.431 148.279C206.431 148.347 206.456 148.412 206.505 148.46C206.552 148.509 206.619 148.536 206.688 148.536Z" fill="white"/>
<path opacity="0.7" d="M202.033 150.863C202.102 150.863 202.167 150.836 202.216 150.788C202.265 150.74 202.291 150.674 202.291 150.606C202.291 150.538 202.265 150.473 202.216 150.424C202.167 150.376 202.102 150.349 202.033 150.349C201.967 150.349 201.9 150.376 201.853 150.424C201.804 150.473 201.776 150.538 201.776 150.606C201.776 150.674 201.804 150.74 201.853 150.788C201.9 150.836 201.967 150.863 202.033 150.863Z" fill="white"/>
<path opacity="0.7" d="M195.705 150.956C195.769 150.95 195.829 150.921 195.872 150.873C195.916 150.826 195.94 150.764 195.94 150.699C195.94 150.635 195.916 150.573 195.872 150.526C195.829 150.478 195.769 150.449 195.705 150.443C195.641 150.449 195.582 150.478 195.538 150.526C195.495 150.573 195.471 150.635 195.471 150.699C195.471 150.764 195.495 150.826 195.538 150.873C195.582 150.921 195.641 150.95 195.705 150.956Z" fill="white"/>
<path opacity="0.7" d="M208.272 143.512C208.338 143.512 208.405 143.485 208.452 143.436C208.501 143.388 208.529 143.323 208.529 143.255C208.529 143.186 208.501 143.121 208.452 143.073C208.405 143.025 208.338 142.998 208.272 142.998C208.203 142.998 208.136 143.025 208.089 143.073C208.04 143.121 208.015 143.186 208.015 143.255C208.015 143.323 208.04 143.388 208.089 143.436C208.136 143.485 208.203 143.512 208.272 143.512Z" fill="white"/>
<path opacity="0.7" d="M210.503 144.719C210.568 144.713 210.627 144.684 210.67 144.636C210.715 144.589 210.739 144.527 210.739 144.463C210.739 144.398 210.715 144.336 210.67 144.289C210.627 144.242 210.568 144.212 210.503 144.207C210.44 144.212 210.379 144.242 210.336 144.289C210.293 144.336 210.27 144.398 210.27 144.463C210.27 144.527 210.293 144.589 210.336 144.636C210.379 144.684 210.44 144.713 210.503 144.719Z" fill="white"/>
<path opacity="0.7" d="M211.899 148.257C211.967 148.257 212.032 148.23 212.081 148.181C212.128 148.133 212.156 148.068 212.156 148C212.156 147.931 212.128 147.866 212.081 147.818C212.032 147.77 211.967 147.743 211.899 147.743C211.83 147.743 211.765 147.77 211.716 147.818C211.669 147.866 211.642 147.931 211.642 148C211.642 148.068 211.669 148.133 211.716 148.181C211.765 148.23 211.83 148.257 211.899 148.257Z" fill="white"/>
<path opacity="0.7" d="M215.251 147.697C215.316 147.692 215.375 147.662 215.418 147.615C215.461 147.567 215.487 147.505 215.487 147.441C215.487 147.377 215.461 147.315 215.418 147.267C215.375 147.22 215.316 147.191 215.251 147.185C215.186 147.191 215.127 147.22 215.084 147.267C215.041 147.315 215.016 147.377 215.016 147.441C215.016 147.505 215.041 147.567 215.084 147.615C215.127 147.662 215.186 147.692 215.251 147.697Z" fill="white"/>
<path opacity="0.7" d="M179.51 140.81C179.574 140.804 179.634 140.775 179.677 140.728C179.72 140.68 179.745 140.618 179.745 140.554C179.745 140.49 179.72 140.428 179.677 140.38C179.634 140.333 179.574 140.304 179.51 140.298C179.446 140.304 179.386 140.333 179.343 140.38C179.3 140.428 179.275 140.49 179.275 140.554C179.275 140.618 179.3 140.68 179.343 140.728C179.386 140.775 179.446 140.804 179.51 140.81Z" fill="white"/>
<path opacity="0.7" d="M181.557 144.067C181.621 144.061 181.68 144.032 181.724 143.984C181.767 143.937 181.791 143.875 181.791 143.811C181.791 143.746 181.767 143.684 181.724 143.637C181.68 143.59 181.621 143.56 181.557 143.555C181.493 143.56 181.433 143.59 181.39 143.637C181.346 143.684 181.322 143.746 181.322 143.811C181.322 143.875 181.346 143.937 181.39 143.984C181.433 144.032 181.493 144.061 181.557 144.067Z" fill="white"/>
<path opacity="0.7" d="M184.442 142.58C184.51 142.58 184.575 142.553 184.624 142.504C184.672 142.456 184.699 142.391 184.699 142.323C184.699 142.254 184.672 142.189 184.624 142.141C184.575 142.093 184.51 142.065 184.442 142.065C184.374 142.065 184.308 142.093 184.26 142.141C184.212 142.189 184.185 142.254 184.185 142.323C184.185 142.391 184.212 142.456 184.26 142.504C184.308 142.553 184.374 142.58 184.442 142.58Z" fill="white"/>
<path opacity="0.7" d="M185.374 146.022C185.438 146.016 185.498 145.987 185.541 145.94C185.585 145.892 185.609 145.83 185.609 145.766C185.609 145.702 185.585 145.639 185.541 145.592C185.498 145.545 185.438 145.515 185.374 145.51C185.31 145.515 185.251 145.545 185.207 145.592C185.164 145.639 185.14 145.702 185.14 145.766C185.14 145.83 185.164 145.892 185.207 145.94C185.251 145.987 185.31 146.016 185.374 146.022Z" fill="white"/>
<path opacity="0.7" d="M187.514 143.316C187.578 143.31 187.638 143.281 187.681 143.233C187.725 143.186 187.749 143.124 187.749 143.06C187.749 142.995 187.725 142.933 187.681 142.886C187.638 142.839 187.578 142.809 187.514 142.804C187.45 142.809 187.39 142.839 187.347 142.886C187.303 142.933 187.279 142.995 187.279 143.06C187.279 143.124 187.303 143.186 187.347 143.233C187.39 143.281 187.45 143.31 187.514 143.316Z" fill="white"/>
<path opacity="0.7" d="M189.654 139.415C189.718 139.409 189.777 139.379 189.821 139.332C189.864 139.285 189.888 139.223 189.888 139.158C189.888 139.094 189.864 139.032 189.821 138.985C189.777 138.937 189.718 138.908 189.654 138.902C189.59 138.908 189.53 138.937 189.486 138.985C189.443 139.032 189.419 139.094 189.419 139.158C189.419 139.223 189.443 139.285 189.486 139.332C189.53 139.379 189.59 139.409 189.654 139.415Z" fill="white"/>
<path opacity="0.7" d="M190.306 143.512C190.374 143.512 190.44 143.485 190.488 143.436C190.536 143.388 190.563 143.323 190.563 143.255C190.563 143.186 190.536 143.121 190.488 143.073C190.44 143.025 190.374 142.998 190.306 142.998C190.238 142.998 190.172 143.025 190.124 143.073C190.076 143.121 190.049 143.186 190.049 143.255C190.049 143.323 190.076 143.388 190.124 143.436C190.172 143.485 190.238 143.512 190.306 143.512Z" fill="white"/>
<path opacity="0.7" d="M192.718 137.646C192.786 137.646 192.852 137.618 192.9 137.57C192.948 137.522 192.975 137.457 192.975 137.388C192.975 137.32 192.948 137.255 192.9 137.207C192.852 137.158 192.786 137.131 192.718 137.131C192.65 137.131 192.585 137.158 192.536 137.207C192.488 137.255 192.461 137.32 192.461 137.388C192.461 137.457 192.488 137.522 192.536 137.57C192.585 137.618 192.65 137.646 192.718 137.646Z" fill="white"/>
</g>
<path d="M234.603 180.382C234.014 179.691 233.358 179.008 232.854 178.251C232.742 178.084 232.163 177.02 232.642 177.15C233.121 177.279 233.543 178.084 233.745 178.474C233.947 178.865 234.159 179.259 234.349 179.652C234.444 179.822 234.522 180.001 234.585 180.186C234.585 180.211 234.642 180.425 234.603 180.382C234.165 179.862 234.673 180.468 234.603 180.382Z" fill="#FDA57D"/>
<path d="M237.429 186.085C237.505 184.857 237.531 183.626 237.494 182.398C237.458 181.158 237.358 179.922 237.195 178.692C237.04 177.515 236.836 176.361 236.565 175.215C236.326 174.174 235.998 173.156 235.584 172.171C235.178 171.191 234.646 170.268 234.002 169.424C233.924 169.323 233.843 169.227 233.763 169.125C233.712 169.062 233.624 169.153 233.675 169.216C234.34 170.031 234.895 170.931 235.325 171.892C235.757 172.864 236.1 173.872 236.351 174.905C236.63 176.025 236.848 177.159 237.007 178.302C237.183 179.522 237.297 180.75 237.346 181.982C237.395 183.196 237.386 184.415 237.321 185.63C237.321 185.783 237.305 185.934 237.295 186.087C237.295 186.168 237.415 186.168 237.421 186.087L237.429 186.085Z" fill="#3F4249"/>
<path d="M235.09 170.016C235.546 170.813 235.408 171.151 235.09 171.325C234.772 171.5 234.409 171.426 233.968 170.65C233.526 169.875 233.652 169.514 233.968 169.339C234.284 169.165 234.662 169.263 235.09 170.016Z" fill="#FDA57D"/>
<path opacity="0.2" d="M235.09 170.016C235.546 170.813 235.408 171.151 235.09 171.325C234.772 171.5 234.409 171.426 233.968 170.65C233.526 169.875 233.652 169.514 233.968 169.339C234.284 169.165 234.662 169.263 235.09 170.016Z" fill="black"/>
<path opacity="0.15" d="M235.055 171.013C234.715 170.913 234.415 170.712 234.191 170.437C233.969 170.162 233.834 169.826 233.806 169.473C233.634 169.679 233.626 170.032 233.977 170.65C234.419 171.435 234.794 171.5 235.1 171.325C235.217 171.267 235.308 171.166 235.353 171.045C235.253 171.047 235.153 171.036 235.055 171.013Z" fill="black"/>
<path d="M237.462 185.958C237.407 185.55 237.393 185.138 237.421 184.727C237.456 184.184 237.521 183.644 237.617 183.108C237.841 181.814 238.19 180.546 238.661 179.32C239.006 178.449 239.399 177.597 239.839 176.769C240.264 175.952 240.737 175.161 241.254 174.399C241.96 173.353 242.737 172.356 243.542 171.384L243.901 170.954C243.954 170.893 243.864 170.803 243.813 170.866C242.957 171.879 242.129 172.917 241.371 174.006C240.822 174.792 240.317 175.61 239.864 176.455C239.444 177.236 239.065 178.037 238.726 178.855C238.214 180.098 237.829 181.388 237.576 182.708C237.464 183.268 237.383 183.834 237.336 184.403C237.293 184.847 237.289 185.294 237.325 185.738C237.325 185.824 237.344 185.913 237.358 186.001C237.372 186.089 237.491 186.046 237.48 185.967L237.462 185.958Z" fill="#3F4249"/>
<path d="M243.403 172.435C243.743 171.903 243.778 171.318 243.48 171.128C243.182 170.938 242.665 171.214 242.326 171.745C241.984 172.277 241.951 172.862 242.249 173.052C242.546 173.243 243.064 172.966 243.403 172.435Z" fill="#FDA57D"/>
<path opacity="0.2" d="M243.403 172.435C243.743 171.903 243.778 171.318 243.48 171.128C243.182 170.938 242.665 171.214 242.326 171.745C241.984 172.277 241.951 172.862 242.249 173.052C242.546 173.243 243.064 172.966 243.403 172.435Z" fill="black"/>
<path opacity="0.15" d="M242.31 172.754C242.655 172.672 242.965 172.486 243.203 172.223C243.438 171.959 243.59 171.629 243.635 171.278C243.798 171.494 243.788 171.847 243.405 172.455C242.924 173.207 242.547 173.264 242.249 173.074C242.135 173.008 242.051 172.903 242.012 172.779C242.112 172.785 242.212 172.776 242.31 172.754Z" fill="black"/>
<path d="M237.223 186.177C237.215 185.93 237.178 185.684 237.111 185.445C236.97 184.963 236.748 184.508 236.458 184.099C235.849 183.224 235.002 182.402 233.991 182.025C233.755 181.935 233.512 181.873 233.263 181.84C233.147 181.827 232.784 181.772 232.692 181.876C232.6 181.98 232.717 181.956 232.806 181.993C232.982 182.073 233.155 182.166 233.32 182.272C234.851 183.216 236.67 184.319 237.078 186.177H237.223Z" fill="#FDA57D"/>
<path opacity="0.2" d="M237.223 186.177C237.215 185.93 237.178 185.684 237.111 185.445C236.97 184.963 236.748 184.508 236.458 184.099C235.849 183.224 235.002 182.402 233.991 182.025C233.755 181.935 233.512 181.873 233.263 181.84C233.147 181.827 232.784 181.772 232.692 181.876C232.6 181.98 232.717 181.956 232.806 181.993C232.982 182.073 233.155 182.166 233.32 182.272C234.851 183.216 236.67 184.319 237.078 186.177H237.223Z" fill="black"/>
<path d="M237.162 186.03C237.052 184.264 236.528 182.569 235.953 180.908C235.692 180.155 235.435 179.387 235.111 178.657C234.719 177.77 234.24 176.911 233.771 176.063C233.549 175.67 233.32 175.268 233.072 174.885C232.959 174.713 232.843 174.54 232.719 174.373C232.672 174.308 232.44 174.092 232.438 174.018C232.438 173.906 232.544 173.998 232.607 174.036C232.764 174.135 232.913 174.247 233.053 174.369C233.39 174.666 233.7 174.995 233.977 175.35C234.574 176.1 235.064 176.929 235.433 177.813C235.771 178.693 236.061 179.59 236.307 180.5C236.624 181.549 236.876 182.618 237.058 183.699C237.137 184.182 237.192 184.67 237.221 185.159C237.221 185.367 237.235 185.575 237.233 185.781C237.233 185.83 237.256 185.977 237.233 186.013C237.229 186.011 237.168 186.134 237.162 186.03Z" fill="#FDA57D"/>
<path opacity="0.2" d="M237.162 186.03C237.052 184.264 236.528 182.569 235.953 180.908C235.692 180.155 235.435 179.387 235.111 178.657C234.719 177.77 234.24 176.911 233.771 176.063C233.549 175.67 233.32 175.268 233.072 174.885C232.959 174.713 232.843 174.54 232.719 174.373C232.672 174.308 232.44 174.092 232.438 174.018C232.438 173.906 232.544 173.998 232.607 174.036C232.764 174.135 232.913 174.247 233.053 174.369C233.39 174.666 233.7 174.995 233.977 175.35C234.574 176.1 235.064 176.929 235.433 177.813C235.771 178.693 236.061 179.59 236.307 180.5C236.624 181.549 236.876 182.618 237.058 183.699C237.137 184.182 237.192 184.67 237.221 185.159C237.221 185.367 237.235 185.575 237.233 185.781C237.233 185.83 237.256 185.977 237.233 186.013C237.229 186.011 237.168 186.134 237.162 186.03Z" fill="black"/>
<path d="M237.23 186.177H237.348C237.348 186.097 237.332 186.016 237.328 185.954C237.315 185.608 237.279 185.263 237.222 184.921C237.101 184.175 236.879 183.448 236.559 182.763C235.97 181.513 235.081 180.364 233.845 179.705C233.727 179.642 232.352 179.032 232.302 179.218C232.281 179.307 232.758 179.568 232.832 179.623C233.076 179.799 233.317 179.984 233.553 180.174C234.585 181.016 235.576 181.94 236.227 183.118C236.736 184.072 237.075 185.107 237.23 186.177Z" fill="#FDA57D"/>
<path d="M237.361 186.177H237.451C237.451 186.032 237.451 185.887 237.451 185.743C237.451 185.335 237.451 184.929 237.431 184.521C237.41 183.606 237.363 182.69 237.28 181.773C237.125 180.093 236.947 178.419 236.364 176.826C236.232 176.459 236.079 176.1 235.909 175.75C235.877 175.688 235.646 175.162 235.573 175.262C235.547 175.301 235.604 175.499 235.612 175.544C235.634 175.697 235.661 175.85 235.687 176.003C235.75 176.374 235.814 176.743 235.883 177.11C236.189 178.765 236.595 180.396 236.852 182.058C237.07 183.428 237.223 184.801 237.361 186.177Z" fill="#FDA57D"/>
<path opacity="0.2" d="M237.361 186.177H237.451C237.451 186.032 237.451 185.887 237.451 185.743C237.451 185.335 237.451 184.929 237.431 184.521C237.41 183.606 237.363 182.69 237.28 181.773C237.125 180.093 236.947 178.419 236.364 176.826C236.232 176.459 236.079 176.1 235.909 175.75C235.877 175.688 235.646 175.162 235.573 175.262C235.547 175.301 235.604 175.499 235.612 175.544C235.634 175.697 235.661 175.85 235.687 176.003C235.75 176.374 235.814 176.743 235.883 177.11C236.189 178.765 236.595 180.396 236.852 182.058C237.07 183.428 237.223 184.801 237.361 186.177Z" fill="white"/>
<path d="M237.679 181.438C237.565 180.48 237.6 179.511 237.783 178.565C237.863 178.004 237.998 177.452 238.187 176.918C238.393 176.418 238.656 175.944 238.972 175.505C239.092 175.325 239.213 175.144 239.329 174.961C239.364 174.906 239.549 174.516 239.602 174.51C239.798 174.49 239.572 175.421 239.533 175.554C239.368 176.059 239.146 176.544 238.876 177C238.603 177.489 238.393 178.011 238.252 178.553C238.091 179.116 237.959 179.687 237.859 180.264C237.818 180.523 237.785 180.782 237.767 181.049C237.773 181.152 237.769 181.255 237.753 181.357C237.761 181.308 237.702 181.597 237.679 181.438Z" fill="#FDA57D"/>
<path opacity="0.2" d="M237.679 181.438C237.565 180.48 237.6 179.511 237.783 178.565C237.863 178.004 237.998 177.452 238.187 176.918C238.393 176.418 238.656 175.944 238.972 175.505C239.092 175.325 239.213 175.144 239.329 174.961C239.364 174.906 239.549 174.516 239.602 174.51C239.798 174.49 239.572 175.421 239.533 175.554C239.368 176.059 239.146 176.544 238.876 177C238.603 177.489 238.393 178.011 238.252 178.553C238.091 179.116 237.959 179.687 237.859 180.264C237.818 180.523 237.785 180.782 237.767 181.049C237.773 181.152 237.769 181.255 237.753 181.357C237.761 181.308 237.702 181.597 237.679 181.438Z" fill="black"/>
<path d="M237.137 173.804C237.18 174.234 237.211 174.665 237.245 175.097C237.392 177.032 237.476 178.975 237.441 180.914C237.418 182.484 237.372 184.529 237.418 186.177H237.569C237.569 185.869 237.569 185.524 237.569 185.392C237.596 184.911 237.612 184.25 237.651 183.769C237.735 182.688 237.847 181.611 237.912 180.525C238.04 178.645 238.155 176.759 237.747 174.905C237.659 174.492 237.545 174.085 237.41 173.686C237.341 173.49 237.264 173.305 237.186 173.119C237.166 173.072 237.105 172.852 237.041 172.923C237.001 172.966 237.054 173.168 237.06 173.223C237.094 173.419 237.119 173.611 237.137 173.804Z" fill="#FDA57D"/>
<path d="M237.705 186.177C237.77 185.624 237.844 184.884 237.901 184.629C238.048 183.885 238.217 183.147 238.417 182.417C238.761 181.248 239.199 180.107 239.723 179.006C239.852 178.718 239.982 178.429 240.115 178.145C240.15 178.072 240.392 177.67 240.256 177.678C240.186 177.678 240.015 177.874 239.958 177.933C239.842 178.039 239.738 178.151 239.632 178.267C239.432 178.491 239.25 178.73 239.087 178.983C238.402 180.051 238.129 181.287 237.897 182.515C237.699 183.727 237.568 184.948 237.505 186.174L237.705 186.177Z" fill="#FDA57D"/>
<path d="M243.395 176.753C243.218 176.78 243.047 176.837 242.892 176.922C242.723 176.99 242.559 177.067 242.4 177.154C242.094 177.318 241.803 177.507 241.53 177.721C240.19 178.761 239.407 180.296 238.763 181.83C238.263 183.022 237.678 184.774 237.646 186.177H237.794C237.794 186.091 237.794 186.024 237.794 186.014C237.805 185.833 237.831 185.652 237.868 185.473C237.957 185.035 238.078 184.605 238.231 184.185C238.549 183.316 238.926 182.47 239.358 181.652C240.125 180.192 241.136 178.873 242.343 177.748C242.635 177.474 242.941 177.219 243.257 176.963C243.35 176.893 243.603 176.771 243.395 176.753Z" fill="#FDA57D"/>
<path opacity="0.2" d="M243.395 176.753C243.218 176.78 243.047 176.837 242.892 176.922C242.723 176.99 242.559 177.067 242.4 177.154C242.094 177.318 241.803 177.507 241.53 177.721C240.19 178.761 239.407 180.296 238.763 181.83C238.263 183.022 237.678 184.774 237.646 186.177H237.794C237.794 186.091 237.794 186.024 237.794 186.014C237.805 185.833 237.831 185.652 237.868 185.473C237.957 185.035 238.078 184.605 238.231 184.185C238.549 183.316 238.926 182.47 239.358 181.652C240.125 180.192 241.136 178.873 242.343 177.748C242.635 177.474 242.941 177.219 243.257 176.963C243.35 176.893 243.603 176.771 243.395 176.753Z" fill="white"/>
<path d="M243.429 180.904C243.342 180.786 242.814 180.847 242.693 180.856C242.469 180.879 242.249 180.926 242.037 180.996C240.86 181.371 239.969 182.309 239.217 183.257C238.532 184.125 238.02 185.116 237.708 186.177H237.889C237.916 186.047 237.951 185.919 237.996 185.794C238.128 185.496 238.283 185.211 238.464 184.94C238.829 184.389 239.249 183.875 239.716 183.408C240.542 182.581 241.49 181.886 242.526 181.345C242.744 181.228 242.969 181.128 243.203 181.045C243.27 181.021 243.499 180.996 243.429 180.904Z" fill="#FDA57D"/>
<path opacity="0.2" d="M243.429 180.904C243.342 180.786 242.814 180.847 242.693 180.856C242.469 180.879 242.249 180.926 242.037 180.996C240.86 181.371 239.969 182.309 239.217 183.257C238.532 184.125 238.02 185.116 237.708 186.177H237.889C237.916 186.047 237.951 185.919 237.996 185.794C238.128 185.496 238.283 185.211 238.464 184.94C238.829 184.389 239.249 183.875 239.716 183.408C240.542 182.581 241.49 181.886 242.526 181.345C242.744 181.228 242.969 181.128 243.203 181.045C243.27 181.021 243.499 180.996 243.429 180.904Z" fill="black"/>
<path d="M175.6 138.429L174.911 136.602L173.037 134.428L169.73 132.691L168.849 132.083C160.607 125.018 154.311 121.67 154.311 121.67L152.768 117.44L147.077 119.207L151.308 128.187L166.504 135.362L167.218 136.502C167.495 137.58 169.1 139.169 169.1 139.169L170.081 140.237C171.017 140.321 170.111 138.724 170.111 138.724L169.546 137.676L169.638 137.434L171.669 138.633L173.125 140.052C173.167 140.1 173.224 140.131 173.286 140.14C173.348 140.149 173.412 140.135 173.465 140.101L173.589 140.025C173.619 140.006 173.644 139.981 173.665 139.952C173.685 139.923 173.699 139.89 173.707 139.855C173.714 139.82 173.714 139.784 173.707 139.75C173.701 139.715 173.687 139.681 173.667 139.652L172.699 138.475L173.981 139.966C174.203 140.15 174.374 139.995 174.491 139.915C174.541 139.879 174.576 139.828 174.593 139.769C174.609 139.71 174.604 139.647 174.58 139.591L173.73 138.318L174.538 139.299C174.571 139.356 174.624 139.398 174.686 139.419C174.748 139.44 174.816 139.437 174.876 139.411L174.935 139.385C174.995 139.358 175.044 139.308 175.07 139.247C175.096 139.186 175.098 139.116 175.076 139.053L174.446 137.901L174.491 137.829L175.07 138.635C175.099 138.699 175.152 138.749 175.217 138.774C175.283 138.799 175.355 138.798 175.419 138.769L175.463 138.751C175.521 138.724 175.567 138.675 175.592 138.616C175.617 138.557 175.62 138.491 175.6 138.429Z" fill="#FC9D9D"/>
<path d="M121.116 196.193L130.676 200.798L128.058 196.303C127.842 195.931 127.714 195.515 127.683 195.086C127.652 194.657 127.719 194.227 127.879 193.828L129.115 190.737L123.852 188.371L121.116 196.193Z" fill="#FC9D9D"/>
<path opacity="0.15" d="M123.794 193.142L123.821 193.083C123.88 192.914 124.001 192.774 124.16 192.691C124.319 192.609 124.503 192.591 124.675 192.641L127.966 193.587L128.215 192.963L123.06 190.63L121.199 195.956L125.621 197.399L124.477 196.221C124.084 195.823 123.812 195.322 123.692 194.777C123.571 194.232 123.606 193.664 123.79 193.138L123.794 193.142Z" fill="black"/>
<path d="M134.489 201.975C134.687 201.538 134.744 201.047 134.65 200.574V200.559C134.575 200.219 134.402 199.907 134.153 199.664C133.904 199.418 133.589 199.253 133.247 199.185L130.303 198.204L128.227 195.696C128.107 195.47 127.913 195.293 127.678 195.193C127.443 195.093 127.181 195.077 126.935 195.148L124.674 195.802C124.511 195.849 124.338 195.853 124.172 195.816C124.006 195.778 123.853 195.698 123.727 195.584L121.96 194.014C121.904 193.965 121.837 193.931 121.764 193.914C121.694 193.897 121.621 193.897 121.55 193.914C121.478 193.93 121.411 193.963 121.354 194.01C121.298 194.057 121.254 194.116 121.224 194.183L119.517 198.304C119.451 198.449 119.415 198.606 119.41 198.765C119.405 198.924 119.431 199.083 119.488 199.232C119.544 199.381 119.629 199.518 119.738 199.634C119.847 199.75 119.978 199.844 120.123 199.909L126.301 202.34L133.824 202.289C133.824 202.289 134.377 202.27 134.489 201.975Z" fill="#868A91"/>
<path opacity="0.5" d="M134.694 201.377L126.546 201.336L119.448 198.506C119.376 198.783 119.405 199.075 119.528 199.332C119.651 199.591 119.861 199.797 120.121 199.915L126.301 202.346L133.876 202.293C133.876 202.293 134.592 202.462 134.694 201.377Z" fill="black"/>
<path d="M127.479 197.161C127.464 197.155 127.45 197.146 127.439 197.134C127.428 197.124 127.419 197.11 127.414 197.095C127.41 197.079 127.41 197.063 127.414 197.047C127.411 197.032 127.411 197.014 127.414 196.998C127.421 196.983 127.431 196.969 127.443 196.959C127.456 196.947 127.47 196.938 127.487 196.932L128.644 196.449C128.676 196.437 128.711 196.439 128.742 196.452C128.773 196.466 128.797 196.492 128.809 196.523C128.812 196.539 128.812 196.557 128.809 196.575C128.809 196.59 128.805 196.606 128.797 196.622C128.79 196.637 128.781 196.651 128.77 196.663C128.757 196.673 128.742 196.68 128.727 196.686L127.569 197.169C127.552 197.173 127.535 197.173 127.518 197.169C127.501 197.169 127.484 197.163 127.469 197.155L127.479 197.161Z" fill="white"/>
<path d="M128.053 197.901C128.03 197.893 128.01 197.878 127.995 197.858C127.98 197.838 127.972 197.815 127.971 197.789C127.969 197.766 127.975 197.74 127.987 197.719C127.999 197.697 128.018 197.681 128.04 197.67L129.164 197.108C129.196 197.097 129.231 197.097 129.262 197.108C129.293 197.12 129.319 197.142 129.335 197.171C129.35 197.203 129.352 197.238 129.341 197.269C129.33 197.303 129.307 197.328 129.276 197.344L128.153 197.901C128.138 197.909 128.12 197.915 128.102 197.915C128.086 197.919 128.07 197.919 128.053 197.915V197.901Z" fill="white"/>
<path d="M128.591 198.473C128.561 198.463 128.536 198.441 128.522 198.412C128.515 198.396 128.51 198.38 128.51 198.365C128.509 198.347 128.512 198.329 128.518 198.314C128.523 198.298 128.532 198.284 128.544 198.272C128.555 198.261 128.569 198.251 128.585 198.243L129.707 197.684C129.723 197.678 129.739 197.674 129.756 197.672C129.773 197.67 129.789 197.67 129.805 197.672C129.82 197.678 129.834 197.686 129.847 197.695C129.858 197.709 129.868 197.723 129.876 197.737C129.889 197.768 129.889 197.803 129.876 197.835C129.864 197.866 129.841 197.892 129.811 197.905L128.687 198.463C128.671 198.471 128.655 198.475 128.638 198.475C128.621 198.475 128.604 198.471 128.589 198.463L128.591 198.473Z" fill="white"/>
<path d="M152.045 199.183L162.089 199.422L158.076 196.561C157.744 196.325 157.47 196.016 157.276 195.658C157.081 195.3 156.971 194.903 156.954 194.496L156.812 191.356L151.349 191.368L152.045 199.183Z" fill="#FC9D9D"/>
<path opacity="0.15" d="M153.163 195.503V195.442C153.148 195.274 153.199 195.106 153.304 194.973C153.408 194.84 153.56 194.752 153.728 194.728L156.937 194.259L156.909 193.623H151.55L152.025 198.945L156.411 198.463L154.965 197.897C154.472 197.705 154.043 197.379 153.726 196.955C153.409 196.533 153.217 196.03 153.171 195.503H153.163Z" fill="black"/>
<path d="M151.349 197.395V201.32C151.349 201.624 151.471 201.917 151.686 202.133C151.902 202.348 152.194 202.47 152.499 202.47H165.808C165.934 202.47 166.054 202.421 166.144 202.331C166.232 202.242 166.283 202.123 166.283 201.997C166.283 201.54 166.142 200.706 165.875 200.335C165.607 199.966 165.229 199.691 164.796 199.55L161.799 198.569L157.982 195.976C157.791 195.828 157.555 195.75 157.313 195.756C157.071 195.762 156.839 195.851 156.655 196.007L154.96 197.454C154.838 197.56 154.69 197.631 154.532 197.662C154.374 197.693 154.211 197.686 154.057 197.638L151.912 196.969C151.848 196.952 151.781 196.946 151.716 196.955C151.648 196.969 151.584 196.997 151.529 197.038C151.474 197.079 151.429 197.134 151.4 197.197C151.369 197.258 151.354 197.324 151.355 197.393L151.349 197.395Z" fill="#868A91"/>
<path opacity="0.5" d="M152.498 202.466H165.807C165.933 202.466 166.054 202.415 166.143 202.327C166.232 202.238 166.282 202.117 166.282 201.991C166.283 201.83 166.264 201.669 166.227 201.512H151.365C151.412 201.779 151.551 202.02 151.758 202.195C151.965 202.37 152.227 202.466 152.498 202.466Z" fill="black"/>
<path d="M157.913 197.534C157.898 197.534 157.883 197.532 157.868 197.526C157.854 197.52 157.841 197.51 157.83 197.5C157.82 197.489 157.81 197.477 157.803 197.463C157.8 197.447 157.8 197.432 157.803 197.416C157.8 197.4 157.8 197.385 157.803 197.371C157.809 197.355 157.819 197.343 157.83 197.332L158.641 196.462C158.664 196.44 158.695 196.427 158.727 196.427C158.759 196.427 158.789 196.44 158.812 196.462C158.823 196.473 158.832 196.487 158.839 196.502C158.842 196.515 158.842 196.531 158.839 196.547C158.841 196.562 158.838 196.578 158.832 196.594C158.826 196.607 158.816 196.621 158.804 196.631L157.993 197.498C157.982 197.51 157.968 197.518 157.952 197.524C157.937 197.528 157.921 197.528 157.905 197.524L157.913 197.534Z" fill="white"/>
<path d="M158.553 198.032C158.536 198.032 158.518 198.028 158.503 198.021C158.487 198.015 158.473 198.003 158.462 197.989C158.451 197.977 158.443 197.962 158.438 197.944C158.433 197.928 158.432 197.911 158.435 197.893C158.439 197.869 158.45 197.848 158.467 197.83L159.279 196.961C159.29 196.949 159.303 196.941 159.318 196.933C159.332 196.927 159.348 196.924 159.364 196.924C159.395 196.922 159.425 196.933 159.448 196.955C159.471 196.977 159.485 197.008 159.487 197.039C159.488 197.071 159.476 197.102 159.454 197.126L158.641 197.993C158.631 198.007 158.617 198.017 158.602 198.023C158.586 198.03 158.57 198.032 158.553 198.032Z" fill="white"/>
<path d="M159.195 198.531C159.165 198.531 159.136 198.519 159.114 198.498C159.103 198.488 159.094 198.474 159.088 198.46C159.082 198.445 159.079 198.429 159.079 198.413C159.079 198.398 159.082 198.382 159.088 198.368C159.094 198.353 159.103 198.341 159.114 198.329L159.925 197.462C159.937 197.452 159.95 197.442 159.964 197.434C159.98 197.432 159.996 197.432 160.011 197.434C160.026 197.432 160.042 197.432 160.056 197.434C160.071 197.442 160.084 197.45 160.096 197.462C160.118 197.485 160.131 197.515 160.131 197.546C160.131 197.562 160.128 197.577 160.122 197.591C160.116 197.607 160.107 197.621 160.096 197.63L159.283 198.498C159.271 198.51 159.258 198.517 159.242 198.523C159.227 198.527 159.21 198.527 159.195 198.523V198.531Z" fill="white"/>
<path d="M151.839 140.524L143.453 168.595L129.233 195.486L121.801 192.448L132.141 163.748L133.175 138.283L151.839 140.524Z" fill="#3F4249"/>
<path opacity="0.3" d="M151.839 140.523L148.774 150.787L143.64 141.772L151.839 140.523Z" fill="black"/>
<path opacity="0.15" d="M173.646 140.176C173.676 140.157 173.702 140.132 173.722 140.103C173.742 140.073 173.756 140.04 173.763 140.005C173.771 139.97 173.771 139.934 173.764 139.9C173.758 139.864 173.744 139.831 173.724 139.801L172.759 138.624L174.038 140.121C174.26 140.308 174.431 140.151 174.548 140.068C174.599 140.033 174.635 139.982 174.652 139.923C174.668 139.864 174.664 139.801 174.639 139.744L173.791 138.463L174.598 139.444C174.63 139.501 174.683 139.544 174.745 139.564C174.808 139.584 174.875 139.581 174.935 139.554L174.994 139.529C175.055 139.501 175.103 139.451 175.129 139.389C175.156 139.327 175.158 139.258 175.135 139.195L174.507 138.035L174.555 137.963L175.132 138.773C175.16 138.837 175.213 138.888 175.278 138.913C175.344 138.938 175.417 138.937 175.481 138.908L175.524 138.889C175.594 138.85 175.65 138.79 175.685 138.718C175.72 138.646 175.732 138.566 175.72 138.487L174.986 136.72L173.112 134.544L169.805 132.803L168.221 131.702L166.604 134.308L167.284 136.251C167.558 137.336 169.161 138.932 169.161 138.932L169.946 140.153C170.885 140.235 170.156 138.871 170.156 138.871L169.307 137.682L169.566 137.289L170.261 137.811L170.999 137.894L170.789 138.214L171.05 138.41L171.595 138.496L172.38 138.889L171.493 138.744L171.726 138.918L172.262 139.395L172.576 139.478L173.646 140.176Z" fill="black"/>
<path d="M175.6 138.429L174.911 136.602L173.037 134.428L169.73 132.691L168.849 132.083C160.607 125.018 154.311 121.67 154.311 121.67L152.768 117.44L147.077 119.207L151.308 128.187L166.504 135.362L167.218 136.502C167.495 137.58 169.1 139.169 169.1 139.169L170.081 140.237C171.017 140.321 170.111 138.724 170.111 138.724L169.546 137.676L169.638 137.434L171.669 138.633L173.125 140.052C173.167 140.1 173.224 140.131 173.286 140.14C173.348 140.149 173.412 140.135 173.465 140.101L173.589 140.025C173.619 140.006 173.644 139.981 173.665 139.952C173.685 139.923 173.699 139.89 173.707 139.855C173.714 139.82 173.714 139.784 173.707 139.75C173.701 139.715 173.687 139.681 173.667 139.652L172.699 138.475L173.981 139.966C174.203 140.15 174.374 139.995 174.491 139.915C174.541 139.879 174.576 139.828 174.593 139.769C174.609 139.71 174.604 139.647 174.58 139.591L173.73 138.318L174.538 139.299C174.571 139.356 174.624 139.398 174.686 139.419C174.748 139.44 174.816 139.437 174.876 139.411L174.935 139.385C174.995 139.358 175.044 139.308 175.07 139.247C175.096 139.186 175.098 139.116 175.076 139.053L174.446 137.901L174.491 137.829L175.07 138.635C175.099 138.699 175.152 138.749 175.217 138.774C175.283 138.799 175.355 138.798 175.419 138.769L175.463 138.751C175.521 138.724 175.567 138.675 175.592 138.616C175.617 138.557 175.62 138.491 175.6 138.429Z" fill="#FC9D9D"/>
<path opacity="0.15" d="M166.593 134.34L150.434 125.291L150.685 126.861L151.311 128.185L166.506 135.36L167.221 136.5C167.498 137.578 169.103 139.167 169.103 139.167L170.084 140.235C170.502 140.272 170.553 139.974 170.477 139.632C169.179 140.406 166.593 134.34 166.593 134.34Z" fill="black"/>
<path opacity="0.3" d="M145.341 162.278L132.666 150.788L132.469 155.594L138.172 164.608C138.722 165.476 139.048 166.467 139.121 167.493C139.194 168.518 139.013 169.545 138.592 170.483L127.673 194.846L129.243 195.484L143.463 168.597L145.341 162.278Z" fill="black"/>
<path d="M126.518 137.821C126.518 137.821 124.45 147.646 131.424 153.205L144.675 168.523L151.267 196.318L158.96 195.994L156.566 166.597C156.394 165.306 155.996 164.055 155.388 162.902L143.763 140.726L126.518 137.821Z" fill="#3F4249"/>
<path d="M131.045 104.865L125.353 106.288L124.961 122.833C124.961 122.833 123.081 138.533 126.184 140.351C126.184 140.351 140.747 143.585 151.796 140.533C151.982 140.484 152.146 140.376 152.267 140.226C152.387 140.077 152.456 139.893 152.465 139.701C152.55 137.625 152.622 130.986 150.481 125.752C149.597 123.618 148.876 121.421 148.322 119.179C147.661 116.443 146.925 113.19 146.768 111.637C146.703 110.996 146.611 110.356 146.509 109.718L145.964 106.352L140.728 104.994H138.53L131.045 104.865Z" fill="#FDA57D"/>
<path d="M131.487 90.9036L132.637 96.3495L131.811 104.219L138.792 105.124L140.472 107.838L139.687 100.01L141.129 100.222C141.19 100.233 141.253 100.241 141.325 100.247C142.503 100.353 143.205 100.247 143.484 98.3631L143.68 96.0768L144.403 95.7471L144.442 95.7255C144.49 95.6966 144.532 95.6582 144.566 95.6128C144.599 95.5673 144.623 95.5155 144.636 95.4605C144.649 95.4058 144.651 95.3489 144.641 95.2931C144.632 95.2376 144.611 95.1844 144.581 95.1367L143.468 93.3293V93.2194L143.539 92.9505C143.833 91.8234 143.81 90.6369 143.472 89.522L143.139 88.4289C143.139 88.4289 141.319 84.4411 136.537 84.9572C136.537 84.9572 131.487 85.4753 131.487 90.9036Z" fill="#FC9D9D"/>
<path opacity="0.15" d="M139.845 101.711L137.687 99.988C137.646 99.9439 137.62 99.8876 137.614 99.8275C137.608 99.7674 137.621 99.707 137.653 99.6554C137.684 99.604 137.731 99.5639 137.787 99.5418C137.844 99.5196 137.905 99.5164 137.963 99.5327L139.685 99.9861L139.845 101.711Z" fill="black"/>
<path d="M141.323 100.247C142.501 100.353 143.203 100.247 143.482 98.3631L143.645 96.5223L143.633 96.4654C142.205 96.014 141.832 96.5262 141.832 96.5262C139.375 98.4671 137.565 96.1337 137.565 96.1337L136.92 91.7377L137.946 91.5022C138.125 91.4565 138.282 91.3491 138.39 91.1992C138.497 91.0491 138.549 90.866 138.535 90.6819C138.524 90.5741 138.492 90.4697 138.439 90.3751C138.386 90.2805 138.314 90.1981 138.228 90.1326C138.142 90.0672 138.043 90.0203 137.938 89.995C137.832 89.9695 137.723 89.9661 137.616 89.9852C135.603 90.3159 133.544 90.2586 131.552 89.8164C131.503 90.1748 131.479 90.5361 131.48 90.8977L132.63 96.3437V96.3712L132.647 96.3927L133.679 96.3653C133.839 96.361 133.993 96.3074 134.121 96.2118C134.248 96.1162 134.343 95.9832 134.392 95.8315L134.651 95.0347L136.719 95.9394C136.368 98.9852 138.841 99.9586 139.296 100.006H139.361H139.371L141.125 100.202C141.198 100.233 141.261 100.241 141.323 100.247Z" fill="white"/>
<path opacity="0.15" d="M134.274 96.3336L135.568 95.5486C135.281 95.3206 135.021 95.0606 134.793 94.7734C134.533 95.2994 134.533 95.5565 134.274 96.3336Z" fill="black"/>
<path opacity="0.2" d="M150.21 125.107C149.358 123.218 148.691 121.25 148.218 119.232C147.606 116.669 146.929 114.698 146.695 113.148C146.688 113.083 146.661 113.021 146.617 112.972C146.573 112.923 146.516 112.888 146.452 112.873C146.404 112.864 146.354 112.866 146.307 112.879C146.259 112.893 146.216 112.918 146.18 112.951C146.145 112.985 146.118 113.027 146.102 113.074C146.086 113.12 146.081 113.17 146.089 113.219C146.285 114.502 147.042 119.159 148.365 123.347C148.365 123.347 150.767 130.182 150.889 136.606C150.908 137.322 150.712 138.028 150.328 138.634C149.943 139.239 149.387 139.715 148.73 140.003C146.831 140.815 143.251 141.624 136.512 141.692C140.804 141.977 145.902 141.92 150.569 140.841L150.659 140.819L150.977 140.743L151.174 140.692L151.407 140.631L151.723 140.546L151.807 140.525C151.991 140.474 152.154 140.366 152.272 140.216C152.39 140.067 152.458 139.883 152.465 139.693C152.561 137.532 152.636 130.424 150.21 125.107Z" fill="black"/>
<path d="M136.731 95.8239L136.576 93.4061C136.539 92.8704 135.987 92.472 135.34 92.5093C134.692 92.5544 134.196 93.0215 134.227 93.5572L134.258 94.0341C134.327 95.1056 135.436 96.1654 136.731 96.083V95.8239Z" fill="#FC9D9D"/>
<g opacity="0.15">
<path opacity="0.15" d="M136.15 94.0929L136.119 93.6121C136.104 93.4107 136.011 93.2231 135.86 93.0898C135.708 92.9566 135.51 92.8883 135.308 92.8997C135.197 92.9034 135.087 92.9324 134.988 92.9844C134.889 93.0365 134.804 93.11 134.737 93.1999L134.723 93.2176C134.711 93.2366 134.703 93.2578 134.7 93.2802C134.696 93.3024 134.697 93.3251 134.701 93.3469C134.707 93.3689 134.716 93.3897 134.729 93.4081C134.742 93.4264 134.758 93.4421 134.777 93.4541C134.797 93.466 134.818 93.4741 134.84 93.478C134.862 93.4817 134.885 93.4811 134.907 93.476C134.929 93.4709 134.95 93.4617 134.968 93.4488C134.986 93.4356 135.002 93.4191 135.014 93.4001C135.049 93.3479 135.097 93.3049 135.152 93.2749C135.207 93.2449 135.269 93.2286 135.332 93.2274C135.389 93.2237 135.446 93.2313 135.5 93.2496C135.554 93.268 135.604 93.2971 135.647 93.3347C135.69 93.3724 135.725 93.4183 135.75 93.4696C135.775 93.5208 135.79 93.5767 135.793 93.6336L135.824 94.1125C135.832 94.1572 135.854 94.1982 135.888 94.2283C135.922 94.2583 135.965 94.2756 136.011 94.2773C136.034 94.2785 136.056 94.2742 136.077 94.2646C136.098 94.255 136.116 94.2404 136.13 94.2222C136.143 94.2039 136.153 94.1825 136.156 94.1602C136.16 94.1376 136.158 94.1144 136.15 94.0929Z" fill="black"/>
</g>
<path d="M157.715 133.253L149.423 134.615L149.7 136.304L157.992 134.942L157.715 133.253Z" fill="#21252B"/>
<path opacity="0.2" d="M124.968 121.413V123.352L126.909 129C127.486 130.689 128.687 132.093 130.267 132.925L126.259 120.902L124.968 121.413Z" fill="black"/>
<g opacity="0.15">
<path opacity="0.15" d="M174.533 137.972C174.522 137.972 174.512 137.969 174.502 137.964C174.493 137.959 174.485 137.951 174.48 137.942L174.028 137.246L173.275 136.331C173.269 136.325 173.264 136.318 173.261 136.311C173.258 136.303 173.256 136.294 173.256 136.286C173.256 136.278 173.258 136.269 173.261 136.262C173.264 136.254 173.269 136.247 173.275 136.241C173.281 136.235 173.288 136.23 173.296 136.227C173.304 136.223 173.313 136.222 173.321 136.222C173.33 136.222 173.338 136.223 173.346 136.227C173.354 136.23 173.361 136.235 173.367 136.241L174.125 137.161L174.58 137.864C174.589 137.879 174.592 137.896 174.588 137.913C174.585 137.93 174.575 137.945 174.56 137.954C174.553 137.962 174.543 137.968 174.533 137.972Z" fill="black"/>
</g>
<g opacity="0.15">
<path opacity="0.15" d="M173.935 138.741C173.923 138.741 173.912 138.739 173.902 138.734C173.893 138.729 173.884 138.721 173.878 138.712L173.13 137.491L172.424 136.773C172.417 136.767 172.413 136.76 172.409 136.752C172.406 136.744 172.404 136.735 172.404 136.727C172.404 136.718 172.406 136.71 172.409 136.702C172.413 136.694 172.417 136.687 172.424 136.681C172.436 136.669 172.453 136.662 172.47 136.662C172.487 136.662 172.503 136.669 172.516 136.681L173.236 137.418L173.99 138.643C173.998 138.658 174.001 138.675 173.997 138.692C173.993 138.708 173.983 138.723 173.968 138.731C173.958 138.738 173.947 138.741 173.935 138.741Z" fill="black"/>
</g>
<g opacity="0.15">
<path opacity="0.15" d="M173.199 139.116C173.19 139.116 173.181 139.114 173.172 139.111C173.164 139.107 173.156 139.101 173.15 139.094L172.106 137.917L171.321 137.328C171.307 137.318 171.299 137.302 171.297 137.286C171.294 137.269 171.299 137.252 171.309 137.238C171.314 137.231 171.32 137.225 171.328 137.22C171.335 137.216 171.343 137.213 171.351 137.212C171.36 137.21 171.368 137.211 171.377 137.213C171.385 137.215 171.393 137.219 171.399 137.224L172.198 137.813L173.246 138.99C173.252 138.996 173.257 139.003 173.26 139.011C173.264 139.019 173.265 139.027 173.265 139.036C173.265 139.044 173.264 139.052 173.26 139.06C173.257 139.068 173.252 139.075 173.246 139.081C173.242 139.09 173.235 139.099 173.227 139.105C173.219 139.111 173.209 139.115 173.199 139.116Z" fill="black"/>
</g>
<path opacity="0.2" d="M143.58 97.3311C143.58 97.3311 142.936 97.3684 142.548 97.1094" stroke="black" stroke-width="0.25905" stroke-miterlimit="10" stroke-linecap="round"/>
<path d="M154.564 135.232L153.059 135.603L169.444 202.211L170.949 201.84L154.564 135.232Z" fill="#21252B"/>
<path d="M131.844 102.566L138.799 104.089L140.479 107.967L138.734 105.188C138.734 105.188 137.7 104.284 137.83 107.902L130.979 104.929L131.844 102.566Z" fill="white"/>
<path opacity="0.2" d="M132.575 115.943C132.773 115.955 132.962 116.027 133.118 116.149C133.274 116.271 133.39 116.437 133.45 116.626L136.59 126.076C136.59 126.076 145.59 127.885 150.035 129.824L150.428 132.022L131.425 127.885L132.575 115.943Z" fill="black"/>
<path d="M140.415 107.773L139.898 103.896L141.967 104.541L142.477 108.032L142.281 108.097C142.281 108.097 141.667 104.92 141.113 105.069C141.058 105.087 141.008 105.12 140.97 105.164C140.933 105.208 140.908 105.263 140.899 105.32L140.415 107.773Z" fill="white"/>
<path d="M155.521 131.969L156.977 133.374L155.789 133.569L155.521 131.969Z" fill="#FC9D9D"/>
<path opacity="0.15" d="M155.521 131.969L156.977 133.374L155.789 133.569L155.521 131.969Z" fill="black"/>
<path d="M145.327 106.184L147.066 106.692C147.534 106.828 147.966 107.066 148.333 107.386C148.7 107.707 148.992 108.105 149.189 108.55L153.075 117.34L148.255 118.881L145.327 106.184Z" fill="#FDA57D"/>
<path d="M126.009 106.125C124.978 106.362 124.076 106.985 123.49 107.865C122.903 108.746 122.675 109.817 122.853 110.86L125.29 122.906L134.34 120.708L131.88 112.944L126.009 106.125Z" fill="#FDA57D"/>
<path d="M140.207 107.532L141.255 112.105H142.032L140.527 107.22L140.207 107.532Z" fill="white"/>
<path opacity="0.3" d="M129.702 151.559C130.226 152.163 130.804 152.718 131.429 153.215L144.68 168.533L151.272 196.328H152.842L146.295 167.434L129.702 151.559Z" fill="black"/>
<path d="M156.635 135.792L155.654 132.273C155.6 132.077 155.494 131.899 155.348 131.757C155.201 131.616 155.02 131.517 154.822 131.47L151.079 130.589L150.07 130.306C147.8 129.606 138.315 126.735 135.762 126.905L133.752 120.843L125.706 122.768L128.151 130.499C128.394 131.252 128.856 131.916 129.479 132.406C130.101 132.895 130.855 133.188 131.645 133.246L150.047 134.6C150.563 134.993 151.079 135.118 151.338 135.248C151.338 135.248 152.265 136.4 152.531 136.608C152.583 136.648 152.642 136.677 152.704 136.692C152.767 136.708 152.833 136.711 152.896 136.7L152.971 136.688C153.035 136.678 153.096 136.654 153.15 136.618C153.204 136.583 153.25 136.537 153.286 136.482C153.321 136.428 153.345 136.367 153.356 136.303C153.366 136.24 153.364 136.174 153.348 136.112L153.212 135.57L153.458 136.159C153.499 136.252 153.57 136.329 153.659 136.378C153.749 136.427 153.851 136.446 153.952 136.431L154.043 136.418C154.165 136.399 154.275 136.333 154.348 136.234C154.422 136.134 154.453 136.01 154.435 135.888L154.372 135.448L154.627 136.129C154.647 136.188 154.677 136.242 154.718 136.289C154.758 136.335 154.807 136.374 154.862 136.401C154.917 136.429 154.977 136.445 155.038 136.45C155.1 136.455 155.162 136.447 155.22 136.427C155.279 136.408 155.333 136.378 155.379 136.337C155.426 136.297 155.464 136.248 155.492 136.193C155.52 136.138 155.536 136.078 155.541 136.017C155.545 135.955 155.538 135.893 155.518 135.835L155.407 135.442L155.654 136.102C155.693 136.206 155.768 136.293 155.865 136.347C155.963 136.402 156.076 136.42 156.186 136.398L156.27 136.38C156.334 136.368 156.395 136.343 156.449 136.306C156.503 136.269 156.548 136.222 156.582 136.166C156.617 136.111 156.639 136.049 156.648 135.985C156.657 135.92 156.653 135.854 156.635 135.792Z" fill="#FC9D9D"/>
<g opacity="0.15">
<path opacity="0.15" d="M155.541 135.89C155.528 135.89 155.516 135.887 155.505 135.879C155.494 135.873 155.486 135.862 155.482 135.85C155.352 135.558 154.793 134.037 154.769 133.972C154.764 133.956 154.764 133.939 154.771 133.924C154.778 133.908 154.791 133.896 154.807 133.89C154.823 133.884 154.841 133.885 154.857 133.892C154.873 133.9 154.885 133.913 154.891 133.929C154.891 133.945 155.48 135.509 155.6 135.799C155.603 135.807 155.605 135.816 155.605 135.824C155.606 135.832 155.604 135.841 155.601 135.849C155.598 135.857 155.593 135.864 155.587 135.87C155.581 135.876 155.574 135.881 155.566 135.884C155.558 135.888 155.55 135.89 155.541 135.89Z" fill="black"/>
</g>
<g opacity="0.15">
<path opacity="0.15" d="M154.377 135.761C154.365 135.761 154.352 135.757 154.342 135.75C154.331 135.743 154.323 135.733 154.318 135.722L153.8 134.428C153.794 134.412 153.795 134.395 153.801 134.379C153.808 134.363 153.82 134.351 153.836 134.344C153.843 134.34 153.852 134.338 153.86 134.338C153.869 134.338 153.877 134.34 153.885 134.343C153.893 134.347 153.9 134.352 153.906 134.358C153.912 134.364 153.917 134.371 153.92 134.379L154.438 135.672C154.441 135.68 154.443 135.689 154.443 135.698C154.442 135.706 154.44 135.714 154.437 135.722C154.434 135.73 154.428 135.737 154.422 135.743C154.416 135.749 154.409 135.754 154.401 135.757L154.377 135.761Z" fill="black"/>
</g>
<g opacity="0.15">
<path opacity="0.15" d="M153.303 136.251C153.29 136.251 153.278 136.247 153.267 136.24C153.257 136.233 153.248 136.223 153.244 136.211L152.638 134.818C152.634 134.81 152.632 134.802 152.632 134.793C152.632 134.785 152.633 134.777 152.636 134.769C152.64 134.761 152.644 134.754 152.65 134.748C152.656 134.742 152.663 134.737 152.671 134.734C152.687 134.727 152.704 134.727 152.72 134.733C152.736 134.739 152.748 134.751 152.755 134.767L153.362 136.16C153.365 136.168 153.367 136.176 153.368 136.185C153.368 136.193 153.366 136.202 153.363 136.21C153.36 136.218 153.355 136.225 153.349 136.231C153.343 136.237 153.336 136.242 153.328 136.245C153.32 136.249 153.312 136.251 153.303 136.251Z" fill="black"/>
</g>
<path opacity="0.15" d="M156.343 134.778C156.046 135.604 155.218 135.068 155.218 135.068C154.959 135.669 154.199 135.327 154.199 135.327C153.829 135.926 153.053 135.608 153.053 135.608C152.512 136.016 152.092 135.724 151.821 135.369C151.471 134.901 151.029 134.511 150.522 134.221H150.506C150.198 134.049 149.858 133.944 149.507 133.912L132.983 132.411C130.01 132.282 129.751 129.825 129.751 129.825L127.692 122.4L126.721 122.518L125.739 122.714L125.729 122.763L128.151 130.5C128.394 131.253 128.856 131.917 129.478 132.407C130.101 132.896 130.855 133.189 131.644 133.247L150.047 134.601C150.563 134.994 151.079 135.119 151.338 135.249C151.338 135.249 152.264 136.401 152.531 136.609C152.583 136.649 152.641 136.677 152.704 136.693C152.767 136.709 152.833 136.712 152.896 136.701L152.971 136.689C153.035 136.679 153.096 136.655 153.15 136.619C153.204 136.584 153.25 136.537 153.286 136.483C153.321 136.429 153.345 136.368 153.356 136.304C153.366 136.241 153.364 136.175 153.348 136.112L153.075 135.567L153.45 136.156C153.491 136.249 153.562 136.326 153.652 136.375C153.741 136.424 153.843 136.443 153.944 136.428L154.035 136.415C154.157 136.396 154.267 136.33 154.34 136.231C154.414 136.131 154.445 136.007 154.427 135.885L154.364 135.445L154.614 136.106C154.648 136.205 154.713 136.29 154.8 136.348C154.887 136.406 154.99 136.434 155.094 136.428C155.163 136.423 155.23 136.402 155.289 136.368C155.349 136.334 155.401 136.288 155.44 136.231C155.48 136.175 155.507 136.111 155.519 136.043C155.531 135.976 155.528 135.906 155.51 135.84L155.399 135.447L155.646 136.106C155.685 136.211 155.76 136.298 155.857 136.352C155.955 136.406 156.068 136.424 156.178 136.403L156.262 136.385C156.326 136.373 156.386 136.347 156.44 136.31C156.493 136.273 156.538 136.225 156.572 136.17C156.606 136.115 156.628 136.053 156.637 135.989C156.646 135.924 156.641 135.859 156.623 135.796L156.343 134.778Z" fill="black"/>
<path opacity="0.15" d="M173.961 135.502C173.961 135.502 173.443 135.374 173.443 135.502C173.443 135.629 173.05 136.149 174.606 136.795L175.126 137.115L174.734 136.251L173.961 135.502Z" fill="black"/>
<path d="M175.324 137.703L174.735 136.665C173.183 136.02 173.701 135.501 173.701 135.501L174.735 135.894L175.381 136.286L175.97 137.226L175.324 137.703Z" fill="#FC9D9D"/>
<path d="M263.956 211.582H39.5224C39.4796 211.588 39.436 211.586 39.3942 211.574C39.3526 211.562 39.3139 211.542 39.281 211.515C39.248 211.486 39.2215 211.452 39.2033 211.413C39.1852 211.374 39.1758 211.331 39.1758 211.287C39.1758 211.244 39.1852 211.201 39.2033 211.162C39.2215 211.123 39.248 211.087 39.281 211.06C39.3139 211.032 39.3526 211.011 39.3942 210.999C39.436 210.987 39.4796 210.985 39.5224 210.993H263.956C264.026 211.005 264.089 211.04 264.134 211.093C264.181 211.148 264.207 211.217 264.207 211.287C264.207 211.358 264.181 211.427 264.134 211.48C264.089 211.535 264.026 211.57 263.956 211.582Z" fill="#B2B6BB"/>
</svg>
