<svg width="20" height="20" viewBox="0 0 20 20" fill="none" xmlns="http://www.w3.org/2000/svg">
<path d="M10.8482 0.75149C10.6232 0.526525 10.318 0.400146 9.9998 0.400146C9.68161 0.400146 9.37644 0.526525 9.1514 0.75149L0.751405 9.15149C0.532815 9.37781 0.411862 9.68093 0.414596 9.99557C0.41733 10.3102 0.543533 10.6112 0.766023 10.8337C0.988512 11.0562 1.28949 11.1824 1.60412 11.1851C1.91876 11.1878 2.22188 11.0669 2.4482 10.8483L2.7998 10.4967V18.3999C2.7998 18.7181 2.92623 19.0234 3.15128 19.2484C3.37632 19.4735 3.68155 19.5999 3.9998 19.5999H6.3998C6.71806 19.5999 7.02329 19.4735 7.24833 19.2484C7.47338 19.0234 7.5998 18.7181 7.5998 18.3999V15.9999C7.5998 15.6816 7.72623 15.3764 7.95128 15.1514C8.17632 14.9263 8.48154 14.7999 8.7998 14.7999H11.1998C11.5181 14.7999 11.8233 14.9263 12.0483 15.1514C12.2734 15.3764 12.3998 15.6816 12.3998 15.9999V18.3999C12.3998 18.7181 12.5262 19.0234 12.7513 19.2484C12.9763 19.4735 13.2815 19.5999 13.5998 19.5999H15.9998C16.3181 19.5999 16.6233 19.4735 16.8483 19.2484C17.0734 19.0234 17.1998 18.7181 17.1998 18.3999V10.4967L17.5514 10.8483C17.7777 11.0669 18.0808 11.1878 18.3955 11.1851C18.7101 11.1824 19.0111 11.0562 19.2336 10.8337C19.4561 10.6112 19.5823 10.3102 19.585 9.99557C19.5877 9.68093 19.4668 9.37781 19.2482 9.15149L10.8482 0.75149Z" fill="#27BEC2"/>
</svg>
