<svg width="40" height="40" viewBox="0 0 40 40" fill="none" xmlns="http://www.w3.org/2000/svg">
<rect width="40" height="40" rx="20" fill="white"/>
<path d="M15.8333 11.6667V13.3334H16.6666V25.0001C16.6666 25.8841 17.0178 26.732 17.6429 27.3571C18.268 27.9822 19.1159 28.3334 19.9999 28.3334C20.884 28.3334 21.7318 27.9822 22.3569 27.3571C22.9821 26.732 23.3333 25.8841 23.3333 25.0001V13.3334H24.1666V11.6667H15.8333ZM19.1666 23.3334C18.6666 23.3334 18.3333 23.0001 18.3333 22.5001C18.3333 22.0001 18.6666 21.6667 19.1666 21.6667C19.6666 21.6667 19.9999 22.0001 19.9999 22.5001C19.9999 23.0001 19.6666 23.3334 19.1666 23.3334ZM20.8333 20.0001C20.3333 20.0001 19.9999 19.6667 19.9999 19.1667C19.9999 18.6667 20.3333 18.3334 20.8333 18.3334C21.3333 18.3334 21.6666 18.6667 21.6666 19.1667C21.6666 19.6667 21.3333 20.0001 20.8333 20.0001ZM21.6666 15.8334H18.3333V13.3334H21.6666V15.8334Z" fill="#EB8B76"/>
</svg>
