<svg width="40" height="40" viewBox="0 0 40 40" fill="none" xmlns="http://www.w3.org/2000/svg">
<rect width="40" height="40" rx="20" fill="white"/>
<path d="M21.0501 12.5C16.8084 12.3833 13.3334 15.7916 13.3334 20H11.8418C11.4668 20 11.2834 20.45 11.5501 20.7083L13.8751 23.0416C14.0418 23.2083 14.3001 23.2083 14.4668 23.0416L16.7918 20.7083C17.0501 20.45 16.8668 20 16.4918 20H15.0001C15.0001 16.75 17.6501 14.125 20.9168 14.1666C24.0168 14.2083 26.6251 16.8166 26.6668 19.9166C26.7084 23.175 24.0834 25.8333 20.8334 25.8333C19.4918 25.8333 18.2501 25.375 17.2668 24.6C16.9334 24.3416 16.4668 24.3666 16.1668 24.6666C15.8168 25.0166 15.8418 25.6083 16.2334 25.9083C17.5001 26.9083 19.0918 27.5 20.8334 27.5C25.0418 27.5 28.4501 24.025 28.3334 19.7833C28.2251 15.875 24.9584 12.6083 21.0501 12.5ZM20.6251 16.6666C20.2834 16.6666 20.0001 16.95 20.0001 17.2916V20.3583C20.0001 20.65 20.1584 20.925 20.4084 21.075L23.0084 22.6166C23.3084 22.7916 23.6918 22.6916 23.8668 22.4C24.0418 22.1 23.9418 21.7166 23.6501 21.5416L21.2501 20.1166V17.2833C21.2501 16.95 20.9668 16.6666 20.6251 16.6666Z" fill="#EB8B76"/>
</svg>
