<svg width="40" height="40" viewBox="0 0 40 40" fill="none" xmlns="http://www.w3.org/2000/svg">
<rect width="40" height="40" rx="20" fill="white"/>
<path fill-rule="evenodd" clip-rule="evenodd" d="M21.3379 15.3274L15.3275 21.3378C14.398 22.2673 14.398 23.7742 15.3275 24.7037C16.2569 25.6331 17.7639 25.6331 18.6933 24.7037L24.7037 18.6933C25.6332 17.7638 25.6332 16.2569 24.7037 15.3274C23.7743 14.398 22.2673 14.398 21.3379 15.3274ZM14.0052 20.0155C12.3455 21.6753 12.3455 24.3662 14.0052 26.026C15.6649 27.6857 18.3559 27.6857 20.0156 26.026L26.026 20.0155C27.6857 18.3558 27.6857 15.6649 26.026 14.0051C24.3663 12.3454 21.6753 12.3454 20.0156 14.0051L14.0052 20.0155Z" fill="#EB8B76"/>
<path fill-rule="evenodd" clip-rule="evenodd" d="M20.2633 25.7783L23.1586 22.8829L19.5524 19.2767L13.542 25.2871L13.6103 25.3554L20.2633 25.7783Z" fill="#EB8B76"/>
</svg>
