<svg width="20" height="20" viewBox="0 0 20 20" fill="none" xmlns="http://www.w3.org/2000/svg">
<path d="M17.5 3.75V16.25H2.5V3.75H17.5ZM17.5 2.5H2.5C2.16848 2.5 1.85054 2.6317 1.61612 2.86612C1.3817 3.10054 1.25 3.41848 1.25 3.75V16.25C1.25 16.5815 1.3817 16.8995 1.61612 17.1339C1.85054 17.3683 2.16848 17.5 2.5 17.5H17.5C17.8315 17.5 18.1495 17.3683 18.3839 17.1339C18.6183 16.8995 18.75 16.5815 18.75 16.25V3.75C18.75 3.41848 18.6183 3.10054 18.3839 2.86612C18.1495 2.6317 17.8315 2.5 17.5 2.5Z" fill="#707882"/>
<path d="M8.125 6.25H3.75V7.5H8.125V6.25Z" fill="#707882"/>
<path d="M6.25 8.75H3.75V10H6.25V8.75Z" fill="#707882"/>
<path d="M14.375 11.25H10.625C10.1277 11.25 9.65081 11.4475 9.29917 11.7992C8.94754 12.1508 8.75 12.6277 8.75 13.125V14.375H10V13.125C10 12.9592 10.0658 12.8003 10.1831 12.6831C10.3003 12.5658 10.4592 12.5 10.625 12.5H14.375C14.5408 12.5 14.6997 12.5658 14.8169 12.6831C14.9342 12.8003 15 12.9592 15 13.125V14.375H16.25V13.125C16.25 12.6277 16.0525 12.1508 15.7008 11.7992C15.3492 11.4475 14.8723 11.25 14.375 11.25Z" fill="#707882"/>
<path d="M12.5 10.625C12.9945 10.625 13.4778 10.4784 13.8889 10.2037C14.3 9.92897 14.6205 9.53853 14.8097 9.08171C14.9989 8.6249 15.0484 8.12223 14.952 7.63728C14.8555 7.15232 14.6174 6.70687 14.2678 6.35723C13.9181 6.0076 13.4727 5.7695 12.9877 5.67304C12.5028 5.57657 12.0001 5.62608 11.5433 5.8153C11.0865 6.00452 10.696 6.32495 10.4213 6.73608C10.1466 7.1472 10 7.63055 10 8.125C10 8.78804 10.2634 9.42393 10.7322 9.89277C11.2011 10.3616 11.837 10.625 12.5 10.625ZM12.5 6.875C12.7472 6.875 12.9889 6.94831 13.1945 7.08566C13.4 7.22302 13.5602 7.41824 13.6548 7.64665C13.7495 7.87505 13.7742 8.12639 13.726 8.36886C13.6778 8.61134 13.5587 8.83407 13.3839 9.00888C13.2091 9.1837 12.9863 9.30275 12.7439 9.35098C12.5014 9.39921 12.2501 9.37446 12.0216 9.27985C11.7932 9.18524 11.598 9.02503 11.4607 8.81946C11.3233 8.6139 11.25 8.37223 11.25 8.125C11.25 7.79348 11.3817 7.47554 11.6161 7.24112C11.8505 7.0067 12.1685 6.875 12.5 6.875Z" fill="#707882"/>
</svg>
