<svg width="21" height="21" viewBox="0 0 21 21" fill="none" xmlns="http://www.w3.org/2000/svg">
<path d="M15.5 13.4446V16.7779C15.5 17.2363 15.125 17.6113 14.6666 17.6113H4.66663C4.20829 17.6113 3.83329 17.2363 3.83329 16.7779V6.77794C3.83329 6.31961 4.20829 5.94461 4.66663 5.94461H7.18329C7.64163 5.94461 8.01663 5.56961 8.01663 5.11128C8.01663 4.65294 7.64163 4.27794 7.18329 4.27794H3.83329C2.91663 4.27794 2.16663 5.02794 2.16663 5.94461V17.6113C2.16663 18.5279 2.91663 19.2779 3.83329 19.2779H15.5C16.4166 19.2779 17.1666 18.5279 17.1666 17.6113V13.4446C17.1666 12.9863 16.7916 12.6113 16.3333 12.6113C15.875 12.6113 15.5 12.9863 15.5 13.4446ZM13.4166 15.9446H5.93329C5.58329 15.9446 5.39163 15.5446 5.60829 15.2696L7.05829 13.4113C7.22496 13.2029 7.54163 13.1946 7.70829 13.4029L9.00829 14.9696L10.9666 12.4529C11.1333 12.2363 11.4666 12.2363 11.625 12.4613L13.75 15.2863C13.9583 15.5529 13.7583 15.9446 13.4166 15.9446ZM16.5833 8.35294C16.9833 7.71128 17.2083 6.96128 17.1583 6.13628C17.05 4.34461 15.625 2.82794 13.85 2.63628C11.5833 2.38628 9.66663 4.14461 9.66663 6.36128C9.66663 8.43628 11.3416 10.1113 13.4083 10.1113C14.1416 10.1113 14.825 9.89461 15.4 9.52794L17.4083 11.5363C17.7333 11.8613 18.2666 11.8613 18.5916 11.5363C18.9166 11.2113 18.9166 10.6779 18.5916 10.3529L16.5833 8.35294ZM13.4166 8.44461C12.2666 8.44461 11.3333 7.51128 11.3333 6.36128C11.3333 5.21128 12.2666 4.27794 13.4166 4.27794C14.5666 4.27794 15.5 5.21128 15.5 6.36128C15.5 7.51128 14.5666 8.44461 13.4166 8.44461Z" fill="#364F6B"/>
</svg>
