<svg width="22" height="27" viewBox="0 0 22 27" fill="none" xmlns="http://www.w3.org/2000/svg">
<path fill-rule="evenodd" clip-rule="evenodd" d="M0.964286 10.6072C0.431711 10.6072 0 11.0389 0 11.5715V26.0357C0 26.5683 0.431711 27 0.964286 27H5.78571C5.78571 26.4282 6.04009 25.9137 6.3262 25.5148C6.62242 25.1018 7.01807 24.7206 7.45075 24.3948C8.0704 23.9283 8.84317 23.519 9.64286 23.3014V20.3913H7.90714C6.75916 20.3913 5.65582 20.7749 4.81024 21.1873C4.39329 21.3907 4.05347 21.5941 3.82021 21.7448C3.70392 21.82 3.61511 21.8815 3.55735 21.9227C3.52851 21.9433 3.50749 21.9587 3.49476 21.9681L3.48213 21.9776C3.48232 21.9775 3.48223 21.9775 2.89286 21.2143C2.30349 20.4511 2.30368 20.451 2.30387 20.4508L2.30561 20.4495L2.3085 20.4472L2.31708 20.4408L2.34418 20.4203C2.36674 20.4036 2.39808 20.3806 2.43781 20.3523C2.51717 20.2957 2.63019 20.2176 2.77309 20.1253C3.05814 19.941 3.46564 19.6974 3.96476 19.454C4.95132 18.9727 6.35513 18.4627 7.90714 18.4627H9.64286V16.3929H8.58214C7.71467 16.3929 6.88722 16.6012 6.26169 16.8206C5.95254 16.9291 5.70163 17.0371 5.53095 17.1166C5.4458 17.1561 5.3812 17.1883 5.34002 17.2094C5.31939 17.2201 5.30463 17.2279 5.29615 17.2324L5.2893 17.2361C5.28949 17.236 5.28969 17.2359 4.82143 16.3929C4.35317 15.5499 4.35336 15.5498 4.35356 15.5497L4.3551 15.5489L4.3577 15.5474L4.36484 15.5435L4.38673 15.5317C4.40457 15.5221 4.42916 15.5092 4.45992 15.4934C4.52153 15.4619 4.60842 15.4187 4.71757 15.3679C4.9357 15.2665 5.24523 15.1334 5.62314 15.0008C6.37171 14.7382 7.42461 14.4643 8.58214 14.4643H9.64286V12.5357H11.5714V14.4643H12.3429C13.3564 14.4643 14.4791 14.7396 15.2984 14.9879C15.7187 15.1153 16.081 15.2424 16.3391 15.338C16.4683 15.3859 16.5721 15.4261 16.6446 15.4547C16.681 15.4691 16.7095 15.4806 16.7296 15.4888L16.7532 15.4984L16.7602 15.5013L16.7634 15.5027C16.7636 15.5028 16.7637 15.5028 16.3929 16.3929C16.022 17.283 16.0221 17.283 16.0222 17.2831L16.0191 17.2818L16.0033 17.2754C15.9886 17.2694 15.9658 17.2602 15.9354 17.2481C15.8747 17.2241 15.784 17.189 15.6693 17.1465C15.4391 17.0612 15.1143 16.9473 14.7391 16.8336C13.9673 16.5997 13.065 16.3929 12.3429 16.3929H11.5714V18.4627H12.9214C14.2802 18.4627 15.7784 18.9749 16.8636 19.432C17.4218 19.6671 17.9027 19.9017 18.2446 20.0777C18.4158 20.1659 18.5531 20.2399 18.6489 20.2926C18.6967 20.3189 18.7343 20.3399 18.7607 20.3548L18.7915 20.3723L18.8004 20.3773L18.8031 20.379L18.8041 20.3795C18.8042 20.3796 18.8047 20.3799 18.3214 21.2143C17.8381 22.0487 17.8382 22.0488 17.8383 22.0489L17.8335 22.0461L17.8118 22.0338C17.7917 22.0224 17.7608 22.005 17.7197 21.9826C17.6377 21.9374 17.5159 21.8718 17.3617 21.7924C17.0526 21.6332 16.6174 21.421 16.1149 21.2093C15.0787 20.7728 13.8769 20.3913 12.9214 20.3913H11.5714V23.2702C12.3673 23.472 13.1348 23.8905 13.7409 24.3533C14.1787 24.6877 14.579 25.0798 14.8787 25.4994C15.1656 25.901 15.4286 26.4241 15.4286 27H20.25C20.7826 27 21.2143 26.5683 21.2143 26.0357V11.5715C21.2143 11.0389 20.7826 10.6072 20.25 10.6072H0.964286ZM13.4999 27C13.4994 26.9946 13.4958 26.9633 13.4715 26.9026C13.4424 26.8304 13.3912 26.7349 13.3094 26.6203C13.1442 26.3891 12.8902 26.1302 12.5703 25.8861C11.918 25.3879 11.1736 25.0839 10.6397 25.0718C10.0185 25.1256 9.24538 25.4577 8.61069 25.9355C8.29507 26.1732 8.05034 26.42 7.89326 26.6389C7.81563 26.7472 7.7679 26.8369 7.74109 26.9044C7.71612 26.9673 7.71438 26.9978 7.71429 27H13.4999Z" fill="#52565A"/>
<path fill-rule="evenodd" clip-rule="evenodd" d="M14.9464 4.33929C14.9464 6.73583 13.0036 8.67857 10.6071 8.67857C8.21057 8.67857 6.26782 6.73583 6.26782 4.33929C6.26782 1.94275 8.21057 0 10.6071 0C13.0036 0 14.9464 1.94275 14.9464 4.33929Z" fill="#52565A"/>
</svg>
