<svg width="18" height="18" viewBox="0 0 18 18" fill="none" xmlns="http://www.w3.org/2000/svg">
<path fill-rule="evenodd" clip-rule="evenodd" d="M0 1.5C0 0.671575 0.671575 0 1.5 0H16.5C17.3284 0 18 0.671575 18 1.5V16.5C18 17.3284 17.3284 18 16.5 18H1.5C0.671575 18 0 17.3284 0 16.5V1.5ZM11.25 4.25C11.25 5.49265 10.2427 6.5 9 6.5C7.75735 6.5 6.75 5.49265 6.75 4.25C6.75 3.00735 7.75735 2 9 2C10.2427 2 11.25 3.00735 11.25 4.25ZM3.5 8C3.5 7.72385 3.72385 7.5 4 7.5H14C14.2761 7.5 14.5 7.72385 14.5 8V15.5C14.5 15.7761 14.2761 16 14 16H11.5C11.5 15.7014 11.3637 15.4302 11.2149 15.2219C11.0595 15.0043 10.8519 14.801 10.6249 14.6276C10.3106 14.3876 9.91265 14.1706 9.5 14.066V12.5732H10.2C10.6954 12.5732 11.3186 12.7711 11.8559 12.9974C12.1164 13.1072 12.3421 13.2172 12.5023 13.2997C12.5823 13.3409 12.6455 13.3749 12.688 13.3983C12.7093 13.41 12.7254 13.419 12.7358 13.4249L12.747 13.4313L12.7493 13.4326C12.7493 13.4326 12.7494 13.4326 13 13C13.2506 12.5674 13.2506 12.5673 13.2505 12.5673L13.2498 12.5668L13.2484 12.566L13.2437 12.5634L13.2278 12.5543C13.2141 12.5466 13.1946 12.5357 13.1698 12.522C13.1201 12.4948 13.049 12.4564 12.9601 12.4107C12.7829 12.3194 12.5335 12.1977 12.2441 12.0758C11.6814 11.8388 10.9045 11.5732 10.2 11.5732H9.5V10.5H9.9C10.2744 10.5 10.7423 10.6073 11.1425 10.7285C11.337 10.7875 11.5054 10.8465 11.6248 10.8907C11.6843 10.9128 11.7313 10.931 11.7628 10.9434C11.7746 10.9481 11.7842 10.952 11.7914 10.955C11.7939 10.9559 11.7961 10.9568 11.798 10.9576L11.8062 10.9609L11.8078 10.9616C11.8078 10.9616 11.8077 10.9615 12 10.5C12.1923 10.0385 12.1923 10.0384 12.1922 10.0384L12.1904 10.0377L12.1868 10.0362L12.1746 10.0312C12.1642 10.027 12.1494 10.021 12.1306 10.0135C12.093 9.9987 12.0391 9.97785 11.9721 9.953C11.8383 9.90345 11.6504 9.83755 11.4325 9.7715C11.0077 9.64275 10.4255 9.5 9.9 9.5H9.5V8.5H8.5V9.5H7.95C7.3498 9.5 6.80385 9.642 6.4157 9.7782C6.21975 9.84695 6.05925 9.91595 5.94615 9.9685C5.88955 9.99485 5.8445 10.0173 5.81255 10.0336C5.7966 10.0418 5.78385 10.0485 5.7746 10.0534L5.76325 10.0596L5.75955 10.0616L5.7582 10.0624L5.75765 10.0626C5.75755 10.0627 5.7572 10.0629 6 10.5C6.2428 10.9371 6.2427 10.9372 6.2426 10.9372L6.24615 10.9353C6.25055 10.933 6.2582 10.9289 6.2689 10.9234C6.29025 10.9124 6.32375 10.8958 6.3679 10.8752C6.4564 10.8341 6.5865 10.778 6.7468 10.7218C7.07115 10.608 7.5002 10.5 7.95 10.5H8.5V11.5732H7.6C6.79525 11.5732 6.06735 11.8377 5.5558 12.0872C5.297 12.2134 5.0857 12.3398 4.9379 12.4353C4.8638 12.4832 4.8052 12.5237 4.76405 12.5531C4.74345 12.5677 4.7272 12.5796 4.7155 12.5883L4.70145 12.5989L4.697 12.6023L4.6955 12.6034L4.69485 12.6039C4.69475 12.604 4.6944 12.6042 5 13C5.3056 13.3957 5.3055 13.3958 5.3054 13.3959L5.3121 13.3909C5.3187 13.386 5.3296 13.378 5.34455 13.3673C5.3745 13.346 5.42055 13.314 5.48085 13.275C5.6018 13.1969 5.778 13.0914 5.9942 12.986C6.43265 12.7722 7.00475 12.5732 7.6 12.5732H8.5V14.0822C8.08535 14.195 7.68465 14.4073 7.36335 14.6492C7.139 14.8181 6.93385 15.0157 6.78025 15.2299C6.6319 15.4367 6.5 15.7035 6.5 16H4C3.72385 16 3.5 15.7761 3.5 15.5V8ZM10.4852 15.9495C10.4978 15.9809 10.4997 15.9972 10.5 16H7.5C7.50005 15.9988 7.50095 15.983 7.5139 15.9504C7.5278 15.9154 7.55255 15.8689 7.5928 15.8127C7.67425 15.6993 7.80115 15.5712 7.9648 15.448C8.2939 15.2002 8.6948 15.0281 9.0169 15.0002C9.2937 15.0065 9.6797 15.1641 10.018 15.4224C10.1838 15.549 10.3155 15.6832 10.4011 15.8031C10.4436 15.8625 10.4701 15.912 10.4852 15.9495Z" fill="#364F6B"/>
</svg>
