<svg width="14" height="15" viewBox="0 0 14 15" fill="none" xmlns="http://www.w3.org/2000/svg">
    <path d="M6.09499 5.54934C5.96297 5.42183 5.78615 5.35127 5.60261 5.35287C5.41907 5.35446 5.2435 5.42808 5.11372 5.55787C4.98393 5.68765 4.91031 5.86322 4.90872 6.04676C4.90712 6.2303 4.97768 6.40712 5.10519 6.53914L6.50519 7.93914C6.63646 8.07037 6.81447 8.14409 7.00009 8.14409C7.1857 8.14409 7.36372 8.07037 7.49499 7.93914L8.89499 6.53914C9.0225 6.40712 9.09306 6.2303 9.09146 6.04676C9.08987 5.86322 9.01625 5.68765 8.88646 5.55787C8.75668 5.42808 8.58111 5.35446 8.39757 5.35287C8.21403 5.35127 8.03721 5.42183 7.90519 5.54934L7.70009 5.75444V2.54424C7.70009 2.35859 7.62634 2.18054 7.49506 2.04926C7.36379 1.91799 7.18574 1.84424 7.00009 1.84424C6.81444 1.84424 6.63639 1.91799 6.50512 2.04926C6.37384 2.18054 6.30009 2.35859 6.30009 2.54424V5.75444L6.09499 5.54934Z" fill="#364F6B"/>
    <path d="M2.1001 3.94443C2.1001 3.57313 2.2476 3.21703 2.51015 2.95448C2.7727 2.69193 3.12879 2.54443 3.5001 2.54443H4.2001C4.38575 2.54443 4.5638 2.61818 4.69507 2.74946C4.82635 2.88073 4.9001 3.05878 4.9001 3.24443C4.9001 3.43009 4.82635 3.60813 4.69507 3.73941C4.5638 3.87068 4.38575 3.94443 4.2001 3.94443H3.5001V8.84443H4.9001L5.6001 10.2444H8.4001L9.1001 8.84443H10.5001V3.94443H9.8001C9.61445 3.94443 9.4364 3.87068 9.30512 3.73941C9.17385 3.60813 9.1001 3.43009 9.1001 3.24443C9.1001 3.05878 9.17385 2.88073 9.30512 2.74946C9.4364 2.61818 9.61445 2.54443 9.8001 2.54443H10.5001C10.8714 2.54443 11.2275 2.69193 11.49 2.95448C11.7526 3.21703 11.9001 3.57313 11.9001 3.94443V10.9444C11.9001 11.3157 11.7526 11.6718 11.49 11.9344C11.2275 12.1969 10.8714 12.3444 10.5001 12.3444H3.5001C3.12879 12.3444 2.7727 12.1969 2.51015 11.9344C2.2476 11.6718 2.1001 11.3157 2.1001 10.9444V3.94443Z" fill="#364F6B"/>
</svg>