<svg width="65" height="24" viewBox="0 0 65 24" fill="none" xmlns="http://www.w3.org/2000/svg">
<path d="M0 12C0 5.37258 5.37258 0 12 0H52.9412C59.5686 0 64.9412 5.37258 64.9412 12V12C64.9412 18.6274 59.5686 24 52.9412 24H12C5.37258 24 0 18.6274 0 12V12Z" fill="#F7FAFC"/>
<path d="M20.471 11.9998C22.161 11.9998 23.5299 10.6309 23.5299 8.94095C23.5299 7.25095 22.161 5.88213 20.471 5.88213C18.781 5.88213 17.4122 7.25095 17.4122 8.94095C17.4122 10.6309 18.781 11.9998 20.471 11.9998ZM20.471 13.5292C18.4293 13.5292 14.3534 14.5539 14.3534 16.588V17.3527C14.3534 17.7733 14.6975 18.1174 15.1181 18.1174H25.824C26.2446 18.1174 26.5887 17.7733 26.5887 17.3527V16.588C26.5887 14.5539 22.5128 13.5292 20.471 13.5292Z" fill="#6FCF97"/>
<line x1="32.6823" y1="3.74117" x2="32.6823" y2="20.2588" stroke="#CBD5E0" stroke-width="0.423529" stroke-linecap="round"/>
<path d="M48.2941 10.853V8.17648C48.2941 7.75589 47.95 7.41177 47.5294 7.41177H38.3529C37.9324 7.41177 37.5882 7.75589 37.5882 8.17648V15.8235C37.5882 16.2441 37.9324 16.5882 38.3529 16.5882H47.5294C47.95 16.5882 48.2941 16.2441 48.2941 15.8235V13.1471L50.0453 14.8982C50.5271 15.38 51.3529 15.0359 51.3529 14.3553V9.63707C51.3529 8.95648 50.5271 8.61236 50.0453 9.09413L48.2941 10.853Z" fill="#EDF2F7"/>
</svg>
