<svg width="16" height="16" viewBox="0 0 16 16" fill="none" xmlns="http://www.w3.org/2000/svg">
<path fill-rule="evenodd" clip-rule="evenodd" d="M16 6.00008C16.0003 6.93725 15.781 7.86145 15.3598 8.69862C14.9386 9.5358 14.3271 10.2627 13.5744 10.821C12.8216 11.3792 11.9486 11.7535 11.0252 11.9136C10.1018 12.0737 9.15376 12.0153 8.257 11.7431L8 12.0001L7 13.0001L6 14.0001H4V16.0001H0V12.0001L4.257 7.74308C4.00745 6.91809 3.93857 6.04902 4.05504 5.19502C4.17152 4.34102 4.47062 3.52215 4.93199 2.79412C5.39336 2.0661 6.00616 1.44602 6.72869 0.976095C7.45122 0.506169 8.26652 0.197426 9.11908 0.0708807C9.97164 -0.0556644 10.8415 0.0029588 11.6693 0.24276C12.4972 0.482562 13.2637 0.897912 13.9166 1.46054C14.5696 2.02317 15.0936 2.71987 15.4531 3.50322C15.8127 4.28656 15.9992 5.13817 16 6.00008ZM10 2.00008C9.73478 2.00008 9.48043 2.10543 9.29289 2.29297C9.10536 2.48051 9 2.73486 9 3.00008C9 3.26529 9.10536 3.51965 9.29289 3.70718C9.48043 3.89472 9.73478 4.00008 10 4.00008C10.5304 4.00008 11.0391 4.21079 11.4142 4.58586C11.7893 4.96094 12 5.46964 12 6.00008C12 6.26529 12.1054 6.51965 12.2929 6.70718C12.4804 6.89472 12.7348 7.00008 13 7.00008C13.2652 7.00008 13.5196 6.89472 13.7071 6.70718C13.8946 6.51965 14 6.26529 14 6.00008C14 4.93921 13.5786 3.92179 12.8284 3.17165C12.0783 2.4215 11.0609 2.00008 10 2.00008Z" fill="#6B7280"/>
</svg>
