<svg width="18" height="18" viewBox="0 0 18 18" fill="none" xmlns="http://www.w3.org/2000/svg">
<path fill-rule="evenodd" clip-rule="evenodd" d="M1.5 0C0.671575 0 0 0.671575 0 1.5V16.5C0 17.3284 0.671575 18 1.5 18H16.5C17.3284 18 18 17.3284 18 16.5V1.5C18 0.671575 17.3284 0 16.5 0H1.5ZM7.4 5L11.1 5.0001V5.50005C11.1 5.64275 11.2113 5.86065 11.4246 6.10185C11.5197 6.20935 11.6163 6.30055 11.6896 6.3651C11.726 6.39705 11.7557 6.4217 11.7755 6.43775C11.7854 6.44575 11.7928 6.45155 11.7972 6.45495L11.8012 6.45805L12 6.60795V7.5H11V7.0901C10.9085 7.008 10.7926 6.89675 10.6755 6.76425C10.5165 6.58455 10.3117 6.31795 10.1942 6L8.27235 6.00005C8.2465 6.05495 8.21945 6.10535 8.19405 6.15C8.0917 6.33005 7.96165 6.50825 7.84125 6.6596C7.71925 6.8129 7.5985 6.94935 7.5089 7.0469L7.5 7.0566V12.75C7.5 13.7165 8.2835 14.5 9.25 14.5C9.9481 14.5 10.5507 14.0913 10.8316 13.5H11.8965C11.57 14.6543 10.5088 15.5 9.25 15.5C7.7312 15.5 6.5 14.2688 6.5 12.75V6.65085L6.64535 6.50475L6.6467 6.50335L6.6527 6.4972C6.6583 6.4915 6.6669 6.4827 6.67805 6.47105C6.70045 6.44775 6.733 6.4134 6.77235 6.37055C6.8515 6.28435 6.95575 6.16635 7.05875 6.0369C7.1633 5.9055 7.2583 5.77265 7.3247 5.65585C7.3762 5.5652 7.3925 5.5151 7.39765 5.4993C7.39885 5.4955 7.39945 5.4937 7.39975 5.49375C7.3998 5.49375 7.3997 5.4936 7.39975 5.49375C7.39975 5.49385 7.39995 5.4943 7.39995 5.4945L7.4 5.4966V5ZM13 11.0455C13 11.8488 12.3285 12.5 11.5 12.5C10.6715 12.5 10 11.8488 10 11.0455C10 9.77275 11.5 8.5 11.5 8.5C11.5 8.5 13 9.77275 13 11.0455ZM11.5 2H7V4H11.5V2Z" fill="#364F6B"/>
</svg>
