<svg width="13" height="27" viewBox="0 0 13 27" fill="none" xmlns="http://www.w3.org/2000/svg">
<path fill-rule="evenodd" clip-rule="evenodd" d="M1.8 6V6.9932C1.8 6.9895 1.7999 6.9875 1.7995 6.9875C1.7989 6.9874 1.7977 6.991 1.7953 6.9986C1.785 7.0302 1.7524 7.1304 1.6494 7.3117C1.5166 7.5453 1.3266 7.811 1.1175 8.0738C0.9115 8.3327 0.703001 8.5687 0.544701 8.7411C0.466001 8.8268 0.4009 8.8955 0.3561 8.9421C0.3338 8.9654 0.316601 8.983 0.305401 8.9944L0.2934 9.0067L0.291 9.0091L0 9.3017V21.5C0 24.5376 2.4624 27 5.5 27C8.0176 27 10.14 25.3085 10.793 23H8.6632C8.1015 24.1825 6.8962 25 5.5 25C3.567 25 2 23.433 2 21.5V10.1132L2.0178 10.0938C2.197 9.8987 2.4385 9.6258 2.6825 9.3192C2.9233 9.0165 3.1834 8.6601 3.3881 8.3C3.4389 8.2107 3.493 8.1099 3.5447 8.0001L7.3884 8C7.6234 8.6359 8.033 9.1691 8.3509 9.5285C8.5851 9.7935 8.8169 10.016 9 10.1802V11H11V9.2159L10.6038 8.9172L10.6027 8.9164L10.5944 8.9099C10.5856 8.9031 10.5708 8.8915 10.5511 8.8755C10.5114 8.8434 10.4519 8.7941 10.3792 8.7302C10.2325 8.6011 10.0393 8.4187 9.8491 8.2037C9.4226 7.7213 9.2 7.2855 9.2 7.0001V6.0002L1.8 6Z" fill="#52565A"/>
<path d="M13 18.0909C13 19.6976 11.6569 21 10 21C8.3431 21 7 19.6976 7 18.0909C7 15.5455 10 13 10 13C10 13 13 15.5455 13 18.0909Z" fill="#52565A"/>
<path d="M1 0H10V4H1V0Z" fill="#52565A"/>
</svg>
