<svg width="12" height="12" viewBox="0 0 12 12" fill="none" xmlns="http://www.w3.org/2000/svg">
<path fill-rule="evenodd" clip-rule="evenodd" d="M3.03011 2.43004C3.8178 1.64235 4.88614 1.19983 6.00011 1.19983C7.11407 1.19983 8.18241 1.64235 8.97011 2.43004C9.7578 3.21774 10.2003 4.28608 10.2003 5.40004C10.2003 6.51401 9.7578 7.58235 8.97011 8.37004L6.00011 11.34L3.03011 8.37004C2.64006 7.98003 2.33065 7.51701 2.11955 7.00741C1.90846 6.49782 1.7998 5.95163 1.7998 5.40004C1.7998 4.84846 1.90846 4.30227 2.11955 3.79267C2.33065 3.28308 2.64006 2.82006 3.03011 2.43004ZM6.00011 6.60004C6.31837 6.60004 6.62359 6.47361 6.84864 6.24857C7.07368 6.02353 7.20011 5.7183 7.20011 5.40004C7.20011 5.08178 7.07368 4.77656 6.84864 4.55152C6.62359 4.32647 6.31837 4.20004 6.00011 4.20004C5.68185 4.20004 5.37662 4.32647 5.15158 4.55152C4.92654 4.77656 4.80011 5.08178 4.80011 5.40004C4.80011 5.7183 4.92654 6.02353 5.15158 6.24857C5.37662 6.47361 5.68185 6.60004 6.00011 6.60004Z" fill="#707882"/>
</svg>
