<svg width="10" height="11" viewBox="0 0 10 11" fill="none" xmlns="http://www.w3.org/2000/svg">
<path fill-rule="evenodd" clip-rule="evenodd" d="M2.03011 1.43041C2.8178 0.642717 3.88614 0.200195 5.00011 0.200195C6.11407 0.200195 7.18241 0.642717 7.97011 1.43041C8.7578 2.2181 9.20032 3.28644 9.20032 4.40041C9.20032 5.51438 8.7578 6.58272 7.97011 7.37041L5.00011 10.3404L2.03011 7.37041C1.64006 6.9804 1.33065 6.51737 1.11955 6.00778C0.908455 5.49818 0.799805 4.952 0.799805 4.40041C0.799805 3.84882 0.908455 3.30264 1.11955 2.79304C1.33065 2.28344 1.64006 1.82042 2.03011 1.43041ZM5.00011 5.60041C5.31837 5.60041 5.62359 5.47398 5.84864 5.24894C6.07368 5.02389 6.20011 4.71867 6.20011 4.40041C6.20011 4.08215 6.07368 3.77693 5.84864 3.55188C5.62359 3.32684 5.31837 3.20041 5.00011 3.20041C4.68185 3.20041 4.37662 3.32684 4.15158 3.55188C3.92654 3.77693 3.80011 4.08215 3.80011 4.40041C3.80011 4.71867 3.92654 5.02389 4.15158 5.24894C4.37662 5.47398 4.68185 5.60041 5.00011 5.60041Z" fill="#B1C3D7"/>
</svg>
