<svg width="21" height="21" viewBox="0 0 21 21" fill="none" xmlns="http://www.w3.org/2000/svg">
    <path d="M3.63375 4.37536V4.375C3.63375 3.68537 4.1919 3.125 4.875 3.125H17.125C17.8114 3.125 18.375 3.68864 18.375 4.375V16.625C18.375 17.3114 17.8114 17.875 17.125 17.875H4.875C4.1887 17.875 3.62509 17.3115 3.625 16.6252C3.625 16.6251 3.625 16.6251 3.625 16.625L3.63375 4.37536ZM17.125 17.125H17.625V16.625V4.375V3.875H17.125H4.875H4.375V4.375V16.625V17.125H4.875H17.125ZM12.3125 11.3125H11.8125V11.8125V14.375H10.1875V11.8125V11.3125H9.6875H7.125V9.6875H9.6875H10.1875V9.1875V6.625H11.8125V9.1875V9.6875H12.3125H14.875V11.3125H12.3125Z" fill="black" fill-opacity="0.54" stroke="#424649"/>
</svg>