<svg width="21" height="21" viewBox="0 0 21 21" fill="none" xmlns="http://www.w3.org/2000/svg">
    <path d="M14.1397 4.52501L15.2671 1.43633L16.5023 1.88838L15.6538 4.2257L15.4407 4.8125H16.065H17.9375V6.05401L16.21 11.2367L16.1638 11.375L16.21 11.5134L17.9375 16.696V17.9375H3.0625V16.696L4.79005 11.5134L4.83617 11.375L4.79005 11.2367L3.0625 6.054V4.8125H13.7288H14.0348L14.1397 4.52501ZM16.5288 17.0625H17.1357L16.9438 16.4867L15.3776 11.7879L15.2399 11.375L15.3776 10.9621L16.9438 6.26335L17.1357 5.6875H16.5288H4.47125H3.86425L4.0562 6.26335L5.62245 10.9621L5.76008 11.375L5.62245 11.7879L4.0562 16.4867L3.86425 17.0625H4.47125H16.5288ZM9.625 10.9375H10.0625V10.5V8.3125H10.9375V10.5V10.9375H11.375H13.5625V11.8125H11.375H10.9375V12.25V14.4375H10.0625V12.25V11.8125H9.625H7.4375V10.9375H9.625Z" fill="black" fill-opacity="0.54" stroke="#424649" stroke-width="0.875"/>
</svg>
