<svg width="140" height="123" viewBox="0 0 140 123" fill="none" xmlns="http://www.w3.org/2000/svg">
    <defs>
        <linearGradient id="paint0_linear_1116_13187" x1="275.001" y1="-112" x2="-63.9988" y2="202.5" gradientUnits="userSpaceOnUse">
            <stop stop-color="white" stop-opacity="0.39"/>
            <stop offset="0.502601" stop-color="white" stop-opacity="0"/>
        </linearGradient>
    </defs>
<path d="M0.501221 48C0.501221 25.3726 0.501221 14.0589 7.53066 7.02944C14.5601 0 25.8738 0 48.5012 0H91.4987C114.126 0 125.44 0 132.469 7.02944C139.499 14.0589 139.499 25.3726 139.499 48V74.437C139.499 97.0644 139.499 108.378 132.469 115.408C125.44 122.437 114.126 122.437 91.4987 122.437H48.5012C25.8738 122.437 14.5601 122.437 7.53066 115.408C0.501221 108.378 0.501221 97.0644 0.501221 74.437V48Z" fill="#F5F5F5" fill-opacity="0.7"/>
<path d="M0.501221 48C0.501221 25.3726 0.501221 14.0589 7.53066 7.02944C14.5601 0 25.8738 0 48.5012 0H91.4987C114.126 0 125.44 0 132.469 7.02944C139.499 14.0589 139.499 25.3726 139.499 48V74.437C139.499 97.0644 139.499 108.378 132.469 115.408C125.44 122.437 114.126 122.437 91.4987 122.437H48.5012C25.8738 122.437 14.5601 122.437 7.53066 115.408C0.501221 108.378 0.501221 97.0644 0.501221 74.437V48Z" fill="url(#paint0_linear_1116_13187)" fill-opacity="0.2"/>
<path d="M65.1202 51.4065C67.8075 36.2491 75.893 29.8137 75.893 29.8137C65.2852 36.8149 62.9987 51.9959 62.9987 51.9959C57.2704 34.9762 70.8013 28.0929 76.0109 20.031C74.0779 19.6067 72.0507 19.3945 69.9998 19.3945C54.3474 19.3945 41.6416 32.1003 41.6416 47.7527C41.6416 63.2401 54.0645 75.8281 69.4812 76.111C57.789 66.8939 65.1202 51.4065 65.1202 51.4065ZM61.0657 59.7985C61.0657 59.7985 58.897 50.1572 51.7544 46.1734C51.7544 46.1734 57.2469 49.9214 59.6749 59.5156C56.7518 58.7849 50.01 56.404 48.0063 49.3321C46.8041 45.1126 47.6291 40.7752 49.8921 37.4042C51.7072 43.8161 64.3895 46.8098 61.0657 59.7985Z" fill="#28B3BB"/>
<path d="M84.5681 23.4255C83.0359 18.8995 77.7791 16 77.7791 16C81.6686 20.9975 83.4366 27.5979 82.0694 34.2926C80.7729 40.563 77.0248 44.7354 73.1824 47.4227C68.6093 50.6522 65.5919 55.6732 65.144 61.26C64.5311 69.0862 68.3264 74.4373 69.7408 76.1109C69.835 76.1109 69.9058 76.1109 70.0001 76.1109C85.6525 76.1109 98.3583 63.4051 98.3583 47.7527C98.3583 37.4278 92.8186 28.3758 84.5681 23.4255ZM85.841 56.2861C82.8709 66.2339 73.3238 69.4634 69.1514 70.4299C72.7817 56.9462 80.6079 51.7601 80.6079 51.7601C70.4479 57.229 67.1713 70.807 67.1713 70.807C62.716 52.3966 80.7022 48.4363 83.413 39.4079C86.5718 44.2404 87.6326 50.3457 85.841 56.2861Z" fill="#EB8B76"/>
<path d="M16.5012 106.225V89.3231H23.2666C24.516 89.3231 25.5532 89.5117 26.3783 89.8653C27.2033 90.2425 27.8398 90.7375 28.2405 91.3975C28.6648 92.0576 28.877 92.7884 28.877 93.637C28.877 94.297 28.7356 94.8863 28.4763 95.3813C28.217 95.8764 27.8398 96.2771 27.3919 96.6072C26.944 96.9136 26.4018 97.1493 25.8125 97.2908V97.4558C26.449 97.4793 27.0619 97.6679 27.6276 97.998C28.1934 98.328 28.6413 98.7994 28.9949 99.4123C29.3485 100.025 29.5135 100.732 29.5135 101.557C29.5135 102.453 29.3013 103.255 28.8534 103.962C28.4055 104.669 27.7691 105.211 26.8969 105.636C26.0247 106.036 24.9639 106.248 23.7145 106.248H16.5012V106.225ZM20.0843 96.395H22.7245C23.2195 96.395 23.6438 96.3007 24.021 96.1357C24.3981 95.9707 24.7046 95.7114 24.9167 95.4049C25.1289 95.0749 25.2468 94.6978 25.2468 94.2499C25.2468 93.637 25.0346 93.1419 24.6103 92.7648C24.186 92.3876 23.5731 92.199 22.7716 92.199H20.0607V96.395H20.0843ZM20.0843 103.302H23.0073C23.9974 103.302 24.7282 103.113 25.1761 102.736C25.6239 102.359 25.8597 101.84 25.8597 101.204C25.8597 100.732 25.7418 100.332 25.5296 99.9781C25.2939 99.6245 24.9875 99.3416 24.5632 99.1294C24.1388 98.9173 23.6438 98.823 23.0781 98.823H20.0843V103.302Z" fill="#28B3BB"/>
<path d="M54.3593 97.7858C54.3593 99.6245 54.0057 101.204 53.3221 102.477C52.6149 103.773 51.672 104.763 50.4933 105.423C49.2911 106.107 47.9475 106.437 46.4624 106.437C44.9537 106.437 43.61 106.107 42.4314 105.423C41.2292 104.74 40.2863 103.75 39.6026 102.453C38.919 101.157 38.5654 99.6009 38.5654 97.7622C38.5654 95.9236 38.919 94.3442 39.6026 93.0712C40.2863 91.7747 41.2292 90.7847 42.4314 90.1246C43.6336 89.441 44.9773 89.111 46.4624 89.111C47.9475 89.111 49.2911 89.441 50.4933 90.1246C51.6955 90.8082 52.6385 91.7983 53.3221 93.0712C54.0057 94.3677 54.3593 95.9471 54.3593 97.7858ZM50.7291 97.7858C50.7291 96.5836 50.5405 95.5935 50.1869 94.7685C49.8333 93.9434 49.3383 93.3305 48.6782 92.9062C48.0417 92.4819 47.2874 92.2697 46.4152 92.2697C45.543 92.2697 44.7887 92.4819 44.1522 92.9062C43.5157 93.3305 43.0207 93.9434 42.6435 94.7685C42.29 95.5935 42.1014 96.5836 42.1014 97.7858C42.1014 98.988 42.29 99.9781 42.6435 100.803C42.9971 101.628 43.4922 102.241 44.1522 102.665C44.7887 103.09 45.543 103.302 46.4152 103.302C47.2874 103.302 48.0417 103.09 48.6782 102.665C49.3147 102.241 49.8097 101.628 50.1869 100.803C50.564 99.9781 50.7291 98.9645 50.7291 97.7858Z" fill="#28B3BB"/>
<path d="M63.9536 106.225V89.3231H67.5367V103.278H74.7736V106.225H63.9536Z" fill="#28B3BB"/>
<path d="M90.0957 106.225H84.1082V89.3231H90.1428C91.8401 89.3231 93.3016 89.6532 94.5274 90.3368C95.7532 91.0204 96.6961 91.9869 97.3561 93.2362C98.0162 94.4856 98.3462 95.9943 98.3462 97.7622C98.3462 99.5302 98.0162 101.039 97.3561 102.288C96.6961 103.561 95.7532 104.528 94.5038 105.211C93.3016 105.895 91.8165 106.225 90.0957 106.225ZM87.6912 103.16H89.9542C91.015 103.16 91.9108 102.972 92.618 102.595C93.3487 102.218 93.8909 101.628 94.2445 100.827C94.6217 100.025 94.7867 99.0116 94.7867 97.7386C94.7867 96.4893 94.5981 95.4756 94.2445 94.6742C93.8673 93.8727 93.3252 93.307 92.618 92.9298C91.8872 92.5526 91.015 92.364 89.9542 92.364H87.6677V103.16H87.6912Z" fill="#28B3BB"/>
<path d="M123.499 97.7858C123.499 99.6245 123.145 101.204 122.461 102.477C121.754 103.773 120.811 104.763 119.633 105.423C118.431 106.107 117.087 106.437 115.602 106.437C114.093 106.437 112.749 106.107 111.571 105.423C110.369 104.74 109.426 103.75 108.742 102.453C108.058 101.157 107.705 99.6009 107.705 97.7622C107.705 95.9236 108.058 94.3442 108.742 93.0712C109.426 91.7747 110.369 90.7847 111.571 90.1246C112.773 89.441 114.117 89.111 115.602 89.111C117.087 89.111 118.431 89.441 119.633 90.1246C120.835 90.8082 121.778 91.7983 122.461 93.0712C123.145 94.3677 123.499 95.9471 123.499 97.7858ZM119.868 97.7858C119.868 96.5836 119.68 95.5935 119.326 94.7685C118.973 93.9434 118.478 93.3305 117.818 92.9062C117.181 92.4819 116.427 92.2697 115.555 92.2697C114.682 92.2697 113.928 92.4819 113.292 92.9062C112.655 93.3305 112.16 93.9434 111.783 94.7685C111.429 95.5935 111.241 96.5836 111.241 97.7858C111.241 98.988 111.429 99.9781 111.783 100.803C112.137 101.628 112.632 102.241 113.292 102.665C113.928 103.09 114.682 103.302 115.555 103.302C116.427 103.302 117.181 103.09 117.818 102.665C118.454 102.241 118.949 101.628 119.326 100.803C119.703 99.9781 119.868 98.9645 119.868 97.7858Z" fill="#28B3BB"/>
</svg>
