<svg width="20" height="21" viewBox="0 0 20 21" fill="none" xmlns="http://www.w3.org/2000/svg">
<path fill-rule="evenodd" clip-rule="evenodd" d="M3 5.5C3 5.23478 3.10536 4.98043 3.29289 4.79289C3.48043 4.60536 3.73478 4.5 4 4.5H16C16.2652 4.5 16.5196 4.60536 16.7071 4.79289C16.8946 4.98043 17 5.23478 17 5.5C17 5.76522 16.8946 6.01957 16.7071 6.20711C16.5196 6.39464 16.2652 6.5 16 6.5H4C3.73478 6.5 3.48043 6.39464 3.29289 6.20711C3.10536 6.01957 3 5.76522 3 5.5ZM3 10.5C3 10.2348 3.10536 9.98043 3.29289 9.79289C3.48043 9.60536 3.73478 9.5 4 9.5H10C10.2652 9.5 10.5196 9.60536 10.7071 9.79289C10.8946 9.98043 11 10.2348 11 10.5C11 10.7652 10.8946 11.0196 10.7071 11.2071C10.5196 11.3946 10.2652 11.5 10 11.5H4C3.73478 11.5 3.48043 11.3946 3.29289 11.2071C3.10536 11.0196 3 10.7652 3 10.5ZM3 15.5C3 15.2348 3.10536 14.9804 3.29289 14.7929C3.48043 14.6054 3.73478 14.5 4 14.5H16C16.2652 14.5 16.5196 14.6054 16.7071 14.7929C16.8946 14.9804 17 15.2348 17 15.5C17 15.7652 16.8946 16.0196 16.7071 16.2071C16.5196 16.3946 16.2652 16.5 16 16.5H4C3.73478 16.5 3.48043 16.3946 3.29289 16.2071C3.10536 16.0196 3 15.7652 3 15.5Z" fill="#F5F5F5" fill-opacity="0.8"/>
</svg>
