<svg width="14" height="20" viewBox="0 0 14 20" fill="none" xmlns="http://www.w3.org/2000/svg">
<path fill-rule="evenodd" clip-rule="evenodd" d="M9.99904 9.5C9.99904 11.16 8.65904 12.5 6.99904 12.5C5.33904 12.5 3.99904 11.16 3.99904 9.5V3.5C3.99904 1.84 5.33904 0.5 6.99904 0.5C8.65904 0.5 9.99904 1.84 9.99904 3.5V9.5ZM11.929 10.35C12.009 9.86 12.419 9.5 12.909 9.5C13.519 9.5 14.009 10.04 13.909 10.64C13.419 13.64 11.019 15.99 7.99901 16.42V18.5C7.99901 19.05 7.54901 19.5 6.99901 19.5C6.44901 19.5 5.99901 19.05 5.99901 18.5V16.42C2.97901 15.99 0.57901 13.64 0.0890099 10.64C-0.000990063 10.04 0.47901 9.5 1.08901 9.5C1.57901 9.5 1.98901 9.86 2.06901 10.35C2.47901 12.7 4.52901 14.5 6.99901 14.5C9.46901 14.5 11.519 12.7 11.929 10.35Z" fill="white"/>
</svg>
