<svg width="20" height="27" viewBox="0 0 20 27" fill="none" xmlns="http://www.w3.org/2000/svg">
<path fill-rule="evenodd" clip-rule="evenodd" d="M6.75 0C5.68485 0 4.82143 0.863421 4.82143 1.92857H1.92857C0.863421 1.92857 0 2.79199 0 3.85714V25.0714C0 26.1366 0.863421 27 1.92857 27H17.3571C18.4223 27 19.2857 26.1366 19.2857 25.0714V3.85714C19.2857 2.79199 18.4223 1.92857 17.3571 1.92857H14.4643C14.4643 0.863421 13.6009 0 12.5357 0H6.75ZM6.75 1.92857H12.5357V3.85714H6.75V1.92857ZM10.1802 17.3571L7.77581 23.7687C7.58883 24.2673 7.84148 24.8231 8.34011 25.0101C8.83874 25.1972 9.39455 24.9445 9.58163 24.4458L10.795 21.2099H13.3124L14.5258 24.4458C14.7128 24.9445 15.2686 25.1972 15.7672 25.0101C16.266 24.8231 16.5186 24.2673 16.3316 23.7687L13.9273 17.3571H16.6834C17.216 17.3571 17.6477 16.9254 17.6477 16.3929C17.6477 15.8603 17.216 15.4286 16.6834 15.4286H12.5541C12.5419 15.4284 12.5295 15.4284 12.5173 15.4286H11.59C11.5778 15.4284 11.5655 15.4284 11.5533 15.4286H6.75019C6.21771 15.4286 5.78591 15.8603 5.78591 16.3929C5.78591 16.9254 6.21771 17.3571 6.75019 17.3571H10.1802ZM16.3929 8.91H2.89286V6.98143H16.3929V8.91ZM2.89286 12.9214H7.71429V10.9929H2.89286V12.9214ZM13.9821 12.5357C13.9821 13.6009 13.1187 14.4643 12.0536 14.4643C10.9884 14.4643 10.125 13.6009 10.125 12.5357C10.125 11.4706 10.9884 10.6071 12.0536 10.6071C13.1187 10.6071 13.9821 11.4706 13.9821 12.5357Z" fill="#52565A"/>
</svg>
