<svg width="24" height="25" viewBox="0 0 24 25" fill="none" xmlns="http://www.w3.org/2000/svg">
<path d="M15.172 7.4445L8.58602 14.0305C8.395 14.215 8.24264 14.4357 8.13782 14.6797C8.033 14.9237 7.97783 15.1861 7.97552 15.4517C7.97321 15.7173 8.02381 15.9806 8.12438 16.2264C8.22494 16.4722 8.37344 16.6955 8.56123 16.8833C8.74902 17.0711 8.97232 17.2196 9.21811 17.3201C9.4639 17.4207 9.72726 17.4713 9.99282 17.469C10.2584 17.4667 10.5208 17.4115 10.7648 17.3067C11.0088 17.2019 11.2295 17.0495 11.414 16.8585L17.828 10.2725C18.5567 9.51809 18.9598 8.50768 18.9507 7.45889C18.9416 6.41011 18.5209 5.40686 17.7793 4.66523C17.0377 3.92359 16.0344 3.50292 14.9856 3.4938C13.9368 3.48469 12.9264 3.88787 12.172 4.6165L5.75702 11.2015C4.63171 12.3268 3.99951 13.8531 3.99951 15.4445C3.99951 17.0359 4.63171 18.5622 5.75702 19.6875C6.88233 20.8128 8.40859 21.445 10 21.445C11.5915 21.445 13.1177 20.8128 14.243 19.6875L20.5 13.4445" stroke="black" stroke-width="2" stroke-linecap="round" stroke-linejoin="round"/>
</svg>
