<svg width="179" height="29" viewBox="0 0 179 29" fill="none" xmlns="http://www.w3.org/2000/svg">
<path d="M16.5 14C17.88 14 18.99 12.88 18.99 11.5C18.99 10.12 17.88 9 16.5 9C15.12 9 14 10.12 14 11.5C14 12.88 15.12 14 16.5 14ZM9 13C10.66 13 11.99 11.66 11.99 10C11.99 8.34 10.66 7 9 7C7.34 7 6 8.34 6 10C6 11.66 7.34 13 9 13ZM16.5 16C14.67 16 11 16.92 11 18.75V20C11 20.55 11.45 21 12 21H21C21.55 21 22 20.55 22 20V18.75C22 16.92 18.33 16 16.5 16ZM9 15C6.67 15 2 16.17 2 18.5V20C2 20.55 2.45 21 3 21H9V18.75C9 17.9 9.33 16.41 11.37 15.28C10.5 15.1 9.66 15 9 15Z" fill="#DF6D51"/>
<path d="M34.6719 5.4929C34.6188 5.02225 34.4001 4.65767 34.0156 4.39915C33.6312 4.13731 33.1473 4.00639 32.5639 4.00639C32.1463 4.00639 31.785 4.07268 31.4801 4.20526C31.1752 4.33452 30.9382 4.51349 30.7692 4.74219C30.6035 4.96757 30.5206 5.22443 30.5206 5.51278C30.5206 5.75473 30.5769 5.96354 30.6896 6.1392C30.8056 6.31487 30.9564 6.46236 31.142 6.58168C31.331 6.69768 31.5331 6.79545 31.7486 6.875C31.964 6.95123 32.1712 7.0142 32.37 7.06392L33.3643 7.32244C33.6892 7.40199 34.0223 7.50971 34.3636 7.6456C34.705 7.78149 35.0215 7.96046 35.3132 8.18253C35.6049 8.40459 35.8402 8.67969 36.0192 9.00781C36.2015 9.33594 36.2926 9.72869 36.2926 10.1861C36.2926 10.7628 36.1435 11.2749 35.8452 11.7223C35.5502 12.1697 35.121 12.5227 34.5575 12.7812C33.9974 13.0398 33.3196 13.169 32.5241 13.169C31.7618 13.169 31.1023 13.0481 30.5455 12.8061C29.9886 12.5642 29.5528 12.2211 29.2379 11.777C28.9231 11.3295 28.7491 10.7992 28.7159 10.1861H30.2571C30.2869 10.554 30.4063 10.8606 30.6151 11.1058C30.8272 11.3478 31.0973 11.5284 31.4254 11.6477C31.7569 11.7637 32.1198 11.8217 32.5142 11.8217C32.9484 11.8217 33.3345 11.7538 33.6726 11.6179C34.014 11.4787 34.2824 11.2865 34.478 11.0412C34.6735 10.7926 34.7713 10.5026 34.7713 10.1712C34.7713 9.86955 34.6851 9.62263 34.5128 9.4304C34.3438 9.23816 34.1134 9.07907 33.8217 8.95312C33.5334 8.82718 33.2069 8.71615 32.8423 8.62003L31.6392 8.2919C30.8239 8.06984 30.1776 7.74337 29.7003 7.3125C29.2263 6.88163 28.9893 6.31155 28.9893 5.60227C28.9893 5.01562 29.1484 4.50355 29.4666 4.06605C29.7848 3.62855 30.2157 3.28883 30.7592 3.04688C31.3028 2.80161 31.916 2.67898 32.5987 2.67898C33.2881 2.67898 33.8963 2.79995 34.4233 3.0419C34.9536 3.28385 35.3712 3.61695 35.6761 4.04119C35.9811 4.46212 36.1402 4.94602 36.1534 5.4929H34.6719ZM42.8464 9.8331V5.36364H44.3379V13H42.8762V11.6776H42.7967C42.621 12.0852 42.3393 12.425 41.9515 12.6967C41.5671 12.9652 41.0881 13.0994 40.5147 13.0994C40.0242 13.0994 39.59 12.9917 39.2122 12.7763C38.8377 12.5575 38.5427 12.2344 38.3272 11.8068C38.1151 11.3793 38.0091 10.8506 38.0091 10.2209V5.36364H39.4956V10.0419C39.4956 10.5623 39.6397 10.9766 39.9281 11.2848C40.2164 11.593 40.591 11.7472 41.0517 11.7472C41.3301 11.7472 41.6068 11.6776 41.8819 11.5384C42.1603 11.3991 42.3907 11.1887 42.573 10.907C42.7586 10.6252 42.8497 10.2673 42.8464 9.8331ZM46.4545 13V2.81818H47.9411V6.60156H48.0305C48.1167 6.44247 48.241 6.25852 48.4034 6.04972C48.5658 5.84091 48.7912 5.65862 49.0795 5.50284C49.3679 5.34375 49.7491 5.2642 50.223 5.2642C50.8395 5.2642 51.3897 5.41998 51.8736 5.73153C52.3575 6.04309 52.737 6.49219 53.0121 7.07884C53.2905 7.66548 53.4297 8.37145 53.4297 9.19673C53.4297 10.022 53.2921 10.7296 53.017 11.3196C52.742 11.9062 52.3641 12.3587 51.8835 12.6768C51.4029 12.9917 50.8544 13.1491 50.2379 13.1491C49.7739 13.1491 49.3944 13.0713 49.0994 12.9155C48.8078 12.7597 48.5791 12.5774 48.4134 12.3686C48.2476 12.1598 48.12 11.9742 48.0305 11.8118H47.9062V13H46.4545ZM47.9112 9.18182C47.9112 9.71875 47.9891 10.1894 48.1449 10.5938C48.3007 10.9981 48.526 11.3146 48.821 11.5433C49.116 11.7687 49.4773 11.8814 49.9048 11.8814C50.349 11.8814 50.7202 11.7637 51.0185 11.5284C51.3168 11.2898 51.5421 10.9666 51.6946 10.5589C51.8504 10.1513 51.9283 9.69223 51.9283 9.18182C51.9283 8.67803 51.852 8.22562 51.6996 7.82457C51.5504 7.42353 51.325 7.10701 51.0234 6.875C50.7251 6.64299 50.3523 6.52699 49.9048 6.52699C49.474 6.52699 49.1094 6.63802 48.8111 6.86009C48.5161 7.08215 48.2924 7.39205 48.1399 7.78977C47.9875 8.1875 47.9112 8.65151 47.9112 9.18182ZM55.0989 13V5.36364H56.5854V13H55.0989ZM55.8496 4.18537C55.5911 4.18537 55.369 4.09919 55.1834 3.92685C55.0011 3.75118 54.91 3.54238 54.91 3.30043C54.91 3.05516 55.0011 2.84635 55.1834 2.67401C55.369 2.49834 55.5911 2.41051 55.8496 2.41051C56.1081 2.41051 56.3285 2.49834 56.5108 2.67401C56.6964 2.84635 56.7892 3.05516 56.7892 3.30043C56.7892 3.54238 56.6964 3.75118 56.5108 3.92685C56.3285 4.09919 56.1081 4.18537 55.8496 4.18537ZM61.4439 13.1491C60.8274 13.1491 60.2772 12.9917 59.7933 12.6768C59.3127 12.3587 58.9349 11.9062 58.6598 11.3196C58.388 10.7296 58.2521 10.022 58.2521 9.19673C58.2521 8.37145 58.3897 7.66548 58.6648 7.07884C58.9432 6.49219 59.3243 6.04309 59.8082 5.73153C60.2921 5.41998 60.8407 5.2642 61.4538 5.2642C61.9278 5.2642 62.3089 5.34375 62.5973 5.50284C62.889 5.65862 63.1143 5.84091 63.2734 6.04972C63.4358 6.25852 63.5618 6.44247 63.6513 6.60156H63.7408V2.81818H65.2273V13H63.7756V11.8118H63.6513C63.5618 11.9742 63.4325 12.1598 63.2635 12.3686C63.0978 12.5774 62.8691 12.7597 62.5774 12.9155C62.2857 13.0713 61.9079 13.1491 61.4439 13.1491ZM61.772 11.8814C62.1996 11.8814 62.5608 11.7687 62.8558 11.5433C63.1541 11.3146 63.3795 10.9981 63.532 10.5938C63.6877 10.1894 63.7656 9.71875 63.7656 9.18182C63.7656 8.65151 63.6894 8.1875 63.5369 7.78977C63.3845 7.39205 63.1607 7.08215 62.8658 6.86009C62.5708 6.63802 62.2062 6.52699 61.772 6.52699C61.3246 6.52699 60.9517 6.64299 60.6534 6.875C60.3551 7.10701 60.1297 7.42353 59.9773 7.82457C59.8281 8.22562 59.7536 8.67803 59.7536 9.18182C59.7536 9.69223 59.8298 10.1513 59.9822 10.5589C60.1347 10.9666 60.3601 11.2898 60.6584 11.5284C60.96 11.7637 61.3312 11.8814 61.772 11.8814ZM70.5655 13.1541C69.8496 13.1541 69.2248 12.9901 68.6912 12.6619C68.1576 12.3338 67.7433 11.8748 67.4483 11.2848C67.1533 10.6948 67.0059 10.0054 67.0059 9.21662C67.0059 8.42448 67.1533 7.73177 67.4483 7.13849C67.7433 6.54522 68.1576 6.08452 68.6912 5.75639C69.2248 5.42827 69.8496 5.2642 70.5655 5.2642C71.2814 5.2642 71.9062 5.42827 72.4398 5.75639C72.9734 6.08452 73.3877 6.54522 73.6827 7.13849C73.9777 7.73177 74.1252 8.42448 74.1252 9.21662C74.1252 10.0054 73.9777 10.6948 73.6827 11.2848C73.3877 11.8748 72.9734 12.3338 72.4398 12.6619C71.9062 12.9901 71.2814 13.1541 70.5655 13.1541ZM70.5705 11.9062C71.0345 11.9062 71.419 11.7836 71.7239 11.5384C72.0288 11.2931 72.2542 10.9666 72.4 10.5589C72.5492 10.1513 72.6238 9.70218 72.6238 9.21165C72.6238 8.72443 72.5492 8.27699 72.4 7.86932C72.2542 7.45833 72.0288 7.12855 71.7239 6.87997C71.419 6.63139 71.0345 6.5071 70.5705 6.5071C70.1032 6.5071 69.7154 6.63139 69.4071 6.87997C69.1022 7.12855 68.8752 7.45833 68.726 7.86932C68.5802 8.27699 68.5073 8.72443 68.5073 9.21165C68.5073 9.70218 68.5802 10.1513 68.726 10.5589C68.8752 10.9666 69.1022 11.2931 69.4071 11.5384C69.7154 11.7836 70.1032 11.9062 70.5705 11.9062ZM79.4895 15.8636V5.36364H80.9412V6.60156H81.0655C81.1517 6.44247 81.276 6.25852 81.4384 6.04972C81.6008 5.84091 81.8262 5.65862 82.1145 5.50284C82.4029 5.34375 82.784 5.2642 83.258 5.2642C83.8745 5.2642 84.4247 5.41998 84.9086 5.73153C85.3925 6.04309 85.772 6.49219 86.0471 7.07884C86.3255 7.66548 86.4647 8.37145 86.4647 9.19673C86.4647 10.022 86.3271 10.7296 86.052 11.3196C85.7769 11.9062 85.3991 12.3587 84.9185 12.6768C84.4379 12.9917 83.8894 13.1491 83.2729 13.1491C82.8089 13.1491 82.4294 13.0713 82.1344 12.9155C81.8427 12.7597 81.6141 12.5774 81.4483 12.3686C81.2826 12.1598 81.155 11.9742 81.0655 11.8118H80.976V15.8636H79.4895ZM80.9462 9.18182C80.9462 9.71875 81.0241 10.1894 81.1799 10.5938C81.3356 10.9981 81.561 11.3146 81.856 11.5433C82.151 11.7687 82.5123 11.8814 82.9398 11.8814C83.3839 11.8814 83.7551 11.7637 84.0534 11.5284C84.3517 11.2898 84.5771 10.9666 84.7296 10.5589C84.8854 10.1513 84.9632 9.69223 84.9632 9.18182C84.9632 8.67803 84.887 8.22562 84.7346 7.82457C84.5854 7.42353 84.36 7.10701 84.0584 6.875C83.7601 6.64299 83.3873 6.52699 82.9398 6.52699C82.5089 6.52699 82.1444 6.63802 81.8461 6.86009C81.5511 7.08215 81.3274 7.39205 81.1749 7.78977C81.0224 8.1875 80.9462 8.65151 80.9462 9.18182ZM91.3468 13.1541C90.6309 13.1541 90.0061 12.9901 89.4725 12.6619C88.9389 12.3338 88.5246 11.8748 88.2296 11.2848C87.9346 10.6948 87.7871 10.0054 87.7871 9.21662C87.7871 8.42448 87.9346 7.73177 88.2296 7.13849C88.5246 6.54522 88.9389 6.08452 89.4725 5.75639C90.0061 5.42827 90.6309 5.2642 91.3468 5.2642C92.0627 5.2642 92.6874 5.42827 93.2211 5.75639C93.7547 6.08452 94.169 6.54522 94.464 7.13849C94.7589 7.73177 94.9064 8.42448 94.9064 9.21662C94.9064 10.0054 94.7589 10.6948 94.464 11.2848C94.169 11.8748 93.7547 12.3338 93.2211 12.6619C92.6874 12.9901 92.0627 13.1541 91.3468 13.1541ZM91.3517 11.9062C91.8158 11.9062 92.2002 11.7836 92.5051 11.5384C92.8101 11.2931 93.0355 10.9666 93.1813 10.5589C93.3304 10.1513 93.405 9.70218 93.405 9.21165C93.405 8.72443 93.3304 8.27699 93.1813 7.86932C93.0355 7.45833 92.8101 7.12855 92.5051 6.87997C92.2002 6.63139 91.8158 6.5071 91.3517 6.5071C90.8844 6.5071 90.4966 6.63139 90.1884 6.87997C89.8835 7.12855 89.6564 7.45833 89.5073 7.86932C89.3614 8.27699 89.2885 8.72443 89.2885 9.21165C89.2885 9.70218 89.3614 10.1513 89.5073 10.5589C89.6564 10.9666 89.8835 11.2931 90.1884 11.5384C90.4966 11.7836 90.8844 11.9062 91.3517 11.9062ZM96.5657 13V5.36364H98.0025V6.5767H98.082C98.2212 6.16572 98.4665 5.84257 98.8178 5.60724C99.1725 5.36861 99.5735 5.24929 100.021 5.24929C100.114 5.24929 100.223 5.2526 100.349 5.25923C100.478 5.26586 100.579 5.27415 100.652 5.28409V6.70597C100.593 6.68939 100.487 6.67116 100.334 6.65128C100.182 6.62808 100.029 6.61648 99.8768 6.61648C99.5255 6.61648 99.2122 6.69105 98.9371 6.8402C98.6654 6.98603 98.4499 7.18987 98.2908 7.4517C98.1317 7.71023 98.0522 8.00521 98.0522 8.33665V13H96.5657ZM108.935 13.1541C108.183 13.1541 107.535 12.9934 106.991 12.6719C106.451 12.3471 106.033 11.8913 105.738 11.3047C105.447 10.7147 105.301 10.0237 105.301 9.23153C105.301 8.44934 105.447 7.75994 105.738 7.16335C106.033 6.56676 106.444 6.10109 106.971 5.76633C107.502 5.43158 108.121 5.2642 108.831 5.2642C109.261 5.2642 109.679 5.33546 110.083 5.47798C110.488 5.6205 110.851 5.84422 111.172 6.14915C111.494 6.45407 111.747 6.85014 111.933 7.33736C112.118 7.82126 112.211 8.40956 112.211 9.10227V9.62926H106.141V8.51562H110.755C110.755 8.12453 110.675 7.77817 110.516 7.47656C110.357 7.17164 110.133 6.93134 109.845 6.75568C109.56 6.58002 109.225 6.49219 108.841 6.49219C108.423 6.49219 108.058 6.59493 107.747 6.80043C107.439 7.0026 107.2 7.26776 107.031 7.59588C106.865 7.92069 106.782 8.27367 106.782 8.65483V9.52486C106.782 10.0353 106.872 10.4695 107.051 10.8274C107.233 11.1854 107.487 11.4588 107.811 11.6477C108.136 11.8333 108.516 11.9261 108.95 11.9261C109.232 11.9261 109.489 11.8864 109.721 11.8068C109.953 11.724 110.153 11.6013 110.322 11.4389C110.491 11.2765 110.62 11.076 110.71 10.8374L112.117 11.0909C112.004 11.5052 111.802 11.8681 111.51 12.1797C111.222 12.4879 110.859 12.7282 110.422 12.9006C109.987 13.0696 109.492 13.1541 108.935 13.1541ZM115.347 2.81818V13H113.861V2.81818H115.347ZM121.052 15.8636V5.36364H122.504V6.60156H122.628C122.714 6.44247 122.838 6.25852 123.001 6.04972C123.163 5.84091 123.389 5.65862 123.677 5.50284C123.965 5.34375 124.347 5.2642 124.82 5.2642C125.437 5.2642 125.987 5.41998 126.471 5.73153C126.955 6.04309 127.334 6.49219 127.61 7.07884C127.888 7.66548 128.027 8.37145 128.027 9.19673C128.027 10.022 127.89 10.7296 127.615 11.3196C127.339 11.9062 126.962 12.3587 126.481 12.6768C126 12.9917 125.452 13.1491 124.835 13.1491C124.371 13.1491 123.992 13.0713 123.697 12.9155C123.405 12.7597 123.177 12.5774 123.011 12.3686C122.845 12.1598 122.718 11.9742 122.628 11.8118H122.539V15.8636H121.052ZM122.509 9.18182C122.509 9.71875 122.587 10.1894 122.742 10.5938C122.898 10.9981 123.124 11.3146 123.419 11.5433C123.713 11.7687 124.075 11.8814 124.502 11.8814C124.946 11.8814 125.318 11.7637 125.616 11.5284C125.914 11.2898 126.14 10.9666 126.292 10.5589C126.448 10.1513 126.526 9.69223 126.526 9.18182C126.526 8.67803 126.45 8.22562 126.297 7.82457C126.148 7.42353 125.923 7.10701 125.621 6.875C125.323 6.64299 124.95 6.52699 124.502 6.52699C124.071 6.52699 123.707 6.63802 123.409 6.86009C123.114 7.08215 122.89 7.39205 122.737 7.78977C122.585 8.1875 122.509 8.65151 122.509 9.18182ZM131.915 13.169C131.431 13.169 130.994 13.0795 130.602 12.9006C130.211 12.7183 129.901 12.4548 129.673 12.1101C129.447 11.7654 129.335 11.3428 129.335 10.8423C129.335 10.4115 129.418 10.0568 129.583 9.77841C129.749 9.5 129.973 9.27959 130.254 9.11719C130.536 8.95478 130.851 8.83215 131.199 8.74929C131.547 8.66643 131.902 8.60346 132.263 8.56037C132.72 8.50734 133.092 8.46425 133.377 8.43111C133.662 8.39465 133.869 8.33665 133.998 8.2571C134.127 8.17756 134.192 8.0483 134.192 7.86932V7.83452C134.192 7.40033 134.069 7.06392 133.824 6.82528C133.582 6.58665 133.221 6.46733 132.74 6.46733C132.24 6.46733 131.845 6.57836 131.557 6.80043C131.272 7.01918 131.075 7.26278 130.965 7.53125L129.568 7.21307C129.734 6.74905 129.976 6.37453 130.294 6.08949C130.616 5.80114 130.985 5.59233 131.403 5.46307C131.82 5.33049 132.26 5.2642 132.72 5.2642C133.025 5.2642 133.348 5.30066 133.69 5.37358C134.035 5.44318 134.356 5.57244 134.654 5.76136C134.956 5.95028 135.203 6.22041 135.395 6.57173C135.587 6.91974 135.683 7.37216 135.683 7.92898V13H134.232V11.956H134.172C134.076 12.1482 133.932 12.3371 133.74 12.5227C133.547 12.7083 133.3 12.8625 132.999 12.9851C132.697 13.1077 132.336 13.169 131.915 13.169ZM132.238 11.9759C132.649 11.9759 133 11.8946 133.292 11.7322C133.587 11.5698 133.811 11.3577 133.963 11.0959C134.119 10.8307 134.197 10.5473 134.197 10.2457V9.26136C134.144 9.31439 134.041 9.36411 133.889 9.41051C133.74 9.4536 133.569 9.49171 133.377 9.52486C133.184 9.55469 132.997 9.58286 132.815 9.60938C132.633 9.63258 132.48 9.65246 132.357 9.66903C132.069 9.70549 131.806 9.76681 131.567 9.85298C131.332 9.93916 131.143 10.0634 131 10.2259C130.861 10.3849 130.791 10.5971 130.791 10.8622C130.791 11.2301 130.927 11.5085 131.199 11.6974C131.471 11.883 131.817 11.9759 132.238 11.9759ZM140.88 13.1541C140.141 13.1541 139.504 12.9867 138.971 12.652C138.441 12.3139 138.033 11.8482 137.748 11.255C137.463 10.6617 137.32 9.98224 137.32 9.21662C137.32 8.44105 137.466 7.75663 137.758 7.16335C138.049 6.56676 138.46 6.10109 138.991 5.76633C139.521 5.43158 140.146 5.2642 140.865 5.2642C141.445 5.2642 141.962 5.37192 142.416 5.58736C142.87 5.79948 143.237 6.09777 143.515 6.48224C143.797 6.86671 143.964 7.31581 144.017 7.82955H142.57C142.491 7.47159 142.308 7.16335 142.023 6.90483C141.742 6.64631 141.364 6.51705 140.89 6.51705C140.476 6.51705 140.113 6.62642 139.801 6.84517C139.493 7.06061 139.253 7.36884 139.08 7.76989C138.908 8.16761 138.822 8.63826 138.822 9.18182C138.822 9.73864 138.906 10.2192 139.075 10.6236C139.244 11.0279 139.483 11.3411 139.791 11.5632C140.103 11.7853 140.469 11.8963 140.89 11.8963C141.172 11.8963 141.427 11.8449 141.656 11.7422C141.888 11.6361 142.081 11.4853 142.237 11.2898C142.396 11.0942 142.507 10.8589 142.57 10.5838H144.017C143.964 11.0777 143.803 11.5185 143.535 11.9062C143.266 12.294 142.907 12.599 142.456 12.821C142.009 13.0431 141.483 13.1541 140.88 13.1541ZM145.607 13V5.36364H147.093V13H145.607ZM146.357 4.18537C146.099 4.18537 145.877 4.09919 145.691 3.92685C145.509 3.75118 145.418 3.54238 145.418 3.30043C145.418 3.05516 145.509 2.84635 145.691 2.67401C145.877 2.49834 146.099 2.41051 146.357 2.41051C146.616 2.41051 146.836 2.49834 147.019 2.67401C147.204 2.84635 147.297 3.05516 147.297 3.30043C147.297 3.54238 147.204 3.75118 147.019 3.92685C146.836 4.09919 146.616 4.18537 146.357 4.18537ZM152.384 13.1541C151.632 13.1541 150.984 12.9934 150.44 12.6719C149.9 12.3471 149.482 11.8913 149.188 11.3047C148.896 10.7147 148.75 10.0237 148.75 9.23153C148.75 8.44934 148.896 7.75994 149.188 7.16335C149.482 6.56676 149.893 6.10109 150.42 5.76633C150.951 5.43158 151.571 5.2642 152.28 5.2642C152.711 5.2642 153.128 5.33546 153.533 5.47798C153.937 5.6205 154.3 5.84422 154.621 6.14915C154.943 6.45407 155.196 6.85014 155.382 7.33736C155.568 7.82126 155.661 8.40956 155.661 9.10227V9.62926H149.59V8.51562H154.204C154.204 8.12453 154.124 7.77817 153.965 7.47656C153.806 7.17164 153.582 6.93134 153.294 6.75568C153.009 6.58002 152.674 6.49219 152.29 6.49219C151.872 6.49219 151.508 6.59493 151.196 6.80043C150.888 7.0026 150.649 7.26776 150.48 7.59588C150.314 7.92069 150.232 8.27367 150.232 8.65483V9.52486C150.232 10.0353 150.321 10.4695 150.5 10.8274C150.682 11.1854 150.936 11.4588 151.261 11.6477C151.585 11.8333 151.965 11.9261 152.399 11.9261C152.681 11.9261 152.938 11.8864 153.17 11.8068C153.402 11.724 153.602 11.6013 153.771 11.4389C153.94 11.2765 154.07 11.076 154.159 10.8374L155.566 11.0909C155.453 11.5052 155.251 11.8681 154.96 12.1797C154.671 12.4879 154.308 12.7282 153.871 12.9006C153.437 13.0696 152.941 13.1541 152.384 13.1541ZM158.796 8.46591V13H157.31V5.36364H158.737V6.60653H158.831C159.007 6.20218 159.282 5.87737 159.656 5.6321C160.034 5.38684 160.51 5.2642 161.083 5.2642C161.604 5.2642 162.059 5.37358 162.45 5.59233C162.842 5.80777 163.145 6.12926 163.36 6.55682C163.576 6.98437 163.683 7.51302 163.683 8.14276V13H162.197V8.32173C162.197 7.76823 162.053 7.3357 161.764 7.02415C161.476 6.70928 161.08 6.55185 160.576 6.55185C160.231 6.55185 159.925 6.62642 159.656 6.77557C159.391 6.92472 159.181 7.14347 159.025 7.43182C158.873 7.71686 158.796 8.06155 158.796 8.46591ZM169.242 5.36364V6.55682H165.07V5.36364H169.242ZM166.189 3.53409H167.676V10.7578C167.676 11.0462 167.719 11.2633 167.805 11.4091C167.891 11.5516 168.002 11.6494 168.138 11.7024C168.277 11.7521 168.428 11.777 168.59 11.777C168.71 11.777 168.814 11.7687 168.904 11.7521C168.993 11.7356 169.063 11.7223 169.112 11.7124L169.381 12.9403C169.295 12.9735 169.172 13.0066 169.013 13.0398C168.854 13.0762 168.655 13.0961 168.416 13.0994C168.025 13.1061 167.661 13.0365 167.323 12.8906C166.985 12.7448 166.711 12.5194 166.502 12.2145C166.294 11.9096 166.189 11.5268 166.189 11.0661V3.53409ZM174.095 13.1541C173.343 13.1541 172.695 12.9934 172.151 12.6719C171.611 12.3471 171.193 11.8913 170.898 11.3047C170.607 10.7147 170.461 10.0237 170.461 9.23153C170.461 8.44934 170.607 7.75994 170.898 7.16335C171.193 6.56676 171.604 6.10109 172.131 5.76633C172.662 5.43158 173.281 5.2642 173.991 5.2642C174.422 5.2642 174.839 5.33546 175.244 5.47798C175.648 5.6205 176.011 5.84422 176.332 6.14915C176.654 6.45407 176.907 6.85014 177.093 7.33736C177.279 7.82126 177.371 8.40956 177.371 9.10227V9.62926H171.301V8.51562H175.915C175.915 8.12453 175.835 7.77817 175.676 7.47656C175.517 7.17164 175.293 6.93134 175.005 6.75568C174.72 6.58002 174.385 6.49219 174.001 6.49219C173.583 6.49219 173.219 6.59493 172.907 6.80043C172.599 7.0026 172.36 7.26776 172.191 7.59588C172.025 7.92069 171.942 8.27367 171.942 8.65483V9.52486C171.942 10.0353 172.032 10.4695 172.211 10.8274C172.393 11.1854 172.647 11.4588 172.972 11.6477C173.296 11.8333 173.676 11.9261 174.11 11.9261C174.392 11.9261 174.649 11.8864 174.881 11.8068C175.113 11.724 175.313 11.6013 175.482 11.4389C175.651 11.2765 175.781 11.076 175.87 10.8374L177.277 11.0909C177.164 11.5052 176.962 11.8681 176.67 12.1797C176.382 12.4879 176.019 12.7282 175.582 12.9006C175.147 13.0696 174.652 13.1541 174.095 13.1541Z" fill="#364152"/>
<path d="M31.5795 26.1364C30.9886 26.1364 30.4702 25.9957 30.0241 25.7145C29.581 25.4332 29.2344 25.0398 28.9844 24.5341C28.7372 24.0284 28.6136 23.4375 28.6136 22.7614C28.6136 22.0795 28.7372 21.4844 28.9844 20.9759C29.2344 20.4673 29.581 20.0724 30.0241 19.7912C30.4702 19.5099 30.9886 19.3693 31.5795 19.3693C32.1705 19.3693 32.6875 19.5099 33.1307 19.7912C33.5767 20.0724 33.9233 20.4673 34.1705 20.9759C34.4205 21.4844 34.5455 22.0795 34.5455 22.7614C34.5455 23.4375 34.4205 24.0284 34.1705 24.5341C33.9233 25.0398 33.5767 25.4332 33.1307 25.7145C32.6875 25.9957 32.1705 26.1364 31.5795 26.1364ZM31.5795 25.233C32.0284 25.233 32.3977 25.1179 32.6875 24.8878C32.9773 24.6577 33.1918 24.3551 33.331 23.9801C33.4702 23.6051 33.5398 23.1989 33.5398 22.7614C33.5398 22.3239 33.4702 21.9162 33.331 21.5384C33.1918 21.1605 32.9773 20.8551 32.6875 20.6222C32.3977 20.3892 32.0284 20.2727 31.5795 20.2727C31.1307 20.2727 30.7614 20.3892 30.4716 20.6222C30.1818 20.8551 29.9673 21.1605 29.8281 21.5384C29.6889 21.9162 29.6193 22.3239 29.6193 22.7614C29.6193 23.1989 29.6889 23.6051 29.8281 23.9801C29.9673 24.3551 30.1818 24.6577 30.4716 24.8878C30.7614 25.1179 31.1307 25.233 31.5795 25.233ZM42.0977 28.5909C41.6119 28.5909 41.1942 28.5284 40.8448 28.4034C40.4954 28.2812 40.2042 28.1193 39.9712 27.9176C39.7411 27.7188 39.5579 27.5057 39.4215 27.2784L40.2227 26.7159C40.3136 26.8352 40.4286 26.9716 40.5678 27.125C40.707 27.2812 40.8974 27.4162 41.1388 27.5298C41.3832 27.6463 41.7028 27.7045 42.0977 27.7045C42.6261 27.7045 43.0621 27.5767 43.4059 27.321C43.7496 27.0653 43.9215 26.6648 43.9215 26.1193V24.7898H43.8363C43.7624 24.9091 43.6573 25.0568 43.521 25.233C43.3874 25.4062 43.1942 25.5611 42.9414 25.6974C42.6914 25.831 42.3533 25.8977 41.9272 25.8977C41.3988 25.8977 40.9244 25.7727 40.5039 25.5227C40.0863 25.2727 39.7553 24.9091 39.511 24.4318C39.2695 23.9545 39.1488 23.375 39.1488 22.6932C39.1488 22.0227 39.2667 21.4389 39.5025 20.9418C39.7383 20.4418 40.0664 20.0554 40.4869 19.7827C40.9073 19.5071 41.3931 19.3693 41.9442 19.3693C42.3704 19.3693 42.7085 19.4403 42.9585 19.5824C43.2113 19.7216 43.4045 19.8807 43.538 20.0597C43.6744 20.2358 43.7795 20.3807 43.8533 20.4943H43.9556V19.4545H44.9272V26.1875C44.9272 26.75 44.7994 27.2074 44.5437 27.5597C44.2908 27.9148 43.9499 28.1747 43.521 28.3395C43.0948 28.5071 42.6204 28.5909 42.0977 28.5909ZM42.0636 24.9943C42.467 24.9943 42.8079 24.902 43.0863 24.7173C43.3647 24.5327 43.5763 24.267 43.7212 23.9205C43.8661 23.5739 43.9386 23.1591 43.9386 22.6761C43.9386 22.2045 43.8675 21.7884 43.7255 21.4276C43.5835 21.0668 43.3732 20.7841 43.0948 20.5795C42.8164 20.375 42.4727 20.2727 42.0636 20.2727C41.6374 20.2727 41.2823 20.3807 40.9982 20.5966C40.717 20.8125 40.5053 21.1023 40.3633 21.4659C40.2241 21.8295 40.1545 22.233 40.1545 22.6761C40.1545 23.1307 40.2255 23.5327 40.3675 23.8821C40.5124 24.2287 40.7255 24.5014 41.0067 24.7003C41.2908 24.8963 41.6431 24.9943 42.0636 24.9943ZM49.5124 26.1364C48.8817 26.1364 48.3377 25.9972 47.8803 25.7188C47.4258 25.4375 47.0749 25.0455 46.8278 24.5426C46.5835 24.0369 46.4613 23.4489 46.4613 22.7784C46.4613 22.108 46.5835 21.517 46.8278 21.0057C47.0749 20.4915 47.4187 20.0909 47.859 19.804C48.3022 19.5142 48.8192 19.3693 49.4102 19.3693C49.7511 19.3693 50.0877 19.4261 50.4201 19.5398C50.7525 19.6534 51.055 19.8381 51.3278 20.0938C51.6005 20.3466 51.8178 20.6818 51.9798 21.0994C52.1417 21.517 52.2227 22.0312 52.2227 22.642V23.0682H47.1772V22.1989H51.1999C51.1999 21.8295 51.1261 21.5 50.9783 21.2102C50.8335 20.9205 50.6261 20.6918 50.3562 20.5241C50.0891 20.3565 49.7738 20.2727 49.4102 20.2727C49.0096 20.2727 48.663 20.3722 48.3704 20.571C48.0806 20.767 47.8576 21.0227 47.7013 21.3381C47.5451 21.6534 47.467 21.9915 47.467 22.3523V22.9318C47.467 23.4261 47.5522 23.8452 47.7227 24.1889C47.896 24.5298 48.136 24.7898 48.4428 24.9688C48.7496 25.1449 49.1062 25.233 49.5124 25.233C49.7766 25.233 50.0153 25.196 50.2283 25.1222C50.4442 25.0455 50.6303 24.9318 50.7866 24.7812C50.9428 24.6278 51.0636 24.4375 51.1488 24.2102L52.1204 24.483C52.0181 24.8125 51.8462 25.1023 51.6048 25.3523C51.3633 25.5994 51.065 25.7926 50.7099 25.9318C50.3548 26.0682 49.9556 26.1364 49.5124 26.1364ZM58.3888 20.9205L57.4854 21.1761C57.4286 21.0256 57.3448 20.8793 57.234 20.7372C57.1261 20.5923 56.9783 20.473 56.7908 20.3793C56.6033 20.2855 56.3633 20.2386 56.0707 20.2386C55.6701 20.2386 55.3363 20.331 55.0692 20.5156C54.805 20.6974 54.6729 20.929 54.6729 21.2102C54.6729 21.4602 54.7638 21.6577 54.9457 21.8026C55.1275 21.9474 55.4116 22.0682 55.7979 22.1648L56.7695 22.4034C57.3548 22.5455 57.7908 22.7628 58.0778 23.0554C58.3647 23.3452 58.5082 23.7187 58.5082 24.1761C58.5082 24.5511 58.4002 24.8864 58.1843 25.1818C57.9712 25.4773 57.6729 25.7102 57.2894 25.8807C56.9059 26.0511 56.4599 26.1364 55.9513 26.1364C55.2837 26.1364 54.7312 25.9915 54.2937 25.7017C53.8562 25.4119 53.5792 24.9886 53.4627 24.4318L54.4173 24.1932C54.5082 24.5455 54.68 24.8097 54.9329 24.9858C55.1886 25.1619 55.5224 25.25 55.9343 25.25C56.4031 25.25 56.7752 25.1506 57.0508 24.9517C57.3292 24.75 57.4684 24.5085 57.4684 24.2273C57.4684 24 57.3888 23.8097 57.2298 23.6562C57.0707 23.5 56.8263 23.3835 56.4968 23.3068L55.4059 23.0511C54.8065 22.9091 54.3661 22.6889 54.0849 22.3906C53.8065 22.0895 53.6673 21.7131 53.6673 21.2614C53.6673 20.892 53.771 20.5653 53.9783 20.2812C54.1886 19.9972 54.4741 19.7741 54.8349 19.6122C55.1985 19.4503 55.6104 19.3693 56.0707 19.3693C56.7184 19.3693 57.2269 19.5114 57.5962 19.7955C57.9684 20.0795 58.2326 20.4545 58.3888 20.9205ZM62.8686 19.4545V20.3068H59.4766V19.4545H62.8686ZM60.4652 17.8864H61.4709V24.125C61.4709 24.4091 61.5121 24.6222 61.5945 24.7642C61.6797 24.9034 61.7876 24.9972 61.9183 25.0455C62.0518 25.0909 62.1925 25.1136 62.3402 25.1136C62.451 25.1136 62.5419 25.108 62.6129 25.0966C62.6839 25.0824 62.7408 25.071 62.7834 25.0625L62.9879 25.9659C62.9197 25.9915 62.8246 26.017 62.7024 26.0426C62.5803 26.071 62.4254 26.0852 62.2379 26.0852C61.9538 26.0852 61.6754 26.0241 61.4027 25.902C61.1328 25.7798 60.9084 25.5938 60.7294 25.3438C60.5533 25.0938 60.4652 24.7784 60.4652 24.3977V17.8864ZM66.9702 26.1364C66.3793 26.1364 65.8608 25.9957 65.4148 25.7145C64.9716 25.4332 64.625 25.0398 64.375 24.5341C64.1278 24.0284 64.0043 23.4375 64.0043 22.7614C64.0043 22.0795 64.1278 21.4844 64.375 20.9759C64.625 20.4673 64.9716 20.0724 65.4148 19.7912C65.8608 19.5099 66.3793 19.3693 66.9702 19.3693C67.5611 19.3693 68.0781 19.5099 68.5213 19.7912C68.9673 20.0724 69.3139 20.4673 69.5611 20.9759C69.8111 21.4844 69.9361 22.0795 69.9361 22.7614C69.9361 23.4375 69.8111 24.0284 69.5611 24.5341C69.3139 25.0398 68.9673 25.4332 68.5213 25.7145C68.0781 25.9957 67.5611 26.1364 66.9702 26.1364ZM66.9702 25.233C67.419 25.233 67.7884 25.1179 68.0781 24.8878C68.3679 24.6577 68.5824 24.3551 68.7216 23.9801C68.8608 23.6051 68.9304 23.1989 68.9304 22.7614C68.9304 22.3239 68.8608 21.9162 68.7216 21.5384C68.5824 21.1605 68.3679 20.8551 68.0781 20.6222C67.7884 20.3892 67.419 20.2727 66.9702 20.2727C66.5213 20.2727 66.152 20.3892 65.8622 20.6222C65.5724 20.8551 65.358 21.1605 65.2188 21.5384C65.0795 21.9162 65.0099 22.3239 65.0099 22.7614C65.0099 23.1989 65.0795 23.6051 65.2188 23.9801C65.358 24.3551 65.5724 24.6577 65.8622 24.8878C66.152 25.1179 66.5213 25.233 66.9702 25.233ZM71.4712 26V19.4545H72.4428V20.4432H72.511C72.6303 20.1193 72.8462 19.8565 73.1587 19.6548C73.4712 19.4531 73.8235 19.3523 74.2156 19.3523C74.2894 19.3523 74.3817 19.3537 74.4925 19.3565C74.6033 19.3594 74.6871 19.3636 74.744 19.3693V20.392C74.7099 20.3835 74.6317 20.3707 74.5096 20.3537C74.3903 20.3338 74.2638 20.3239 74.1303 20.3239C73.8121 20.3239 73.5281 20.3906 73.2781 20.5241C73.0309 20.6548 72.8349 20.8366 72.69 21.0696C72.5479 21.2997 72.4769 21.5625 72.4769 21.858V26H71.4712Z" fill="#6B7280"/>
</svg>
