<svg width="20" height="21" viewBox="0 0 20 21" fill="none" xmlns="http://www.w3.org/2000/svg">
<path d="M17.414 3.0304C17.0389 2.65546 16.5303 2.44482 16 2.44482C15.4697 2.44482 14.9611 2.65546 14.586 3.0304L7 10.6164V13.4444H9.828L17.414 5.8584C17.7889 5.48334 17.9996 4.97473 17.9996 4.4444C17.9996 3.91407 17.7889 3.40545 17.414 3.0304Z" fill="#364F6B"/>
<path fill-rule="evenodd" clip-rule="evenodd" d="M2 6.44434C2 5.9139 2.21071 5.40519 2.58579 5.03012C2.96086 4.65505 3.46957 4.44434 4 4.44434H8C8.26522 4.44434 8.51957 4.54969 8.70711 4.73723C8.89464 4.92477 9 5.17912 9 5.44434C9 5.70955 8.89464 5.96391 8.70711 6.15144C8.51957 6.33898 8.26522 6.44434 8 6.44434H4V16.4443H14V12.4443C14 12.1791 14.1054 11.9248 14.2929 11.7372C14.4804 11.5497 14.7348 11.4443 15 11.4443C15.2652 11.4443 15.5196 11.5497 15.7071 11.7372C15.8946 11.9248 16 12.1791 16 12.4443V16.4443C16 16.9748 15.7893 17.4835 15.4142 17.8585C15.0391 18.2336 14.5304 18.4443 14 18.4443H4C3.46957 18.4443 2.96086 18.2336 2.58579 17.8585C2.21071 17.4835 2 16.9748 2 16.4443V6.44434Z" fill="#364F6B"/>
</svg>
