<svg width="17" height="16" viewBox="0 0 17 16" fill="none" xmlns="http://www.w3.org/2000/svg">
<path d="M0.5 1C0.5 0.734784 0.605357 0.48043 0.792893 0.292893C0.98043 0.105357 1.23478 0 1.5 0H3.653C3.88971 0.000108969 4.1187 0.0841807 4.29924 0.23726C4.47979 0.390339 4.60018 0.602499 4.639 0.836L5.379 5.271C5.41436 5.48222 5.38097 5.69921 5.28376 5.89003C5.18655 6.08085 5.03065 6.23543 4.839 6.331L3.291 7.104C3.84611 8.47965 4.67283 9.72928 5.72178 10.7782C6.77072 11.8272 8.02035 12.6539 9.396 13.209L10.17 11.661C10.2655 11.4695 10.4199 11.3138 10.6106 11.2166C10.8012 11.1194 11.0179 11.0859 11.229 11.121L15.664 11.861C15.8975 11.8998 16.1097 12.0202 16.2627 12.2008C16.4158 12.3813 16.4999 12.6103 16.5 12.847V15C16.5 15.2652 16.3946 15.5196 16.2071 15.7071C16.0196 15.8946 15.7652 16 15.5 16H13.5C6.32 16 0.5 10.18 0.5 3V1Z" fill="#27BEC2"/>
</svg>
