<svg width="20" height="20" viewBox="0 0 20 20" fill="none" xmlns="http://www.w3.org/2000/svg">
<path d="M10.8787 11.0331L10.1005 9.99239L9.49985 10.4415L10.0943 9.98422C9.62742 9.37726 8.70559 9.37726 8.2387 9.98422L8.23865 9.98418L8.2329 9.99186L6.56869 12.2136C6.56817 12.2143 6.56765 12.215 6.56713 12.2157C5.97961 12.9944 6.55181 14.0832 7.49984 14.0832H15.7998C16.7846 14.0832 17.3129 12.9543 16.714 12.194L16.714 12.194L16.7105 12.1896L14.2438 9.10632C13.777 8.52283 12.8899 8.52268 12.4229 9.10587C12.4228 9.10597 12.4227 9.10607 12.4226 9.10616C12.4226 9.10621 12.4226 9.10627 12.4225 9.10632L10.8787 11.0331ZM17.5832 3.33317V13.3332C17.5832 13.8356 17.169 14.2498 16.6665 14.2498H6.6665C6.16405 14.2498 5.74984 13.8356 5.74984 13.3332V3.33317C5.74984 2.83072 6.16405 2.4165 6.6665 2.4165H16.6665C17.169 2.4165 17.5832 2.83072 17.5832 3.33317ZM2.4165 16.6665V5.83317C2.4165 5.81259 2.42425 5.79234 2.44163 5.77496C2.459 5.75758 2.47925 5.74984 2.49984 5.74984C2.52042 5.74984 2.54067 5.75758 2.55805 5.77496C2.57543 5.79234 2.58317 5.81259 2.58317 5.83317V15.8332C2.58317 16.7057 3.29396 17.4165 4.1665 17.4165H14.1665C14.1871 17.4165 14.2073 17.4242 14.2247 17.4416C14.2421 17.459 14.2498 17.4793 14.2498 17.4998C14.2498 17.5204 14.2421 17.5407 14.2247 17.558C14.2073 17.5754 14.1871 17.5832 14.1665 17.5832H3.33317C2.83072 17.5832 2.4165 17.169 2.4165 16.6665Z" stroke="#EB8B76" stroke-width="1.5"/>
</svg>
