<svg width="24" height="25" viewBox="0 0 24 25" fill="none" xmlns="http://www.w3.org/2000/svg">
<path d="M20 2.44458H8C6.9 2.44458 6 3.34458 6 4.44458V16.4446C6 17.5446 6.9 18.4446 8 18.4446H20C21.1 18.4446 22 17.5446 22 16.4446V4.44458C22 3.34458 21.1 2.44458 20 2.44458ZM11.5 9.94458C11.5 10.7746 10.83 11.4446 10 11.4446H9V12.6946C9 13.1046 8.66 13.4446 8.25 13.4446C7.84 13.4446 7.5 13.1046 7.5 12.6946V8.44458C7.5 7.89458 7.95 7.44458 8.5 7.44458H10C10.83 7.44458 11.5 8.11458 11.5 8.94458V9.94458ZM16.5 11.9446C16.5 12.7746 15.83 13.4446 15 13.4446H13C12.72 13.4446 12.5 13.2246 12.5 12.9446V7.94458C12.5 7.66458 12.72 7.44458 13 7.44458H15C15.83 7.44458 16.5 8.11458 16.5 8.94458V11.9446ZM20.5 8.19458C20.5 8.60458 20.16 8.94458 19.75 8.94458H19V9.94458H19.75C20.16 9.94458 20.5 10.2846 20.5 10.6946C20.5 11.1046 20.16 11.4446 19.75 11.4446H19V12.6946C19 13.1046 18.66 13.4446 18.25 13.4446C17.84 13.4446 17.5 13.1046 17.5 12.6946V8.44458C17.5 7.89458 17.95 7.44458 18.5 7.44458H19.75C20.16 7.44458 20.5 7.78458 20.5 8.19458ZM9 9.94458H10V8.94458H9V9.94458ZM3 6.44458C2.45 6.44458 2 6.89458 2 7.44458V20.4446C2 21.5446 2.9 22.4446 4 22.4446H17C17.55 22.4446 18 21.9946 18 21.4446C18 20.8946 17.55 20.4446 17 20.4446H5C4.45 20.4446 4 19.9946 4 19.4446V7.44458C4 6.89458 3.55 6.44458 3 6.44458ZM14 11.9446H15V8.94458H14V11.9446Z" fill="#DB4726"/>
</svg>
