<svg width="23" height="22" viewBox="0 0 23 22" fill="none" xmlns="http://www.w3.org/2000/svg">
<path fill-rule="evenodd" clip-rule="evenodd" d="M12.9389 5.39307L5.72638 12.6056C4.61104 13.7209 4.61104 15.5292 5.72638 16.6446C6.84172 17.7599 8.65004 17.7599 9.76537 16.6446L16.9779 9.43207C18.0932 8.31673 18.0932 6.50841 16.9779 5.39308C15.8625 4.27774 14.0542 4.27774 12.9389 5.39307ZM4.13963 11.0188C2.14796 13.0105 2.14796 16.2396 4.13963 18.2313C6.1313 20.223 9.36045 20.223 11.3521 18.2313L18.5646 11.0188C20.5563 9.02714 20.5563 5.798 18.5646 3.80633C16.5729 1.81465 13.3438 1.81465 11.3521 3.80633L4.13963 11.0188Z" fill="#6B7280"/>
<path fill-rule="evenodd" clip-rule="evenodd" d="M11.6493 17.9341L15.1238 14.4597L10.7963 10.1322L3.58379 17.3447L3.6657 17.4266L11.6493 17.9341Z" fill="#6B7280"/>
</svg>
