<svg width="24" height="24" viewBox="0 0 24 24" fill="none" xmlns="http://www.w3.org/2000/svg">
<path fill-rule="evenodd" clip-rule="evenodd" d="M6 20H18C18.55 20 19 20.45 19 21C19 21.55 18.55 22 18 22H6C5.45 22 5 21.55 5 21C5 20.45 5.45 20 6 20ZM12 7C10.9 7 10 7.9 10 9C10 10.1 10.9 11 12 11C12.5304 11 13.0391 10.7893 13.4142 10.4142C13.7893 10.0391 14 9.53043 14 9C14 8.46957 13.7893 7.96086 13.4142 7.58579C13.0391 7.21071 12.5304 7 12 7ZM12 2C15.27 2 19 4.46 19 9.15C19 12.13 16.87 15.27 12.61 18.54C12.25 18.82 11.75 18.82 11.39 18.54C7.13 15.26 5 12.13 5 9.15C5 4.46 8.73 2 12 2Z" fill="#52565A" fill-opacity="0.5"/>
</svg>
