<svg width="20" height="20" viewBox="0 0 20 20" fill="none" xmlns="http://www.w3.org/2000/svg">
<path d="M14.6667 10.8334C14.6667 10.6512 14.8178 10.5001 15 10.5001C15.1822 10.5001 15.3333 10.6512 15.3333 10.8334V15.8334C15.3333 16.4739 14.8072 17.0001 14.1667 17.0001H4.16667C3.52614 17.0001 3 16.4739 3 15.8334V5.83341C3 5.19289 3.52614 4.66675 4.16667 4.66675H9.16667C9.34886 4.66675 9.5 4.81789 9.5 5.00008C9.5 5.18227 9.34886 5.33341 9.16667 5.33341H5C4.26552 5.33341 3.66667 5.93227 3.66667 6.66675V15.1834C3.66667 15.9179 4.26552 16.5167 5 16.5167H13.3333C14.0678 16.5167 14.6667 15.9179 14.6667 15.1834V10.8334Z" stroke="#EB8B76"/>
<path d="M17.5166 4.16675H15.8333V2.48341C15.8333 2.03341 15.4666 1.66675 15.0166 1.66675H14.9916C14.5333 1.66675 14.1666 2.03341 14.1666 2.48341V4.16675H12.4916C12.0416 4.16675 11.675 4.53341 11.6666 4.98341C11.6666 4.99175 11.6666 5.00008 11.6666 5.00841C11.6666 5.46675 12.0333 5.83342 12.4916 5.83342H14.1666V7.50842C14.1666 7.95842 14.5333 8.33342 14.9916 8.32508C15 8.32508 15.0083 8.32508 15.0166 8.32508C15.4666 8.32508 15.8333 7.95842 15.8333 7.50842V5.83342H17.5166C17.9666 5.83342 18.3333 5.46675 18.3333 5.01675V4.98341C18.3333 4.53341 17.9666 4.16675 17.5166 4.16675Z" fill="#EB8B76"/>
<path d="M11.6667 7.5H6.66671C6.20837 7.5 5.83337 7.875 5.83337 8.33333C5.83337 8.79167 6.20837 9.16667 6.66671 9.16667H11.6667C12.125 9.16667 12.5 8.79167 12.5 8.33333C12.5 7.875 12.125 7.5 11.6667 7.5Z" fill="#EB8B76"/>
<path d="M11.6667 10H6.66671C6.20837 10 5.83337 10.375 5.83337 10.8333C5.83337 11.2917 6.20837 11.6667 6.66671 11.6667H11.6667C12.125 11.6667 12.5 11.2917 12.5 10.8333C12.5 10.375 12.125 10 11.6667 10Z" fill="#EB8B76"/>
<path d="M11.6667 12.5H6.66671C6.20837 12.5 5.83337 12.875 5.83337 13.3333C5.83337 13.7917 6.20837 14.1667 6.66671 14.1667H11.6667C12.125 14.1667 12.5 13.7917 12.5 13.3333C12.5 12.875 12.125 12.5 11.6667 12.5Z" fill="#EB8B76"/>
</svg>
