<svg width="24" height="24" viewBox="0 0 24 24" fill="none" xmlns="http://www.w3.org/2000/svg">
<path d="M17.4939 6.90722L17.4927 6.90587C17.3007 6.70354 17.3037 6.40332 17.4935 6.21355C17.6962 6.01088 18.029 6.02117 18.2132 6.21988L18.2132 6.21989L18.2152 6.22197C19.6323 7.73358 20.4999 9.75278 20.4999 11.99C20.4999 16.7787 16.5425 20.6414 11.7256 20.4902L11.7253 20.4902C7.12155 20.3487 3.36791 16.3595 3.49971 11.7549C3.56593 9.61168 4.42458 7.67714 5.79396 6.22276L5.79397 6.22277L5.79665 6.21988C5.98091 6.02108 6.3038 6.01097 6.50638 6.21355C6.68941 6.39659 6.6959 6.69697 6.5072 6.89587L6.50718 6.89585L6.50343 6.89989C5.26133 8.23836 4.49993 10.0285 4.49993 12C4.49993 16.1775 7.90659 19.5536 12.0964 19.49C16.2064 19.4463 19.5963 15.9146 19.4998 11.8083C19.4568 9.91091 18.7057 8.19406 17.4939 6.90722ZM11.4999 4C11.4999 3.72614 11.7261 3.5 11.9999 3.5C12.2738 3.5 12.4999 3.72614 12.4999 4V12C12.4999 12.2739 12.2738 12.5 11.9999 12.5C11.7261 12.5 11.4999 12.2739 11.4999 12V4Z" stroke="#F9D620"/>
</svg>
