<svg width="16" height="16" viewBox="0 0 16 16" fill="none" xmlns="http://www.w3.org/2000/svg">
<path fill-rule="evenodd" clip-rule="evenodd" d="M7.1682 1.33577C7.1682 0.877441 7.5432 0.502441 8.00154 0.502441C8.45987 0.502441 8.83487 0.877441 8.83487 1.33577V8.00244C8.83487 8.46077 8.45987 8.83578 8.00154 8.83578C7.5432 8.83578 7.1682 8.46077 7.1682 8.00244V1.33577ZM12.2765 4.04411C11.9682 3.71911 11.9599 3.21077 12.2849 2.88577C12.6182 2.55244 13.1682 2.56077 13.4849 2.90244C14.7349 4.23577 15.5015 6.01911 15.5015 7.99411C15.5015 12.2191 12.0099 15.6274 7.75986 15.4941C3.6932 15.3691 0.384862 11.8524 0.501529 7.78577C0.559862 5.89411 1.3182 4.18577 2.52653 2.90244C2.8432 2.56077 3.38486 2.55244 3.7182 2.88577C4.03486 3.20244 4.03486 3.71077 3.72653 4.03577C2.75986 5.07744 2.1682 6.46911 2.1682 8.00244C2.1682 11.2524 4.8182 13.8774 8.07653 13.8274C11.2682 13.7941 13.9099 11.0441 13.8349 7.85244C13.8015 6.37744 13.2182 5.04411 12.2765 4.04411Z" fill="#6B7280"/>
</svg>
