<svg width="16" height="18" viewBox="0 0 16 18" fill="none" xmlns="http://www.w3.org/2000/svg">
<path fill-rule="evenodd" clip-rule="evenodd" d="M0.166 3.99885C3.06114 3.96285 5.84481 2.87731 8 0.943848C10.155 2.87767 12.9387 3.96357 15.834 3.99985C15.944 4.64985 16 5.31985 16 6.00085C16 11.2258 12.66 15.6708 8 17.3178C3.34 15.6698 0 11.2248 0 5.99985C0 5.31785 0.0569999 4.64985 0.166 3.99885ZM11.707 7.70685C11.8892 7.51825 11.99 7.26564 11.9877 7.00345C11.9854 6.74125 11.8802 6.49044 11.6948 6.30503C11.5094 6.11962 11.2586 6.01445 10.9964 6.01217C10.7342 6.0099 10.4816 6.11069 10.293 6.29285L7 9.58585L5.707 8.29285C5.5184 8.11069 5.2658 8.0099 5.0036 8.01217C4.7414 8.01445 4.49059 8.11962 4.30518 8.30503C4.11977 8.49044 4.0146 8.74125 4.01233 9.00345C4.01005 9.26564 4.11084 9.51824 4.293 9.70685L6.293 11.7068C6.48053 11.8943 6.73484 11.9996 7 11.9996C7.26516 11.9996 7.51947 11.8943 7.707 11.7068L11.707 7.70685Z" fill="#6B7280"/>
</svg>
