<svg width="20" height="20" viewBox="0 0 20 20" fill="none" xmlns="http://www.w3.org/2000/svg">
<path fill-rule="evenodd" clip-rule="evenodd" d="M19.5999 9.9999C19.5999 12.546 18.5885 14.9878 16.7881 16.7881C14.9878 18.5885 12.546 19.5999 9.9999 19.5999C7.45382 19.5999 5.01203 18.5885 3.21168 16.7881C1.41133 14.9878 0.399902 12.546 0.399902 9.9999C0.399902 7.45382 1.41133 5.01203 3.21168 3.21168C5.01203 1.41133 7.45382 0.399902 9.9999 0.399902C12.546 0.399902 14.9878 1.41133 16.7881 3.21168C18.5885 5.01203 19.5999 7.45382 19.5999 9.9999ZM12.3999 6.3999C12.3999 7.03642 12.147 7.64687 11.697 8.09696C11.2469 8.54704 10.6364 8.7999 9.9999 8.7999C9.36338 8.7999 8.75293 8.54704 8.30285 8.09696C7.85276 7.64687 7.5999 7.03642 7.5999 6.3999C7.5999 5.76338 7.85276 5.15293 8.30285 4.70285C8.75293 4.25276 9.36338 3.9999 9.9999 3.9999C10.6364 3.9999 11.2469 4.25276 11.697 4.70285C12.147 5.15293 12.3999 5.76338 12.3999 6.3999ZM9.9999 11.1999C8.85102 11.1997 7.72623 11.5293 6.7592 12.1496C5.79217 12.7699 5.02355 13.6548 4.5447 14.6991C5.21991 15.4846 6.05703 16.1148 6.99864 16.5465C7.94024 16.9781 8.96407 17.201 9.9999 17.1999C11.0357 17.201 12.0596 16.9781 13.0012 16.5465C13.9428 16.1148 14.7799 15.4846 15.4551 14.6991C14.9762 13.6548 14.2076 12.7699 13.2406 12.1496C12.2736 11.5293 11.1488 11.1997 9.9999 11.1999Z" fill="#E5E7EB"/>
</svg>
