<svg width="21" height="20" viewBox="0 0 21 20" fill="none" xmlns="http://www.w3.org/2000/svg">
<path fill-rule="evenodd" clip-rule="evenodd" d="M3.5 4C3.5 3.73478 3.60536 3.48043 3.79289 3.29289C3.98043 3.10536 4.23478 3 4.5 3H7.5C7.76522 3 8.01957 3.10536 8.20711 3.29289C8.39464 3.48043 8.5 3.73478 8.5 4V7C8.5 7.26522 8.39464 7.51957 8.20711 7.70711C8.01957 7.89464 7.76522 8 7.5 8H4.5C4.23478 8 3.98043 7.89464 3.79289 7.70711C3.60536 7.51957 3.5 7.26522 3.5 7V4ZM5.5 6V5H6.5V6H5.5ZM3.5 13C3.5 12.7348 3.60536 12.4804 3.79289 12.2929C3.98043 12.1054 4.23478 12 4.5 12H7.5C7.76522 12 8.01957 12.1054 8.20711 12.2929C8.39464 12.4804 8.5 12.7348 8.5 13V16C8.5 16.2652 8.39464 16.5196 8.20711 16.7071C8.01957 16.8946 7.76522 17 7.5 17H4.5C4.23478 17 3.98043 16.8946 3.79289 16.7071C3.60536 16.5196 3.5 16.2652 3.5 16V13ZM5.5 15V14H6.5V15H5.5ZM13.5 3C13.2348 3 12.9804 3.10536 12.7929 3.29289C12.6054 3.48043 12.5 3.73478 12.5 4V7C12.5 7.26522 12.6054 7.51957 12.7929 7.70711C12.9804 7.89464 13.2348 8 13.5 8H16.5C16.7652 8 17.0196 7.89464 17.2071 7.70711C17.3946 7.51957 17.5 7.26522 17.5 7V4C17.5 3.73478 17.3946 3.48043 17.2071 3.29289C17.0196 3.10536 16.7652 3 16.5 3H13.5ZM14.5 5V6H15.5V5H14.5Z" fill="#F5F5F5"/>
<path d="M11.5 4C11.5 3.73478 11.3946 3.48043 11.2071 3.29289C11.0196 3.10536 10.7652 3 10.5 3C10.2348 3 9.98043 3.10536 9.79289 3.29289C9.60536 3.48043 9.5 3.73478 9.5 4V5C9.5 5.26522 9.60536 5.51957 9.79289 5.70711C9.98043 5.89464 10.2348 6 10.5 6C10.7652 6 11.0196 5.89464 11.2071 5.70711C11.3946 5.51957 11.5 5.26522 11.5 5V4ZM10.5 7C10.7652 7 11.0196 7.10536 11.2071 7.29289C11.3946 7.48043 11.5 7.73478 11.5 8V9H13.5C13.7652 9 14.0196 9.10536 14.2071 9.29289C14.3946 9.48043 14.5 9.73478 14.5 10C14.5 10.2652 14.3946 10.5196 14.2071 10.7071C14.0196 10.8946 13.7652 11 13.5 11H10.5C10.2348 11 9.98043 10.8946 9.79289 10.7071C9.60536 10.5196 9.5 10.2652 9.5 10V8C9.5 7.73478 9.60536 7.48043 9.79289 7.29289C9.98043 7.10536 10.2348 7 10.5 7ZM16.5 9C16.2348 9 15.9804 9.10536 15.7929 9.29289C15.6054 9.48043 15.5 9.73478 15.5 10C15.5 10.2652 15.6054 10.5196 15.7929 10.7071C15.9804 10.8946 16.2348 11 16.5 11C16.7652 11 17.0196 10.8946 17.2071 10.7071C17.3946 10.5196 17.5 10.2652 17.5 10C17.5 9.73478 17.3946 9.48043 17.2071 9.29289C17.0196 9.10536 16.7652 9 16.5 9ZM9.5 13C9.5 12.7348 9.60536 12.4804 9.79289 12.2929C9.98043 12.1054 10.2348 12 10.5 12H11.5C11.7652 12 12.0196 12.1054 12.2071 12.2929C12.3946 12.4804 12.5 12.7348 12.5 13C12.5 13.2652 12.3946 13.5196 12.2071 13.7071C12.0196 13.8946 11.7652 14 11.5 14V16C11.5 16.2652 11.3946 16.5196 11.2071 16.7071C11.0196 16.8946 10.7652 17 10.5 17C10.2348 17 9.98043 16.8946 9.79289 16.7071C9.60536 16.5196 9.5 16.2652 9.5 16V13ZM7.5 11C7.76522 11 8.01957 10.8946 8.20711 10.7071C8.39464 10.5196 8.5 10.2652 8.5 10C8.5 9.73478 8.39464 9.48043 8.20711 9.29289C8.01957 9.10536 7.76522 9 7.5 9H4.5C4.23478 9 3.98043 9.10536 3.79289 9.29289C3.60536 9.48043 3.5 9.73478 3.5 10C3.5 10.2652 3.60536 10.5196 3.79289 10.7071C3.98043 10.8946 4.23478 11 4.5 11H7.5ZM17.5 13C17.5 13.2652 17.3946 13.5196 17.2071 13.7071C17.0196 13.8946 16.7652 14 16.5 14H14.5C14.2348 14 13.9804 13.8946 13.7929 13.7071C13.6054 13.5196 13.5 13.2652 13.5 13C13.5 12.7348 13.6054 12.4804 13.7929 12.2929C13.9804 12.1054 14.2348 12 14.5 12H16.5C16.7652 12 17.0196 12.1054 17.2071 12.2929C17.3946 12.4804 17.5 12.7348 17.5 13ZM16.5 17C16.7652 17 17.0196 16.8946 17.2071 16.7071C17.3946 16.5196 17.5 16.2652 17.5 16C17.5 15.7348 17.3946 15.4804 17.2071 15.2929C17.0196 15.1054 16.7652 15 16.5 15H13.5C13.2348 15 12.9804 15.1054 12.7929 15.2929C12.6054 15.4804 12.5 15.7348 12.5 16C12.5 16.2652 12.6054 16.5196 12.7929 16.7071C12.9804 16.8946 13.2348 17 13.5 17H16.5Z" fill="#F5F5F5"/>
</svg>
