<svg width="22" height="16" viewBox="0 0 22 16" fill="none" xmlns="http://www.w3.org/2000/svg">
<path fill-rule="evenodd" clip-rule="evenodd" d="M10.9995 2C7.68954 2 4.99954 4.69 4.99954 8H6.78954C7.23954 8 7.45954 8.54 7.14954 8.85L4.35954 11.64C4.15954 11.84 3.84954 11.84 3.64954 11.64L0.859542 8.85C0.539542 8.54 0.759542 8 1.20954 8H2.99954C2.99954 3.58 6.57954 0 10.9995 0C12.0395 0 13.0395 0.2 13.9495 0.57C14.6195 0.84 14.7995 1.7 14.2895 2.21C14.0195 2.48 13.6095 2.59 13.2495 2.44C12.5595 2.15 11.7895 2 10.9995 2ZM14.8595 7.14L17.6495 4.35C17.8395 4.16 18.1595 4.16 18.3495 4.36L21.1395 7.15C21.4595 7.46 21.2395 8 20.7895 8H18.9995C18.9995 12.42 15.4195 16 10.9995 16C9.95951 16 8.95951 15.8 8.04951 15.43C7.37951 15.16 7.19951 14.3 7.70951 13.79C7.97951 13.52 8.38951 13.41 8.74951 13.56C9.43951 13.85 10.2095 14 10.9995 14C14.3095 14 16.9995 11.31 16.9995 8H15.2095C14.7595 8 14.5395 7.46 14.8595 7.14Z" fill="white"/>
</svg>
