<svg width="312" height="140" viewBox="0 0 312 140" fill="none" xmlns="http://www.w3.org/2000/svg">
    <rect width="312" height="140" rx="16" fill="#F5F5F5" fill-opacity="0.8"/>
    <path d="M129.75 30.5833H135.583V24.75C132.375 24.75 129.75 27.375 129.75 30.5833ZM129.75 53.9167H135.583V48.0833H129.75V53.9167ZM141.417 77.25H147.25V71.4167H141.417V77.25ZM129.75 42.25H135.583V36.4167H129.75V42.25ZM158.917 24.75H153.083V30.5833H158.917V24.75ZM176.417 24.75V30.5833H182.25C182.25 27.375 179.625 24.75 176.417 24.75ZM135.583 77.25V71.4167H129.75C129.75 74.625 132.375 77.25 135.583 77.25ZM129.75 65.5833H135.583V59.75H129.75V65.5833ZM147.25 24.75H141.417V30.5833H147.25V24.75ZM153.083 77.25H158.917V71.4167H153.083V77.25ZM176.417 53.9167H182.25V48.0833H176.417V53.9167ZM176.417 77.25C179.625 77.25 182.25 74.625 182.25 71.4167H176.417V77.25ZM176.417 42.25H182.25V36.4167H176.417V42.25ZM176.417 65.5833H182.25V59.75H176.417V65.5833ZM164.75 77.25H170.583V71.4167H164.75V77.25ZM164.75 30.5833H170.583V24.75H164.75V30.5833ZM144.333 65.5833H167.667C169.271 65.5833 170.583 64.2708 170.583 62.6667V39.3333C170.583 37.7292 169.271 36.4167 167.667 36.4167H144.333C142.729 36.4167 141.417 37.7292 141.417 39.3333V62.6667C141.417 64.2708 142.729 65.5833 144.333 65.5833ZM147.25 42.25H164.75V59.75H147.25V42.25Z" fill="#424649"/>
    <path d="M106.59 109.46C107.358 109.46 108.024 109.61 108.588 109.91C109.164 110.198 109.608 110.642 109.92 111.242C110.244 111.842 110.406 112.598 110.406 113.51V119H109.128V113.636C109.128 112.64 108.888 111.89 108.408 111.386C107.94 110.87 107.274 110.612 106.41 110.612C105.762 110.612 105.198 110.75 104.718 111.026C104.25 111.29 103.884 111.68 103.62 112.196C103.368 112.7 103.242 113.312 103.242 114.032V119H101.964V113.636C101.964 112.64 101.724 111.89 101.244 111.386C100.764 110.87 100.092 110.612 99.228 110.612C98.592 110.612 98.034 110.75 97.554 111.026C97.074 111.29 96.702 111.68 96.438 112.196C96.186 112.7 96.06 113.312 96.06 114.032V119H94.782V109.55H96.006V112.106L95.808 111.656C96.096 110.972 96.558 110.438 97.194 110.054C97.842 109.658 98.604 109.46 99.48 109.46C100.404 109.46 101.19 109.694 101.838 110.162C102.486 110.618 102.906 111.308 103.098 112.232L102.594 112.034C102.87 111.266 103.356 110.648 104.052 110.18C104.76 109.7 105.606 109.46 106.59 109.46ZM117.724 119.09C116.812 119.09 115.99 118.886 115.258 118.478C114.538 118.058 113.968 117.488 113.548 116.768C113.128 116.036 112.918 115.202 112.918 114.266C112.918 113.318 113.128 112.484 113.548 111.764C113.968 111.044 114.538 110.48 115.258 110.072C115.978 109.664 116.8 109.46 117.724 109.46C118.66 109.46 119.488 109.664 120.208 110.072C120.94 110.48 121.51 111.044 121.918 111.764C122.338 112.484 122.548 113.318 122.548 114.266C122.548 115.202 122.338 116.036 121.918 116.768C121.51 117.488 120.94 118.058 120.208 118.478C119.476 118.886 118.648 119.09 117.724 119.09ZM117.724 117.956C118.408 117.956 119.014 117.806 119.542 117.506C120.07 117.194 120.484 116.762 120.784 116.21C121.096 115.646 121.252 114.998 121.252 114.266C121.252 113.522 121.096 112.874 120.784 112.322C120.484 111.77 120.07 111.344 119.542 111.044C119.014 110.732 118.414 110.576 117.742 110.576C117.07 110.576 116.47 110.732 115.942 111.044C115.414 111.344 114.994 111.77 114.682 112.322C114.37 112.874 114.214 113.522 114.214 114.266C114.214 114.998 114.37 115.646 114.682 116.21C114.994 116.762 115.414 117.194 115.942 117.506C116.47 117.806 117.064 117.956 117.724 117.956ZM127.695 119.09C126.915 119.09 126.177 118.982 125.481 118.766C124.785 118.538 124.239 118.256 123.843 117.92L124.419 116.912C124.803 117.2 125.295 117.452 125.895 117.668C126.495 117.872 127.125 117.974 127.785 117.974C128.685 117.974 129.333 117.836 129.729 117.56C130.125 117.272 130.323 116.894 130.323 116.426C130.323 116.078 130.209 115.808 129.981 115.616C129.765 115.412 129.477 115.262 129.117 115.166C128.757 115.058 128.355 114.968 127.911 114.896C127.467 114.824 127.023 114.74 126.579 114.644C126.147 114.548 125.751 114.41 125.391 114.23C125.031 114.038 124.737 113.78 124.509 113.456C124.293 113.132 124.185 112.7 124.185 112.16C124.185 111.644 124.329 111.182 124.617 110.774C124.905 110.366 125.325 110.048 125.877 109.82C126.441 109.58 127.125 109.46 127.929 109.46C128.541 109.46 129.153 109.544 129.765 109.712C130.377 109.868 130.881 110.078 131.277 110.342L130.719 111.368C130.299 111.08 129.849 110.876 129.369 110.756C128.889 110.624 128.409 110.558 127.929 110.558C127.077 110.558 126.447 110.708 126.039 111.008C125.643 111.296 125.445 111.668 125.445 112.124C125.445 112.484 125.553 112.766 125.769 112.97C125.997 113.174 126.291 113.336 126.651 113.456C127.023 113.564 127.425 113.654 127.857 113.726C128.301 113.798 128.739 113.888 129.171 113.996C129.615 114.092 130.017 114.23 130.377 114.41C130.749 114.578 131.043 114.824 131.259 115.148C131.487 115.46 131.601 115.874 131.601 116.39C131.601 116.942 131.445 117.422 131.133 117.83C130.833 118.226 130.389 118.538 129.801 118.766C129.225 118.982 128.523 119.09 127.695 119.09ZM136.934 119.09C136.046 119.09 135.362 118.85 134.882 118.37C134.402 117.89 134.162 117.212 134.162 116.336V107.462H135.44V116.264C135.44 116.816 135.578 117.242 135.854 117.542C136.142 117.842 136.55 117.992 137.078 117.992C137.642 117.992 138.11 117.83 138.482 117.506L138.932 118.424C138.68 118.652 138.374 118.82 138.014 118.928C137.666 119.036 137.306 119.09 136.934 119.09ZM132.47 110.612V109.55H138.32V110.612H132.47ZM141.259 119V109.55H142.483V112.124L142.357 111.674C142.621 110.954 143.065 110.408 143.689 110.036C144.313 109.652 145.087 109.46 146.011 109.46V110.702C145.963 110.702 145.915 110.702 145.867 110.702C145.819 110.69 145.771 110.684 145.723 110.684C144.727 110.684 143.947 110.99 143.383 111.602C142.819 112.202 142.537 113.06 142.537 114.176V119H141.259ZM153.561 119V116.912L153.507 116.57V113.078C153.507 112.274 153.279 111.656 152.823 111.224C152.379 110.792 151.713 110.576 150.825 110.576C150.213 110.576 149.631 110.678 149.079 110.882C148.527 111.086 148.059 111.356 147.675 111.692L147.099 110.738C147.579 110.33 148.155 110.018 148.827 109.802C149.499 109.574 150.207 109.46 150.951 109.46C152.175 109.46 153.117 109.766 153.777 110.378C154.449 110.978 154.785 111.896 154.785 113.132V119H153.561ZM150.303 119.09C149.595 119.09 148.977 118.976 148.449 118.748C147.933 118.508 147.537 118.184 147.261 117.776C146.985 117.356 146.847 116.876 146.847 116.336C146.847 115.844 146.961 115.4 147.189 115.004C147.429 114.596 147.813 114.272 148.341 114.032C148.881 113.78 149.601 113.654 150.501 113.654H153.759V114.608H150.537C149.625 114.608 148.989 114.77 148.629 115.094C148.281 115.418 148.107 115.82 148.107 116.3C148.107 116.84 148.317 117.272 148.737 117.596C149.157 117.92 149.745 118.082 150.501 118.082C151.221 118.082 151.839 117.92 152.355 117.596C152.883 117.26 153.267 116.78 153.507 116.156L153.795 117.038C153.555 117.662 153.135 118.16 152.535 118.532C151.947 118.904 151.203 119.09 150.303 119.09ZM158.257 119V109.55H159.481V112.124L159.355 111.674C159.619 110.954 160.063 110.408 160.687 110.036C161.311 109.652 162.085 109.46 163.009 109.46V110.702C162.961 110.702 162.913 110.702 162.865 110.702C162.817 110.69 162.769 110.684 162.721 110.684C161.725 110.684 160.945 110.99 160.381 111.602C159.817 112.202 159.535 113.06 159.535 114.176V119H158.257ZM173.18 119.09C172.292 119.09 171.608 118.85 171.128 118.37C170.648 117.89 170.408 117.212 170.408 116.336V107.462H171.686V116.264C171.686 116.816 171.824 117.242 172.1 117.542C172.388 117.842 172.796 117.992 173.324 117.992C173.888 117.992 174.356 117.83 174.728 117.506L175.178 118.424C174.926 118.652 174.62 118.82 174.26 118.928C173.912 119.036 173.552 119.09 173.18 119.09ZM168.716 110.612V109.55H174.566V110.612H168.716ZM181.023 119.09C180.111 119.09 179.289 118.886 178.557 118.478C177.837 118.058 177.267 117.488 176.847 116.768C176.427 116.036 176.217 115.202 176.217 114.266C176.217 113.318 176.427 112.484 176.847 111.764C177.267 111.044 177.837 110.48 178.557 110.072C179.277 109.664 180.099 109.46 181.023 109.46C181.959 109.46 182.787 109.664 183.507 110.072C184.239 110.48 184.809 111.044 185.217 111.764C185.637 112.484 185.847 113.318 185.847 114.266C185.847 115.202 185.637 116.036 185.217 116.768C184.809 117.488 184.239 118.058 183.507 118.478C182.775 118.886 181.947 119.09 181.023 119.09ZM181.023 117.956C181.707 117.956 182.313 117.806 182.841 117.506C183.369 117.194 183.783 116.762 184.083 116.21C184.395 115.646 184.551 114.998 184.551 114.266C184.551 113.522 184.395 112.874 184.083 112.322C183.783 111.77 183.369 111.344 182.841 111.044C182.313 110.732 181.713 110.576 181.041 110.576C180.369 110.576 179.769 110.732 179.241 111.044C178.713 111.344 178.293 111.77 177.981 112.322C177.669 112.874 177.513 113.522 177.513 114.266C177.513 114.998 177.669 115.646 177.981 116.21C178.293 116.762 178.713 117.194 179.241 117.506C179.769 117.806 180.363 117.956 181.023 117.956ZM192.218 119.09C191.318 119.09 190.508 118.886 189.788 118.478C189.08 118.07 188.522 117.506 188.114 116.786C187.706 116.054 187.502 115.214 187.502 114.266C187.502 113.306 187.706 112.466 188.114 111.746C188.522 111.026 189.08 110.468 189.788 110.072C190.508 109.664 191.318 109.46 192.218 109.46C193.046 109.46 193.784 109.646 194.432 110.018C195.092 110.39 195.614 110.936 195.998 111.656C196.394 112.364 196.592 113.234 196.592 114.266C196.592 115.286 196.4 116.156 196.016 116.876C195.632 117.596 195.11 118.148 194.45 118.532C193.802 118.904 193.058 119.09 192.218 119.09ZM192.308 117.956C192.98 117.956 193.58 117.806 194.108 117.506C194.648 117.194 195.068 116.762 195.368 116.21C195.68 115.646 195.836 114.998 195.836 114.266C195.836 113.522 195.68 112.874 195.368 112.322C195.068 111.77 194.648 111.344 194.108 111.044C193.58 110.732 192.98 110.576 192.308 110.576C191.648 110.576 191.054 110.732 190.526 111.044C189.998 111.344 189.578 111.77 189.266 112.322C188.954 112.874 188.798 113.522 188.798 114.266C188.798 114.998 188.954 115.646 189.266 116.21C189.578 116.762 189.998 117.194 190.526 117.506C191.054 117.806 191.648 117.956 192.308 117.956ZM195.872 119V116.156L195.998 114.248L195.818 112.34V105.644H197.096V119H195.872ZM204.507 119.09C203.595 119.09 202.773 118.886 202.041 118.478C201.321 118.058 200.751 117.488 200.331 116.768C199.911 116.036 199.701 115.202 199.701 114.266C199.701 113.318 199.911 112.484 200.331 111.764C200.751 111.044 201.321 110.48 202.041 110.072C202.761 109.664 203.583 109.46 204.507 109.46C205.443 109.46 206.271 109.664 206.991 110.072C207.723 110.48 208.293 111.044 208.701 111.764C209.121 112.484 209.331 113.318 209.331 114.266C209.331 115.202 209.121 116.036 208.701 116.768C208.293 117.488 207.723 118.058 206.991 118.478C206.259 118.886 205.431 119.09 204.507 119.09ZM204.507 117.956C205.191 117.956 205.797 117.806 206.325 117.506C206.853 117.194 207.267 116.762 207.567 116.21C207.879 115.646 208.035 114.998 208.035 114.266C208.035 113.522 207.879 112.874 207.567 112.322C207.267 111.77 206.853 111.344 206.325 111.044C205.797 110.732 205.197 110.576 204.525 110.576C203.853 110.576 203.253 110.732 202.725 111.044C202.197 111.344 201.777 111.77 201.465 112.322C201.153 112.874 200.997 113.522 200.997 114.266C200.997 114.998 201.153 115.646 201.465 116.21C201.777 116.762 202.197 117.194 202.725 117.506C203.253 117.806 203.847 117.956 204.507 117.956ZM214.478 119.09C213.698 119.09 212.96 118.982 212.264 118.766C211.568 118.538 211.022 118.256 210.626 117.92L211.202 116.912C211.586 117.2 212.078 117.452 212.678 117.668C213.278 117.872 213.908 117.974 214.568 117.974C215.468 117.974 216.116 117.836 216.512 117.56C216.908 117.272 217.106 116.894 217.106 116.426C217.106 116.078 216.992 115.808 216.764 115.616C216.548 115.412 216.26 115.262 215.9 115.166C215.54 115.058 215.138 114.968 214.694 114.896C214.25 114.824 213.806 114.74 213.362 114.644C212.93 114.548 212.534 114.41 212.174 114.23C211.814 114.038 211.52 113.78 211.292 113.456C211.076 113.132 210.968 112.7 210.968 112.16C210.968 111.644 211.112 111.182 211.4 110.774C211.688 110.366 212.108 110.048 212.66 109.82C213.224 109.58 213.908 109.46 214.712 109.46C215.324 109.46 215.936 109.544 216.548 109.712C217.16 109.868 217.664 110.078 218.06 110.342L217.502 111.368C217.082 111.08 216.632 110.876 216.152 110.756C215.672 110.624 215.192 110.558 214.712 110.558C213.86 110.558 213.23 110.708 212.822 111.008C212.426 111.296 212.228 111.668 212.228 112.124C212.228 112.484 212.336 112.766 212.552 112.97C212.78 113.174 213.074 113.336 213.434 113.456C213.806 113.564 214.208 113.654 214.64 113.726C215.084 113.798 215.522 113.888 215.954 113.996C216.398 114.092 216.8 114.23 217.16 114.41C217.532 114.578 217.826 114.824 218.042 115.148C218.27 115.46 218.384 115.874 218.384 116.39C218.384 116.942 218.228 117.422 217.916 117.83C217.616 118.226 217.172 118.538 216.584 118.766C216.008 118.982 215.306 119.09 214.478 119.09Z" fill="#424649"/>
    </svg>
    