<svg width="312" height="140" viewBox="0 0 312 140" fill="none" xmlns="http://www.w3.org/2000/svg">
    <rect width="312" height="140" rx="16" fill="#F5F5F5" fill-opacity="0.8"/>
    <path d="M182.25 59.75H177.477V65.5833H182.25V59.75ZM182.25 48.0833H177.477V53.9167H182.25V48.0833ZM182.25 71.4167H177.477V77.25C179.864 77.25 182.25 74.3333 182.25 71.4167ZM163.159 24.75H158.386V30.5833H163.159V24.75ZM182.25 36.4167H177.477V42.25H182.25V36.4167ZM177.477 24.75V30.5833H182.25C182.25 27.6667 179.864 24.75 177.477 24.75ZM134.523 77.25H153.614V65.5833C153.614 62.375 151.466 59.75 148.841 59.75H129.75V71.4167C129.75 74.625 131.898 77.25 134.523 77.25ZM134.523 36.4167H129.75V42.25H134.523V36.4167ZM163.159 71.4167H158.386V77.25H163.159V71.4167ZM172.705 24.75H167.932V30.5833H172.705V24.75ZM172.705 71.4167H167.932V77.25H172.705V71.4167ZM134.523 24.75C132.136 24.75 129.75 27.6667 129.75 30.5833H134.523V24.75ZM134.523 48.0833H129.75V53.9167H134.523V48.0833ZM153.614 24.75H148.841V30.5833H153.614V24.75ZM144.068 24.75H139.295V30.5833H144.068V24.75Z" fill="#424649"/>
    <path d="M49.32 119.09C48.54 119.09 47.802 118.982 47.106 118.766C46.41 118.538 45.864 118.256 45.468 117.92L46.044 116.912C46.428 117.2 46.92 117.452 47.52 117.668C48.12 117.872 48.75 117.974 49.41 117.974C50.31 117.974 50.958 117.836 51.354 117.56C51.75 117.272 51.948 116.894 51.948 116.426C51.948 116.078 51.834 115.808 51.606 115.616C51.39 115.412 51.102 115.262 50.742 115.166C50.382 115.058 49.98 114.968 49.536 114.896C49.092 114.824 48.648 114.74 48.204 114.644C47.772 114.548 47.376 114.41 47.016 114.23C46.656 114.038 46.362 113.78 46.134 113.456C45.918 113.132 45.81 112.7 45.81 112.16C45.81 111.644 45.954 111.182 46.242 110.774C46.53 110.366 46.95 110.048 47.502 109.82C48.066 109.58 48.75 109.46 49.554 109.46C50.166 109.46 50.778 109.544 51.39 109.712C52.002 109.868 52.506 110.078 52.902 110.342L52.344 111.368C51.924 111.08 51.474 110.876 50.994 110.756C50.514 110.624 50.034 110.558 49.554 110.558C48.702 110.558 48.072 110.708 47.664 111.008C47.268 111.296 47.07 111.668 47.07 112.124C47.07 112.484 47.178 112.766 47.394 112.97C47.622 113.174 47.916 113.336 48.276 113.456C48.648 113.564 49.05 113.654 49.482 113.726C49.926 113.798 50.364 113.888 50.796 113.996C51.24 114.092 51.642 114.23 52.002 114.41C52.374 114.578 52.668 114.824 52.884 115.148C53.112 115.46 53.226 115.874 53.226 116.39C53.226 116.942 53.07 117.422 52.758 117.83C52.458 118.226 52.014 118.538 51.426 118.766C50.85 118.982 50.148 119.09 49.32 119.09ZM59.5851 119.09C58.6011 119.09 57.7371 118.886 56.9931 118.478C56.2491 118.058 55.6671 117.488 55.2471 116.768C54.8271 116.036 54.6171 115.202 54.6171 114.266C54.6171 113.33 54.8151 112.502 55.2111 111.782C55.6191 111.062 56.1711 110.498 56.8671 110.09C57.5751 109.67 58.3671 109.46 59.2431 109.46C60.1311 109.46 60.9171 109.664 61.6011 110.072C62.2971 110.468 62.8431 111.032 63.2391 111.764C63.6351 112.484 63.8331 113.318 63.8331 114.266C63.8331 114.326 63.8271 114.392 63.8151 114.464C63.8151 114.524 63.8151 114.59 63.8151 114.662H55.5891V113.708H63.1311L62.6271 114.086C62.6271 113.402 62.4771 112.796 62.1771 112.268C61.8891 111.728 61.4931 111.308 60.9891 111.008C60.4851 110.708 59.9031 110.558 59.2431 110.558C58.5951 110.558 58.0131 110.708 57.4971 111.008C56.9811 111.308 56.5791 111.728 56.2911 112.268C56.0031 112.808 55.8591 113.426 55.8591 114.122V114.32C55.8591 115.04 56.0151 115.676 56.3271 116.228C56.6511 116.768 57.0951 117.194 57.6591 117.506C58.2351 117.806 58.8891 117.956 59.6211 117.956C60.1971 117.956 60.7311 117.854 61.2231 117.65C61.7271 117.446 62.1591 117.134 62.5191 116.714L63.2391 117.542C62.8191 118.046 62.2911 118.43 61.6551 118.694C61.0311 118.958 60.3411 119.09 59.5851 119.09ZM66.4343 119V105.644H67.7123V119H66.4343ZM75.2823 119.09C74.2983 119.09 73.4343 118.886 72.6903 118.478C71.9463 118.058 71.3643 117.488 70.9443 116.768C70.5243 116.036 70.3143 115.202 70.3143 114.266C70.3143 113.33 70.5123 112.502 70.9083 111.782C71.3163 111.062 71.8683 110.498 72.5643 110.09C73.2723 109.67 74.0643 109.46 74.9403 109.46C75.8283 109.46 76.6143 109.664 77.2983 110.072C77.9943 110.468 78.5403 111.032 78.9363 111.764C79.3323 112.484 79.5303 113.318 79.5303 114.266C79.5303 114.326 79.5243 114.392 79.5123 114.464C79.5123 114.524 79.5123 114.59 79.5123 114.662H71.2863V113.708H78.8283L78.3243 114.086C78.3243 113.402 78.1743 112.796 77.8743 112.268C77.5863 111.728 77.1903 111.308 76.6863 111.008C76.1823 110.708 75.6003 110.558 74.9403 110.558C74.2923 110.558 73.7103 110.708 73.1943 111.008C72.6783 111.308 72.2763 111.728 71.9883 112.268C71.7003 112.808 71.5563 113.426 71.5563 114.122V114.32C71.5563 115.04 71.7123 115.676 72.0243 116.228C72.3483 116.768 72.7923 117.194 73.3563 117.506C73.9323 117.806 74.5863 117.956 75.3183 117.956C75.8943 117.956 76.4283 117.854 76.9203 117.65C77.4243 117.446 77.8563 117.134 78.2163 116.714L78.9363 117.542C78.5163 118.046 77.9883 118.43 77.3523 118.694C76.7283 118.958 76.0383 119.09 75.2823 119.09ZM86.0556 119.09C85.1196 119.09 84.2796 118.886 83.5356 118.478C82.8036 118.058 82.2276 117.488 81.8076 116.768C81.3876 116.036 81.1776 115.202 81.1776 114.266C81.1776 113.318 81.3876 112.484 81.8076 111.764C82.2276 111.044 82.8036 110.48 83.5356 110.072C84.2796 109.664 85.1196 109.46 86.0556 109.46C86.8596 109.46 87.5856 109.616 88.2336 109.928C88.8816 110.24 89.3916 110.708 89.7636 111.332L88.8096 111.98C88.4856 111.5 88.0836 111.146 87.6036 110.918C87.1236 110.69 86.6016 110.576 86.0376 110.576C85.3656 110.576 84.7596 110.732 84.2196 111.044C83.6796 111.344 83.2536 111.77 82.9416 112.322C82.6296 112.874 82.4736 113.522 82.4736 114.266C82.4736 115.01 82.6296 115.658 82.9416 116.21C83.2536 116.762 83.6796 117.194 84.2196 117.506C84.7596 117.806 85.3656 117.956 86.0376 117.956C86.6016 117.956 87.1236 117.842 87.6036 117.614C88.0836 117.386 88.4856 117.038 88.8096 116.57L89.7636 117.218C89.3916 117.83 88.8816 118.298 88.2336 118.622C87.5856 118.934 86.8596 119.09 86.0556 119.09ZM96.04 119.09C95.104 119.09 94.264 118.886 93.52 118.478C92.788 118.058 92.212 117.488 91.792 116.768C91.372 116.036 91.162 115.202 91.162 114.266C91.162 113.318 91.372 112.484 91.792 111.764C92.212 111.044 92.788 110.48 93.52 110.072C94.264 109.664 95.104 109.46 96.04 109.46C96.844 109.46 97.57 109.616 98.218 109.928C98.866 110.24 99.376 110.708 99.748 111.332L98.794 111.98C98.47 111.5 98.068 111.146 97.588 110.918C97.108 110.69 96.586 110.576 96.022 110.576C95.35 110.576 94.744 110.732 94.204 111.044C93.664 111.344 93.238 111.77 92.926 112.322C92.614 112.874 92.458 113.522 92.458 114.266C92.458 115.01 92.614 115.658 92.926 116.21C93.238 116.762 93.664 117.194 94.204 117.506C94.744 117.806 95.35 117.956 96.022 117.956C96.586 117.956 97.108 117.842 97.588 117.614C98.068 117.386 98.47 117.038 98.794 116.57L99.748 117.218C99.376 117.83 98.866 118.298 98.218 118.622C97.57 118.934 96.844 119.09 96.04 119.09ZM102.118 119V109.55H103.396V119H102.118ZM102.766 107.462C102.502 107.462 102.28 107.372 102.1 107.192C101.92 107.012 101.83 106.796 101.83 106.544C101.83 106.292 101.92 106.082 102.1 105.914C102.28 105.734 102.502 105.644 102.766 105.644C103.03 105.644 103.252 105.728 103.432 105.896C103.612 106.064 103.702 106.274 103.702 106.526C103.702 106.79 103.612 107.012 103.432 107.192C103.264 107.372 103.042 107.462 102.766 107.462ZM110.804 119.09C109.892 119.09 109.07 118.886 108.338 118.478C107.618 118.058 107.048 117.488 106.628 116.768C106.208 116.036 105.998 115.202 105.998 114.266C105.998 113.318 106.208 112.484 106.628 111.764C107.048 111.044 107.618 110.48 108.338 110.072C109.058 109.664 109.88 109.46 110.804 109.46C111.74 109.46 112.568 109.664 113.288 110.072C114.02 110.48 114.59 111.044 114.998 111.764C115.418 112.484 115.628 113.318 115.628 114.266C115.628 115.202 115.418 116.036 114.998 116.768C114.59 117.488 114.02 118.058 113.288 118.478C112.556 118.886 111.728 119.09 110.804 119.09ZM110.804 117.956C111.488 117.956 112.094 117.806 112.622 117.506C113.15 117.194 113.564 116.762 113.864 116.21C114.176 115.646 114.332 114.998 114.332 114.266C114.332 113.522 114.176 112.874 113.864 112.322C113.564 111.77 113.15 111.344 112.622 111.044C112.094 110.732 111.494 110.576 110.822 110.576C110.15 110.576 109.55 110.732 109.022 111.044C108.494 111.344 108.074 111.77 107.762 112.322C107.45 112.874 107.294 113.522 107.294 114.266C107.294 114.998 107.45 115.646 107.762 116.21C108.074 116.762 108.494 117.194 109.022 117.506C109.55 117.806 110.144 117.956 110.804 117.956ZM123.061 109.46C123.829 109.46 124.501 109.61 125.077 109.91C125.665 110.198 126.121 110.642 126.445 111.242C126.781 111.842 126.949 112.598 126.949 113.51V119H125.671V113.636C125.671 112.64 125.419 111.89 124.915 111.386C124.423 110.87 123.727 110.612 122.827 110.612C122.155 110.612 121.567 110.75 121.063 111.026C120.571 111.29 120.187 111.68 119.911 112.196C119.647 112.7 119.515 113.312 119.515 114.032V119H118.237V109.55H119.461V112.142L119.263 111.656C119.563 110.972 120.043 110.438 120.703 110.054C121.363 109.658 122.149 109.46 123.061 109.46ZM136.323 119V116.912L136.269 116.57V113.078C136.269 112.274 136.041 111.656 135.585 111.224C135.141 110.792 134.475 110.576 133.587 110.576C132.975 110.576 132.393 110.678 131.841 110.882C131.289 111.086 130.821 111.356 130.437 111.692L129.861 110.738C130.341 110.33 130.917 110.018 131.589 109.802C132.261 109.574 132.969 109.46 133.713 109.46C134.937 109.46 135.879 109.766 136.539 110.378C137.211 110.978 137.547 111.896 137.547 113.132V119H136.323ZM133.065 119.09C132.357 119.09 131.739 118.976 131.211 118.748C130.695 118.508 130.299 118.184 130.023 117.776C129.747 117.356 129.609 116.876 129.609 116.336C129.609 115.844 129.723 115.4 129.951 115.004C130.191 114.596 130.575 114.272 131.103 114.032C131.643 113.78 132.363 113.654 133.263 113.654H136.521V114.608H133.299C132.387 114.608 131.751 114.77 131.391 115.094C131.043 115.418 130.869 115.82 130.869 116.3C130.869 116.84 131.079 117.272 131.499 117.596C131.919 117.92 132.507 118.082 133.263 118.082C133.983 118.082 134.601 117.92 135.117 117.596C135.645 117.26 136.029 116.78 136.269 116.156L136.557 117.038C136.317 117.662 135.897 118.16 135.297 118.532C134.709 118.904 133.965 119.09 133.065 119.09ZM141.018 119V109.55H142.242V112.124L142.116 111.674C142.38 110.954 142.824 110.408 143.448 110.036C144.072 109.652 144.846 109.46 145.77 109.46V110.702C145.722 110.702 145.674 110.702 145.626 110.702C145.578 110.69 145.53 110.684 145.482 110.684C144.486 110.684 143.706 110.99 143.142 111.602C142.578 112.202 142.296 113.06 142.296 114.176V119H141.018ZM157.832 119.09C157.016 119.09 156.278 118.904 155.618 118.532C154.958 118.148 154.43 117.602 154.034 116.894C153.65 116.174 153.458 115.298 153.458 114.266C153.458 113.234 153.65 112.364 154.034 111.656C154.418 110.936 154.94 110.39 155.6 110.018C156.26 109.646 157.004 109.46 157.832 109.46C158.732 109.46 159.536 109.664 160.244 110.072C160.964 110.468 161.528 111.032 161.936 111.764C162.344 112.484 162.548 113.318 162.548 114.266C162.548 115.226 162.344 116.066 161.936 116.786C161.528 117.506 160.964 118.07 160.244 118.478C159.536 118.886 158.732 119.09 157.832 119.09ZM152.954 122.492V109.55H154.178V112.394L154.052 114.284L154.232 116.192V122.492H152.954ZM157.742 117.956C158.414 117.956 159.014 117.806 159.542 117.506C160.07 117.194 160.49 116.762 160.802 116.21C161.114 115.646 161.27 114.998 161.27 114.266C161.27 113.534 161.114 112.892 160.802 112.34C160.49 111.788 160.07 111.356 159.542 111.044C159.014 110.732 158.414 110.576 157.742 110.576C157.07 110.576 156.464 110.732 155.924 111.044C155.396 111.356 154.976 111.788 154.664 112.34C154.364 112.892 154.214 113.534 154.214 114.266C154.214 114.998 154.364 115.646 154.664 116.21C154.976 116.762 155.396 117.194 155.924 117.506C156.464 117.806 157.07 117.956 157.742 117.956ZM171.022 119V116.912L170.968 116.57V113.078C170.968 112.274 170.74 111.656 170.284 111.224C169.84 110.792 169.174 110.576 168.286 110.576C167.674 110.576 167.092 110.678 166.54 110.882C165.988 111.086 165.52 111.356 165.136 111.692L164.56 110.738C165.04 110.33 165.616 110.018 166.288 109.802C166.96 109.574 167.668 109.46 168.412 109.46C169.636 109.46 170.578 109.766 171.238 110.378C171.91 110.978 172.246 111.896 172.246 113.132V119H171.022ZM167.764 119.09C167.056 119.09 166.438 118.976 165.91 118.748C165.394 118.508 164.998 118.184 164.722 117.776C164.446 117.356 164.308 116.876 164.308 116.336C164.308 115.844 164.422 115.4 164.65 115.004C164.89 114.596 165.274 114.272 165.802 114.032C166.342 113.78 167.062 113.654 167.962 113.654H171.22V114.608H167.998C167.086 114.608 166.45 114.77 166.09 115.094C165.742 115.418 165.568 115.82 165.568 116.3C165.568 116.84 165.778 117.272 166.198 117.596C166.618 117.92 167.206 118.082 167.962 118.082C168.682 118.082 169.3 117.92 169.816 117.596C170.344 117.26 170.728 116.78 170.968 116.156L171.256 117.038C171.016 117.662 170.596 118.16 169.996 118.532C169.408 118.904 168.664 119.09 167.764 119.09ZM175.718 119V109.55H176.942V112.124L176.816 111.674C177.08 110.954 177.524 110.408 178.148 110.036C178.772 109.652 179.546 109.46 180.47 109.46V110.702C180.422 110.702 180.374 110.702 180.326 110.702C180.278 110.69 180.23 110.684 180.182 110.684C179.186 110.684 178.406 110.99 177.842 111.602C177.278 112.202 176.996 113.06 176.996 114.176V119H175.718ZM188.02 119V116.912L187.966 116.57V113.078C187.966 112.274 187.738 111.656 187.282 111.224C186.838 110.792 186.172 110.576 185.284 110.576C184.672 110.576 184.09 110.678 183.538 110.882C182.986 111.086 182.518 111.356 182.134 111.692L181.558 110.738C182.038 110.33 182.614 110.018 183.286 109.802C183.958 109.574 184.666 109.46 185.41 109.46C186.634 109.46 187.576 109.766 188.236 110.378C188.908 110.978 189.244 111.896 189.244 113.132V119H188.02ZM184.762 119.09C184.054 119.09 183.436 118.976 182.908 118.748C182.392 118.508 181.996 118.184 181.72 117.776C181.444 117.356 181.306 116.876 181.306 116.336C181.306 115.844 181.42 115.4 181.648 115.004C181.888 114.596 182.272 114.272 182.8 114.032C183.34 113.78 184.06 113.654 184.96 113.654H188.218V114.608H184.996C184.084 114.608 183.448 114.77 183.088 115.094C182.74 115.418 182.566 115.82 182.566 116.3C182.566 116.84 182.776 117.272 183.196 117.596C183.616 117.92 184.204 118.082 184.96 118.082C185.68 118.082 186.298 117.92 186.814 117.596C187.342 117.26 187.726 116.78 187.966 116.156L188.254 117.038C188.014 117.662 187.594 118.16 186.994 118.532C186.406 118.904 185.662 119.09 184.762 119.09ZM209.235 109.46C210.003 109.46 210.669 109.61 211.233 109.91C211.809 110.198 212.253 110.642 212.565 111.242C212.889 111.842 213.051 112.598 213.051 113.51V119H211.773V113.636C211.773 112.64 211.533 111.89 211.053 111.386C210.585 110.87 209.919 110.612 209.055 110.612C208.407 110.612 207.843 110.75 207.363 111.026C206.895 111.29 206.529 111.68 206.265 112.196C206.013 112.7 205.887 113.312 205.887 114.032V119H204.609V113.636C204.609 112.64 204.369 111.89 203.889 111.386C203.409 110.87 202.737 110.612 201.873 110.612C201.237 110.612 200.679 110.75 200.199 111.026C199.719 111.29 199.347 111.68 199.083 112.196C198.831 112.7 198.705 113.312 198.705 114.032V119H197.427V109.55H198.651V112.106L198.453 111.656C198.741 110.972 199.203 110.438 199.839 110.054C200.487 109.658 201.249 109.46 202.125 109.46C203.049 109.46 203.835 109.694 204.483 110.162C205.131 110.618 205.551 111.308 205.743 112.232L205.239 112.034C205.515 111.266 206.001 110.648 206.697 110.18C207.405 109.7 208.251 109.46 209.235 109.46ZM220.368 119.09C219.456 119.09 218.634 118.886 217.902 118.478C217.182 118.058 216.612 117.488 216.192 116.768C215.772 116.036 215.562 115.202 215.562 114.266C215.562 113.318 215.772 112.484 216.192 111.764C216.612 111.044 217.182 110.48 217.902 110.072C218.622 109.664 219.444 109.46 220.368 109.46C221.304 109.46 222.132 109.664 222.852 110.072C223.584 110.48 224.154 111.044 224.562 111.764C224.982 112.484 225.192 113.318 225.192 114.266C225.192 115.202 224.982 116.036 224.562 116.768C224.154 117.488 223.584 118.058 222.852 118.478C222.12 118.886 221.292 119.09 220.368 119.09ZM220.368 117.956C221.052 117.956 221.658 117.806 222.186 117.506C222.714 117.194 223.128 116.762 223.428 116.21C223.74 115.646 223.896 114.998 223.896 114.266C223.896 113.522 223.74 112.874 223.428 112.322C223.128 111.77 222.714 111.344 222.186 111.044C221.658 110.732 221.058 110.576 220.386 110.576C219.714 110.576 219.114 110.732 218.586 111.044C218.058 111.344 217.638 111.77 217.326 112.322C217.014 112.874 216.858 113.522 216.858 114.266C216.858 114.998 217.014 115.646 217.326 116.21C217.638 116.762 218.058 117.194 218.586 117.506C219.114 117.806 219.708 117.956 220.368 117.956ZM230.34 119.09C229.56 119.09 228.822 118.982 228.126 118.766C227.43 118.538 226.884 118.256 226.488 117.92L227.064 116.912C227.448 117.2 227.94 117.452 228.54 117.668C229.14 117.872 229.77 117.974 230.43 117.974C231.33 117.974 231.978 117.836 232.374 117.56C232.77 117.272 232.968 116.894 232.968 116.426C232.968 116.078 232.854 115.808 232.626 115.616C232.41 115.412 232.122 115.262 231.762 115.166C231.402 115.058 231 114.968 230.556 114.896C230.112 114.824 229.668 114.74 229.224 114.644C228.792 114.548 228.396 114.41 228.036 114.23C227.676 114.038 227.382 113.78 227.154 113.456C226.938 113.132 226.83 112.7 226.83 112.16C226.83 111.644 226.974 111.182 227.262 110.774C227.55 110.366 227.97 110.048 228.522 109.82C229.086 109.58 229.77 109.46 230.574 109.46C231.186 109.46 231.798 109.544 232.41 109.712C233.022 109.868 233.526 110.078 233.922 110.342L233.364 111.368C232.944 111.08 232.494 110.876 232.014 110.756C231.534 110.624 231.054 110.558 230.574 110.558C229.722 110.558 229.092 110.708 228.684 111.008C228.288 111.296 228.09 111.668 228.09 112.124C228.09 112.484 228.198 112.766 228.414 112.97C228.642 113.174 228.936 113.336 229.296 113.456C229.668 113.564 230.07 113.654 230.502 113.726C230.946 113.798 231.384 113.888 231.816 113.996C232.26 114.092 232.662 114.23 233.022 114.41C233.394 114.578 233.688 114.824 233.904 115.148C234.132 115.46 234.246 115.874 234.246 116.39C234.246 116.942 234.09 117.422 233.778 117.83C233.478 118.226 233.034 118.538 232.446 118.766C231.87 118.982 231.168 119.09 230.34 119.09ZM239.579 119.09C238.691 119.09 238.007 118.85 237.527 118.37C237.047 117.89 236.807 117.212 236.807 116.336V107.462H238.085V116.264C238.085 116.816 238.223 117.242 238.499 117.542C238.787 117.842 239.195 117.992 239.723 117.992C240.287 117.992 240.755 117.83 241.127 117.506L241.577 118.424C241.325 118.652 241.019 118.82 240.659 118.928C240.311 119.036 239.951 119.09 239.579 119.09ZM235.115 110.612V109.55H240.965V110.612H235.115ZM243.903 119V109.55H245.127V112.124L245.001 111.674C245.265 110.954 245.709 110.408 246.333 110.036C246.957 109.652 247.731 109.46 248.655 109.46V110.702C248.607 110.702 248.559 110.702 248.511 110.702C248.463 110.69 248.415 110.684 248.367 110.684C247.371 110.684 246.591 110.99 246.027 111.602C245.463 112.202 245.181 113.06 245.181 114.176V119H243.903ZM256.206 119V116.912L256.152 116.57V113.078C256.152 112.274 255.924 111.656 255.468 111.224C255.024 110.792 254.358 110.576 253.47 110.576C252.858 110.576 252.276 110.678 251.724 110.882C251.172 111.086 250.704 111.356 250.32 111.692L249.744 110.738C250.224 110.33 250.8 110.018 251.472 109.802C252.144 109.574 252.852 109.46 253.596 109.46C254.82 109.46 255.762 109.766 256.422 110.378C257.094 110.978 257.43 111.896 257.43 113.132V119H256.206ZM252.948 119.09C252.24 119.09 251.622 118.976 251.094 118.748C250.578 118.508 250.182 118.184 249.906 117.776C249.63 117.356 249.492 116.876 249.492 116.336C249.492 115.844 249.606 115.4 249.834 115.004C250.074 114.596 250.458 114.272 250.986 114.032C251.526 113.78 252.246 113.654 253.146 113.654H256.404V114.608H253.182C252.27 114.608 251.634 114.77 251.274 115.094C250.926 115.418 250.752 115.82 250.752 116.3C250.752 116.84 250.962 117.272 251.382 117.596C251.802 117.92 252.39 118.082 253.146 118.082C253.866 118.082 254.484 117.92 255 117.596C255.528 117.26 255.912 116.78 256.152 116.156L256.44 117.038C256.2 117.662 255.78 118.16 255.18 118.532C254.592 118.904 253.848 119.09 252.948 119.09ZM260.901 119V109.55H262.125V112.124L261.999 111.674C262.263 110.954 262.707 110.408 263.331 110.036C263.955 109.652 264.729 109.46 265.653 109.46V110.702C265.605 110.702 265.557 110.702 265.509 110.702C265.461 110.69 265.413 110.684 265.365 110.684C264.369 110.684 263.589 110.99 263.025 111.602C262.461 112.202 262.179 113.06 262.179 114.176V119H260.901Z" fill="#424649"/>
    </svg>
    