<svg width="198" height="42" viewBox="0 0 198 42" fill="none" xmlns="http://www.w3.org/2000/svg">
<rect width="198" height="42" rx="16" fill="white"/>
<g clip-path="url(#clip0_5592_40221)">
<path d="M26 10.5V12H27.5V16.5C27.5 17.2956 27.1839 18.0587 26.6213 18.6213C26.0587 19.1839 25.2957 19.5 24.5 19.5C23.7044 19.5 22.9413 19.1839 22.3787 18.6213C21.8161 18.0587 21.5 17.2956 21.5 16.5V12H23V10.5H20V16.5C20.0018 17.5624 20.3792 18.59 21.0654 19.4012C21.7517 20.2123 22.7025 20.7547 23.75 20.9325V25.5C23.75 26.6935 23.2759 27.8381 22.432 28.682C21.5881 29.5259 20.4435 30 19.25 30C18.0565 30 16.9119 29.5259 16.068 28.682C15.2241 27.8381 14.75 26.6935 14.75 25.5V20.8934C15.457 20.7109 16.0731 20.2768 16.483 19.6724C16.8928 19.0681 17.0681 18.335 16.9761 17.6107C16.8841 16.8863 16.5311 16.2204 15.9832 15.7377C15.4353 15.255 14.7302 14.9887 14 14.9887C13.2698 14.9887 12.5647 15.255 12.0168 15.7377C11.469 16.2204 11.1159 16.8863 11.0239 17.6107C10.9319 18.335 11.1072 19.0681 11.5171 19.6724C11.9269 20.2768 12.543 20.7109 13.25 20.8934V25.5C13.25 27.0913 13.8821 28.6174 15.0074 29.7426C16.1326 30.8679 17.6587 31.5 19.25 31.5C20.8413 31.5 22.3674 30.8679 23.4926 29.7426C24.6179 28.6174 25.25 27.0913 25.25 25.5V20.9325C26.2975 20.7547 27.2483 20.2123 27.9346 19.4012C28.6208 18.59 28.9982 17.5624 29 16.5V10.5H26ZM12.5 18C12.5 17.7033 12.588 17.4133 12.7528 17.1666C12.9176 16.92 13.1519 16.7277 13.426 16.6142C13.7001 16.5006 14.0017 16.4709 14.2926 16.5288C14.5836 16.5867 14.8509 16.7296 15.0607 16.9393C15.2704 17.1491 15.4133 17.4164 15.4712 17.7074C15.5291 17.9983 15.4994 18.2999 15.3858 18.574C15.2723 18.8481 15.08 19.0824 14.8334 19.2472C14.5867 19.412 14.2967 19.5 14 19.5C13.6023 19.4995 13.2211 19.3414 12.9399 19.0602C12.6586 18.7789 12.5005 18.3977 12.5 18Z" fill="#DF6D51"/>
</g>
<path d="M42.6719 18.4929C42.6188 18.0223 42.4001 17.6577 42.0156 17.3991C41.6312 17.1373 41.1473 17.0064 40.5639 17.0064C40.1463 17.0064 39.785 17.0727 39.4801 17.2053C39.1752 17.3345 38.9382 17.5135 38.7692 17.7422C38.6035 17.9676 38.5206 18.2244 38.5206 18.5128C38.5206 18.7547 38.5769 18.9635 38.6896 19.1392C38.8056 19.3149 38.9564 19.4624 39.142 19.5817C39.331 19.6977 39.5331 19.7955 39.7486 19.875C39.964 19.9512 40.1712 20.0142 40.37 20.0639L41.3643 20.3224C41.6892 20.402 42.0223 20.5097 42.3636 20.6456C42.705 20.7815 43.0215 20.9605 43.3132 21.1825C43.6049 21.4046 43.8402 21.6797 44.0192 22.0078C44.2015 22.3359 44.2926 22.7287 44.2926 23.1861C44.2926 23.7628 44.1435 24.2749 43.8452 24.7223C43.5502 25.1697 43.121 25.5227 42.5575 25.7812C41.9974 26.0398 41.3196 26.169 40.5241 26.169C39.7618 26.169 39.1023 26.0481 38.5455 25.8061C37.9886 25.5642 37.5528 25.2211 37.2379 24.777C36.9231 24.3295 36.7491 23.7992 36.7159 23.1861H38.2571C38.2869 23.554 38.4063 23.8606 38.6151 24.1058C38.8272 24.3478 39.0973 24.5284 39.4254 24.6477C39.7569 24.7637 40.1198 24.8217 40.5142 24.8217C40.9484 24.8217 41.3345 24.7538 41.6726 24.6179C42.014 24.4787 42.2824 24.2865 42.478 24.0412C42.6735 23.7926 42.7713 23.5026 42.7713 23.1712C42.7713 22.8696 42.6851 22.6226 42.5128 22.4304C42.3438 22.2382 42.1134 22.0791 41.8217 21.9531C41.5334 21.8272 41.2069 21.7161 40.8423 21.62L39.6392 21.2919C38.8239 21.0698 38.1776 20.7434 37.7003 20.3125C37.2263 19.8816 36.9893 19.3116 36.9893 18.6023C36.9893 18.0156 37.1484 17.5036 37.4666 17.0661C37.7848 16.6286 38.2157 16.2888 38.7592 16.0469C39.3028 15.8016 39.916 15.679 40.5987 15.679C41.2881 15.679 41.8963 15.8 42.4233 16.0419C42.9536 16.2839 43.3712 16.617 43.6761 17.0412C43.9811 17.4621 44.1402 17.946 44.1534 18.4929H42.6719ZM50.8464 22.8331V18.3636H52.3379V26H50.8762V24.6776H50.7967C50.621 25.0852 50.3393 25.425 49.9515 25.6967C49.5671 25.9652 49.0881 26.0994 48.5147 26.0994C48.0242 26.0994 47.59 25.9917 47.2122 25.7763C46.8377 25.5575 46.5427 25.2344 46.3272 24.8068C46.1151 24.3793 46.0091 23.8506 46.0091 23.2209V18.3636H47.4956V23.0419C47.4956 23.5623 47.6397 23.9766 47.9281 24.2848C48.2164 24.593 48.591 24.7472 49.0517 24.7472C49.3301 24.7472 49.6068 24.6776 49.8819 24.5384C50.1603 24.3991 50.3907 24.1887 50.573 23.907C50.7586 23.6252 50.8497 23.2673 50.8464 22.8331ZM54.4545 26V15.8182H55.9411V19.6016H56.0305C56.1167 19.4425 56.241 19.2585 56.4034 19.0497C56.5658 18.8409 56.7912 18.6586 57.0795 18.5028C57.3679 18.3438 57.7491 18.2642 58.223 18.2642C58.8395 18.2642 59.3897 18.42 59.8736 18.7315C60.3575 19.0431 60.737 19.4922 61.0121 20.0788C61.2905 20.6655 61.4297 21.3714 61.4297 22.1967C61.4297 23.022 61.2921 23.7296 61.017 24.3196C60.742 24.9062 60.3641 25.3587 59.8835 25.6768C59.4029 25.9917 58.8544 26.1491 58.2379 26.1491C57.7739 26.1491 57.3944 26.0713 57.0994 25.9155C56.8078 25.7597 56.5791 25.5774 56.4134 25.3686C56.2476 25.1598 56.12 24.9742 56.0305 24.8118H55.9062V26H54.4545ZM55.9112 22.1818C55.9112 22.7187 55.9891 23.1894 56.1449 23.5938C56.3007 23.9981 56.526 24.3146 56.821 24.5433C57.116 24.7687 57.4773 24.8814 57.9048 24.8814C58.349 24.8814 58.7202 24.7637 59.0185 24.5284C59.3168 24.2898 59.5421 23.9666 59.6946 23.5589C59.8504 23.1513 59.9283 22.6922 59.9283 22.1818C59.9283 21.678 59.852 21.2256 59.6996 20.8246C59.5504 20.4235 59.325 20.107 59.0234 19.875C58.7251 19.643 58.3523 19.527 57.9048 19.527C57.474 19.527 57.1094 19.638 56.8111 19.8601C56.5161 20.0821 56.2924 20.392 56.1399 20.7898C55.9875 21.1875 55.9112 21.6515 55.9112 22.1818ZM63.0989 26V18.3636H64.5854V26H63.0989ZM63.8496 17.1854C63.5911 17.1854 63.369 17.0992 63.1834 16.9268C63.0011 16.7512 62.91 16.5424 62.91 16.3004C62.91 16.0552 63.0011 15.8464 63.1834 15.674C63.369 15.4983 63.5911 15.4105 63.8496 15.4105C64.1081 15.4105 64.3285 15.4983 64.5108 15.674C64.6964 15.8464 64.7892 16.0552 64.7892 16.3004C64.7892 16.5424 64.6964 16.7512 64.5108 16.9268C64.3285 17.0992 64.1081 17.1854 63.8496 17.1854ZM69.4439 26.1491C68.8274 26.1491 68.2772 25.9917 67.7933 25.6768C67.3127 25.3587 66.9349 24.9062 66.6598 24.3196C66.388 23.7296 66.2521 23.022 66.2521 22.1967C66.2521 21.3714 66.3897 20.6655 66.6648 20.0788C66.9432 19.4922 67.3243 19.0431 67.8082 18.7315C68.2921 18.42 68.8407 18.2642 69.4538 18.2642C69.9278 18.2642 70.3089 18.3438 70.5973 18.5028C70.889 18.6586 71.1143 18.8409 71.2734 19.0497C71.4358 19.2585 71.5618 19.4425 71.6513 19.6016H71.7408V15.8182H73.2273V26H71.7756V24.8118H71.6513C71.5618 24.9742 71.4325 25.1598 71.2635 25.3686C71.0978 25.5774 70.8691 25.7597 70.5774 25.9155C70.2857 26.0713 69.9079 26.1491 69.4439 26.1491ZM69.772 24.8814C70.1996 24.8814 70.5608 24.7687 70.8558 24.5433C71.1541 24.3146 71.3795 23.9981 71.532 23.5938C71.6877 23.1894 71.7656 22.7187 71.7656 22.1818C71.7656 21.6515 71.6894 21.1875 71.5369 20.7898C71.3845 20.392 71.1607 20.0821 70.8658 19.8601C70.5708 19.638 70.2062 19.527 69.772 19.527C69.3246 19.527 68.9517 19.643 68.6534 19.875C68.3551 20.107 68.1297 20.4235 67.9773 20.8246C67.8281 21.2256 67.7536 21.678 67.7536 22.1818C67.7536 22.6922 67.8298 23.1513 67.9822 23.5589C68.1347 23.9666 68.3601 24.2898 68.6584 24.5284C68.96 24.7637 69.3312 24.8814 69.772 24.8814ZM78.5655 26.1541C77.8496 26.1541 77.2248 25.9901 76.6912 25.6619C76.1576 25.3338 75.7433 24.8748 75.4483 24.2848C75.1533 23.6948 75.0059 23.0054 75.0059 22.2166C75.0059 21.4245 75.1533 20.7318 75.4483 20.1385C75.7433 19.5452 76.1576 19.0845 76.6912 18.7564C77.2248 18.4283 77.8496 18.2642 78.5655 18.2642C79.2814 18.2642 79.9062 18.4283 80.4398 18.7564C80.9734 19.0845 81.3877 19.5452 81.6827 20.1385C81.9777 20.7318 82.1252 21.4245 82.1252 22.2166C82.1252 23.0054 81.9777 23.6948 81.6827 24.2848C81.3877 24.8748 80.9734 25.3338 80.4398 25.6619C79.9062 25.9901 79.2814 26.1541 78.5655 26.1541ZM78.5705 24.9062C79.0345 24.9062 79.419 24.7836 79.7239 24.5384C80.0288 24.2931 80.2542 23.9666 80.4 23.5589C80.5492 23.1513 80.6238 22.7022 80.6238 22.2116C80.6238 21.7244 80.5492 21.277 80.4 20.8693C80.2542 20.4583 80.0288 20.1286 79.7239 19.88C79.419 19.6314 79.0345 19.5071 78.5705 19.5071C78.1032 19.5071 77.7154 19.6314 77.4071 19.88C77.1022 20.1286 76.8752 20.4583 76.726 20.8693C76.5802 21.277 76.5073 21.7244 76.5073 22.2116C76.5073 22.7022 76.5802 23.1513 76.726 23.5589C76.8752 23.9666 77.1022 24.2931 77.4071 24.5384C77.7154 24.7836 78.1032 24.9062 78.5705 24.9062ZM87.4895 28.8636V18.3636H88.9412V19.6016H89.0655C89.1517 19.4425 89.276 19.2585 89.4384 19.0497C89.6008 18.8409 89.8262 18.6586 90.1145 18.5028C90.4029 18.3438 90.784 18.2642 91.258 18.2642C91.8745 18.2642 92.4247 18.42 92.9086 18.7315C93.3925 19.0431 93.772 19.4922 94.0471 20.0788C94.3255 20.6655 94.4647 21.3714 94.4647 22.1967C94.4647 23.022 94.3271 23.7296 94.052 24.3196C93.7769 24.9062 93.3991 25.3587 92.9185 25.6768C92.4379 25.9917 91.8894 26.1491 91.2729 26.1491C90.8089 26.1491 90.4294 26.0713 90.1344 25.9155C89.8427 25.7597 89.6141 25.5774 89.4483 25.3686C89.2826 25.1598 89.155 24.9742 89.0655 24.8118H88.976V28.8636H87.4895ZM88.9462 22.1818C88.9462 22.7187 89.0241 23.1894 89.1799 23.5938C89.3356 23.9981 89.561 24.3146 89.856 24.5433C90.151 24.7687 90.5123 24.8814 90.9398 24.8814C91.3839 24.8814 91.7551 24.7637 92.0534 24.5284C92.3517 24.2898 92.5771 23.9666 92.7296 23.5589C92.8854 23.1513 92.9632 22.6922 92.9632 22.1818C92.9632 21.678 92.887 21.2256 92.7346 20.8246C92.5854 20.4235 92.36 20.107 92.0584 19.875C91.7601 19.643 91.3873 19.527 90.9398 19.527C90.5089 19.527 90.1444 19.638 89.8461 19.8601C89.5511 20.0821 89.3274 20.392 89.1749 20.7898C89.0224 21.1875 88.9462 21.6515 88.9462 22.1818ZM99.3468 26.1541C98.6309 26.1541 98.0061 25.9901 97.4725 25.6619C96.9389 25.3338 96.5246 24.8748 96.2296 24.2848C95.9346 23.6948 95.7871 23.0054 95.7871 22.2166C95.7871 21.4245 95.9346 20.7318 96.2296 20.1385C96.5246 19.5452 96.9389 19.0845 97.4725 18.7564C98.0061 18.4283 98.6309 18.2642 99.3468 18.2642C100.063 18.2642 100.687 18.4283 101.221 18.7564C101.755 19.0845 102.169 19.5452 102.464 20.1385C102.759 20.7318 102.906 21.4245 102.906 22.2166C102.906 23.0054 102.759 23.6948 102.464 24.2848C102.169 24.8748 101.755 25.3338 101.221 25.6619C100.687 25.9901 100.063 26.1541 99.3468 26.1541ZM99.3517 24.9062C99.8158 24.9062 100.2 24.7836 100.505 24.5384C100.81 24.2931 101.035 23.9666 101.181 23.5589C101.33 23.1513 101.405 22.7022 101.405 22.2116C101.405 21.7244 101.33 21.277 101.181 20.8693C101.035 20.4583 100.81 20.1286 100.505 19.88C100.2 19.6314 99.8158 19.5071 99.3517 19.5071C98.8844 19.5071 98.4966 19.6314 98.1884 19.88C97.8835 20.1286 97.6564 20.4583 97.5073 20.8693C97.3614 21.277 97.2885 21.7244 97.2885 22.2116C97.2885 22.7022 97.3614 23.1513 97.5073 23.5589C97.6564 23.9666 97.8835 24.2931 98.1884 24.5384C98.4966 24.7836 98.8844 24.9062 99.3517 24.9062ZM104.566 26V18.3636H106.002V19.5767H106.082C106.221 19.1657 106.467 18.8426 106.818 18.6072C107.172 18.3686 107.574 18.2493 108.021 18.2493C108.114 18.2493 108.223 18.2526 108.349 18.2592C108.478 18.2659 108.579 18.2741 108.652 18.2841V19.706C108.593 19.6894 108.487 19.6712 108.334 19.6513C108.182 19.6281 108.029 19.6165 107.877 19.6165C107.525 19.6165 107.212 19.6911 106.937 19.8402C106.665 19.986 106.45 20.1899 106.291 20.4517C106.132 20.7102 106.052 21.0052 106.052 21.3366V26H104.566ZM116.935 26.1541C116.183 26.1541 115.535 25.9934 114.991 25.6719C114.451 25.3471 114.033 24.8913 113.738 24.3047C113.447 23.7147 113.301 23.0237 113.301 22.2315C113.301 21.4493 113.447 20.7599 113.738 20.1634C114.033 19.5668 114.444 19.1011 114.971 18.7663C115.502 18.4316 116.121 18.2642 116.831 18.2642C117.261 18.2642 117.679 18.3355 118.083 18.478C118.488 18.6205 118.851 18.8442 119.172 19.1491C119.494 19.4541 119.747 19.8501 119.933 20.3374C120.118 20.8213 120.211 21.4096 120.211 22.1023V22.6293H114.141V21.5156H118.755C118.755 21.1245 118.675 20.7782 118.516 20.4766C118.357 20.1716 118.133 19.9313 117.845 19.7557C117.56 19.58 117.225 19.4922 116.841 19.4922C116.423 19.4922 116.058 19.5949 115.747 19.8004C115.439 20.0026 115.2 20.2678 115.031 20.5959C114.865 20.9207 114.782 21.2737 114.782 21.6548V22.5249C114.782 23.0353 114.872 23.4695 115.051 23.8274C115.233 24.1854 115.487 24.4588 115.811 24.6477C116.136 24.8333 116.516 24.9261 116.95 24.9261C117.232 24.9261 117.489 24.8864 117.721 24.8068C117.953 24.724 118.153 24.6013 118.322 24.4389C118.491 24.2765 118.62 24.076 118.71 23.8374L120.117 24.0909C120.004 24.5052 119.802 24.8681 119.51 25.1797C119.222 25.4879 118.859 25.7282 118.422 25.9006C117.987 26.0696 117.492 26.1541 116.935 26.1541ZM123.347 15.8182V26H121.861V15.8182H123.347ZM129.052 26V18.3636H130.479V19.6065H130.573C130.732 19.1856 130.993 18.8575 131.354 18.6222C131.715 18.3835 132.148 18.2642 132.651 18.2642C133.162 18.2642 133.589 18.3835 133.934 18.6222C134.282 18.8608 134.539 19.1889 134.705 19.6065H134.784C134.967 19.1989 135.257 18.8741 135.654 18.6321C136.052 18.3868 136.526 18.2642 137.076 18.2642C137.769 18.2642 138.334 18.4813 138.771 18.9155C139.212 19.3497 139.433 20.0043 139.433 20.8793V26H137.946V21.0185C137.946 20.5014 137.805 20.1269 137.524 19.8949C137.242 19.6629 136.905 19.5469 136.514 19.5469C136.03 19.5469 135.654 19.696 135.386 19.9943C135.117 20.2893 134.983 20.6688 134.983 21.1328V26H133.502V20.924C133.502 20.5097 133.372 20.1766 133.114 19.9247C132.855 19.6728 132.519 19.5469 132.105 19.5469C131.823 19.5469 131.563 19.6214 131.324 19.7706C131.089 19.9164 130.898 20.1203 130.752 20.3821C130.61 20.6439 130.539 20.9472 130.539 21.2919V26H129.052ZM144.716 26.1541C143.964 26.1541 143.316 25.9934 142.772 25.6719C142.232 25.3471 141.815 24.8913 141.52 24.3047C141.228 23.7147 141.082 23.0237 141.082 22.2315C141.082 21.4493 141.228 20.7599 141.52 20.1634C141.815 19.5668 142.225 19.1011 142.752 18.7663C143.283 18.4316 143.903 18.2642 144.612 18.2642C145.043 18.2642 145.46 18.3355 145.865 18.478C146.269 18.6205 146.632 18.8442 146.953 19.1491C147.275 19.4541 147.529 19.8501 147.714 20.3374C147.9 20.8213 147.993 21.4096 147.993 22.1023V22.6293H141.922V21.5156H146.536C146.536 21.1245 146.456 20.7782 146.297 20.4766C146.138 20.1716 145.914 19.9313 145.626 19.7557C145.341 19.58 145.006 19.4922 144.622 19.4922C144.204 19.4922 143.84 19.5949 143.528 19.8004C143.22 20.0026 142.981 20.2678 142.812 20.5959C142.646 20.9207 142.564 21.2737 142.564 21.6548V22.5249C142.564 23.0353 142.653 23.4695 142.832 23.8274C143.014 24.1854 143.268 24.4588 143.593 24.6477C143.917 24.8333 144.297 24.9261 144.731 24.9261C145.013 24.9261 145.27 24.8864 145.502 24.8068C145.734 24.724 145.934 24.6013 146.103 24.4389C146.272 24.2765 146.402 24.076 146.491 23.8374L147.898 24.0909C147.785 24.5052 147.583 24.8681 147.292 25.1797C147.003 25.4879 146.64 25.7282 146.203 25.9006C145.769 26.0696 145.273 26.1541 144.716 26.1541ZM143.941 17.3445L145.104 15.0526H146.67L145.129 17.3445H143.941ZM152.501 26.1491C151.884 26.1491 151.334 25.9917 150.85 25.6768C150.369 25.3587 149.992 24.9062 149.716 24.3196C149.445 23.7296 149.309 23.022 149.309 22.1967C149.309 21.3714 149.446 20.6655 149.721 20.0788C150 19.4922 150.381 19.0431 150.865 18.7315C151.349 18.42 151.897 18.2642 152.51 18.2642C152.984 18.2642 153.366 18.3438 153.654 18.5028C153.946 18.6586 154.171 18.8409 154.33 19.0497C154.492 19.2585 154.618 19.4425 154.708 19.6016H154.797V15.8182H156.284V26H154.832V24.8118H154.708C154.618 24.9742 154.489 25.1598 154.32 25.3686C154.154 25.5774 153.926 25.7597 153.634 25.9155C153.342 26.0713 152.965 26.1491 152.501 26.1491ZM152.829 24.8814C153.256 24.8814 153.617 24.7687 153.912 24.5433C154.211 24.3146 154.436 23.9981 154.589 23.5938C154.744 23.1894 154.822 22.7187 154.822 22.1818C154.822 21.6515 154.746 21.1875 154.594 20.7898C154.441 20.392 154.217 20.0821 153.922 19.8601C153.627 19.638 153.263 19.527 152.829 19.527C152.381 19.527 152.008 19.643 151.71 19.875C151.412 20.107 151.186 20.4235 151.034 20.8246C150.885 21.2256 150.81 21.678 150.81 22.1818C150.81 22.6922 150.886 23.1513 151.039 23.5589C151.191 23.9666 151.417 24.2898 151.715 24.5284C152.017 24.7637 152.388 24.8814 152.829 24.8814ZM158.406 26V18.3636H159.892V26H158.406ZM159.156 17.1854C158.898 17.1854 158.676 17.0992 158.49 16.9268C158.308 16.7512 158.217 16.5424 158.217 16.3004C158.217 16.0552 158.308 15.8464 158.49 15.674C158.676 15.4983 158.898 15.4105 159.156 15.4105C159.415 15.4105 159.635 15.4983 159.817 15.674C160.003 15.8464 160.096 16.0552 160.096 16.3004C160.096 16.5424 160.003 16.7512 159.817 16.9268C159.635 17.0992 159.415 17.1854 159.156 17.1854ZM165.108 26.1541C164.369 26.1541 163.733 25.9867 163.199 25.652C162.669 25.3139 162.261 24.8482 161.976 24.255C161.691 23.6617 161.549 22.9822 161.549 22.2166C161.549 21.4411 161.695 20.7566 161.986 20.1634C162.278 19.5668 162.689 19.1011 163.219 18.7663C163.75 18.4316 164.374 18.2642 165.094 18.2642C165.674 18.2642 166.191 18.3719 166.645 18.5874C167.099 18.7995 167.465 19.0978 167.743 19.4822C168.025 19.8667 168.193 20.3158 168.246 20.8295H166.799C166.719 20.4716 166.537 20.1634 166.252 19.9048C165.97 19.6463 165.592 19.517 165.118 19.517C164.704 19.517 164.341 19.6264 164.03 19.8452C163.721 20.0606 163.481 20.3688 163.309 20.7699C163.136 21.1676 163.05 21.6383 163.05 22.1818C163.05 22.7386 163.135 23.2192 163.304 23.6236C163.473 24.0279 163.711 24.3411 164.02 24.5632C164.331 24.7853 164.698 24.8963 165.118 24.8963C165.4 24.8963 165.655 24.8449 165.884 24.7422C166.116 24.6361 166.31 24.4853 166.466 24.2898C166.625 24.0942 166.736 23.8589 166.799 23.5838H168.246C168.193 24.0777 168.032 24.5185 167.763 24.9062C167.495 25.294 167.135 25.599 166.684 25.821C166.237 26.0431 165.712 26.1541 165.108 26.1541ZM173.052 26.1541C172.336 26.1541 171.711 25.9901 171.178 25.6619C170.644 25.3338 170.23 24.8748 169.935 24.2848C169.64 23.6948 169.492 23.0054 169.492 22.2166C169.492 21.4245 169.64 20.7318 169.935 20.1385C170.23 19.5452 170.644 19.0845 171.178 18.7564C171.711 18.4283 172.336 18.2642 173.052 18.2642C173.768 18.2642 174.393 18.4283 174.926 18.7564C175.46 19.0845 175.874 19.5452 176.169 20.1385C176.464 20.7318 176.612 21.4245 176.612 22.2166C176.612 23.0054 176.464 23.6948 176.169 24.2848C175.874 24.8748 175.46 25.3338 174.926 25.6619C174.393 25.9901 173.768 26.1541 173.052 26.1541ZM173.057 24.9062C173.521 24.9062 173.905 24.7836 174.21 24.5384C174.515 24.2931 174.741 23.9666 174.886 23.5589C175.036 23.1513 175.11 22.7022 175.11 22.2116C175.11 21.7244 175.036 21.277 174.886 20.8693C174.741 20.4583 174.515 20.1286 174.21 19.88C173.905 19.6314 173.521 19.5071 173.057 19.5071C172.589 19.5071 172.202 19.6314 171.893 19.88C171.589 20.1286 171.362 20.4583 171.212 20.8693C171.067 21.277 170.994 21.7244 170.994 22.2116C170.994 22.7022 171.067 23.1513 171.212 23.5589C171.362 23.9666 171.589 24.2931 171.893 24.5384C172.202 24.7836 172.589 24.9062 173.057 24.9062Z" fill="#364152"/>
<defs>
<clipPath id="clip0_5592_40221">
<rect width="24" height="24" fill="white" transform="translate(8 9)"/>
</clipPath>
</defs>
</svg>
