<svg width="198" height="42" viewBox="0 0 198 42" fill="none" xmlns="http://www.w3.org/2000/svg">
<rect width="198" height="42" rx="16" fill="white"/>
<path d="M24.5 21C25.88 21 26.99 19.88 26.99 18.5C26.99 17.12 25.88 16 24.5 16C23.12 16 22 17.12 22 18.5C22 19.88 23.12 21 24.5 21ZM17 20C18.66 20 19.99 18.66 19.99 17C19.99 15.34 18.66 14 17 14C15.34 14 14 15.34 14 17C14 18.66 15.34 20 17 20ZM24.5 23C22.67 23 19 23.92 19 25.75V27C19 27.55 19.45 28 20 28H29C29.55 28 30 27.55 30 27V25.75C30 23.92 26.33 23 24.5 23ZM17 22C14.67 22 10 23.17 10 25.5V27C10 27.55 10.45 28 11 28H17V25.75C17 24.9 17.33 23.41 19.37 22.28C18.5 22.1 17.66 22 17 22Z" fill="#DF6D51"/>
<path d="M42.6719 12.4929C42.6188 12.0223 42.4001 11.6577 42.0156 11.3991C41.6312 11.1373 41.1473 11.0064 40.5639 11.0064C40.1463 11.0064 39.785 11.0727 39.4801 11.2053C39.1752 11.3345 38.9382 11.5135 38.7692 11.7422C38.6035 11.9676 38.5206 12.2244 38.5206 12.5128C38.5206 12.7547 38.5769 12.9635 38.6896 13.1392C38.8056 13.3149 38.9564 13.4624 39.142 13.5817C39.331 13.6977 39.5331 13.7955 39.7486 13.875C39.964 13.9512 40.1712 14.0142 40.37 14.0639L41.3643 14.3224C41.6892 14.402 42.0223 14.5097 42.3636 14.6456C42.705 14.7815 43.0215 14.9605 43.3132 15.1825C43.6049 15.4046 43.8402 15.6797 44.0192 16.0078C44.2015 16.3359 44.2926 16.7287 44.2926 17.1861C44.2926 17.7628 44.1435 18.2749 43.8452 18.7223C43.5502 19.1697 43.121 19.5227 42.5575 19.7812C41.9974 20.0398 41.3196 20.169 40.5241 20.169C39.7618 20.169 39.1023 20.0481 38.5455 19.8061C37.9886 19.5642 37.5528 19.2211 37.2379 18.777C36.9231 18.3295 36.7491 17.7992 36.7159 17.1861H38.2571C38.2869 17.554 38.4063 17.8606 38.6151 18.1058C38.8272 18.3478 39.0973 18.5284 39.4254 18.6477C39.7569 18.7637 40.1198 18.8217 40.5142 18.8217C40.9484 18.8217 41.3345 18.7538 41.6726 18.6179C42.014 18.4787 42.2824 18.2865 42.478 18.0412C42.6735 17.7926 42.7713 17.5026 42.7713 17.1712C42.7713 16.8696 42.6851 16.6226 42.5128 16.4304C42.3438 16.2382 42.1134 16.0791 41.8217 15.9531C41.5334 15.8272 41.2069 15.7161 40.8423 15.62L39.6392 15.2919C38.8239 15.0698 38.1776 14.7434 37.7003 14.3125C37.2263 13.8816 36.9893 13.3116 36.9893 12.6023C36.9893 12.0156 37.1484 11.5036 37.4666 11.0661C37.7848 10.6286 38.2157 10.2888 38.7592 10.0469C39.3028 9.80161 39.916 9.67898 40.5987 9.67898C41.2881 9.67898 41.8963 9.79995 42.4233 10.0419C42.9536 10.2839 43.3712 10.617 43.6761 11.0412C43.9811 11.4621 44.1402 11.946 44.1534 12.4929H42.6719ZM50.8464 16.8331V12.3636H52.3379V20H50.8762V18.6776H50.7967C50.621 19.0852 50.3393 19.425 49.9515 19.6967C49.5671 19.9652 49.0881 20.0994 48.5147 20.0994C48.0242 20.0994 47.59 19.9917 47.2122 19.7763C46.8377 19.5575 46.5427 19.2344 46.3272 18.8068C46.1151 18.3793 46.0091 17.8506 46.0091 17.2209V12.3636H47.4956V17.0419C47.4956 17.5623 47.6397 17.9766 47.9281 18.2848C48.2164 18.593 48.591 18.7472 49.0517 18.7472C49.3301 18.7472 49.6068 18.6776 49.8819 18.5384C50.1603 18.3991 50.3907 18.1887 50.573 17.907C50.7586 17.6252 50.8497 17.2673 50.8464 16.8331ZM54.4545 20V9.81818H55.9411V13.6016H56.0305C56.1167 13.4425 56.241 13.2585 56.4034 13.0497C56.5658 12.8409 56.7912 12.6586 57.0795 12.5028C57.3679 12.3438 57.7491 12.2642 58.223 12.2642C58.8395 12.2642 59.3897 12.42 59.8736 12.7315C60.3575 13.0431 60.737 13.4922 61.0121 14.0788C61.2905 14.6655 61.4297 15.3714 61.4297 16.1967C61.4297 17.022 61.2921 17.7296 61.017 18.3196C60.742 18.9062 60.3641 19.3587 59.8835 19.6768C59.4029 19.9917 58.8544 20.1491 58.2379 20.1491C57.7739 20.1491 57.3944 20.0713 57.0994 19.9155C56.8078 19.7597 56.5791 19.5774 56.4134 19.3686C56.2476 19.1598 56.12 18.9742 56.0305 18.8118H55.9062V20H54.4545ZM55.9112 16.1818C55.9112 16.7187 55.9891 17.1894 56.1449 17.5938C56.3007 17.9981 56.526 18.3146 56.821 18.5433C57.116 18.7687 57.4773 18.8814 57.9048 18.8814C58.349 18.8814 58.7202 18.7637 59.0185 18.5284C59.3168 18.2898 59.5421 17.9666 59.6946 17.5589C59.8504 17.1513 59.9283 16.6922 59.9283 16.1818C59.9283 15.678 59.852 15.2256 59.6996 14.8246C59.5504 14.4235 59.325 14.107 59.0234 13.875C58.7251 13.643 58.3523 13.527 57.9048 13.527C57.474 13.527 57.1094 13.638 56.8111 13.8601C56.5161 14.0821 56.2924 14.392 56.1399 14.7898C55.9875 15.1875 55.9112 15.6515 55.9112 16.1818ZM63.0989 20V12.3636H64.5854V20H63.0989ZM63.8496 11.1854C63.5911 11.1854 63.369 11.0992 63.1834 10.9268C63.0011 10.7512 62.91 10.5424 62.91 10.3004C62.91 10.0552 63.0011 9.84635 63.1834 9.67401C63.369 9.49834 63.5911 9.41051 63.8496 9.41051C64.1081 9.41051 64.3285 9.49834 64.5108 9.67401C64.6964 9.84635 64.7892 10.0552 64.7892 10.3004C64.7892 10.5424 64.6964 10.7512 64.5108 10.9268C64.3285 11.0992 64.1081 11.1854 63.8496 11.1854ZM69.4439 20.1491C68.8274 20.1491 68.2772 19.9917 67.7933 19.6768C67.3127 19.3587 66.9349 18.9062 66.6598 18.3196C66.388 17.7296 66.2521 17.022 66.2521 16.1967C66.2521 15.3714 66.3897 14.6655 66.6648 14.0788C66.9432 13.4922 67.3243 13.0431 67.8082 12.7315C68.2921 12.42 68.8407 12.2642 69.4538 12.2642C69.9278 12.2642 70.3089 12.3438 70.5973 12.5028C70.889 12.6586 71.1143 12.8409 71.2734 13.0497C71.4358 13.2585 71.5618 13.4425 71.6513 13.6016H71.7408V9.81818H73.2273V20H71.7756V18.8118H71.6513C71.5618 18.9742 71.4325 19.1598 71.2635 19.3686C71.0978 19.5774 70.8691 19.7597 70.5774 19.9155C70.2857 20.0713 69.9079 20.1491 69.4439 20.1491ZM69.772 18.8814C70.1996 18.8814 70.5608 18.7687 70.8558 18.5433C71.1541 18.3146 71.3795 17.9981 71.532 17.5938C71.6877 17.1894 71.7656 16.7187 71.7656 16.1818C71.7656 15.6515 71.6894 15.1875 71.5369 14.7898C71.3845 14.392 71.1607 14.0821 70.8658 13.8601C70.5708 13.638 70.2062 13.527 69.772 13.527C69.3246 13.527 68.9517 13.643 68.6534 13.875C68.3551 14.107 68.1297 14.4235 67.9773 14.8246C67.8281 15.2256 67.7536 15.678 67.7536 16.1818C67.7536 16.6922 67.8298 17.1513 67.9822 17.5589C68.1347 17.9666 68.3601 18.2898 68.6584 18.5284C68.96 18.7637 69.3312 18.8814 69.772 18.8814ZM78.5655 20.1541C77.8496 20.1541 77.2248 19.9901 76.6912 19.6619C76.1576 19.3338 75.7433 18.8748 75.4483 18.2848C75.1533 17.6948 75.0059 17.0054 75.0059 16.2166C75.0059 15.4245 75.1533 14.7318 75.4483 14.1385C75.7433 13.5452 76.1576 13.0845 76.6912 12.7564C77.2248 12.4283 77.8496 12.2642 78.5655 12.2642C79.2814 12.2642 79.9062 12.4283 80.4398 12.7564C80.9734 13.0845 81.3877 13.5452 81.6827 14.1385C81.9777 14.7318 82.1252 15.4245 82.1252 16.2166C82.1252 17.0054 81.9777 17.6948 81.6827 18.2848C81.3877 18.8748 80.9734 19.3338 80.4398 19.6619C79.9062 19.9901 79.2814 20.1541 78.5655 20.1541ZM78.5705 18.9062C79.0345 18.9062 79.419 18.7836 79.7239 18.5384C80.0288 18.2931 80.2542 17.9666 80.4 17.5589C80.5492 17.1513 80.6238 16.7022 80.6238 16.2116C80.6238 15.7244 80.5492 15.277 80.4 14.8693C80.2542 14.4583 80.0288 14.1286 79.7239 13.88C79.419 13.6314 79.0345 13.5071 78.5705 13.5071C78.1032 13.5071 77.7154 13.6314 77.4071 13.88C77.1022 14.1286 76.8752 14.4583 76.726 14.8693C76.5802 15.277 76.5073 15.7244 76.5073 16.2116C76.5073 16.7022 76.5802 17.1513 76.726 17.5589C76.8752 17.9666 77.1022 18.2931 77.4071 18.5384C77.7154 18.7836 78.1032 18.9062 78.5705 18.9062ZM87.4895 22.8636V12.3636H88.9412V13.6016H89.0655C89.1517 13.4425 89.276 13.2585 89.4384 13.0497C89.6008 12.8409 89.8262 12.6586 90.1145 12.5028C90.4029 12.3438 90.784 12.2642 91.258 12.2642C91.8745 12.2642 92.4247 12.42 92.9086 12.7315C93.3925 13.0431 93.772 13.4922 94.0471 14.0788C94.3255 14.6655 94.4647 15.3714 94.4647 16.1967C94.4647 17.022 94.3271 17.7296 94.052 18.3196C93.7769 18.9062 93.3991 19.3587 92.9185 19.6768C92.4379 19.9917 91.8894 20.1491 91.2729 20.1491C90.8089 20.1491 90.4294 20.0713 90.1344 19.9155C89.8427 19.7597 89.6141 19.5774 89.4483 19.3686C89.2826 19.1598 89.155 18.9742 89.0655 18.8118H88.976V22.8636H87.4895ZM88.9462 16.1818C88.9462 16.7187 89.0241 17.1894 89.1799 17.5938C89.3356 17.9981 89.561 18.3146 89.856 18.5433C90.151 18.7687 90.5123 18.8814 90.9398 18.8814C91.3839 18.8814 91.7551 18.7637 92.0534 18.5284C92.3517 18.2898 92.5771 17.9666 92.7296 17.5589C92.8854 17.1513 92.9632 16.6922 92.9632 16.1818C92.9632 15.678 92.887 15.2256 92.7346 14.8246C92.5854 14.4235 92.36 14.107 92.0584 13.875C91.7601 13.643 91.3873 13.527 90.9398 13.527C90.5089 13.527 90.1444 13.638 89.8461 13.8601C89.5511 14.0821 89.3274 14.392 89.1749 14.7898C89.0224 15.1875 88.9462 15.6515 88.9462 16.1818ZM99.3468 20.1541C98.6309 20.1541 98.0061 19.9901 97.4725 19.6619C96.9389 19.3338 96.5246 18.8748 96.2296 18.2848C95.9346 17.6948 95.7871 17.0054 95.7871 16.2166C95.7871 15.4245 95.9346 14.7318 96.2296 14.1385C96.5246 13.5452 96.9389 13.0845 97.4725 12.7564C98.0061 12.4283 98.6309 12.2642 99.3468 12.2642C100.063 12.2642 100.687 12.4283 101.221 12.7564C101.755 13.0845 102.169 13.5452 102.464 14.1385C102.759 14.7318 102.906 15.4245 102.906 16.2166C102.906 17.0054 102.759 17.6948 102.464 18.2848C102.169 18.8748 101.755 19.3338 101.221 19.6619C100.687 19.9901 100.063 20.1541 99.3468 20.1541ZM99.3517 18.9062C99.8158 18.9062 100.2 18.7836 100.505 18.5384C100.81 18.2931 101.035 17.9666 101.181 17.5589C101.33 17.1513 101.405 16.7022 101.405 16.2116C101.405 15.7244 101.33 15.277 101.181 14.8693C101.035 14.4583 100.81 14.1286 100.505 13.88C100.2 13.6314 99.8158 13.5071 99.3517 13.5071C98.8844 13.5071 98.4966 13.6314 98.1884 13.88C97.8835 14.1286 97.6564 14.4583 97.5073 14.8693C97.3614 15.277 97.2885 15.7244 97.2885 16.2116C97.2885 16.7022 97.3614 17.1513 97.5073 17.5589C97.6564 17.9666 97.8835 18.2931 98.1884 18.5384C98.4966 18.7836 98.8844 18.9062 99.3517 18.9062ZM104.566 20V12.3636H106.002V13.5767H106.082C106.221 13.1657 106.467 12.8426 106.818 12.6072C107.172 12.3686 107.574 12.2493 108.021 12.2493C108.114 12.2493 108.223 12.2526 108.349 12.2592C108.478 12.2659 108.579 12.2741 108.652 12.2841V13.706C108.593 13.6894 108.487 13.6712 108.334 13.6513C108.182 13.6281 108.029 13.6165 107.877 13.6165C107.525 13.6165 107.212 13.6911 106.937 13.8402C106.665 13.986 106.45 14.1899 106.291 14.4517C106.132 14.7102 106.052 15.0052 106.052 15.3366V20H104.566ZM116.935 20.1541C116.183 20.1541 115.535 19.9934 114.991 19.6719C114.451 19.3471 114.033 18.8913 113.738 18.3047C113.447 17.7147 113.301 17.0237 113.301 16.2315C113.301 15.4493 113.447 14.7599 113.738 14.1634C114.033 13.5668 114.444 13.1011 114.971 12.7663C115.502 12.4316 116.121 12.2642 116.831 12.2642C117.261 12.2642 117.679 12.3355 118.083 12.478C118.488 12.6205 118.851 12.8442 119.172 13.1491C119.494 13.4541 119.747 13.8501 119.933 14.3374C120.118 14.8213 120.211 15.4096 120.211 16.1023V16.6293H114.141V15.5156H118.755C118.755 15.1245 118.675 14.7782 118.516 14.4766C118.357 14.1716 118.133 13.9313 117.845 13.7557C117.56 13.58 117.225 13.4922 116.841 13.4922C116.423 13.4922 116.058 13.5949 115.747 13.8004C115.439 14.0026 115.2 14.2678 115.031 14.5959C114.865 14.9207 114.782 15.2737 114.782 15.6548V16.5249C114.782 17.0353 114.872 17.4695 115.051 17.8274C115.233 18.1854 115.487 18.4588 115.811 18.6477C116.136 18.8333 116.516 18.9261 116.95 18.9261C117.232 18.9261 117.489 18.8864 117.721 18.8068C117.953 18.724 118.153 18.6013 118.322 18.4389C118.491 18.2765 118.62 18.076 118.71 17.8374L120.117 18.0909C120.004 18.5052 119.802 18.8681 119.51 19.1797C119.222 19.4879 118.859 19.7282 118.422 19.9006C117.987 20.0696 117.492 20.1541 116.935 20.1541ZM123.347 9.81818V20H121.861V9.81818H123.347ZM129.052 22.8636V12.3636H130.504V13.6016H130.628C130.714 13.4425 130.838 13.2585 131.001 13.0497C131.163 12.8409 131.389 12.6586 131.677 12.5028C131.965 12.3438 132.347 12.2642 132.82 12.2642C133.437 12.2642 133.987 12.42 134.471 12.7315C134.955 13.0431 135.334 13.4922 135.61 14.0788C135.888 14.6655 136.027 15.3714 136.027 16.1967C136.027 17.022 135.89 17.7296 135.615 18.3196C135.339 18.9062 134.962 19.3587 134.481 19.6768C134 19.9917 133.452 20.1491 132.835 20.1491C132.371 20.1491 131.992 20.0713 131.697 19.9155C131.405 19.7597 131.177 19.5774 131.011 19.3686C130.845 19.1598 130.718 18.9742 130.628 18.8118H130.539V22.8636H129.052ZM130.509 16.1818C130.509 16.7187 130.587 17.1894 130.742 17.5938C130.898 17.9981 131.124 18.3146 131.419 18.5433C131.713 18.7687 132.075 18.8814 132.502 18.8814C132.946 18.8814 133.318 18.7637 133.616 18.5284C133.914 18.2898 134.14 17.9666 134.292 17.5589C134.448 17.1513 134.526 16.6922 134.526 16.1818C134.526 15.678 134.45 15.2256 134.297 14.8246C134.148 14.4235 133.923 14.107 133.621 13.875C133.323 13.643 132.95 13.527 132.502 13.527C132.071 13.527 131.707 13.638 131.409 13.8601C131.114 14.0821 130.89 14.392 130.737 14.7898C130.585 15.1875 130.509 15.6515 130.509 16.1818ZM139.915 20.169C139.431 20.169 138.994 20.0795 138.602 19.9006C138.211 19.7183 137.901 19.4548 137.673 19.1101C137.447 18.7654 137.335 18.3428 137.335 17.8423C137.335 17.4115 137.418 17.0568 137.583 16.7784C137.749 16.5 137.973 16.2796 138.254 16.1172C138.536 15.9548 138.851 15.8321 139.199 15.7493C139.547 15.6664 139.902 15.6035 140.263 15.5604C140.72 15.5073 141.092 15.4643 141.377 15.4311C141.662 15.3946 141.869 15.3366 141.998 15.2571C142.127 15.1776 142.192 15.0483 142.192 14.8693V14.8345C142.192 14.4003 142.069 14.0639 141.824 13.8253C141.582 13.5866 141.221 13.4673 140.74 13.4673C140.24 13.4673 139.845 13.5784 139.557 13.8004C139.272 14.0192 139.075 14.2628 138.965 14.5312L137.568 14.2131C137.734 13.7491 137.976 13.3745 138.294 13.0895C138.616 12.8011 138.985 12.5923 139.403 12.4631C139.82 12.3305 140.26 12.2642 140.72 12.2642C141.025 12.2642 141.348 12.3007 141.69 12.3736C142.035 12.4432 142.356 12.5724 142.654 12.7614C142.956 12.9503 143.203 13.2204 143.395 13.5717C143.587 13.9197 143.683 14.3722 143.683 14.929V20H142.232V18.956H142.172C142.076 19.1482 141.932 19.3371 141.74 19.5227C141.547 19.7083 141.3 19.8625 140.999 19.9851C140.697 20.1077 140.336 20.169 139.915 20.169ZM140.238 18.9759C140.649 18.9759 141 18.8946 141.292 18.7322C141.587 18.5698 141.811 18.3577 141.963 18.0959C142.119 17.8307 142.197 17.5473 142.197 17.2457V16.2614C142.144 16.3144 142.041 16.3641 141.889 16.4105C141.74 16.4536 141.569 16.4917 141.377 16.5249C141.184 16.5547 140.997 16.5829 140.815 16.6094C140.633 16.6326 140.48 16.6525 140.357 16.669C140.069 16.7055 139.806 16.7668 139.567 16.853C139.332 16.9392 139.143 17.0634 139 17.2259C138.861 17.3849 138.791 17.5971 138.791 17.8622C138.791 18.2301 138.927 18.5085 139.199 18.6974C139.471 18.883 139.817 18.9759 140.238 18.9759ZM148.88 20.1541C148.141 20.1541 147.504 19.9867 146.971 19.652C146.441 19.3139 146.033 18.8482 145.748 18.255C145.463 17.6617 145.32 16.9822 145.32 16.2166C145.32 15.4411 145.466 14.7566 145.758 14.1634C146.049 13.5668 146.46 13.1011 146.991 12.7663C147.521 12.4316 148.146 12.2642 148.865 12.2642C149.445 12.2642 149.962 12.3719 150.416 12.5874C150.87 12.7995 151.237 13.0978 151.515 13.4822C151.797 13.8667 151.964 14.3158 152.017 14.8295H150.57C150.491 14.4716 150.308 14.1634 150.023 13.9048C149.742 13.6463 149.364 13.517 148.89 13.517C148.476 13.517 148.113 13.6264 147.801 13.8452C147.493 14.0606 147.253 14.3688 147.08 14.7699C146.908 15.1676 146.822 15.6383 146.822 16.1818C146.822 16.7386 146.906 17.2192 147.075 17.6236C147.244 18.0279 147.483 18.3411 147.791 18.5632C148.103 18.7853 148.469 18.8963 148.89 18.8963C149.172 18.8963 149.427 18.8449 149.656 18.7422C149.888 18.6361 150.081 18.4853 150.237 18.2898C150.396 18.0942 150.507 17.8589 150.57 17.5838H152.017C151.964 18.0777 151.803 18.5185 151.535 18.9062C151.266 19.294 150.907 19.599 150.456 19.821C150.009 20.0431 149.483 20.1541 148.88 20.1541ZM153.607 20V12.3636H155.093V20H153.607ZM154.357 11.1854C154.099 11.1854 153.877 11.0992 153.691 10.9268C153.509 10.7512 153.418 10.5424 153.418 10.3004C153.418 10.0552 153.509 9.84635 153.691 9.67401C153.877 9.49834 154.099 9.41051 154.357 9.41051C154.616 9.41051 154.836 9.49834 155.019 9.67401C155.204 9.84635 155.297 10.0552 155.297 10.3004C155.297 10.5424 155.204 10.7512 155.019 10.9268C154.836 11.0992 154.616 11.1854 154.357 11.1854ZM160.384 20.1541C159.632 20.1541 158.984 19.9934 158.44 19.6719C157.9 19.3471 157.482 18.8913 157.188 18.3047C156.896 17.7147 156.75 17.0237 156.75 16.2315C156.75 15.4493 156.896 14.7599 157.188 14.1634C157.482 13.5668 157.893 13.1011 158.42 12.7663C158.951 12.4316 159.571 12.2642 160.28 12.2642C160.711 12.2642 161.128 12.3355 161.533 12.478C161.937 12.6205 162.3 12.8442 162.621 13.1491C162.943 13.4541 163.196 13.8501 163.382 14.3374C163.568 14.8213 163.661 15.4096 163.661 16.1023V16.6293H157.59V15.5156H162.204C162.204 15.1245 162.124 14.7782 161.965 14.4766C161.806 14.1716 161.582 13.9313 161.294 13.7557C161.009 13.58 160.674 13.4922 160.29 13.4922C159.872 13.4922 159.508 13.5949 159.196 13.8004C158.888 14.0026 158.649 14.2678 158.48 14.5959C158.314 14.9207 158.232 15.2737 158.232 15.6548V16.5249C158.232 17.0353 158.321 17.4695 158.5 17.8274C158.682 18.1854 158.936 18.4588 159.261 18.6477C159.585 18.8333 159.965 18.9261 160.399 18.9261C160.681 18.9261 160.938 18.8864 161.17 18.8068C161.402 18.724 161.602 18.6013 161.771 18.4389C161.94 18.2765 162.07 18.076 162.159 17.8374L163.566 18.0909C163.453 18.5052 163.251 18.8681 162.96 19.1797C162.671 19.4879 162.308 19.7282 161.871 19.9006C161.437 20.0696 160.941 20.1541 160.384 20.1541ZM166.796 15.4659V20H165.31V12.3636H166.737V13.6065H166.831C167.007 13.2022 167.282 12.8774 167.656 12.6321C168.034 12.3868 168.51 12.2642 169.083 12.2642C169.604 12.2642 170.059 12.3736 170.45 12.5923C170.842 12.8078 171.145 13.1293 171.36 13.5568C171.576 13.9844 171.683 14.513 171.683 15.1428V20H170.197V15.3217C170.197 14.7682 170.053 14.3357 169.764 14.0241C169.476 13.7093 169.08 13.5518 168.576 13.5518C168.231 13.5518 167.925 13.6264 167.656 13.7756C167.391 13.9247 167.181 14.1435 167.025 14.4318C166.873 14.7169 166.796 15.0616 166.796 15.4659ZM177.242 12.3636V13.5568H173.07V12.3636H177.242ZM174.189 10.5341H175.676V17.7578C175.676 18.0462 175.719 18.2633 175.805 18.4091C175.891 18.5516 176.002 18.6494 176.138 18.7024C176.277 18.7521 176.428 18.777 176.59 18.777C176.71 18.777 176.814 18.7687 176.904 18.7521C176.993 18.7356 177.063 18.7223 177.112 18.7124L177.381 19.9403C177.295 19.9735 177.172 20.0066 177.013 20.0398C176.854 20.0762 176.655 20.0961 176.416 20.0994C176.025 20.1061 175.661 20.0365 175.323 19.8906C174.985 19.7448 174.711 19.5194 174.502 19.2145C174.294 18.9096 174.189 18.5268 174.189 18.0661V10.5341ZM182.095 20.1541C181.343 20.1541 180.695 19.9934 180.151 19.6719C179.611 19.3471 179.193 18.8913 178.898 18.3047C178.607 17.7147 178.461 17.0237 178.461 16.2315C178.461 15.4493 178.607 14.7599 178.898 14.1634C179.193 13.5668 179.604 13.1011 180.131 12.7663C180.662 12.4316 181.281 12.2642 181.991 12.2642C182.422 12.2642 182.839 12.3355 183.244 12.478C183.648 12.6205 184.011 12.8442 184.332 13.1491C184.654 13.4541 184.907 13.8501 185.093 14.3374C185.279 14.8213 185.371 15.4096 185.371 16.1023V16.6293H179.301V15.5156H183.915C183.915 15.1245 183.835 14.7782 183.676 14.4766C183.517 14.1716 183.293 13.9313 183.005 13.7557C182.72 13.58 182.385 13.4922 182.001 13.4922C181.583 13.4922 181.219 13.5949 180.907 13.8004C180.599 14.0026 180.36 14.2678 180.191 14.5959C180.025 14.9207 179.942 15.2737 179.942 15.6548V16.5249C179.942 17.0353 180.032 17.4695 180.211 17.8274C180.393 18.1854 180.647 18.4588 180.972 18.6477C181.296 18.8333 181.676 18.9261 182.11 18.9261C182.392 18.9261 182.649 18.8864 182.881 18.8068C183.113 18.724 183.313 18.6013 183.482 18.4389C183.651 18.2765 183.781 18.076 183.87 17.8374L185.277 18.0909C185.164 18.5052 184.962 18.8681 184.67 19.1797C184.382 19.4879 184.019 19.7282 183.582 19.9006C183.147 20.0696 182.652 20.1541 182.095 20.1541Z" fill="#364152"/>
<path d="M39.5795 33.1364C38.9886 33.1364 38.4702 32.9957 38.0241 32.7145C37.581 32.4332 37.2344 32.0398 36.9844 31.5341C36.7372 31.0284 36.6136 30.4375 36.6136 29.7614C36.6136 29.0795 36.7372 28.4844 36.9844 27.9759C37.2344 27.4673 37.581 27.0724 38.0241 26.7912C38.4702 26.5099 38.9886 26.3693 39.5795 26.3693C40.1705 26.3693 40.6875 26.5099 41.1307 26.7912C41.5767 27.0724 41.9233 27.4673 42.1705 27.9759C42.4205 28.4844 42.5455 29.0795 42.5455 29.7614C42.5455 30.4375 42.4205 31.0284 42.1705 31.5341C41.9233 32.0398 41.5767 32.4332 41.1307 32.7145C40.6875 32.9957 40.1705 33.1364 39.5795 33.1364ZM39.5795 32.233C40.0284 32.233 40.3977 32.1179 40.6875 31.8878C40.9773 31.6577 41.1918 31.3551 41.331 30.9801C41.4702 30.6051 41.5398 30.1989 41.5398 29.7614C41.5398 29.3239 41.4702 28.9162 41.331 28.5384C41.1918 28.1605 40.9773 27.8551 40.6875 27.6222C40.3977 27.3892 40.0284 27.2727 39.5795 27.2727C39.1307 27.2727 38.7614 27.3892 38.4716 27.6222C38.1818 27.8551 37.9673 28.1605 37.8281 28.5384C37.6889 28.9162 37.6193 29.3239 37.6193 29.7614C37.6193 30.1989 37.6889 30.6051 37.8281 30.9801C37.9673 31.3551 38.1818 31.6577 38.4716 31.8878C38.7614 32.1179 39.1307 32.233 39.5795 32.233ZM50.0977 35.5909C49.6119 35.5909 49.1942 35.5284 48.8448 35.4034C48.4954 35.2812 48.2042 35.1193 47.9712 34.9176C47.7411 34.7188 47.5579 34.5057 47.4215 34.2784L48.2227 33.7159C48.3136 33.8352 48.4286 33.9716 48.5678 34.125C48.707 34.2812 48.8974 34.4162 49.1388 34.5298C49.3832 34.6463 49.7028 34.7045 50.0977 34.7045C50.6261 34.7045 51.0621 34.5767 51.4059 34.321C51.7496 34.0653 51.9215 33.6648 51.9215 33.1193V31.7898H51.8363C51.7624 31.9091 51.6573 32.0568 51.521 32.233C51.3874 32.4062 51.1942 32.5611 50.9414 32.6974C50.6914 32.831 50.3533 32.8977 49.9272 32.8977C49.3988 32.8977 48.9244 32.7727 48.5039 32.5227C48.0863 32.2727 47.7553 31.9091 47.511 31.4318C47.2695 30.9545 47.1488 30.375 47.1488 29.6932C47.1488 29.0227 47.2667 28.4389 47.5025 27.9418C47.7383 27.4418 48.0664 27.0554 48.4869 26.7827C48.9073 26.5071 49.3931 26.3693 49.9442 26.3693C50.3704 26.3693 50.7085 26.4403 50.9585 26.5824C51.2113 26.7216 51.4045 26.8807 51.538 27.0597C51.6744 27.2358 51.7795 27.3807 51.8533 27.4943H51.9556V26.4545H52.9272V33.1875C52.9272 33.75 52.7994 34.2074 52.5437 34.5597C52.2908 34.9148 51.9499 35.1747 51.521 35.3395C51.0948 35.5071 50.6204 35.5909 50.0977 35.5909ZM50.0636 31.9943C50.467 31.9943 50.8079 31.902 51.0863 31.7173C51.3647 31.5327 51.5763 31.267 51.7212 30.9205C51.8661 30.5739 51.9386 30.1591 51.9386 29.6761C51.9386 29.2045 51.8675 28.7884 51.7255 28.4276C51.5835 28.0668 51.3732 27.7841 51.0948 27.5795C50.8164 27.375 50.4727 27.2727 50.0636 27.2727C49.6374 27.2727 49.2823 27.3807 48.9982 27.5966C48.717 27.8125 48.5053 28.1023 48.3633 28.4659C48.2241 28.8295 48.1545 29.233 48.1545 29.6761C48.1545 30.1307 48.2255 30.5327 48.3675 30.8821C48.5124 31.2287 48.7255 31.5014 49.0067 31.7003C49.2908 31.8963 49.6431 31.9943 50.0636 31.9943ZM57.5124 33.1364C56.8817 33.1364 56.3377 32.9972 55.8803 32.7188C55.4258 32.4375 55.0749 32.0455 54.8278 31.5426C54.5835 31.0369 54.4613 30.4489 54.4613 29.7784C54.4613 29.108 54.5835 28.517 54.8278 28.0057C55.0749 27.4915 55.4187 27.0909 55.859 26.804C56.3022 26.5142 56.8192 26.3693 57.4102 26.3693C57.7511 26.3693 58.0877 26.4261 58.4201 26.5398C58.7525 26.6534 59.055 26.8381 59.3278 27.0938C59.6005 27.3466 59.8178 27.6818 59.9798 28.0994C60.1417 28.517 60.2227 29.0312 60.2227 29.642V30.0682H55.1772V29.1989H59.1999C59.1999 28.8295 59.1261 28.5 58.9783 28.2102C58.8335 27.9205 58.6261 27.6918 58.3562 27.5241C58.0891 27.3565 57.7738 27.2727 57.4102 27.2727C57.0096 27.2727 56.663 27.3722 56.3704 27.571C56.0806 27.767 55.8576 28.0227 55.7013 28.3381C55.5451 28.6534 55.467 28.9915 55.467 29.3523V29.9318C55.467 30.4261 55.5522 30.8452 55.7227 31.1889C55.896 31.5298 56.136 31.7898 56.4428 31.9688C56.7496 32.1449 57.1062 32.233 57.5124 32.233C57.7766 32.233 58.0153 32.196 58.2283 32.1222C58.4442 32.0455 58.6303 31.9318 58.7866 31.7812C58.9428 31.6278 59.0636 31.4375 59.1488 31.2102L60.1204 31.483C60.0181 31.8125 59.8462 32.1023 59.6048 32.3523C59.3633 32.5994 59.065 32.7926 58.7099 32.9318C58.3548 33.0682 57.9556 33.1364 57.5124 33.1364ZM66.3888 27.9205L65.4854 28.1761C65.4286 28.0256 65.3448 27.8793 65.234 27.7372C65.1261 27.5923 64.9783 27.473 64.7908 27.3793C64.6033 27.2855 64.3633 27.2386 64.0707 27.2386C63.6701 27.2386 63.3363 27.331 63.0692 27.5156C62.805 27.6974 62.6729 27.929 62.6729 28.2102C62.6729 28.4602 62.7638 28.6577 62.9457 28.8026C63.1275 28.9474 63.4116 29.0682 63.7979 29.1648L64.7695 29.4034C65.3548 29.5455 65.7908 29.7628 66.0778 30.0554C66.3647 30.3452 66.5082 30.7187 66.5082 31.1761C66.5082 31.5511 66.4002 31.8864 66.1843 32.1818C65.9712 32.4773 65.6729 32.7102 65.2894 32.8807C64.9059 33.0511 64.4599 33.1364 63.9513 33.1364C63.2837 33.1364 62.7312 32.9915 62.2937 32.7017C61.8562 32.4119 61.5792 31.9886 61.4627 31.4318L62.4173 31.1932C62.5082 31.5455 62.68 31.8097 62.9329 31.9858C63.1886 32.1619 63.5224 32.25 63.9343 32.25C64.4031 32.25 64.7752 32.1506 65.0508 31.9517C65.3292 31.75 65.4684 31.5085 65.4684 31.2273C65.4684 31 65.3888 30.8097 65.2298 30.6562C65.0707 30.5 64.8263 30.3835 64.4968 30.3068L63.4059 30.0511C62.8065 29.9091 62.3661 29.6889 62.0849 29.3906C61.8065 29.0895 61.6673 28.7131 61.6673 28.2614C61.6673 27.892 61.771 27.5653 61.9783 27.2812C62.1886 26.9972 62.4741 26.7741 62.8349 26.6122C63.1985 26.4503 63.6104 26.3693 64.0707 26.3693C64.7184 26.3693 65.2269 26.5114 65.5962 26.7955C65.9684 27.0795 66.2326 27.4545 66.3888 27.9205ZM70.8686 26.4545V27.3068H67.4766V26.4545H70.8686ZM68.4652 24.8864H69.4709V31.125C69.4709 31.4091 69.5121 31.6222 69.5945 31.7642C69.6797 31.9034 69.7876 31.9972 69.9183 32.0455C70.0518 32.0909 70.1925 32.1136 70.3402 32.1136C70.451 32.1136 70.5419 32.108 70.6129 32.0966C70.6839 32.0824 70.7408 32.071 70.7834 32.0625L70.9879 32.9659C70.9197 32.9915 70.8246 33.017 70.7024 33.0426C70.5803 33.071 70.4254 33.0852 70.2379 33.0852C69.9538 33.0852 69.6754 33.0241 69.4027 32.902C69.1328 32.7798 68.9084 32.5938 68.7294 32.3438C68.5533 32.0938 68.4652 31.7784 68.4652 31.3977V24.8864ZM74.9702 33.1364C74.3793 33.1364 73.8608 32.9957 73.4148 32.7145C72.9716 32.4332 72.625 32.0398 72.375 31.5341C72.1278 31.0284 72.0043 30.4375 72.0043 29.7614C72.0043 29.0795 72.1278 28.4844 72.375 27.9759C72.625 27.4673 72.9716 27.0724 73.4148 26.7912C73.8608 26.5099 74.3793 26.3693 74.9702 26.3693C75.5611 26.3693 76.0781 26.5099 76.5213 26.7912C76.9673 27.0724 77.3139 27.4673 77.5611 27.9759C77.8111 28.4844 77.9361 29.0795 77.9361 29.7614C77.9361 30.4375 77.8111 31.0284 77.5611 31.5341C77.3139 32.0398 76.9673 32.4332 76.5213 32.7145C76.0781 32.9957 75.5611 33.1364 74.9702 33.1364ZM74.9702 32.233C75.419 32.233 75.7884 32.1179 76.0781 31.8878C76.3679 31.6577 76.5824 31.3551 76.7216 30.9801C76.8608 30.6051 76.9304 30.1989 76.9304 29.7614C76.9304 29.3239 76.8608 28.9162 76.7216 28.5384C76.5824 28.1605 76.3679 27.8551 76.0781 27.6222C75.7884 27.3892 75.419 27.2727 74.9702 27.2727C74.5213 27.2727 74.152 27.3892 73.8622 27.6222C73.5724 27.8551 73.358 28.1605 73.2188 28.5384C73.0795 28.9162 73.0099 29.3239 73.0099 29.7614C73.0099 30.1989 73.0795 30.6051 73.2188 30.9801C73.358 31.3551 73.5724 31.6577 73.8622 31.8878C74.152 32.1179 74.5213 32.233 74.9702 32.233ZM79.4712 33V26.4545H80.4428V27.4432H80.511C80.6303 27.1193 80.8462 26.8565 81.1587 26.6548C81.4712 26.4531 81.8235 26.3523 82.2156 26.3523C82.2894 26.3523 82.3817 26.3537 82.4925 26.3565C82.6033 26.3594 82.6871 26.3636 82.744 26.3693V27.392C82.7099 27.3835 82.6317 27.3707 82.5096 27.3537C82.3903 27.3338 82.2638 27.3239 82.1303 27.3239C81.8121 27.3239 81.5281 27.3906 81.2781 27.5241C81.0309 27.6548 80.8349 27.8366 80.69 28.0696C80.5479 28.2997 80.4769 28.5625 80.4769 28.858V33H79.4712Z" fill="#6B7280"/>
</svg>
