<svg width="198" height="42" viewBox="0 0 198 42" fill="none" xmlns="http://www.w3.org/2000/svg">
<rect width="198" height="42" rx="16" fill="white"/>
<path d="M20 11C14.48 11 10 15.48 10 21C10 26.52 14.48 31 20 31C25.52 31 30 26.52 30 21C30 15.48 25.52 11 20 11ZM20 29C15.58 29 12 25.42 12 21C12 19.15 12.63 17.45 13.69 16.1L24.9 27.31C23.55 28.37 21.85 29 20 29ZM26.31 25.9L15.1 14.69C16.45 13.63 18.15 13 20 13C24.42 13 28 16.58 28 21C28 22.85 27.37 24.55 26.31 25.9Z" fill="#DF6D51"/>
<path d="M42.6719 18.4929C42.6188 18.0223 42.4001 17.6577 42.0156 17.3991C41.6312 17.1373 41.1473 17.0064 40.5639 17.0064C40.1463 17.0064 39.785 17.0727 39.4801 17.2053C39.1752 17.3345 38.9382 17.5135 38.7692 17.7422C38.6035 17.9676 38.5206 18.2244 38.5206 18.5128C38.5206 18.7547 38.5769 18.9635 38.6896 19.1392C38.8056 19.3149 38.9564 19.4624 39.142 19.5817C39.331 19.6977 39.5331 19.7955 39.7486 19.875C39.964 19.9512 40.1712 20.0142 40.37 20.0639L41.3643 20.3224C41.6892 20.402 42.0223 20.5097 42.3636 20.6456C42.705 20.7815 43.0215 20.9605 43.3132 21.1825C43.6049 21.4046 43.8402 21.6797 44.0192 22.0078C44.2015 22.3359 44.2926 22.7287 44.2926 23.1861C44.2926 23.7628 44.1435 24.2749 43.8452 24.7223C43.5502 25.1697 43.121 25.5227 42.5575 25.7812C41.9974 26.0398 41.3196 26.169 40.5241 26.169C39.7618 26.169 39.1023 26.0481 38.5455 25.8061C37.9886 25.5642 37.5528 25.2211 37.2379 24.777C36.9231 24.3295 36.7491 23.7992 36.7159 23.1861H38.2571C38.2869 23.554 38.4063 23.8606 38.6151 24.1058C38.8272 24.3478 39.0973 24.5284 39.4254 24.6477C39.7569 24.7637 40.1198 24.8217 40.5142 24.8217C40.9484 24.8217 41.3345 24.7538 41.6726 24.6179C42.014 24.4787 42.2824 24.2865 42.478 24.0412C42.6735 23.7926 42.7713 23.5026 42.7713 23.1712C42.7713 22.8696 42.6851 22.6226 42.5128 22.4304C42.3438 22.2382 42.1134 22.0791 41.8217 21.9531C41.5334 21.8272 41.2069 21.7161 40.8423 21.62L39.6392 21.2919C38.8239 21.0698 38.1776 20.7434 37.7003 20.3125C37.2263 19.8816 36.9893 19.3116 36.9893 18.6023C36.9893 18.0156 37.1484 17.5036 37.4666 17.0661C37.7848 16.6286 38.2157 16.2888 38.7592 16.0469C39.3028 15.8016 39.916 15.679 40.5987 15.679C41.2881 15.679 41.8963 15.8 42.4233 16.0419C42.9536 16.2839 43.3712 16.617 43.6761 17.0412C43.9811 17.4621 44.1402 17.946 44.1534 18.4929H42.6719ZM46.0091 26V18.3636H47.4956V26H46.0091ZM46.7598 17.1854C46.5012 17.1854 46.2792 17.0992 46.0936 16.9268C45.9113 16.7512 45.8201 16.5424 45.8201 16.3004C45.8201 16.0552 45.9113 15.8464 46.0936 15.674C46.2792 15.4983 46.5012 15.4105 46.7598 15.4105C47.0183 15.4105 47.2387 15.4983 47.421 15.674C47.6066 15.8464 47.6994 16.0552 47.6994 16.3004C47.6994 16.5424 47.6066 16.7512 47.421 16.9268C47.2387 17.0992 47.0183 17.1854 46.7598 17.1854ZM50.9819 21.4659V26H49.4954V18.3636H50.9222V19.6065H51.0167C51.1924 19.2022 51.4674 18.8774 51.842 18.6321C52.2198 18.3868 52.6954 18.2642 53.2688 18.2642C53.7892 18.2642 54.2449 18.3736 54.636 18.5923C55.0271 18.8078 55.3304 19.1293 55.5458 19.5568C55.7612 19.9844 55.869 20.513 55.869 21.1428V26H54.3825V21.3217C54.3825 20.7682 54.2383 20.3357 53.9499 20.0241C53.6616 19.7093 53.2655 19.5518 52.7617 19.5518C52.417 19.5518 52.1104 19.6264 51.842 19.7756C51.5768 19.9247 51.3664 20.1435 51.2106 20.4318C51.0581 20.7169 50.9819 21.0616 50.9819 21.4659ZM64.7843 26.1541C64.0684 26.1541 63.4436 25.9901 62.91 25.6619C62.3764 25.3338 61.9621 24.8748 61.6671 24.2848C61.3721 23.6948 61.2246 23.0054 61.2246 22.2166C61.2246 21.4245 61.3721 20.7318 61.6671 20.1385C61.9621 19.5452 62.3764 19.0845 62.91 18.7564C63.4436 18.4283 64.0684 18.2642 64.7843 18.2642C65.5002 18.2642 66.1249 18.4283 66.6586 18.7564C67.1922 19.0845 67.6065 19.5452 67.9015 20.1385C68.1964 20.7318 68.3439 21.4245 68.3439 22.2166C68.3439 23.0054 68.1964 23.6948 67.9015 24.2848C67.6065 24.8748 67.1922 25.3338 66.6586 25.6619C66.1249 25.9901 65.5002 26.1541 64.7843 26.1541ZM64.7892 24.9062C65.2533 24.9062 65.6377 24.7836 65.9426 24.5384C66.2476 24.2931 66.473 23.9666 66.6188 23.5589C66.7679 23.1513 66.8425 22.7022 66.8425 22.2116C66.8425 21.7244 66.7679 21.277 66.6188 20.8693C66.473 20.4583 66.2476 20.1286 65.9426 19.88C65.6377 19.6314 65.2533 19.5071 64.7892 19.5071C64.3219 19.5071 63.9341 19.6314 63.6259 19.88C63.321 20.1286 63.0939 20.4583 62.9448 20.8693C62.7989 21.277 62.726 21.7244 62.726 22.2116C62.726 22.7022 62.7989 23.1513 62.9448 23.5589C63.0939 23.9666 63.321 24.2931 63.6259 24.5384C63.9341 24.7836 64.3219 24.9062 64.7892 24.9062ZM70.0032 26V18.3636H71.44V19.5767H71.5195C71.6587 19.1657 71.904 18.8426 72.2553 18.6072C72.61 18.3686 73.011 18.2493 73.4585 18.2493C73.5513 18.2493 73.6606 18.2526 73.7866 18.2592C73.9158 18.2659 74.0169 18.2741 74.0898 18.2841V19.706C74.0302 19.6894 73.9241 19.6712 73.7717 19.6513C73.6192 19.6281 73.4667 19.6165 73.3143 19.6165C72.963 19.6165 72.6497 19.6911 72.3746 19.8402C72.1029 19.986 71.8874 20.1899 71.7283 20.4517C71.5692 20.7102 71.4897 21.0052 71.4897 21.3366V26H70.0032ZM75.3762 26V18.3636H76.8627V26H75.3762ZM76.127 17.1854C75.8684 17.1854 75.6464 17.0992 75.4608 16.9268C75.2785 16.7512 75.1873 16.5424 75.1873 16.3004C75.1873 16.0552 75.2785 15.8464 75.4608 15.674C75.6464 15.4983 75.8684 15.4105 76.127 15.4105C76.3855 15.4105 76.6059 15.4983 76.7882 15.674C76.9738 15.8464 77.0666 16.0552 77.0666 16.3004C77.0666 16.5424 76.9738 16.7512 76.7882 16.9268C76.6059 17.0992 76.3855 17.1854 76.127 17.1854ZM82.0643 29.0227C81.4577 29.0227 80.9357 28.9432 80.4982 28.7841C80.064 28.625 79.7094 28.4145 79.4343 28.1527C79.1592 27.8909 78.9537 27.6042 78.8178 27.2926L80.0955 26.7656C80.185 26.9115 80.3043 27.0656 80.4535 27.228C80.6059 27.3937 80.8114 27.5346 81.07 27.6506C81.3318 27.7666 81.6682 27.8246 82.0792 27.8246C82.6426 27.8246 83.1083 27.687 83.4762 27.4119C83.8441 27.1402 84.0281 26.706 84.0281 26.1094V24.608H83.9336C83.8441 24.7704 83.7148 24.951 83.5458 25.1499C83.3801 25.3487 83.1514 25.5211 82.8597 25.6669C82.5681 25.8127 82.1886 25.8857 81.7212 25.8857C81.118 25.8857 80.5745 25.7448 80.0906 25.4631C79.61 25.178 79.2288 24.7588 78.9471 24.2053C78.6687 23.6484 78.5295 22.964 78.5295 22.152C78.5295 21.34 78.667 20.6439 78.9421 20.0639C79.2205 19.4839 79.6017 19.0398 80.0856 18.7315C80.5695 18.42 81.118 18.2642 81.7312 18.2642C82.2051 18.2642 82.5879 18.3438 82.8796 18.5028C83.1713 18.6586 83.3983 18.8409 83.5607 19.0497C83.7264 19.2585 83.854 19.4425 83.9435 19.6016H84.0529V18.3636H85.5096V26.169C85.5096 26.8253 85.3571 27.3639 85.0522 27.7848C84.7473 28.2057 84.3346 28.5173 83.8143 28.7195C83.2972 28.9216 82.7139 29.0227 82.0643 29.0227ZM82.0494 24.6527C82.4769 24.6527 82.8382 24.5533 83.1332 24.3544C83.4315 24.1522 83.6568 23.8639 83.8093 23.4893C83.9651 23.1115 84.043 22.6591 84.043 22.1321C84.043 21.6184 83.9667 21.166 83.8143 20.7749C83.6618 20.3838 83.4381 20.0788 83.1431 19.8601C82.8481 19.638 82.4835 19.527 82.0494 19.527C81.6019 19.527 81.229 19.643 80.9308 19.875C80.6325 20.1037 80.4071 20.4152 80.2546 20.8097C80.1055 21.2041 80.0309 21.6449 80.0309 22.1321C80.0309 22.6326 80.1071 23.0717 80.2596 23.4496C80.4121 23.8274 80.6374 24.1224 80.9357 24.3345C81.2373 24.5466 81.6085 24.6527 82.0494 24.6527ZM90.7944 26.1541C90.042 26.1541 89.3941 25.9934 88.8505 25.6719C88.3103 25.3471 87.8926 24.8913 87.5977 24.3047C87.306 23.7147 87.1602 23.0237 87.1602 22.2315C87.1602 21.4493 87.306 20.7599 87.5977 20.1634C87.8926 19.5668 88.3036 19.1011 88.8306 18.7663C89.3609 18.4316 89.9807 18.2642 90.69 18.2642C91.1209 18.2642 91.5385 18.3355 91.9428 18.478C92.3472 18.6205 92.7101 18.8442 93.0316 19.1491C93.3531 19.4541 93.6067 19.8501 93.7923 20.3374C93.9779 20.8213 94.0707 21.4096 94.0707 22.1023V22.6293H88.0004V21.5156H92.614C92.614 21.1245 92.5344 20.7782 92.3754 20.4766C92.2163 20.1716 91.9925 19.9313 91.7042 19.7557C91.4192 19.58 91.0844 19.4922 90.6999 19.4922C90.2823 19.4922 89.9177 19.5949 89.6062 19.8004C89.2979 20.0026 89.0593 20.2678 88.8903 20.5959C88.7246 20.9207 88.6417 21.2737 88.6417 21.6548V22.5249C88.6417 23.0353 88.7312 23.4695 88.9102 23.8274C89.0924 24.1854 89.346 24.4588 89.6708 24.6477C89.9956 24.8333 90.3751 24.9261 90.8093 24.9261C91.091 24.9261 91.3479 24.8864 91.5799 24.8068C91.8119 24.724 92.0124 24.6013 92.1815 24.4389C92.3505 24.2765 92.4798 24.076 92.5692 23.8374L93.9762 24.0909C93.8635 24.5052 93.6613 24.8681 93.3697 25.1797C93.0813 25.4879 92.7184 25.7282 92.2809 25.9006C91.8467 26.0696 91.3512 26.1541 90.7944 26.1541ZM97.2065 21.4659V26H95.72V18.3636H97.1468V19.6065H97.2413C97.417 19.2022 97.6921 18.8774 98.0666 18.6321C98.4444 18.3868 98.92 18.2642 99.4934 18.2642C100.014 18.2642 100.47 18.3736 100.861 18.5923C101.252 18.8078 101.555 19.1293 101.77 19.5568C101.986 19.9844 102.094 20.513 102.094 21.1428V26H100.607V21.3217C100.607 20.7682 100.463 20.3357 100.175 20.0241C99.8862 19.7093 99.4901 19.5518 98.9863 19.5518C98.6416 19.5518 98.335 19.6264 98.0666 19.7756C97.8014 19.9247 97.591 20.1435 97.4352 20.4318C97.2827 20.7169 97.2065 21.0616 97.2065 21.4659Z" fill="#364152"/>
</svg>
