<svg width="18" height="21" viewBox="0 0 18 21" fill="none" xmlns="http://www.w3.org/2000/svg">
<path d="M15 0V1.5H16.5V6C16.5 6.79565 16.1839 7.55871 15.6213 8.12132C15.0587 8.68393 14.2957 9 13.5 9C12.7044 9 11.9413 8.68393 11.3787 8.12132C10.8161 7.55871 10.5 6.79565 10.5 6V1.5H12V0H9.00001V6C9.00185 7.06245 9.37923 8.09004 10.0654 8.90116C10.7517 9.71227 11.7025 10.2547 12.75 10.4325V15C12.75 16.1935 12.2759 17.3381 11.432 18.182C10.5881 19.0259 9.44348 19.5 8.25001 19.5C7.05653 19.5 5.91194 19.0259 5.06803 18.182C4.22411 17.3381 3.75001 16.1935 3.75001 15V10.3934C4.457 10.2109 5.07315 9.77675 5.48296 9.17242C5.89277 8.56809 6.0681 7.83504 5.9761 7.11067C5.88409 6.38631 5.53106 5.72038 4.98318 5.23768C4.4353 4.75499 3.73019 4.48869 3.00001 4.48869C2.26983 4.48869 1.56471 4.75499 1.01683 5.23768C0.468953 5.72038 0.115924 6.38631 0.0239182 7.11067C-0.0680876 7.83504 0.107247 8.56809 0.517056 9.17242C0.926865 9.77675 1.54301 10.2109 2.25001 10.3934V15C2.25001 16.5913 2.88215 18.1174 4.00737 19.2426C5.13258 20.3679 6.65871 21 8.25001 21C9.84131 21 11.3674 20.3679 12.4926 19.2426C13.6179 18.1174 14.25 16.5913 14.25 15V10.4325C15.2975 10.2547 16.2483 9.71227 16.9346 8.90116C17.6208 8.09004 17.9982 7.06245 18 6V0H15ZM1.50001 7.5C1.50001 7.20333 1.58798 6.91332 1.7528 6.66665C1.91762 6.41997 2.15189 6.22771 2.42598 6.11418C2.70007 6.00065 3.00167 5.97094 3.29264 6.02882C3.58361 6.0867 3.85089 6.22956 4.06067 6.43934C4.27045 6.64912 4.41331 6.91639 4.47119 7.20736C4.52906 7.49834 4.49936 7.79994 4.38583 8.07403C4.27229 8.34811 4.08004 8.58238 3.83336 8.7472C3.58669 8.91203 3.29668 9 3.00001 9C2.60232 8.99954 2.22106 8.84136 1.93985 8.56016C1.65865 8.27895 1.50046 7.89768 1.50001 7.5Z" fill="#707882"/>
</svg>
