<svg width="138" height="138" viewBox="0 0 138 138" fill="none" xmlns="http://www.w3.org/2000/svg">
<g opacity="0.8">
<path d="M68.9998 11.9167C37.4898 11.9167 11.9165 37.4901 11.9165 69.0001C11.9165 100.51 37.4898 126.083 68.9998 126.083C100.51 126.083 126.083 100.51 126.083 69.0001C126.083 37.4901 100.51 11.9167 68.9998 11.9167ZM53.5303 93.4888L33.0373 72.9959C30.8111 70.7697 30.8111 67.1734 33.0373 64.9472C35.2636 62.7209 38.8598 62.7209 41.0861 64.9472L57.5832 81.3872L96.8565 42.1138C99.0827 39.8876 102.679 39.8876 104.905 42.1138C107.132 44.3401 107.132 47.9363 104.905 50.1626L61.579 93.4888C59.4098 95.7151 55.7565 95.7151 53.5303 93.4888Z" fill="#F5F5F5"/>
</g>
</svg>
