<svg width="12" height="15" viewBox="0 0 12 15" fill="none" xmlns="http://www.w3.org/2000/svg">
<path fill-rule="evenodd" clip-rule="evenodd" d="M0 2C0 1.46957 0.210714 0.960859 0.585786 0.585786C0.960859 0.210714 1.46957 0 2 0C2 0.795649 2.31607 1.55871 2.87868 2.12132C3.44129 2.68393 4.20435 3 5 3H7C7.79565 3 8.55871 2.68393 9.12132 2.12132C9.68393 1.55871 10 0.795649 10 0C10.5304 0 11.0391 0.210714 11.4142 0.585786C11.7893 0.960859 12 1.46957 12 2V13C12 13.5304 11.7893 14.0391 11.4142 14.4142C11.0391 14.7893 10.5304 15 10 15H2C1.46957 15 0.960859 14.7893 0.585786 14.4142C0.210714 14.0391 0 13.5304 0 13V2ZM9.707 7.707C9.88916 7.5184 9.98995 7.2658 9.98767 7.0036C9.9854 6.7414 9.88023 6.49059 9.69482 6.30518C9.50941 6.11977 9.2586 6.0146 8.9964 6.01233C8.7342 6.01005 8.4816 6.11084 8.293 6.293L5 9.586L3.707 8.293C3.5184 8.11084 3.2658 8.01005 3.0036 8.01233C2.7414 8.0146 2.49059 8.11977 2.30518 8.30518C2.11977 8.49059 2.0146 8.7414 2.01233 9.0036C2.01005 9.2658 2.11084 9.5184 2.293 9.707L4.293 11.707C4.48053 11.8945 4.73484 11.9998 5 11.9998C5.26516 11.9998 5.51947 11.8945 5.707 11.707L9.707 7.707Z" fill="#6B7280"/>
</svg>
