<svg width="192" height="171" viewBox="0 0 192 171" fill="none" xmlns="http://www.w3.org/2000/svg">
<g clip-path="url(#clip0_1441_22753)">
<path d="M98.3173 0.37299L92.1025 1.97172L15.5349 21.6685L9.32005 23.2672C6.30346 24.0468 3.72006 25.9882 2.13662 28.6656C0.553184 31.3429 0.0990261 34.5374 0.873782 37.5483L27.8225 141.793C28.6041 144.802 30.5503 147.379 33.2342 148.959C35.9181 150.538 39.1205 150.991 42.1389 150.218L42.1549 150.214L131.12 127.328L131.136 127.324C134.153 126.544 136.736 124.603 138.32 121.926C139.903 119.248 140.357 116.054 139.582 113.043L112.634 8.79855C111.852 5.78936 109.906 3.2123 107.222 1.63275C104.538 0.053195 101.336 -0.399857 98.3173 0.37299Z" fill="#F2F2F2"/>
<path d="M99.1623 3.64113L91.8013 5.53472L17.5258 24.6418L10.1649 26.5354C8.01672 27.0905 6.17701 28.4731 5.04941 30.3796C3.9218 32.2862 3.59838 34.5611 4.1501 36.7053L31.0989 140.95C31.6554 143.093 33.0414 144.928 34.9526 146.053C36.8639 147.177 39.1444 147.5 41.2938 146.95L41.3099 146.946L130.275 124.06L130.291 124.055C132.439 123.5 134.279 122.118 135.407 120.211C136.534 118.305 136.858 116.03 136.306 113.886L109.357 9.64117C108.801 7.49828 107.415 5.66311 105.503 4.53827C103.592 3.41343 101.312 3.09079 99.1623 3.64113Z" fill="white"/>
<path d="M93.6041 37.3981L48.5988 48.9756C48.0961 49.1049 47.5625 49.0297 47.1154 48.7666C46.6683 48.5034 46.3443 48.0739 46.2147 47.5725C46.0851 47.0711 46.1605 46.5388 46.4242 46.0928C46.688 45.6468 47.1186 45.3236 47.6213 45.1943L92.6265 33.6168C93.129 33.4881 93.6622 33.5635 94.1089 33.8267C94.5557 34.0899 94.8794 34.5192 95.0089 35.0204C95.1385 35.5215 95.0633 36.0534 94.7999 36.4993C94.5364 36.9452 94.1063 37.2684 93.6041 37.3981Z" fill="#F2F2F2"/>
<path d="M103.072 41.7679L50.2483 55.3566C49.7456 55.4859 49.2121 55.4107 48.765 55.1475C48.3179 54.8844 47.9939 54.4549 47.8643 53.9535C47.7346 53.452 47.81 52.9198 48.0738 52.4738C48.3375 52.0278 48.7681 51.7046 49.2708 51.5753L102.094 37.9867C102.597 37.8574 103.13 37.9325 103.578 38.1957C104.025 38.4588 104.349 38.8883 104.478 39.3897C104.608 39.8912 104.533 40.4234 104.269 40.8694C104.005 41.3154 103.574 41.6386 103.072 41.7679Z" fill="#F2F2F2"/>
<path d="M100.997 65.994L55.9912 77.5715C55.7423 77.6355 55.4832 77.65 55.2287 77.6141C54.9742 77.5783 54.7293 77.4927 54.5079 77.3625C54.2865 77.2322 54.093 77.0597 53.9385 76.8548C53.7839 76.6499 53.6714 76.4167 53.6072 76.1684C53.543 75.9201 53.5285 75.6616 53.5644 75.4077C53.6004 75.1539 53.6861 74.9095 53.8167 74.6887C53.9473 74.4678 54.1202 74.2748 54.3256 74.1207C54.531 73.9665 54.7648 73.8542 55.0137 73.7902L100.019 62.2127C100.268 62.1487 100.527 62.1342 100.782 62.1701C101.036 62.2059 101.281 62.2914 101.502 62.4217C101.724 62.552 101.917 62.7245 102.072 62.9294C102.226 63.1343 102.339 63.3675 102.403 63.6158C102.467 63.8641 102.482 64.1226 102.446 64.3764C102.41 64.6303 102.324 64.8747 102.194 65.0955C102.063 65.3163 101.89 65.5093 101.685 65.6635C101.479 65.8177 101.245 65.93 100.997 65.994Z" fill="#F2F2F2"/>
<path d="M110.464 70.3639L57.6408 83.9525C57.3919 84.0165 57.1328 84.031 56.8783 83.9952C56.6237 83.9593 56.3788 83.8738 56.1574 83.7435C55.9361 83.6132 55.7426 83.4407 55.588 83.2358C55.4335 83.0309 55.3209 82.7977 55.2567 82.5494C55.1925 82.3011 55.178 82.0427 55.2139 81.7888C55.2499 81.5349 55.3356 81.2906 55.4662 81.0697C55.5968 80.8489 55.7698 80.6559 55.9751 80.5017C56.1805 80.3476 56.4143 80.2353 56.6632 80.1712L109.487 66.5826C109.989 66.4533 110.523 66.5285 110.97 66.7916C111.417 67.0547 111.741 67.4843 111.871 67.9857C112 68.4871 111.925 69.0194 111.661 69.4654C111.397 69.9114 110.967 70.2346 110.464 70.3639Z" fill="#F2F2F2"/>
<path d="M108.389 94.59L63.3837 106.167C62.8812 106.296 62.3479 106.221 61.9011 105.958C61.4543 105.695 61.1305 105.265 61.001 104.764C60.8714 104.263 60.9466 103.731 61.2101 103.285C61.4737 102.839 61.9039 102.516 62.4062 102.386L107.412 90.8087C107.914 90.6794 108.448 90.7546 108.895 91.0177C109.342 91.2808 109.666 91.7103 109.796 92.2118C109.925 92.7132 109.85 93.2454 109.586 93.6914C109.322 94.1374 108.892 94.4606 108.389 94.59Z" fill="#F2F2F2"/>
<path d="M117.857 98.9596L65.0333 112.548C64.7843 112.612 64.5251 112.627 64.2704 112.591C64.0157 112.556 63.7706 112.47 63.5491 112.34C63.3275 112.21 63.1338 112.037 62.9792 111.832C62.8245 111.627 62.7118 111.394 62.6476 111.146C62.5834 110.897 62.5688 110.639 62.6049 110.385C62.6409 110.13 62.7268 109.886 62.8575 109.665C62.9883 109.444 63.1615 109.251 63.3671 109.097C63.5727 108.943 63.8067 108.831 64.0558 108.767L116.879 95.1783C117.382 95.049 117.915 95.1242 118.363 95.3873C118.81 95.6504 119.134 96.08 119.263 96.5814C119.393 97.0828 119.318 97.6151 119.054 98.0611C118.79 98.5071 118.359 98.8303 117.857 98.9596Z" fill="#F2F2F2"/>
<path d="M40.9157 60.8467L24.9887 64.9439C24.7477 65.0056 24.492 64.9694 24.2777 64.8433C24.0634 64.7172 23.908 64.5114 23.8456 64.2711L20.1895 50.1287C20.1277 49.8883 20.1639 49.6332 20.2904 49.4195C20.4168 49.2057 20.6231 49.0507 20.864 48.9884L36.7909 44.8913C37.0319 44.8295 37.2876 44.8657 37.502 44.9918C37.7163 45.118 37.8717 45.3237 37.9341 45.564L41.5901 59.7064C41.652 59.9468 41.6157 60.2019 41.4893 60.4157C41.3628 60.6295 41.1565 60.7845 40.9157 60.8467Z" fill="#E6E6E6"/>
<path d="M48.3081 89.4424L32.3812 93.5396C32.1402 93.6013 31.8844 93.5651 31.6701 93.439C31.4558 93.3129 31.3004 93.1071 31.238 92.8668L27.582 78.7244C27.5201 78.484 27.5564 78.2289 27.6828 78.0152C27.8093 77.8014 28.0156 77.6464 28.2564 77.5841L44.1834 73.487C44.4244 73.4252 44.6801 73.4614 44.8944 73.5875C45.1087 73.7137 45.2641 73.9195 45.3265 74.1597L48.9825 88.3021C49.0444 88.5425 49.0082 88.7976 48.8817 89.0114C48.7553 89.2252 48.549 89.3802 48.3081 89.4424Z" fill="#E6E6E6"/>
<path d="M55.7007 118.038L39.7738 122.136C39.5327 122.197 39.277 122.161 39.0627 122.035C38.8484 121.909 38.693 121.703 38.6306 121.463L34.9746 107.32C34.9127 107.08 34.949 106.825 35.0754 106.611C35.2018 106.397 35.4081 106.242 35.649 106.18L51.576 102.083C51.817 102.021 52.0727 102.057 52.287 102.183C52.5013 102.31 52.6567 102.515 52.7191 102.756L56.3751 116.898C56.437 117.138 56.4007 117.394 56.2743 117.607C56.1479 117.821 55.9416 117.976 55.7007 118.038Z" fill="#E6E6E6"/>
<path d="M160.388 26.7974H68.4795C65.3633 26.8009 62.3757 28.0373 60.1723 30.2353C57.9688 32.4334 56.7293 35.4136 56.7258 38.5222V146.177C56.7293 149.286 57.9688 152.266 60.1723 154.464C62.3757 156.662 65.3633 157.898 68.4795 157.902H160.388C163.505 157.898 166.492 156.662 168.696 154.464C170.899 152.266 172.138 149.286 172.142 146.177V38.5222C172.138 35.4136 170.899 32.4334 168.696 30.2353C166.492 28.0373 163.505 26.8009 160.388 26.7974Z" fill="#E6E6E6"/>
<path d="M160.389 30.1729H68.4796C66.2604 30.1753 64.1329 31.0558 62.5638 32.6211C60.9946 34.1864 60.112 36.3087 60.1095 38.5223V146.177C60.112 148.391 60.9946 150.513 62.5638 152.078C64.1329 153.644 66.2604 154.524 68.4796 154.527H160.389C162.608 154.524 164.735 153.644 166.304 152.078C167.873 150.513 168.756 148.391 168.758 146.177V38.5223C168.756 36.3087 167.873 34.1864 166.304 32.6211C164.735 31.0558 162.608 30.1754 160.389 30.1729Z" fill="white"/>
<path d="M169.956 170.806C181.806 170.806 191.412 161.224 191.412 149.403C191.412 137.582 181.806 128 169.956 128C158.106 128 148.5 137.582 148.5 149.403C148.5 161.224 158.106 170.806 169.956 170.806Z" fill="#EB8B76"/>
<path d="M146.556 89.3288H100.078C99.8212 89.3291 99.5664 89.2788 99.3287 89.1808C99.091 89.0828 98.8749 88.939 98.693 88.7577C98.511 88.5764 98.3666 88.361 98.2681 88.124C98.1696 87.887 98.1189 87.6329 98.1189 87.3763C98.1189 87.1197 98.1696 86.8657 98.2681 86.6286C98.3666 86.3916 98.511 86.1763 98.693 85.9949C98.8749 85.8136 99.091 85.6698 99.3287 85.5718C99.5664 85.4738 99.8212 85.4235 100.078 85.4238H146.556C147.075 85.4244 147.572 85.6304 147.939 85.9965C148.305 86.3626 148.511 86.8589 148.511 87.3763C148.511 87.8938 148.305 88.3901 147.939 88.7562C147.572 89.1223 147.075 89.3282 146.556 89.3288Z" fill="#E6E6E6"/>
<path d="M154.63 95.9184H100.078C99.8212 95.9187 99.5664 95.8684 99.3287 95.7704C99.091 95.6724 98.8749 95.5286 98.693 95.3473C98.511 95.166 98.3666 94.9506 98.2681 94.7136C98.1696 94.4766 98.1189 94.2225 98.1189 93.9659C98.1189 93.7093 98.1696 93.4553 98.2681 93.2182C98.3666 92.9812 98.511 92.7659 98.693 92.5845C98.8749 92.4032 99.091 92.2594 99.3287 92.1614C99.5664 92.0634 99.8212 92.0131 100.078 92.0134H154.63C155.149 92.0134 155.647 92.2191 156.014 92.5853C156.381 92.9515 156.587 93.4481 156.587 93.9659C156.587 94.4837 156.381 94.9804 156.014 95.3465C155.647 95.7127 155.149 95.9184 154.63 95.9184Z" fill="#E6E6E6"/>
<path d="M146.556 118.86H100.078C99.8212 118.861 99.5664 118.81 99.3287 118.712C99.091 118.614 98.8749 118.471 98.693 118.289C98.511 118.108 98.3666 117.893 98.2681 117.656C98.1696 117.418 98.1189 117.164 98.1189 116.908C98.1189 116.651 98.1696 116.397 98.2681 116.16C98.3666 115.923 98.511 115.708 98.693 115.526C98.8749 115.345 99.091 115.201 99.3287 115.103C99.5664 115.005 99.8212 114.955 100.078 114.955H146.556C147.075 114.955 147.573 115.161 147.94 115.527C148.307 115.893 148.513 116.39 148.513 116.908C148.513 117.426 148.307 117.922 147.94 118.288C147.573 118.655 147.075 118.86 146.556 118.86Z" fill="#E6E6E6"/>
<path d="M154.63 125.45H100.078C99.8212 125.45 99.5664 125.4 99.3287 125.302C99.091 125.204 98.8749 125.06 98.693 124.879C98.511 124.697 98.3666 124.482 98.2681 124.245C98.1696 124.008 98.1189 123.754 98.1189 123.497C98.1189 123.241 98.1696 122.987 98.2681 122.75C98.3666 122.513 98.511 122.297 98.693 122.116C98.8749 121.935 99.091 121.791 99.3287 121.693C99.5664 121.595 99.8212 121.545 100.078 121.545H154.63C154.887 121.545 155.142 121.595 155.38 121.693C155.617 121.791 155.833 121.935 156.015 122.116C156.197 122.297 156.342 122.513 156.44 122.75C156.539 122.987 156.589 123.241 156.589 123.497C156.589 123.754 156.539 124.008 156.44 124.245C156.342 124.482 156.197 124.697 156.015 124.879C155.833 125.06 155.617 125.204 155.38 125.302C155.142 125.4 154.887 125.45 154.63 125.45Z" fill="#E6E6E6"/>
<path d="M89.6672 98.9098H73.2192C72.9703 98.9096 72.7318 98.8109 72.5558 98.6353C72.3799 98.4598 72.2809 98.2218 72.2806 97.9736V83.3686C72.2809 83.1204 72.3799 82.8824 72.5558 82.7069C72.7318 82.5314 72.9703 82.4326 73.2192 82.4324H89.6672C89.916 82.4326 90.1546 82.5314 90.3305 82.7069C90.5065 82.8824 90.6054 83.1204 90.6057 83.3686V97.9736C90.6054 98.2218 90.5065 98.4598 90.3305 98.6353C90.1546 98.8109 89.916 98.9096 89.6672 98.9098Z" fill="#E6E6E6"/>
<path d="M89.6672 128.441H73.2192C72.9703 128.441 72.7318 128.342 72.5558 128.167C72.3799 127.991 72.2809 127.753 72.2806 127.505V112.9C72.2809 112.652 72.3799 112.414 72.5558 112.238C72.7318 112.063 72.9703 111.964 73.2192 111.964H89.6672C89.916 111.964 90.1546 112.063 90.3305 112.238C90.5065 112.414 90.6054 112.652 90.6057 112.9V127.505C90.6054 127.753 90.5065 127.991 90.3305 128.167C90.1546 128.342 89.916 128.441 89.6672 128.441Z" fill="#E6E6E6"/>
<path d="M146.608 56.4545H112.342C111.822 56.4545 111.325 56.2488 110.958 55.8827C110.59 55.5165 110.384 55.0199 110.384 54.502C110.384 53.9842 110.59 53.4876 110.958 53.1214C111.325 52.7553 111.822 52.5496 112.342 52.5496H146.608C147.127 52.5496 147.625 52.7553 147.992 53.1214C148.359 53.4876 148.565 53.9842 148.565 54.502C148.565 55.0199 148.359 55.5165 147.992 55.8827C147.625 56.2488 147.127 56.4545 146.608 56.4545Z" fill="#CCCCCC"/>
<path d="M154.682 63.0441H112.342C112.085 63.0441 111.83 62.9936 111.593 62.8955C111.355 62.7974 111.139 62.6536 110.958 62.4723C110.776 62.291 110.632 62.0757 110.533 61.8388C110.435 61.6019 110.384 61.3481 110.384 61.0916C110.384 60.8352 110.435 60.5813 110.533 60.3445C110.632 60.1076 110.776 59.8923 110.958 59.711C111.139 59.5297 111.355 59.3859 111.593 59.2878C111.83 59.1897 112.085 59.1392 112.342 59.1392H154.682C155.201 59.1392 155.699 59.3449 156.066 59.711C156.433 60.0772 156.639 60.5738 156.639 61.0916C156.639 61.6095 156.433 62.1061 156.066 62.4723C155.699 62.8384 155.201 63.0441 154.682 63.0441Z" fill="#CCCCCC"/>
<path d="M104.758 71.0301H73.1675C72.9187 71.0298 72.6801 70.9311 72.5042 70.7556C72.3282 70.58 72.2293 70.3421 72.229 70.0939V45.4999C72.2293 45.2517 72.3282 45.0137 72.5042 44.8382C72.6801 44.6627 72.9187 44.564 73.1675 44.5637H104.758C105.007 44.564 105.245 44.6627 105.421 44.8382C105.597 45.0137 105.696 45.2517 105.696 45.4999V70.0939C105.696 70.3421 105.597 70.58 105.421 70.7556C105.245 70.9311 105.007 71.0298 104.758 71.0301Z" fill="#EB8B76"/>
<path d="M170.5 139.988L179.285 155.167H161.715L170.5 139.988ZM159.697 154C158.798 155.552 159.918 157.5 161.715 157.5H179.285C181.082 157.5 182.202 155.552 181.303 154L172.518 138.822C171.62 137.27 169.38 137.27 168.482 138.822L159.697 154ZM169.333 145.833V148.167C169.333 148.808 169.858 149.333 170.5 149.333C171.142 149.333 171.667 148.808 171.667 148.167V145.833C171.667 145.192 171.142 144.667 170.5 144.667C169.858 144.667 169.333 145.192 169.333 145.833ZM169.333 151.667H171.667V154H169.333V151.667Z" fill="white"/>
</g>
<defs>
<clipPath id="clip0_1441_22753">
<rect width="191" height="171" fill="white" transform="translate(0.5)"/>
</clipPath>
</defs>
</svg>
