<svg width="90" height="144" viewBox="0 0 90 144" fill="none" xmlns="http://www.w3.org/2000/svg">
<path d="M46.6466 20.1514H44.5266V35.9653H46.6466V20.1514Z" fill="#364F6B"/>
<path d="M54.2571 27.1742L52.7043 28.62L45.5887 20.9645L38.4704 28.62L36.9177 27.1742L45.5887 17.8523L54.2571 27.1742Z" fill="#364F6B"/>
<path d="M45 43.9136C41.6455 43.9136 38.3664 42.9191 35.5773 41.0559C32.7881 39.1927 30.6143 36.5444 29.3306 33.4459C28.0469 30.3475 27.711 26.938 28.3654 23.6487C29.0199 20.3594 30.6352 17.338 33.0072 14.9665C35.3791 12.5951 38.4012 10.9801 41.6912 10.3258C44.9812 9.67155 48.3914 10.0073 51.4905 11.2908C54.5896 12.5742 57.2385 14.7476 59.1021 17.5361C60.9657 20.3246 61.9604 23.6031 61.9604 26.9568C61.9554 31.4525 60.1668 35.7626 56.9872 38.9415C53.8076 42.1204 49.4966 43.9086 45 43.9136ZM45 12.1196C42.0649 12.1196 39.1956 12.9898 36.7551 14.6201C34.3146 16.2505 32.4125 18.5677 31.2893 21.2789C30.166 23.99 29.8721 26.9733 30.4448 29.8514C31.0174 32.7296 32.4308 35.3733 34.5063 37.4483C36.5817 39.5233 39.226 40.9364 42.1048 41.5089C44.9835 42.0814 47.9674 41.7876 50.6792 40.6646C53.3909 39.5416 55.7086 37.6399 57.3393 35.1999C58.97 32.76 59.8404 29.8913 59.8404 26.9568C59.836 23.0231 58.271 19.2518 55.4888 16.4702C52.7067 13.6887 48.9346 12.124 45 12.1196Z" fill="#364F6B"/>
<g clip-path="url(#clip0_5408_40187)">
<path d="M72.6667 60.9136H17.3333C15.4989 60.9136 13.7396 61.6423 12.4425 62.9394C11.1454 64.2365 10.4167 65.9958 10.4167 67.8302V74.7469C10.424 75.954 10.747 77.1381 11.3537 78.1816C11.9604 79.2251 12.8296 80.0917 13.875 80.6952V116.247C13.875 118.081 14.6037 119.841 15.9008 121.138C17.198 122.435 18.9573 123.164 20.7917 123.164H69.2083C71.0428 123.164 72.802 122.435 74.0992 121.138C75.3963 119.841 76.125 118.081 76.125 116.247V80.6952C77.1704 80.0917 78.0396 79.2251 78.6463 78.1816C79.253 77.1381 79.576 75.954 79.5833 74.7469V67.8302C79.5833 65.9958 78.8546 64.2365 77.5575 62.9394C76.2604 61.6423 74.5011 60.9136 72.6667 60.9136ZM17.3333 67.8302H72.6667V74.7469H17.3333V67.8302ZM20.7917 116.247V81.6636H69.2083V116.247H20.7917Z" fill="#364F6B"/>
<path d="M38.0837 87.9556H65.7503V94.8722H38.0837V87.9556Z" fill="#364F6B"/>
</g>
<defs>
<clipPath id="clip0_5408_40187">
<rect width="69.1667" height="82.25" fill="white" transform="translate(10.4167 50.9136)"/>
</clipPath>
</defs>
</svg>
