<svg width="65" height="24" viewBox="0 0 65 24" fill="none" xmlns="http://www.w3.org/2000/svg">
<path d="M0.0585938 12C0.0585938 5.37258 5.43118 0 12.0586 0H52.9998C59.6272 0 64.9998 5.37258 64.9998 12V12C64.9998 18.6274 59.6272 24 52.9998 24H12.0586C5.43117 24 0.0585938 18.6274 0.0585938 12V12Z" fill="#F7FAFC"/>
<path d="M20.5298 12C22.2198 12 23.5886 10.6311 23.5886 8.94115C23.5886 7.25115 22.2198 5.88232 20.5298 5.88232C18.8398 5.88232 17.4709 7.25115 17.4709 8.94115C17.4709 10.6311 18.8398 12 20.5298 12ZM20.5298 13.5294C18.488 13.5294 14.4121 14.5541 14.4121 16.5882V17.3529C14.4121 17.7735 14.7562 18.1176 15.1768 18.1176H25.8827C26.3033 18.1176 26.6474 17.7735 26.6474 17.3529V16.5882C26.6474 14.5541 22.5715 13.5294 20.5298 13.5294Z" fill="#68D391"/>
<line x1="32.7411" y1="3.74106" x2="32.7411" y2="20.2587" stroke="#CBD5E0" stroke-width="0.423529" stroke-linecap="round"/>
<path d="M48.3524 10.8533V8.17682C48.3524 7.75623 48.0082 7.41211 47.5877 7.41211H38.4112C37.9906 7.41211 37.6465 7.75623 37.6465 8.17682V15.8239C37.6465 16.2445 37.9906 16.5886 38.4112 16.5886H47.5877C48.0082 16.5886 48.3524 16.2445 48.3524 15.8239V13.1474L50.1035 14.8986C50.5853 15.3803 51.4112 15.0362 51.4112 14.3556V9.6374C51.4112 8.95682 50.5853 8.6127 50.1035 9.09446L48.3524 10.8533Z" fill="#DF6D51"/>
</svg>
