<svg width="14" height="14" viewBox="0 0 14 14" fill="none" xmlns="http://www.w3.org/2000/svg">
<path d="M2.60753 12.2501H11.3925C12.2909 12.2501 12.8509 11.276 12.4017 10.5001L8.0092 2.91098C7.56003 2.13514 6.44003 2.13514 5.99086 2.91098L1.59836 10.5001C1.1492 11.276 1.7092 12.2501 2.60753 12.2501ZM7.00003 8.16681C6.6792 8.16681 6.4167 7.90431 6.4167 7.58348V6.41681C6.4167 6.09598 6.6792 5.83348 7.00003 5.83348C7.32086 5.83348 7.58336 6.09598 7.58336 6.41681V7.58348C7.58336 7.90431 7.32086 8.16681 7.00003 8.16681ZM7.58336 10.5001H6.4167V9.33348H7.58336V10.5001Z" fill="#F8F8F8"/>
</svg>
