<svg width="99" height="24" viewBox="0 0 99 24" fill="none" xmlns="http://www.w3.org/2000/svg">
<path d="M12 2C6.48 2 2 6.48 2 12C2 17.52 6.48 22 12 22C17.52 22 22 17.52 22 12C22 6.48 17.52 2 12 2ZM12 20C7.58 20 4 16.42 4 12C4 10.15 4.63 8.45 5.69 7.1L16.9 18.31C15.55 19.37 13.85 20 12 20ZM18.31 16.9L7.1 5.69C8.45 4.63 10.15 4 12 4C16.42 4 20 7.58 20 12C20 13.85 19.37 15.55 18.31 16.9Z" fill="#DF6D51"/>
<path d="M34.6719 9.4929C34.6188 9.02225 34.4001 8.65767 34.0156 8.39915C33.6312 8.13731 33.1473 8.00639 32.5639 8.00639C32.1463 8.00639 31.785 8.07268 31.4801 8.20526C31.1752 8.33452 30.9382 8.51349 30.7692 8.74219C30.6035 8.96757 30.5206 9.22443 30.5206 9.51278C30.5206 9.75473 30.5769 9.96354 30.6896 10.1392C30.8056 10.3149 30.9564 10.4624 31.142 10.5817C31.331 10.6977 31.5331 10.7955 31.7486 10.875C31.964 10.9512 32.1712 11.0142 32.37 11.0639L33.3643 11.3224C33.6892 11.402 34.0223 11.5097 34.3636 11.6456C34.705 11.7815 35.0215 11.9605 35.3132 12.1825C35.6049 12.4046 35.8402 12.6797 36.0192 13.0078C36.2015 13.3359 36.2926 13.7287 36.2926 14.1861C36.2926 14.7628 36.1435 15.2749 35.8452 15.7223C35.5502 16.1697 35.121 16.5227 34.5575 16.7812C33.9974 17.0398 33.3196 17.169 32.5241 17.169C31.7618 17.169 31.1023 17.0481 30.5455 16.8061C29.9886 16.5642 29.5528 16.2211 29.2379 15.777C28.9231 15.3295 28.7491 14.7992 28.7159 14.1861H30.2571C30.2869 14.554 30.4063 14.8606 30.6151 15.1058C30.8272 15.3478 31.0973 15.5284 31.4254 15.6477C31.7569 15.7637 32.1198 15.8217 32.5142 15.8217C32.9484 15.8217 33.3345 15.7538 33.6726 15.6179C34.014 15.4787 34.2824 15.2865 34.478 15.0412C34.6735 14.7926 34.7713 14.5026 34.7713 14.1712C34.7713 13.8696 34.6851 13.6226 34.5128 13.4304C34.3438 13.2382 34.1134 13.0791 33.8217 12.9531C33.5334 12.8272 33.2069 12.7161 32.8423 12.62L31.6392 12.2919C30.8239 12.0698 30.1776 11.7434 29.7003 11.3125C29.2263 10.8816 28.9893 10.3116 28.9893 9.60227C28.9893 9.01562 29.1484 8.50355 29.4666 8.06605C29.7848 7.62855 30.2157 7.28883 30.7592 7.04688C31.3028 6.80161 31.916 6.67898 32.5987 6.67898C33.2881 6.67898 33.8963 6.79995 34.4233 7.0419C34.9536 7.28385 35.3712 7.61695 35.6761 8.04119C35.9811 8.46212 36.1402 8.94602 36.1534 9.4929H34.6719ZM38.0091 17V9.36364H39.4956V17H38.0091ZM38.7598 8.18537C38.5012 8.18537 38.2792 8.09919 38.0936 7.92685C37.9113 7.75118 37.8201 7.54238 37.8201 7.30043C37.8201 7.05516 37.9113 6.84635 38.0936 6.67401C38.2792 6.49834 38.5012 6.41051 38.7598 6.41051C39.0183 6.41051 39.2387 6.49834 39.421 6.67401C39.6066 6.84635 39.6994 7.05516 39.6994 7.30043C39.6994 7.54238 39.6066 7.75118 39.421 7.92685C39.2387 8.09919 39.0183 8.18537 38.7598 8.18537ZM42.9819 12.4659V17H41.4954V9.36364H42.9222V10.6065H43.0167C43.1924 10.2022 43.4674 9.87737 43.842 9.6321C44.2198 9.38684 44.6954 9.2642 45.2688 9.2642C45.7892 9.2642 46.2449 9.37358 46.636 9.59233C47.0271 9.80777 47.3304 10.1293 47.5458 10.5568C47.7612 10.9844 47.869 11.513 47.869 12.1428V17H46.3825V12.3217C46.3825 11.7682 46.2383 11.3357 45.9499 11.0241C45.6616 10.7093 45.2655 10.5518 44.7617 10.5518C44.417 10.5518 44.1104 10.6264 43.842 10.7756C43.5768 10.9247 43.3664 11.1435 43.2106 11.4318C43.0581 11.7169 42.9819 12.0616 42.9819 12.4659ZM56.7843 17.1541C56.0684 17.1541 55.4436 16.9901 54.91 16.6619C54.3764 16.3338 53.9621 15.8748 53.6671 15.2848C53.3721 14.6948 53.2246 14.0054 53.2246 13.2166C53.2246 12.4245 53.3721 11.7318 53.6671 11.1385C53.9621 10.5452 54.3764 10.0845 54.91 9.75639C55.4436 9.42827 56.0684 9.2642 56.7843 9.2642C57.5002 9.2642 58.1249 9.42827 58.6586 9.75639C59.1922 10.0845 59.6065 10.5452 59.9015 11.1385C60.1964 11.7318 60.3439 12.4245 60.3439 13.2166C60.3439 14.0054 60.1964 14.6948 59.9015 15.2848C59.6065 15.8748 59.1922 16.3338 58.6586 16.6619C58.1249 16.9901 57.5002 17.1541 56.7843 17.1541ZM56.7892 15.9062C57.2533 15.9062 57.6377 15.7836 57.9426 15.5384C58.2476 15.2931 58.473 14.9666 58.6188 14.5589C58.7679 14.1513 58.8425 13.7022 58.8425 13.2116C58.8425 12.7244 58.7679 12.277 58.6188 11.8693C58.473 11.4583 58.2476 11.1286 57.9426 10.88C57.6377 10.6314 57.2533 10.5071 56.7892 10.5071C56.3219 10.5071 55.9341 10.6314 55.6259 10.88C55.321 11.1286 55.0939 11.4583 54.9448 11.8693C54.7989 12.277 54.726 12.7244 54.726 13.2116C54.726 13.7022 54.7989 14.1513 54.9448 14.5589C55.0939 14.9666 55.321 15.2931 55.6259 15.5384C55.9341 15.7836 56.3219 15.9062 56.7892 15.9062ZM62.0032 17V9.36364H63.44V10.5767H63.5195C63.6587 10.1657 63.904 9.84257 64.2553 9.60724C64.61 9.36861 65.011 9.24929 65.4585 9.24929C65.5513 9.24929 65.6606 9.2526 65.7866 9.25923C65.9158 9.26586 66.0169 9.27415 66.0898 9.28409V10.706C66.0302 10.6894 65.9241 10.6712 65.7717 10.6513C65.6192 10.6281 65.4667 10.6165 65.3143 10.6165C64.963 10.6165 64.6497 10.6911 64.3746 10.8402C64.1029 10.986 63.8874 11.1899 63.7283 11.4517C63.5692 11.7102 63.4897 12.0052 63.4897 12.3366V17H62.0032ZM67.3762 17V9.36364H68.8627V17H67.3762ZM68.127 8.18537C67.8684 8.18537 67.6464 8.09919 67.4608 7.92685C67.2785 7.75118 67.1873 7.54238 67.1873 7.30043C67.1873 7.05516 67.2785 6.84635 67.4608 6.67401C67.6464 6.49834 67.8684 6.41051 68.127 6.41051C68.3855 6.41051 68.6059 6.49834 68.7882 6.67401C68.9738 6.84635 69.0666 7.05516 69.0666 7.30043C69.0666 7.54238 68.9738 7.75118 68.7882 7.92685C68.6059 8.09919 68.3855 8.18537 68.127 8.18537ZM74.0643 20.0227C73.4577 20.0227 72.9357 19.9432 72.4982 19.7841C72.064 19.625 71.7094 19.4145 71.4343 19.1527C71.1592 18.8909 70.9537 18.6042 70.8178 18.2926L72.0955 17.7656C72.185 17.9115 72.3043 18.0656 72.4535 18.228C72.6059 18.3937 72.8114 18.5346 73.07 18.6506C73.3318 18.7666 73.6682 18.8246 74.0792 18.8246C74.6426 18.8246 75.1083 18.687 75.4762 18.4119C75.8441 18.1402 76.0281 17.706 76.0281 17.1094V15.608H75.9336C75.8441 15.7704 75.7148 15.951 75.5458 16.1499C75.3801 16.3487 75.1514 16.5211 74.8597 16.6669C74.5681 16.8127 74.1886 16.8857 73.7212 16.8857C73.118 16.8857 72.5745 16.7448 72.0906 16.4631C71.61 16.178 71.2288 15.7588 70.9471 15.2053C70.6687 14.6484 70.5295 13.964 70.5295 13.152C70.5295 12.34 70.667 11.6439 70.9421 11.0639C71.2205 10.4839 71.6017 10.0398 72.0856 9.73153C72.5695 9.41998 73.118 9.2642 73.7312 9.2642C74.2051 9.2642 74.5879 9.34375 74.8796 9.50284C75.1713 9.65862 75.3983 9.84091 75.5607 10.0497C75.7264 10.2585 75.854 10.4425 75.9435 10.6016H76.0529V9.36364H77.5096V17.169C77.5096 17.8253 77.3571 18.3639 77.0522 18.7848C76.7473 19.2057 76.3346 19.5173 75.8143 19.7195C75.2972 19.9216 74.7139 20.0227 74.0643 20.0227ZM74.0494 15.6527C74.4769 15.6527 74.8382 15.5533 75.1332 15.3544C75.4315 15.1522 75.6568 14.8639 75.8093 14.4893C75.9651 14.1115 76.043 13.6591 76.043 13.1321C76.043 12.6184 75.9667 12.166 75.8143 11.7749C75.6618 11.3838 75.4381 11.0788 75.1431 10.8601C74.8481 10.638 74.4835 10.527 74.0494 10.527C73.6019 10.527 73.229 10.643 72.9308 10.875C72.6325 11.1037 72.4071 11.4152 72.2546 11.8097C72.1055 12.2041 72.0309 12.6449 72.0309 13.1321C72.0309 13.6326 72.1071 14.0717 72.2596 14.4496C72.4121 14.8274 72.6374 15.1224 72.9357 15.3345C73.2373 15.5466 73.6085 15.6527 74.0494 15.6527ZM79.5032 17V9.36364H80.9897V17H79.5032ZM80.2539 8.18537C79.9954 8.18537 79.7733 8.09919 79.5877 7.92685C79.4054 7.75118 79.3143 7.54238 79.3143 7.30043C79.3143 7.05516 79.4054 6.84635 79.5877 6.67401C79.7733 6.49834 79.9954 6.41051 80.2539 6.41051C80.5124 6.41051 80.7328 6.49834 80.9151 6.67401C81.1007 6.84635 81.1935 7.05516 81.1935 7.30043C81.1935 7.54238 81.1007 7.75118 80.9151 7.92685C80.7328 8.09919 80.5124 8.18537 80.2539 8.18537ZM86.2807 17.1541C85.5283 17.1541 84.8804 16.9934 84.3368 16.6719C83.7966 16.3471 83.379 15.8913 83.084 15.3047C82.7923 14.7147 82.6465 14.0237 82.6465 13.2315C82.6465 12.4493 82.7923 11.7599 83.084 11.1634C83.379 10.5668 83.79 10.1011 84.3169 9.76633C84.8472 9.43158 85.467 9.2642 86.1763 9.2642C86.6072 9.2642 87.0248 9.33546 87.4292 9.47798C87.8335 9.6205 88.1964 9.84422 88.5179 10.1491C88.8394 10.4541 89.093 10.8501 89.2786 11.3374C89.4642 11.8213 89.557 12.4096 89.557 13.1023V13.6293H83.4867V12.5156H88.1003C88.1003 12.1245 88.0208 11.7782 87.8617 11.4766C87.7026 11.1716 87.4789 10.9313 87.1905 10.7557C86.9055 10.58 86.5707 10.4922 86.1863 10.4922C85.7686 10.4922 85.4041 10.5949 85.0925 10.8004C84.7843 11.0026 84.5456 11.2678 84.3766 11.5959C84.2109 11.9207 84.128 12.2737 84.128 12.6548V13.5249C84.128 14.0353 84.2175 14.4695 84.3965 14.8274C84.5788 15.1854 84.8323 15.4588 85.1571 15.6477C85.4819 15.8333 85.8614 15.9261 86.2956 15.9261C86.5774 15.9261 86.8342 15.8864 87.0662 15.8068C87.2982 15.724 87.4988 15.6013 87.6678 15.4389C87.8368 15.2765 87.9661 15.076 88.0556 14.8374L89.4625 15.0909C89.3498 15.5052 89.1477 15.8681 88.856 16.1797C88.5676 16.4879 88.2047 16.7282 87.7672 16.9006C87.333 17.0696 86.8375 17.1541 86.2807 17.1541ZM92.6928 12.4659V17H91.2063V9.36364H92.6332V10.6065H92.7276C92.9033 10.2022 93.1784 9.87737 93.5529 9.6321C93.9308 9.38684 94.4064 9.2642 94.9798 9.2642C95.5001 9.2642 95.9558 9.37358 96.3469 9.59233C96.738 9.80777 97.0413 10.1293 97.2567 10.5568C97.4722 10.9844 97.5799 11.513 97.5799 12.1428V17H96.0934V12.3217C96.0934 11.7682 95.9492 11.3357 95.6609 11.0241C95.3725 10.7093 94.9764 10.5518 94.4727 10.5518C94.128 10.5518 93.8214 10.6264 93.5529 10.7756C93.2878 10.9247 93.0773 11.1435 92.9215 11.4318C92.7691 11.7169 92.6928 12.0616 92.6928 12.4659Z" fill="#364152"/>
</svg>
